<svg xmlns="http://www.w3.org/2000/svg" xmlns:xlink="http://www.w3.org/1999/xlink" contentStyleType="text/css" height="381px" preserveAspectRatio="none" style="width:1115px;height:381px;background:#FFFFFF;" version="1.1" viewBox="0 0 1115 381" width="1115px" zoomAndPan="magnify"><defs/><g><!--class ListAgentView--><g id="elem_ListAgentView"><rect codeLine="5" fill="#F1F1F1" height="44.6211" id="ListAgentView" rx="2.5" ry="2.5" style="stroke:#181818;stroke-width:0.5;" width="94.7168" x="701" y="7"/><text fill="#000000" font-family="sans-serif" font-size="14" lengthAdjust="spacing" textLength="88.7168" x="704" y="27.1074">ListAgentView</text><line style="stroke:#181818;stroke-width:0.5;" x1="702" x2="794.7168" y1="35.6211" y2="35.6211"/><line style="stroke:#181818;stroke-width:0.5;" x1="702" x2="794.7168" y1="43.6211" y2="43.6211"/></g><!--class ListAgentController--><g id="elem_ListAgentController"><rect codeLine="8" fill="#F1F1F1" height="63.2422" id="ListAgentController" rx="2.5" ry="2.5" style="stroke:#181818;stroke-width:0.5;" width="336.1328" x="359.5" y="113"/><text fill="#000000" font-family="sans-serif" font-size="14" lengthAdjust="spacing" textLength="119.0615" x="468.0356" y="133.1074">ListAgentController</text><line style="stroke:#181818;stroke-width:0.5;" x1="360.5" x2="694.6328" y1="141.6211" y2="141.6211"/><line style="stroke:#181818;stroke-width:0.5;" x1="360.5" x2="694.6328" y1="149.6211" y2="149.6211"/><text fill="#000000" font-family="sans-serif" font-size="14" lengthAdjust="spacing" textLength="324.1328" x="365.5" y="168.7285">+getAllGroupedByStore(): Map&lt;Store, List&lt;Agent&gt;&gt;</text></g><!--class NetworkManager--><g id="elem_NetworkManager"><rect codeLine="12" fill="#F1F1F1" height="81.8633" id="NetworkManager" rx="2.5" ry="2.5" style="stroke:#181818;stroke-width:0.5;" width="245.0713" x="7" y="265"/><text fill="#000000" font-family="sans-serif" font-size="14" lengthAdjust="spacing" textLength="106.5996" x="76.2358" y="285.1074">NetworkManager</text><line style="stroke:#181818;stroke-width:0.5;" x1="8" x2="251.0713" y1="293.6211" y2="293.6211"/><text fill="#000000" font-family="sans-serif" font-size="14" lengthAdjust="spacing" textLength="39.6826" x="13" y="312.7285">-name</text><line style="stroke:#181818;stroke-width:0.5;" x1="8" x2="251.0713" y1="320.2422" y2="320.2422"/><text fill="#000000" font-family="sans-serif" font-size="14" lengthAdjust="spacing" textLength="233.0713" x="13" y="339.3496">+getStoreContainer(): StoreContainer</text></g><!--class StoreContainer--><g id="elem_StoreContainer"><rect codeLine="17" fill="#F1F1F1" height="63.2422" id="StoreContainer" rx="2.5" ry="2.5" style="stroke:#181818;stroke-width:0.5;" width="184.3613" x="343.5" y="274.5"/><text fill="#000000" font-family="sans-serif" font-size="14" lengthAdjust="spacing" textLength="94.165" x="388.5981" y="294.6074">StoreContainer</text><line style="stroke:#181818;stroke-width:0.5;" x1="344.5" x2="526.8613" y1="303.1211" y2="303.1211"/><line style="stroke:#181818;stroke-width:0.5;" x1="344.5" x2="526.8613" y1="311.1211" y2="311.1211"/><text fill="#000000" font-family="sans-serif" font-size="14" lengthAdjust="spacing" textLength="172.3613" x="349.5" y="330.2285">+getAllStores(): List&lt;Store&gt;</text></g><!--class Store--><g id="elem_Store"><rect codeLine="21" fill="#F1F1F1" height="119.1055" id="Store" rx="2.5" ry="2.5" style="stroke:#181818;stroke-width:0.5;" width="161.7822" x="612.5" y="246.5"/><text fill="#000000" font-family="sans-serif" font-size="14" lengthAdjust="spacing" textLength="33.4619" x="676.6602" y="266.6074">Store</text><line style="stroke:#181818;stroke-width:0.5;" x1="613.5" x2="773.2822" y1="275.1211" y2="275.1211"/><text fill="#000000" font-family="sans-serif" font-size="14" lengthAdjust="spacing" textLength="73.1309" x="618.5" y="294.2285">-storeName</text><text fill="#000000" font-family="sans-serif" font-size="14" lengthAdjust="spacing" textLength="52.917" x="618.5" y="312.8496">-location</text><line style="stroke:#181818;stroke-width:0.5;" x1="613.5" x2="773.2822" y1="320.3633" y2="320.3633"/><text fill="#000000" font-family="sans-serif" font-size="14" lengthAdjust="spacing" textLength="149.7822" x="618.5" y="339.4707">+getStoreName(): string</text><text fill="#000000" font-family="sans-serif" font-size="14" lengthAdjust="spacing" textLength="131.9063" x="618.5" y="358.0918">+getLocation(): string</text></g><!--class Agent--><g id="elem_Agent"><rect codeLine="28" fill="#F1F1F1" height="137.7266" id="Agent" rx="2.5" ry="2.5" style="stroke:#181818;stroke-width:0.5;" width="249.3369" x="859" y="237"/><text fill="#000000" font-family="sans-serif" font-size="14" lengthAdjust="spacing" textLength="36.5859" x="965.3755" y="257.1074">Agent</text><line style="stroke:#181818;stroke-width:0.5;" x1="860" x2="1107.3369" y1="265.6211" y2="265.6211"/><text fill="#000000" font-family="sans-serif" font-size="14" lengthAdjust="spacing" textLength="39.6826" x="865" y="284.7285">-name</text><text fill="#000000" font-family="sans-serif" font-size="14" lengthAdjust="spacing" textLength="77.041" x="865" y="303.3496">-employeeId</text><line style="stroke:#181818;stroke-width:0.5;" x1="860" x2="1107.3369" y1="310.8633" y2="310.8633"/><text fill="#000000" font-family="sans-serif" font-size="14" lengthAdjust="spacing" textLength="237.3369" x="865" y="329.9707">Agent(string name, string employeeId)</text><text fill="#000000" font-family="sans-serif" font-size="14" lengthAdjust="spacing" textLength="116.3203" x="865" y="348.5918">+getName(): string</text><text fill="#000000" font-family="sans-serif" font-size="14" lengthAdjust="spacing" textLength="152.9063" x="865" y="367.2129">+getEmployeeId(): string</text></g><!--link NetworkManager to StoreContainer--><g id="link_NetworkManager_StoreContainer"><path codeLine="36" d="M252.2,306 C282.63,306 308.72,306 337.4,306 " fill="none" id="NetworkManager-to-StoreContainer" style="stroke:#181818;stroke-width:1.0;"/><polygon fill="#181818" points="343.4,306,334.4,302,338.4,306,334.4,310,343.4,306" style="stroke:#181818;stroke-width:1.0;"/><text fill="#000000" font-family="sans-serif" font-size="13" lengthAdjust="spacing" textLength="55.6372" x="270.25" y="299.0283">maintains</text><text fill="#000000" font-family="sans-serif" font-size="13" lengthAdjust="spacing" textLength="7.23" x="259.8951" y="302.5234">1</text><text fill="#000000" font-family="sans-serif" font-size="13" lengthAdjust="spacing" textLength="7.23" x="328.1787" y="302.2999">1</text></g><!--link StoreContainer to Store--><g id="link_StoreContainer_Store"><path codeLine="37" d="M527.55,306 C555.19,306 579.3,306 606.2,306 " fill="none" id="StoreContainer-to-Store" style="stroke:#181818;stroke-width:1.0;"/><polygon fill="#181818" points="612.2,306,603.2,302,607.2,306,603.2,310,612.2,306" style="stroke:#181818;stroke-width:1.0;"/><text fill="#000000" font-family="sans-serif" font-size="13" lengthAdjust="spacing" textLength="48.4199" x="546" y="299.0283">contains</text><text fill="#000000" font-family="sans-serif" font-size="13" lengthAdjust="spacing" textLength="7.23" x="535.7557" y="302.2999">1</text><text fill="#000000" font-family="sans-serif" font-size="13" lengthAdjust="spacing" textLength="19.5127" x="584.863" y="320.8205">0..*</text></g><!--link Store to Agent--><g id="link_Store_Agent"><path codeLine="38" d="M774.67,306 C800.81,306 824.4,306 852.93,306 " fill="none" id="Store-to-Agent" style="stroke:#181818;stroke-width:1.0;"/><polygon fill="#181818" points="858.93,306,849.93,302,853.93,306,849.93,310,858.93,306" style="stroke:#181818;stroke-width:1.0;"/><text fill="#000000" font-family="sans-serif" font-size="13" lengthAdjust="spacing" textLength="48.4072" x="792.75" y="299.0283">employs</text><text fill="#000000" font-family="sans-serif" font-size="13" lengthAdjust="spacing" textLength="7.23" x="782.2309" y="302.2796">1</text><text fill="#000000" font-family="sans-serif" font-size="13" lengthAdjust="spacing" textLength="19.5127" x="831.3468" y="320.5909">0..*</text></g><!--link ListAgentView to ListAgentController--><g id="link_ListAgentView_ListAgentController"><path codeLine="40" d="M706.41,52.02 C672.72,69.25 630.3922,90.8886 592.7222,110.1486 " fill="none" id="ListAgentView-to-ListAgentController" style="stroke:#181818;stroke-width:1.0;stroke-dasharray:7.0,7.0;"/><polygon fill="#181818" points="587.38,112.88,597.2143,112.3444,591.8319,110.6038,593.5724,105.2214,587.38,112.88" style="stroke:#181818;stroke-width:1.0;"/></g><!--link ListAgentView to Store--><g id="link_ListAgentView_Store"><path codeLine="41" d="M744.18,52.04 C735.89,93.43 718.6489,179.487 706.4489,240.367 " fill="none" id="ListAgentView-to-Store" style="stroke:#181818;stroke-width:1.0;stroke-dasharray:7.0,7.0;"/><polygon fill="#181818" points="705.27,246.25,710.9604,238.2114,706.2524,241.3475,703.1164,236.6395,705.27,246.25" style="stroke:#181818;stroke-width:1.0;"/></g><!--link ListAgentView to Agent--><g id="link_ListAgentView_Agent"><path codeLine="42" d="M766.94,52.04 C800.59,91.35 869.358,171.6721 921.238,232.2721 " fill="none" id="ListAgentView-to-Agent" style="stroke:#181818;stroke-width:1.0;stroke-dasharray:7.0,7.0;"/><polygon fill="#181818" points="925.14,236.83,922.3255,227.3918,921.8883,233.0318,916.2484,232.5945,925.14,236.83" style="stroke:#181818;stroke-width:1.0;"/></g><!--link ListAgentController to NetworkManager--><g id="link_ListAgentController_NetworkManager"><path codeLine="43" d="M451.23,176.06 C388.26,201.3 303.9493,235.0877 235.1893,262.6477 " fill="none" id="ListAgentController-to-NetworkManager" style="stroke:#181818;stroke-width:1.0;stroke-dasharray:7.0,7.0;"/><polygon fill="#181818" points="229.62,264.88,239.4621,265.2445,234.2611,263.0198,236.4858,257.8188,229.62,264.88" style="stroke:#181818;stroke-width:1.0;"/></g><!--link ListAgentController to StoreContainer--><g id="link_ListAgentController_StoreContainer"><path codeLine="44" d="M509.76,176.25 C493.47,204.5 472.459,240.9333 456.179,269.1433 " fill="none" id="ListAgentController-to-StoreContainer" style="stroke:#181818;stroke-width:1.0;stroke-dasharray:7.0,7.0;"/><polygon fill="#181818" points="453.18,274.34,461.143,268.5443,455.6792,270.0094,454.2141,264.5456,453.18,274.34" style="stroke:#181818;stroke-width:1.0;"/></g><!--link ListAgentController to Store--><g id="link_ListAgentController_Store"><path codeLine="45" d="M559.51,176.25 C580.14,196.08 603.3142,218.3422 628.0242,242.0922 " fill="none" id="ListAgentController-to-Store" style="stroke:#181818;stroke-width:1.0;stroke-dasharray:7.0,7.0;"/><polygon fill="#181818" points="632.35,246.25,628.6331,237.1294,628.7451,242.7852,623.0894,242.8972,632.35,246.25" style="stroke:#181818;stroke-width:1.0;"/></g><!--link ListAgentController to Agent--><g id="link_ListAgentController_Agent"><path codeLine="46" d="M616.81,176.1 C668.24,193.78 734.05,216.51 792.5,237 C814.01,244.54 831.1957,250.6127 853.3357,258.4727 " fill="none" id="ListAgentController-to-Agent" style="stroke:#181818;stroke-width:1.0;stroke-dasharray:7.0,7.0;"/><polygon fill="#181818" points="858.99,260.48,851.8468,253.6995,854.2781,258.8072,849.1704,261.2385,858.99,260.48" style="stroke:#181818;stroke-width:1.0;"/></g><!--SRC=[VLBVQy8m47xFNt7uf9ijxhL8eHjZ2EgBiFUi7ZMO9YM9Y1lxtzUSNJIrwakz-txSb-DsOejG2bDAP7OlLCCDhw6KtDh2EIE-3WuNfLORyOqmOumGM0hhYWgL-nHuX1_sUmEyQUMCbX9D2qFxUwxG5L9-67reSFjwsZXjS3p9OCMREHLJKiz9dkSNppMwepRx5LUy2dO9A5vZS2O3FvCBXSRRnfsBMzoFmn5clPgIK9dtf66-zTNwFqG2KfVS2QtYJ9xW3MsxIrK5RDcHhw0mXXPm-ym4i6waFY4kjjGWtlYi9jgqixeYJiB4Eq7U0pMEqblww6K4YH7LpYKv5V4QCwZRh_zlMM_1iNAMfa-TE8DINqi6cVJ6h7kGPIm-l3JDXovkW4KJ1lfKiQ6hzMYyXBkqtgazfDr5pqd-0000]--></g></svg>