<svg xmlns="http://www.w3.org/2000/svg" xmlns:xlink="http://www.w3.org/1999/xlink" contentStyleType="text/css" height="490.7px" preserveAspectRatio="none" style="width:1082px;height:490px;background:#FFFFFF;" version="1.1" viewBox="0 0 1082 490" width="1082.2px" zoomAndPan="magnify"><defs/><g><rect fill="#FFFFFF" height="361.1904" style="stroke:#181818;stroke-width:0.6999999999999998;" width="7" x="50.9985" y="65.5348"/><rect fill="#FFFFFF" height="333.6867" style="stroke:#181818;stroke-width:0.6999999999999998;" width="7" x="198.0282" y="81.8385"/><rect fill="#FFFFFF" height="227.6682" style="stroke:#181818;stroke-width:0.6999999999999998;" width="7" x="352.3608" y="103.7422"/><rect fill="#FFFFFF" height="96.2459" style="stroke:#181818;stroke-width:0.6999999999999998;" width="7" x="495.3337" y="125.6459"/><rect fill="#FFFFFF" height="65.7111" style="stroke:#181818;stroke-width:0.6999999999999998;" width="7" x="662.6553" y="243.7955"/><rect fill="#FFFFFF" height="21.9037" style="stroke:#181818;stroke-width:0.6999999999999998;" width="7" x="819.9738" y="147.5496"/><rect fill="#FFFFFF" height="21.9037" style="stroke:#181818;stroke-width:0.6999999999999998;" width="7" x="941.351" y="265.6992"/><rect fill="#FFFFFF" height="21.9037" style="stroke:#181818;stroke-width:0.6999999999999998;" width="7" x="1034.9575" y="371.7178"/><rect fill="none" height="79.2148" style="stroke:#000000;stroke-width:1.0499999999999998;" width="1071.4105" x="7" y="341.9104"/><line style="stroke:#181818;stroke-width:0.3499999999999999;stroke-dasharray:5.0,5.0;" x1="53.9" x2="53.9" y1="58.5348" y2="433.0252"/><line style="stroke:#181818;stroke-width:0.3499999999999999;stroke-dasharray:5.0,5.0;" x1="201.0723" x2="201.0723" y1="58.5348" y2="433.0252"/><line style="stroke:#181818;stroke-width:0.3499999999999999;stroke-dasharray:5.0,5.0;" x1="355.2842" x2="355.2842" y1="58.5348" y2="433.0252"/><line style="stroke:#181818;stroke-width:0.3499999999999999;stroke-dasharray:5.0,5.0;" x1="498.7011" x2="498.7011" y1="58.5348" y2="433.0252"/><line style="stroke:#181818;stroke-width:0.3499999999999999;stroke-dasharray:5.0,5.0;" x1="665.4604" x2="665.4604" y1="197.3207" y2="433.0252"/><line style="stroke:#181818;stroke-width:0.3499999999999999;stroke-dasharray:5.0,5.0;" x1="822.9501" x2="822.9501" y1="58.5348" y2="433.0252"/><line style="stroke:#181818;stroke-width:0.3499999999999999;stroke-dasharray:5.0,5.0;" x1="944.3974" x2="944.3974" y1="58.5348" y2="433.0252"/><line style="stroke:#181818;stroke-width:0.3499999999999999;stroke-dasharray:5.0,5.0;" x1="1038.4045" x2="1038.4045" y1="58.5348" y2="433.0252"/><text fill="#000000" font-family="sans-serif" font-size="9.8" lengthAdjust="spacing" textLength="76.797" x="14" y="56.0752">UnregisteredUser</text><ellipse cx="54.4985" cy="9.45" fill="#E2E2F0" rx="5.6" ry="5.6" style="stroke:#181818;stroke-width:0.3499999999999999;"/><path d="M54.4985,15.05 L54.4985,33.95 M45.3985,20.65 L63.5985,20.65 M54.4985,33.95 L45.3985,44.45 M54.4985,33.95 L63.5985,44.45 " fill="none" style="stroke:#181818;stroke-width:0.3499999999999999;"/><text fill="#000000" font-family="sans-serif" font-size="9.8" lengthAdjust="spacing" textLength="76.797" x="14" y="442.9004">UnregisteredUser</text><ellipse cx="54.4985" cy="451.31" fill="#E2E2F0" rx="5.6" ry="5.6" style="stroke:#181818;stroke-width:0.3499999999999999;"/><path d="M54.4985,456.91 L54.4985,475.81 M45.3985,462.51 L63.5985,462.51 M54.4985,475.81 L45.3985,486.31 M54.4985,475.81 L63.5985,486.31 " fill="none" style="stroke:#181818;stroke-width:0.3499999999999999;"/><rect fill="#E2E2F0" height="22.8348" rx="1.75" ry="1.75" style="stroke:#181818;stroke-width:0.3499999999999999;" width="136.7119" x="133.1723" y="35"/><text fill="#000000" font-family="sans-serif" font-size="9.8" lengthAdjust="spacing" textLength="126.9119" x="138.0723" y="50.4752">:DisplayListedPropertiesView</text><rect fill="#E2E2F0" height="22.8348" rx="1.75" ry="1.75" style="stroke:#181818;stroke-width:0.3499999999999999;" width="136.7119" x="133.1723" y="432.3252"/><text fill="#000000" font-family="sans-serif" font-size="9.8" lengthAdjust="spacing" textLength="126.9119" x="138.0723" y="447.8004">:DisplayListedPropertiesView</text><rect fill="#E2E2F0" height="22.8348" rx="1.75" ry="1.75" style="stroke:#181818;stroke-width:0.3499999999999999;" width="157.9532" x="276.8842" y="35"/><text fill="#000000" font-family="sans-serif" font-size="9.8" lengthAdjust="spacing" textLength="148.1532" x="281.7842" y="50.4752">:DisplayListedPropertiesController</text><rect fill="#E2E2F0" height="22.8348" rx="1.75" ry="1.75" style="stroke:#181818;stroke-width:0.3499999999999999;" width="157.9532" x="276.8842" y="432.3252"/><text fill="#000000" font-family="sans-serif" font-size="9.8" lengthAdjust="spacing" textLength="148.1532" x="281.7842" y="447.8004">:DisplayListedPropertiesController</text><rect fill="#E2E2F0" height="22.8348" rx="1.75" ry="1.75" style="stroke:#181818;stroke-width:0.3499999999999999;" width="60.4652" x="468.6011" y="35"/><text fill="#000000" font-family="sans-serif" font-size="9.8" lengthAdjust="spacing" textLength="50.6652" x="473.5011" y="50.4752">:Application</text><rect fill="#E2E2F0" height="22.8348" rx="1.75" ry="1.75" style="stroke:#181818;stroke-width:0.3499999999999999;" width="60.4652" x="468.6011" y="432.3252"/><text fill="#000000" font-family="sans-serif" font-size="9.8" lengthAdjust="spacing" textLength="50.6652" x="473.5011" y="447.8004">:Application</text><rect fill="#E2E2F0" height="22.8348" rx="1.75" ry="1.75" style="stroke:#181818;stroke-width:0.3499999999999999;" width="179.1897" x="576.5604" y="432.3252"/><text fill="#000000" font-family="sans-serif" font-size="9.8" lengthAdjust="spacing" textLength="169.3897" x="581.4604" y="447.8004">service:DisplayListedPropertiesService</text><rect fill="#E2E2F0" height="22.8348" rx="1.75" ry="1.75" style="stroke:#181818;stroke-width:0.3499999999999999;" width="121.4473" x="762.7501" y="35"/><text fill="#000000" font-family="sans-serif" font-size="9.8" lengthAdjust="spacing" textLength="111.6473" x="767.6501" y="50.4752">factory:RepositoryFactory</text><rect fill="#E2E2F0" height="22.8348" rx="1.75" ry="1.75" style="stroke:#181818;stroke-width:0.3499999999999999;" width="121.4473" x="762.7501" y="432.3252"/><text fill="#000000" font-family="sans-serif" font-size="9.8" lengthAdjust="spacing" textLength="111.6473" x="767.6501" y="447.8004">factory:RepositoryFactory</text><rect fill="#E2E2F0" height="22.8348" rx="1.75" ry="1.75" style="stroke:#181818;stroke-width:0.3499999999999999;" width="107.3071" x="891.1974" y="35"/><text fill="#000000" font-family="sans-serif" font-size="9.8" lengthAdjust="spacing" textLength="97.5071" x="896.0974" y="50.4752">repo:ListingRepository</text><rect fill="#E2E2F0" height="22.8348" rx="1.75" ry="1.75" style="stroke:#181818;stroke-width:0.3499999999999999;" width="107.3071" x="891.1974" y="432.3252"/><text fill="#000000" font-family="sans-serif" font-size="9.8" lengthAdjust="spacing" textLength="97.5071" x="896.0974" y="447.8004">repo:ListingRepository</text><rect fill="#E2E2F0" height="22.8348" rx="1.75" ry="1.75" style="stroke:#181818;stroke-width:0.3499999999999999;" width="65.906" x="1005.5045" y="35"/><text fill="#000000" font-family="sans-serif" font-size="9.8" lengthAdjust="spacing" textLength="56.106" x="1010.4045" y="50.4752">listing:Listing</text><rect fill="#E2E2F0" height="22.8348" rx="1.75" ry="1.75" style="stroke:#181818;stroke-width:0.3499999999999999;" width="65.906" x="1005.5045" y="432.3252"/><text fill="#000000" font-family="sans-serif" font-size="9.8" lengthAdjust="spacing" textLength="56.106" x="1010.4045" y="447.8004">listing:Listing</text><rect fill="#FFFFFF" height="361.1904" style="stroke:#181818;stroke-width:0.6999999999999998;" width="7" x="50.9985" y="65.5348"/><rect fill="#FFFFFF" height="333.6867" style="stroke:#181818;stroke-width:0.6999999999999998;" width="7" x="198.0282" y="81.8385"/><rect fill="#FFFFFF" height="227.6682" style="stroke:#181818;stroke-width:0.6999999999999998;" width="7" x="352.3608" y="103.7422"/><rect fill="#FFFFFF" height="96.2459" style="stroke:#181818;stroke-width:0.6999999999999998;" width="7" x="495.3337" y="125.6459"/><rect fill="#FFFFFF" height="65.7111" style="stroke:#181818;stroke-width:0.6999999999999998;" width="7" x="662.6553" y="243.7955"/><rect fill="#FFFFFF" height="21.9037" style="stroke:#181818;stroke-width:0.6999999999999998;" width="7" x="819.9738" y="147.5496"/><rect fill="#FFFFFF" height="21.9037" style="stroke:#181818;stroke-width:0.6999999999999998;" width="7" x="941.351" y="265.6992"/><rect fill="#FFFFFF" height="21.9037" style="stroke:#181818;stroke-width:0.6999999999999998;" width="7" x="1034.9575" y="371.7178"/><polygon fill="#181818" points="189.6282,79.0385,196.6282,81.8385,189.6282,84.6385,192.4282,81.8385" style="stroke:#181818;stroke-width:0.6999999999999998;"/><line style="stroke:#181818;stroke-width:0.6999999999999998;" x1="57.9985" x2="193.8282" y1="81.8385" y2="81.8385"/><text fill="#000000" font-family="sans-serif" font-size="9.1" font-weight="bold" lengthAdjust="spacing" textLength="5.061" x="62.8985" y="78.1546">1</text><text fill="#000000" font-family="sans-serif" font-size="9.1" lengthAdjust="spacing" textLength="118.8687" x="70.7595" y="78.1546">requests to display properties</text><polygon fill="#181818" points="343.9608,100.9422,350.9608,103.7422,343.9608,106.5422,346.7608,103.7422" style="stroke:#181818;stroke-width:0.6999999999999998;"/><line style="stroke:#181818;stroke-width:0.6999999999999998;" x1="205.0282" x2="348.1608" y1="103.7422" y2="103.7422"/><text fill="#000000" font-family="sans-serif" font-size="9.1" font-weight="bold" lengthAdjust="spacing" textLength="5.061" x="209.9282" y="100.0583">2</text><text fill="#000000" font-family="sans-serif" font-size="9.1" lengthAdjust="spacing" textLength="58.6568" x="217.7892" y="100.0583">listProperties()</text><polygon fill="#181818" points="486.9337,122.8459,493.9337,125.6459,486.9337,128.4459,489.7337,125.6459" style="stroke:#181818;stroke-width:0.6999999999999998;"/><line style="stroke:#181818;stroke-width:0.6999999999999998;" x1="359.3608" x2="491.1337" y1="125.6459" y2="125.6459"/><text fill="#000000" font-family="sans-serif" font-size="9.1" font-weight="bold" lengthAdjust="spacing" textLength="5.061" x="364.2608" y="121.962">3</text><text fill="#000000" font-family="sans-serif" font-size="9.1" lengthAdjust="spacing" textLength="114.812" x="372.1218" y="121.962">getListedPropertiesService()</text><polygon fill="#181818" points="811.5738,144.7496,818.5738,147.5496,811.5738,150.3496,814.3738,147.5496" style="stroke:#181818;stroke-width:0.6999999999999998;"/><line style="stroke:#181818;stroke-width:0.6999999999999998;" x1="502.3337" x2="815.7738" y1="147.5496" y2="147.5496"/><text fill="#000000" font-family="sans-serif" font-size="9.1" font-weight="bold" lengthAdjust="spacing" textLength="5.061" x="507.2337" y="143.8657">4</text><text fill="#000000" font-family="sans-serif" font-size="9.1" lengthAdjust="spacing" textLength="88.5117" x="515.0947" y="143.8657">getListingRepository()</text><polygon fill="#181818" points="510.0337,166.6533,503.0337,169.4533,510.0337,172.2533,507.2337,169.4533" style="stroke:#181818;stroke-width:0.6999999999999998;"/><line style="stroke:#181818;stroke-width:0.6999999999999998;stroke-dasharray:2.0,2.0;" x1="505.8337" x2="822.7738" y1="169.4533" y2="169.4533"/><text fill="#000000" font-family="sans-serif" font-size="9.1" font-weight="bold" lengthAdjust="spacing" textLength="5.061" x="514.2337" y="165.7694">5</text><text fill="#000000" font-family="sans-serif" font-size="9.1" lengthAdjust="spacing" textLength="18.2133" x="522.0947" y="165.7694">repo</text><polygon fill="#181818" points="568.1604,188.557,575.1604,191.357,568.1604,194.157,570.9604,191.357" style="stroke:#181818;stroke-width:0.6999999999999998;"/><line style="stroke:#181818;stroke-width:0.6999999999999998;stroke-dasharray:2.0,2.0;" x1="502.3337" x2="572.3604" y1="191.357" y2="191.357"/><text fill="#000000" font-family="sans-serif" font-size="9.1" font-weight="bold" lengthAdjust="spacing" textLength="5.061" x="507.2337" y="187.6731">6</text><text fill="#000000" font-family="sans-serif" font-size="9.1" lengthAdjust="spacing" textLength="49.5657" x="515.0947" y="187.6731">create(repo)</text><rect fill="#E2E2F0" height="22.8348" rx="1.75" ry="1.75" style="stroke:#181818;stroke-width:0.3499999999999999;" width="179.1897" x="576.5604" y="175.0533"/><text fill="#000000" font-family="sans-serif" font-size="9.8" lengthAdjust="spacing" textLength="169.3897" x="581.4604" y="190.5285">service:DisplayListedPropertiesService</text><polygon fill="#181818" points="367.0608,219.0918,360.0608,221.8918,367.0608,224.6918,364.2608,221.8918" style="stroke:#181818;stroke-width:0.6999999999999998;"/><line style="stroke:#181818;stroke-width:0.6999999999999998;stroke-dasharray:2.0,2.0;" x1="362.8608" x2="498.1337" y1="221.8918" y2="221.8918"/><text fill="#000000" font-family="sans-serif" font-size="9.1" font-weight="bold" lengthAdjust="spacing" textLength="5.061" x="371.2608" y="218.2079">7</text><text fill="#000000" font-family="sans-serif" font-size="9.1" lengthAdjust="spacing" textLength="28.8241" x="379.1218" y="218.2079">service</text><polygon fill="#181818" points="654.2553,240.9955,661.2553,243.7955,654.2553,246.5955,657.0553,243.7955" style="stroke:#181818;stroke-width:0.6999999999999998;"/><line style="stroke:#181818;stroke-width:0.6999999999999998;" x1="359.3608" x2="658.4553" y1="243.7955" y2="243.7955"/><text fill="#000000" font-family="sans-serif" font-size="9.1" font-weight="bold" lengthAdjust="spacing" textLength="5.061" x="364.2608" y="240.1116">8</text><text fill="#000000" font-family="sans-serif" font-size="9.1" lengthAdjust="spacing" textLength="138.5706" x="372.1218" y="240.1116">getListedProperties(filters, criteria)</text><polygon fill="#181818" points="932.951,262.8992,939.951,265.6992,932.951,268.4992,935.751,265.6992" style="stroke:#181818;stroke-width:0.6999999999999998;"/><line style="stroke:#181818;stroke-width:0.6999999999999998;" x1="669.6553" x2="937.151" y1="265.6992" y2="265.6992"/><text fill="#000000" font-family="sans-serif" font-size="9.1" font-weight="bold" lengthAdjust="spacing" textLength="5.061" x="674.5553" y="262.0153">9</text><text fill="#000000" font-family="sans-serif" font-size="9.1" lengthAdjust="spacing" textLength="103.668" x="682.4163" y="262.0153">getListings(filters, criteria)</text><polygon fill="#181818" points="677.3553,284.8029,670.3553,287.6029,677.3553,290.4029,674.5553,287.6029" style="stroke:#181818;stroke-width:0.6999999999999998;"/><line style="stroke:#181818;stroke-width:0.6999999999999998;stroke-dasharray:2.0,2.0;" x1="673.1553" x2="944.151" y1="287.6029" y2="287.6029"/><text fill="#000000" font-family="sans-serif" font-size="9.1" font-weight="bold" lengthAdjust="spacing" textLength="10.122" x="681.5553" y="283.919">10</text><text fill="#000000" font-family="sans-serif" font-size="9.1" lengthAdjust="spacing" textLength="81.9444" x="694.4772" y="283.919">returns List&lt;Listing&gt;</text><polygon fill="#181818" points="367.0608,306.7066,360.0608,309.5066,367.0608,312.3066,364.2608,309.5066" style="stroke:#181818;stroke-width:0.6999999999999998;"/><line style="stroke:#181818;stroke-width:0.6999999999999998;stroke-dasharray:2.0,2.0;" x1="362.8608" x2="665.4553" y1="309.5066" y2="309.5066"/><text fill="#000000" font-family="sans-serif" font-size="9.1" font-weight="bold" lengthAdjust="spacing" textLength="10.122" x="371.2608" y="305.8228">11</text><text fill="#000000" font-family="sans-serif" font-size="9.1" lengthAdjust="spacing" textLength="81.9444" x="384.1828" y="305.8228">returns List&lt;Listing&gt;</text><polygon fill="#181818" points="212.7282,328.6104,205.7282,331.4104,212.7282,334.2104,209.9282,331.4104" style="stroke:#181818;stroke-width:0.6999999999999998;"/><line style="stroke:#181818;stroke-width:0.6999999999999998;stroke-dasharray:2.0,2.0;" x1="208.5282" x2="355.1608" y1="331.4104" y2="331.4104"/><text fill="#000000" font-family="sans-serif" font-size="9.1" font-weight="bold" lengthAdjust="spacing" textLength="10.122" x="216.9282" y="327.7265">12</text><text fill="#000000" font-family="sans-serif" font-size="9.1" lengthAdjust="spacing" textLength="81.9444" x="229.8502" y="327.7265">returns List&lt;Listing&gt;</text><path d="M7,341.9104 L57.7042,341.9104 L57.7042,348.4141 L50.7042,355.4141 L7,355.4141 L7,341.9104 " fill="#EEEEEE" style="stroke:#000000;stroke-width:1.0499999999999998;"/><rect fill="none" height="79.2148" style="stroke:#000000;stroke-width:1.0499999999999998;" width="1071.4105" x="7" y="341.9104"/><text fill="#000000" font-family="sans-serif" font-size="9.1" font-weight="bold" lengthAdjust="spacing" textLength="19.2042" x="17.5" y="352.4302">loop</text><text fill="#000000" font-family="sans-serif" font-size="7.7" font-weight="bold" lengthAdjust="spacing" textLength="126.2567" x="68.2042" y="351.6194">[for each 'listing' in 'List&lt;Listing&gt;']</text><polygon fill="#181818" points="1026.5575,368.9178,1033.5575,371.7178,1026.5575,374.5178,1029.3575,371.7178" style="stroke:#181818;stroke-width:0.6999999999999998;"/><line style="stroke:#181818;stroke-width:0.6999999999999998;" x1="205.0282" x2="1030.7575" y1="371.7178" y2="371.7178"/><text fill="#000000" font-family="sans-serif" font-size="9.1" font-weight="bold" lengthAdjust="spacing" textLength="10.122" x="209.9282" y="368.0339">13</text><text fill="#000000" font-family="sans-serif" font-size="9.1" lengthAdjust="spacing" textLength="53.1026" x="222.8502" y="368.0339">getProperty()</text><polygon fill="#181818" points="212.7282,390.8215,205.7282,393.6215,212.7282,396.4215,209.9282,393.6215" style="stroke:#181818;stroke-width:0.6999999999999998;"/><line style="stroke:#181818;stroke-width:0.6999999999999998;stroke-dasharray:2.0,2.0;" x1="208.5282" x2="1037.7575" y1="393.6215" y2="393.6215"/><text fill="#000000" font-family="sans-serif" font-size="9.1" font-weight="bold" lengthAdjust="spacing" textLength="10.122" x="216.9282" y="389.9376">14</text><text fill="#000000" font-family="sans-serif" font-size="9.1" lengthAdjust="spacing" textLength="65.2418" x="229.8502" y="389.9376">returns Property</text><polygon fill="#181818" points="65.6985,412.7252,58.6985,415.5252,65.6985,418.3252,62.8985,415.5252" style="stroke:#181818;stroke-width:0.6999999999999998;"/><line style="stroke:#181818;stroke-width:0.6999999999999998;stroke-dasharray:2.0,2.0;" x1="61.4985" x2="200.8282" y1="415.5252" y2="415.5252"/><text fill="#000000" font-family="sans-serif" font-size="9.1" font-weight="bold" lengthAdjust="spacing" textLength="10.122" x="69.8985" y="411.8413">15</text><text fill="#000000" font-family="sans-serif" font-size="9.1" lengthAdjust="spacing" textLength="97.6206" x="82.8205" y="411.8413">displays property details</text><!--SRC=[ZPF1Rjim38RlUWeY5oV5ijo5eS3GeQSTXXNTNREPb80igPBS8My_KfATUd21vH18ulUBFqcvUyav97qw1MjSdaRxkVVZAU7hXAx7uq3c4isep9IzwJEzcOpWNTcxQVoDKIa-zn5spoxYXLB6YCDpmhW3aq0MAfYOgQV02M2dlr7YNDVlWWu_eW_8KKo_2FyKoTEL0-F_YHwyoz5Rsx8zv6Z_4NuDmL9lCdbN4Dwl2JRuHZr-bE6fXgkpkbxhpwNyg_w9mIUIvMCzAPAsNaiYereIaRlSP8MNxHgsbPlvGhLrQNqTIUcpadyuthSMQeWonfGJP0z3hG_2Kfggc0YaSHearQto_K79iOIvQHekc3ze3fDC2DZANU1LWOorE1pdIwKLLIoswtLtTnhwY5pMNiA79LvTje4jvffgq-3-J9OVPFh45n8lo1nKuqKgtjvxtUG5UczFJESfkZg6BqrwVxjtSRhDLT-hAMrXrli0P_wmqFGlqBLdq04vw5Pafu1_jrcsyr9NwuIqNg0Msim-ewlRc9CtfUVNa-RdSuK1io6R5Be1nEjV]--></g></svg>