<svg xmlns="http://www.w3.org/2000/svg" xmlns:xlink="http://www.w3.org/1999/xlink" contentStyleType="text/css" height="687px" preserveAspectRatio="none" style="width:1086px;height:687px;background:#FFFFFF;" version="1.1" viewBox="0 0 1086 687" width="1086px" zoomAndPan="magnify"><defs/><g><rect fill="#FFFFFF" height="501.6563" style="stroke:#181818;stroke-width:1.0;" width="10" x="57.855" y="93.6211"/><rect fill="#FFFFFF" height="219.0371" style="stroke:#181818;stroke-width:1.0;" width="10" x="353.8765" y="116.9121"/><rect fill="#FFFFFF" height="219.0371" style="stroke:#181818;stroke-width:1.0;" width="10" x="353.8765" y="367.2402"/><rect fill="#FFFFFF" height="156.4551" style="stroke:#181818;stroke-width:1.0;" width="10" x="577.5835" y="148.2031"/><rect fill="#FFFFFF" height="156.4551" style="stroke:#181818;stroke-width:1.0;" width="10" x="577.5835" y="398.5313"/><rect fill="#FFFFFF" height="93.873" style="stroke:#181818;stroke-width:1.0;" width="10" x="802.3379" y="179.4941"/><rect fill="#FFFFFF" height="93.873" style="stroke:#181818;stroke-width:1.0;" width="10" x="802.3379" y="429.8223"/><rect fill="#FFFFFF" height="31.291" style="stroke:#181818;stroke-width:1.0;" width="10" x="1014.4922" y="210.7852"/><rect fill="#FFFFFF" height="31.291" style="stroke:#181818;stroke-width:1.0;" width="10" x="1014.4922" y="461.1133"/><line style="stroke:#181818;stroke-width:0.5;stroke-dasharray:5.0,5.0;" x1="62" x2="62" y1="83.6211" y2="604.2773"/><line style="stroke:#181818;stroke-width:0.5;stroke-dasharray:5.0,5.0;" x1="358.1699" x2="358.1699" y1="83.6211" y2="604.2773"/><line style="stroke:#181818;stroke-width:0.5;stroke-dasharray:5.0,5.0;" x1="581.7046" x2="581.7046" y1="83.6211" y2="604.2773"/><line style="stroke:#181818;stroke-width:0.5;stroke-dasharray:5.0,5.0;" x1="806.4624" x2="806.4624" y1="83.6211" y2="604.2773"/><line style="stroke:#181818;stroke-width:0.5;stroke-dasharray:5.0,5.0;" x1="1018.7993" x2="1018.7993" y1="83.6211" y2="604.2773"/><text fill="#000000" font-family="sans-serif" font-size="14" lengthAdjust="spacing" textLength="109.71" x="5" y="80.1074">UnregisteredUser</text><ellipse cx="62.855" cy="13.5" fill="#E2E2F0" rx="8" ry="8" style="stroke:#181818;stroke-width:0.5;"/><path d="M62.855,21.5 L62.855,48.5 M49.855,29.5 L75.855,29.5 M62.855,48.5 L49.855,63.5 M62.855,48.5 L75.855,63.5 " fill="none" style="stroke:#181818;stroke-width:0.5;"/><text fill="#000000" font-family="sans-serif" font-size="14" lengthAdjust="spacing" textLength="109.71" x="5" y="618.3848">UnregisteredUser</text><ellipse cx="62.855" cy="630.3984" fill="#E2E2F0" rx="8" ry="8" style="stroke:#181818;stroke-width:0.5;"/><path d="M62.855,638.3984 L62.855,665.3984 M49.855,646.3984 L75.855,646.3984 M62.855,665.3984 L49.855,680.3984 M62.855,665.3984 L75.855,680.3984 " fill="none" style="stroke:#181818;stroke-width:0.5;"/><rect fill="#E2E2F0" height="32.6211" rx="2.5" ry="2.5" style="stroke:#181818;stroke-width:0.5;" width="191.4131" x="263.1699" y="50"/><text fill="#000000" font-family="sans-serif" font-size="14" lengthAdjust="spacing" textLength="177.4131" x="270.1699" y="72.1074">DisplayListedPropertiesView</text><rect fill="#E2E2F0" height="32.6211" rx="2.5" ry="2.5" style="stroke:#181818;stroke-width:0.5;" width="191.4131" x="263.1699" y="603.2773"/><text fill="#000000" font-family="sans-serif" font-size="14" lengthAdjust="spacing" textLength="177.4131" x="270.1699" y="625.3848">DisplayListedPropertiesView</text><rect fill="#E2E2F0" height="32.6211" rx="2.5" ry="2.5" style="stroke:#181818;stroke-width:0.5;" width="221.7578" x="471.7046" y="50"/><text fill="#000000" font-family="sans-serif" font-size="14" lengthAdjust="spacing" textLength="207.7578" x="478.7046" y="72.1074">DisplayListedPropertiesController</text><rect fill="#E2E2F0" height="32.6211" rx="2.5" ry="2.5" style="stroke:#181818;stroke-width:0.5;" width="221.7578" x="471.7046" y="603.2773"/><text fill="#000000" font-family="sans-serif" font-size="14" lengthAdjust="spacing" textLength="207.7578" x="478.7046" y="625.3848">DisplayListedPropertiesController</text><rect fill="#E2E2F0" height="32.6211" rx="2.5" ry="2.5" style="stroke:#181818;stroke-width:0.5;" width="207.751" x="703.4624" y="50"/><text fill="#000000" font-family="sans-serif" font-size="14" lengthAdjust="spacing" textLength="193.751" x="710.4624" y="72.1074">DisplayListedPropertiesService</text><rect fill="#E2E2F0" height="32.6211" rx="2.5" ry="2.5" style="stroke:#181818;stroke-width:0.5;" width="207.751" x="703.4624" y="603.2773"/><text fill="#000000" font-family="sans-serif" font-size="14" lengthAdjust="spacing" textLength="193.751" x="710.4624" y="625.3848">DisplayListedPropertiesService</text><rect fill="#E2E2F0" height="32.6211" rx="2.5" ry="2.5" style="stroke:#181818;stroke-width:0.5;" width="121.3857" x="958.7993" y="50"/><text fill="#000000" font-family="sans-serif" font-size="14" lengthAdjust="spacing" textLength="107.3857" x="965.7993" y="72.1074">ListingRepository</text><rect fill="#E2E2F0" height="32.6211" rx="2.5" ry="2.5" style="stroke:#181818;stroke-width:0.5;" width="121.3857" x="958.7993" y="603.2773"/><text fill="#000000" font-family="sans-serif" font-size="14" lengthAdjust="spacing" textLength="107.3857" x="965.7993" y="625.3848">ListingRepository</text><rect fill="#FFFFFF" height="501.6563" style="stroke:#181818;stroke-width:1.0;" width="10" x="57.855" y="93.6211"/><rect fill="#FFFFFF" height="219.0371" style="stroke:#181818;stroke-width:1.0;" width="10" x="353.8765" y="116.9121"/><rect fill="#FFFFFF" height="219.0371" style="stroke:#181818;stroke-width:1.0;" width="10" x="353.8765" y="367.2402"/><rect fill="#FFFFFF" height="156.4551" style="stroke:#181818;stroke-width:1.0;" width="10" x="577.5835" y="148.2031"/><rect fill="#FFFFFF" height="156.4551" style="stroke:#181818;stroke-width:1.0;" width="10" x="577.5835" y="398.5313"/><rect fill="#FFFFFF" height="93.873" style="stroke:#181818;stroke-width:1.0;" width="10" x="802.3379" y="179.4941"/><rect fill="#FFFFFF" height="93.873" style="stroke:#181818;stroke-width:1.0;" width="10" x="802.3379" y="429.8223"/><rect fill="#FFFFFF" height="31.291" style="stroke:#181818;stroke-width:1.0;" width="10" x="1014.4922" y="210.7852"/><rect fill="#FFFFFF" height="31.291" style="stroke:#181818;stroke-width:1.0;" width="10" x="1014.4922" y="461.1133"/><polygon fill="#181818" points="341.8765,112.9121,351.8765,116.9121,341.8765,120.9121,345.8765,116.9121" style="stroke:#181818;stroke-width:1.0;"/><line style="stroke:#181818;stroke-width:1.0;" x1="67.855" x2="347.8765" y1="116.9121" y2="116.9121"/><text fill="#000000" font-family="sans-serif" font-size="13" font-weight="bold" lengthAdjust="spacing" textLength="7.23" x="74.855" y="111.6494">1</text><text fill="#000000" font-family="sans-serif" font-size="13" lengthAdjust="spacing" textLength="169.8125" x="86.085" y="111.6494">requests to display properties</text><polygon fill="#181818" points="565.5835,144.2031,575.5835,148.2031,565.5835,152.2031,569.5835,148.2031" style="stroke:#181818;stroke-width:1.0;"/><line style="stroke:#181818;stroke-width:1.0;" x1="363.8765" x2="571.5835" y1="148.2031" y2="148.2031"/><text fill="#000000" font-family="sans-serif" font-size="13" font-weight="bold" lengthAdjust="spacing" textLength="7.23" x="370.8765" y="142.9404">2</text><text fill="#000000" font-family="sans-serif" font-size="13" lengthAdjust="spacing" textLength="83.7954" x="382.1064" y="142.9404">listProperties()</text><polygon fill="#181818" points="790.3379,175.4941,800.3379,179.4941,790.3379,183.4941,794.3379,179.4941" style="stroke:#181818;stroke-width:1.0;"/><line style="stroke:#181818;stroke-width:1.0;" x1="587.5835" x2="796.3379" y1="179.4941" y2="179.4941"/><text fill="#000000" font-family="sans-serif" font-size="13" font-weight="bold" lengthAdjust="spacing" textLength="7.23" x="594.5835" y="174.2314">3</text><text fill="#000000" font-family="sans-serif" font-size="13" lengthAdjust="spacing" textLength="120.6689" x="605.8135" y="174.2314">getListedProperties()</text><polygon fill="#181818" points="1002.4922,206.7852,1012.4922,210.7852,1002.4922,214.7852,1006.4922,210.7852" style="stroke:#181818;stroke-width:1.0;"/><line style="stroke:#181818;stroke-width:1.0;" x1="812.3379" x2="1008.4922" y1="210.7852" y2="210.7852"/><text fill="#000000" font-family="sans-serif" font-size="13" font-weight="bold" lengthAdjust="spacing" textLength="7.23" x="819.3379" y="205.5225">4</text><text fill="#000000" font-family="sans-serif" font-size="13" lengthAdjust="spacing" textLength="70.8081" x="830.5679" y="205.5225">getListings()</text><polygon fill="#181818" points="823.3379,238.0762,813.3379,242.0762,823.3379,246.0762,819.3379,242.0762" style="stroke:#181818;stroke-width:1.0;"/><line style="stroke:#181818;stroke-width:1.0;stroke-dasharray:2.0,2.0;" x1="817.3379" x2="1018.4922" y1="242.0762" y2="242.0762"/><text fill="#000000" font-family="sans-serif" font-size="13" font-weight="bold" lengthAdjust="spacing" textLength="7.23" x="829.3379" y="236.8135">5</text><text fill="#000000" font-family="sans-serif" font-size="13" lengthAdjust="spacing" textLength="117.0635" x="840.5679" y="236.8135">returns List&lt;Listing&gt;</text><polygon fill="#181818" points="598.5835,269.3672,588.5835,273.3672,598.5835,277.3672,594.5835,273.3672" style="stroke:#181818;stroke-width:1.0;"/><line style="stroke:#181818;stroke-width:1.0;stroke-dasharray:2.0,2.0;" x1="592.5835" x2="806.3379" y1="273.3672" y2="273.3672"/><text fill="#000000" font-family="sans-serif" font-size="13" font-weight="bold" lengthAdjust="spacing" textLength="7.23" x="604.5835" y="268.1045">6</text><text fill="#000000" font-family="sans-serif" font-size="13" lengthAdjust="spacing" textLength="117.0635" x="615.8135" y="268.1045">returns List&lt;Listing&gt;</text><polygon fill="#181818" points="374.8765,300.6582,364.8765,304.6582,374.8765,308.6582,370.8765,304.6582" style="stroke:#181818;stroke-width:1.0;"/><line style="stroke:#181818;stroke-width:1.0;stroke-dasharray:2.0,2.0;" x1="368.8765" x2="581.5835" y1="304.6582" y2="304.6582"/><text fill="#000000" font-family="sans-serif" font-size="13" font-weight="bold" lengthAdjust="spacing" textLength="7.23" x="380.8765" y="299.3955">7</text><text fill="#000000" font-family="sans-serif" font-size="13" lengthAdjust="spacing" textLength="128.6162" x="392.1064" y="299.3955">returns List&lt;Property&gt;</text><polygon fill="#181818" points="78.855,331.9492,68.855,335.9492,78.855,339.9492,74.855,335.9492" style="stroke:#181818;stroke-width:1.0;"/><line style="stroke:#181818;stroke-width:1.0;stroke-dasharray:2.0,2.0;" x1="72.855" x2="357.8765" y1="335.9492" y2="335.9492"/><text fill="#000000" font-family="sans-serif" font-size="13" font-weight="bold" lengthAdjust="spacing" textLength="7.23" x="84.855" y="330.6865">8</text><text fill="#000000" font-family="sans-serif" font-size="13" lengthAdjust="spacing" textLength="163.3125" x="96.085" y="330.6865">displays available properties</text><polygon fill="#181818" points="341.8765,363.2402,351.8765,367.2402,341.8765,371.2402,345.8765,367.2402" style="stroke:#181818;stroke-width:1.0;"/><line style="stroke:#181818;stroke-width:1.0;" x1="67.855" x2="347.8765" y1="367.2402" y2="367.2402"/><text fill="#000000" font-family="sans-serif" font-size="13" font-weight="bold" lengthAdjust="spacing" textLength="7.23" x="74.855" y="361.9775">9</text><text fill="#000000" font-family="sans-serif" font-size="13" lengthAdjust="spacing" textLength="255.7915" x="86.085" y="361.9775">optionally applies filters (e.g., price, location)</text><polygon fill="#181818" points="565.5835,394.5313,575.5835,398.5313,565.5835,402.5313,569.5835,398.5313" style="stroke:#181818;stroke-width:1.0;"/><line style="stroke:#181818;stroke-width:1.0;" x1="363.8765" x2="571.5835" y1="398.5313" y2="398.5313"/><text fill="#000000" font-family="sans-serif" font-size="13" font-weight="bold" lengthAdjust="spacing" textLength="14.46" x="370.8765" y="393.2686">10</text><text fill="#000000" font-family="sans-serif" font-size="13" lengthAdjust="spacing" textLength="114.1309" x="389.3364" y="393.2686">applyFilters(criteria)</text><polygon fill="#181818" points="790.3379,425.8223,800.3379,429.8223,790.3379,433.8223,794.3379,429.8223" style="stroke:#181818;stroke-width:1.0;"/><line style="stroke:#181818;stroke-width:1.0;" x1="587.5835" x2="796.3379" y1="429.8223" y2="429.8223"/><text fill="#000000" font-family="sans-serif" font-size="13" font-weight="bold" lengthAdjust="spacing" textLength="14.46" x="594.5835" y="424.5596">11</text><text fill="#000000" font-family="sans-serif" font-size="13" lengthAdjust="spacing" textLength="168.3335" x="613.0435" y="424.5596">getFilteredProperties(criteria)</text><polygon fill="#181818" points="1002.4922,457.1133,1012.4922,461.1133,1002.4922,465.1133,1006.4922,461.1133" style="stroke:#181818;stroke-width:1.0;"/><line style="stroke:#181818;stroke-width:1.0;" x1="812.3379" x2="1008.4922" y1="461.1133" y2="461.1133"/><text fill="#000000" font-family="sans-serif" font-size="13" font-weight="bold" lengthAdjust="spacing" textLength="14.46" x="819.3379" y="455.8506">12</text><text fill="#000000" font-family="sans-serif" font-size="13" lengthAdjust="spacing" textLength="153.1626" x="837.7979" y="455.8506">getFilteredListings(criteria)</text><polygon fill="#181818" points="823.3379,488.4043,813.3379,492.4043,823.3379,496.4043,819.3379,492.4043" style="stroke:#181818;stroke-width:1.0;"/><line style="stroke:#181818;stroke-width:1.0;stroke-dasharray:2.0,2.0;" x1="817.3379" x2="1018.4922" y1="492.4043" y2="492.4043"/><text fill="#000000" font-family="sans-serif" font-size="13" font-weight="bold" lengthAdjust="spacing" textLength="14.46" x="829.3379" y="487.1416">13</text><text fill="#000000" font-family="sans-serif" font-size="13" lengthAdjust="spacing" textLength="159.6943" x="847.7979" y="487.1416">returns filtered List&lt;Listing&gt;</text><polygon fill="#181818" points="598.5835,519.6953,588.5835,523.6953,598.5835,527.6953,594.5835,523.6953" style="stroke:#181818;stroke-width:1.0;"/><line style="stroke:#181818;stroke-width:1.0;stroke-dasharray:2.0,2.0;" x1="592.5835" x2="806.3379" y1="523.6953" y2="523.6953"/><text fill="#000000" font-family="sans-serif" font-size="13" font-weight="bold" lengthAdjust="spacing" textLength="14.46" x="604.5835" y="518.4326">14</text><text fill="#000000" font-family="sans-serif" font-size="13" lengthAdjust="spacing" textLength="159.6943" x="623.0435" y="518.4326">returns filtered List&lt;Listing&gt;</text><polygon fill="#181818" points="374.8765,550.9863,364.8765,554.9863,374.8765,558.9863,370.8765,554.9863" style="stroke:#181818;stroke-width:1.0;"/><line style="stroke:#181818;stroke-width:1.0;stroke-dasharray:2.0,2.0;" x1="368.8765" x2="581.5835" y1="554.9863" y2="554.9863"/><text fill="#000000" font-family="sans-serif" font-size="13" font-weight="bold" lengthAdjust="spacing" textLength="14.46" x="380.8765" y="549.7236">15</text><text fill="#000000" font-family="sans-serif" font-size="13" lengthAdjust="spacing" textLength="171.2471" x="399.3364" y="549.7236">returns filtered List&lt;Property&gt;</text><polygon fill="#181818" points="78.855,582.2773,68.855,586.2773,78.855,590.2773,74.855,586.2773" style="stroke:#181818;stroke-width:1.0;"/><line style="stroke:#181818;stroke-width:1.0;stroke-dasharray:2.0,2.0;" x1="72.855" x2="357.8765" y1="586.2773" y2="586.2773"/><text fill="#000000" font-family="sans-serif" font-size="13" font-weight="bold" lengthAdjust="spacing" textLength="14.46" x="84.855" y="581.0146">16</text><text fill="#000000" font-family="sans-serif" font-size="13" lengthAdjust="spacing" textLength="151.0171" x="103.3149" y="581.0146">displays filtered properties</text><!--SRC=[bP8zRiCm38LtduB8b0193c0KMLfqwb2qI7V6OGm2ggHAiWlVlgAjM4wGlowsP7vFUdmqDi5W5RZ5G61qWN6lc-yTkQA8tus3sLOxgja7ShJVUd8pG0-oA2owm1LRr05cB-ojmkvDoFsxCvPYaVmNqs-laCL3YcUZWpDAfPlozY7r9xcMA-gbQNsg4m7h-eEiyHmRx7eqR_k-Xppw9kK1gqtllmH7Fmtvu24Os0yEm8wN5m89d4sNeEA5sTzyKUIYeCba2JM5ysOYdCf2PeyZ71iHA5TWDJtIKMYSzY3eK-8t-SWpevVfgTj931Cq-UqsgVr8IMZbCI0Fs28ht2cQPdMMhB61ZKQbEa1hLIJWm2h-THxcjAxNowYDhfUWJ8M2BYwcBThkTH3EAyVnpNWhyu4zIJtBhgT_b8rJoA9xqpWawJ_7SaLsSpwdclk36layfpy0]--></g></svg>