<?xml version="1.0" encoding="us-ascii" standalone="no"?><svg xmlns="http://www.w3.org/2000/svg" xmlns:xlink="http://www.w3.org/1999/xlink" contentStyleType="text/css" height="973px" preserveAspectRatio="none" style="width:1924px;height:973px;background:#FFFFFF;" version="1.1" viewBox="0 0 1924 973" width="1924px" zoomAndPan="magnify"><defs/><g><rect fill="#FFFFFF" height="878.6348" style="stroke:#181818;stroke-width:1.0;" width="10" x="45" y="48.6211"/><rect fill="#FFFFFF" height="846.3438" style="stroke:#181818;stroke-width:1.0;" width="10" x="205" y="71.9121"/><rect fill="#FFFFFF" height="42.291" style="stroke:#181818;stroke-width:1.0;" width="10" x="210" y="198.4453"/><rect fill="#FFFFFF" height="607.9375" style="stroke:#181818;stroke-width:1.0;" width="10" x="671.5" y="279.0273"/><rect fill="#FFFFFF" height="42.291" style="stroke:#181818;stroke-width:1.0;" width="10" x="676.5" y="806.3828"/><rect fill="#FFFFFF" height="413.1523" style="stroke:#181818;stroke-width:1.0;" width="10" x="865.5" y="353.9395"/><rect fill="#FFFFFF" height="137.4941" style="stroke:#181818;stroke-width:1.0;" width="10" x="1007.5" y="385.2305"/><rect fill="#FFFFFF" height="373.2402" style="stroke:#181818;stroke-width:1.0;" width="10" x="1197" y="554.0156"/><rect fill="#FFFFFF" height="36.291" style="stroke:#181818;stroke-width:1.0;" width="10" x="1202" y="655.8887"/><rect fill="#FFFFFF" height="31.291" style="stroke:#181818;stroke-width:1.0;" width="10" x="1389" y="416.5215"/><rect fill="#FFFFFF" height="31.291" style="stroke:#181818;stroke-width:1.0;" width="10" x="1563.5" y="585.3066"/><line style="stroke:#181818;stroke-width:0.5;stroke-dasharray:5.0,5.0;" x1="50" x2="50" y1="38.6211" y2="936.2559"/><line style="stroke:#181818;stroke-width:0.5;stroke-dasharray:5.0,5.0;" x1="210" x2="210" y1="38.6211" y2="936.2559"/><line style="stroke:#181818;stroke-width:0.5;stroke-dasharray:5.0,5.0;" x1="370" x2="370" y1="111.7227" y2="936.2559"/><line style="stroke:#181818;stroke-width:0.5;stroke-dasharray:5.0,5.0;" x1="517" x2="517" y1="155.3438" y2="936.2559"/><line style="stroke:#181818;stroke-width:0.5;stroke-dasharray:5.0,5.0;" x1="676" x2="676" y1="38.6211" y2="936.2559"/><line style="stroke:#181818;stroke-width:0.5;stroke-dasharray:5.0,5.0;" x1="870" x2="870" y1="318.8379" y2="936.2559"/><line style="stroke:#181818;stroke-width:0.5;stroke-dasharray:5.0,5.0;" x1="1012.5" x2="1012.5" y1="38.6211" y2="936.2559"/><line style="stroke:#181818;stroke-width:0.5;stroke-dasharray:5.0,5.0;" x1="1201.5" x2="1201.5" y1="487.623" y2="936.2559"/><line style="stroke:#181818;stroke-width:0.5;stroke-dasharray:5.0,5.0;" x1="1393.5" x2="1393.5" y1="38.6211" y2="936.2559"/><line style="stroke:#181818;stroke-width:0.5;stroke-dasharray:5.0,5.0;" x1="1568.5" x2="1568.5" y1="38.6211" y2="936.2559"/><line style="stroke:#181818;stroke-width:0.5;stroke-dasharray:5.0,5.0;" x1="1722.5" x2="1722.5" y1="38.6211" y2="936.2559"/><line style="stroke:#181818;stroke-width:0.5;stroke-dasharray:5.0,5.0;" x1="1859.5" x2="1859.5" y1="731.9902" y2="936.2559"/><rect fill="#E2E2F0" height="32.6211" rx="2.5" ry="2.5" style="stroke:#181818;stroke-width:0.5;" width="90" x="5" y="5"/><text fill="#000000" font-family="sans-serif" font-size="14" lengthAdjust="spacing" textLength="76" x="12" y="27.1074">:HTTPClient</text><rect fill="#E2E2F0" height="32.6211" rx="2.5" ry="2.5" style="stroke:#181818;stroke-width:0.5;" width="90" x="5" y="935.2559"/><text fill="#000000" font-family="sans-serif" font-size="14" lengthAdjust="spacing" textLength="76" x="12" y="957.3633">:HTTPClient</text><rect fill="#E2E2F0" height="32.6211" rx="2.5" ry="2.5" style="stroke:#181818;stroke-width:0.5;" width="96" x="162" y="5"/><text fill="#000000" font-family="sans-serif" font-size="14" lengthAdjust="spacing" textLength="82" x="169" y="27.1074">:HTTPServer</text><rect fill="#E2E2F0" height="32.6211" rx="2.5" ry="2.5" style="stroke:#181818;stroke-width:0.5;" width="96" x="162" y="935.2559"/><text fill="#000000" font-family="sans-serif" font-size="14" lengthAdjust="spacing" textLength="82" x="169" y="957.3633">:HTTPServer</text><rect fill="#E2E2F0" height="32.6211" rx="2.5" ry="2.5" style="stroke:#181818;stroke-width:0.5;" width="128" x="306" y="935.2559"/><text fill="#000000" font-family="sans-serif" font-size="14" lengthAdjust="spacing" textLength="114" x="313" y="957.3633">req:HTTPRequest</text><rect fill="#E2E2F0" height="32.6211" rx="2.5" ry="2.5" style="stroke:#181818;stroke-width:0.5;" width="146" x="444" y="935.2559"/><text fill="#000000" font-family="sans-serif" font-size="14" lengthAdjust="spacing" textLength="132" x="451" y="957.3633">resp:HTTPResponse</text><rect fill="#E2E2F0" height="32.6211" rx="2.5" ry="2.5" style="stroke:#181818;stroke-width:0.5;" width="153" x="600" y="5"/><text fill="#000000" font-family="sans-serif" font-size="14" lengthAdjust="spacing" textLength="139" x="607" y="27.1074">handler:RouteHandler</text><rect fill="#E2E2F0" height="32.6211" rx="2.5" ry="2.5" style="stroke:#181818;stroke-width:0.5;" width="153" x="600" y="935.2559"/><text fill="#000000" font-family="sans-serif" font-size="14" lengthAdjust="spacing" textLength="139" x="607" y="957.3633">handler:RouteHandler</text><rect fill="#E2E2F0" height="32.6211" rx="2.5" ry="2.5" style="stroke:#181818;stroke-width:0.5;" width="117" x="812" y="935.2559"/><text fill="#000000" font-family="sans-serif" font-size="14" lengthAdjust="spacing" textLength="103" x="819" y="957.3633">:AgentController</text><rect fill="#E2E2F0" height="32.6211" rx="2.5" ry="2.5" style="stroke:#181818;stroke-width:0.5;" width="124" x="950.5" y="5"/><text fill="#000000" font-family="sans-serif" font-size="14" lengthAdjust="spacing" textLength="110" x="957.5" y="27.1074">:NetworkManager</text><rect fill="#E2E2F0" height="32.6211" rx="2.5" ry="2.5" style="stroke:#181818;stroke-width:0.5;" width="124" x="950.5" y="935.2559"/><text fill="#000000" font-family="sans-serif" font-size="14" lengthAdjust="spacing" textLength="110" x="957.5" y="957.3633">:NetworkManager</text><rect fill="#E2E2F0" height="32.6211" rx="2.5" ry="2.5" style="stroke:#181818;stroke-width:0.5;" width="147" x="1128.5" y="935.2559"/><text fill="#000000" font-family="sans-serif" font-size="14" lengthAdjust="spacing" textLength="133" x="1135.5" y="957.3633">service:AgentService</text><rect fill="#E2E2F0" height="32.6211" rx="2.5" ry="2.5" style="stroke:#181818;stroke-width:0.5;" width="177" x="1305.5" y="5"/><text fill="#000000" font-family="sans-serif" font-size="14" lengthAdjust="spacing" textLength="163" x="1312.5" y="27.1074">factory:RepositoryFactory</text><rect fill="#E2E2F0" height="32.6211" rx="2.5" ry="2.5" style="stroke:#181818;stroke-width:0.5;" width="177" x="1305.5" y="935.2559"/><text fill="#000000" font-family="sans-serif" font-size="14" lengthAdjust="spacing" textLength="163" x="1312.5" y="957.3633">factory:RepositoryFactory</text><rect fill="#E2E2F0" height="32.6211" rx="2.5" ry="2.5" style="stroke:#181818;stroke-width:0.5;" width="152" x="1492.5" y="5"/><text fill="#000000" font-family="sans-serif" font-size="14" lengthAdjust="spacing" textLength="138" x="1499.5" y="27.1074">repo:AgentRepository</text><rect fill="#E2E2F0" height="32.6211" rx="2.5" ry="2.5" style="stroke:#181818;stroke-width:0.5;" width="152" x="1492.5" y="935.2559"/><text fill="#000000" font-family="sans-serif" font-size="14" lengthAdjust="spacing" textLength="138" x="1499.5" y="957.3633">repo:AgentRepository</text><rect fill="#E2E2F0" height="32.6211" rx="2.5" ry="2.5" style="stroke:#181818;stroke-width:0.5;" width="136" x="1654.5" y="5"/><text fill="#000000" font-family="sans-serif" font-size="14" lengthAdjust="spacing" textLength="122" x="1661.5" y="27.1074">agents:List&lt;Agent&gt;</text><rect fill="#E2E2F0" height="32.6211" rx="2.5" ry="2.5" style="stroke:#181818;stroke-width:0.5;" width="136" x="1654.5" y="935.2559"/><text fill="#000000" font-family="sans-serif" font-size="14" lengthAdjust="spacing" textLength="122" x="1661.5" y="957.3633">agents:List&lt;Agent&gt;</text><rect fill="#E2E2F0" height="32.6211" rx="2.5" ry="2.5" style="stroke:#181818;stroke-width:0.5;" width="118" x="1800.5" y="935.2559"/><text fill="#000000" font-family="sans-serif" font-size="14" lengthAdjust="spacing" textLength="104" x="1807.5" y="957.3633">result:HttpResult</text><rect fill="#FFFFFF" height="878.6348" style="stroke:#181818;stroke-width:1.0;" width="10" x="45" y="48.6211"/><rect fill="#FFFFFF" height="846.3438" style="stroke:#181818;stroke-width:1.0;" width="10" x="205" y="71.9121"/><rect fill="#FFFFFF" height="42.291" style="stroke:#181818;stroke-width:1.0;" width="10" x="210" y="198.4453"/><rect fill="#FFFFFF" height="607.9375" style="stroke:#181818;stroke-width:1.0;" width="10" x="671.5" y="279.0273"/><rect fill="#FFFFFF" height="42.291" style="stroke:#181818;stroke-width:1.0;" width="10" x="676.5" y="806.3828"/><rect fill="#FFFFFF" height="413.1523" style="stroke:#181818;stroke-width:1.0;" width="10" x="865.5" y="353.9395"/><rect fill="#FFFFFF" height="137.4941" style="stroke:#181818;stroke-width:1.0;" width="10" x="1007.5" y="385.2305"/><rect fill="#FFFFFF" height="373.2402" style="stroke:#181818;stroke-width:1.0;" width="10" x="1197" y="554.0156"/><rect fill="#FFFFFF" height="36.291" style="stroke:#181818;stroke-width:1.0;" width="10" x="1202" y="655.8887"/><rect fill="#FFFFFF" height="31.291" style="stroke:#181818;stroke-width:1.0;" width="10" x="1389" y="416.5215"/><rect fill="#FFFFFF" height="31.291" style="stroke:#181818;stroke-width:1.0;" width="10" x="1563.5" y="585.3066"/><polygon fill="#181818" points="193,67.9121,203,71.9121,193,75.9121,197,71.9121" style="stroke:#181818;stroke-width:1.0;"/><line style="stroke:#181818;stroke-width:1.0;" x1="55" x2="199" y1="71.9121" y2="71.9121"/><text fill="#000000" font-family="sans-serif" font-size="13" font-weight="bold" lengthAdjust="spacing" textLength="7" x="62" y="66.6494">1</text><text fill="#000000" font-family="sans-serif" font-size="13" lengthAdjust="spacing" textLength="120" x="73" y="66.6494">GET /agentsByStore</text><polygon fill="#181818" points="294,99.2031,304,103.2031,294,107.2031,298,103.2031" style="stroke:#181818;stroke-width:1.0;"/><line style="stroke:#181818;stroke-width:1.0;" x1="215" x2="300" y1="103.2031" y2="103.2031"/><text fill="#000000" font-family="sans-serif" font-size="13" font-weight="bold" lengthAdjust="spacing" textLength="7" x="222" y="97.9404">2</text><text fill="#000000" font-family="sans-serif" font-size="13" lengthAdjust="spacing" textLength="56" x="233" y="97.9404">create(...)</text><rect fill="#E2E2F0" height="32.6211" rx="2.5" ry="2.5" style="stroke:#181818;stroke-width:0.5;" width="128" x="306" y="79.9121"/><text fill="#000000" font-family="sans-serif" font-size="14" lengthAdjust="spacing" textLength="114" x="313" y="102.0195">req:HTTPRequest</text><polygon fill="#181818" points="432,142.8242,442,146.8242,432,150.8242,436,146.8242" style="stroke:#181818;stroke-width:1.0;"/><line style="stroke:#181818;stroke-width:1.0;" x1="215" x2="438" y1="146.8242" y2="146.8242"/><text fill="#000000" font-family="sans-serif" font-size="13" font-weight="bold" lengthAdjust="spacing" textLength="7" x="222" y="141.5615">3</text><text fill="#000000" font-family="sans-serif" font-size="13" lengthAdjust="spacing" textLength="65" x="233" y="141.5615">create(404)</text><rect fill="#E2E2F0" height="32.6211" rx="2.5" ry="2.5" style="stroke:#181818;stroke-width:0.5;" width="146" x="444" y="123.5332"/><text fill="#000000" font-family="sans-serif" font-size="14" lengthAdjust="spacing" textLength="132" x="451" y="145.6406">resp:HTTPResponse</text><line style="stroke:#181818;stroke-width:1.0;" x1="215" x2="262" y1="185.4453" y2="185.4453"/><line style="stroke:#181818;stroke-width:1.0;" x1="262" x2="262" y1="185.4453" y2="198.4453"/><line style="stroke:#181818;stroke-width:1.0;" x1="221" x2="262" y1="198.4453" y2="198.4453"/><polygon fill="#181818" points="231,194.4453,221,198.4453,231,202.4453,227,198.4453" style="stroke:#181818;stroke-width:1.0;"/><text fill="#000000" font-family="sans-serif" font-size="13" font-weight="bold" lengthAdjust="spacing" textLength="7" x="227" y="180.1826">4</text><text fill="#000000" font-family="sans-serif" font-size="13" lengthAdjust="spacing" textLength="90" x="238" y="180.1826">findHandler(req)</text><line style="stroke:#181818;stroke-width:1.0;stroke-dasharray:2.0,2.0;" x1="220" x2="262" y1="239.7363" y2="239.7363"/><line style="stroke:#181818;stroke-width:1.0;stroke-dasharray:2.0,2.0;" x1="262" x2="262" y1="239.7363" y2="252.7363"/><line style="stroke:#181818;stroke-width:1.0;stroke-dasharray:2.0,2.0;" x1="215" x2="262" y1="252.7363" y2="252.7363"/><polygon fill="#181818" points="225,248.7363,215,252.7363,225,256.7363,221,252.7363" style="stroke:#181818;stroke-width:1.0;"/><text fill="#000000" font-family="sans-serif" font-size="13" font-weight="bold" lengthAdjust="spacing" textLength="7" x="227" y="234.4736">5</text><text fill="#000000" font-family="sans-serif" font-size="13" lengthAdjust="spacing" textLength="42" x="238" y="234.4736">handler</text><polygon fill="#181818" points="659.5,275.0273,669.5,279.0273,659.5,283.0273,663.5,279.0273" style="stroke:#181818;stroke-width:1.0;"/><line style="stroke:#181818;stroke-width:1.0;" x1="215" x2="665.5" y1="279.0273" y2="279.0273"/><text fill="#000000" font-family="sans-serif" font-size="13" font-weight="bold" lengthAdjust="spacing" textLength="7" x="222" y="273.7646">6</text><text fill="#000000" font-family="sans-serif" font-size="13" lengthAdjust="spacing" textLength="77" x="233" y="273.7646">run(req, resp)</text><polygon fill="#181818" points="800,306.3184,810,310.3184,800,314.3184,804,310.3184" style="stroke:#181818;stroke-width:1.0;"/><line style="stroke:#181818;stroke-width:1.0;" x1="681.5" x2="806" y1="310.3184" y2="310.3184"/><text fill="#000000" font-family="sans-serif" font-size="13" font-weight="bold" lengthAdjust="spacing" textLength="7" x="688.5" y="305.0557">7</text><text fill="#000000" font-family="sans-serif" font-size="13" lengthAdjust="spacing" textLength="56" x="699.5" y="305.0557">create(...)</text><rect fill="#E2E2F0" height="32.6211" rx="2.5" ry="2.5" style="stroke:#181818;stroke-width:0.5;" width="117" x="812" y="287.0273"/><text fill="#000000" font-family="sans-serif" font-size="14" lengthAdjust="spacing" textLength="103" x="819" y="309.1348">:AgentController</text><polygon fill="#181818" points="853.5,349.9395,863.5,353.9395,853.5,357.9395,857.5,353.9395" style="stroke:#181818;stroke-width:1.0;"/><line style="stroke:#181818;stroke-width:1.0;" x1="681.5" x2="859.5" y1="353.9395" y2="353.9395"/><text fill="#000000" font-family="sans-serif" font-size="13" font-weight="bold" lengthAdjust="spacing" textLength="7" x="688.5" y="348.6768">8</text><text fill="#000000" font-family="sans-serif" font-size="13" lengthAdjust="spacing" textLength="114" x="699.5" y="348.6768">getAgentsByStore()</text><polygon fill="#181818" points="995.5,381.2305,1005.5,385.2305,995.5,389.2305,999.5,385.2305" style="stroke:#181818;stroke-width:1.0;"/><line style="stroke:#181818;stroke-width:1.0;" x1="875.5" x2="1001.5" y1="385.2305" y2="385.2305"/><text fill="#000000" font-family="sans-serif" font-size="13" font-weight="bold" lengthAdjust="spacing" textLength="7" x="882.5" y="379.9678">9</text><text fill="#000000" font-family="sans-serif" font-size="13" lengthAdjust="spacing" textLength="102" x="893.5" y="379.9678">getAgentService()</text><polygon fill="#181818" points="1377,412.5215,1387,416.5215,1377,420.5215,1381,416.5215" style="stroke:#181818;stroke-width:1.0;"/><line style="stroke:#181818;stroke-width:1.0;" x1="1017.5" x2="1383" y1="416.5215" y2="416.5215"/><text fill="#000000" font-family="sans-serif" font-size="13" font-weight="bold" lengthAdjust="spacing" textLength="14" x="1024.5" y="411.2588">10</text><text fill="#000000" font-family="sans-serif" font-size="13" lengthAdjust="spacing" textLength="122" x="1042.5" y="411.2588">getAgentRepository()</text><polygon fill="#181818" points="1028.5,443.8125,1018.5,447.8125,1028.5,451.8125,1024.5,447.8125" style="stroke:#181818;stroke-width:1.0;"/><line style="stroke:#181818;stroke-width:1.0;stroke-dasharray:2.0,2.0;" x1="1022.5" x2="1393" y1="447.8125" y2="447.8125"/><text fill="#000000" font-family="sans-serif" font-size="13" font-weight="bold" lengthAdjust="spacing" textLength="14" x="1034.5" y="442.5498">11</text><text fill="#000000" font-family="sans-serif" font-size="13" lengthAdjust="spacing" textLength="25" x="1052.5" y="442.5498">repo</text><polygon fill="#181818" points="1116.5,475.1035,1126.5,479.1035,1116.5,483.1035,1120.5,479.1035" style="stroke:#181818;stroke-width:1.0;"/><line style="stroke:#181818;stroke-width:1.0;stroke-dasharray:2.0,2.0;" x1="1017.5" x2="1122.5" y1="479.1035" y2="479.1035"/><text fill="#000000" font-family="sans-serif" font-size="13" font-weight="bold" lengthAdjust="spacing" textLength="14" x="1024.5" y="473.8408">12</text><text fill="#000000" font-family="sans-serif" font-size="13" lengthAdjust="spacing" textLength="69" x="1042.5" y="473.8408">create(repo)</text><rect fill="#E2E2F0" height="32.6211" rx="2.5" ry="2.5" style="stroke:#181818;stroke-width:0.5;" width="147" x="1128.5" y="455.8125"/><text fill="#000000" font-family="sans-serif" font-size="14" lengthAdjust="spacing" textLength="133" x="1135.5" y="477.9199">service:AgentService</text><polygon fill="#181818" points="886.5,518.7246,876.5,522.7246,886.5,526.7246,882.5,522.7246" style="stroke:#181818;stroke-width:1.0;"/><line style="stroke:#181818;stroke-width:1.0;stroke-dasharray:2.0,2.0;" x1="880.5" x2="1011.5" y1="522.7246" y2="522.7246"/><text fill="#000000" font-family="sans-serif" font-size="13" font-weight="bold" lengthAdjust="spacing" textLength="14" x="892.5" y="517.4619">13</text><text fill="#000000" font-family="sans-serif" font-size="13" lengthAdjust="spacing" textLength="40" x="910.5" y="517.4619">service</text><polygon fill="#181818" points="1185,550.0156,1195,554.0156,1185,558.0156,1189,554.0156" style="stroke:#181818;stroke-width:1.0;"/><line style="stroke:#181818;stroke-width:1.0;" x1="875.5" x2="1191" y1="554.0156" y2="554.0156"/><text fill="#000000" font-family="sans-serif" font-size="13" font-weight="bold" lengthAdjust="spacing" textLength="14" x="882.5" y="548.7529">14</text><text fill="#000000" font-family="sans-serif" font-size="13" lengthAdjust="spacing" textLength="173" x="900.5" y="548.7529">fetchAgentsGroupedByStore()</text><polygon fill="#181818" points="1551.5,581.3066,1561.5,585.3066,1551.5,589.3066,1555.5,585.3066" style="stroke:#181818;stroke-width:1.0;"/><line style="stroke:#181818;stroke-width:1.0;" x1="1207" x2="1557.5" y1="585.3066" y2="585.3066"/><text fill="#000000" font-family="sans-serif" font-size="13" font-weight="bold" lengthAdjust="spacing" textLength="14" x="1214" y="580.0439">15</text><text fill="#000000" font-family="sans-serif" font-size="13" lengthAdjust="spacing" textLength="139" x="1232" y="580.0439">findAllGroupedByStore()</text><polygon fill="#181818" points="1218,612.5977,1208,616.5977,1218,620.5977,1214,616.5977" style="stroke:#181818;stroke-width:1.0;"/><line style="stroke:#181818;stroke-width:1.0;stroke-dasharray:2.0,2.0;" x1="1212" x2="1567.5" y1="616.5977" y2="616.5977"/><text fill="#000000" font-family="sans-serif" font-size="13" font-weight="bold" lengthAdjust="spacing" textLength="14" x="1224" y="611.335">16</text><text fill="#000000" font-family="sans-serif" font-size="13" lengthAdjust="spacing" textLength="39" x="1242" y="611.335">agents</text><line style="stroke:#181818;stroke-width:1.0;" x1="1207" x2="1254" y1="642.8887" y2="642.8887"/><line style="stroke:#181818;stroke-width:1.0;" x1="1254" x2="1254" y1="642.8887" y2="655.8887"/><line style="stroke:#181818;stroke-width:1.0;" x1="1213" x2="1254" y1="655.8887" y2="655.8887"/><polygon fill="#181818" points="1223,651.8887,1213,655.8887,1223,659.8887,1219,655.8887" style="stroke:#181818;stroke-width:1.0;"/><text fill="#000000" font-family="sans-serif" font-size="13" font-weight="bold" lengthAdjust="spacing" textLength="14" x="1219" y="637.626">17</text><text fill="#000000" font-family="sans-serif" font-size="13" lengthAdjust="spacing" textLength="150" x="1237" y="637.626">sortAlphabetically(agents)</text><polygon fill="#181818" points="886.5,688.1797,876.5,692.1797,886.5,696.1797,882.5,692.1797" style="stroke:#181818;stroke-width:1.0;"/><line style="stroke:#181818;stroke-width:1.0;stroke-dasharray:2.0,2.0;" x1="880.5" x2="1196" y1="692.1797" y2="692.1797"/><text fill="#000000" font-family="sans-serif" font-size="13" font-weight="bold" lengthAdjust="spacing" textLength="14" x="892.5" y="686.917">18</text><text fill="#000000" font-family="sans-serif" font-size="13" lengthAdjust="spacing" textLength="39" x="910.5" y="686.917">agents</text><polygon fill="#181818" points="1788.5,719.4707,1798.5,723.4707,1788.5,727.4707,1792.5,723.4707" style="stroke:#181818;stroke-width:1.0;"/><line style="stroke:#181818;stroke-width:1.0;stroke-dasharray:2.0,2.0;" x1="875.5" x2="1794.5" y1="723.4707" y2="723.4707"/><text fill="#000000" font-family="sans-serif" font-size="13" font-weight="bold" lengthAdjust="spacing" textLength="14" x="882.5" y="718.208">19</text><text fill="#000000" font-family="sans-serif" font-size="13" lengthAdjust="spacing" textLength="112" x="900.5" y="718.208">create(200, agents)</text><rect fill="#E2E2F0" height="32.6211" rx="2.5" ry="2.5" style="stroke:#181818;stroke-width:0.5;" width="118" x="1800.5" y="700.1797"/><text fill="#000000" font-family="sans-serif" font-size="14" lengthAdjust="spacing" textLength="104" x="1807.5" y="722.2871">result:HttpResult</text><polygon fill="#181818" points="692.5,763.0918,682.5,767.0918,692.5,771.0918,688.5,767.0918" style="stroke:#181818;stroke-width:1.0;"/><line style="stroke:#181818;stroke-width:1.0;stroke-dasharray:2.0,2.0;" x1="686.5" x2="869.5" y1="767.0918" y2="767.0918"/><text fill="#000000" font-family="sans-serif" font-size="13" font-weight="bold" lengthAdjust="spacing" textLength="14" x="698.5" y="761.8291">20</text><text fill="#000000" font-family="sans-serif" font-size="13" lengthAdjust="spacing" textLength="32" x="716.5" y="761.8291">result</text><line style="stroke:#181818;stroke-width:1.0;" x1="681.5" x2="728.5" y1="793.3828" y2="793.3828"/><line style="stroke:#181818;stroke-width:1.0;" x1="728.5" x2="728.5" y1="793.3828" y2="806.3828"/><line style="stroke:#181818;stroke-width:1.0;" x1="687.5" x2="728.5" y1="806.3828" y2="806.3828"/><polygon fill="#181818" points="697.5,802.3828,687.5,806.3828,697.5,810.3828,693.5,806.3828" style="stroke:#181818;stroke-width:1.0;"/><text fill="#000000" font-family="sans-serif" font-size="13" font-weight="bold" lengthAdjust="spacing" textLength="14" x="693.5" y="788.1201">21</text><text fill="#000000" font-family="sans-serif" font-size="13" lengthAdjust="spacing" textLength="152" x="711.5" y="788.1201">setHttpResult(resp, result)</text><line style="stroke:#181818;stroke-width:1.0;stroke-dasharray:2.0,2.0;" x1="686.5" x2="728.5" y1="847.6738" y2="847.6738"/><line style="stroke:#181818;stroke-width:1.0;stroke-dasharray:2.0,2.0;" x1="728.5" x2="728.5" y1="847.6738" y2="860.6738"/><line style="stroke:#181818;stroke-width:1.0;stroke-dasharray:2.0,2.0;" x1="681.5" x2="728.5" y1="860.6738" y2="860.6738"/><polygon fill="#181818" points="691.5,856.6738,681.5,860.6738,691.5,864.6738,687.5,860.6738" style="stroke:#181818;stroke-width:1.0;"/><text fill="#000000" font-family="sans-serif" font-size="13" font-weight="bold" lengthAdjust="spacing" textLength="14" x="693.5" y="842.4111">22</text><text fill="#000000" font-family="sans-serif" font-size="13" lengthAdjust="spacing" textLength="4" x="711.5" y="842.4111">&#160;</text><polygon fill="#181818" points="226,882.9648,216,886.9648,226,890.9648,222,886.9648" style="stroke:#181818;stroke-width:1.0;"/><line style="stroke:#181818;stroke-width:1.0;stroke-dasharray:2.0,2.0;" x1="220" x2="675.5" y1="886.9648" y2="886.9648"/><text fill="#000000" font-family="sans-serif" font-size="13" font-weight="bold" lengthAdjust="spacing" textLength="14" x="232" y="881.7021">23</text><text fill="#000000" font-family="sans-serif" font-size="13" lengthAdjust="spacing" textLength="25" x="250" y="881.7021">resp</text><polygon fill="#181818" points="66,914.2559,56,918.2559,66,922.2559,62,918.2559" style="stroke:#181818;stroke-width:1.0;"/><line style="stroke:#181818;stroke-width:1.0;stroke-dasharray:2.0,2.0;" x1="60" x2="209" y1="918.2559" y2="918.2559"/><text fill="#000000" font-family="sans-serif" font-size="13" font-weight="bold" lengthAdjust="spacing" textLength="14" x="72" y="912.9932">24</text><text fill="#000000" font-family="sans-serif" font-size="13" lengthAdjust="spacing" textLength="25" x="90" y="912.9932">resp</text><!--SRC=[RPF1Rjim38RlVWgXbpb5cWH3Jq9H80kwvh0DGv8NK1qsCIfBhYHtoDjF51LBTdmZnOyKAVxwTdQkjNovRALGhclaejBDqi9d1wg2XsCjJaOqXUYS5fMhluG3fbNmLTUyWIcALXXNLtNhyzaTtnuEVpUo1kNkcB0ikHFS7imNc9uZTyWP-0pe3ZkogMRqnx1j8srRhInaE1qC-RDGHmc6xtJdO4jEIDbVh8DcrF7wvAVOQEMCbbTmuumSON_0_TFcuxTGuXIfuT6GjtxekWAglYU7UY1xIB_x9MXpuJjejQtH_4ad8INQuqTfDLLFIO56TuWAf2p_LLlt53AU0nXCU_FKdNHywzMp2sOiYMPHz5B9rbyacpqyPmldxFNbm9Pq-O_BtZS8HGfVuRZn-tlEAWE-UBbOB6QJ8Eqw8nzNZrFazVxtMXtZ-ailk24wOgDcHjL8C9oPJc65EKCfpWewHW25Ccvz6ENi16wTFq8vAp20m5112OqYyUIGm9oeXWId_Ni-HiDyu-eecPk2E2NTbis1v6mAfOcYkFinOW7_uk2gCmtxQdJNmZ7D727aiMDQprhA6n2ZUL-SaORo2dt8QkFMiZsBD_0g5b9UIgAp2_k-OnrgE_I1kixc_hvQpTarlyTw5T0tIFkz1Youz6DArCWymaaD2S-FSWbYtfH4wNF5-7y0]--></g></svg>