<svg xmlns="http://www.w3.org/2000/svg" xmlns:xlink="http://www.w3.org/1999/xlink" contentStyleType="text/css" height="950px" preserveAspectRatio="none" style="width:1456px;height:950px;background:#FFFFFF;" version="1.1" viewBox="0 0 1456 950" width="1456px" zoomAndPan="magnify"><defs/><g><rect fill="#FFFFFF" height="764.3535" style="stroke:#181818;stroke-width:1.0;" width="10" x="81.2998" y="93.6211"/><rect fill="#FFFFFF" height="718.0625" style="stroke:#181818;stroke-width:1.0;" width="10" x="288.7632" y="116.9121"/><rect fill="#FFFFFF" height="415.1523" style="stroke:#181818;stroke-width:1.0;" width="10" x="467.0039" y="148.2031"/><rect fill="#FFFFFF" height="31.291" style="stroke:#181818;stroke-width:1.0;" width="10" x="621.4028" y="179.4941"/><rect fill="#FFFFFF" height="615.8984" style="stroke:#181818;stroke-width:1.0;" width="10" x="778.4712" y="242.0762"/><rect fill="#FFFFFF" height="43.291" style="stroke:#181818;stroke-width:1.0;" width="10" x="975.6323" y="488.7734"/><rect fill="#FFFFFF" height="514.6953" style="stroke:#181818;stroke-width:1.0;" width="10" x="1130.9258" y="343.2793"/><rect fill="#FFFFFF" height="31.291" style="stroke:#181818;stroke-width:1.0;" width="10" x="1135.9258" y="620.9375"/><rect fill="#FFFFFF" height="31.291" style="stroke:#181818;stroke-width:1.0;" width="10" x="1270.8066" y="418.1914"/><rect fill="#FFFFFF" height="31.291" style="stroke:#181818;stroke-width:1.0;" width="10" x="1380.4233" y="709.8105"/><rect fill="#FFFFFF" height="31.291" style="stroke:#181818;stroke-width:1.0;" width="10" x="1380.4233" y="772.3926"/><rect fill="none" height="201.0762" style="stroke:#000000;stroke-width:1.5;" width="947.1401" x="393.5283" y="300.6973"/><rect fill="none" height="271.6191" style="stroke:#000000;stroke-width:1.5;" width="1440.1782" x="10" y="578.3555"/><rect fill="none" height="175.7461" style="stroke:#000000;stroke-width:1.5;" width="1420.1782" x="20" y="667.2285"/><line style="stroke:#181818;stroke-width:0.5;stroke-dasharray:5.0,5.0;" x1="86" x2="86" y1="83.6211" y2="866.9746"/><line style="stroke:#181818;stroke-width:0.5;stroke-dasharray:5.0,5.0;" x1="293.46" x2="293.46" y1="83.6211" y2="866.9746"/><line style="stroke:#181818;stroke-width:0.5;stroke-dasharray:5.0,5.0;" x1="471.5283" x2="471.5283" y1="83.6211" y2="866.9746"/><line style="stroke:#181818;stroke-width:0.5;stroke-dasharray:5.0,5.0;" x1="626.1582" x2="626.1582" y1="83.6211" y2="866.9746"/><line style="stroke:#181818;stroke-width:0.5;stroke-dasharray:5.0,5.0;" x1="782.6475" x2="782.6475" y1="83.6211" y2="866.9746"/><line style="stroke:#181818;stroke-width:0.5;stroke-dasharray:5.0,5.0;" x1="980.2949" x2="980.2949" y1="281.8867" y2="866.9746"/><line style="stroke:#181818;stroke-width:0.5;stroke-dasharray:5.0,5.0;" x1="1135.688" x2="1135.688" y1="83.6211" y2="866.9746"/><line style="stroke:#181818;stroke-width:0.5;stroke-dasharray:5.0,5.0;" x1="1274.9448" x2="1274.9448" y1="383.0898" y2="866.9746"/><line style="stroke:#181818;stroke-width:0.5;stroke-dasharray:5.0,5.0;" x1="1384.6685" x2="1384.6685" y1="83.6211" y2="866.9746"/><text fill="#000000" font-family="sans-serif" font-size="14" lengthAdjust="spacing" textLength="106.5996" x="30" y="80.1074">NetworkManager</text><ellipse cx="86.2998" cy="13.5" fill="#E2E2F0" rx="8" ry="8" style="stroke:#181818;stroke-width:0.5;"/><path d="M86.2998,21.5 L86.2998,48.5 M73.2998,29.5 L99.2998,29.5 M86.2998,48.5 L73.2998,63.5 M86.2998,48.5 L99.2998,63.5 " fill="none" style="stroke:#181818;stroke-width:0.5;"/><text fill="#000000" font-family="sans-serif" font-size="14" lengthAdjust="spacing" textLength="106.5996" x="30" y="881.082">NetworkManager</text><ellipse cx="86.2998" cy="893.0957" fill="#E2E2F0" rx="8" ry="8" style="stroke:#181818;stroke-width:0.5;"/><path d="M86.2998,901.0957 L86.2998,928.0957 M73.2998,909.0957 L99.2998,909.0957 M86.2998,928.0957 L73.2998,943.0957 M86.2998,928.0957 L99.2998,943.0957 " fill="none" style="stroke:#181818;stroke-width:0.5;"/><rect fill="#E2E2F0" height="32.6211" rx="2.5" ry="2.5" style="stroke:#181818;stroke-width:0.5;" width="106.6064" x="240.46" y="50"/><text fill="#000000" font-family="sans-serif" font-size="14" lengthAdjust="spacing" textLength="92.6064" x="247.46" y="72.1074">:ListAgentView</text><rect fill="#E2E2F0" height="32.6211" rx="2.5" ry="2.5" style="stroke:#181818;stroke-width:0.5;" width="106.6064" x="240.46" y="865.9746"/><text fill="#000000" font-family="sans-serif" font-size="14" lengthAdjust="spacing" textLength="92.6064" x="247.46" y="888.082">:ListAgentView</text><rect fill="#E2E2F0" height="32.6211" rx="2.5" ry="2.5" style="stroke:#181818;stroke-width:0.5;" width="136.9512" x="403.5283" y="50"/><text fill="#000000" font-family="sans-serif" font-size="14" lengthAdjust="spacing" textLength="122.9512" x="410.5283" y="72.1074">:ListAgentController</text><rect fill="#E2E2F0" height="32.6211" rx="2.5" ry="2.5" style="stroke:#181818;stroke-width:0.5;" width="136.9512" x="403.5283" y="865.9746"/><text fill="#000000" font-family="sans-serif" font-size="14" lengthAdjust="spacing" textLength="122.9512" x="410.5283" y="888.082">:ListAgentController</text><rect fill="#E2E2F0" height="32.6211" rx="2.5" ry="2.5" style="stroke:#181818;stroke-width:0.5;" width="124.4893" x="564.1582" y="50"/><text fill="#000000" font-family="sans-serif" font-size="14" lengthAdjust="spacing" textLength="110.4893" x="571.1582" y="72.1074">:NetworkManager</text><rect fill="#E2E2F0" height="32.6211" rx="2.5" ry="2.5" style="stroke:#181818;stroke-width:0.5;" width="124.4893" x="564.1582" y="865.9746"/><text fill="#000000" font-family="sans-serif" font-size="14" lengthAdjust="spacing" textLength="110.4893" x="571.1582" y="888.082">:NetworkManager</text><rect fill="#E2E2F0" height="32.6211" rx="2.5" ry="2.5" style="stroke:#181818;stroke-width:0.5;" width="169.6475" x="698.6475" y="50"/><text fill="#000000" font-family="sans-serif" font-size="14" lengthAdjust="spacing" textLength="155.6475" x="705.6475" y="72.1074">container:StoreContainer</text><rect fill="#E2E2F0" height="32.6211" rx="2.5" ry="2.5" style="stroke:#181818;stroke-width:0.5;" width="169.6475" x="698.6475" y="865.9746"/><text fill="#000000" font-family="sans-serif" font-size="14" lengthAdjust="spacing" textLength="155.6475" x="705.6475" y="888.082">container:StoreContainer</text><rect fill="#E2E2F0" height="32.6211" rx="2.5" ry="2.5" style="stroke:#181818;stroke-width:0.5;" width="204.6748" x="878.2949" y="865.9746"/><text fill="#000000" font-family="sans-serif" font-size="14" lengthAdjust="spacing" textLength="190.6748" x="885.2949" y="888.082">map:Map&lt;Store, List&lt;Agent&gt;&gt;</text><rect fill="#E2E2F0" height="32.6211" rx="2.5" ry="2.5" style="stroke:#181818;stroke-width:0.5;" width="82.4756" x="1094.688" y="50"/><text fill="#000000" font-family="sans-serif" font-size="14" lengthAdjust="spacing" textLength="68.4756" x="1101.688" y="72.1074">store:Store</text><rect fill="#E2E2F0" height="32.6211" rx="2.5" ry="2.5" style="stroke:#181818;stroke-width:0.5;" width="82.4756" x="1094.688" y="865.9746"/><text fill="#000000" font-family="sans-serif" font-size="14" lengthAdjust="spacing" textLength="68.4756" x="1101.688" y="888.082">store:Store</text><rect fill="#E2E2F0" height="32.6211" rx="2.5" ry="2.5" style="stroke:#181818;stroke-width:0.5;" width="109.7236" x="1220.9448" y="865.9746"/><text fill="#000000" font-family="sans-serif" font-size="14" lengthAdjust="spacing" textLength="95.7236" x="1227.9448" y="888.082">list:List&lt;Agent&gt;</text><rect fill="#E2E2F0" height="32.6211" rx="2.5" ry="2.5" style="stroke:#181818;stroke-width:0.5;" width="89.5098" x="1340.6685" y="50"/><text fill="#000000" font-family="sans-serif" font-size="14" lengthAdjust="spacing" textLength="75.5098" x="1347.6685" y="72.1074">agent:Agent</text><rect fill="#E2E2F0" height="32.6211" rx="2.5" ry="2.5" style="stroke:#181818;stroke-width:0.5;" width="89.5098" x="1340.6685" y="865.9746"/><text fill="#000000" font-family="sans-serif" font-size="14" lengthAdjust="spacing" textLength="75.5098" x="1347.6685" y="888.082">agent:Agent</text><rect fill="#FFFFFF" height="764.3535" style="stroke:#181818;stroke-width:1.0;" width="10" x="81.2998" y="93.6211"/><rect fill="#FFFFFF" height="718.0625" style="stroke:#181818;stroke-width:1.0;" width="10" x="288.7632" y="116.9121"/><rect fill="#FFFFFF" height="415.1523" style="stroke:#181818;stroke-width:1.0;" width="10" x="467.0039" y="148.2031"/><rect fill="#FFFFFF" height="31.291" style="stroke:#181818;stroke-width:1.0;" width="10" x="621.4028" y="179.4941"/><rect fill="#FFFFFF" height="615.8984" style="stroke:#181818;stroke-width:1.0;" width="10" x="778.4712" y="242.0762"/><rect fill="#FFFFFF" height="43.291" style="stroke:#181818;stroke-width:1.0;" width="10" x="975.6323" y="488.7734"/><rect fill="#FFFFFF" height="514.6953" style="stroke:#181818;stroke-width:1.0;" width="10" x="1130.9258" y="343.2793"/><rect fill="#FFFFFF" height="31.291" style="stroke:#181818;stroke-width:1.0;" width="10" x="1135.9258" y="620.9375"/><rect fill="#FFFFFF" height="31.291" style="stroke:#181818;stroke-width:1.0;" width="10" x="1270.8066" y="418.1914"/><rect fill="#FFFFFF" height="31.291" style="stroke:#181818;stroke-width:1.0;" width="10" x="1380.4233" y="709.8105"/><rect fill="#FFFFFF" height="31.291" style="stroke:#181818;stroke-width:1.0;" width="10" x="1380.4233" y="772.3926"/><polygon fill="#181818" points="276.7632,112.9121,286.7632,116.9121,276.7632,120.9121,280.7632,116.9121" style="stroke:#181818;stroke-width:1.0;"/><line style="stroke:#181818;stroke-width:1.0;" x1="91.2998" x2="282.7632" y1="116.9121" y2="116.9121"/><text fill="#000000" font-family="sans-serif" font-size="13" font-weight="bold" lengthAdjust="spacing" textLength="7.23" x="98.2998" y="111.6494">1</text><text fill="#000000" font-family="sans-serif" font-size="13" lengthAdjust="spacing" textLength="103.3271" x="109.5298" y="111.6494">asks to list agents</text><polygon fill="#181818" points="455.0039,144.2031,465.0039,148.2031,455.0039,152.2031,459.0039,148.2031" style="stroke:#181818;stroke-width:1.0;"/><line style="stroke:#181818;stroke-width:1.0;" x1="298.7632" x2="461.0039" y1="148.2031" y2="148.2031"/><text fill="#000000" font-family="sans-serif" font-size="13" font-weight="bold" lengthAdjust="spacing" textLength="7.23" x="305.7632" y="142.9404">2</text><text fill="#000000" font-family="sans-serif" font-size="13" lengthAdjust="spacing" textLength="138.0107" x="316.9932" y="142.9404">getAllGroupedByStore()</text><polygon fill="#181818" points="609.4028,175.4941,619.4028,179.4941,609.4028,183.4941,613.4028,179.4941" style="stroke:#181818;stroke-width:1.0;"/><line style="stroke:#181818;stroke-width:1.0;" x1="477.0039" x2="615.4028" y1="179.4941" y2="179.4941"/><text fill="#000000" font-family="sans-serif" font-size="13" font-weight="bold" lengthAdjust="spacing" textLength="7.23" x="484.0039" y="174.2314">3</text><text fill="#000000" font-family="sans-serif" font-size="13" lengthAdjust="spacing" textLength="114.1689" x="495.2339" y="174.2314">getStoreContainer()</text><polygon fill="#181818" points="488.0039,206.7852,478.0039,210.7852,488.0039,214.7852,484.0039,210.7852" style="stroke:#181818;stroke-width:1.0;"/><line style="stroke:#181818;stroke-width:1.0;stroke-dasharray:2.0,2.0;" x1="482.0039" x2="625.4028" y1="210.7852" y2="210.7852"/><text fill="#000000" font-family="sans-serif" font-size="13" font-weight="bold" lengthAdjust="spacing" textLength="7.23" x="494.0039" y="205.5225">4</text><text fill="#000000" font-family="sans-serif" font-size="13" lengthAdjust="spacing" textLength="53.479" x="505.2339" y="205.5225">container</text><polygon fill="#181818" points="766.4712,238.0762,776.4712,242.0762,766.4712,246.0762,770.4712,242.0762" style="stroke:#181818;stroke-width:1.0;"/><line style="stroke:#181818;stroke-width:1.0;" x1="477.0039" x2="772.4712" y1="242.0762" y2="242.0762"/><text fill="#000000" font-family="sans-serif" font-size="13" font-weight="bold" lengthAdjust="spacing" textLength="7.23" x="484.0039" y="236.8135">5</text><text fill="#000000" font-family="sans-serif" font-size="13" lengthAdjust="spacing" textLength="78.749" x="495.2339" y="236.8135">getAllStores()</text><polygon fill="#181818" points="866.2949,269.3672,876.2949,273.3672,866.2949,277.3672,870.2949,273.3672" style="stroke:#181818;stroke-width:1.0;"/><line style="stroke:#181818;stroke-width:1.0;stroke-dasharray:2.0,2.0;" x1="788.4712" x2="872.2949" y1="273.3672" y2="273.3672"/><text fill="#000000" font-family="sans-serif" font-size="13" font-weight="bold" lengthAdjust="spacing" textLength="7.23" x="795.4712" y="268.1045">6</text><text fill="#000000" font-family="sans-serif" font-size="13" lengthAdjust="spacing" textLength="44.7891" x="806.7012" y="268.1045">create()</text><rect fill="#E2E2F0" height="32.6211" rx="2.5" ry="2.5" style="stroke:#181818;stroke-width:0.5;" width="204.6748" x="878.2949" y="250.0762"/><text fill="#000000" font-family="sans-serif" font-size="14" lengthAdjust="spacing" textLength="190.6748" x="885.2949" y="272.1836">map:Map&lt;Store, List&lt;Agent&gt;&gt;</text><path d="M393.5283,300.6973 L465.9629,300.6973 L465.9629,309.9883 L455.9629,319.9883 L393.5283,319.9883 L393.5283,300.6973 " fill="#EEEEEE" style="stroke:#000000;stroke-width:1.5;"/><rect fill="none" height="201.0762" style="stroke:#000000;stroke-width:1.5;" width="947.1401" x="393.5283" y="300.6973"/><text fill="#000000" font-family="sans-serif" font-size="13" font-weight="bold" lengthAdjust="spacing" textLength="27.4346" x="408.5283" y="315.7256">loop</text><text fill="#000000" font-family="sans-serif" font-size="11" font-weight="bold" lengthAdjust="spacing" textLength="231.1074" x="480.9629" y="314.5674">[for each 'store' in 'container.getAllStores()']</text><polygon fill="#181818" points="1118.9258,339.2793,1128.9258,343.2793,1118.9258,347.2793,1122.9258,343.2793" style="stroke:#181818;stroke-width:1.0;"/><line style="stroke:#181818;stroke-width:1.0;" x1="477.0039" x2="1124.9258" y1="343.2793" y2="343.2793"/><text fill="#000000" font-family="sans-serif" font-size="13" font-weight="bold" lengthAdjust="spacing" textLength="7.23" x="484.0039" y="338.0166">7</text><text fill="#000000" font-family="sans-serif" font-size="13" lengthAdjust="spacing" textLength="67.2026" x="495.2339" y="338.0166">getAgents()</text><polygon fill="#181818" points="1208.9448,370.5703,1218.9448,374.5703,1208.9448,378.5703,1212.9448,374.5703" style="stroke:#181818;stroke-width:1.0;"/><line style="stroke:#181818;stroke-width:1.0;stroke-dasharray:2.0,2.0;" x1="1140.9258" x2="1214.9448" y1="374.5703" y2="374.5703"/><text fill="#000000" font-family="sans-serif" font-size="13" font-weight="bold" lengthAdjust="spacing" textLength="7.23" x="1147.9258" y="369.3076">8</text><text fill="#000000" font-family="sans-serif" font-size="13" lengthAdjust="spacing" textLength="44.7891" x="1159.1558" y="369.3076">create()</text><rect fill="#E2E2F0" height="32.6211" rx="2.5" ry="2.5" style="stroke:#181818;stroke-width:0.5;" width="109.7236" x="1220.9448" y="351.2793"/><text fill="#000000" font-family="sans-serif" font-size="14" lengthAdjust="spacing" textLength="95.7236" x="1227.9448" y="373.3867">list:List&lt;Agent&gt;</text><polygon fill="#181818" points="1258.8066,414.1914,1268.8066,418.1914,1258.8066,422.1914,1262.8066,418.1914" style="stroke:#181818;stroke-width:1.0;"/><line style="stroke:#181818;stroke-width:1.0;" x1="477.0039" x2="1264.8066" y1="418.1914" y2="418.1914"/><text fill="#000000" font-family="sans-serif" font-size="13" font-weight="bold" lengthAdjust="spacing" textLength="7.23" x="484.0039" y="412.9287">9</text><text fill="#000000" font-family="sans-serif" font-size="13" lengthAdjust="spacing" textLength="78.7363" x="495.2339" y="412.9287">sort(byName)</text><polygon fill="#181818" points="1151.9258,445.4824,1141.9258,449.4824,1151.9258,453.4824,1147.9258,449.4824" style="stroke:#181818;stroke-width:1.0;"/><line style="stroke:#181818;stroke-width:1.0;stroke-dasharray:2.0,2.0;" x1="1145.9258" x2="1274.8066" y1="449.4824" y2="449.4824"/><text fill="#000000" font-family="sans-serif" font-size="13" font-weight="bold" lengthAdjust="spacing" textLength="14.46" x="1157.9258" y="444.2197">10</text><text fill="#000000" font-family="sans-serif" font-size="13" lengthAdjust="spacing" textLength="56.3608" x="1176.3857" y="444.2197">sortedList</text><line style="stroke:#181818;stroke-width:1.0;" x1="980.6323" x2="1027.6323" y1="475.7734" y2="475.7734"/><line style="stroke:#181818;stroke-width:1.0;" x1="1027.6323" x2="1027.6323" y1="475.7734" y2="488.7734"/><line style="stroke:#181818;stroke-width:1.0;" x1="986.6323" x2="1027.6323" y1="488.7734" y2="488.7734"/><polygon fill="#181818" points="996.6323,484.7734,986.6323,488.7734,996.6323,492.7734,992.6323,488.7734" style="stroke:#181818;stroke-width:1.0;"/><text fill="#000000" font-family="sans-serif" font-size="13" font-weight="bold" lengthAdjust="spacing" textLength="14.46" x="992.6323" y="470.5107">11</text><text fill="#000000" font-family="sans-serif" font-size="13" lengthAdjust="spacing" textLength="122.8335" x="1011.0923" y="470.5107">add(store, sortedList)</text><polygon fill="#181818" points="488.0039,528.0645,478.0039,532.0645,488.0039,536.0645,484.0039,532.0645" style="stroke:#181818;stroke-width:1.0;"/><line style="stroke:#181818;stroke-width:1.0;stroke-dasharray:2.0,2.0;" x1="482.0039" x2="979.6323" y1="532.0645" y2="532.0645"/><text fill="#000000" font-family="sans-serif" font-size="13" font-weight="bold" lengthAdjust="spacing" textLength="14.46" x="494.0039" y="526.8018">12</text><text fill="#000000" font-family="sans-serif" font-size="13" lengthAdjust="spacing" textLength="25.2891" x="512.4639" y="526.8018">map</text><polygon fill="#181818" points="309.7632,559.3555,299.7632,563.3555,309.7632,567.3555,305.7632,563.3555" style="stroke:#181818;stroke-width:1.0;"/><line style="stroke:#181818;stroke-width:1.0;stroke-dasharray:2.0,2.0;" x1="303.7632" x2="471.0039" y1="563.3555" y2="563.3555"/><text fill="#000000" font-family="sans-serif" font-size="13" font-weight="bold" lengthAdjust="spacing" textLength="14.46" x="315.7632" y="558.0928">13</text><text fill="#000000" font-family="sans-serif" font-size="13" lengthAdjust="spacing" textLength="25.2891" x="334.2231" y="558.0928">map</text><path d="M10,578.3555 L82.4346,578.3555 L82.4346,587.6465 L72.4346,597.6465 L10,597.6465 L10,578.3555 " fill="#EEEEEE" style="stroke:#000000;stroke-width:1.5;"/><rect fill="none" height="271.6191" style="stroke:#000000;stroke-width:1.5;" width="1440.1782" x="10" y="578.3555"/><text fill="#000000" font-family="sans-serif" font-size="13" font-weight="bold" lengthAdjust="spacing" textLength="27.4346" x="25" y="593.3838">loop</text><text fill="#000000" font-family="sans-serif" font-size="11" font-weight="bold" lengthAdjust="spacing" textLength="129.0405" x="97.4346" y="592.2256">[for each 'store' in 'map']</text><polygon fill="#181818" points="1123.9258,616.9375,1133.9258,620.9375,1123.9258,624.9375,1127.9258,620.9375" style="stroke:#181818;stroke-width:1.0;"/><line style="stroke:#181818;stroke-width:1.0;" x1="298.7632" x2="1129.9258" y1="620.9375" y2="620.9375"/><text fill="#000000" font-family="sans-serif" font-size="13" font-weight="bold" lengthAdjust="spacing" textLength="14.46" x="305.7632" y="615.6748">14</text><text fill="#000000" font-family="sans-serif" font-size="13" lengthAdjust="spacing" textLength="92.479" x="324.2231" y="615.6748">getStoreName()</text><polygon fill="#181818" points="309.7632,648.2285,299.7632,652.2285,309.7632,656.2285,305.7632,652.2285" style="stroke:#181818;stroke-width:1.0;"/><line style="stroke:#181818;stroke-width:1.0;stroke-dasharray:2.0,2.0;" x1="303.7632" x2="1129.9258" y1="652.2285" y2="652.2285"/><text fill="#000000" font-family="sans-serif" font-size="13" font-weight="bold" lengthAdjust="spacing" textLength="14.46" x="315.7632" y="646.9658">15</text><text fill="#000000" font-family="sans-serif" font-size="13" lengthAdjust="spacing" textLength="63.5781" x="334.2231" y="646.9658">storeName</text><path d="M20,667.2285 L92.4346,667.2285 L92.4346,676.5195 L82.4346,686.5195 L20,686.5195 L20,667.2285 " fill="#EEEEEE" style="stroke:#000000;stroke-width:1.5;"/><rect fill="none" height="175.7461" style="stroke:#000000;stroke-width:1.5;" width="1420.1782" x="20" y="667.2285"/><text fill="#000000" font-family="sans-serif" font-size="13" font-weight="bold" lengthAdjust="spacing" textLength="27.4346" x="35" y="682.2568">loop</text><text fill="#000000" font-family="sans-serif" font-size="11" font-weight="bold" lengthAdjust="spacing" textLength="199.9229" x="107.4346" y="681.0986">[for each 'agent' in 'store.getAgents()']</text><polygon fill="#181818" points="1368.4233,705.8105,1378.4233,709.8105,1368.4233,713.8105,1372.4233,709.8105" style="stroke:#181818;stroke-width:1.0;"/><line style="stroke:#181818;stroke-width:1.0;" x1="298.7632" x2="1374.4233" y1="709.8105" y2="709.8105"/><text fill="#000000" font-family="sans-serif" font-size="13" font-weight="bold" lengthAdjust="spacing" textLength="14.46" x="305.7632" y="704.5479">16</text><text fill="#000000" font-family="sans-serif" font-size="13" lengthAdjust="spacing" textLength="61.4072" x="324.2231" y="704.5479">getName()</text><polygon fill="#181818" points="309.7632,737.1016,299.7632,741.1016,309.7632,745.1016,305.7632,741.1016" style="stroke:#181818;stroke-width:1.0;"/><line style="stroke:#181818;stroke-width:1.0;stroke-dasharray:2.0,2.0;" x1="303.7632" x2="1384.4233" y1="741.1016" y2="741.1016"/><text fill="#000000" font-family="sans-serif" font-size="13" font-weight="bold" lengthAdjust="spacing" textLength="14.46" x="315.7632" y="735.8389">17</text><text fill="#000000" font-family="sans-serif" font-size="13" lengthAdjust="spacing" textLength="32.519" x="334.2231" y="735.8389">name</text><polygon fill="#181818" points="1368.4233,768.3926,1378.4233,772.3926,1368.4233,776.3926,1372.4233,772.3926" style="stroke:#181818;stroke-width:1.0;"/><line style="stroke:#181818;stroke-width:1.0;" x1="298.7632" x2="1374.4233" y1="772.3926" y2="772.3926"/><text fill="#000000" font-family="sans-serif" font-size="13" font-weight="bold" lengthAdjust="spacing" textLength="14.46" x="305.7632" y="767.1299">18</text><text fill="#000000" font-family="sans-serif" font-size="13" lengthAdjust="spacing" textLength="95.3799" x="324.2231" y="767.1299">getEmployeeId()</text><polygon fill="#181818" points="309.7632,799.6836,299.7632,803.6836,309.7632,807.6836,305.7632,803.6836" style="stroke:#181818;stroke-width:1.0;"/><line style="stroke:#181818;stroke-width:1.0;stroke-dasharray:2.0,2.0;" x1="303.7632" x2="1384.4233" y1="803.6836" y2="803.6836"/><text fill="#000000" font-family="sans-serif" font-size="13" font-weight="bold" lengthAdjust="spacing" textLength="14.46" x="315.7632" y="798.4209">19</text><text fill="#000000" font-family="sans-serif" font-size="13" lengthAdjust="spacing" textLength="67.209" x="334.2231" y="798.4209">employeeId</text><polygon fill="#181818" points="102.2998,830.9746,92.2998,834.9746,102.2998,838.9746,98.2998,834.9746" style="stroke:#181818;stroke-width:1.0;"/><line style="stroke:#181818;stroke-width:1.0;stroke-dasharray:2.0,2.0;" x1="96.2998" x2="292.7632" y1="834.9746" y2="834.9746"/><text fill="#000000" font-family="sans-serif" font-size="13" font-weight="bold" lengthAdjust="spacing" textLength="14.46" x="108.2998" y="829.7119">20</text><text fill="#000000" font-family="sans-serif" font-size="13" lengthAdjust="spacing" textLength="155.0034" x="126.7598" y="829.7119">shows name + employeeId</text><!--SRC=[VLD1Rjim4Bph5GjVvAIrVHS20wbH506IN8BspaWRMmX5iYHLmx_lSYbHeXB71uFScPtX3gdovBrnrMvdf52-x-IsrjtEuTyULOsRfXL7AxgY4BtNelRjF-4HjEAzwhjNj8JLNbjOFQC_Q_l-99Guebs1SF3R4Mw4zMtT6jA7LVNOEdz_HEN_j7Xcqil5UUokqGvQUQkb71GFtie5zHFVOPqJQr8IhK9RlT1vyJ1ke-wuotiwOQedOUwuupk4KztniVRxUFPGvmAnybONe6WrKNEA9BbgfiayNePYpXMXN34uqJZxU2SSTH7-ORCVCgs8-Ex0QmXEm1AkY5XWXJ0hEAA_b_ANrRt1viU5pxc-AG8OI4EMpCk38z80mYQffPIJGEAFLgpYWiM8S7-MvUqjILcaoOWdjJRmHcyCHNs2afCjeLLG9hTjBbqMGB_n15oDxXm1IGQOosoTCizivnA9KO7JrgzVBy-YmyX9s3H6P673zvYynk5WEIrTLDEiNNnaK-TDWQg1C7snw4znqmCTWfxTUYXUpupG6C_q4AQ0U1L6-v3HAEv61kCB6tvYqOPvsrdcqJGtPeoDPvufqynNZPRN57vsHkeBuaFpfGucsWSrOeKFY6OywRDZH_YsR4XNaXR_0G00]--></g></svg>