<?xml version="1.0" encoding="us-ascii" standalone="no"?><svg xmlns="http://www.w3.org/2000/svg" xmlns:xlink="http://www.w3.org/1999/xlink" contentStyleType="text/css" height="684px" preserveAspectRatio="none" style="width:1431px;height:684px;background:#FFFFFF;" version="1.1" viewBox="0 0 1431 684" width="1431px" zoomAndPan="magnify"><defs/><g><rect fill="#FFFFFF" height="589.6074" style="stroke:#181818;stroke-width:1.0;" width="10" x="45" y="48.6211"/><rect fill="#FFFFFF" height="557.3164" style="stroke:#181818;stroke-width:1.0;" width="10" x="205" y="71.9121"/><rect fill="#FFFFFF" height="42.291" style="stroke:#181818;stroke-width:1.0;" width="10" x="210" y="548.6465"/><rect fill="#FFFFFF" height="368.8613" style="stroke:#181818;stroke-width:1.0;" width="10" x="399" y="140.4941"/><rect fill="#FFFFFF" height="137.4941" style="stroke:#181818;stroke-width:1.0;" width="10" x="541" y="171.7852"/><rect fill="#FFFFFF" height="93.873" style="stroke:#181818;stroke-width:1.0;" width="10" x="723.5" y="340.5703"/><rect fill="#FFFFFF" height="31.291" style="stroke:#181818;stroke-width:1.0;" width="10" x="895.5" y="203.0762"/><rect fill="#FFFFFF" height="31.291" style="stroke:#181818;stroke-width:1.0;" width="10" x="1070" y="371.8613"/><line style="stroke:#181818;stroke-width:0.5;stroke-dasharray:5.0,5.0;" x1="50" x2="50" y1="38.6211" y2="647.2285"/><line style="stroke:#181818;stroke-width:0.5;stroke-dasharray:5.0,5.0;" x1="209.5" x2="209.5" y1="38.6211" y2="647.2285"/><line style="stroke:#181818;stroke-width:0.5;stroke-dasharray:5.0,5.0;" x1="403.5" x2="403.5" y1="38.6211" y2="647.2285"/><line style="stroke:#181818;stroke-width:0.5;stroke-dasharray:5.0,5.0;" x1="546" x2="546" y1="38.6211" y2="647.2285"/><line style="stroke:#181818;stroke-width:0.5;stroke-dasharray:5.0,5.0;" x1="728" x2="728" y1="274.1777" y2="647.2285"/><line style="stroke:#181818;stroke-width:0.5;stroke-dasharray:5.0,5.0;" x1="900" x2="900" y1="38.6211" y2="647.2285"/><line style="stroke:#181818;stroke-width:0.5;stroke-dasharray:5.0,5.0;" x1="1075" x2="1075" y1="38.6211" y2="647.2285"/><line style="stroke:#181818;stroke-width:0.5;stroke-dasharray:5.0,5.0;" x1="1229" x2="1229" y1="38.6211" y2="647.2285"/><line style="stroke:#181818;stroke-width:0.5;stroke-dasharray:5.0,5.0;" x1="1366" x2="1366" y1="474.2539" y2="647.2285"/><rect fill="#E2E2F0" height="32.6211" rx="2.5" ry="2.5" style="stroke:#181818;stroke-width:0.5;" width="90" x="5" y="5"/><text fill="#000000" font-family="sans-serif" font-size="14" lengthAdjust="spacing" textLength="76" x="12" y="27.1074">:HTTPClient</text><rect fill="#E2E2F0" height="32.6211" rx="2.5" ry="2.5" style="stroke:#181818;stroke-width:0.5;" width="90" x="5" y="646.2285"/><text fill="#000000" font-family="sans-serif" font-size="14" lengthAdjust="spacing" textLength="76" x="12" y="668.3359">:HTTPClient</text><rect fill="#E2E2F0" height="32.6211" rx="2.5" ry="2.5" style="stroke:#181818;stroke-width:0.5;" width="153" x="133.5" y="5"/><text fill="#000000" font-family="sans-serif" font-size="14" lengthAdjust="spacing" textLength="139" x="140.5" y="27.1074">handler:RouteHandler</text><rect fill="#E2E2F0" height="32.6211" rx="2.5" ry="2.5" style="stroke:#181818;stroke-width:0.5;" width="153" x="133.5" y="646.2285"/><text fill="#000000" font-family="sans-serif" font-size="14" lengthAdjust="spacing" textLength="139" x="140.5" y="668.3359">handler:RouteHandler</text><rect fill="#E2E2F0" height="32.6211" rx="2.5" ry="2.5" style="stroke:#181818;stroke-width:0.5;" width="117" x="345.5" y="5"/><text fill="#000000" font-family="sans-serif" font-size="14" lengthAdjust="spacing" textLength="103" x="352.5" y="27.1074">:AgentController</text><rect fill="#E2E2F0" height="32.6211" rx="2.5" ry="2.5" style="stroke:#181818;stroke-width:0.5;" width="117" x="345.5" y="646.2285"/><text fill="#000000" font-family="sans-serif" font-size="14" lengthAdjust="spacing" textLength="103" x="352.5" y="668.3359">:AgentController</text><rect fill="#E2E2F0" height="32.6211" rx="2.5" ry="2.5" style="stroke:#181818;stroke-width:0.5;" width="124" x="484" y="5"/><text fill="#000000" font-family="sans-serif" font-size="14" lengthAdjust="spacing" textLength="110" x="491" y="27.1074">:NetworkManager</text><rect fill="#E2E2F0" height="32.6211" rx="2.5" ry="2.5" style="stroke:#181818;stroke-width:0.5;" width="124" x="484" y="646.2285"/><text fill="#000000" font-family="sans-serif" font-size="14" lengthAdjust="spacing" textLength="110" x="491" y="668.3359">:NetworkManager</text><rect fill="#E2E2F0" height="32.6211" rx="2.5" ry="2.5" style="stroke:#181818;stroke-width:0.5;" width="147" x="655" y="646.2285"/><text fill="#000000" font-family="sans-serif" font-size="14" lengthAdjust="spacing" textLength="133" x="662" y="668.3359">service:AgentService</text><rect fill="#E2E2F0" height="32.6211" rx="2.5" ry="2.5" style="stroke:#181818;stroke-width:0.5;" width="177" x="812" y="5"/><text fill="#000000" font-family="sans-serif" font-size="14" lengthAdjust="spacing" textLength="163" x="819" y="27.1074">factory:RepositoryFactory</text><rect fill="#E2E2F0" height="32.6211" rx="2.5" ry="2.5" style="stroke:#181818;stroke-width:0.5;" width="177" x="812" y="646.2285"/><text fill="#000000" font-family="sans-serif" font-size="14" lengthAdjust="spacing" textLength="163" x="819" y="668.3359">factory:RepositoryFactory</text><rect fill="#E2E2F0" height="32.6211" rx="2.5" ry="2.5" style="stroke:#181818;stroke-width:0.5;" width="152" x="999" y="5"/><text fill="#000000" font-family="sans-serif" font-size="14" lengthAdjust="spacing" textLength="138" x="1006" y="27.1074">repo:AgentRepository</text><rect fill="#E2E2F0" height="32.6211" rx="2.5" ry="2.5" style="stroke:#181818;stroke-width:0.5;" width="152" x="999" y="646.2285"/><text fill="#000000" font-family="sans-serif" font-size="14" lengthAdjust="spacing" textLength="138" x="1006" y="668.3359">repo:AgentRepository</text><rect fill="#E2E2F0" height="32.6211" rx="2.5" ry="2.5" style="stroke:#181818;stroke-width:0.5;" width="136" x="1161" y="5"/><text fill="#000000" font-family="sans-serif" font-size="14" lengthAdjust="spacing" textLength="122" x="1168" y="27.1074">agents:List&lt;Agent&gt;</text><rect fill="#E2E2F0" height="32.6211" rx="2.5" ry="2.5" style="stroke:#181818;stroke-width:0.5;" width="136" x="1161" y="646.2285"/><text fill="#000000" font-family="sans-serif" font-size="14" lengthAdjust="spacing" textLength="122" x="1168" y="668.3359">agents:List&lt;Agent&gt;</text><rect fill="#E2E2F0" height="32.6211" rx="2.5" ry="2.5" style="stroke:#181818;stroke-width:0.5;" width="118" x="1307" y="646.2285"/><text fill="#000000" font-family="sans-serif" font-size="14" lengthAdjust="spacing" textLength="104" x="1314" y="668.3359">result:HttpResult</text><rect fill="#FFFFFF" height="589.6074" style="stroke:#181818;stroke-width:1.0;" width="10" x="45" y="48.6211"/><rect fill="#FFFFFF" height="557.3164" style="stroke:#181818;stroke-width:1.0;" width="10" x="205" y="71.9121"/><rect fill="#FFFFFF" height="42.291" style="stroke:#181818;stroke-width:1.0;" width="10" x="210" y="548.6465"/><rect fill="#FFFFFF" height="368.8613" style="stroke:#181818;stroke-width:1.0;" width="10" x="399" y="140.4941"/><rect fill="#FFFFFF" height="137.4941" style="stroke:#181818;stroke-width:1.0;" width="10" x="541" y="171.7852"/><rect fill="#FFFFFF" height="93.873" style="stroke:#181818;stroke-width:1.0;" width="10" x="723.5" y="340.5703"/><rect fill="#FFFFFF" height="31.291" style="stroke:#181818;stroke-width:1.0;" width="10" x="895.5" y="203.0762"/><rect fill="#FFFFFF" height="31.291" style="stroke:#181818;stroke-width:1.0;" width="10" x="1070" y="371.8613"/><polygon fill="#181818" points="193,67.9121,203,71.9121,193,75.9121,197,71.9121" style="stroke:#181818;stroke-width:1.0;"/><line style="stroke:#181818;stroke-width:1.0;" x1="55" x2="199" y1="71.9121" y2="71.9121"/><text fill="#000000" font-family="sans-serif" font-size="13" font-weight="bold" lengthAdjust="spacing" textLength="7" x="62" y="66.6494">1</text><text fill="#000000" font-family="sans-serif" font-size="13" lengthAdjust="spacing" textLength="120" x="73" y="66.6494">GET /agentsByStore</text><path d="M137,84.9121 L137,111.9121 L282,111.9121 L282,94.9121 L272,84.9121 L137,84.9121 " fill="#FEFFDD" style="stroke:#181818;stroke-width:0.5;"/><path d="M272,84.9121 L272,94.9121 L282,94.9121 L272,84.9121 " fill="#FEFFDD" style="stroke:#181818;stroke-width:0.5;"/><text fill="#000000" font-family="sans-serif" font-size="13" lengthAdjust="spacing" textLength="124" x="143" y="103.9404">after doing some stuff</text><polygon fill="#181818" points="387,136.4941,397,140.4941,387,144.4941,391,140.4941" style="stroke:#181818;stroke-width:1.0;"/><line style="stroke:#181818;stroke-width:1.0;" x1="215" x2="393" y1="140.4941" y2="140.4941"/><text fill="#000000" font-family="sans-serif" font-size="13" font-weight="bold" lengthAdjust="spacing" textLength="7" x="222" y="135.2314">2</text><text fill="#000000" font-family="sans-serif" font-size="13" lengthAdjust="spacing" textLength="114" x="233" y="135.2314">getAgentsByStore()</text><polygon fill="#181818" points="529,167.7852,539,171.7852,529,175.7852,533,171.7852" style="stroke:#181818;stroke-width:1.0;"/><line style="stroke:#181818;stroke-width:1.0;" x1="409" x2="535" y1="171.7852" y2="171.7852"/><text fill="#000000" font-family="sans-serif" font-size="13" font-weight="bold" lengthAdjust="spacing" textLength="7" x="416" y="166.5225">3</text><text fill="#000000" font-family="sans-serif" font-size="13" lengthAdjust="spacing" textLength="102" x="427" y="166.5225">getAgentService()</text><polygon fill="#181818" points="883.5,199.0762,893.5,203.0762,883.5,207.0762,887.5,203.0762" style="stroke:#181818;stroke-width:1.0;"/><line style="stroke:#181818;stroke-width:1.0;" x1="551" x2="889.5" y1="203.0762" y2="203.0762"/><text fill="#000000" font-family="sans-serif" font-size="13" font-weight="bold" lengthAdjust="spacing" textLength="7" x="558" y="197.8135">4</text><text fill="#000000" font-family="sans-serif" font-size="13" lengthAdjust="spacing" textLength="122" x="569" y="197.8135">getAgentRepository()</text><polygon fill="#181818" points="562,230.3672,552,234.3672,562,238.3672,558,234.3672" style="stroke:#181818;stroke-width:1.0;"/><line style="stroke:#181818;stroke-width:1.0;stroke-dasharray:2.0,2.0;" x1="556" x2="899.5" y1="234.3672" y2="234.3672"/><text fill="#000000" font-family="sans-serif" font-size="13" font-weight="bold" lengthAdjust="spacing" textLength="7" x="568" y="229.1045">5</text><text fill="#000000" font-family="sans-serif" font-size="13" lengthAdjust="spacing" textLength="25" x="579" y="229.1045">repo</text><polygon fill="#181818" points="643,261.6582,653,265.6582,643,269.6582,647,265.6582" style="stroke:#181818;stroke-width:1.0;"/><line style="stroke:#181818;stroke-width:1.0;stroke-dasharray:2.0,2.0;" x1="551" x2="649" y1="265.6582" y2="265.6582"/><text fill="#000000" font-family="sans-serif" font-size="13" font-weight="bold" lengthAdjust="spacing" textLength="7" x="558" y="260.3955">6</text><text fill="#000000" font-family="sans-serif" font-size="13" lengthAdjust="spacing" textLength="69" x="569" y="260.3955">create(repo)</text><rect fill="#E2E2F0" height="32.6211" rx="2.5" ry="2.5" style="stroke:#181818;stroke-width:0.5;" width="147" x="655" y="242.3672"/><text fill="#000000" font-family="sans-serif" font-size="14" lengthAdjust="spacing" textLength="133" x="662" y="264.4746">service:AgentService</text><polygon fill="#181818" points="420,305.2793,410,309.2793,420,313.2793,416,309.2793" style="stroke:#181818;stroke-width:1.0;"/><line style="stroke:#181818;stroke-width:1.0;stroke-dasharray:2.0,2.0;" x1="414" x2="545" y1="309.2793" y2="309.2793"/><text fill="#000000" font-family="sans-serif" font-size="13" font-weight="bold" lengthAdjust="spacing" textLength="7" x="426" y="304.0166">7</text><text fill="#000000" font-family="sans-serif" font-size="13" lengthAdjust="spacing" textLength="40" x="437" y="304.0166">service</text><polygon fill="#181818" points="711.5,336.5703,721.5,340.5703,711.5,344.5703,715.5,340.5703" style="stroke:#181818;stroke-width:1.0;"/><line style="stroke:#181818;stroke-width:1.0;" x1="409" x2="717.5" y1="340.5703" y2="340.5703"/><text fill="#000000" font-family="sans-serif" font-size="13" font-weight="bold" lengthAdjust="spacing" textLength="7" x="416" y="335.3076">8</text><text fill="#000000" font-family="sans-serif" font-size="13" lengthAdjust="spacing" textLength="173" x="427" y="335.3076">fetchAgentsGroupedByStore()</text><polygon fill="#181818" points="1058,367.8613,1068,371.8613,1058,375.8613,1062,371.8613" style="stroke:#181818;stroke-width:1.0;"/><line style="stroke:#181818;stroke-width:1.0;" x1="733.5" x2="1064" y1="371.8613" y2="371.8613"/><text fill="#000000" font-family="sans-serif" font-size="13" font-weight="bold" lengthAdjust="spacing" textLength="7" x="740.5" y="366.5986">9</text><text fill="#000000" font-family="sans-serif" font-size="13" lengthAdjust="spacing" textLength="139" x="751.5" y="366.5986">findAllGroupedByStore()</text><polygon fill="#181818" points="744.5,399.1523,734.5,403.1523,744.5,407.1523,740.5,403.1523" style="stroke:#181818;stroke-width:1.0;"/><line style="stroke:#181818;stroke-width:1.0;stroke-dasharray:2.0,2.0;" x1="738.5" x2="1074" y1="403.1523" y2="403.1523"/><text fill="#000000" font-family="sans-serif" font-size="13" font-weight="bold" lengthAdjust="spacing" textLength="14" x="750.5" y="397.8896">10</text><text fill="#000000" font-family="sans-serif" font-size="13" lengthAdjust="spacing" textLength="39" x="768.5" y="397.8896">agents</text><polygon fill="#181818" points="420,430.4434,410,434.4434,420,438.4434,416,434.4434" style="stroke:#181818;stroke-width:1.0;"/><line style="stroke:#181818;stroke-width:1.0;stroke-dasharray:2.0,2.0;" x1="414" x2="727.5" y1="434.4434" y2="434.4434"/><text fill="#000000" font-family="sans-serif" font-size="13" font-weight="bold" lengthAdjust="spacing" textLength="14" x="426" y="429.1807">11</text><text fill="#000000" font-family="sans-serif" font-size="13" lengthAdjust="spacing" textLength="39" x="444" y="429.1807">agents</text><polygon fill="#181818" points="1295,461.7344,1305,465.7344,1295,469.7344,1299,465.7344" style="stroke:#181818;stroke-width:1.0;"/><line style="stroke:#181818;stroke-width:1.0;stroke-dasharray:2.0,2.0;" x1="409" x2="1301" y1="465.7344" y2="465.7344"/><text fill="#000000" font-family="sans-serif" font-size="13" font-weight="bold" lengthAdjust="spacing" textLength="14" x="416" y="460.4717">12</text><text fill="#000000" font-family="sans-serif" font-size="13" lengthAdjust="spacing" textLength="112" x="434" y="460.4717">create(200, agents)</text><rect fill="#E2E2F0" height="32.6211" rx="2.5" ry="2.5" style="stroke:#181818;stroke-width:0.5;" width="118" x="1307" y="442.4434"/><text fill="#000000" font-family="sans-serif" font-size="14" lengthAdjust="spacing" textLength="104" x="1314" y="464.5508">result:HttpResult</text><polygon fill="#181818" points="226,505.3555,216,509.3555,226,513.3555,222,509.3555" style="stroke:#181818;stroke-width:1.0;"/><line style="stroke:#181818;stroke-width:1.0;stroke-dasharray:2.0,2.0;" x1="220" x2="403" y1="509.3555" y2="509.3555"/><text fill="#000000" font-family="sans-serif" font-size="13" font-weight="bold" lengthAdjust="spacing" textLength="14" x="232" y="504.0928">13</text><text fill="#000000" font-family="sans-serif" font-size="13" lengthAdjust="spacing" textLength="32" x="250" y="504.0928">result</text><line style="stroke:#181818;stroke-width:1.0;" x1="215" x2="262" y1="535.6465" y2="535.6465"/><line style="stroke:#181818;stroke-width:1.0;" x1="262" x2="262" y1="535.6465" y2="548.6465"/><line style="stroke:#181818;stroke-width:1.0;" x1="221" x2="262" y1="548.6465" y2="548.6465"/><polygon fill="#181818" points="231,544.6465,221,548.6465,231,552.6465,227,548.6465" style="stroke:#181818;stroke-width:1.0;"/><text fill="#000000" font-family="sans-serif" font-size="13" font-weight="bold" lengthAdjust="spacing" textLength="14" x="227" y="530.3838">14</text><text fill="#000000" font-family="sans-serif" font-size="13" lengthAdjust="spacing" textLength="152" x="245" y="530.3838">setHttpResult(resp, result)</text><line style="stroke:#181818;stroke-width:1.0;stroke-dasharray:2.0,2.0;" x1="220" x2="262" y1="589.9375" y2="589.9375"/><line style="stroke:#181818;stroke-width:1.0;stroke-dasharray:2.0,2.0;" x1="262" x2="262" y1="589.9375" y2="602.9375"/><line style="stroke:#181818;stroke-width:1.0;stroke-dasharray:2.0,2.0;" x1="215" x2="262" y1="602.9375" y2="602.9375"/><polygon fill="#181818" points="225,598.9375,215,602.9375,225,606.9375,221,602.9375" style="stroke:#181818;stroke-width:1.0;"/><text fill="#000000" font-family="sans-serif" font-size="13" font-weight="bold" lengthAdjust="spacing" textLength="14" x="227" y="584.6748">15</text><text fill="#000000" font-family="sans-serif" font-size="13" lengthAdjust="spacing" textLength="4" x="245" y="584.6748">&#160;</text><polygon fill="#181818" points="66,625.2285,56,629.2285,66,633.2285,62,629.2285" style="stroke:#181818;stroke-width:1.0;"/><line style="stroke:#181818;stroke-width:1.0;stroke-dasharray:2.0,2.0;" x1="60" x2="209" y1="629.2285" y2="629.2285"/><text fill="#000000" font-family="sans-serif" font-size="13" font-weight="bold" lengthAdjust="spacing" textLength="14" x="72" y="623.9658">16</text><text fill="#000000" font-family="sans-serif" font-size="13" lengthAdjust="spacing" textLength="25" x="90" y="623.9658">resp</text><!--SRC=[RPBDRjim3CVlUWgXbpP5qnGx2aE1BDYQmpOKILv0isb7g2ov4fqXRrzHKYmxxOqKV_oBNxT7nDwBrQhNqk3GwSVATYiFxmEO2fQragsJ7PC3MbcXEaa4RatqpT3z0yTOBnsgIlKXdz-8xU7mkj4A3DvmwNbnvznHcbg34pix86oJ4nFsPu_GNOckso2miGQTrHTmWqvVONy1_rltzaSQsMPg_ZJdFRYJgY2fxvEJQaZsd6v2_zQTnGvwwnMPlz9BJCdsFCK5DAcNf4YJEqSbKLxyLXw_nupd24RJNwlwGQFOXiNjefaboMHitD9aygpOVFcSHopuoyy3NwMFVvpteJXWp5XQy0dSICa6WrTRPLhkRGVSuz0qZAKuwT4c16y1rrEjkmMZ007p9HGqppcGSu9oya0BN4OO-1pboo_KQUgV1AdjzDlzlU2LWp2YEo8NNw6fetmVOnjPGF06i3gcPb-S7NgeIyyP8fug3h0ozLhhJo15ftM5IQTbZmfZ8JcGweZ2jEj98z-UdXuojIZOPOFfO2OBkmGyOBcYC0tVFsHuCT85dpwLWuhoFVi0]--></g></svg>