<svg xmlns="http://www.w3.org/2000/svg" xmlns:xlink="http://www.w3.org/1999/xlink" contentStyleType="text/css" height="597px" preserveAspectRatio="none" style="width:1366px;height:597px;background:#FFFFFF;" version="1.1" viewBox="0 0 1366 597" width="1366px" zoomAndPan="magnify"><defs/><g><!--class ReplyBookingRequestView--><g id="elem_ReplyBookingRequestView"><rect codeLine="6" fill="#F1F1F1" height="44.6211" id="ReplyBookingRequestView" rx="2.5" ry="2.5" style="stroke:#181818;stroke-width:0.5;" width="174.875" x="729.5" y="7"/><text fill="#000000" font-family="sans-serif" font-size="14" lengthAdjust="spacing" textLength="168.875" x="732.5" y="27.1074">ReplyBookingRequestView</text><line style="stroke:#181818;stroke-width:0.5;" x1="730.5" x2="903.375" y1="35.6211" y2="35.6211"/><line style="stroke:#181818;stroke-width:0.5;" x1="730.5" x2="903.375" y1="43.6211" y2="43.6211"/></g><!--class ReplyBookingRequestController--><g id="elem_ReplyBookingRequestController"><rect codeLine="9" fill="#F1F1F1" height="100.4844" id="ReplyBookingRequestController" rx="2.5" ry="2.5" style="stroke:#181818;stroke-width:0.5;" width="381.2158" x="626.5" y="113"/><text fill="#000000" font-family="sans-serif" font-size="14" lengthAdjust="spacing" textLength="199.2197" x="717.498" y="133.1074">ReplyBookingRequestController</text><line style="stroke:#181818;stroke-width:0.5;" x1="627.5" x2="1006.7158" y1="141.6211" y2="141.6211"/><line style="stroke:#181818;stroke-width:0.5;" x1="627.5" x2="1006.7158" y1="149.6211" y2="149.6211"/><text fill="#000000" font-family="sans-serif" font-size="14" lengthAdjust="spacing" textLength="255.6094" x="632.5" y="168.7285">+chooseRequestFromList(): VisitRequest</text><text fill="#000000" font-family="sans-serif" font-size="14" lengthAdjust="spacing" textLength="369.2158" x="632.5" y="187.3496">+replyToRequest(VisitRequest request, string reply): Result</text><text fill="#000000" font-family="sans-serif" font-size="14" lengthAdjust="spacing" textLength="130.3271" x="632.5" y="205.9707">+saveReply(): Result</text></g><!--class Agent--><g id="elem_Agent"><rect codeLine="15" fill="#F1F1F1" height="81.8633" id="Agent" rx="2.5" ry="2.5" style="stroke:#181818;stroke-width:0.5;" width="362.5811" x="158.5" y="283"/><text fill="#000000" font-family="sans-serif" font-size="14" lengthAdjust="spacing" textLength="36.5859" x="321.4976" y="303.1074">Agent</text><line style="stroke:#181818;stroke-width:0.5;" x1="159.5" x2="520.0811" y1="311.6211" y2="311.6211"/><text fill="#000000" font-family="sans-serif" font-size="14" lengthAdjust="spacing" textLength="39.6826" x="164.5" y="330.7285">-name</text><line style="stroke:#181818;stroke-width:0.5;" x1="159.5" x2="520.0811" y1="338.2422" y2="338.2422"/><text fill="#000000" font-family="sans-serif" font-size="14" lengthAdjust="spacing" textLength="350.5811" x="164.5" y="357.3496">+getBookingRequestsService(): BookingRequestService</text></g><!--class BookingRequestService--><g id="elem_BookingRequestService"><rect codeLine="20" fill="#F1F1F1" height="100.4844" id="BookingRequestService" rx="2.5" ry="2.5" style="stroke:#181818;stroke-width:0.5;" width="439.6289" x="597" y="274"/><text fill="#000000" font-family="sans-serif" font-size="14" lengthAdjust="spacing" textLength="149.4199" x="742.1045" y="294.1074">BookingRequestService</text><line style="stroke:#181818;stroke-width:0.5;" x1="598" x2="1035.6289" y1="302.6211" y2="302.6211"/><line style="stroke:#181818;stroke-width:0.5;" x1="598" x2="1035.6289" y1="310.6211" y2="310.6211"/><text fill="#000000" font-family="sans-serif" font-size="14" lengthAdjust="spacing" textLength="427.6289" x="603" y="329.7285">+BookingRequestService(BookingRequestRepository requestsRepo)</text><text fill="#000000" font-family="sans-serif" font-size="14" lengthAdjust="spacing" textLength="381.6982" x="603" y="348.3496">+listUnansweredRequests(string agentId): List&lt;VisitRequest&gt;</text><text fill="#000000" font-family="sans-serif" font-size="14" lengthAdjust="spacing" textLength="369.2158" x="603" y="366.9707">+replyToRequest(VisitRequest request, string reply): Result</text></g><!--class BookingRequestRepository--><g id="elem_BookingRequestRepository"><rect codeLine="26" fill="#F1F1F1" height="97.8242" id="BookingRequestRepository" rx="2.5" ry="2.5" style="stroke:#181818;stroke-width:0.5;" width="393.6982" x="438" y="473"/><text fill="#000000" font-family="sans-serif" font-size="12" font-style="italic" lengthAdjust="spacing" textLength="59.373" x="605.1626" y="490.9492">&#171;interface&#187;</text><text fill="#000000" font-family="sans-serif" font-size="14" font-style="italic" lengthAdjust="spacing" textLength="169.6543" x="550.022" y="509.0684">BookingRequestRepository</text><line style="stroke:#181818;stroke-width:0.5;" x1="439" x2="830.6982" y1="517.582" y2="517.582"/><line style="stroke:#181818;stroke-width:0.5;" x1="439" x2="830.6982" y1="525.582" y2="525.582"/><text fill="#000000" font-family="sans-serif" font-size="14" lengthAdjust="spacing" textLength="381.6982" x="444" y="544.6895">+listUnansweredRequests(string agentId): List&lt;VisitRequest&gt;</text><text fill="#000000" font-family="sans-serif" font-size="14" lengthAdjust="spacing" textLength="259.5059" x="444" y="563.3105">+saveReply(VisitRequest request): Result</text></g><!--class RepositoryFactory--><g id="elem_RepositoryFactory"><rect codeLine="31" fill="#F1F1F1" height="79.2031" id="RepositoryFactory" rx="2.5" ry="2.5" style="stroke:#181818;stroke-width:0.5;" width="396.0498" x="7" y="482.5"/><text fill="#000000" font-family="sans-serif" font-size="12" font-style="italic" lengthAdjust="spacing" textLength="59.373" x="175.3384" y="500.4492">&#171;interface&#187;</text><text fill="#000000" font-family="sans-serif" font-size="14" font-style="italic" lengthAdjust="spacing" textLength="113.5928" x="148.2285" y="518.5684">RepositoryFactory</text><line style="stroke:#181818;stroke-width:0.5;" x1="8" x2="402.0498" y1="527.082" y2="527.082"/><line style="stroke:#181818;stroke-width:0.5;" x1="8" x2="402.0498" y1="535.082" y2="535.082"/><text fill="#000000" font-family="sans-serif" font-size="14" lengthAdjust="spacing" textLength="384.0498" x="13" y="554.1895">+getBookingRequestRepository(): BookingRequestRepository</text></g><!--class VisitRequest--><g id="elem_VisitRequest"><rect codeLine="35" fill="#F1F1F1" height="137.7266" id="VisitRequest" rx="2.5" ry="2.5" style="stroke:#181818;stroke-width:0.5;" width="447.709" x="912" y="453"/><text fill="#000000" font-family="sans-serif" font-size="14" lengthAdjust="spacing" textLength="78.5928" x="1096.5581" y="473.1074">VisitRequest</text><line style="stroke:#181818;stroke-width:0.5;" x1="913" x2="1358.709" y1="481.6211" y2="481.6211"/><text fill="#000000" font-family="sans-serif" font-size="14" lengthAdjust="spacing" textLength="15.5586" x="918" y="500.7285">-id</text><text fill="#000000" font-family="sans-serif" font-size="14" lengthAdjust="spacing" textLength="74.6895" x="918" y="519.3496">-clientName</text><text fill="#000000" font-family="sans-serif" font-size="14" lengthAdjust="spacing" textLength="58.3447" x="918" y="537.9707">-visitDate</text><text fill="#000000" font-family="sans-serif" font-size="14" lengthAdjust="spacing" textLength="42.0137" x="918" y="556.5918">-status</text><line style="stroke:#181818;stroke-width:0.5;" x1="913" x2="1358.709" y1="564.1055" y2="564.1055"/><text fill="#000000" font-family="sans-serif" font-size="14" lengthAdjust="spacing" textLength="435.709" x="918" y="583.2129">VisitRequest(string id, string clientName, string visitDate, string status)</text></g><!--link Agent to RepositoryFactory--><g id="link_Agent_RepositoryFactory"><path codeLine="43" d="M312.35,365.14 C288.75,399.41 258.4133,443.4486 235.0933,477.3086 " fill="none" id="Agent-to-RepositoryFactory" style="stroke:#181818;stroke-width:1.0;"/><polygon fill="#181818" points="231.69,482.25,240.0892,477.1067,234.526,478.1321,233.5006,472.569,231.69,482.25" style="stroke:#181818;stroke-width:1.0;"/><text fill="#000000" font-family="sans-serif" font-size="13" lengthAdjust="spacing" textLength="27.46" x="286" y="419.0283">uses</text><text fill="#000000" font-family="sans-serif" font-size="13" lengthAdjust="spacing" textLength="7.23" x="300.6298" y="386.8022">1</text><text fill="#000000" font-family="sans-serif" font-size="13" lengthAdjust="spacing" textLength="7.23" x="228.5458" y="471.2942">1</text></g><!--link BookingRequestRepository to VisitRequest--><g id="link_BookingRequestRepository_VisitRequest"><path codeLine="44" d="M832.29,522 C858.44,522 879.4,522 905.96,522 " fill="none" id="BookingRequestRepository-to-VisitRequest" style="stroke:#181818;stroke-width:1.0;"/><polygon fill="#181818" points="911.96,522,902.96,518,906.96,522,902.96,526,911.96,522" style="stroke:#181818;stroke-width:1.0;"/><text fill="#000000" font-family="sans-serif" font-size="13" lengthAdjust="spacing" textLength="43.3481" x="850.5" y="515.0283">records</text><text fill="#000000" font-family="sans-serif" font-size="13" lengthAdjust="spacing" textLength="7.23" x="839.5154" y="518.7312">1</text><text fill="#000000" font-family="sans-serif" font-size="13" lengthAdjust="spacing" textLength="19.5127" x="884.5816" y="536.3439">0..*</text></g><!--link ReplyBookingRequestView to ReplyBookingRequestController--><g id="link_ReplyBookingRequestView_ReplyBookingRequestController"><path codeLine="46" d="M817,52.21 C817,68.7 817,86.02 817,106.93 " fill="none" id="ReplyBookingRequestView-to-ReplyBookingRequestController" style="stroke:#181818;stroke-width:1.0;stroke-dasharray:7.0,7.0;"/><polygon fill="#181818" points="817,112.93,821,103.93,817,107.93,813,103.93,817,112.93" style="stroke:#181818;stroke-width:1.0;"/></g><!--link ReplyBookingRequestController to Agent--><g id="link_ReplyBookingRequestController_Agent"><path codeLine="47" d="M669.99,213 C602.65,235.45 529.532,259.8224 465.822,281.0624 " fill="none" id="ReplyBookingRequestController-to-Agent" style="stroke:#181818;stroke-width:1.0;stroke-dasharray:7.0,7.0;"/><polygon fill="#181818" points="460.13,282.96,469.9331,283.9082,464.8733,281.3786,467.4029,276.3189,460.13,282.96" style="stroke:#181818;stroke-width:1.0;"/></g><!--link ReplyBookingRequestController to BookingRequestService--><g id="link_ReplyBookingRequestController_BookingRequestService"><path codeLine="48" d="M817,213 C817,232.35 817,248.53 817,267.89 " fill="none" id="ReplyBookingRequestController-to-BookingRequestService" style="stroke:#181818;stroke-width:1.0;stroke-dasharray:7.0,7.0;"/><polygon fill="#181818" points="817,273.89,821,264.89,817,268.89,813,264.89,817,273.89" style="stroke:#181818;stroke-width:1.0;"/></g><!--link BookingRequestService to BookingRequestRepository--><g id="link_BookingRequestService_BookingRequestRepository"><path codeLine="49" d="M771.31,374.21 C743.3,404.37 711.682,438.4126 683.852,468.3926 " fill="none" id="BookingRequestService-to-BookingRequestRepository" style="stroke:#181818;stroke-width:1.0;stroke-dasharray:7.0,7.0;"/><polygon fill="#181818" points="679.77,472.79,688.8246,468.9153,683.1717,469.1255,682.9615,463.4726,679.77,472.79" style="stroke:#181818;stroke-width:1.0;"/></g><!--link BookingRequestService to VisitRequest--><g id="link_BookingRequestService_VisitRequest"><path codeLine="50" d="M897.09,374.21 C935.84,398.02 977.8883,423.8483 1020.0283,449.7483 " fill="none" id="BookingRequestService-to-VisitRequest" style="stroke:#181818;stroke-width:1.0;stroke-dasharray:7.0,7.0;"/><polygon fill="#181818" points="1025.14,452.89,1019.5669,444.7696,1020.8803,450.2719,1015.378,451.5852,1025.14,452.89" style="stroke:#181818;stroke-width:1.0;"/></g><!--link ReplyBookingRequestController to VisitRequest--><g id="link_ReplyBookingRequestController_VisitRequest"><path codeLine="51" d="M971.95,213.12 C1002.67,228.63 1032.38,248.59 1055,274 C1099.41,323.89 1118.5476,392.7326 1127.6376,446.9326 " fill="none" id="ReplyBookingRequestController-to-VisitRequest" style="stroke:#181818;stroke-width:1.0;stroke-dasharray:7.0,7.0;"/><polygon fill="#181818" points="1128.63,452.85,1131.0863,443.3124,1127.803,447.9189,1123.1965,444.6356,1128.63,452.85" style="stroke:#181818;stroke-width:1.0;"/></g><!--link Agent to BookingRequestService--><g id="link_Agent_BookingRequestService"><path codeLine="53" d="M521.69,324 C546.31,324 565.78,324 590.98,324 " fill="none" id="Agent-to-BookingRequestService" style="stroke:#181818;stroke-width:1.0;"/><polygon fill="#181818" points="596.98,324,587.98,320,591.98,324,587.98,328,596.98,324" style="stroke:#181818;stroke-width:1.0;"/><text fill="#000000" font-family="sans-serif" font-size="13" lengthAdjust="spacing" textLength="39.0317" x="539.75" y="317.0283">adopts</text></g><!--link RepositoryFactory to BookingRequestRepository--><g id="link_RepositoryFactory_BookingRequestRepository"><path codeLine="54" d="M403.2,522 C414.67,522 420.14,522 431.61,522 " fill="none" id="RepositoryFactory-to-BookingRequestRepository" style="stroke:#181818;stroke-width:1.0;stroke-dasharray:7.0,7.0;"/><polygon fill="#181818" points="437.61,522,428.61,518,432.61,522,428.61,526,437.61,522" style="stroke:#181818;stroke-width:1.0;"/></g><!--SRC=[fLJ1Rfmm4BtxAwozb6qAcrvNAwGqKQH8KG-RDdV7dh9MZKqyPbTfrN-lCGOM0TjAuGAUUVDuRyRsXuDp5MutcqenxUfIPToK6wuOOYeaAomh2Jb80PHBonKG_2brnNoO1j2DSrQ-r0uUkD5FyXVGQq92XkwXKczVZF45nHvUQq3tBE54VvC_5o2tHZjhb0BhWTG_L_nW349CtrjJFafqoNfBdoLA5-Cjr3PytqoC9US0Qjlt9ufUiIvem7gMFM2jOZso8mHDoP3enTuKe5qKbLBDIcYB2d1Z2_W4zYWvD2JZJ4mCdBDf_u-h-KmoZdgfnZiqzgrpXqrexSkLxz5tpJIUm8BeX2NHEskiF0Ylh-dbxhnFkIz-HnkzCwaTs1_C-rXKkzlre3mFTj-bTnZRdDG5SOESUyONL4r6EnHDXplaXlcEz7HRHuhumPNqlhvsEocbnmP-nrotHiTSZM5npjIrHOf-30DL7-h9-aXBjsxajPjvzNb5Ks5EEit3zwGdMqfh12IBammCLXO7rr1SPzd7rKYg9x30ZHL8oDA5a6NvvPk0NBudclhWvpzmy-Tn_XXEyMSZNYuPNKl_LZI2nxca2qAtb0bJEIJJpPk58LnI_1S0]--></g></svg>