<svg xmlns="http://www.w3.org/2000/svg" xmlns:xlink="http://www.w3.org/1999/xlink" contentStyleType="text/css" height="869px" preserveAspectRatio="none" style="width:1620px;height:869px;background:#FFFFFF;" version="1.1" viewBox="0 0 1620 869" width="1620px" zoomAndPan="magnify"><defs/><g><rect fill="#FFFFFF" height="684.1113" style="stroke:#181818;stroke-width:1.0;" width="10" x="21.293" y="93.6211"/><rect fill="#FFFFFF" height="312.9102" style="stroke:#181818;stroke-width:1.0;" width="10" x="297.0908" y="116.9121"/><rect fill="#FFFFFF" height="307.6191" style="stroke:#181818;stroke-width:1.0;" width="10" x="297.0908" y="461.1133"/><rect fill="#FFFFFF" height="250.3281" style="stroke:#181818;stroke-width:1.0;" width="10" x="577.2178" y="148.2031"/><rect fill="#FFFFFF" height="245.0371" style="stroke:#181818;stroke-width:1.0;" width="10" x="577.2178" y="492.4043"/><rect fill="#FFFFFF" height="93.873" style="stroke:#181818;stroke-width:1.0;" width="10" x="789.4248" y="179.4941"/><rect fill="#FFFFFF" height="31.291" style="stroke:#181818;stroke-width:1.0;" width="10" x="932.4897" y="335.9492"/><rect fill="#FFFFFF" height="182.4551" style="stroke:#181818;stroke-width:1.0;" width="10" x="932.4897" y="523.6953"/><rect fill="#FFFFFF" height="42.291" style="stroke:#181818;stroke-width:1.0;" width="10" x="937.4897" y="562.9863"/><rect fill="#FFFFFF" height="31.291" style="stroke:#181818;stroke-width:1.0;" width="10" x="1170.6567" y="210.7852"/><rect fill="#FFFFFF" height="31.291" style="stroke:#181818;stroke-width:1.0;" width="10" x="1375.187" y="643.5684"/><line style="stroke:#181818;stroke-width:0.5;stroke-dasharray:5.0,5.0;" x1="26" x2="26" y1="83.6211" y2="786.7324"/><line style="stroke:#181818;stroke-width:0.5;stroke-dasharray:5.0,5.0;" x1="301.7085" x2="301.7085" y1="83.6211" y2="786.7324"/><line style="stroke:#181818;stroke-width:0.5;stroke-dasharray:5.0,5.0;" x1="581.6631" x2="581.6631" y1="83.6211" y2="786.7324"/><line style="stroke:#181818;stroke-width:0.5;stroke-dasharray:5.0,5.0;" x1="794.187" x2="794.187" y1="83.6211" y2="786.7324"/><line style="stroke:#181818;stroke-width:0.5;stroke-dasharray:5.0,5.0;" x1="936.6626" x2="936.6626" y1="83.6211" y2="786.7324"/><line style="stroke:#181818;stroke-width:0.5;stroke-dasharray:5.0,5.0;" x1="1174.9087" x2="1174.9087" y1="83.6211" y2="786.7324"/><line style="stroke:#181818;stroke-width:0.5;stroke-dasharray:5.0,5.0;" x1="1379.4048" x2="1379.4048" y1="83.6211" y2="786.7324"/><line style="stroke:#181818;stroke-width:0.5;stroke-dasharray:5.0,5.0;" x1="1555.9692" x2="1555.9692" y1="83.6211" y2="786.7324"/><text fill="#000000" font-family="sans-serif" font-size="14" lengthAdjust="spacing" textLength="36.5859" x="5" y="80.1074">Agent</text><ellipse cx="26.293" cy="13.5" fill="#E2E2F0" rx="8" ry="8" style="stroke:#181818;stroke-width:0.5;"/><path d="M26.293,21.5 L26.293,48.5 M13.293,29.5 L39.293,29.5 M26.293,48.5 L13.293,63.5 M26.293,48.5 L39.293,63.5 " fill="none" style="stroke:#181818;stroke-width:0.5;"/><text fill="#000000" font-family="sans-serif" font-size="14" lengthAdjust="spacing" textLength="36.5859" x="5" y="800.8398">Agent</text><ellipse cx="26.293" cy="812.8535" fill="#E2E2F0" rx="8" ry="8" style="stroke:#181818;stroke-width:0.5;"/><path d="M26.293,820.8535 L26.293,847.8535 M13.293,828.8535 L39.293,828.8535 M26.293,847.8535 L13.293,862.8535 M26.293,847.8535 L39.293,862.8535 " fill="none" style="stroke:#181818;stroke-width:0.5;"/><rect fill="#E2E2F0" height="32.6211" rx="2.5" ry="2.5" style="stroke:#181818;stroke-width:0.5;" width="186.7646" x="208.7085" y="50"/><text fill="#000000" font-family="sans-serif" font-size="14" lengthAdjust="spacing" textLength="172.7646" x="215.7085" y="72.1074">:ReplyBookingRequestView</text><rect fill="#E2E2F0" height="32.6211" rx="2.5" ry="2.5" style="stroke:#181818;stroke-width:0.5;" width="186.7646" x="208.7085" y="785.7324"/><text fill="#000000" font-family="sans-serif" font-size="14" lengthAdjust="spacing" textLength="172.7646" x="215.7085" y="807.8398">:ReplyBookingRequestView</text><rect fill="#E2E2F0" height="32.6211" rx="2.5" ry="2.5" style="stroke:#181818;stroke-width:0.5;" width="217.1094" x="473.6631" y="50"/><text fill="#000000" font-family="sans-serif" font-size="14" lengthAdjust="spacing" textLength="203.1094" x="480.6631" y="72.1074">:ReplyBookingRequestController</text><rect fill="#E2E2F0" height="32.6211" rx="2.5" ry="2.5" style="stroke:#181818;stroke-width:0.5;" width="217.1094" x="473.6631" y="785.7324"/><text fill="#000000" font-family="sans-serif" font-size="14" lengthAdjust="spacing" textLength="203.1094" x="480.6631" y="807.8398">:ReplyBookingRequestController</text><rect fill="#E2E2F0" height="32.6211" rx="2.5" ry="2.5" style="stroke:#181818;stroke-width:0.5;" width="54.4756" x="767.187" y="50"/><text fill="#000000" font-family="sans-serif" font-size="14" lengthAdjust="spacing" textLength="40.4756" x="774.187" y="72.1074">:Agent</text><rect fill="#E2E2F0" height="32.6211" rx="2.5" ry="2.5" style="stroke:#181818;stroke-width:0.5;" width="54.4756" x="767.187" y="785.7324"/><text fill="#000000" font-family="sans-serif" font-size="14" lengthAdjust="spacing" textLength="40.4756" x="774.187" y="807.8398">:Agent</text><rect fill="#E2E2F0" height="32.6211" rx="2.5" ry="2.5" style="stroke:#181818;stroke-width:0.5;" width="211.6543" x="831.6626" y="50"/><text fill="#000000" font-family="sans-serif" font-size="14" lengthAdjust="spacing" textLength="197.6543" x="838.6626" y="72.1074">service:BookingRequestService</text><rect fill="#E2E2F0" height="32.6211" rx="2.5" ry="2.5" style="stroke:#181818;stroke-width:0.5;" width="211.6543" x="831.6626" y="785.7324"/><text fill="#000000" font-family="sans-serif" font-size="14" lengthAdjust="spacing" textLength="197.6543" x="838.6626" y="807.8398">service:BookingRequestService</text><rect fill="#E2E2F0" height="32.6211" rx="2.5" ry="2.5" style="stroke:#181818;stroke-width:0.5;" width="173.4961" x="1088.9087" y="50"/><text fill="#000000" font-family="sans-serif" font-size="14" lengthAdjust="spacing" textLength="159.4961" x="1095.9087" y="72.1074">factory:RepositoryFactory</text><rect fill="#E2E2F0" height="32.6211" rx="2.5" ry="2.5" style="stroke:#181818;stroke-width:0.5;" width="173.4961" x="1088.9087" y="785.7324"/><text fill="#000000" font-family="sans-serif" font-size="14" lengthAdjust="spacing" textLength="159.4961" x="1095.9087" y="807.8398">factory:RepositoryFactory</text><rect fill="#E2E2F0" height="32.6211" rx="2.5" ry="2.5" style="stroke:#181818;stroke-width:0.5;" width="215.5645" x="1272.4048" y="50"/><text fill="#000000" font-family="sans-serif" font-size="14" lengthAdjust="spacing" textLength="201.5645" x="1279.4048" y="72.1074">repo:BookingRequestRepository</text><rect fill="#E2E2F0" height="32.6211" rx="2.5" ry="2.5" style="stroke:#181818;stroke-width:0.5;" width="215.5645" x="1272.4048" y="785.7324"/><text fill="#000000" font-family="sans-serif" font-size="14" lengthAdjust="spacing" textLength="201.5645" x="1279.4048" y="807.8398">repo:BookingRequestRepository</text><rect fill="#E2E2F0" height="32.6211" rx="2.5" ry="2.5" style="stroke:#181818;stroke-width:0.5;" width="116.7168" x="1497.9692" y="50"/><text fill="#000000" font-family="sans-serif" font-size="14" lengthAdjust="spacing" textLength="102.7168" x="1504.9692" y="72.1074">req:VisitRequest</text><rect fill="#E2E2F0" height="32.6211" rx="2.5" ry="2.5" style="stroke:#181818;stroke-width:0.5;" width="116.7168" x="1497.9692" y="785.7324"/><text fill="#000000" font-family="sans-serif" font-size="14" lengthAdjust="spacing" textLength="102.7168" x="1504.9692" y="807.8398">req:VisitRequest</text><rect fill="#FFFFFF" height="684.1113" style="stroke:#181818;stroke-width:1.0;" width="10" x="21.293" y="93.6211"/><rect fill="#FFFFFF" height="312.9102" style="stroke:#181818;stroke-width:1.0;" width="10" x="297.0908" y="116.9121"/><rect fill="#FFFFFF" height="307.6191" style="stroke:#181818;stroke-width:1.0;" width="10" x="297.0908" y="461.1133"/><rect fill="#FFFFFF" height="250.3281" style="stroke:#181818;stroke-width:1.0;" width="10" x="577.2178" y="148.2031"/><rect fill="#FFFFFF" height="245.0371" style="stroke:#181818;stroke-width:1.0;" width="10" x="577.2178" y="492.4043"/><rect fill="#FFFFFF" height="93.873" style="stroke:#181818;stroke-width:1.0;" width="10" x="789.4248" y="179.4941"/><rect fill="#FFFFFF" height="31.291" style="stroke:#181818;stroke-width:1.0;" width="10" x="932.4897" y="335.9492"/><rect fill="#FFFFFF" height="182.4551" style="stroke:#181818;stroke-width:1.0;" width="10" x="932.4897" y="523.6953"/><rect fill="#FFFFFF" height="42.291" style="stroke:#181818;stroke-width:1.0;" width="10" x="937.4897" y="562.9863"/><rect fill="#FFFFFF" height="31.291" style="stroke:#181818;stroke-width:1.0;" width="10" x="1170.6567" y="210.7852"/><rect fill="#FFFFFF" height="31.291" style="stroke:#181818;stroke-width:1.0;" width="10" x="1375.187" y="643.5684"/><polygon fill="#181818" points="285.0908,112.9121,295.0908,116.9121,285.0908,120.9121,289.0908,116.9121" style="stroke:#181818;stroke-width:1.0;"/><line style="stroke:#181818;stroke-width:1.0;" x1="31.293" x2="291.0908" y1="116.9121" y2="116.9121"/><text fill="#000000" font-family="sans-serif" font-size="13" font-weight="bold" lengthAdjust="spacing" textLength="7.23" x="38.293" y="111.6494">1</text><text fill="#000000" font-family="sans-serif" font-size="13" lengthAdjust="spacing" textLength="235.5679" x="49.5229" y="111.6494">views unanswered visit booking requests</text><polygon fill="#181818" points="565.2178,144.2031,575.2178,148.2031,565.2178,152.2031,569.2178,148.2031" style="stroke:#181818;stroke-width:1.0;"/><line style="stroke:#181818;stroke-width:1.0;" x1="307.0908" x2="571.2178" y1="148.2031" y2="148.2031"/><text fill="#000000" font-family="sans-serif" font-size="13" font-weight="bold" lengthAdjust="spacing" textLength="7.23" x="314.0908" y="142.9404">2</text><text fill="#000000" font-family="sans-serif" font-size="13" lengthAdjust="spacing" textLength="149.5571" x="325.3208" y="142.9404">chooseRequestFromList()</text><polygon fill="#181818" points="777.4248,175.4941,787.4248,179.4941,777.4248,183.4941,781.4248,179.4941" style="stroke:#181818;stroke-width:1.0;"/><line style="stroke:#181818;stroke-width:1.0;" x1="587.2178" x2="783.4248" y1="179.4941" y2="179.4941"/><text fill="#000000" font-family="sans-serif" font-size="13" font-weight="bold" lengthAdjust="spacing" textLength="7.23" x="594.2178" y="174.2314">3</text><text fill="#000000" font-family="sans-serif" font-size="13" lengthAdjust="spacing" textLength="171.9771" x="605.4478" y="174.2314">getBookingRequestsService()</text><polygon fill="#181818" points="1158.6567,206.7852,1168.6567,210.7852,1158.6567,214.7852,1162.6567,210.7852" style="stroke:#181818;stroke-width:1.0;"/><line style="stroke:#181818;stroke-width:1.0;" x1="799.4248" x2="1164.6567" y1="210.7852" y2="210.7852"/><text fill="#000000" font-family="sans-serif" font-size="13" font-weight="bold" lengthAdjust="spacing" textLength="7.23" x="806.4248" y="205.5225">4</text><text fill="#000000" font-family="sans-serif" font-size="13" lengthAdjust="spacing" textLength="184.2661" x="817.6548" y="205.5225">getBookingRequestRepository()</text><polygon fill="#181818" points="810.4248,238.0762,800.4248,242.0762,810.4248,246.0762,806.4248,242.0762" style="stroke:#181818;stroke-width:1.0;"/><line style="stroke:#181818;stroke-width:1.0;stroke-dasharray:2.0,2.0;" x1="804.4248" x2="1174.6567" y1="242.0762" y2="242.0762"/><text fill="#000000" font-family="sans-serif" font-size="13" font-weight="bold" lengthAdjust="spacing" textLength="7.23" x="816.4248" y="236.8135">5</text><text fill="#000000" font-family="sans-serif" font-size="13" lengthAdjust="spacing" textLength="26.019" x="827.6548" y="236.8135">repo</text><polygon fill="#181818" points="925.4897,269.3672,935.4897,273.3672,925.4897,277.3672,929.4897,273.3672" style="stroke:#181818;stroke-width:1.0;"/><line style="stroke:#181818;stroke-width:1.0;stroke-dasharray:2.0,2.0;" x1="794.4248" x2="931.4897" y1="273.3672" y2="273.3672"/><text fill="#000000" font-family="sans-serif" font-size="13" font-weight="bold" lengthAdjust="spacing" textLength="7.23" x="801.4248" y="268.1045">6</text><text fill="#000000" font-family="sans-serif" font-size="13" lengthAdjust="spacing" textLength="70.8081" x="812.6548" y="268.1045">create(repo)</text><polygon fill="#181818" points="598.2178,300.6582,588.2178,304.6582,598.2178,308.6582,594.2178,304.6582" style="stroke:#181818;stroke-width:1.0;"/><line style="stroke:#181818;stroke-width:1.0;stroke-dasharray:2.0,2.0;" x1="592.2178" x2="793.4248" y1="304.6582" y2="304.6582"/><text fill="#000000" font-family="sans-serif" font-size="13" font-weight="bold" lengthAdjust="spacing" textLength="7.23" x="604.2178" y="299.3955">7</text><text fill="#000000" font-family="sans-serif" font-size="13" lengthAdjust="spacing" textLength="41.1772" x="615.4478" y="299.3955">service</text><polygon fill="#181818" points="920.4897,331.9492,930.4897,335.9492,920.4897,339.9492,924.4897,335.9492" style="stroke:#181818;stroke-width:1.0;"/><line style="stroke:#181818;stroke-width:1.0;" x1="587.2178" x2="926.4897" y1="335.9492" y2="335.9492"/><text fill="#000000" font-family="sans-serif" font-size="13" font-weight="bold" lengthAdjust="spacing" textLength="7.23" x="594.2178" y="330.6865">8</text><text fill="#000000" font-family="sans-serif" font-size="13" lengthAdjust="spacing" textLength="195.8252" x="605.4478" y="330.6865">listUnansweredRequests(agentId)</text><polygon fill="#181818" points="598.2178,363.2402,588.2178,367.2402,598.2178,371.2402,594.2178,367.2402" style="stroke:#181818;stroke-width:1.0;"/><line style="stroke:#181818;stroke-width:1.0;stroke-dasharray:2.0,2.0;" x1="592.2178" x2="936.4897" y1="367.2402" y2="367.2402"/><text fill="#000000" font-family="sans-serif" font-size="13" font-weight="bold" lengthAdjust="spacing" textLength="7.23" x="604.2178" y="361.9775">9</text><text fill="#000000" font-family="sans-serif" font-size="13" lengthAdjust="spacing" textLength="83.8335" x="615.4478" y="361.9775">List&lt;Request&gt;</text><polygon fill="#181818" points="318.0908,394.5313,308.0908,398.5313,318.0908,402.5313,314.0908,398.5313" style="stroke:#181818;stroke-width:1.0;"/><line style="stroke:#181818;stroke-width:1.0;stroke-dasharray:2.0,2.0;" x1="312.0908" x2="581.2178" y1="398.5313" y2="398.5313"/><text fill="#000000" font-family="sans-serif" font-size="13" font-weight="bold" lengthAdjust="spacing" textLength="14.46" x="324.0908" y="393.2686">10</text><text fill="#000000" font-family="sans-serif" font-size="13" lengthAdjust="spacing" textLength="83.8335" x="342.5508" y="393.2686">List&lt;Request&gt;</text><polygon fill="#181818" points="42.293,425.8223,32.293,429.8223,42.293,433.8223,38.293,429.8223" style="stroke:#181818;stroke-width:1.0;"/><line style="stroke:#181818;stroke-width:1.0;stroke-dasharray:2.0,2.0;" x1="36.293" x2="301.0908" y1="429.8223" y2="429.8223"/><text fill="#000000" font-family="sans-serif" font-size="13" font-weight="bold" lengthAdjust="spacing" textLength="14.46" x="48.293" y="424.5596">11</text><text fill="#000000" font-family="sans-serif" font-size="13" lengthAdjust="spacing" textLength="174.8779" x="66.7529" y="424.5596">displays unanswered requests</text><polygon fill="#181818" points="285.0908,457.1133,295.0908,461.1133,285.0908,465.1133,289.0908,461.1133" style="stroke:#181818;stroke-width:1.0;"/><line style="stroke:#181818;stroke-width:1.0;" x1="31.293" x2="291.0908" y1="461.1133" y2="461.1133"/><text fill="#000000" font-family="sans-serif" font-size="13" font-weight="bold" lengthAdjust="spacing" textLength="14.46" x="38.293" y="455.8506">12</text><text fill="#000000" font-family="sans-serif" font-size="13" lengthAdjust="spacing" textLength="218.9561" x="56.7529" y="455.8506">selects a request and provides a reply</text><polygon fill="#181818" points="565.2178,488.4043,575.2178,492.4043,565.2178,496.4043,569.2178,492.4043" style="stroke:#181818;stroke-width:1.0;"/><line style="stroke:#181818;stroke-width:1.0;" x1="307.0908" x2="571.2178" y1="492.4043" y2="492.4043"/><text fill="#000000" font-family="sans-serif" font-size="13" font-weight="bold" lengthAdjust="spacing" textLength="14.46" x="314.0908" y="487.1416">13</text><text fill="#000000" font-family="sans-serif" font-size="13" lengthAdjust="spacing" textLength="232.667" x="332.5508" y="487.1416">replyToRequest(selectedRequest, reply)</text><polygon fill="#181818" points="920.4897,519.6953,930.4897,523.6953,920.4897,527.6953,924.4897,523.6953" style="stroke:#181818;stroke-width:1.0;"/><line style="stroke:#181818;stroke-width:1.0;" x1="587.2178" x2="926.4897" y1="523.6953" y2="523.6953"/><text fill="#000000" font-family="sans-serif" font-size="13" font-weight="bold" lengthAdjust="spacing" textLength="14.46" x="594.2178" y="518.4326">14</text><text fill="#000000" font-family="sans-serif" font-size="13" lengthAdjust="spacing" textLength="232.667" x="612.6777" y="518.4326">replyToRequest(selectedRequest, reply)</text><line style="stroke:#181818;stroke-width:1.0;" x1="942.4897" x2="989.4897" y1="549.9863" y2="549.9863"/><line style="stroke:#181818;stroke-width:1.0;" x1="989.4897" x2="989.4897" y1="549.9863" y2="562.9863"/><line style="stroke:#181818;stroke-width:1.0;" x1="948.4897" x2="989.4897" y1="562.9863" y2="562.9863"/><polygon fill="#181818" points="958.4897,558.9863,948.4897,562.9863,958.4897,566.9863,954.4897,562.9863" style="stroke:#181818;stroke-width:1.0;"/><text fill="#000000" font-family="sans-serif" font-size="13" font-weight="bold" lengthAdjust="spacing" textLength="14.46" x="954.4897" y="544.7236">15</text><text fill="#000000" font-family="sans-serif" font-size="13" lengthAdjust="spacing" textLength="185.707" x="972.9497" y="544.7236">validate(selectedRequest, reply)</text><line style="stroke:#181818;stroke-width:1.0;stroke-dasharray:2.0,2.0;" x1="947.4897" x2="989.4897" y1="604.2773" y2="604.2773"/><line style="stroke:#181818;stroke-width:1.0;stroke-dasharray:2.0,2.0;" x1="989.4897" x2="989.4897" y1="604.2773" y2="617.2773"/><line style="stroke:#181818;stroke-width:1.0;stroke-dasharray:2.0,2.0;" x1="942.4897" x2="989.4897" y1="617.2773" y2="617.2773"/><polygon fill="#181818" points="952.4897,613.2773,942.4897,617.2773,952.4897,621.2773,948.4897,617.2773" style="stroke:#181818;stroke-width:1.0;"/><text fill="#000000" font-family="sans-serif" font-size="13" font-weight="bold" lengthAdjust="spacing" textLength="14.46" x="954.4897" y="599.0146">16</text><text fill="#000000" font-family="sans-serif" font-size="13" lengthAdjust="spacing" textLength="13.73" x="972.9497" y="599.0146">ok</text><polygon fill="#181818" points="1363.187,639.5684,1373.187,643.5684,1363.187,647.5684,1367.187,643.5684" style="stroke:#181818;stroke-width:1.0;"/><line style="stroke:#181818;stroke-width:1.0;" x1="942.4897" x2="1369.187" y1="643.5684" y2="643.5684"/><text fill="#000000" font-family="sans-serif" font-size="13" font-weight="bold" lengthAdjust="spacing" textLength="14.46" x="949.4897" y="638.3057">17</text><text fill="#000000" font-family="sans-serif" font-size="13" lengthAdjust="spacing" textLength="166.1943" x="967.9497" y="638.3057">saveReply(selectedRequest)</text><polygon fill="#181818" points="953.4897,670.8594,943.4897,674.8594,953.4897,678.8594,949.4897,674.8594" style="stroke:#181818;stroke-width:1.0;"/><line style="stroke:#181818;stroke-width:1.0;stroke-dasharray:2.0,2.0;" x1="947.4897" x2="1379.187" y1="674.8594" y2="674.8594"/><text fill="#000000" font-family="sans-serif" font-size="13" font-weight="bold" lengthAdjust="spacing" textLength="14.46" x="959.4897" y="669.5967">18</text><text fill="#000000" font-family="sans-serif" font-size="13" lengthAdjust="spacing" textLength="13.73" x="977.9497" y="669.5967">ok</text><polygon fill="#181818" points="598.2178,702.1504,588.2178,706.1504,598.2178,710.1504,594.2178,706.1504" style="stroke:#181818;stroke-width:1.0;"/><line style="stroke:#181818;stroke-width:1.0;stroke-dasharray:2.0,2.0;" x1="592.2178" x2="936.4897" y1="706.1504" y2="706.1504"/><text fill="#000000" font-family="sans-serif" font-size="13" font-weight="bold" lengthAdjust="spacing" textLength="14.46" x="604.2178" y="700.8877">19</text><text fill="#000000" font-family="sans-serif" font-size="13" lengthAdjust="spacing" textLength="13.73" x="622.6777" y="700.8877">ok</text><polygon fill="#181818" points="318.0908,733.4414,308.0908,737.4414,318.0908,741.4414,314.0908,737.4414" style="stroke:#181818;stroke-width:1.0;"/><line style="stroke:#181818;stroke-width:1.0;stroke-dasharray:2.0,2.0;" x1="312.0908" x2="581.2178" y1="737.4414" y2="737.4414"/><text fill="#000000" font-family="sans-serif" font-size="13" font-weight="bold" lengthAdjust="spacing" textLength="14.46" x="324.0908" y="732.1787">20</text><text fill="#000000" font-family="sans-serif" font-size="13" lengthAdjust="spacing" textLength="13.73" x="342.5508" y="732.1787">ok</text><polygon fill="#181818" points="42.293,764.7324,32.293,768.7324,42.293,772.7324,38.293,768.7324" style="stroke:#181818;stroke-width:1.0;"/><line style="stroke:#181818;stroke-width:1.0;stroke-dasharray:2.0,2.0;" x1="36.293" x2="301.0908" y1="768.7324" y2="768.7324"/><text fill="#000000" font-family="sans-serif" font-size="13" font-weight="bold" lengthAdjust="spacing" textLength="14.46" x="48.293" y="763.4697">21</text><text fill="#000000" font-family="sans-serif" font-size="13" lengthAdjust="spacing" textLength="151.0107" x="66.7529" y="763.4697">informs operation success</text><!--SRC=[ZLF1Rjim3BthAuXS6WDBSpU60bk10WDsQjVULPbDXTgYAyekylSJ9SMndGtj9Q39zvxv7kEhrn1whlVxljKk35rxRQZRCxuFw0pk6giFNdTA3u6q2NRK0O5SUdP3zunUgTWd3viV1tHX0vhXaMExrpvOO_ke2flw7lls-9FepRh3lOXpUBBuaU0FHmxOVKwu9HSyjItwHBiDlbsHpYkaQZcDIutMOBqKVSZTl4YkbxINPEye2n5RAUzo9r5AlQJu25szvinED7bSSzxh9niXXL1WgKuHv-XJj4f-ONTJagjXZ54o34ux_a2FJMn49NZEAu3FCgmoNfWINWtcbOYnlENEK_VRSjXMIgQ2IYdMSC2mTCCbgGXD4C6M9Fw1FdkF-0A3tLbUuZhfYAbo9p0Ue-MjZAlPFAzUhZcjEh7QQE5nIkAqy5OB_rTJgGASIOdfxmLuKmHduIx7fmWZGAvGGsCvVZh7HVnJu1UNOcpH10Pzme1s3VIUHjjWRiV__SMXKlSFbIssMMLozotFgyimliYRCfbHHztQHlB_b3HdqTjSJ2uVFUiHq-UybggK0FulCDcFpOkp271z2-jUo7SCrAFNmP837en1PlKN]--></g></svg>