<svg xmlns="http://www.w3.org/2000/svg" xmlns:xlink="http://www.w3.org/1999/xlink" contentStyleType="text/css" height="374px" preserveAspectRatio="none" style="width:401px;height:374px;background:#FFFFFF;" version="1.1" viewBox="0 0 401 374" width="401px" zoomAndPan="magnify"><defs/><g><rect fill="#FFFFFF" height="188.7461" style="stroke:#181818;stroke-width:1.0;" width="10" x="21.293" y="93.6211"/><rect fill="#FFFFFF" height="31.291" style="stroke:#181818;stroke-width:1.0;" width="10" x="297.0908" y="116.9121"/><rect fill="#FFFFFF" height="31.291" style="stroke:#181818;stroke-width:1.0;" width="10" x="297.0908" y="179.4941"/><rect fill="#FFFFFF" height="31.291" style="stroke:#181818;stroke-width:1.0;" width="10" x="297.0908" y="242.0762"/><line style="stroke:#181818;stroke-width:0.5;stroke-dasharray:5.0,5.0;" x1="26" x2="26" y1="83.6211" y2="291.3672"/><line style="stroke:#181818;stroke-width:0.5;stroke-dasharray:5.0,5.0;" x1="301.7085" x2="301.7085" y1="83.6211" y2="291.3672"/><text fill="#000000" font-family="sans-serif" font-size="14" lengthAdjust="spacing" textLength="36.5859" x="5" y="80.1074">Agent</text><ellipse cx="26.293" cy="13.5" fill="#E2E2F0" rx="8" ry="8" style="stroke:#181818;stroke-width:0.5;"/><path d="M26.293,21.5 L26.293,48.5 M13.293,29.5 L39.293,29.5 M26.293,48.5 L13.293,63.5 M26.293,48.5 L39.293,63.5 " fill="none" style="stroke:#181818;stroke-width:0.5;"/><text fill="#000000" font-family="sans-serif" font-size="14" lengthAdjust="spacing" textLength="36.5859" x="5" y="305.4746">Agent</text><ellipse cx="26.293" cy="317.4883" fill="#E2E2F0" rx="8" ry="8" style="stroke:#181818;stroke-width:0.5;"/><path d="M26.293,325.4883 L26.293,352.4883 M13.293,333.4883 L39.293,333.4883 M26.293,352.4883 L13.293,367.4883 M26.293,352.4883 L39.293,367.4883 " fill="none" style="stroke:#181818;stroke-width:0.5;"/><rect fill="#E2E2F0" height="32.6211" rx="2.5" ry="2.5" style="stroke:#181818;stroke-width:0.5;" width="186.7646" x="208.7085" y="50"/><text fill="#000000" font-family="sans-serif" font-size="14" lengthAdjust="spacing" textLength="172.7646" x="215.7085" y="72.1074">:ReplyBookingRequestView</text><rect fill="#E2E2F0" height="32.6211" rx="2.5" ry="2.5" style="stroke:#181818;stroke-width:0.5;" width="186.7646" x="208.7085" y="290.3672"/><text fill="#000000" font-family="sans-serif" font-size="14" lengthAdjust="spacing" textLength="172.7646" x="215.7085" y="312.4746">:ReplyBookingRequestView</text><rect fill="#FFFFFF" height="188.7461" style="stroke:#181818;stroke-width:1.0;" width="10" x="21.293" y="93.6211"/><rect fill="#FFFFFF" height="31.291" style="stroke:#181818;stroke-width:1.0;" width="10" x="297.0908" y="116.9121"/><rect fill="#FFFFFF" height="31.291" style="stroke:#181818;stroke-width:1.0;" width="10" x="297.0908" y="179.4941"/><rect fill="#FFFFFF" height="31.291" style="stroke:#181818;stroke-width:1.0;" width="10" x="297.0908" y="242.0762"/><polygon fill="#181818" points="285.0908,112.9121,295.0908,116.9121,285.0908,120.9121,289.0908,116.9121" style="stroke:#181818;stroke-width:1.0;"/><line style="stroke:#181818;stroke-width:1.0;" x1="31.293" x2="291.0908" y1="116.9121" y2="116.9121"/><text fill="#000000" font-family="sans-serif" font-size="13" font-weight="bold" lengthAdjust="spacing" textLength="7.23" x="38.293" y="111.6494">1</text><text fill="#000000" font-family="sans-serif" font-size="13" lengthAdjust="spacing" textLength="235.5679" x="49.5229" y="111.6494">views unanswered visit booking requests</text><polygon fill="#181818" points="42.293,144.2031,32.293,148.2031,42.293,152.2031,38.293,148.2031" style="stroke:#181818;stroke-width:1.0;"/><line style="stroke:#181818;stroke-width:1.0;stroke-dasharray:2.0,2.0;" x1="36.293" x2="301.0908" y1="148.2031" y2="148.2031"/><text fill="#000000" font-family="sans-serif" font-size="13" font-weight="bold" lengthAdjust="spacing" textLength="7.23" x="48.293" y="142.9404">2</text><text fill="#000000" font-family="sans-serif" font-size="13" lengthAdjust="spacing" textLength="174.8779" x="59.5229" y="142.9404">displays unanswered requests</text><polygon fill="#181818" points="285.0908,175.4941,295.0908,179.4941,285.0908,183.4941,289.0908,179.4941" style="stroke:#181818;stroke-width:1.0;"/><line style="stroke:#181818;stroke-width:1.0;" x1="31.293" x2="291.0908" y1="179.4941" y2="179.4941"/><text fill="#000000" font-family="sans-serif" font-size="13" font-weight="bold" lengthAdjust="spacing" textLength="7.23" x="38.293" y="174.2314">3</text><text fill="#000000" font-family="sans-serif" font-size="13" lengthAdjust="spacing" textLength="218.9561" x="49.5229" y="174.2314">selects a request and provides a reply</text><polygon fill="#181818" points="42.293,206.7852,32.293,210.7852,42.293,214.7852,38.293,210.7852" style="stroke:#181818;stroke-width:1.0;"/><line style="stroke:#181818;stroke-width:1.0;stroke-dasharray:2.0,2.0;" x1="36.293" x2="301.0908" y1="210.7852" y2="210.7852"/><text fill="#000000" font-family="sans-serif" font-size="13" font-weight="bold" lengthAdjust="spacing" textLength="7.23" x="48.293" y="205.5225">4</text><text fill="#000000" font-family="sans-serif" font-size="13" lengthAdjust="spacing" textLength="192.207" x="59.5229" y="205.5225">requests confirmation of the reply</text><polygon fill="#181818" points="285.0908,238.0762,295.0908,242.0762,285.0908,246.0762,289.0908,242.0762" style="stroke:#181818;stroke-width:1.0;"/><line style="stroke:#181818;stroke-width:1.0;" x1="31.293" x2="291.0908" y1="242.0762" y2="242.0762"/><text fill="#000000" font-family="sans-serif" font-size="13" font-weight="bold" lengthAdjust="spacing" textLength="7.23" x="38.293" y="236.8135">5</text><text fill="#000000" font-family="sans-serif" font-size="13" lengthAdjust="spacing" textLength="102.5908" x="49.5229" y="236.8135">confirms the reply</text><polygon fill="#181818" points="42.293,269.3672,32.293,273.3672,42.293,277.3672,38.293,273.3672" style="stroke:#181818;stroke-width:1.0;"/><line style="stroke:#181818;stroke-width:1.0;stroke-dasharray:2.0,2.0;" x1="36.293" x2="301.0908" y1="273.3672" y2="273.3672"/><text fill="#000000" font-family="sans-serif" font-size="13" font-weight="bold" lengthAdjust="spacing" textLength="7.23" x="48.293" y="268.1045">6</text><text fill="#000000" font-family="sans-serif" font-size="13" lengthAdjust="spacing" textLength="151.0107" x="59.5229" y="268.1045">informs operation success</text><!--SRC=[ROz1RiGW34NtdCBAfgjqzbbKQeymbRht42U36Z359gFSlWnagbRf2Z3lloy_NLMZ3ATJN31ezikpPNyI-ieKBFMZmpcXDmQpCbfrAoe1X_eEsLyebJ-hdA1xdIbe1oXGRoPYKcTTB5xeXZF5PNjZ_dHXFj_reX-ERfL_tqJ9Lr4hQ09J3-XVTc20jIG4Si0WDqeqbe4uXKlJGcfUCOs7laIhOu3HITbm-nF-mOz5GWjP5S0711X6Y8bNDr8RbtN-wNaumNAONFAeZWFm17gbFNHisrdv1HtDBanyPpXIQbR9rfA8-GO0]--></g></svg>