<svg xmlns="http://www.w3.org/2000/svg" xmlns:xlink="http://www.w3.org/1999/xlink" contentStyleType="text/css" height="696px" preserveAspectRatio="none" style="width:1254px;height:696px;background:#FFFFFF;" version="1.1" viewBox="0 0 1254 696" width="1254px" zoomAndPan="magnify"><defs/><g><rect fill="#FFFFFF" height="601.2383" style="stroke:#181818;stroke-width:1.0;" width="10" x="45.1172" y="48.6211"/><rect fill="#FFFFFF" height="577.9473" style="stroke:#181818;stroke-width:1.0;" width="10" x="177.1025" y="71.9121"/><rect fill="#FFFFFF" height="36.291" style="stroke:#181818;stroke-width:1.0;" width="10" x="182.1025" y="604.5684"/><rect fill="#FFFFFF" height="393.4922" style="stroke:#181818;stroke-width:1.0;" width="10" x="380.5542" y="140.4941"/><rect fill="#FFFFFF" height="31.291" style="stroke:#181818;stroke-width:1.0;" width="10" x="520.0986" y="209.0762"/><rect fill="#FFFFFF" height="193.7461" style="stroke:#181818;stroke-width:1.0;" width="10" x="674.812" y="271.6582"/><rect fill="#FFFFFF" height="31.291" style="stroke:#181818;stroke-width:1.0;" width="10" x="853.04" y="302.9492"/><rect fill="#FFFFFF" height="31.291" style="stroke:#181818;stroke-width:1.0;" width="10" x="1032.6567" y="402.8223"/><line style="stroke:#181818;stroke-width:0.5;stroke-dasharray:5.0,5.0;" x1="50" x2="50" y1="38.6211" y2="658.8594"/><line style="stroke:#181818;stroke-width:0.5;stroke-dasharray:5.0,5.0;" x1="181.6133" x2="181.6133" y1="38.6211" y2="658.8594"/><line style="stroke:#181818;stroke-width:0.5;stroke-dasharray:5.0,5.0;" x1="384.8096" x2="384.8096" y1="38.6211" y2="658.8594"/><line style="stroke:#181818;stroke-width:0.5;stroke-dasharray:5.0,5.0;" x1="524.2988" x2="524.2988" y1="38.6211" y2="658.8594"/><line style="stroke:#181818;stroke-width:0.5;stroke-dasharray:5.0,5.0;" x1="678.8984" x2="678.8984" y1="38.6211" y2="658.8594"/><line style="stroke:#181818;stroke-width:0.5;stroke-dasharray:5.0,5.0;" x1="857.292" x2="857.292" y1="38.6211" y2="658.8594"/><line style="stroke:#181818;stroke-width:0.5;stroke-dasharray:5.0,5.0;" x1="1036.7881" x2="1036.7881" y1="38.6211" y2="658.8594"/><line style="stroke:#181818;stroke-width:0.5;stroke-dasharray:5.0,5.0;" x1="1188.5254" x2="1188.5254" y1="38.6211" y2="658.8594"/><rect fill="#E2E2F0" height="32.6211" rx="2.5" ry="2.5" style="stroke:#181818;stroke-width:0.5;" width="90.2344" x="5" y="5"/><text fill="#000000" font-family="sans-serif" font-size="14" lengthAdjust="spacing" textLength="76.2344" x="12" y="27.1074">:HTTPClient</text><rect fill="#E2E2F0" height="32.6211" rx="2.5" ry="2.5" style="stroke:#181818;stroke-width:0.5;" width="90.2344" x="5" y="657.8594"/><text fill="#000000" font-family="sans-serif" font-size="14" lengthAdjust="spacing" textLength="76.2344" x="12" y="679.9668">:HTTPClient</text><rect fill="#E2E2F0" height="32.6211" rx="2.5" ry="2.5" style="stroke:#181818;stroke-width:0.5;" width="150.9785" x="106.6133" y="5"/><text fill="#000000" font-family="sans-serif" font-size="14" lengthAdjust="spacing" textLength="136.9785" x="113.6133" y="27.1074">handler:RouteHandler</text><rect fill="#E2E2F0" height="32.6211" rx="2.5" ry="2.5" style="stroke:#181818;stroke-width:0.5;" width="150.9785" x="106.6133" y="657.8594"/><text fill="#000000" font-family="sans-serif" font-size="14" lengthAdjust="spacing" textLength="136.9785" x="113.6133" y="679.9668">handler:RouteHandler</text><rect fill="#E2E2F0" height="32.6211" rx="2.5" ry="2.5" style="stroke:#181818;stroke-width:0.5;" width="131.4893" x="319.8096" y="5"/><text fill="#000000" font-family="sans-serif" font-size="14" lengthAdjust="spacing" textLength="117.4893" x="326.8096" y="27.1074">:PropertyController</text><rect fill="#E2E2F0" height="32.6211" rx="2.5" ry="2.5" style="stroke:#181818;stroke-width:0.5;" width="131.4893" x="319.8096" y="657.8594"/><text fill="#000000" font-family="sans-serif" font-size="14" lengthAdjust="spacing" textLength="117.4893" x="326.8096" y="679.9668">:PropertyController</text><rect fill="#E2E2F0" height="32.6211" rx="2.5" ry="2.5" style="stroke:#181818;stroke-width:0.5;" width="127.5996" x="461.2988" y="5"/><text fill="#000000" font-family="sans-serif" font-size="14" lengthAdjust="spacing" textLength="113.5996" x="468.2988" y="27.1074">:UnregisteredUser</text><rect fill="#E2E2F0" height="32.6211" rx="2.5" ry="2.5" style="stroke:#181818;stroke-width:0.5;" width="127.5996" x="461.2988" y="657.8594"/><text fill="#000000" font-family="sans-serif" font-size="14" lengthAdjust="spacing" textLength="113.5996" x="468.2988" y="679.9668">:UnregisteredUser</text><rect fill="#E2E2F0" height="32.6211" rx="2.5" ry="2.5" style="stroke:#181818;stroke-width:0.5;" width="161.8271" x="598.8984" y="5"/><text fill="#000000" font-family="sans-serif" font-size="14" lengthAdjust="spacing" textLength="147.8271" x="605.8984" y="27.1074">service:PropertyService</text><rect fill="#E2E2F0" height="32.6211" rx="2.5" ry="2.5" style="stroke:#181818;stroke-width:0.5;" width="161.8271" x="598.8984" y="657.8594"/><text fill="#000000" font-family="sans-serif" font-size="14" lengthAdjust="spacing" textLength="147.8271" x="605.8984" y="679.9668">service:PropertyService</text><rect fill="#E2E2F0" height="32.6211" rx="2.5" ry="2.5" style="stroke:#181818;stroke-width:0.5;" width="173.4961" x="771.292" y="5"/><text fill="#000000" font-family="sans-serif" font-size="14" lengthAdjust="spacing" textLength="159.4961" x="778.292" y="27.1074">factory:RepositoryFactory</text><rect fill="#E2E2F0" height="32.6211" rx="2.5" ry="2.5" style="stroke:#181818;stroke-width:0.5;" width="173.4961" x="771.292" y="657.8594"/><text fill="#000000" font-family="sans-serif" font-size="14" lengthAdjust="spacing" textLength="159.4961" x="778.292" y="679.9668">factory:RepositoryFactory</text><rect fill="#E2E2F0" height="32.6211" rx="2.5" ry="2.5" style="stroke:#181818;stroke-width:0.5;" width="165.7373" x="954.7881" y="5"/><text fill="#000000" font-family="sans-serif" font-size="14" lengthAdjust="spacing" textLength="151.7373" x="961.7881" y="27.1074">repo:PropertyRepository</text><rect fill="#E2E2F0" height="32.6211" rx="2.5" ry="2.5" style="stroke:#181818;stroke-width:0.5;" width="165.7373" x="954.7881" y="657.8594"/><text fill="#000000" font-family="sans-serif" font-size="14" lengthAdjust="spacing" textLength="151.7373" x="961.7881" y="679.9668">repo:PropertyRepository</text><rect fill="#E2E2F0" height="32.6211" rx="2.5" ry="2.5" style="stroke:#181818;stroke-width:0.5;" width="117.4824" x="1130.5254" y="5"/><text fill="#000000" font-family="sans-serif" font-size="14" lengthAdjust="spacing" textLength="103.4824" x="1137.5254" y="27.1074">result:HttpResult</text><rect fill="#E2E2F0" height="32.6211" rx="2.5" ry="2.5" style="stroke:#181818;stroke-width:0.5;" width="117.4824" x="1130.5254" y="657.8594"/><text fill="#000000" font-family="sans-serif" font-size="14" lengthAdjust="spacing" textLength="103.4824" x="1137.5254" y="679.9668">result:HttpResult</text><rect fill="#FFFFFF" height="601.2383" style="stroke:#181818;stroke-width:1.0;" width="10" x="45.1172" y="48.6211"/><rect fill="#FFFFFF" height="577.9473" style="stroke:#181818;stroke-width:1.0;" width="10" x="177.1025" y="71.9121"/><rect fill="#FFFFFF" height="36.291" style="stroke:#181818;stroke-width:1.0;" width="10" x="182.1025" y="604.5684"/><rect fill="#FFFFFF" height="393.4922" style="stroke:#181818;stroke-width:1.0;" width="10" x="380.5542" y="140.4941"/><rect fill="#FFFFFF" height="31.291" style="stroke:#181818;stroke-width:1.0;" width="10" x="520.0986" y="209.0762"/><rect fill="#FFFFFF" height="193.7461" style="stroke:#181818;stroke-width:1.0;" width="10" x="674.812" y="271.6582"/><rect fill="#FFFFFF" height="31.291" style="stroke:#181818;stroke-width:1.0;" width="10" x="853.04" y="302.9492"/><rect fill="#FFFFFF" height="31.291" style="stroke:#181818;stroke-width:1.0;" width="10" x="1032.6567" y="402.8223"/><polygon fill="#181818" points="165.1025,67.9121,175.1025,71.9121,165.1025,75.9121,169.1025,71.9121" style="stroke:#181818;stroke-width:1.0;"/><line style="stroke:#181818;stroke-width:1.0;" x1="55.1172" x2="171.1025" y1="71.9121" y2="71.9121"/><text fill="#000000" font-family="sans-serif" font-size="13" font-weight="bold" lengthAdjust="spacing" textLength="7.23" x="62.1172" y="66.6494">1</text><text fill="#000000" font-family="sans-serif" font-size="13" lengthAdjust="spacing" textLength="91.7554" x="73.3472" y="66.6494">GET /properties</text><path d="M111,84.9121 L111,111.9121 L251,111.9121 L251,94.9121 L241,84.9121 L111,84.9121 " fill="#FEFFDD" style="stroke:#181818;stroke-width:0.5;"/><path d="M241,84.9121 L241,94.9121 L251,94.9121 L241,84.9121 " fill="#FEFFDD" style="stroke:#181818;stroke-width:0.5;"/><text fill="#000000" font-family="sans-serif" font-size="13" lengthAdjust="spacing" textLength="119.9707" x="117" y="103.9404">Handling the request</text><polygon fill="#181818" points="368.5542,136.4941,378.5542,140.4941,368.5542,144.4941,372.5542,140.4941" style="stroke:#181818;stroke-width:1.0;"/><line style="stroke:#181818;stroke-width:1.0;" x1="187.1025" x2="374.5542" y1="140.4941" y2="140.4941"/><text fill="#000000" font-family="sans-serif" font-size="13" font-weight="bold" lengthAdjust="spacing" textLength="7.23" x="194.1025" y="135.2314">2</text><text fill="#000000" font-family="sans-serif" font-size="13" lengthAdjust="spacing" textLength="85.979" x="205.3325" y="135.2314">getProperties()</text><path d="M298,153.4941 L298,180.4941 L471,180.4941 L471,163.4941 L461,153.4941 L298,153.4941 " fill="#FEFFDD" style="stroke:#181818;stroke-width:0.5;"/><path d="M461,153.4941 L461,163.4941 L471,163.4941 L461,153.4941 " fill="#FEFFDD" style="stroke:#181818;stroke-width:0.5;"/><text fill="#000000" font-family="sans-serif" font-size="13" lengthAdjust="spacing" textLength="152.4707" x="304" y="172.5225">Validate access if required</text><polygon fill="#181818" points="508.0986,205.0762,518.0986,209.0762,508.0986,213.0762,512.0986,209.0762" style="stroke:#181818;stroke-width:1.0;"/><line style="stroke:#181818;stroke-width:1.0;" x1="390.5542" x2="514.0986" y1="209.0762" y2="209.0762"/><text fill="#000000" font-family="sans-serif" font-size="13" font-weight="bold" lengthAdjust="spacing" textLength="7.23" x="397.5542" y="203.8135">3</text><text fill="#000000" font-family="sans-serif" font-size="13" lengthAdjust="spacing" textLength="95.3672" x="408.7842" y="203.8135">validateAccess()</text><polygon fill="#181818" points="401.5542,236.3672,391.5542,240.3672,401.5542,244.3672,397.5542,240.3672" style="stroke:#181818;stroke-width:1.0;"/><line style="stroke:#181818;stroke-width:1.0;stroke-dasharray:2.0,2.0;" x1="395.5542" x2="524.0986" y1="240.3672" y2="240.3672"/><text fill="#000000" font-family="sans-serif" font-size="13" font-weight="bold" lengthAdjust="spacing" textLength="7.23" x="407.5542" y="235.1045">4</text><text fill="#000000" font-family="sans-serif" font-size="13" lengthAdjust="spacing" textLength="57.0718" x="418.7842" y="235.1045">accessOk</text><polygon fill="#181818" points="662.812,267.6582,672.812,271.6582,662.812,275.6582,666.812,271.6582" style="stroke:#181818;stroke-width:1.0;"/><line style="stroke:#181818;stroke-width:1.0;" x1="390.5542" x2="668.812" y1="271.6582" y2="271.6582"/><text fill="#000000" font-family="sans-serif" font-size="13" font-weight="bold" lengthAdjust="spacing" textLength="7.23" x="397.5542" y="266.3955">5</text><text fill="#000000" font-family="sans-serif" font-size="13" lengthAdjust="spacing" textLength="96.0908" x="408.7842" y="266.3955">fetchProperties()</text><polygon fill="#181818" points="841.04,298.9492,851.04,302.9492,841.04,306.9492,845.04,302.9492" style="stroke:#181818;stroke-width:1.0;"/><line style="stroke:#181818;stroke-width:1.0;" x1="684.812" x2="847.04" y1="302.9492" y2="302.9492"/><text fill="#000000" font-family="sans-serif" font-size="13" font-weight="bold" lengthAdjust="spacing" textLength="7.23" x="691.812" y="297.6865">6</text><text fill="#000000" font-family="sans-serif" font-size="13" lengthAdjust="spacing" textLength="137.998" x="703.042" y="297.6865">getPropertyRepository()</text><polygon fill="#181818" points="695.812,330.2402,685.812,334.2402,695.812,338.2402,691.812,334.2402" style="stroke:#181818;stroke-width:1.0;"/><line style="stroke:#181818;stroke-width:1.0;stroke-dasharray:2.0,2.0;" x1="689.812" x2="857.04" y1="334.2402" y2="334.2402"/><text fill="#000000" font-family="sans-serif" font-size="13" font-weight="bold" lengthAdjust="spacing" textLength="7.23" x="701.812" y="328.9775">7</text><text fill="#000000" font-family="sans-serif" font-size="13" lengthAdjust="spacing" textLength="26.019" x="713.042" y="328.9775">repo</text><path d="M971,347.2402 L971,374.2402 L1102,374.2402 L1102,357.2402 L1092,347.2402 L971,347.2402 " fill="#FEFFDD" style="stroke:#181818;stroke-width:0.5;"/><path d="M1092,347.2402 L1092,357.2402 L1102,357.2402 L1092,347.2402 " fill="#FEFFDD" style="stroke:#181818;stroke-width:0.5;"/><text fill="#000000" font-family="sans-serif" font-size="13" lengthAdjust="spacing" textLength="110.5508" x="977" y="366.2686">Fetch all properties</text><polygon fill="#181818" points="1020.6567,398.8223,1030.6567,402.8223,1020.6567,406.8223,1024.6567,402.8223" style="stroke:#181818;stroke-width:1.0;"/><line style="stroke:#181818;stroke-width:1.0;" x1="390.5542" x2="1026.6567" y1="402.8223" y2="402.8223"/><text fill="#000000" font-family="sans-serif" font-size="13" font-weight="bold" lengthAdjust="spacing" textLength="7.23" x="397.5542" y="397.5596">8</text><text fill="#000000" font-family="sans-serif" font-size="13" lengthAdjust="spacing" textLength="103.3145" x="408.7842" y="397.5596">findAllProperties()</text><polygon fill="#181818" points="695.812,430.1133,685.812,434.1133,695.812,438.1133,691.812,434.1133" style="stroke:#181818;stroke-width:1.0;"/><line style="stroke:#181818;stroke-width:1.0;stroke-dasharray:2.0,2.0;" x1="689.812" x2="1036.6567" y1="434.1133" y2="434.1133"/><text fill="#000000" font-family="sans-serif" font-size="13" font-weight="bold" lengthAdjust="spacing" textLength="7.23" x="701.812" y="428.8506">9</text><text fill="#000000" font-family="sans-serif" font-size="13" lengthAdjust="spacing" textLength="67.9199" x="713.042" y="428.8506">propertyList</text><polygon fill="#181818" points="401.5542,461.4043,391.5542,465.4043,401.5542,469.4043,397.5542,465.4043" style="stroke:#181818;stroke-width:1.0;"/><line style="stroke:#181818;stroke-width:1.0;stroke-dasharray:2.0,2.0;" x1="395.5542" x2="678.812" y1="465.4043" y2="465.4043"/><text fill="#000000" font-family="sans-serif" font-size="13" font-weight="bold" lengthAdjust="spacing" textLength="14.46" x="407.5542" y="460.1416">10</text><text fill="#000000" font-family="sans-serif" font-size="13" lengthAdjust="spacing" textLength="67.9199" x="426.0142" y="460.1416">propertyList</text><path d="M298,478.4043 L298,505.4043 L472,505.4043 L472,488.4043 L462,478.4043 L298,478.4043 " fill="#FEFFDD" style="stroke:#181818;stroke-width:0.5;"/><path d="M462,478.4043 L462,488.4043 L472,488.4043 L462,478.4043 " fill="#FEFFDD" style="stroke:#181818;stroke-width:0.5;"/><text fill="#000000" font-family="sans-serif" font-size="13" lengthAdjust="spacing" textLength="153.1816" x="304" y="497.4326">Return properties as result</text><polygon fill="#181818" points="1177.2666,529.9863,1187.2666,533.9863,1177.2666,537.9863,1181.2666,533.9863" style="stroke:#181818;stroke-width:1.0;"/><line style="stroke:#181818;stroke-width:1.0;stroke-dasharray:2.0,2.0;" x1="385.5542" x2="1183.2666" y1="533.9863" y2="533.9863"/><text fill="#000000" font-family="sans-serif" font-size="13" font-weight="bold" lengthAdjust="spacing" textLength="14.46" x="392.5542" y="528.7236">11</text><text fill="#000000" font-family="sans-serif" font-size="13" lengthAdjust="spacing" textLength="141.6226" x="411.0142" y="528.7236">create(200, propertyList)</text><polygon fill="#181818" points="198.1025,561.2773,188.1025,565.2773,198.1025,569.2773,194.1025,565.2773" style="stroke:#181818;stroke-width:1.0;"/><line style="stroke:#181818;stroke-width:1.0;stroke-dasharray:2.0,2.0;" x1="192.1025" x2="384.5542" y1="565.2773" y2="565.2773"/><text fill="#000000" font-family="sans-serif" font-size="13" font-weight="bold" lengthAdjust="spacing" textLength="14.46" x="204.1025" y="560.0146">12</text><text fill="#000000" font-family="sans-serif" font-size="13" lengthAdjust="spacing" textLength="31.7891" x="222.5625" y="560.0146">result</text><line style="stroke:#181818;stroke-width:1.0;" x1="187.1025" x2="234.1025" y1="591.5684" y2="591.5684"/><line style="stroke:#181818;stroke-width:1.0;" x1="234.1025" x2="234.1025" y1="591.5684" y2="604.5684"/><line style="stroke:#181818;stroke-width:1.0;" x1="193.1025" x2="234.1025" y1="604.5684" y2="604.5684"/><polygon fill="#181818" points="203.1025,600.5684,193.1025,604.5684,203.1025,608.5684,199.1025,604.5684" style="stroke:#181818;stroke-width:1.0;"/><text fill="#000000" font-family="sans-serif" font-size="13" font-weight="bold" lengthAdjust="spacing" textLength="14.46" x="199.1025" y="586.3057">13</text><text fill="#000000" font-family="sans-serif" font-size="13" lengthAdjust="spacing" textLength="150.9917" x="217.5625" y="586.3057">setHttpResult(resp, result)</text><polygon fill="#181818" points="66.1172,636.8594,56.1172,640.8594,66.1172,644.8594,62.1172,640.8594" style="stroke:#181818;stroke-width:1.0;"/><line style="stroke:#181818;stroke-width:1.0;stroke-dasharray:2.0,2.0;" x1="60.1172" x2="176.1025" y1="640.8594" y2="640.8594"/><text fill="#000000" font-family="sans-serif" font-size="13" font-weight="bold" lengthAdjust="spacing" textLength="14.46" x="72.1172" y="635.5967">14</text><text fill="#000000" font-family="sans-serif" font-size="13" lengthAdjust="spacing" textLength="25.2891" x="90.5771" y="635.5967">resp</text><!--SRC=[PPB1JWCX48RlFCN4KvjeD1uvc9X6xS74fbRlk9ssH8GLPflqxMM0iakzpS0tFyC_emPogYDzL8JWh50njyFF5teXUkL9TxfNbk1ABZURrS9ej7G5Ai2Ojjn1sQr1BzTk85pc91MydmBXpuNeohiUFPqMpf9tvimko9iByiDwtEieuN7x4Gh7GSl5WwFki0g_vpntaEEsO1T_x_n9hh5tGNFud4zIIOdR4X_H-i1ObmeulQJ3O4WkYVfr2Wl7eH3L-ucVOepXvg4O9-7bQGEtVNvMOn32EfxP4Nr5aj_Qxe4E21v_1mnHBj-o5FigOO-qgZAp-LGe0v_Aw2qtfReEGm2zIs8wMY-OO2csNiAna8y9Z5fy33VrgIpmzYrgNHc2X1rITsZwA5TC5T-dlKwSZcm1qbDLaWSp_GrNI7ZcXq0P0nFppkraPAVjzj6OfXk-QULB-Uarhk7ORFrhS_tFqpNIuEsa1Tw2l1kbcTHDsXNeF4PJP_TtTzUDx7n4poCl4kECpnS1QTovMSJwwmBFAntnSTUILly7]--></g></svg>