<svg xmlns="http://www.w3.org/2000/svg" xmlns:xlink="http://www.w3.org/1999/xlink" contentStyleType="text/css" height="952px" preserveAspectRatio="none" style="width:1876px;height:952px;background:#FFFFFF;" version="1.1" viewBox="0 0 1876 952" width="1876px" zoomAndPan="magnify"><defs/><g><rect fill="#FFFFFF" height="766.3145" style="stroke:#181818;stroke-width:1.0;" width="10" x="72.855" y="93.6211"/><rect fill="#FFFFFF" height="727.0234" style="stroke:#181818;stroke-width:1.0;" width="10" x="613.0562" y="116.9121"/><rect fill="#FFFFFF" height="325.2402" style="stroke:#181818;stroke-width:1.0;" width="10" x="833.5313" y="148.2031"/><rect fill="#FFFFFF" height="137.4941" style="stroke:#181818;stroke-width:1.0;" width="10" x="1037.7783" y="179.4941"/><rect fill="#FFFFFF" height="93.873" style="stroke:#181818;stroke-width:1.0;" width="10" x="1276.8091" y="348.2793"/><rect fill="#FFFFFF" height="31.291" style="stroke:#181818;stroke-width:1.0;" width="10" x="1501.5498" y="210.7852"/><rect fill="#FFFFFF" height="31.291" style="stroke:#181818;stroke-width:1.0;" width="10" x="1674.9458" y="379.5703"/><rect fill="#FFFFFF" height="31.291" style="stroke:#181818;stroke-width:1.0;" width="10" x="1808.6694" y="531.0254"/><rect fill="#FFFFFF" height="31.291" style="stroke:#181818;stroke-width:1.0;" width="10" x="1808.6694" y="593.6074"/><rect fill="#FFFFFF" height="31.291" style="stroke:#181818;stroke-width:1.0;" width="10" x="1808.6694" y="656.1895"/><rect fill="#FFFFFF" height="31.291" style="stroke:#181818;stroke-width:1.0;" width="10" x="1808.6694" y="718.7715"/><rect fill="#FFFFFF" height="31.291" style="stroke:#181818;stroke-width:1.0;" width="10" x="1808.6694" y="781.3535"/><rect fill="none" height="363.4922" style="stroke:#000000;stroke-width:1.5;" width="1860.7451" x="10" y="488.4434"/><line style="stroke:#181818;stroke-width:0.5;stroke-dasharray:5.0,5.0;" x1="77" x2="77" y1="83.6211" y2="868.9355"/><line style="stroke:#181818;stroke-width:0.5;stroke-dasharray:5.0,5.0;" x1="617.4048" x2="617.4048" y1="83.6211" y2="868.9355"/><line style="stroke:#181818;stroke-width:0.5;stroke-dasharray:5.0,5.0;" x1="837.7075" x2="837.7075" y1="83.6211" y2="868.9355"/><line style="stroke:#181818;stroke-width:0.5;stroke-dasharray:5.0,5.0;" x1="1042.5889" x2="1042.5889" y1="83.6211" y2="868.9355"/><line style="stroke:#181818;stroke-width:0.5;stroke-dasharray:5.0,5.0;" x1="1280.8164" x2="1280.8164" y1="281.8867" y2="868.9355"/><line style="stroke:#181818;stroke-width:0.5;stroke-dasharray:5.0,5.0;" x1="1505.8018" x2="1505.8018" y1="83.6211" y2="868.9355"/><line style="stroke:#181818;stroke-width:0.5;stroke-dasharray:5.0,5.0;" x1="1679.2979" x2="1679.2979" y1="83.6211" y2="868.9355"/><line style="stroke:#181818;stroke-width:0.5;stroke-dasharray:5.0,5.0;" x1="1813.5938" x2="1813.5938" y1="83.6211" y2="868.9355"/><text fill="#000000" font-family="sans-serif" font-size="14" lengthAdjust="spacing" textLength="109.71" x="20" y="80.1074">UnregisteredUser</text><ellipse cx="77.855" cy="13.5" fill="#E2E2F0" rx="8" ry="8" style="stroke:#181818;stroke-width:0.5;"/><path d="M77.855,21.5 L77.855,48.5 M64.855,29.5 L90.855,29.5 M77.855,48.5 L64.855,63.5 M77.855,48.5 L90.855,63.5 " fill="none" style="stroke:#181818;stroke-width:0.5;"/><text fill="#000000" font-family="sans-serif" font-size="14" lengthAdjust="spacing" textLength="109.71" x="20" y="883.043">UnregisteredUser</text><ellipse cx="77.855" cy="895.0566" fill="#E2E2F0" rx="8" ry="8" style="stroke:#181818;stroke-width:0.5;"/><path d="M77.855,903.0566 L77.855,930.0566 M64.855,911.0566 L90.855,911.0566 M77.855,930.0566 L64.855,945.0566 M77.855,930.0566 L90.855,945.0566 " fill="none" style="stroke:#181818;stroke-width:0.5;"/><rect fill="#E2E2F0" height="32.6211" rx="2.5" ry="2.5" style="stroke:#181818;stroke-width:0.5;" width="195.3027" x="520.4048" y="50"/><text fill="#000000" font-family="sans-serif" font-size="14" lengthAdjust="spacing" textLength="181.3027" x="527.4048" y="72.1074">:DisplayListedPropertiesView</text><rect fill="#E2E2F0" height="32.6211" rx="2.5" ry="2.5" style="stroke:#181818;stroke-width:0.5;" width="195.3027" x="520.4048" y="867.9355"/><text fill="#000000" font-family="sans-serif" font-size="14" lengthAdjust="spacing" textLength="181.3027" x="527.4048" y="890.043">:DisplayListedPropertiesView</text><rect fill="#E2E2F0" height="32.6211" rx="2.5" ry="2.5" style="stroke:#181818;stroke-width:0.5;" width="225.6475" x="725.7075" y="50"/><text fill="#000000" font-family="sans-serif" font-size="14" lengthAdjust="spacing" textLength="211.6475" x="732.7075" y="72.1074">:DisplayListedPropertiesController</text><rect fill="#E2E2F0" height="32.6211" rx="2.5" ry="2.5" style="stroke:#181818;stroke-width:0.5;" width="225.6475" x="725.7075" y="867.9355"/><text fill="#000000" font-family="sans-serif" font-size="14" lengthAdjust="spacing" textLength="211.6475" x="732.7075" y="890.043">:DisplayListedPropertiesController</text><rect fill="#E2E2F0" height="32.6211" rx="2.5" ry="2.5" style="stroke:#181818;stroke-width:0.5;" width="86.3789" x="999.5889" y="50"/><text fill="#000000" font-family="sans-serif" font-size="14" lengthAdjust="spacing" textLength="72.3789" x="1006.5889" y="72.1074">:Application</text><rect fill="#E2E2F0" height="32.6211" rx="2.5" ry="2.5" style="stroke:#181818;stroke-width:0.5;" width="86.3789" x="999.5889" y="867.9355"/><text fill="#000000" font-family="sans-serif" font-size="14" lengthAdjust="spacing" textLength="72.3789" x="1006.5889" y="890.043">:Application</text><rect fill="#E2E2F0" height="32.6211" rx="2.5" ry="2.5" style="stroke:#181818;stroke-width:0.5;" width="255.9854" x="1153.8164" y="867.9355"/><text fill="#000000" font-family="sans-serif" font-size="14" lengthAdjust="spacing" textLength="241.9854" x="1160.8164" y="890.043">service:DisplayListedPropertiesService</text><rect fill="#E2E2F0" height="32.6211" rx="2.5" ry="2.5" style="stroke:#181818;stroke-width:0.5;" width="173.4961" x="1419.8018" y="50"/><text fill="#000000" font-family="sans-serif" font-size="14" lengthAdjust="spacing" textLength="159.4961" x="1426.8018" y="72.1074">factory:RepositoryFactory</text><rect fill="#E2E2F0" height="32.6211" rx="2.5" ry="2.5" style="stroke:#181818;stroke-width:0.5;" width="173.4961" x="1419.8018" y="867.9355"/><text fill="#000000" font-family="sans-serif" font-size="14" lengthAdjust="spacing" textLength="159.4961" x="1426.8018" y="890.043">factory:RepositoryFactory</text><rect fill="#E2E2F0" height="32.6211" rx="2.5" ry="2.5" style="stroke:#181818;stroke-width:0.5;" width="153.2959" x="1603.2979" y="50"/><text fill="#000000" font-family="sans-serif" font-size="14" lengthAdjust="spacing" textLength="139.2959" x="1610.2979" y="72.1074">repo:ListingRepository</text><rect fill="#E2E2F0" height="32.6211" rx="2.5" ry="2.5" style="stroke:#181818;stroke-width:0.5;" width="153.2959" x="1603.2979" y="867.9355"/><text fill="#000000" font-family="sans-serif" font-size="14" lengthAdjust="spacing" textLength="139.2959" x="1610.2979" y="890.043">repo:ListingRepository</text><rect fill="#E2E2F0" height="32.6211" rx="2.5" ry="2.5" style="stroke:#181818;stroke-width:0.5;" width="94.1514" x="1766.5938" y="50"/><text fill="#000000" font-family="sans-serif" font-size="14" lengthAdjust="spacing" textLength="80.1514" x="1773.5938" y="72.1074">listing:Listing</text><rect fill="#E2E2F0" height="32.6211" rx="2.5" ry="2.5" style="stroke:#181818;stroke-width:0.5;" width="94.1514" x="1766.5938" y="867.9355"/><text fill="#000000" font-family="sans-serif" font-size="14" lengthAdjust="spacing" textLength="80.1514" x="1773.5938" y="890.043">listing:Listing</text><rect fill="#FFFFFF" height="766.3145" style="stroke:#181818;stroke-width:1.0;" width="10" x="72.855" y="93.6211"/><rect fill="#FFFFFF" height="727.0234" style="stroke:#181818;stroke-width:1.0;" width="10" x="613.0562" y="116.9121"/><rect fill="#FFFFFF" height="325.2402" style="stroke:#181818;stroke-width:1.0;" width="10" x="833.5313" y="148.2031"/><rect fill="#FFFFFF" height="137.4941" style="stroke:#181818;stroke-width:1.0;" width="10" x="1037.7783" y="179.4941"/><rect fill="#FFFFFF" height="93.873" style="stroke:#181818;stroke-width:1.0;" width="10" x="1276.8091" y="348.2793"/><rect fill="#FFFFFF" height="31.291" style="stroke:#181818;stroke-width:1.0;" width="10" x="1501.5498" y="210.7852"/><rect fill="#FFFFFF" height="31.291" style="stroke:#181818;stroke-width:1.0;" width="10" x="1674.9458" y="379.5703"/><rect fill="#FFFFFF" height="31.291" style="stroke:#181818;stroke-width:1.0;" width="10" x="1808.6694" y="531.0254"/><rect fill="#FFFFFF" height="31.291" style="stroke:#181818;stroke-width:1.0;" width="10" x="1808.6694" y="593.6074"/><rect fill="#FFFFFF" height="31.291" style="stroke:#181818;stroke-width:1.0;" width="10" x="1808.6694" y="656.1895"/><rect fill="#FFFFFF" height="31.291" style="stroke:#181818;stroke-width:1.0;" width="10" x="1808.6694" y="718.7715"/><rect fill="#FFFFFF" height="31.291" style="stroke:#181818;stroke-width:1.0;" width="10" x="1808.6694" y="781.3535"/><polygon fill="#181818" points="601.0562,112.9121,611.0562,116.9121,601.0562,120.9121,605.0562,116.9121" style="stroke:#181818;stroke-width:1.0;"/><line style="stroke:#181818;stroke-width:1.0;" x1="82.855" x2="607.0562" y1="116.9121" y2="116.9121"/><text fill="#000000" font-family="sans-serif" font-size="13" font-weight="bold" lengthAdjust="spacing" textLength="7.23" x="89.855" y="111.6494">1</text><text fill="#000000" font-family="sans-serif" font-size="13" lengthAdjust="spacing" textLength="203.7725" x="101.085" y="111.6494">requests to display listed properties</text><polygon fill="#181818" points="821.5313,144.2031,831.5313,148.2031,821.5313,152.2031,825.5313,148.2031" style="stroke:#181818;stroke-width:1.0;"/><line style="stroke:#181818;stroke-width:1.0;" x1="623.0562" x2="827.5313" y1="148.2031" y2="148.2031"/><text fill="#000000" font-family="sans-serif" font-size="13" font-weight="bold" lengthAdjust="spacing" textLength="7.23" x="630.0562" y="142.9404">2</text><text fill="#000000" font-family="sans-serif" font-size="13" lengthAdjust="spacing" textLength="41.1772" x="641.2861" y="142.9404">getAll()</text><polygon fill="#181818" points="1025.7783,175.4941,1035.7783,179.4941,1025.7783,183.4941,1029.7783,179.4941" style="stroke:#181818;stroke-width:1.0;"/><line style="stroke:#181818;stroke-width:1.0;" x1="843.5313" x2="1031.7783" y1="179.4941" y2="179.4941"/><text fill="#000000" font-family="sans-serif" font-size="13" font-weight="bold" lengthAdjust="spacing" textLength="7.23" x="850.5313" y="174.2314">3</text><text fill="#000000" font-family="sans-serif" font-size="13" lengthAdjust="spacing" textLength="164.0171" x="861.7612" y="174.2314">getListedPropertiesService()</text><polygon fill="#181818" points="1489.5498,206.7852,1499.5498,210.7852,1489.5498,214.7852,1493.5498,210.7852" style="stroke:#181818;stroke-width:1.0;"/><line style="stroke:#181818;stroke-width:1.0;" x1="1047.7783" x2="1495.5498" y1="210.7852" y2="210.7852"/><text fill="#000000" font-family="sans-serif" font-size="13" font-weight="bold" lengthAdjust="spacing" textLength="7.23" x="1054.7783" y="205.5225">4</text><text fill="#000000" font-family="sans-serif" font-size="13" lengthAdjust="spacing" textLength="126.4453" x="1066.0083" y="205.5225">getListingRepository()</text><polygon fill="#181818" points="1058.7783,238.0762,1048.7783,242.0762,1058.7783,246.0762,1054.7783,242.0762" style="stroke:#181818;stroke-width:1.0;"/><line style="stroke:#181818;stroke-width:1.0;stroke-dasharray:2.0,2.0;" x1="1052.7783" x2="1505.5498" y1="242.0762" y2="242.0762"/><text fill="#000000" font-family="sans-serif" font-size="13" font-weight="bold" lengthAdjust="spacing" textLength="7.23" x="1064.7783" y="236.8135">5</text><text fill="#000000" font-family="sans-serif" font-size="13" lengthAdjust="spacing" textLength="26.019" x="1076.0083" y="236.8135">repo</text><polygon fill="#181818" points="1141.8164,269.3672,1151.8164,273.3672,1141.8164,277.3672,1145.8164,273.3672" style="stroke:#181818;stroke-width:1.0;"/><line style="stroke:#181818;stroke-width:1.0;stroke-dasharray:2.0,2.0;" x1="1047.7783" x2="1147.8164" y1="273.3672" y2="273.3672"/><text fill="#000000" font-family="sans-serif" font-size="13" font-weight="bold" lengthAdjust="spacing" textLength="7.23" x="1054.7783" y="268.1045">6</text><text fill="#000000" font-family="sans-serif" font-size="13" lengthAdjust="spacing" textLength="70.8081" x="1066.0083" y="268.1045">create(repo)</text><rect fill="#E2E2F0" height="32.6211" rx="2.5" ry="2.5" style="stroke:#181818;stroke-width:0.5;" width="255.9854" x="1153.8164" y="250.0762"/><text fill="#000000" font-family="sans-serif" font-size="14" lengthAdjust="spacing" textLength="241.9854" x="1160.8164" y="272.1836">service:DisplayListedPropertiesService</text><polygon fill="#181818" points="854.5313,312.9883,844.5313,316.9883,854.5313,320.9883,850.5313,316.9883" style="stroke:#181818;stroke-width:1.0;"/><line style="stroke:#181818;stroke-width:1.0;stroke-dasharray:2.0,2.0;" x1="848.5313" x2="1041.7783" y1="316.9883" y2="316.9883"/><text fill="#000000" font-family="sans-serif" font-size="13" font-weight="bold" lengthAdjust="spacing" textLength="7.23" x="860.5313" y="311.7256">7</text><text fill="#000000" font-family="sans-serif" font-size="13" lengthAdjust="spacing" textLength="41.1772" x="871.7612" y="311.7256">service</text><polygon fill="#181818" points="1264.8091,344.2793,1274.8091,348.2793,1264.8091,352.2793,1268.8091,348.2793" style="stroke:#181818;stroke-width:1.0;"/><line style="stroke:#181818;stroke-width:1.0;" x1="843.5313" x2="1270.8091" y1="348.2793" y2="348.2793"/><text fill="#000000" font-family="sans-serif" font-size="13" font-weight="bold" lengthAdjust="spacing" textLength="7.23" x="850.5313" y="343.0166">8</text><text fill="#000000" font-family="sans-serif" font-size="13" lengthAdjust="spacing" textLength="41.1772" x="861.7612" y="343.0166">getAll()</text><polygon fill="#181818" points="1662.9458,375.5703,1672.9458,379.5703,1662.9458,383.5703,1666.9458,379.5703" style="stroke:#181818;stroke-width:1.0;"/><line style="stroke:#181818;stroke-width:1.0;" x1="1286.8091" x2="1668.9458" y1="379.5703" y2="379.5703"/><text fill="#000000" font-family="sans-serif" font-size="13" font-weight="bold" lengthAdjust="spacing" textLength="7.23" x="1293.8091" y="374.3076">9</text><text fill="#000000" font-family="sans-serif" font-size="13" lengthAdjust="spacing" textLength="41.1772" x="1305.0391" y="374.3076">getAll()</text><polygon fill="#181818" points="1297.8091,406.8613,1287.8091,410.8613,1297.8091,414.8613,1293.8091,410.8613" style="stroke:#181818;stroke-width:1.0;"/><line style="stroke:#181818;stroke-width:1.0;stroke-dasharray:2.0,2.0;" x1="1291.8091" x2="1678.9458" y1="410.8613" y2="410.8613"/><text fill="#000000" font-family="sans-serif" font-size="13" font-weight="bold" lengthAdjust="spacing" textLength="14.46" x="1303.8091" y="405.5986">10</text><text fill="#000000" font-family="sans-serif" font-size="13" lengthAdjust="spacing" textLength="117.0635" x="1322.269" y="405.5986">returns List&lt;Listing&gt;</text><polygon fill="#181818" points="854.5313,438.1523,844.5313,442.1523,854.5313,446.1523,850.5313,442.1523" style="stroke:#181818;stroke-width:1.0;"/><line style="stroke:#181818;stroke-width:1.0;stroke-dasharray:2.0,2.0;" x1="848.5313" x2="1280.8091" y1="442.1523" y2="442.1523"/><text fill="#000000" font-family="sans-serif" font-size="13" font-weight="bold" lengthAdjust="spacing" textLength="14.46" x="860.5313" y="436.8896">11</text><text fill="#000000" font-family="sans-serif" font-size="13" lengthAdjust="spacing" textLength="117.0635" x="878.9912" y="436.8896">returns List&lt;Listing&gt;</text><polygon fill="#181818" points="634.0562,469.4434,624.0562,473.4434,634.0562,477.4434,630.0562,473.4434" style="stroke:#181818;stroke-width:1.0;"/><line style="stroke:#181818;stroke-width:1.0;stroke-dasharray:2.0,2.0;" x1="628.0562" x2="837.5313" y1="473.4434" y2="473.4434"/><text fill="#000000" font-family="sans-serif" font-size="13" font-weight="bold" lengthAdjust="spacing" textLength="14.46" x="640.0562" y="468.1807">12</text><text fill="#000000" font-family="sans-serif" font-size="13" lengthAdjust="spacing" textLength="117.0635" x="658.5161" y="468.1807">returns List&lt;Listing&gt;</text><path d="M10,488.4434 L82.4346,488.4434 L82.4346,497.7344 L72.4346,507.7344 L10,507.7344 L10,488.4434 " fill="#EEEEEE" style="stroke:#000000;stroke-width:1.5;"/><rect fill="none" height="363.4922" style="stroke:#000000;stroke-width:1.5;" width="1860.7451" x="10" y="488.4434"/><text fill="#000000" font-family="sans-serif" font-size="13" font-weight="bold" lengthAdjust="spacing" textLength="27.4346" x="25" y="503.4717">loop</text><text fill="#000000" font-family="sans-serif" font-size="11" font-weight="bold" lengthAdjust="spacing" textLength="180.3667" x="97.4346" y="502.3135">[for each 'listing' in 'List&lt;Listing&gt;']</text><polygon fill="#181818" points="1796.6694,527.0254,1806.6694,531.0254,1796.6694,535.0254,1800.6694,531.0254" style="stroke:#181818;stroke-width:1.0;"/><line style="stroke:#181818;stroke-width:1.0;" x1="623.0562" x2="1802.6694" y1="531.0254" y2="531.0254"/><text fill="#000000" font-family="sans-serif" font-size="13" font-weight="bold" lengthAdjust="spacing" textLength="14.46" x="630.0562" y="525.7627">13</text><text fill="#000000" font-family="sans-serif" font-size="13" lengthAdjust="spacing" textLength="96.8271" x="648.5161" y="525.7627">getPublishDate()</text><polygon fill="#181818" points="634.0562,558.3164,624.0562,562.3164,634.0562,566.3164,630.0562,562.3164" style="stroke:#181818;stroke-width:1.0;"/><line style="stroke:#181818;stroke-width:1.0;stroke-dasharray:2.0,2.0;" x1="628.0562" x2="1812.6694" y1="562.3164" y2="562.3164"/><text fill="#000000" font-family="sans-serif" font-size="13" font-weight="bold" lengthAdjust="spacing" textLength="14.46" x="640.0562" y="557.0537">14</text><text fill="#000000" font-family="sans-serif" font-size="13" lengthAdjust="spacing" textLength="68.6563" x="658.5161" y="557.0537">publishDate</text><polygon fill="#181818" points="1796.6694,589.6074,1806.6694,593.6074,1796.6694,597.6074,1800.6694,593.6074" style="stroke:#181818;stroke-width:1.0;"/><line style="stroke:#181818;stroke-width:1.0;" x1="623.0562" x2="1802.6694" y1="593.6074" y2="593.6074"/><text fill="#000000" font-family="sans-serif" font-size="13" font-weight="bold" lengthAdjust="spacing" textLength="14.46" x="630.0562" y="588.3447">15</text><text fill="#000000" font-family="sans-serif" font-size="13" lengthAdjust="spacing" textLength="108.3799" x="648.5161" y="588.3447">getBusinessType()</text><polygon fill="#181818" points="634.0562,620.8984,624.0562,624.8984,634.0562,628.8984,630.0562,624.8984" style="stroke:#181818;stroke-width:1.0;"/><line style="stroke:#181818;stroke-width:1.0;stroke-dasharray:2.0,2.0;" x1="628.0562" x2="1812.6694" y1="624.8984" y2="624.8984"/><text fill="#000000" font-family="sans-serif" font-size="13" font-weight="bold" lengthAdjust="spacing" textLength="14.46" x="640.0562" y="619.6357">16</text><text fill="#000000" font-family="sans-serif" font-size="13" lengthAdjust="spacing" textLength="80.209" x="658.5161" y="619.6357">businessType</text><polygon fill="#181818" points="1796.6694,652.1895,1806.6694,656.1895,1796.6694,660.1895,1800.6694,656.1895" style="stroke:#181818;stroke-width:1.0;"/><line style="stroke:#181818;stroke-width:1.0;" x1="623.0562" x2="1802.6694" y1="656.1895" y2="656.1895"/><text fill="#000000" font-family="sans-serif" font-size="13" font-weight="bold" lengthAdjust="spacing" textLength="14.46" x="630.0562" y="650.9268">17</text><text fill="#000000" font-family="sans-serif" font-size="13" lengthAdjust="spacing" textLength="98.2427" x="648.5161" y="650.9268">getCommission()</text><polygon fill="#181818" points="634.0562,683.4805,624.0562,687.4805,634.0562,691.4805,630.0562,687.4805" style="stroke:#181818;stroke-width:1.0;"/><line style="stroke:#181818;stroke-width:1.0;stroke-dasharray:2.0,2.0;" x1="628.0562" x2="1812.6694" y1="687.4805" y2="687.4805"/><text fill="#000000" font-family="sans-serif" font-size="13" font-weight="bold" lengthAdjust="spacing" textLength="14.46" x="640.0562" y="682.2178">18</text><text fill="#000000" font-family="sans-serif" font-size="13" lengthAdjust="spacing" textLength="68.6245" x="658.5161" y="682.2178">commission</text><polygon fill="#181818" points="1796.6694,714.7715,1806.6694,718.7715,1796.6694,722.7715,1800.6694,718.7715" style="stroke:#181818;stroke-width:1.0;"/><line style="stroke:#181818;stroke-width:1.0;" x1="623.0562" x2="1802.6694" y1="718.7715" y2="718.7715"/><text fill="#000000" font-family="sans-serif" font-size="13" font-weight="bold" lengthAdjust="spacing" textLength="14.46" x="630.0562" y="713.5088">19</text><text fill="#000000" font-family="sans-serif" font-size="13" lengthAdjust="spacing" textLength="63.5845" x="648.5161" y="713.5088">getStatus()</text><polygon fill="#181818" points="634.0562,746.0625,624.0562,750.0625,634.0562,754.0625,630.0562,750.0625" style="stroke:#181818;stroke-width:1.0;"/><line style="stroke:#181818;stroke-width:1.0;stroke-dasharray:2.0,2.0;" x1="628.0562" x2="1812.6694" y1="750.0625" y2="750.0625"/><text fill="#000000" font-family="sans-serif" font-size="13" font-weight="bold" lengthAdjust="spacing" textLength="14.46" x="640.0562" y="744.7998">20</text><text fill="#000000" font-family="sans-serif" font-size="13" lengthAdjust="spacing" textLength="34.6836" x="658.5161" y="744.7998">status</text><polygon fill="#181818" points="1796.6694,777.3535,1806.6694,781.3535,1796.6694,785.3535,1800.6694,781.3535" style="stroke:#181818;stroke-width:1.0;"/><line style="stroke:#181818;stroke-width:1.0;" x1="623.0562" x2="1802.6694" y1="781.3535" y2="781.3535"/><text fill="#000000" font-family="sans-serif" font-size="13" font-weight="bold" lengthAdjust="spacing" textLength="14.46" x="630.0562" y="776.0908">21</text><text fill="#000000" font-family="sans-serif" font-size="13" lengthAdjust="spacing" textLength="75.8608" x="648.5161" y="776.0908">getProperty()</text><polygon fill="#181818" points="634.0562,808.6445,624.0562,812.6445,634.0562,816.6445,630.0562,812.6445" style="stroke:#181818;stroke-width:1.0;"/><line style="stroke:#181818;stroke-width:1.0;stroke-dasharray:2.0,2.0;" x1="628.0562" x2="1812.6694" y1="812.6445" y2="812.6445"/><text fill="#000000" font-family="sans-serif" font-size="13" font-weight="bold" lengthAdjust="spacing" textLength="14.46" x="640.0562" y="807.3818">22</text><text fill="#000000" font-family="sans-serif" font-size="13" lengthAdjust="spacing" textLength="93.2026" x="658.5161" y="807.3818">returns Property</text><polygon fill="#181818" points="93.855,839.9355,83.855,843.9355,93.855,847.9355,89.855,843.9355" style="stroke:#181818;stroke-width:1.0;"/><line style="stroke:#181818;stroke-width:1.0;stroke-dasharray:2.0,2.0;" x1="87.855" x2="617.0562" y1="843.9355" y2="843.9355"/><text fill="#000000" font-family="sans-serif" font-size="13" font-weight="bold" lengthAdjust="spacing" textLength="14.46" x="99.855" y="838.6729">23</text><text fill="#000000" font-family="sans-serif" font-size="13" lengthAdjust="spacing" textLength="487.7412" x="118.3149" y="838.6729">shows publishDate + businessType+ commission + status + displays property details</text><!--SRC=[ZPDDRzim38Rl_XL4BcvQfBaRGu4knKuz5CkwksAhYG1PqaIvXV_zI4bshA4rbaCWaG-_Nbhr9GI7pNxlj31XwFLzQ_izoZ-3DAtSTKgSlUWhCGGhsg3UHP1WJRoReJz9NrLajnushyRBiy8WlUnUKVeD20G-L4xue5hbg01icYU5L6jyPhHxyTP9yahyhUH733cEvEZ_B-XWJV1Mwrpj4Bp-9_3HEQrQ4PGr4Q5xIL23xwgLNrKu9dVgB9tB-BSu_jZybCwYukEFP8aX-Lo6U48RBgJC-HeMURwMi4xSn4SgdwFqQILHvuh_OVUG9Mp0ynen80GBNPeFT1mGt3nXbMYEO_qQEClmgFNDjk8hcqcpQFr26oA9O31FEyF5V8HbF-ocfAn42kQkKxhRsmPQBscg6tPlPt_gBkzhRYv7BThE5dPozOM7hyjIt40Ol4cAViijFrmpp5K_vr8FXU2VOTfQ1s_qHgHeBr3dZTQW3DG5MLT0l-i-iZrEy3ASAF3onBfi8vUzHGFkIgta-ZwWCXBnr-ZMafqMs4gsW-rxXKWlR2LNEqChcOv1X05Nic04rbHA7-UuacFQqOGMsOZZHqILBlO3btB2NQ77tM8YSgN6w92V6KuFR8HE1g4qLj9qm5_2Nm00]--></g></svg>