<svg xmlns="http://www.w3.org/2000/svg" xmlns:xlink="http://www.w3.org/1999/xlink" contentStyleType="text/css" height="886px" preserveAspectRatio="none" style="width:1984px;height:886px;background:#FFFFFF;" version="1.1" viewBox="0 0 1984 886" width="1984px" zoomAndPan="magnify"><defs/><g><rect fill="#FFFFFF" height="790.9844" style="stroke:#181818;stroke-width:1.0;" width="10" x="45.1172" y="48.6211"/><rect fill="#FFFFFF" height="758.6934" style="stroke:#181818;stroke-width:1.0;" width="10" x="177.1025" y="71.9121"/><rect fill="#FFFFFF" height="42.291" style="stroke:#181818;stroke-width:1.0;" width="10" x="182.1025" y="173.7852"/><rect fill="#FFFFFF" height="736.4023" style="stroke:#181818;stroke-width:1.0;" width="10" x="353.877" y="103.2031"/><rect fill="#FFFFFF" height="705.1113" style="stroke:#181818;stroke-width:1.0;" width="10" x="499.6455" y="134.4941"/><rect fill="#FFFFFF" height="585.2383" style="stroke:#181818;stroke-width:1.0;" width="10" x="657.4932" y="254.3672"/><rect fill="#FFFFFF" height="36.291" style="stroke:#181818;stroke-width:1.0;" width="10" x="662.4932" y="763.0234"/><rect fill="#FFFFFF" height="438.0742" style="stroke:#181818;stroke-width:1.0;" width="10" x="860.9448" y="285.6582"/><rect fill="#FFFFFF" height="312.9102" style="stroke:#181818;stroke-width:1.0;" width="10" x="865.9448" y="316.9492"/><rect fill="#FFFFFF" height="31.291" style="stroke:#181818;stroke-width:1.0;" width="10" x="1001.542" y="348.2402"/><rect fill="#FFFFFF" height="428.7832" style="stroke:#181818;stroke-width:1.0;" width="10" x="1156.2554" y="410.8223"/><rect fill="#FFFFFF" height="93.873" style="stroke:#181818;stroke-width:1.0;" width="10" x="1161.2554" y="504.6953"/><rect fill="#FFFFFF" height="31.291" style="stroke:#181818;stroke-width:1.0;" width="10" x="1341.7134" y="442.1133"/><rect fill="#FFFFFF" height="31.291" style="stroke:#181818;stroke-width:1.0;" width="10" x="1521.3301" y="535.9863"/><rect fill="#FFFFFF" height="31.291" style="stroke:#181818;stroke-width:1.0;" width="10" x="1915.0093" y="661.1504"/><line style="stroke:#181818;stroke-width:0.5;stroke-dasharray:5.0,5.0;" x1="50" x2="50" y1="38.6211" y2="848.6055"/><line style="stroke:#181818;stroke-width:0.5;stroke-dasharray:5.0,5.0;" x1="181.2646" x2="181.2646" y1="38.6211" y2="848.6055"/><line style="stroke:#181818;stroke-width:0.5;stroke-dasharray:5.0,5.0;" x1="358.4668" x2="358.4668" y1="38.6211" y2="848.6055"/><line style="stroke:#181818;stroke-width:0.5;stroke-dasharray:5.0,5.0;" x1="504.2871" x2="504.2871" y1="38.6211" y2="848.6055"/><line style="stroke:#181818;stroke-width:0.5;stroke-dasharray:5.0,5.0;" x1="662.0039" x2="662.0039" y1="38.6211" y2="848.6055"/><line style="stroke:#181818;stroke-width:0.5;stroke-dasharray:5.0,5.0;" x1="865.2002" x2="865.2002" y1="38.6211" y2="848.6055"/><line style="stroke:#181818;stroke-width:0.5;stroke-dasharray:5.0,5.0;" x1="1005.7422" x2="1005.7422" y1="38.6211" y2="848.6055"/><line style="stroke:#181818;stroke-width:0.5;stroke-dasharray:5.0,5.0;" x1="1160.3418" x2="1160.3418" y1="38.6211" y2="848.6055"/><line style="stroke:#181818;stroke-width:0.5;stroke-dasharray:5.0,5.0;" x1="1345.9653" x2="1345.9653" y1="38.6211" y2="848.6055"/><line style="stroke:#181818;stroke-width:0.5;stroke-dasharray:5.0,5.0;" x1="1525.4614" x2="1525.4614" y1="38.6211" y2="848.6055"/><line style="stroke:#181818;stroke-width:0.5;stroke-dasharray:5.0,5.0;" x1="1690.1987" x2="1690.1987" y1="38.6211" y2="848.6055"/><line style="stroke:#181818;stroke-width:0.5;stroke-dasharray:5.0,5.0;" x1="1919.2681" x2="1919.2681" y1="38.6211" y2="848.6055"/><rect fill="#E2E2F0" height="32.6211" rx="2.5" ry="2.5" style="stroke:#181818;stroke-width:0.5;" width="90.2344" x="5" y="5"/><text fill="#000000" font-family="sans-serif" font-size="14" lengthAdjust="spacing" textLength="76.2344" x="12" y="27.1074">:HTTPClient</text><rect fill="#E2E2F0" height="32.6211" rx="2.5" ry="2.5" style="stroke:#181818;stroke-width:0.5;" width="90.2344" x="5" y="847.6055"/><text fill="#000000" font-family="sans-serif" font-size="14" lengthAdjust="spacing" textLength="76.2344" x="12" y="869.7129">:HTTPClient</text><rect fill="#E2E2F0" height="32.6211" rx="2.5" ry="2.5" style="stroke:#181818;stroke-width:0.5;" width="95.6758" x="134.2646" y="5"/><text fill="#000000" font-family="sans-serif" font-size="14" lengthAdjust="spacing" textLength="81.6758" x="141.2646" y="27.1074">:HTTPServer</text><rect fill="#E2E2F0" height="32.6211" rx="2.5" ry="2.5" style="stroke:#181818;stroke-width:0.5;" width="95.6758" x="134.2646" y="847.6055"/><text fill="#000000" font-family="sans-serif" font-size="14" lengthAdjust="spacing" textLength="81.6758" x="141.2646" y="869.7129">:HTTPServer</text><rect fill="#E2E2F0" height="32.6211" rx="2.5" ry="2.5" style="stroke:#181818;stroke-width:0.5;" width="126.8203" x="295.4668" y="5"/><text fill="#000000" font-family="sans-serif" font-size="14" lengthAdjust="spacing" textLength="112.8203" x="302.4668" y="27.1074">req:HTTPRequest</text><rect fill="#E2E2F0" height="32.6211" rx="2.5" ry="2.5" style="stroke:#181818;stroke-width:0.5;" width="126.8203" x="295.4668" y="847.6055"/><text fill="#000000" font-family="sans-serif" font-size="14" lengthAdjust="spacing" textLength="112.8203" x="302.4668" y="869.7129">req:HTTPRequest</text><rect fill="#E2E2F0" height="32.6211" rx="2.5" ry="2.5" style="stroke:#181818;stroke-width:0.5;" width="144.7168" x="432.2871" y="5"/><text fill="#000000" font-family="sans-serif" font-size="14" lengthAdjust="spacing" textLength="130.7168" x="439.2871" y="27.1074">resp:HTTPResponse</text><rect fill="#E2E2F0" height="32.6211" rx="2.5" ry="2.5" style="stroke:#181818;stroke-width:0.5;" width="144.7168" x="432.2871" y="847.6055"/><text fill="#000000" font-family="sans-serif" font-size="14" lengthAdjust="spacing" textLength="130.7168" x="439.2871" y="869.7129">resp:HTTPResponse</text><rect fill="#E2E2F0" height="32.6211" rx="2.5" ry="2.5" style="stroke:#181818;stroke-width:0.5;" width="150.9785" x="587.0039" y="5"/><text fill="#000000" font-family="sans-serif" font-size="14" lengthAdjust="spacing" textLength="136.9785" x="594.0039" y="27.1074">handler:RouteHandler</text><rect fill="#E2E2F0" height="32.6211" rx="2.5" ry="2.5" style="stroke:#181818;stroke-width:0.5;" width="150.9785" x="587.0039" y="847.6055"/><text fill="#000000" font-family="sans-serif" font-size="14" lengthAdjust="spacing" textLength="136.9785" x="594.0039" y="869.7129">handler:RouteHandler</text><rect fill="#E2E2F0" height="32.6211" rx="2.5" ry="2.5" style="stroke:#181818;stroke-width:0.5;" width="131.4893" x="800.2002" y="5"/><text fill="#000000" font-family="sans-serif" font-size="14" lengthAdjust="spacing" textLength="117.4893" x="807.2002" y="27.1074">:PropertyController</text><rect fill="#E2E2F0" height="32.6211" rx="2.5" ry="2.5" style="stroke:#181818;stroke-width:0.5;" width="131.4893" x="800.2002" y="847.6055"/><text fill="#000000" font-family="sans-serif" font-size="14" lengthAdjust="spacing" textLength="117.4893" x="807.2002" y="869.7129">:PropertyController</text><rect fill="#E2E2F0" height="32.6211" rx="2.5" ry="2.5" style="stroke:#181818;stroke-width:0.5;" width="127.5996" x="942.7422" y="5"/><text fill="#000000" font-family="sans-serif" font-size="14" lengthAdjust="spacing" textLength="113.5996" x="949.7422" y="27.1074">:UnregisteredUser</text><rect fill="#E2E2F0" height="32.6211" rx="2.5" ry="2.5" style="stroke:#181818;stroke-width:0.5;" width="127.5996" x="942.7422" y="847.6055"/><text fill="#000000" font-family="sans-serif" font-size="14" lengthAdjust="spacing" textLength="113.5996" x="949.7422" y="869.7129">:UnregisteredUser</text><rect fill="#E2E2F0" height="32.6211" rx="2.5" ry="2.5" style="stroke:#181818;stroke-width:0.5;" width="161.8271" x="1080.3418" y="5"/><text fill="#000000" font-family="sans-serif" font-size="14" lengthAdjust="spacing" textLength="147.8271" x="1087.3418" y="27.1074">service:PropertyService</text><rect fill="#E2E2F0" height="32.6211" rx="2.5" ry="2.5" style="stroke:#181818;stroke-width:0.5;" width="161.8271" x="1080.3418" y="847.6055"/><text fill="#000000" font-family="sans-serif" font-size="14" lengthAdjust="spacing" textLength="147.8271" x="1087.3418" y="869.7129">service:PropertyService</text><rect fill="#E2E2F0" height="32.6211" rx="2.5" ry="2.5" style="stroke:#181818;stroke-width:0.5;" width="173.4961" x="1259.9653" y="5"/><text fill="#000000" font-family="sans-serif" font-size="14" lengthAdjust="spacing" textLength="159.4961" x="1266.9653" y="27.1074">factory:RepositoryFactory</text><rect fill="#E2E2F0" height="32.6211" rx="2.5" ry="2.5" style="stroke:#181818;stroke-width:0.5;" width="173.4961" x="1259.9653" y="847.6055"/><text fill="#000000" font-family="sans-serif" font-size="14" lengthAdjust="spacing" textLength="159.4961" x="1266.9653" y="869.7129">factory:RepositoryFactory</text><rect fill="#E2E2F0" height="32.6211" rx="2.5" ry="2.5" style="stroke:#181818;stroke-width:0.5;" width="165.7373" x="1443.4614" y="5"/><text fill="#000000" font-family="sans-serif" font-size="14" lengthAdjust="spacing" textLength="151.7373" x="1450.4614" y="27.1074">repo:PropertyRepository</text><rect fill="#E2E2F0" height="32.6211" rx="2.5" ry="2.5" style="stroke:#181818;stroke-width:0.5;" width="165.7373" x="1443.4614" y="847.6055"/><text fill="#000000" font-family="sans-serif" font-size="14" lengthAdjust="spacing" textLength="151.7373" x="1450.4614" y="869.7129">repo:PropertyRepository</text><rect fill="#E2E2F0" height="32.6211" rx="2.5" ry="2.5" style="stroke:#181818;stroke-width:0.5;" width="142.3926" x="1619.1987" y="5"/><text fill="#000000" font-family="sans-serif" font-size="14" lengthAdjust="spacing" textLength="128.3926" x="1626.1987" y="27.1074">propList:PropertyList</text><rect fill="#E2E2F0" height="32.6211" rx="2.5" ry="2.5" style="stroke:#181818;stroke-width:0.5;" width="142.3926" x="1619.1987" y="847.6055"/><text fill="#000000" font-family="sans-serif" font-size="14" lengthAdjust="spacing" textLength="128.3926" x="1626.1987" y="869.7129">propList:PropertyList</text><rect fill="#E2E2F0" height="32.6211" rx="2.5" ry="2.5" style="stroke:#181818;stroke-width:0.5;" width="117.4824" x="1861.2681" y="5"/><text fill="#000000" font-family="sans-serif" font-size="14" lengthAdjust="spacing" textLength="103.4824" x="1868.2681" y="27.1074">result:HttpResult</text><rect fill="#E2E2F0" height="32.6211" rx="2.5" ry="2.5" style="stroke:#181818;stroke-width:0.5;" width="117.4824" x="1861.2681" y="847.6055"/><text fill="#000000" font-family="sans-serif" font-size="14" lengthAdjust="spacing" textLength="103.4824" x="1868.2681" y="869.7129">result:HttpResult</text><rect fill="#FFFFFF" height="790.9844" style="stroke:#181818;stroke-width:1.0;" width="10" x="45.1172" y="48.6211"/><rect fill="#FFFFFF" height="758.6934" style="stroke:#181818;stroke-width:1.0;" width="10" x="177.1025" y="71.9121"/><rect fill="#FFFFFF" height="42.291" style="stroke:#181818;stroke-width:1.0;" width="10" x="182.1025" y="173.7852"/><rect fill="#FFFFFF" height="736.4023" style="stroke:#181818;stroke-width:1.0;" width="10" x="353.877" y="103.2031"/><rect fill="#FFFFFF" height="705.1113" style="stroke:#181818;stroke-width:1.0;" width="10" x="499.6455" y="134.4941"/><rect fill="#FFFFFF" height="585.2383" style="stroke:#181818;stroke-width:1.0;" width="10" x="657.4932" y="254.3672"/><rect fill="#FFFFFF" height="36.291" style="stroke:#181818;stroke-width:1.0;" width="10" x="662.4932" y="763.0234"/><rect fill="#FFFFFF" height="438.0742" style="stroke:#181818;stroke-width:1.0;" width="10" x="860.9448" y="285.6582"/><rect fill="#FFFFFF" height="312.9102" style="stroke:#181818;stroke-width:1.0;" width="10" x="865.9448" y="316.9492"/><rect fill="#FFFFFF" height="31.291" style="stroke:#181818;stroke-width:1.0;" width="10" x="1001.542" y="348.2402"/><rect fill="#FFFFFF" height="428.7832" style="stroke:#181818;stroke-width:1.0;" width="10" x="1156.2554" y="410.8223"/><rect fill="#FFFFFF" height="93.873" style="stroke:#181818;stroke-width:1.0;" width="10" x="1161.2554" y="504.6953"/><rect fill="#FFFFFF" height="31.291" style="stroke:#181818;stroke-width:1.0;" width="10" x="1341.7134" y="442.1133"/><rect fill="#FFFFFF" height="31.291" style="stroke:#181818;stroke-width:1.0;" width="10" x="1521.3301" y="535.9863"/><rect fill="#FFFFFF" height="31.291" style="stroke:#181818;stroke-width:1.0;" width="10" x="1915.0093" y="661.1504"/><polygon fill="#181818" points="165.1025,67.9121,175.1025,71.9121,165.1025,75.9121,169.1025,71.9121" style="stroke:#181818;stroke-width:1.0;"/><line style="stroke:#181818;stroke-width:1.0;" x1="55.1172" x2="171.1025" y1="71.9121" y2="71.9121"/><text fill="#000000" font-family="sans-serif" font-size="13" font-weight="bold" lengthAdjust="spacing" textLength="7.23" x="62.1172" y="66.6494">1</text><text fill="#000000" font-family="sans-serif" font-size="13" lengthAdjust="spacing" textLength="91.7554" x="73.3472" y="66.6494">GET /properties</text><polygon fill="#181818" points="341.877,99.2031,351.877,103.2031,341.877,107.2031,345.877,103.2031" style="stroke:#181818;stroke-width:1.0;"/><line style="stroke:#181818;stroke-width:1.0;" x1="187.1025" x2="347.877" y1="103.2031" y2="103.2031"/><text fill="#000000" font-family="sans-serif" font-size="13" font-weight="bold" lengthAdjust="spacing" textLength="7.23" x="194.1025" y="97.9404">2</text><text fill="#000000" font-family="sans-serif" font-size="13" lengthAdjust="spacing" textLength="136.5444" x="205.3325" y="97.9404">create(GET /properties)</text><polygon fill="#181818" points="487.6455,130.4941,497.6455,134.4941,487.6455,138.4941,491.6455,134.4941" style="stroke:#181818;stroke-width:1.0;"/><line style="stroke:#181818;stroke-width:1.0;" x1="187.1025" x2="493.6455" y1="134.4941" y2="134.4941"/><text fill="#000000" font-family="sans-serif" font-size="13" font-weight="bold" lengthAdjust="spacing" textLength="7.23" x="194.1025" y="129.2314">3</text><text fill="#000000" font-family="sans-serif" font-size="13" lengthAdjust="spacing" textLength="66.479" x="205.3325" y="129.2314">create(404)</text><line style="stroke:#181818;stroke-width:1.0;" x1="187.1025" x2="234.1025" y1="160.7852" y2="160.7852"/><line style="stroke:#181818;stroke-width:1.0;" x1="234.1025" x2="234.1025" y1="160.7852" y2="173.7852"/><line style="stroke:#181818;stroke-width:1.0;" x1="193.1025" x2="234.1025" y1="173.7852" y2="173.7852"/><polygon fill="#181818" points="203.1025,169.7852,193.1025,173.7852,203.1025,177.7852,199.1025,173.7852" style="stroke:#181818;stroke-width:1.0;"/><text fill="#000000" font-family="sans-serif" font-size="13" font-weight="bold" lengthAdjust="spacing" textLength="7.23" x="199.1025" y="155.5225">4</text><text fill="#000000" font-family="sans-serif" font-size="13" lengthAdjust="spacing" textLength="93.9326" x="210.3325" y="155.5225">findHandler(req)</text><line style="stroke:#181818;stroke-width:1.0;stroke-dasharray:2.0,2.0;" x1="192.1025" x2="234.1025" y1="215.0762" y2="215.0762"/><line style="stroke:#181818;stroke-width:1.0;stroke-dasharray:2.0,2.0;" x1="234.1025" x2="234.1025" y1="215.0762" y2="228.0762"/><line style="stroke:#181818;stroke-width:1.0;stroke-dasharray:2.0,2.0;" x1="187.1025" x2="234.1025" y1="228.0762" y2="228.0762"/><polygon fill="#181818" points="197.1025,224.0762,187.1025,228.0762,197.1025,232.0762,193.1025,228.0762" style="stroke:#181818;stroke-width:1.0;"/><text fill="#000000" font-family="sans-serif" font-size="13" font-weight="bold" lengthAdjust="spacing" textLength="7.23" x="199.1025" y="209.8135">5</text><text fill="#000000" font-family="sans-serif" font-size="13" lengthAdjust="spacing" textLength="43.3672" x="210.3325" y="209.8135">handler</text><polygon fill="#181818" points="645.4932,250.3672,655.4932,254.3672,645.4932,258.3672,649.4932,254.3672" style="stroke:#181818;stroke-width:1.0;"/><line style="stroke:#181818;stroke-width:1.0;" x1="187.1025" x2="651.4932" y1="254.3672" y2="254.3672"/><text fill="#000000" font-family="sans-serif" font-size="13" font-weight="bold" lengthAdjust="spacing" textLength="7.23" x="194.1025" y="249.1045">6</text><text fill="#000000" font-family="sans-serif" font-size="13" lengthAdjust="spacing" textLength="78.749" x="205.3325" y="249.1045">run(req, resp)</text><polygon fill="#181818" points="848.9448,281.6582,858.9448,285.6582,848.9448,289.6582,852.9448,285.6582" style="stroke:#181818;stroke-width:1.0;"/><line style="stroke:#181818;stroke-width:1.0;" x1="667.4932" x2="854.9448" y1="285.6582" y2="285.6582"/><text fill="#000000" font-family="sans-serif" font-size="13" font-weight="bold" lengthAdjust="spacing" textLength="7.23" x="674.4932" y="280.3955">7</text><text fill="#000000" font-family="sans-serif" font-size="13" lengthAdjust="spacing" textLength="55.6245" x="685.7231" y="280.3955">create(...)</text><polygon fill="#181818" points="853.9448,312.9492,863.9448,316.9492,853.9448,320.9492,857.9448,316.9492" style="stroke:#181818;stroke-width:1.0;"/><line style="stroke:#181818;stroke-width:1.0;" x1="667.4932" x2="859.9448" y1="316.9492" y2="316.9492"/><text fill="#000000" font-family="sans-serif" font-size="13" font-weight="bold" lengthAdjust="spacing" textLength="7.23" x="674.4932" y="311.6865">8</text><text fill="#000000" font-family="sans-serif" font-size="13" lengthAdjust="spacing" textLength="85.979" x="685.7231" y="311.6865">getProperties()</text><polygon fill="#181818" points="989.542,344.2402,999.542,348.2402,989.542,352.2402,993.542,348.2402" style="stroke:#181818;stroke-width:1.0;"/><line style="stroke:#181818;stroke-width:1.0;" x1="875.9448" x2="995.542" y1="348.2402" y2="348.2402"/><text fill="#000000" font-family="sans-serif" font-size="13" font-weight="bold" lengthAdjust="spacing" textLength="7.23" x="882.9448" y="342.9775">9</text><text fill="#000000" font-family="sans-serif" font-size="13" lengthAdjust="spacing" textLength="95.3672" x="894.1748" y="342.9775">validateAccess()</text><polygon fill="#181818" points="886.9448,375.5313,876.9448,379.5313,886.9448,383.5313,882.9448,379.5313" style="stroke:#181818;stroke-width:1.0;"/><line style="stroke:#181818;stroke-width:1.0;stroke-dasharray:2.0,2.0;" x1="880.9448" x2="1005.542" y1="379.5313" y2="379.5313"/><text fill="#000000" font-family="sans-serif" font-size="13" font-weight="bold" lengthAdjust="spacing" textLength="14.46" x="892.9448" y="374.2686">10</text><text fill="#000000" font-family="sans-serif" font-size="13" lengthAdjust="spacing" textLength="57.0718" x="911.4048" y="374.2686">accessOk</text><polygon fill="#181818" points="1144.2554,406.8223,1154.2554,410.8223,1144.2554,414.8223,1148.2554,410.8223" style="stroke:#181818;stroke-width:1.0;"/><line style="stroke:#181818;stroke-width:1.0;" x1="875.9448" x2="1150.2554" y1="410.8223" y2="410.8223"/><text fill="#000000" font-family="sans-serif" font-size="13" font-weight="bold" lengthAdjust="spacing" textLength="14.46" x="882.9448" y="405.5596">11</text><text fill="#000000" font-family="sans-serif" font-size="13" lengthAdjust="spacing" textLength="96.0908" x="901.4048" y="405.5596">fetchProperties()</text><polygon fill="#181818" points="1329.7134,438.1133,1339.7134,442.1133,1329.7134,446.1133,1333.7134,442.1133" style="stroke:#181818;stroke-width:1.0;"/><line style="stroke:#181818;stroke-width:1.0;" x1="1166.2554" x2="1335.7134" y1="442.1133" y2="442.1133"/><text fill="#000000" font-family="sans-serif" font-size="13" font-weight="bold" lengthAdjust="spacing" textLength="14.46" x="1173.2554" y="436.8506">12</text><text fill="#000000" font-family="sans-serif" font-size="13" lengthAdjust="spacing" textLength="137.998" x="1191.7153" y="436.8506">getPropertyRepository()</text><polygon fill="#181818" points="1177.2554,469.4043,1167.2554,473.4043,1177.2554,477.4043,1173.2554,473.4043" style="stroke:#181818;stroke-width:1.0;"/><line style="stroke:#181818;stroke-width:1.0;stroke-dasharray:2.0,2.0;" x1="1171.2554" x2="1345.7134" y1="473.4043" y2="473.4043"/><text fill="#000000" font-family="sans-serif" font-size="13" font-weight="bold" lengthAdjust="spacing" textLength="14.46" x="1183.2554" y="468.1416">13</text><text fill="#000000" font-family="sans-serif" font-size="13" lengthAdjust="spacing" textLength="26.019" x="1201.7153" y="468.1416">repo</text><polygon fill="#181818" points="1149.2554,500.6953,1159.2554,504.6953,1149.2554,508.6953,1153.2554,504.6953" style="stroke:#181818;stroke-width:1.0;"/><line style="stroke:#181818;stroke-width:1.0;" x1="875.9448" x2="1155.2554" y1="504.6953" y2="504.6953"/><text fill="#000000" font-family="sans-serif" font-size="13" font-weight="bold" lengthAdjust="spacing" textLength="14.46" x="882.9448" y="499.4326">14</text><text fill="#000000" font-family="sans-serif" font-size="13" lengthAdjust="spacing" textLength="70.8081" x="901.4048" y="499.4326">create(repo)</text><polygon fill="#181818" points="1509.3301,531.9863,1519.3301,535.9863,1509.3301,539.9863,1513.3301,535.9863" style="stroke:#181818;stroke-width:1.0;"/><line style="stroke:#181818;stroke-width:1.0;" x1="875.9448" x2="1515.3301" y1="535.9863" y2="535.9863"/><text fill="#000000" font-family="sans-serif" font-size="13" font-weight="bold" lengthAdjust="spacing" textLength="14.46" x="882.9448" y="530.7236">15</text><text fill="#000000" font-family="sans-serif" font-size="13" lengthAdjust="spacing" textLength="100.4263" x="901.4048" y="530.7236">getAllProperties()</text><polygon fill="#181818" points="1182.2554,563.2773,1172.2554,567.2773,1182.2554,571.2773,1178.2554,567.2773" style="stroke:#181818;stroke-width:1.0;"/><line style="stroke:#181818;stroke-width:1.0;stroke-dasharray:2.0,2.0;" x1="1176.2554" x2="1525.3301" y1="567.2773" y2="567.2773"/><text fill="#000000" font-family="sans-serif" font-size="13" font-weight="bold" lengthAdjust="spacing" textLength="14.46" x="1188.2554" y="562.0146">16</text><text fill="#000000" font-family="sans-serif" font-size="13" lengthAdjust="spacing" textLength="75.1499" x="1206.7153" y="562.0146">propertyData</text><polygon fill="#181818" points="886.9448,594.5684,876.9448,598.5684,886.9448,602.5684,882.9448,598.5684" style="stroke:#181818;stroke-width:1.0;"/><line style="stroke:#181818;stroke-width:1.0;stroke-dasharray:2.0,2.0;" x1="880.9448" x2="1155.2554" y1="598.5684" y2="598.5684"/><text fill="#000000" font-family="sans-serif" font-size="13" font-weight="bold" lengthAdjust="spacing" textLength="14.46" x="892.9448" y="593.3057">17</text><text fill="#000000" font-family="sans-serif" font-size="13" lengthAdjust="spacing" textLength="75.1499" x="911.4048" y="593.3057">propertyData</text><polygon fill="#181818" points="1678.395,625.8594,1688.395,629.8594,1678.395,633.8594,1682.395,629.8594" style="stroke:#181818;stroke-width:1.0;"/><line style="stroke:#181818;stroke-width:1.0;stroke-dasharray:2.0,2.0;" x1="870.9448" x2="1684.395" y1="629.8594" y2="629.8594"/><text fill="#000000" font-family="sans-serif" font-size="13" font-weight="bold" lengthAdjust="spacing" textLength="14.46" x="877.9448" y="624.5967">18</text><text fill="#000000" font-family="sans-serif" font-size="13" lengthAdjust="spacing" textLength="119.939" x="896.4048" y="624.5967">create(propertyData)</text><polygon fill="#181818" points="1903.0093,657.1504,1913.0093,661.1504,1903.0093,665.1504,1907.0093,661.1504" style="stroke:#181818;stroke-width:1.0;"/><line style="stroke:#181818;stroke-width:1.0;" x1="1690.395" x2="1909.0093" y1="661.1504" y2="661.1504"/><text fill="#000000" font-family="sans-serif" font-size="13" font-weight="bold" lengthAdjust="spacing" textLength="14.46" x="1697.395" y="655.8877">19</text><text fill="#000000" font-family="sans-serif" font-size="13" lengthAdjust="spacing" textLength="187.1543" x="1715.855" y="655.8877">prepareResponse(propertyData)</text><polygon fill="#181818" points="881.9448,688.4414,871.9448,692.4414,881.9448,696.4414,877.9448,692.4414" style="stroke:#181818;stroke-width:1.0;"/><line style="stroke:#181818;stroke-width:1.0;stroke-dasharray:2.0,2.0;" x1="875.9448" x2="1919.0093" y1="692.4414" y2="692.4414"/><text fill="#000000" font-family="sans-serif" font-size="13" font-weight="bold" lengthAdjust="spacing" textLength="14.46" x="887.9448" y="687.1787">20</text><text fill="#000000" font-family="sans-serif" font-size="13" lengthAdjust="spacing" textLength="31.7891" x="906.4048" y="687.1787">result</text><polygon fill="#181818" points="678.4932,719.7324,668.4932,723.7324,678.4932,727.7324,674.4932,723.7324" style="stroke:#181818;stroke-width:1.0;"/><line style="stroke:#181818;stroke-width:1.0;stroke-dasharray:2.0,2.0;" x1="672.4932" x2="864.9448" y1="723.7324" y2="723.7324"/><text fill="#000000" font-family="sans-serif" font-size="13" font-weight="bold" lengthAdjust="spacing" textLength="14.46" x="684.4932" y="718.4697">21</text><text fill="#000000" font-family="sans-serif" font-size="13" lengthAdjust="spacing" textLength="31.7891" x="702.9531" y="718.4697">result</text><line style="stroke:#181818;stroke-width:1.0;" x1="667.4932" x2="714.4932" y1="750.0234" y2="750.0234"/><line style="stroke:#181818;stroke-width:1.0;" x1="714.4932" x2="714.4932" y1="750.0234" y2="763.0234"/><line style="stroke:#181818;stroke-width:1.0;" x1="673.4932" x2="714.4932" y1="763.0234" y2="763.0234"/><polygon fill="#181818" points="683.4932,759.0234,673.4932,763.0234,683.4932,767.0234,679.4932,763.0234" style="stroke:#181818;stroke-width:1.0;"/><text fill="#000000" font-family="sans-serif" font-size="13" font-weight="bold" lengthAdjust="spacing" textLength="14.46" x="679.4932" y="744.7607">22</text><text fill="#000000" font-family="sans-serif" font-size="13" lengthAdjust="spacing" textLength="150.9917" x="697.9531" y="744.7607">setHttpResult(resp, result)</text><polygon fill="#181818" points="198.1025,795.3145,188.1025,799.3145,198.1025,803.3145,194.1025,799.3145" style="stroke:#181818;stroke-width:1.0;"/><line style="stroke:#181818;stroke-width:1.0;stroke-dasharray:2.0,2.0;" x1="192.1025" x2="656.4932" y1="799.3145" y2="799.3145"/><text fill="#000000" font-family="sans-serif" font-size="13" font-weight="bold" lengthAdjust="spacing" textLength="14.46" x="204.1025" y="794.0518">23</text><text fill="#000000" font-family="sans-serif" font-size="13" lengthAdjust="spacing" textLength="25.2891" x="222.5625" y="794.0518">resp</text><polygon fill="#181818" points="66.1172,826.6055,56.1172,830.6055,66.1172,834.6055,62.1172,830.6055" style="stroke:#181818;stroke-width:1.0;"/><line style="stroke:#181818;stroke-width:1.0;stroke-dasharray:2.0,2.0;" x1="60.1172" x2="181.1025" y1="830.6055" y2="830.6055"/><text fill="#000000" font-family="sans-serif" font-size="13" font-weight="bold" lengthAdjust="spacing" textLength="14.46" x="72.1172" y="825.3428">24</text><text fill="#000000" font-family="sans-serif" font-size="13" lengthAdjust="spacing" textLength="25.2891" x="90.5771" y="825.3428">resp</text><!--SRC=[RPFFRjim3CRlUWgXfnXeqnrwyc50aMtDOS2297q0pM5ROQwaIdA0lFr4KTOV9pUH_F4JPNuMazTYyF8iF72jc0YncZx_WcNC2Elb88rGdj_rs-DnjnabA7_7XUCblC4Tm9x1Pex2bhFm5T4zV4tWYcQAbx0pYNP6AmSLJecM_n3gD8BjzthoiAKWjXmkpiFdOkATrGQilsoqybQFCxlnTboGhyh2kmmI5awlBd5uQBcGECi1il21Ofg0pct3MrY1jfT-3qOxYSTVb8ajwRpy94Rd2qfVRC2mfKq0VuV1SmS6aQqJLnzz6ds_zTxiup5fuv6nR9hA2AoS-SFtQlKzV_bvv8-6xfBWMAdDP5fypmSBGNUrwEXkjj3oSy_JjwTRt3p4crIdv8PLy5-BBjXaeOKQ-QVdTbAeSC_HcHrZb4S2NPFdMQ_NtLNj7VmkFslLCSnY5NtKyxCOvIdqFWy3E2nZEav7tIBc__pBRSbGuNNWXuz6EPMGIXxYzVMLRG8y4m-r9hhi-gRqEYoMyL4igZ-FOpC55bhLjDNB3-556J8_iIcJVAZLHiqZr6Z7QeH6YWuEWX2S3RDT5br4LVUJySlDUUcKB_kS2mvy-KjMQ8dx19VjB-o5q2txqTz3zVy0]--></g></svg>