<svg xmlns="http://www.w3.org/2000/svg" xmlns:xlink="http://www.w3.org/1999/xlink" contentStyleType="text/css" height="249px" preserveAspectRatio="none" style="width:342px;height:249px;background:#FFFFFF;" version="1.1" viewBox="0 0 342 249" width="342px" zoomAndPan="magnify"><defs/><g><rect fill="#FFFFFF" height="63.582" style="stroke:#181818;stroke-width:1.0;" width="10" x="57.855" y="93.6211"/><rect fill="#FFFFFF" height="31.291" style="stroke:#181818;stroke-width:1.0;" width="10" x="299.6274" y="116.9121"/><line style="stroke:#181818;stroke-width:0.5;stroke-dasharray:5.0,5.0;" x1="62" x2="62" y1="83.6211" y2="166.2031"/><line style="stroke:#181818;stroke-width:0.5;stroke-dasharray:5.0,5.0;" x1="304.3447" x2="304.3447" y1="83.6211" y2="166.2031"/><text fill="#000000" font-family="sans-serif" font-size="14" lengthAdjust="spacing" textLength="109.71" x="5" y="80.1074">UnregisteredUser</text><ellipse cx="62.855" cy="13.5" fill="#E2E2F0" rx="8" ry="8" style="stroke:#181818;stroke-width:0.5;"/><path d="M62.855,21.5 L62.855,48.5 M49.855,29.5 L75.855,29.5 M62.855,48.5 L49.855,63.5 M62.855,48.5 L75.855,63.5 " fill="none" style="stroke:#181818;stroke-width:0.5;"/><text fill="#000000" font-family="sans-serif" font-size="14" lengthAdjust="spacing" textLength="109.71" x="5" y="180.3105">UnregisteredUser</text><ellipse cx="62.855" cy="192.3242" fill="#E2E2F0" rx="8" ry="8" style="stroke:#181818;stroke-width:0.5;"/><path d="M62.855,200.3242 L62.855,227.3242 M49.855,208.3242 L75.855,208.3242 M62.855,227.3242 L49.855,242.3242 M62.855,227.3242 L75.855,242.3242 " fill="none" style="stroke:#181818;stroke-width:0.5;"/><rect fill="#E2E2F0" height="32.6211" rx="2.5" ry="2.5" style="stroke:#181818;stroke-width:0.5;" width="64.5654" x="272.3447" y="50"/><text fill="#000000" font-family="sans-serif" font-size="14" lengthAdjust="spacing" textLength="50.5654" x="279.3447" y="72.1074">:System</text><rect fill="#E2E2F0" height="32.6211" rx="2.5" ry="2.5" style="stroke:#181818;stroke-width:0.5;" width="64.5654" x="272.3447" y="165.2031"/><text fill="#000000" font-family="sans-serif" font-size="14" lengthAdjust="spacing" textLength="50.5654" x="279.3447" y="187.3105">:System</text><rect fill="#FFFFFF" height="63.582" style="stroke:#181818;stroke-width:1.0;" width="10" x="57.855" y="93.6211"/><rect fill="#FFFFFF" height="31.291" style="stroke:#181818;stroke-width:1.0;" width="10" x="299.6274" y="116.9121"/><polygon fill="#181818" points="287.6274,112.9121,297.6274,116.9121,287.6274,120.9121,291.6274,116.9121" style="stroke:#181818;stroke-width:1.0;"/><line style="stroke:#181818;stroke-width:1.0;" x1="67.855" x2="293.6274" y1="116.9121" y2="116.9121"/><text fill="#000000" font-family="sans-serif" font-size="13" font-weight="bold" lengthAdjust="spacing" textLength="7.23" x="74.855" y="111.6494">1</text><text fill="#000000" font-family="sans-serif" font-size="13" lengthAdjust="spacing" textLength="189.3125" x="86.085" y="111.6494">requests to view listed properties</text><polygon fill="#181818" points="78.855,144.2031,68.855,148.2031,78.855,152.2031,74.855,148.2031" style="stroke:#181818;stroke-width:1.0;"/><line style="stroke:#181818;stroke-width:1.0;stroke-dasharray:2.0,2.0;" x1="72.855" x2="303.6274" y1="148.2031" y2="148.2031"/><text fill="#000000" font-family="sans-serif" font-size="13" font-weight="bold" lengthAdjust="spacing" textLength="7.23" x="84.855" y="142.9404">2</text><text fill="#000000" font-family="sans-serif" font-size="13" lengthAdjust="spacing" textLength="196.5425" x="96.085" y="142.9404">displays available property listings</text><!--SRC=[POr13eD030FlUON5dGzmw2Sg7X0WgYB1xZO9LFo-MsWlz9RO7flNo3o6RXo2d8ZhdzPb42EgUZOqVJ9vg8UOJBsBDM37LQJ25ZfguHHekljUhUL8dkVHTgxyeNHLqDw-M0UJvoeUZiZOL5wOFy49nNAHEYbEPnHjfQvD7IRrClFku8rrvc6M7xeVLPeUJlG6]--></g></svg>