<svg xmlns="http://www.w3.org/2000/svg" xmlns:xlink="http://www.w3.org/1999/xlink" contentStyleType="text/css" height="731px" preserveAspectRatio="none" style="width:1335px;height:731px;background:#FFFFFF;" version="1.1" viewBox="0 0 1335 731" width="1335px" zoomAndPan="magnify"><defs/><g><rect fill="#FFFFFF" height="545.2773" style="stroke:#181818;stroke-width:1.0;" width="10" x="20.8965" y="93.6211"/><rect fill="#FFFFFF" height="512.9863" style="stroke:#181818;stroke-width:1.0;" width="10" x="220.0254" y="116.9121"/><rect fill="#FFFFFF" height="450.4043" style="stroke:#181818;stroke-width:1.0;" width="10" x="474.1143" y="148.2031"/><rect fill="#FFFFFF" height="137.4941" style="stroke:#181818;stroke-width:1.0;" width="10" x="617.6523" y="179.4941"/><rect fill="#FFFFFF" height="219.0371" style="stroke:#181818;stroke-width:1.0;" width="10" x="801.042" y="348.2793"/><rect fill="#FFFFFF" height="31.291" style="stroke:#181818;stroke-width:1.0;" width="10" x="970.1416" y="210.7852"/><rect fill="#FFFFFF" height="31.291" style="stroke:#181818;stroke-width:1.0;" width="10" x="1141.1963" y="379.5703"/><rect fill="#FFFFFF" height="31.291" style="stroke:#181818;stroke-width:1.0;" width="10" x="1141.1963" y="504.7344"/><rect fill="#FFFFFF" height="31.291" style="stroke:#181818;stroke-width:1.0;" width="10" x="1274.9131" y="442.1523"/><line style="stroke:#181818;stroke-width:0.5;stroke-dasharray:5.0,5.0;" x1="25" x2="25" y1="83.6211" y2="647.8984"/><line style="stroke:#181818;stroke-width:0.5;stroke-dasharray:5.0,5.0;" x1="224.5049" x2="224.5049" y1="83.6211" y2="647.8984"/><line style="stroke:#181818;stroke-width:0.5;stroke-dasharray:5.0,5.0;" x1="478.4214" x2="478.4214" y1="83.6211" y2="647.8984"/><line style="stroke:#181818;stroke-width:0.5;stroke-dasharray:5.0,5.0;" x1="622.4629" x2="622.4629" y1="83.6211" y2="647.8984"/><line style="stroke:#181818;stroke-width:0.5;stroke-dasharray:5.0,5.0;" x1="805.6904" x2="805.6904" y1="281.8867" y2="647.8984"/><line style="stroke:#181818;stroke-width:0.5;stroke-dasharray:5.0,5.0;" x1="974.3936" x2="974.3936" y1="83.6211" y2="647.8984"/><line style="stroke:#181818;stroke-width:0.5;stroke-dasharray:5.0,5.0;" x1="1145.8896" x2="1145.8896" y1="83.6211" y2="647.8984"/><line style="stroke:#181818;stroke-width:0.5;stroke-dasharray:5.0,5.0;" x1="1279.5029" x2="1279.5029" y1="83.6211" y2="647.8984"/><text fill="#000000" font-family="sans-serif" font-size="14" lengthAdjust="spacing" textLength="35.793" x="5" y="80.1074">Client</text><ellipse cx="25.8965" cy="13.5" fill="#E2E2F0" rx="8" ry="8" style="stroke:#181818;stroke-width:0.5;"/><path d="M25.8965,21.5 L25.8965,48.5 M12.8965,29.5 L38.8965,29.5 M25.8965,48.5 L12.8965,63.5 M25.8965,48.5 L38.8965,63.5 " fill="none" style="stroke:#181818;stroke-width:0.5;"/><text fill="#000000" font-family="sans-serif" font-size="14" lengthAdjust="spacing" textLength="35.793" x="5" y="662.0059">Client</text><ellipse cx="25.8965" cy="674.0195" fill="#E2E2F0" rx="8" ry="8" style="stroke:#181818;stroke-width:0.5;"/><path d="M25.8965,682.0195 L25.8965,709.0195 M12.8965,690.0195 L38.8965,690.0195 M25.8965,709.0195 L12.8965,724.0195 M25.8965,709.0195 L38.8965,724.0195 " fill="none" style="stroke:#181818;stroke-width:0.5;"/><rect fill="#E2E2F0" height="32.6211" rx="2.5" ry="2.5" style="stroke:#181818;stroke-width:0.5;" width="119.041" x="165.5049" y="50"/><text fill="#000000" font-family="sans-serif" font-size="14" lengthAdjust="spacing" textLength="105.041" x="172.5049" y="72.1074">:PlaceOrderView</text><rect fill="#E2E2F0" height="32.6211" rx="2.5" ry="2.5" style="stroke:#181818;stroke-width:0.5;" width="119.041" x="165.5049" y="646.8984"/><text fill="#000000" font-family="sans-serif" font-size="14" lengthAdjust="spacing" textLength="105.041" x="172.5049" y="669.0059">:PlaceOrderView</text><rect fill="#E2E2F0" height="32.6211" rx="2.5" ry="2.5" style="stroke:#181818;stroke-width:0.5;" width="149.3857" x="404.4214" y="50"/><text fill="#000000" font-family="sans-serif" font-size="14" lengthAdjust="spacing" textLength="135.3857" x="411.4214" y="72.1074">:PlaceOrderController</text><rect fill="#E2E2F0" height="32.6211" rx="2.5" ry="2.5" style="stroke:#181818;stroke-width:0.5;" width="149.3857" x="404.4214" y="646.8984"/><text fill="#000000" font-family="sans-serif" font-size="14" lengthAdjust="spacing" textLength="135.3857" x="411.4214" y="669.0059">:PlaceOrderController</text><rect fill="#E2E2F0" height="32.6211" rx="2.5" ry="2.5" style="stroke:#181818;stroke-width:0.5;" width="86.3789" x="579.4629" y="50"/><text fill="#000000" font-family="sans-serif" font-size="14" lengthAdjust="spacing" textLength="72.3789" x="586.4629" y="72.1074">:Application</text><rect fill="#E2E2F0" height="32.6211" rx="2.5" ry="2.5" style="stroke:#181818;stroke-width:0.5;" width="86.3789" x="579.4629" y="646.8984"/><text fill="#000000" font-family="sans-serif" font-size="14" lengthAdjust="spacing" textLength="72.3789" x="586.4629" y="669.0059">:Application</text><rect fill="#E2E2F0" height="32.6211" rx="2.5" ry="2.5" style="stroke:#181818;stroke-width:0.5;" width="144.7031" x="733.6904" y="646.8984"/><text fill="#000000" font-family="sans-serif" font-size="14" lengthAdjust="spacing" textLength="130.7031" x="740.6904" y="669.0059">service:OrderService</text><rect fill="#E2E2F0" height="32.6211" rx="2.5" ry="2.5" style="stroke:#181818;stroke-width:0.5;" width="173.4961" x="888.3936" y="50"/><text fill="#000000" font-family="sans-serif" font-size="14" lengthAdjust="spacing" textLength="159.4961" x="895.3936" y="72.1074">factory:RepositoryFactory</text><rect fill="#E2E2F0" height="32.6211" rx="2.5" ry="2.5" style="stroke:#181818;stroke-width:0.5;" width="173.4961" x="888.3936" y="646.8984"/><text fill="#000000" font-family="sans-serif" font-size="14" lengthAdjust="spacing" textLength="159.4961" x="895.3936" y="669.0059">factory:RepositoryFactory</text><rect fill="#E2E2F0" height="32.6211" rx="2.5" ry="2.5" style="stroke:#181818;stroke-width:0.5;" width="148.6133" x="1071.8896" y="50"/><text fill="#000000" font-family="sans-serif" font-size="14" lengthAdjust="spacing" textLength="134.6133" x="1078.8896" y="72.1074">repo:OrderRepository</text><rect fill="#E2E2F0" height="32.6211" rx="2.5" ry="2.5" style="stroke:#181818;stroke-width:0.5;" width="148.6133" x="1071.8896" y="646.8984"/><text fill="#000000" font-family="sans-serif" font-size="14" lengthAdjust="spacing" textLength="134.6133" x="1078.8896" y="669.0059">repo:OrderRepository</text><rect fill="#E2E2F0" height="32.6211" rx="2.5" ry="2.5" style="stroke:#181818;stroke-width:0.5;" width="98.8203" x="1230.5029" y="50"/><text fill="#000000" font-family="sans-serif" font-size="14" lengthAdjust="spacing" textLength="84.8203" x="1237.5029" y="72.1074">prop:Property</text><rect fill="#E2E2F0" height="32.6211" rx="2.5" ry="2.5" style="stroke:#181818;stroke-width:0.5;" width="98.8203" x="1230.5029" y="646.8984"/><text fill="#000000" font-family="sans-serif" font-size="14" lengthAdjust="spacing" textLength="84.8203" x="1237.5029" y="669.0059">prop:Property</text><rect fill="#FFFFFF" height="545.2773" style="stroke:#181818;stroke-width:1.0;" width="10" x="20.8965" y="93.6211"/><rect fill="#FFFFFF" height="512.9863" style="stroke:#181818;stroke-width:1.0;" width="10" x="220.0254" y="116.9121"/><rect fill="#FFFFFF" height="450.4043" style="stroke:#181818;stroke-width:1.0;" width="10" x="474.1143" y="148.2031"/><rect fill="#FFFFFF" height="137.4941" style="stroke:#181818;stroke-width:1.0;" width="10" x="617.6523" y="179.4941"/><rect fill="#FFFFFF" height="219.0371" style="stroke:#181818;stroke-width:1.0;" width="10" x="801.042" y="348.2793"/><rect fill="#FFFFFF" height="31.291" style="stroke:#181818;stroke-width:1.0;" width="10" x="970.1416" y="210.7852"/><rect fill="#FFFFFF" height="31.291" style="stroke:#181818;stroke-width:1.0;" width="10" x="1141.1963" y="379.5703"/><rect fill="#FFFFFF" height="31.291" style="stroke:#181818;stroke-width:1.0;" width="10" x="1141.1963" y="504.7344"/><rect fill="#FFFFFF" height="31.291" style="stroke:#181818;stroke-width:1.0;" width="10" x="1274.9131" y="442.1523"/><polygon fill="#181818" points="208.0254,112.9121,218.0254,116.9121,208.0254,120.9121,212.0254,116.9121" style="stroke:#181818;stroke-width:1.0;"/><line style="stroke:#181818;stroke-width:1.0;" x1="30.8965" x2="214.0254" y1="116.9121" y2="116.9121"/><text fill="#000000" font-family="sans-serif" font-size="13" font-weight="bold" lengthAdjust="spacing" textLength="7.23" x="37.8965" y="111.6494">1</text><text fill="#000000" font-family="sans-serif" font-size="13" lengthAdjust="spacing" textLength="151.0361" x="49.1265" y="111.6494">requests to place an order</text><polygon fill="#181818" points="462.1143,144.2031,472.1143,148.2031,462.1143,152.2031,466.1143,148.2031" style="stroke:#181818;stroke-width:1.0;"/><line style="stroke:#181818;stroke-width:1.0;" x1="230.0254" x2="468.1143" y1="148.2031" y2="148.2031"/><text fill="#000000" font-family="sans-serif" font-size="13" font-weight="bold" lengthAdjust="spacing" textLength="7.23" x="237.0254" y="142.9404">2</text><text fill="#000000" font-family="sans-serif" font-size="13" lengthAdjust="spacing" textLength="213.8589" x="248.2554" y="142.9404">createOrder(propertyId, orderDetails)</text><polygon fill="#181818" points="605.6523,175.4941,615.6523,179.4941,605.6523,183.4941,609.6523,179.4941" style="stroke:#181818;stroke-width:1.0;"/><line style="stroke:#181818;stroke-width:1.0;" x1="484.1143" x2="611.6523" y1="179.4941" y2="179.4941"/><text fill="#000000" font-family="sans-serif" font-size="13" font-weight="bold" lengthAdjust="spacing" textLength="7.23" x="491.1143" y="174.2314">3</text><text fill="#000000" font-family="sans-serif" font-size="13" lengthAdjust="spacing" textLength="103.3081" x="502.3442" y="174.2314">getOrderService()</text><polygon fill="#181818" points="958.1416,206.7852,968.1416,210.7852,958.1416,214.7852,962.1416,210.7852" style="stroke:#181818;stroke-width:1.0;"/><line style="stroke:#181818;stroke-width:1.0;" x1="627.6523" x2="964.1416" y1="210.7852" y2="210.7852"/><text fill="#000000" font-family="sans-serif" font-size="13" font-weight="bold" lengthAdjust="spacing" textLength="7.23" x="634.6523" y="205.5225">4</text><text fill="#000000" font-family="sans-serif" font-size="13" lengthAdjust="spacing" textLength="122.0972" x="645.8823" y="205.5225">getOrderRepository()</text><polygon fill="#181818" points="638.6523,238.0762,628.6523,242.0762,638.6523,246.0762,634.6523,242.0762" style="stroke:#181818;stroke-width:1.0;"/><line style="stroke:#181818;stroke-width:1.0;stroke-dasharray:2.0,2.0;" x1="632.6523" x2="974.1416" y1="242.0762" y2="242.0762"/><text fill="#000000" font-family="sans-serif" font-size="13" font-weight="bold" lengthAdjust="spacing" textLength="7.23" x="644.6523" y="236.8135">5</text><text fill="#000000" font-family="sans-serif" font-size="13" lengthAdjust="spacing" textLength="26.019" x="655.8823" y="236.8135">repo</text><polygon fill="#181818" points="721.6904,269.3672,731.6904,273.3672,721.6904,277.3672,725.6904,273.3672" style="stroke:#181818;stroke-width:1.0;"/><line style="stroke:#181818;stroke-width:1.0;stroke-dasharray:2.0,2.0;" x1="627.6523" x2="727.6904" y1="273.3672" y2="273.3672"/><text fill="#000000" font-family="sans-serif" font-size="13" font-weight="bold" lengthAdjust="spacing" textLength="7.23" x="634.6523" y="268.1045">6</text><text fill="#000000" font-family="sans-serif" font-size="13" lengthAdjust="spacing" textLength="70.8081" x="645.8823" y="268.1045">create(repo)</text><rect fill="#E2E2F0" height="32.6211" rx="2.5" ry="2.5" style="stroke:#181818;stroke-width:0.5;" width="144.7031" x="733.6904" y="250.0762"/><text fill="#000000" font-family="sans-serif" font-size="14" lengthAdjust="spacing" textLength="130.7031" x="740.6904" y="272.1836">service:OrderService</text><polygon fill="#181818" points="495.1143,312.9883,485.1143,316.9883,495.1143,320.9883,491.1143,316.9883" style="stroke:#181818;stroke-width:1.0;"/><line style="stroke:#181818;stroke-width:1.0;stroke-dasharray:2.0,2.0;" x1="489.1143" x2="621.6523" y1="316.9883" y2="316.9883"/><text fill="#000000" font-family="sans-serif" font-size="13" font-weight="bold" lengthAdjust="spacing" textLength="7.23" x="501.1143" y="311.7256">7</text><text fill="#000000" font-family="sans-serif" font-size="13" lengthAdjust="spacing" textLength="41.1772" x="512.3442" y="311.7256">service</text><polygon fill="#181818" points="789.042,344.2793,799.042,348.2793,789.042,352.2793,793.042,348.2793" style="stroke:#181818;stroke-width:1.0;"/><line style="stroke:#181818;stroke-width:1.0;" x1="484.1143" x2="795.042" y1="348.2793" y2="348.2793"/><text fill="#000000" font-family="sans-serif" font-size="13" font-weight="bold" lengthAdjust="spacing" textLength="7.23" x="491.1143" y="343.0166">8</text><text fill="#000000" font-family="sans-serif" font-size="13" lengthAdjust="spacing" textLength="213.8589" x="502.3442" y="343.0166">createOrder(propertyId, orderDetails)</text><polygon fill="#181818" points="1129.1963,375.5703,1139.1963,379.5703,1129.1963,383.5703,1133.1963,379.5703" style="stroke:#181818;stroke-width:1.0;"/><line style="stroke:#181818;stroke-width:1.0;" x1="811.042" x2="1135.1963" y1="379.5703" y2="379.5703"/><text fill="#000000" font-family="sans-serif" font-size="13" font-weight="bold" lengthAdjust="spacing" textLength="7.23" x="818.042" y="374.3076">9</text><text fill="#000000" font-family="sans-serif" font-size="13" lengthAdjust="spacing" textLength="160.4053" x="829.272" y="374.3076">getPropertyById(propertyId)</text><polygon fill="#181818" points="822.042,406.8613,812.042,410.8613,822.042,414.8613,818.042,410.8613" style="stroke:#181818;stroke-width:1.0;"/><line style="stroke:#181818;stroke-width:1.0;stroke-dasharray:2.0,2.0;" x1="816.042" x2="1145.1963" y1="410.8613" y2="410.8613"/><text fill="#000000" font-family="sans-serif" font-size="13" font-weight="bold" lengthAdjust="spacing" textLength="14.46" x="828.042" y="405.5986">10</text><text fill="#000000" font-family="sans-serif" font-size="13" lengthAdjust="spacing" textLength="26.019" x="846.502" y="405.5986">prop</text><polygon fill="#181818" points="1262.9131,438.1523,1272.9131,442.1523,1262.9131,446.1523,1266.9131,442.1523" style="stroke:#181818;stroke-width:1.0;"/><line style="stroke:#181818;stroke-width:1.0;" x1="811.042" x2="1268.9131" y1="442.1523" y2="442.1523"/><text fill="#000000" font-family="sans-serif" font-size="13" font-weight="bold" lengthAdjust="spacing" textLength="14.46" x="818.042" y="436.8896">11</text><text fill="#000000" font-family="sans-serif" font-size="13" lengthAdjust="spacing" textLength="114.8799" x="836.502" y="436.8896">validateAvailability()</text><polygon fill="#181818" points="822.042,469.4434,812.042,473.4434,822.042,477.4434,818.042,473.4434" style="stroke:#181818;stroke-width:1.0;"/><line style="stroke:#181818;stroke-width:1.0;stroke-dasharray:2.0,2.0;" x1="816.042" x2="1278.9131" y1="473.4434" y2="473.4434"/><text fill="#000000" font-family="sans-serif" font-size="13" font-weight="bold" lengthAdjust="spacing" textLength="14.46" x="828.042" y="468.1807">12</text><text fill="#000000" font-family="sans-serif" font-size="13" lengthAdjust="spacing" textLength="96.8271" x="846.502" y="468.1807">availabilityStatus</text><polygon fill="#181818" points="1129.1963,500.7344,1139.1963,504.7344,1129.1963,508.7344,1133.1963,504.7344" style="stroke:#181818;stroke-width:1.0;"/><line style="stroke:#181818;stroke-width:1.0;" x1="811.042" x2="1135.1963" y1="504.7344" y2="504.7344"/><text fill="#000000" font-family="sans-serif" font-size="13" font-weight="bold" lengthAdjust="spacing" textLength="14.46" x="818.042" y="499.4717">13</text><text fill="#000000" font-family="sans-serif" font-size="13" lengthAdjust="spacing" textLength="139.4326" x="836.502" y="499.4717">saveOrder(orderDetails)</text><polygon fill="#181818" points="822.042,532.0254,812.042,536.0254,822.042,540.0254,818.042,536.0254" style="stroke:#181818;stroke-width:1.0;"/><line style="stroke:#181818;stroke-width:1.0;stroke-dasharray:2.0,2.0;" x1="816.042" x2="1145.1963" y1="536.0254" y2="536.0254"/><text fill="#000000" font-family="sans-serif" font-size="13" font-weight="bold" lengthAdjust="spacing" textLength="14.46" x="828.042" y="530.7627">14</text><text fill="#000000" font-family="sans-serif" font-size="13" lengthAdjust="spacing" textLength="13.73" x="846.502" y="530.7627">ok</text><polygon fill="#181818" points="495.1143,563.3164,485.1143,567.3164,495.1143,571.3164,491.1143,567.3164" style="stroke:#181818;stroke-width:1.0;"/><line style="stroke:#181818;stroke-width:1.0;stroke-dasharray:2.0,2.0;" x1="489.1143" x2="805.042" y1="567.3164" y2="567.3164"/><text fill="#000000" font-family="sans-serif" font-size="13" font-weight="bold" lengthAdjust="spacing" textLength="14.46" x="501.1143" y="562.0537">15</text><text fill="#000000" font-family="sans-serif" font-size="13" lengthAdjust="spacing" textLength="104.0444" x="519.5742" y="562.0537">orderConfirmation</text><polygon fill="#181818" points="241.0254,594.6074,231.0254,598.6074,241.0254,602.6074,237.0254,598.6074" style="stroke:#181818;stroke-width:1.0;"/><line style="stroke:#181818;stroke-width:1.0;stroke-dasharray:2.0,2.0;" x1="235.0254" x2="478.1143" y1="598.6074" y2="598.6074"/><text fill="#000000" font-family="sans-serif" font-size="13" font-weight="bold" lengthAdjust="spacing" textLength="14.46" x="247.0254" y="593.3447">16</text><text fill="#000000" font-family="sans-serif" font-size="13" lengthAdjust="spacing" textLength="104.0444" x="265.4854" y="593.3447">orderConfirmation</text><polygon fill="#181818" points="41.8965,625.8984,31.8965,629.8984,41.8965,633.8984,37.8965,629.8984" style="stroke:#181818;stroke-width:1.0;"/><line style="stroke:#181818;stroke-width:1.0;stroke-dasharray:2.0,2.0;" x1="35.8965" x2="224.0254" y1="629.8984" y2="629.8984"/><text fill="#000000" font-family="sans-serif" font-size="13" font-weight="bold" lengthAdjust="spacing" textLength="14.46" x="47.8965" y="624.6357">17</text><text fill="#000000" font-family="sans-serif" font-size="13" lengthAdjust="spacing" textLength="146.6689" x="66.3564" y="624.6357">confirms order placement</text><!--SRC=[ZPD1J-im3CVl-HJHBco8iNiEJu8X94uW9jxTT6OlUcaJ4hU8Ru-Tf5lBXCIbIkAVdR__SI_-4OLaDflWeAE-TTUDRpS9ttli6bplBHmYj0fwyj2G7O1G-oxlkxvznQWKd_ke5rjdiQE5XgHV4fy7Y6GR6xYiNfWd1mq-nZt6lnO_ChNxJ8JjZzpMTnIzSnWplQNelh4t8JZR05dVPOJtSu9b3BP1a-ljogPSNTPp-YqtyccUCVXaPNbVJd9ANSzJ8gEb-YafqxATeo7wO9xuWv4ACswoWyNPR9oIhrx_gGOP7UKr4YLDNWVnHqEdlTog2YAm-6Dq4v7hP4NBKEi_xAyAVOS4rgML4bPos32Z3qXJVvOhnSSIhHsVY5EF3DMeNezrn8kIAj9BiSlBKT9ImgjZlAYjxwEEWchQR_kek6IAjgnqTFMM-KdgIWanrMQqHASrnbIZ1t1spm9k1hu8Ngsp93sFmBmCJA0T0VNfN5Y2eNOpx-1SbFz_oZuQvUiFyMPZc-UzEZOPadDad0s6PABOr19DXIsZrF8_gxu0]--></g></svg>