<svg xmlns="http://www.w3.org/2000/svg" xmlns:xlink="http://www.w3.org/1999/xlink" contentStyleType="text/css" height="597.5px" preserveAspectRatio="none" style="width:951px;height:597px;background:#FFFFFF;" version="1.1" viewBox="0 0 951 597" width="951px" zoomAndPan="magnify"><defs/><g><rect fill="#FFFFFF" height="504.6758" style="stroke:#181818;stroke-width:0.5;" width="5" x="10.4482" y="46.8105"/><rect fill="#FFFFFF" height="15.6455" style="stroke:#181818;stroke-width:0.5;" width="5" x="214.0698" y="58.4561"/><rect fill="#FFFFFF" height="287.7842" style="stroke:#181818;stroke-width:0.5;" width="5" x="214.0698" y="89.7471"/><rect fill="#FFFFFF" height="153.8096" style="stroke:#181818;stroke-width:0.5;" width="5" x="214.0698" y="393.1768"/><rect fill="#FFFFFF" height="256.4932" style="stroke:#181818;stroke-width:0.5;" width="5" x="441.1946" y="105.3926"/><rect fill="#FFFFFF" height="122.5186" style="stroke:#181818;stroke-width:0.5;" width="5" x="441.1946" y="408.8223"/><rect fill="#FFFFFF" height="68.7471" style="stroke:#181818;stroke-width:0.5;" width="5" x="512.9636" y="121.0381"/><rect fill="#FFFFFF" height="140.8096" style="stroke:#181818;stroke-width:0.5;" width="5" x="629.6685" y="205.4307"/><rect fill="#FFFFFF" height="91.2275" style="stroke:#181818;stroke-width:0.5;" width="5" x="629.6685" y="424.4678"/><rect fill="#FFFFFF" height="21.1455" style="stroke:#181818;stroke-width:0.5;" width="5" x="632.1685" y="444.1133"/><rect fill="#FFFFFF" height="15.6455" style="stroke:#181818;stroke-width:0.5;" width="5" x="722.9734" y="136.6836"/><rect fill="#FFFFFF" height="15.6455" style="stroke:#181818;stroke-width:0.5;" width="5" x="808.5007" y="314.9492"/><rect fill="#FFFFFF" height="15.6455" style="stroke:#181818;stroke-width:0.5;" width="5" x="808.5007" y="484.4043"/><rect fill="#FFFFFF" height="15.6455" style="stroke:#181818;stroke-width:0.5;" width="5" x="874.1919" y="221.0762"/><rect fill="#FFFFFF" height="15.6455" style="stroke:#181818;stroke-width:0.5;" width="5" x="874.1919" y="252.3672"/><rect fill="#FFFFFF" height="15.6455" style="stroke:#181818;stroke-width:0.5;" width="5" x="924.3193" y="283.6582"/><line style="stroke:#181818;stroke-width:0.25;stroke-dasharray:5.0,5.0;" x1="12.5" x2="12.5" y1="41.8105" y2="555.9863"/><line style="stroke:#181818;stroke-width:0.25;stroke-dasharray:5.0,5.0;" x1="216.3096" x2="216.3096" y1="41.8105" y2="555.9863"/><line style="stroke:#181818;stroke-width:0.25;stroke-dasharray:5.0,5.0;" x1="443.3481" x2="443.3481" y1="41.8105" y2="555.9863"/><line style="stroke:#181818;stroke-width:0.25;stroke-dasharray:5.0,5.0;" x1="515.043" x2="515.043" y1="41.8105" y2="555.9863"/><line style="stroke:#181818;stroke-width:0.25;stroke-dasharray:5.0,5.0;" x1="631.7375" x2="631.7375" y1="172.2344" y2="555.9863"/><line style="stroke:#181818;stroke-width:0.25;stroke-dasharray:5.0,5.0;" x1="725.0994" x2="725.0994" y1="41.8105" y2="555.9863"/><line style="stroke:#181818;stroke-width:0.25;stroke-dasharray:5.0,5.0;" x1="810.8474" x2="810.8474" y1="41.8105" y2="555.9863"/><line style="stroke:#181818;stroke-width:0.25;stroke-dasharray:5.0,5.0;" x1="876.6541" x2="876.6541" y1="41.8105" y2="555.9863"/><line style="stroke:#181818;stroke-width:0.25;stroke-dasharray:5.0,5.0;" x1="926.7297" x2="926.7297" y1="41.8105" y2="555.9863"/><text fill="#000000" font-family="sans-serif" font-size="7" lengthAdjust="spacing" textLength="17.8965" x="2.5" y="40.0537">Client</text><ellipse cx="12.9482" cy="6.75" fill="#E2E2F0" rx="4" ry="4" style="stroke:#181818;stroke-width:0.25;"/><path d="M12.9482,10.75 L12.9482,24.25 M6.4482,14.75 L19.4482,14.75 M12.9482,24.25 L6.4482,31.75 M12.9482,24.25 L19.4482,31.75 " fill="none" style="stroke:#181818;stroke-width:0.25;"/><text fill="#000000" font-family="sans-serif" font-size="7" lengthAdjust="spacing" textLength="17.8965" x="2.5" y="563.04">Client</text><ellipse cx="12.9482" cy="569.0469" fill="#E2E2F0" rx="4" ry="4" style="stroke:#181818;stroke-width:0.25;"/><path d="M12.9482,573.0469 L12.9482,586.5469 M6.4482,577.0469 L19.4482,577.0469 M12.9482,586.5469 L6.4482,594.0469 M12.9482,586.5469 L19.4482,594.0469 " fill="none" style="stroke:#181818;stroke-width:0.25;"/><rect fill="#E2E2F0" height="16.3105" rx="1.25" ry="1.25" style="stroke:#181818;stroke-width:0.25;" width="59.5205" x="186.8096" y="25"/><text fill="#000000" font-family="sans-serif" font-size="7" lengthAdjust="spacing" textLength="52.5205" x="190.3096" y="36.0537">:PlaceOrderView</text><rect fill="#E2E2F0" height="16.3105" rx="1.25" ry="1.25" style="stroke:#181818;stroke-width:0.25;" width="59.5205" x="186.8096" y="555.4863"/><text fill="#000000" font-family="sans-serif" font-size="7" lengthAdjust="spacing" textLength="52.5205" x="190.3096" y="566.54">:PlaceOrderView</text><rect fill="#E2E2F0" height="16.3105" rx="1.25" ry="1.25" style="stroke:#181818;stroke-width:0.25;" width="74.6929" x="406.3481" y="25"/><text fill="#000000" font-family="sans-serif" font-size="7" lengthAdjust="spacing" textLength="67.6929" x="409.8481" y="36.0537">:PlaceOrderController</text><rect fill="#E2E2F0" height="16.3105" rx="1.25" ry="1.25" style="stroke:#181818;stroke-width:0.25;" width="74.6929" x="406.3481" y="555.4863"/><text fill="#000000" font-family="sans-serif" font-size="7" lengthAdjust="spacing" textLength="67.6929" x="409.8481" y="566.54">:PlaceOrderController</text><rect fill="#E2E2F0" height="16.3105" rx="1.25" ry="1.25" style="stroke:#181818;stroke-width:0.25;" width="26.8413" x="502.043" y="25"/><text fill="#000000" font-family="sans-serif" font-size="7" lengthAdjust="spacing" textLength="19.8413" x="505.543" y="36.0537">:Client</text><rect fill="#E2E2F0" height="16.3105" rx="1.25" ry="1.25" style="stroke:#181818;stroke-width:0.25;" width="26.8413" x="502.043" y="555.4863"/><text fill="#000000" font-family="sans-serif" font-size="7" lengthAdjust="spacing" textLength="19.8413" x="505.543" y="566.54">:Client</text><rect fill="#E2E2F0" height="16.3105" rx="1.25" ry="1.25" style="stroke:#181818;stroke-width:0.25;" width="89.8618" x="587.2375" y="555.4863"/><text fill="#000000" font-family="sans-serif" font-size="7" lengthAdjust="spacing" textLength="82.8618" x="590.7375" y="566.54">service:PlaceOrderService</text><rect fill="#E2E2F0" height="16.3105" rx="1.25" ry="1.25" style="stroke:#181818;stroke-width:0.25;" width="86.748" x="682.0994" y="25"/><text fill="#000000" font-family="sans-serif" font-size="7" lengthAdjust="spacing" textLength="79.748" x="685.5994" y="36.0537">factory:RepositoryFactory</text><rect fill="#E2E2F0" height="16.3105" rx="1.25" ry="1.25" style="stroke:#181818;stroke-width:0.25;" width="86.748" x="682.0994" y="555.4863"/><text fill="#000000" font-family="sans-serif" font-size="7" lengthAdjust="spacing" textLength="79.748" x="685.5994" y="566.54">factory:RepositoryFactory</text><rect fill="#E2E2F0" height="16.3105" rx="1.25" ry="1.25" style="stroke:#181818;stroke-width:0.25;" width="74.3066" x="773.8474" y="25"/><text fill="#000000" font-family="sans-serif" font-size="7" lengthAdjust="spacing" textLength="67.3066" x="777.3474" y="36.0537">repo:OrderRepository</text><rect fill="#E2E2F0" height="16.3105" rx="1.25" ry="1.25" style="stroke:#181818;stroke-width:0.25;" width="74.3066" x="773.8474" y="555.4863"/><text fill="#000000" font-family="sans-serif" font-size="7" lengthAdjust="spacing" textLength="67.3066" x="777.3474" y="566.54">repo:OrderRepository</text><rect fill="#E2E2F0" height="16.3105" rx="1.25" ry="1.25" style="stroke:#181818;stroke-width:0.25;" width="47.0757" x="853.1541" y="25"/><text fill="#000000" font-family="sans-serif" font-size="7" lengthAdjust="spacing" textLength="40.0757" x="856.6541" y="36.0537">listing:Listing</text><rect fill="#E2E2F0" height="16.3105" rx="1.25" ry="1.25" style="stroke:#181818;stroke-width:0.25;" width="47.0757" x="853.1541" y="555.4863"/><text fill="#000000" font-family="sans-serif" font-size="7" lengthAdjust="spacing" textLength="40.0757" x="856.6541" y="566.54">listing:Listing</text><rect fill="#E2E2F0" height="16.3105" rx="1.25" ry="1.25" style="stroke:#181818;stroke-width:0.25;" width="43.1792" x="905.2297" y="25"/><text fill="#000000" font-family="sans-serif" font-size="7" lengthAdjust="spacing" textLength="36.1792" x="908.7297" y="36.0537">order:Order</text><rect fill="#E2E2F0" height="16.3105" rx="1.25" ry="1.25" style="stroke:#181818;stroke-width:0.25;" width="43.1792" x="905.2297" y="555.4863"/><text fill="#000000" font-family="sans-serif" font-size="7" lengthAdjust="spacing" textLength="36.1792" x="908.7297" y="566.54">order:Order</text><rect fill="#FFFFFF" height="504.6758" style="stroke:#181818;stroke-width:0.5;" width="5" x="10.4482" y="46.8105"/><rect fill="#FFFFFF" height="15.6455" style="stroke:#181818;stroke-width:0.5;" width="5" x="214.0698" y="58.4561"/><rect fill="#FFFFFF" height="287.7842" style="stroke:#181818;stroke-width:0.5;" width="5" x="214.0698" y="89.7471"/><rect fill="#FFFFFF" height="153.8096" style="stroke:#181818;stroke-width:0.5;" width="5" x="214.0698" y="393.1768"/><rect fill="#FFFFFF" height="256.4932" style="stroke:#181818;stroke-width:0.5;" width="5" x="441.1946" y="105.3926"/><rect fill="#FFFFFF" height="122.5186" style="stroke:#181818;stroke-width:0.5;" width="5" x="441.1946" y="408.8223"/><rect fill="#FFFFFF" height="68.7471" style="stroke:#181818;stroke-width:0.5;" width="5" x="512.9636" y="121.0381"/><rect fill="#FFFFFF" height="140.8096" style="stroke:#181818;stroke-width:0.5;" width="5" x="629.6685" y="205.4307"/><rect fill="#FFFFFF" height="91.2275" style="stroke:#181818;stroke-width:0.5;" width="5" x="629.6685" y="424.4678"/><rect fill="#FFFFFF" height="21.1455" style="stroke:#181818;stroke-width:0.5;" width="5" x="632.1685" y="444.1133"/><rect fill="#FFFFFF" height="15.6455" style="stroke:#181818;stroke-width:0.5;" width="5" x="722.9734" y="136.6836"/><rect fill="#FFFFFF" height="15.6455" style="stroke:#181818;stroke-width:0.5;" width="5" x="808.5007" y="314.9492"/><rect fill="#FFFFFF" height="15.6455" style="stroke:#181818;stroke-width:0.5;" width="5" x="808.5007" y="484.4043"/><rect fill="#FFFFFF" height="15.6455" style="stroke:#181818;stroke-width:0.5;" width="5" x="874.1919" y="221.0762"/><rect fill="#FFFFFF" height="15.6455" style="stroke:#181818;stroke-width:0.5;" width="5" x="874.1919" y="252.3672"/><rect fill="#FFFFFF" height="15.6455" style="stroke:#181818;stroke-width:0.5;" width="5" x="924.3193" y="283.6582"/><polygon fill="#181818" points="208.0698,56.4561,213.0698,58.4561,208.0698,60.4561,210.0698,58.4561" style="stroke:#181818;stroke-width:0.5;"/><line style="stroke:#181818;stroke-width:0.5;" x1="15.4482" x2="211.0698" y1="58.4561" y2="58.4561"/><text fill="#000000" font-family="sans-serif" font-size="6.5" font-weight="bold" lengthAdjust="spacing" textLength="3.615" x="18.9482" y="55.8247">1</text><text fill="#000000" font-family="sans-serif" font-size="6.5" lengthAdjust="spacing" textLength="75.5181" x="24.5632" y="55.8247">requests to place an order</text><polygon fill="#181818" points="20.9482,72.1016,15.9482,74.1016,20.9482,76.1016,18.9482,74.1016" style="stroke:#181818;stroke-width:0.5;"/><line style="stroke:#181818;stroke-width:0.5;stroke-dasharray:2.0,2.0;" x1="17.9482" x2="216.0698" y1="74.1016" y2="74.1016"/><text fill="#000000" font-family="sans-serif" font-size="6.5" font-weight="bold" lengthAdjust="spacing" textLength="3.615" x="23.9482" y="71.4702">2</text><text fill="#000000" font-family="sans-serif" font-size="6.5" lengthAdjust="spacing" textLength="181.0066" x="29.5632" y="71.4702">requests data (orderType, orderStatus, cashProposal, listingId)</text><polygon fill="#181818" points="208.0698,87.7471,213.0698,89.7471,208.0698,91.7471,210.0698,89.7471" style="stroke:#181818;stroke-width:0.5;"/><line style="stroke:#181818;stroke-width:0.5;" x1="15.4482" x2="211.0698" y1="89.7471" y2="89.7471"/><text fill="#000000" font-family="sans-serif" font-size="6.5" font-weight="bold" lengthAdjust="spacing" textLength="3.615" x="18.9482" y="87.1157">3</text><text fill="#000000" font-family="sans-serif" font-size="6.5" lengthAdjust="spacing" textLength="60.709" x="24.5632" y="87.1157">types requested data</text><polygon fill="#181818" points="435.1946,103.3926,440.1946,105.3926,435.1946,107.3926,437.1946,105.3926" style="stroke:#181818;stroke-width:0.5;"/><line style="stroke:#181818;stroke-width:0.5;" x1="219.0698" x2="438.1946" y1="105.3926" y2="105.3926"/><text fill="#000000" font-family="sans-serif" font-size="6.5" font-weight="bold" lengthAdjust="spacing" textLength="3.615" x="222.5698" y="102.7612">4</text><text fill="#000000" font-family="sans-serif" font-size="6.5" lengthAdjust="spacing" textLength="207.0098" x="228.1848" y="102.7612">createOrder(orderDate, orderType, orderStatus, cashProposal, listingId)</text><polygon fill="#181818" points="506.9636,119.0381,511.9636,121.0381,506.9636,123.0381,508.9636,121.0381" style="stroke:#181818;stroke-width:0.5;"/><line style="stroke:#181818;stroke-width:0.5;" x1="446.1946" x2="509.9636" y1="121.0381" y2="121.0381"/><text fill="#000000" font-family="sans-serif" font-size="6.5" font-weight="bold" lengthAdjust="spacing" textLength="3.615" x="449.6946" y="118.4067">5</text><text fill="#000000" font-family="sans-serif" font-size="6.5" lengthAdjust="spacing" textLength="51.6541" x="455.3096" y="118.4067">getOrderService()</text><polygon fill="#181818" points="716.9734,134.6836,721.9734,136.6836,716.9734,138.6836,718.9734,136.6836" style="stroke:#181818;stroke-width:0.5;"/><line style="stroke:#181818;stroke-width:0.5;" x1="517.9636" x2="719.9734" y1="136.6836" y2="136.6836"/><text fill="#000000" font-family="sans-serif" font-size="6.5" font-weight="bold" lengthAdjust="spacing" textLength="3.615" x="521.4636" y="134.0522">6</text><text fill="#000000" font-family="sans-serif" font-size="6.5" lengthAdjust="spacing" textLength="64.2986" x="527.0786" y="134.0522">getOrdersRepository()</text><polygon fill="#181818" points="523.4636,150.3291,518.4636,152.3291,523.4636,154.3291,521.4636,152.3291" style="stroke:#181818;stroke-width:0.5;"/><line style="stroke:#181818;stroke-width:0.5;stroke-dasharray:2.0,2.0;" x1="520.4636" x2="724.9734" y1="152.3291" y2="152.3291"/><text fill="#000000" font-family="sans-serif" font-size="6.5" font-weight="bold" lengthAdjust="spacing" textLength="3.615" x="526.4636" y="149.6978">7</text><text fill="#000000" font-family="sans-serif" font-size="6.5" lengthAdjust="spacing" textLength="13.0095" x="532.0786" y="149.6978">repo</text><polygon fill="#181818" points="581.2375,165.9746,586.2375,167.9746,581.2375,169.9746,583.2375,167.9746" style="stroke:#181818;stroke-width:0.5;"/><line style="stroke:#181818;stroke-width:0.5;stroke-dasharray:2.0,2.0;" x1="517.9636" x2="584.2375" y1="167.9746" y2="167.9746"/><text fill="#000000" font-family="sans-serif" font-size="6.5" font-weight="bold" lengthAdjust="spacing" textLength="3.615" x="521.4636" y="165.3433">8</text><text fill="#000000" font-family="sans-serif" font-size="6.5" lengthAdjust="spacing" textLength="35.4041" x="527.0786" y="165.3433">create(repo)</text><rect fill="#E2E2F0" height="16.3105" rx="1.25" ry="1.25" style="stroke:#181818;stroke-width:0.25;" width="89.8618" x="587.2375" y="156.3291"/><text fill="#000000" font-family="sans-serif" font-size="7" lengthAdjust="spacing" textLength="82.8618" x="590.7375" y="167.3828">service:PlaceOrderService</text><polygon fill="#181818" points="451.6946,187.7852,446.6946,189.7852,451.6946,191.7852,449.6946,189.7852" style="stroke:#181818;stroke-width:0.5;"/><line style="stroke:#181818;stroke-width:0.5;stroke-dasharray:2.0,2.0;" x1="448.6946" x2="514.9636" y1="189.7852" y2="189.7852"/><text fill="#000000" font-family="sans-serif" font-size="6.5" font-weight="bold" lengthAdjust="spacing" textLength="3.615" x="454.6946" y="187.1538">9</text><text fill="#000000" font-family="sans-serif" font-size="6.5" lengthAdjust="spacing" textLength="20.5886" x="460.3096" y="187.1538">service</text><polygon fill="#181818" points="623.6685,203.4307,628.6685,205.4307,623.6685,207.4307,625.6685,205.4307" style="stroke:#181818;stroke-width:0.5;"/><line style="stroke:#181818;stroke-width:0.5;" x1="446.1946" x2="626.6685" y1="205.4307" y2="205.4307"/><text fill="#000000" font-family="sans-serif" font-size="6.5" font-weight="bold" lengthAdjust="spacing" textLength="7.23" x="449.6946" y="202.7993">10</text><text fill="#000000" font-family="sans-serif" font-size="6.5" lengthAdjust="spacing" textLength="164.7439" x="458.9246" y="202.7993">create(orderDate, orderType, orderStatus, cashProposal)</text><polygon fill="#181818" points="868.1919,219.0762,873.1919,221.0762,868.1919,223.0762,870.1919,221.0762" style="stroke:#181818;stroke-width:0.5;"/><line style="stroke:#181818;stroke-width:0.5;" x1="634.6685" x2="871.1919" y1="221.0762" y2="221.0762"/><text fill="#000000" font-family="sans-serif" font-size="6.5" font-weight="bold" lengthAdjust="spacing" textLength="7.23" x="638.1685" y="218.4448">11</text><text fill="#000000" font-family="sans-serif" font-size="6.5" lengthAdjust="spacing" textLength="67.1995" x="647.3984" y="218.4448">getListingById(listingId)</text><polygon fill="#181818" points="640.1685,234.7217,635.1685,236.7217,640.1685,238.7217,638.1685,236.7217" style="stroke:#181818;stroke-width:0.5;"/><line style="stroke:#181818;stroke-width:0.5;stroke-dasharray:2.0,2.0;" x1="637.1685" x2="876.1919" y1="236.7217" y2="236.7217"/><text fill="#000000" font-family="sans-serif" font-size="6.5" font-weight="bold" lengthAdjust="spacing" textLength="7.23" x="643.1685" y="234.0903">12</text><text fill="#000000" font-family="sans-serif" font-size="6.5" lengthAdjust="spacing" textLength="16.6182" x="652.3984" y="234.0903">listing</text><polygon fill="#181818" points="868.1919,250.3672,873.1919,252.3672,868.1919,254.3672,870.1919,252.3672" style="stroke:#181818;stroke-width:0.5;"/><line style="stroke:#181818;stroke-width:0.5;" x1="634.6685" x2="871.1919" y1="252.3672" y2="252.3672"/><text fill="#000000" font-family="sans-serif" font-size="6.5" font-weight="bold" lengthAdjust="spacing" textLength="7.23" x="638.1685" y="249.7358">13</text><text fill="#000000" font-family="sans-serif" font-size="6.5" lengthAdjust="spacing" textLength="57.4399" x="647.3984" y="249.7358">validateAvailability()</text><polygon fill="#181818" points="640.1685,266.0127,635.1685,268.0127,640.1685,270.0127,638.1685,268.0127" style="stroke:#181818;stroke-width:0.5;"/><line style="stroke:#181818;stroke-width:0.5;stroke-dasharray:2.0,2.0;" x1="637.1685" x2="876.1919" y1="268.0127" y2="268.0127"/><text fill="#000000" font-family="sans-serif" font-size="6.5" font-weight="bold" lengthAdjust="spacing" textLength="7.23" x="643.1685" y="265.3813">14</text><text fill="#000000" font-family="sans-serif" font-size="6.5" lengthAdjust="spacing" textLength="48.4136" x="652.3984" y="265.3813">availabilityStatus</text><polygon fill="#181818" points="918.3193,281.6582,923.3193,283.6582,918.3193,285.6582,920.3193,283.6582" style="stroke:#181818;stroke-width:0.5;"/><line style="stroke:#181818;stroke-width:0.5;" x1="634.6685" x2="921.3193" y1="283.6582" y2="283.6582"/><text fill="#000000" font-family="sans-serif" font-size="6.5" font-weight="bold" lengthAdjust="spacing" textLength="7.23" x="638.1685" y="281.0269">15</text><text fill="#000000" font-family="sans-serif" font-size="6.5" lengthAdjust="spacing" textLength="164.7439" x="647.3984" y="281.0269">create(orderDate, orderType, orderStatus, cashProposal)</text><polygon fill="#181818" points="640.1685,297.3037,635.1685,299.3037,640.1685,301.3037,638.1685,299.3037" style="stroke:#181818;stroke-width:0.5;"/><line style="stroke:#181818;stroke-width:0.5;stroke-dasharray:2.0,2.0;" x1="637.1685" x2="926.3193" y1="299.3037" y2="299.3037"/><text fill="#000000" font-family="sans-serif" font-size="6.5" font-weight="bold" lengthAdjust="spacing" textLength="7.23" x="643.1685" y="296.6724">16</text><text fill="#000000" font-family="sans-serif" font-size="6.5" lengthAdjust="spacing" textLength="15.1741" x="652.3984" y="296.6724">order</text><polygon fill="#181818" points="802.5007,312.9492,807.5007,314.9492,802.5007,316.9492,804.5007,314.9492" style="stroke:#181818;stroke-width:0.5;"/><line style="stroke:#181818;stroke-width:0.5;" x1="634.6685" x2="805.5007" y1="314.9492" y2="314.9492"/><text fill="#000000" font-family="sans-serif" font-size="6.5" font-weight="bold" lengthAdjust="spacing" textLength="7.23" x="638.1685" y="312.3179">17</text><text fill="#000000" font-family="sans-serif" font-size="6.5" lengthAdjust="spacing" textLength="33.2332" x="647.3984" y="312.3179">save(order)</text><polygon fill="#181818" points="640.1685,328.5947,635.1685,330.5947,640.1685,332.5947,638.1685,330.5947" style="stroke:#181818;stroke-width:0.5;"/><line style="stroke:#181818;stroke-width:0.5;stroke-dasharray:2.0,2.0;" x1="637.1685" x2="810.5007" y1="330.5947" y2="330.5947"/><text fill="#000000" font-family="sans-serif" font-size="6.5" font-weight="bold" lengthAdjust="spacing" textLength="7.23" x="643.1685" y="327.9634">18</text><text fill="#000000" font-family="sans-serif" font-size="6.5" lengthAdjust="spacing" textLength="6.865" x="652.3984" y="327.9634">ok</text><polygon fill="#181818" points="451.6946,344.2402,446.6946,346.2402,451.6946,348.2402,449.6946,346.2402" style="stroke:#181818;stroke-width:0.5;"/><line style="stroke:#181818;stroke-width:0.5;stroke-dasharray:2.0,2.0;" x1="448.6946" x2="631.6685" y1="346.2402" y2="346.2402"/><text fill="#000000" font-family="sans-serif" font-size="6.5" font-weight="bold" lengthAdjust="spacing" textLength="7.23" x="454.6946" y="343.6089">19</text><text fill="#000000" font-family="sans-serif" font-size="6.5" lengthAdjust="spacing" textLength="6.865" x="463.9246" y="343.6089">ok</text><polygon fill="#181818" points="224.5698,359.8857,219.5698,361.8857,224.5698,363.8857,222.5698,361.8857" style="stroke:#181818;stroke-width:0.5;"/><line style="stroke:#181818;stroke-width:0.5;stroke-dasharray:2.0,2.0;" x1="221.5698" x2="443.1946" y1="361.8857" y2="361.8857"/><text fill="#000000" font-family="sans-serif" font-size="6.5" font-weight="bold" lengthAdjust="spacing" textLength="7.23" x="227.5698" y="359.2544">20</text><text fill="#000000" font-family="sans-serif" font-size="6.5" lengthAdjust="spacing" textLength="6.865" x="236.7998" y="359.2544">ok</text><polygon fill="#181818" points="20.9482,375.5313,15.9482,377.5313,20.9482,379.5313,18.9482,377.5313" style="stroke:#181818;stroke-width:0.5;"/><line style="stroke:#181818;stroke-width:0.5;stroke-dasharray:2.0,2.0;" x1="17.9482" x2="216.0698" y1="377.5313" y2="377.5313"/><text fill="#000000" font-family="sans-serif" font-size="6.5" font-weight="bold" lengthAdjust="spacing" textLength="7.23" x="23.9482" y="374.8999">21</text><text fill="#000000" font-family="sans-serif" font-size="6.5" lengthAdjust="spacing" textLength="117.7871" x="33.1782" y="374.8999">shows all data and requests confirmation</text><polygon fill="#181818" points="208.0698,391.1768,213.0698,393.1768,208.0698,395.1768,210.0698,393.1768" style="stroke:#181818;stroke-width:0.5;"/><line style="stroke:#181818;stroke-width:0.5;" x1="15.4482" x2="211.0698" y1="393.1768" y2="393.1768"/><text fill="#000000" font-family="sans-serif" font-size="6.5" font-weight="bold" lengthAdjust="spacing" textLength="7.23" x="18.9482" y="390.5454">22</text><text fill="#000000" font-family="sans-serif" font-size="6.5" lengthAdjust="spacing" textLength="49.8577" x="28.1782" y="390.5454">confirms the data</text><polygon fill="#181818" points="435.1946,406.8223,440.1946,408.8223,435.1946,410.8223,437.1946,408.8223" style="stroke:#181818;stroke-width:0.5;"/><line style="stroke:#181818;stroke-width:0.5;" x1="219.0698" x2="438.1946" y1="408.8223" y2="408.8223"/><text fill="#000000" font-family="sans-serif" font-size="6.5" font-weight="bold" lengthAdjust="spacing" textLength="7.23" x="222.5698" y="406.1909">23</text><text fill="#000000" font-family="sans-serif" font-size="6.5" lengthAdjust="spacing" textLength="54.5486" x="231.7998" y="406.1909">savePlacedOrder()</text><polygon fill="#181818" points="623.6685,422.4678,628.6685,424.4678,623.6685,426.4678,625.6685,424.4678" style="stroke:#181818;stroke-width:0.5;"/><line style="stroke:#181818;stroke-width:0.5;" x1="446.1946" x2="626.6685" y1="424.4678" y2="424.4678"/><text fill="#000000" font-family="sans-serif" font-size="6.5" font-weight="bold" lengthAdjust="spacing" textLength="7.23" x="449.6946" y="421.8364">24</text><text fill="#000000" font-family="sans-serif" font-size="6.5" lengthAdjust="spacing" textLength="58.5286" x="458.9246" y="421.8364">addOrUpdate(order)</text><line style="stroke:#181818;stroke-width:0.5;" x1="634.6685" x2="658.1685" y1="437.6133" y2="437.6133"/><line style="stroke:#181818;stroke-width:0.5;" x1="658.1685" x2="658.1685" y1="437.6133" y2="444.1133"/><line style="stroke:#181818;stroke-width:0.5;" x1="637.6685" x2="658.1685" y1="444.1133" y2="444.1133"/><polygon fill="#181818" points="642.6685,442.1133,637.6685,444.1133,642.6685,446.1133,640.6685,444.1133" style="stroke:#181818;stroke-width:0.5;"/><text fill="#000000" font-family="sans-serif" font-size="6.5" font-weight="bold" lengthAdjust="spacing" textLength="7.23" x="640.6685" y="434.9819">25</text><text fill="#000000" font-family="sans-serif" font-size="6.5" lengthAdjust="spacing" textLength="41.9072" x="649.8984" y="434.9819">validate(order)</text><line style="stroke:#181818;stroke-width:0.5;stroke-dasharray:2.0,2.0;" x1="637.1685" x2="658.1685" y1="464.7588" y2="464.7588"/><line style="stroke:#181818;stroke-width:0.5;stroke-dasharray:2.0,2.0;" x1="658.1685" x2="658.1685" y1="464.7588" y2="471.2588"/><line style="stroke:#181818;stroke-width:0.5;stroke-dasharray:2.0,2.0;" x1="634.6685" x2="658.1685" y1="471.2588" y2="471.2588"/><polygon fill="#181818" points="639.6685,469.2588,634.6685,471.2588,639.6685,473.2588,637.6685,471.2588" style="stroke:#181818;stroke-width:0.5;"/><text fill="#000000" font-family="sans-serif" font-size="6.5" font-weight="bold" lengthAdjust="spacing" textLength="7.23" x="640.6685" y="462.1274">26</text><text fill="#000000" font-family="sans-serif" font-size="6.5" lengthAdjust="spacing" textLength="6.865" x="649.8984" y="462.1274">ok</text><polygon fill="#181818" points="802.5007,482.4043,807.5007,484.4043,802.5007,486.4043,804.5007,484.4043" style="stroke:#181818;stroke-width:0.5;"/><line style="stroke:#181818;stroke-width:0.5;" x1="634.6685" x2="805.5007" y1="484.4043" y2="484.4043"/><text fill="#000000" font-family="sans-serif" font-size="6.5" font-weight="bold" lengthAdjust="spacing" textLength="7.23" x="638.1685" y="481.7729">27</text><text fill="#000000" font-family="sans-serif" font-size="6.5" lengthAdjust="spacing" textLength="33.2332" x="647.3984" y="481.7729">save(order)</text><polygon fill="#181818" points="640.1685,498.0498,635.1685,500.0498,640.1685,502.0498,638.1685,500.0498" style="stroke:#181818;stroke-width:0.5;"/><line style="stroke:#181818;stroke-width:0.5;stroke-dasharray:2.0,2.0;" x1="637.1685" x2="810.5007" y1="500.0498" y2="500.0498"/><text fill="#000000" font-family="sans-serif" font-size="6.5" font-weight="bold" lengthAdjust="spacing" textLength="7.23" x="643.1685" y="497.4185">28</text><text fill="#000000" font-family="sans-serif" font-size="6.5" lengthAdjust="spacing" textLength="6.865" x="652.3984" y="497.4185">ok</text><polygon fill="#181818" points="451.6946,513.6953,446.6946,515.6953,451.6946,517.6953,449.6946,515.6953" style="stroke:#181818;stroke-width:0.5;"/><line style="stroke:#181818;stroke-width:0.5;stroke-dasharray:2.0,2.0;" x1="448.6946" x2="631.6685" y1="515.6953" y2="515.6953"/><text fill="#000000" font-family="sans-serif" font-size="6.5" font-weight="bold" lengthAdjust="spacing" textLength="7.23" x="454.6946" y="513.064">29</text><text fill="#000000" font-family="sans-serif" font-size="6.5" lengthAdjust="spacing" textLength="6.865" x="463.9246" y="513.064">ok</text><polygon fill="#181818" points="224.5698,529.3408,219.5698,531.3408,224.5698,533.3408,222.5698,531.3408" style="stroke:#181818;stroke-width:0.5;"/><line style="stroke:#181818;stroke-width:0.5;stroke-dasharray:2.0,2.0;" x1="221.5698" x2="443.1946" y1="531.3408" y2="531.3408"/><text fill="#000000" font-family="sans-serif" font-size="6.5" font-weight="bold" lengthAdjust="spacing" textLength="7.23" x="227.5698" y="528.7095">30</text><text fill="#000000" font-family="sans-serif" font-size="6.5" lengthAdjust="spacing" textLength="6.865" x="236.7998" y="528.7095">ok</text><polygon fill="#181818" points="20.9482,544.9863,15.9482,546.9863,20.9482,548.9863,18.9482,546.9863" style="stroke:#181818;stroke-width:0.5;"/><line style="stroke:#181818;stroke-width:0.5;stroke-dasharray:2.0,2.0;" x1="17.9482" x2="216.0698" y1="546.9863" y2="546.9863"/><text fill="#000000" font-family="sans-serif" font-size="6.5" font-weight="bold" lengthAdjust="spacing" textLength="7.23" x="23.9482" y="544.355">31</text><text fill="#000000" font-family="sans-serif" font-size="6.5" lengthAdjust="spacing" textLength="75.5054" x="33.1782" y="544.355">informs operation success</text><!--SRC=[fLJ1Rjim3BtxAuHSbXJ9SlUXm9PYG841AvPrTrPc4g6ov4bqYlpz94gnvIG3rksIKDBZe_WUvGy7eixNwtMdmL3Vwe_IjckFlteq4bUDWhs3jggW9mkIr148XJMyDdtxWYwSIR9Ep3PQeQ6P02-UVTZlm96IgWkyObO_QP3upJNeVYfyOzJsv0dRF-8srf2pMgDZz8QSli0M5LCuFG-NE2g91UKsxQJgAPwcxBYNK_qTE-jL3B-a7Kx9yJJ51MZDx6CIe-Do2jNAapBx-clwPrIEfq0RwH8fWpXYePC1h6yLVyNgFkjO2nTTy-G5MT75dWKOmLHLWeXLGCUi0ji0WPWpwiUfmsLAs19GxvT2WZyyEHlw0hqK-VwFpUAgDeLSVsR5Xcc7glTiNYsamt1xRYPLV0ZBNF4znICRixBfjTWZbVRE0u9F8YPxDeByQ5C0vcDMvamN7HqOOe-9zkxktC4y8XOb9FMN1wuQBfWpXxntDhseCa7aoeF2ZUJuy-cncHUwvEtoqlLPjvjKHz0gE8MVZg0ql2YjA8foamSAJBfiLNAojl_UAATF2-R97Kj4uuB8SCpyYohkN2IzZXc3Bs4pEL8CR0HUFWf_i6zUWDRfLO1fndSYhTafrmAfyFMxdFvy65xU0M-FVhmrVuUQDFwBwnc19fmzTysWtyJ-SpYQTWMQe4eX_aOwyP_QAREpKG7ReMEHXE-bHEz_0m00]--></g></svg>