<svg xmlns="http://www.w3.org/2000/svg" xmlns:xlink="http://www.w3.org/1999/xlink" contentStyleType="text/css" height="541px" preserveAspectRatio="none" style="width:856px;height:541px;background:#FFFFFF;" version="1.1" viewBox="0 0 856 541" width="856px" zoomAndPan="magnify"><defs/><g><!--class PlaceOrderView--><g id="elem_PlaceOrderView"><rect codeLine="4" fill="#F1F1F1" height="63.2422" id="PlaceOrderView" rx="2.5" ry="2.5" style="stroke:#181818;stroke-width:0.5;" width="132.2168" x="311" y="7"/><text fill="#000000" font-family="sans-serif" font-size="14" lengthAdjust="spacing" textLength="101.1514" x="326.5327" y="27.1074">PlaceOrderView</text><line style="stroke:#181818;stroke-width:0.5;" x1="312" x2="442.2168" y1="35.6211" y2="35.6211"/><line style="stroke:#181818;stroke-width:0.5;" x1="312" x2="442.2168" y1="43.6211" y2="43.6211"/><text fill="#000000" font-family="sans-serif" font-size="14" lengthAdjust="spacing" textLength="120.2168" x="317" y="62.7285">+placeOrder(): void</text></g><!--class PlaceOrderController--><g id="elem_PlaceOrderController"><rect codeLine="8" fill="#F1F1F1" height="63.2422" id="PlaceOrderController" rx="2.5" ry="2.5" style="stroke:#181818;stroke-width:0.5;" width="301.8164" x="226" y="131"/><text fill="#000000" font-family="sans-serif" font-size="14" lengthAdjust="spacing" textLength="131.4961" x="311.1602" y="151.1074">PlaceOrderController</text><line style="stroke:#181818;stroke-width:0.5;" x1="227" x2="526.8164" y1="159.6211" y2="159.6211"/><line style="stroke:#181818;stroke-width:0.5;" x1="227" x2="526.8164" y1="167.6211" y2="167.6211"/><text fill="#000000" font-family="sans-serif" font-size="14" lengthAdjust="spacing" textLength="289.8164" x="232" y="186.7285">+submitOrder(orderDetails: OrderDetails): void</text></g><!--class PlaceOrderService--><g id="elem_PlaceOrderService"><rect codeLine="12" fill="#F1F1F1" height="63.2422" id="PlaceOrderService" rx="2.5" ry="2.5" style="stroke:#181818;stroke-width:0.5;" width="333.7471" x="415" y="255"/><text fill="#000000" font-family="sans-serif" font-size="14" lengthAdjust="spacing" textLength="117.4893" x="523.1289" y="275.1074">PlaceOrderService</text><line style="stroke:#181818;stroke-width:0.5;" x1="416" x2="747.7471" y1="283.6211" y2="283.6211"/><line style="stroke:#181818;stroke-width:0.5;" x1="416" x2="747.7471" y1="291.6211" y2="291.6211"/><text fill="#000000" font-family="sans-serif" font-size="14" lengthAdjust="spacing" textLength="321.7471" x="421" y="310.7285">+processOrder(orderDetails: OrderDetails): boolean</text></g><!--class OrderRepository--><g id="elem_OrderRepository"><rect codeLine="16" fill="#F1F1F1" height="79.2031" id="OrderRepository" rx="2.5" ry="2.5" style="stroke:#181818;stroke-width:0.5;" width="204.5684" x="462.5" y="426.5"/><text fill="#000000" font-family="sans-serif" font-size="12" font-style="italic" lengthAdjust="spacing" textLength="59.373" x="535.0977" y="444.4492">&#171;interface&#187;</text><text fill="#000000" font-family="sans-serif" font-size="14" font-style="italic" lengthAdjust="spacing" textLength="102.7031" x="513.4326" y="462.5684">OrderRepository</text><line style="stroke:#181818;stroke-width:0.5;" x1="463.5" x2="666.0684" y1="471.082" y2="471.082"/><line style="stroke:#181818;stroke-width:0.5;" x1="463.5" x2="666.0684" y1="479.082" y2="479.082"/><text fill="#000000" font-family="sans-serif" font-size="14" lengthAdjust="spacing" textLength="192.5684" x="468.5" y="498.1895">+saveOrder(order: Order): void</text></g><!--class Order--><g id="elem_Order"><rect codeLine="21" fill="#F1F1F1" height="137.7266" id="Order" rx="2.5" ry="2.5" style="stroke:#181818;stroke-width:0.5;" width="105.0029" x="744.5" y="397"/><text fill="#000000" font-family="sans-serif" font-size="14" lengthAdjust="spacing" textLength="35.7861" x="779.1084" y="417.1074">Order</text><line style="stroke:#181818;stroke-width:0.5;" x1="745.5" x2="848.5029" y1="425.6211" y2="425.6211"/><text fill="#000000" font-family="sans-serif" font-size="14" lengthAdjust="spacing" textLength="40.8584" x="750.5" y="444.7285">+client</text><text fill="#000000" font-family="sans-serif" font-size="14" lengthAdjust="spacing" textLength="43.9688" x="750.5" y="463.3496">+listing</text><text fill="#000000" font-family="sans-serif" font-size="14" lengthAdjust="spacing" textLength="71.9824" x="750.5" y="481.9707">+orderType</text><text fill="#000000" font-family="sans-serif" font-size="14" lengthAdjust="spacing" textLength="70.4307" x="750.5" y="500.5918">+orderDate</text><text fill="#000000" font-family="sans-serif" font-size="14" lengthAdjust="spacing" textLength="93.0029" x="750.5" y="519.2129">+cashProposal</text><line style="stroke:#181818;stroke-width:0.5;" x1="745.5" x2="848.5029" y1="526.7266" y2="526.7266"/></g><!--class Client--><g id="elem_Client"><rect codeLine="29" fill="#F1F1F1" height="63.2422" id="Client" rx="2.5" ry="2.5" style="stroke:#181818;stroke-width:0.5;" width="332.1953" x="7" y="255"/><text fill="#000000" font-family="sans-serif" font-size="14" lengthAdjust="spacing" textLength="35.793" x="155.2012" y="275.1074">Client</text><line style="stroke:#181818;stroke-width:0.5;" x1="8" x2="338.1953" y1="283.6211" y2="283.6211"/><line style="stroke:#181818;stroke-width:0.5;" x1="8" x2="338.1953" y1="291.6211" y2="291.6211"/><text fill="#000000" font-family="sans-serif" font-size="14" lengthAdjust="spacing" textLength="320.1953" x="13" y="310.7285">+placeOrder(listing: Listing, orderType: String): void</text></g><!--class RepositoryFactory--><g id="elem_RepositoryFactory"><rect codeLine="32" fill="#F1F1F1" height="63.2422" id="RepositoryFactory" rx="2.5" ry="2.5" style="stroke:#181818;stroke-width:0.5;" width="271.5127" x="138" y="434.5"/><text fill="#000000" font-family="sans-serif" font-size="14" lengthAdjust="spacing" textLength="113.5928" x="216.96" y="454.6074">RepositoryFactory</text><line style="stroke:#181818;stroke-width:0.5;" x1="139" x2="408.5127" y1="463.1211" y2="463.1211"/><line style="stroke:#181818;stroke-width:0.5;" x1="139" x2="408.5127" y1="471.1211" y2="471.1211"/><text fill="#000000" font-family="sans-serif" font-size="14" lengthAdjust="spacing" textLength="259.5127" x="144" y="490.2285">+getListingRepository(): ListingRepository</text></g><!--link Client to RepositoryFactory--><g id="link_Client_RepositoryFactory"><path codeLine="35" d="M190.36,318.01 C208.86,350.52 235.012,396.4855 253.562,429.0755 " fill="none" id="Client-to-RepositoryFactory" style="stroke:#181818;stroke-width:1.0;"/><polygon fill="#181818" points="256.53,434.29,255.5543,424.4896,254.0566,429.9446,248.6016,428.447,256.53,434.29" style="stroke:#181818;stroke-width:1.0;"/><text fill="#000000" font-family="sans-serif" font-size="13" lengthAdjust="spacing" textLength="27.46" x="219" y="363.0283">uses</text><text fill="#000000" font-family="sans-serif" font-size="13" lengthAdjust="spacing" textLength="7.23" x="186.2222" y="340.2954">1</text><text fill="#000000" font-family="sans-serif" font-size="13" lengthAdjust="spacing" textLength="7.23" x="245.2789" y="423.03">1</text></g><!--link Client to PlaceOrderService--><g id="link_Client_PlaceOrderService"><path codeLine="36" d="M339.06,286.5 C364.07,286.5 383.87,286.5 408.9,286.5 " fill="none" id="Client-to-PlaceOrderService" style="stroke:#181818;stroke-width:1.0;"/><polygon fill="#181818" points="414.9,286.5,405.9,282.5,409.9,286.5,405.9,290.5,414.9,286.5" style="stroke:#181818;stroke-width:1.0;"/><text fill="#000000" font-family="sans-serif" font-size="13" lengthAdjust="spacing" textLength="39.0317" x="357.5" y="279.5283">adopts</text></g><!--link OrderRepository to Order--><g id="link_OrderRepository_Order"><path codeLine="37" d="M667.77,466 C694.19,466 715.54,466 738.24,466 " fill="none" id="OrderRepository-to-Order" style="stroke:#181818;stroke-width:1.0;"/><polygon fill="#181818" points="744.24,466,735.24,462,739.24,466,735.24,470,744.24,466" style="stroke:#181818;stroke-width:1.0;"/><text fill="#000000" font-family="sans-serif" font-size="13" lengthAdjust="spacing" textLength="40.46" x="686" y="459.0283">returns</text><text fill="#000000" font-family="sans-serif" font-size="13" lengthAdjust="spacing" textLength="7.23" x="674.9322" y="462.4602">1</text><text fill="#000000" font-family="sans-serif" font-size="13" lengthAdjust="spacing" textLength="19.5127" x="716.9081" y="481.2084">0..*</text></g><!--link PlaceOrderController to Client--><g id="link_PlaceOrderController_Client"><path codeLine="38" d="M325.79,194.13 C294.74,212.69 260.4289,233.2096 229.3889,251.7796 " fill="none" id="PlaceOrderController-to-Client" style="stroke:#181818;stroke-width:1.0;stroke-dasharray:7.0,7.0;"/><polygon fill="#181818" points="224.24,254.86,234.0169,253.672,228.5308,252.293,229.9098,246.8068,224.24,254.86" style="stroke:#181818;stroke-width:1.0;"/></g><!--link PlaceOrderView to PlaceOrderController--><g id="link_PlaceOrderView_PlaceOrderController"><path codeLine="39" d="M377,70.29 C377,88.78 377,106.23 377,124.72 " fill="none" id="PlaceOrderView-to-PlaceOrderController" style="stroke:#181818;stroke-width:1.0;stroke-dasharray:7.0,7.0;"/><polygon fill="#181818" points="377,130.72,381,121.72,377,125.72,373,121.72,377,130.72" style="stroke:#181818;stroke-width:1.0;"/></g><!--link PlaceOrderController to PlaceOrderService--><g id="link_PlaceOrderController_PlaceOrderService"><path codeLine="40" d="M428.47,194.13 C459.66,212.69 494.1646,233.2205 525.3546,251.7905 " fill="none" id="PlaceOrderController-to-PlaceOrderService" style="stroke:#181818;stroke-width:1.0;stroke-dasharray:7.0,7.0;"/><polygon fill="#181818" points="530.51,254.86,524.8232,246.8189,526.2138,252.3021,520.7306,253.6928,530.51,254.86" style="stroke:#181818;stroke-width:1.0;"/></g><!--link PlaceOrderService to OrderRepository--><g id="link_PlaceOrderService_OrderRepository"><path codeLine="41" d="M579.08,318.01 C576.21,347.95 572.4015,387.7373 569.2915,420.2373 " fill="none" id="PlaceOrderService-to-OrderRepository" style="stroke:#181818;stroke-width:1.0;stroke-dasharray:7.0,7.0;"/><polygon fill="#181818" points="568.72,426.21,573.5591,417.632,569.1963,421.2327,565.5955,416.8699,568.72,426.21" style="stroke:#181818;stroke-width:1.0;"/></g><!--link RepositoryFactory to OrderRepository--><g id="link_RepositoryFactory_OrderRepository"><path codeLine="42" d="M410.12,466 C427.57,466 439.01,466 456.45,466 " fill="none" id="RepositoryFactory-to-OrderRepository" style="stroke:#181818;stroke-width:1.0;stroke-dasharray:7.0,7.0;"/><polygon fill="#181818" points="462.45,466,453.45,462,457.45,466,453.45,470,462.45,466" style="stroke:#181818;stroke-width:1.0;"/></g><!--SRC=[ZP9DQyCm38Rl_XMYftqrTDTG0gDbC1Yqh6Dtrz5ICTSEjjFIZVttnOwNT7KtTaaawzN3AzaRAX446I6HsJTIDJTy2q9oQ- -SCxHk73u8hLRqZZ1XB5HWARd0XIdHl13kuOC1NDVzsSLb3ZjD9VjCzJEjdD5IekcwRBFUaklQjF_EqN6IDeV5KVO7S8LcHmAZ1wC5MliFt5fhYLnv8Yc7vhNbTPedhBKbfyq1fjE-LXJHBz_X4JvoZ_n5W-6uQn6IK3aVIRAELEN3qFrygB5Fvjo5H72xMHhTck1o67WM807uOzKHcSDZ5zn0JyvXrLwWgWPp7MeOy9uB_mikAtGHCTJzHIQ7BIUQ6TsEO5pglHeN8Kx0EK1ZqNxhMrbwRws6bxfsbfrkF-0DLHld-PCiknfrQsrR3Bh6AClEFgmiA-A-sCb3zPLpBRzp4iCi7S7hJiopP1UGXL5IwHS0]--></g></svg>