<svg xmlns="http://www.w3.org/2000/svg" xmlns:xlink="http://www.w3.org/1999/xlink" contentStyleType="text/css" height="946px" preserveAspectRatio="none" style="width:1166px;height:946px;background:#FFFFFF;" version="1.1" viewBox="0 0 1166 946" width="1166px" zoomAndPan="magnify"><defs/><g><!--class PlaceOrderView--><g id="elem_PlaceOrderView"><rect codeLine="6" fill="#F1F1F1" height="44.6211" id="PlaceOrderView" rx="2.5" ry="2.5" style="stroke:#181818;stroke-width:0.5;" width="107.1514" x="539.5" y="7"/><text fill="#000000" font-family="sans-serif" font-size="14" lengthAdjust="spacing" textLength="101.1514" x="542.5" y="27.1074">PlaceOrderView</text><line style="stroke:#181818;stroke-width:0.5;" x1="540.5" x2="645.6514" y1="35.6211" y2="35.6211"/><line style="stroke:#181818;stroke-width:0.5;" x1="540.5" x2="645.6514" y1="43.6211" y2="43.6211"/></g><!--class PlaceOrderController--><g id="elem_PlaceOrderController"><rect codeLine="9" fill="#F1F1F1" height="81.8633" id="PlaceOrderController" rx="2.5" ry="2.5" style="stroke:#181818;stroke-width:0.5;" width="601.4629" x="292.5" y="113"/><text fill="#000000" font-family="sans-serif" font-size="14" lengthAdjust="spacing" textLength="131.4961" x="527.4834" y="133.1074">PlaceOrderController</text><line style="stroke:#181818;stroke-width:0.5;" x1="293.5" x2="892.9629" y1="141.6211" y2="141.6211"/><line style="stroke:#181818;stroke-width:0.5;" x1="293.5" x2="892.9629" y1="149.6211" y2="149.6211"/><text fill="#000000" font-family="sans-serif" font-size="14" lengthAdjust="spacing" textLength="589.4629" x="298.5" y="168.7285">+createOrder(date orderDate , string orderType, string orderStatus, double cashProposal): void</text><text fill="#000000" font-family="sans-serif" font-size="14" lengthAdjust="spacing" textLength="141.9824" x="298.5" y="187.3496">+submitOrder(): Result</text></g><!--class Client--><g id="elem_Client"><rect codeLine="14" fill="#F1F1F1" height="156.3477" id="Client" rx="2.5" ry="2.5" style="stroke:#181818;stroke-width:0.5;" width="221.6787" x="7" y="256"/><text fill="#000000" font-family="sans-serif" font-size="14" lengthAdjust="spacing" textLength="35.793" x="99.9429" y="276.1074">Client</text><line style="stroke:#181818;stroke-width:0.5;" x1="8" x2="227.6787" y1="284.6211" y2="284.6211"/><text fill="#000000" font-family="sans-serif" font-size="14" lengthAdjust="spacing" textLength="39.6826" x="13" y="303.7285">-name</text><text fill="#000000" font-family="sans-serif" font-size="14" lengthAdjust="spacing" textLength="124.4824" x="13" y="322.3496">-citizenCardNumber</text><text fill="#000000" font-family="sans-serif" font-size="14" lengthAdjust="spacing" textLength="84.8066" x="13" y="340.9707">-taxIdNumber</text><text fill="#000000" font-family="sans-serif" font-size="14" lengthAdjust="spacing" textLength="38.1172" x="13" y="359.5918">-email</text><text fill="#000000" font-family="sans-serif" font-size="14" lengthAdjust="spacing" textLength="93.3857" x="13" y="378.2129">-phoneNumber</text><line style="stroke:#181818;stroke-width:0.5;" x1="8" x2="227.6787" y1="385.7266" y2="385.7266"/><text fill="#000000" font-family="sans-serif" font-size="14" lengthAdjust="spacing" textLength="209.6787" x="13" y="404.834">+getOrderService(): OrderService</text></g><!--class PlaceOrderService--><g id="elem_PlaceOrderService"><rect codeLine="23" fill="#F1F1F1" height="100.4844" id="PlaceOrderService" rx="2.5" ry="2.5" style="stroke:#181818;stroke-width:0.5;" width="575.7803" x="305" y="284"/><text fill="#000000" font-family="sans-serif" font-size="14" lengthAdjust="spacing" textLength="117.4893" x="534.1455" y="304.1074">PlaceOrderService</text><line style="stroke:#181818;stroke-width:0.5;" x1="306" x2="879.7803" y1="312.6211" y2="312.6211"/><line style="stroke:#181818;stroke-width:0.5;" x1="306" x2="879.7803" y1="320.6211" y2="320.6211"/><text fill="#000000" font-family="sans-serif" font-size="14" lengthAdjust="spacing" textLength="314.7334" x="311" y="339.7285">+PlaceOrderService(OrderRepository ordersRepo)</text><text fill="#000000" font-family="sans-serif" font-size="14" lengthAdjust="spacing" textLength="563.7803" x="311" y="358.3496">+create(date orderDate , string orderType, string orderStatus, double cashProposal): Order</text><text fill="#000000" font-family="sans-serif" font-size="14" lengthAdjust="spacing" textLength="207.375" x="311" y="376.9707">+addOrUpdate(Order obj): Result</text></g><!--class OrderRepository--><g id="elem_OrderRepository"><rect codeLine="29" fill="#F1F1F1" height="79.2031" id="OrderRepository" rx="2.5" ry="2.5" style="stroke:#181818;stroke-width:0.5;" width="164.8926" x="393.5" y="567"/><text fill="#000000" font-family="sans-serif" font-size="12" font-style="italic" lengthAdjust="spacing" textLength="59.373" x="446.2598" y="584.9492">&#171;interface&#187;</text><text fill="#000000" font-family="sans-serif" font-size="14" font-style="italic" lengthAdjust="spacing" textLength="102.7031" x="424.5947" y="603.0684">OrderRepository</text><line style="stroke:#181818;stroke-width:0.5;" x1="394.5" x2="557.3926" y1="611.582" y2="611.582"/><line style="stroke:#181818;stroke-width:0.5;" x1="394.5" x2="557.3926" y1="619.582" y2="619.582"/><text fill="#000000" font-family="sans-serif" font-size="14" lengthAdjust="spacing" textLength="152.8926" x="399.5" y="638.6895">+save(Order obj): Result</text></g><!--class RepositoryFactory--><g id="elem_RepositoryFactory"><rect codeLine="33" fill="#F1F1F1" height="79.2031" id="RepositoryFactory" rx="2.5" ry="2.5" style="stroke:#181818;stroke-width:0.5;" width="269.1475" x="89.5" y="567"/><text fill="#000000" font-family="sans-serif" font-size="12" font-style="italic" lengthAdjust="spacing" textLength="59.373" x="194.3872" y="584.9492">&#171;interface&#187;</text><text fill="#000000" font-family="sans-serif" font-size="14" font-style="italic" lengthAdjust="spacing" textLength="113.5928" x="167.2773" y="603.0684">RepositoryFactory</text><line style="stroke:#181818;stroke-width:0.5;" x1="90.5" x2="357.6475" y1="611.582" y2="611.582"/><line style="stroke:#181818;stroke-width:0.5;" x1="90.5" x2="357.6475" y1="619.582" y2="619.582"/><text fill="#000000" font-family="sans-serif" font-size="14" lengthAdjust="spacing" textLength="257.1475" x="95.5" y="638.6895">+getOrdersRepository(): OrderRepository</text></g><!--class Order--><g id="elem_Order"><rect codeLine="37" fill="#F1F1F1" height="230.832" id="Order" rx="2.5" ry="2.5" style="stroke:#181818;stroke-width:0.5;" width="520.915" x="638.5" y="491"/><text fill="#000000" font-family="sans-serif" font-size="14" lengthAdjust="spacing" textLength="35.7861" x="881.0645" y="511.1074">Order</text><line style="stroke:#181818;stroke-width:0.5;" x1="639.5" x2="1158.415" y1="519.6211" y2="519.6211"/><text fill="#000000" font-family="sans-serif" font-size="14" lengthAdjust="spacing" textLength="66.917" x="644.5" y="538.7285">-orderDate</text><text fill="#000000" font-family="sans-serif" font-size="14" lengthAdjust="spacing" textLength="68.4688" x="644.5" y="557.3496">-orderType</text><text fill="#000000" font-family="sans-serif" font-size="14" lengthAdjust="spacing" textLength="77.0342" x="644.5" y="575.9707">-orderStatus</text><text fill="#000000" font-family="sans-serif" font-size="14" lengthAdjust="spacing" textLength="89.4893" x="644.5" y="594.5918">-cashProposal</text><line style="stroke:#181818;stroke-width:0.5;" x1="639.5" x2="1158.415" y1="602.1055" y2="602.1055"/><text fill="#000000" font-family="sans-serif" font-size="14" lengthAdjust="spacing" textLength="508.915" x="644.5" y="621.2129">Order(date orderDate , string orderType, string orderStatus, double cashProposal)</text><text fill="#000000" font-family="sans-serif" font-size="14" lengthAdjust="spacing" textLength="133.458" x="644.5" y="639.834">+getOrderDate():date</text><text fill="#000000" font-family="sans-serif" font-size="14" lengthAdjust="spacing" textLength="145.8857" x="644.5" y="658.4551">+getOrderType(): string</text><text fill="#000000" font-family="sans-serif" font-size="14" lengthAdjust="spacing" textLength="154.4512" x="644.5" y="677.0762">+getOrderStatus(): string</text><text fill="#000000" font-family="sans-serif" font-size="14" lengthAdjust="spacing" textLength="174.7197" x="644.5" y="695.6973">+getCashProposal(): double</text><text fill="#000000" font-family="sans-serif" font-size="14" lengthAdjust="spacing" textLength="125.6787" x="644.5" y="714.3184">+getListing(): Listing</text></g><!--class Listing--><g id="elem_Listing"><rect codeLine="51" fill="#F1F1F1" height="156.3477" id="Listing" rx="2.5" ry="2.5" style="stroke:#181818;stroke-width:0.5;" width="298.3779" x="750" y="783"/><text fill="#000000" font-family="sans-serif" font-size="14" lengthAdjust="spacing" textLength="40.4688" x="878.9546" y="803.1074">Listing</text><line style="stroke:#181818;stroke-width:0.5;" x1="751" x2="1047.3779" y1="811.6211" y2="811.6211"/><text fill="#000000" font-family="sans-serif" font-size="14" lengthAdjust="spacing" textLength="78.5996" x="756" y="830.7285">-publishDate</text><text fill="#000000" font-family="sans-serif" font-size="14" lengthAdjust="spacing" textLength="91.041" x="756" y="849.3496">-businessType</text><text fill="#000000" font-family="sans-serif" font-size="14" lengthAdjust="spacing" textLength="78.5654" x="756" y="867.9707">-commission</text><text fill="#000000" font-family="sans-serif" font-size="14" lengthAdjust="spacing" textLength="42.0137" x="756" y="886.5918">-status</text><line style="stroke:#181818;stroke-width:0.5;" x1="751" x2="1047.3779" y1="894.1055" y2="894.1055"/><text fill="#000000" font-family="sans-serif" font-size="14" lengthAdjust="spacing" textLength="286.3779" x="756" y="913.2129">Listing(date publishDate, string businessType,</text><text fill="#000000" font-family="sans-serif" font-size="14" lengthAdjust="spacing" textLength="203.8613" x="756" y="931.834">double commission,string status)</text></g><!--class OrderMemoryRepository--><g id="elem_OrderMemoryRepository"><rect codeLine="74" fill="#F1F1F1" height="63.2422" id="OrderMemoryRepository" rx="2.5" ry="2.5" style="stroke:#181818;stroke-width:0.5;" width="164.8926" x="393.5" y="829.5"/><text fill="#000000" font-family="sans-serif" font-size="14" lengthAdjust="spacing" textLength="153.2617" x="399.3154" y="849.6074">OrderMemoryRepository</text><line style="stroke:#181818;stroke-width:0.5;" x1="394.5" x2="557.3926" y1="858.1211" y2="858.1211"/><line style="stroke:#181818;stroke-width:0.5;" x1="394.5" x2="557.3926" y1="866.1211" y2="866.1211"/><text fill="#000000" font-family="sans-serif" font-size="14" lengthAdjust="spacing" textLength="152.8926" x="399.5" y="885.2285">+save(Order obj): Result</text></g><!--class MemoryRepositoryFactory--><g id="elem_MemoryRepositoryFactory"><rect codeLine="78" fill="#F1F1F1" height="63.2422" id="MemoryRepositoryFactory" rx="2.5" ry="2.5" style="stroke:#181818;stroke-width:0.5;" width="269.1475" x="89.5" y="829.5"/><text fill="#000000" font-family="sans-serif" font-size="14" lengthAdjust="spacing" textLength="164.1514" x="141.998" y="849.6074">MemoryRepositoryFactory</text><line style="stroke:#181818;stroke-width:0.5;" x1="90.5" x2="357.6475" y1="858.1211" y2="858.1211"/><line style="stroke:#181818;stroke-width:0.5;" x1="90.5" x2="357.6475" y1="866.1211" y2="866.1211"/><text fill="#000000" font-family="sans-serif" font-size="14" lengthAdjust="spacing" textLength="257.1475" x="95.5" y="885.2285">+getOrdersRepository(): OrderRepository</text></g><!--link Client to RepositoryFactory--><g id="link_Client_RepositoryFactory"><path codeLine="60" d="M148.23,412.15 C168.06,462.75 190.9398,521.144 206.6898,561.314 " fill="none" id="Client-to-RepositoryFactory" style="stroke:#181818;stroke-width:1.0;"/><polygon fill="#181818" points="208.88,566.9,209.3187,557.0609,207.0549,562.245,201.8708,559.9811,208.88,566.9" style="stroke:#181818;stroke-width:1.0;"/><text fill="#000000" font-family="sans-serif" font-size="13" lengthAdjust="spacing" textLength="27.46" x="166" y="457.0283">uses</text><text fill="#000000" font-family="sans-serif" font-size="13" lengthAdjust="spacing" textLength="7.23" x="143.804" y="434.4344">1</text><text fill="#000000" font-family="sans-serif" font-size="13" lengthAdjust="spacing" textLength="7.23" x="198.6868" y="555.6687">1</text></g><!--link OrderRepository to Order--><g id="link_OrderRepository_Order"><path codeLine="61" d="M558.56,606.5 C582.37,606.5 603.69,606.5 632.29,606.5 " fill="none" id="OrderRepository-to-Order" style="stroke:#181818;stroke-width:1.0;"/><polygon fill="#181818" points="638.29,606.5,629.29,602.5,633.29,606.5,629.29,610.5,638.29,606.5" style="stroke:#181818;stroke-width:1.0;"/><text fill="#000000" font-family="sans-serif" font-size="13" lengthAdjust="spacing" textLength="43.3481" x="577" y="599.5283">records</text><text fill="#000000" font-family="sans-serif" font-size="13" lengthAdjust="spacing" textLength="7.23" x="566.5092" y="602.7488">1</text><text fill="#000000" font-family="sans-serif" font-size="13" lengthAdjust="spacing" textLength="19.5127" x="611.277" y="620.7875">0..*</text></g><!--link PlaceOrderView to PlaceOrderController--><g id="link_PlaceOrderView_PlaceOrderController"><path codeLine="63" d="M593,52.12 C593,68.88 593,86.57 593,106.79 " fill="none" id="PlaceOrderView-to-PlaceOrderController" style="stroke:#181818;stroke-width:1.0;stroke-dasharray:7.0,7.0;"/><polygon fill="#181818" points="593,112.79,597,103.79,593,107.79,589,103.79,593,112.79" style="stroke:#181818;stroke-width:1.0;"/></g><!--link PlaceOrderController to Client--><g id="link_PlaceOrderController_Client"><path codeLine="64" d="M461.22,195.03 C406.81,212.46 343.39,233.92 287,256 C268.09,263.41 253.7361,269.4003 234.5661,277.8903 " fill="none" id="PlaceOrderController-to-Client" style="stroke:#181818;stroke-width:1.0;stroke-dasharray:7.0,7.0;"/><polygon fill="#181818" points="229.08,280.32,238.9288,280.3329,233.6517,278.2953,235.6893,273.0181,229.08,280.32" style="stroke:#181818;stroke-width:1.0;"/></g><!--link PlaceOrderController to PlaceOrderService--><g id="link_PlaceOrderController_PlaceOrderService"><path codeLine="65" d="M593,195.39 C593,221.65 593,250.05 593,277.89 " fill="none" id="PlaceOrderController-to-PlaceOrderService" style="stroke:#181818;stroke-width:1.0;stroke-dasharray:7.0,7.0;"/><polygon fill="#181818" points="593,283.89,597,274.89,593,278.89,589,274.89,593,283.89" style="stroke:#181818;stroke-width:1.0;"/></g><!--link PlaceOrderService to OrderRepository--><g id="link_PlaceOrderService_OrderRepository"><path codeLine="66" d="M571.68,384.3 C549,436.72 515.9922,513.0432 495.2022,561.1032 " fill="none" id="PlaceOrderService-to-OrderRepository" style="stroke:#181818;stroke-width:1.0;stroke-dasharray:7.0,7.0;"/><polygon fill="#181818" points="492.82,566.61,500.0645,559.9379,494.8051,562.021,492.722,556.7616,492.82,566.61" style="stroke:#181818;stroke-width:1.0;"/></g><!--link PlaceOrderService to Order--><g id="link_PlaceOrderService_Order"><path codeLine="67" d="M648.77,384.3 C682.56,414.17 722.6547,449.606 764.8247,486.886 " fill="none" id="PlaceOrderService-to-Order" style="stroke:#181818;stroke-width:1.0;stroke-dasharray:7.0,7.0;"/><polygon fill="#181818" points="769.32,490.86,765.2264,481.9022,765.5739,487.5483,759.9278,487.8958,769.32,490.86" style="stroke:#181818;stroke-width:1.0;"/></g><!--link PlaceOrderController to Order--><g id="link_PlaceOrderController_Order"><path codeLine="68" d="M823.75,195.05 C853.21,209.64 879.74,229.37 899,256 C947.26,322.75 945.4118,411.0765 932.0118,484.8865 " fill="none" id="PlaceOrderController-to-Order" style="stroke:#181818;stroke-width:1.0;stroke-dasharray:7.0,7.0;"/><polygon fill="#181818" points="930.94,490.79,936.4833,482.6493,931.8331,485.8704,928.612,481.2202,930.94,490.79" style="stroke:#181818;stroke-width:1.0;"/></g><!--link Order to Listing--><g id="link_Order_Listing"><path codeLine="69" d="M899,722.3 C899,742.75 899,757.61 899,776.7 " fill="none" id="Order-to-Listing" style="stroke:#181818;stroke-width:1.0;"/><polygon fill="#181818" points="899,782.7,903,773.7,899,777.7,895,773.7,899,782.7" style="stroke:#181818;stroke-width:1.0;"/></g><!--link Client to PlaceOrderService--><g id="link_Client_PlaceOrderService"><path codeLine="71" d="M229.07,334 C252.51,334 272.27,334 298.92,334 " fill="none" id="Client-to-PlaceOrderService" style="stroke:#181818;stroke-width:1.0;"/><polygon fill="#181818" points="304.92,334,295.92,330,299.92,334,295.92,338,304.92,334" style="stroke:#181818;stroke-width:1.0;"/><text fill="#000000" font-family="sans-serif" font-size="13" lengthAdjust="spacing" textLength="39.0317" x="247.5" y="327.0283">adopts</text></g><!--link RepositoryFactory to OrderRepository--><g id="link_RepositoryFactory_OrderRepository"><path codeLine="72" d="M358.86,606.5 C370.3,606.5 375.74,606.5 387.18,606.5 " fill="none" id="RepositoryFactory-to-OrderRepository" style="stroke:#181818;stroke-width:1.0;stroke-dasharray:7.0,7.0;"/><polygon fill="#181818" points="393.18,606.5,384.18,602.5,388.18,606.5,384.18,610.5,393.18,606.5" style="stroke:#181818;stroke-width:1.0;"/></g><!--reverse link OrderRepository to OrderMemoryRepository--><g id="link_OrderRepository_OrderMemoryRepository"><path codeLine="82" d="M476,664.12 C476,714.41 476,783.3 476,829.32 " fill="none" id="OrderRepository-backto-OrderMemoryRepository" style="stroke:#181818;stroke-width:1.0;stroke-dasharray:7.0,7.0;"/><polygon fill="none" points="476,646.12,470,664.12,482,664.12,476,646.12" style="stroke:#181818;stroke-width:1.0;"/></g><!--reverse link RepositoryFactory to MemoryRepositoryFactory--><g id="link_RepositoryFactory_MemoryRepositoryFactory"><path codeLine="83" d="M224,664.12 C224,714.41 224,783.3 224,829.32 " fill="none" id="RepositoryFactory-backto-MemoryRepositoryFactory" style="stroke:#181818;stroke-width:1.0;stroke-dasharray:7.0,7.0;"/><polygon fill="none" points="224,646.12,218,664.12,230,664.12,224,646.12" style="stroke:#181818;stroke-width:1.0;"/></g><!--link MemoryRepositoryFactory to OrderMemoryRepository--><g id="link_MemoryRepositoryFactory_OrderMemoryRepository"><path codeLine="85" d="M358.86,861 C370.3,861 375.74,861 387.18,861 " fill="none" id="MemoryRepositoryFactory-to-OrderMemoryRepository" style="stroke:#181818;stroke-width:1.0;stroke-dasharray:7.0,7.0;"/><polygon fill="#181818" points="393.18,861,384.18,857,388.18,861,384.18,865,393.18,861" style="stroke:#181818;stroke-width:1.0;"/></g><!--SRC=[hLHDRzim3BthLmYvhDbYfxi6HO0Xmu02sreqs-wonCRQPCaGvNJTnt-VPFahjhEYG7E9o4S-aiyIN-NEbRXPhql5jAiAbN9JhBbYY8cGx61PGKWk1L0kBLT0y8VK9VDkMWUzSyxAh79mpOtUorz0Bmcf4Ngh68SRAy1-a_10VvE_KsHdjBD6AR0Uf_xtXbjWBe8Nmf-e2SVtuRIYw8lfGtHzUIpXrBDtp5Muei9KcV8DCynlhIaDChNSqAEH8fR0AYkaYoKyS0TOATTtjrCIjAlxIJGh8FnpwVniUiUi-5mL6TZWTEpdzS24WaaL3cLkD7H-N_00iTeUx55o24M7zfmm3TIgCW4kQkCE_7JI6ViO5S3WM0w5V5aDwwAHdWbnOx-MWJxsGats_KHDgHtOUzyt7VTwTTLXssqx8hBZqqmzoGV6ptErWcCVtudUkthTOzcOd7HY3SmWrC2CAaN7KABQy-9tztIcGEU74Ms37H18mvIHTdJpQlePT3Se5E1OluC_IdG-F23DaVIgDPvMjz9dIinxvR8AfGR4NZo_Mmg9A8sEDlOwjcnHk05NfzEGRaKwfJhALHCNIPUXp-OfBzukQ2BCWqwszNboYpQqGa0olgTrdfM7t8N4opHzlOXVTqCjSF_Ta93HbalJxUnw8xCxBqJ77i_ZawTFfbiYn8qlzt-YpXUBS7mEYH-w- -YDaibCFnlAX2aTakdZJ6lnPfeRlhjFK7ZNGFQd5qBC7YUsLP-z1ERRIAio_JDj_LpL9dm2aFCP9-gCe_u1]--></g></svg>