<svg xmlns="http://www.w3.org/2000/svg" xmlns:xlink="http://www.w3.org/1999/xlink" contentStyleType="text/css" height="791px" preserveAspectRatio="none" style="width:1471px;height:791px;background:#FFFFFF;" version="1.1" viewBox="0 0 1471 791" width="1471px" zoomAndPan="magnify"><defs/><g><rect fill="#FFFFFF" height="695.8105" style="stroke:#181818;stroke-width:1.0;" width="10" x="45.1172" y="48.6211"/><rect fill="#FFFFFF" height="663.5195" style="stroke:#181818;stroke-width:1.0;" width="10" x="197.3452" y="71.9121"/><rect fill="#FFFFFF" height="42.291" style="stroke:#181818;stroke-width:1.0;" width="10" x="202.3452" y="654.8496"/><rect fill="#FFFFFF" height="475.0645" style="stroke:#181818;stroke-width:1.0;" width="10" x="421.105" y="140.4941"/><rect fill="#FFFFFF" height="137.4941" style="stroke:#181818;stroke-width:1.0;" width="10" x="565.3857" y="171.7852"/><rect fill="#FFFFFF" height="74.9121" style="stroke:#181818;stroke-width:1.0;" width="10" x="749.1753" y="340.5703"/><rect fill="#FFFFFF" height="93.873" style="stroke:#181818;stroke-width:1.0;" width="10" x="749.1753" y="446.7734"/><rect fill="#FFFFFF" height="31.291" style="stroke:#181818;stroke-width:1.0;" width="10" x="918.6748" y="203.0762"/><rect fill="#FFFFFF" height="31.291" style="stroke:#181818;stroke-width:1.0;" width="10" x="1090.1294" y="478.0645"/><line style="stroke:#181818;stroke-width:0.5;stroke-dasharray:5.0,5.0;" x1="50" x2="50" y1="38.6211" y2="753.4316"/><line style="stroke:#181818;stroke-width:0.5;stroke-dasharray:5.0,5.0;" x1="201.856" x2="201.856" y1="38.6211" y2="753.4316"/><line style="stroke:#181818;stroke-width:0.5;stroke-dasharray:5.0,5.0;" x1="425.5225" x2="425.5225" y1="38.6211" y2="753.4316"/><line style="stroke:#181818;stroke-width:0.5;stroke-dasharray:5.0,5.0;" x1="570.1963" x2="570.1963" y1="38.6211" y2="753.4316"/><line style="stroke:#181818;stroke-width:0.5;stroke-dasharray:5.0,5.0;" x1="753.4238" x2="753.4238" y1="274.1777" y2="753.4316"/><line style="stroke:#181818;stroke-width:0.5;stroke-dasharray:5.0,5.0;" x1="922.9268" x2="922.9268" y1="38.6211" y2="753.4316"/><line style="stroke:#181818;stroke-width:0.5;stroke-dasharray:5.0,5.0;" x1="1094.4229" x2="1094.4229" y1="38.6211" y2="753.4316"/><line style="stroke:#181818;stroke-width:0.5;stroke-dasharray:5.0,5.0;" x1="1257.8359" x2="1257.8359" y1="380.3809" y2="753.4316"/><line style="stroke:#181818;stroke-width:0.5;stroke-dasharray:5.0,5.0;" x1="1405.8281" x2="1405.8281" y1="580.457" y2="753.4316"/><rect fill="#E2E2F0" height="32.6211" rx="2.5" ry="2.5" style="stroke:#181818;stroke-width:0.5;" width="90.2344" x="5" y="5"/><text fill="#000000" font-family="sans-serif" font-size="14" lengthAdjust="spacing" textLength="76.2344" x="12" y="27.1074">:HTTPClient</text><rect fill="#E2E2F0" height="32.6211" rx="2.5" ry="2.5" style="stroke:#181818;stroke-width:0.5;" width="90.2344" x="5" y="752.4316"/><text fill="#000000" font-family="sans-serif" font-size="14" lengthAdjust="spacing" textLength="76.2344" x="12" y="774.5391">:HTTPClient</text><rect fill="#E2E2F0" height="32.6211" rx="2.5" ry="2.5" style="stroke:#181818;stroke-width:0.5;" width="150.9785" x="126.856" y="5"/><text fill="#000000" font-family="sans-serif" font-size="14" lengthAdjust="spacing" textLength="136.9785" x="133.856" y="27.1074">handler:RouteHandler</text><rect fill="#E2E2F0" height="32.6211" rx="2.5" ry="2.5" style="stroke:#181818;stroke-width:0.5;" width="150.9785" x="126.856" y="752.4316"/><text fill="#000000" font-family="sans-serif" font-size="14" lengthAdjust="spacing" textLength="136.9785" x="133.856" y="774.5391">handler:RouteHandler</text><rect fill="#E2E2F0" height="32.6211" rx="2.5" ry="2.5" style="stroke:#181818;stroke-width:0.5;" width="115.165" x="368.5225" y="5"/><text fill="#000000" font-family="sans-serif" font-size="14" lengthAdjust="spacing" textLength="101.165" x="375.5225" y="27.1074">:AgentController</text><rect fill="#E2E2F0" height="32.6211" rx="2.5" ry="2.5" style="stroke:#181818;stroke-width:0.5;" width="115.165" x="368.5225" y="752.4316"/><text fill="#000000" font-family="sans-serif" font-size="14" lengthAdjust="spacing" textLength="101.165" x="375.5225" y="774.5391">:AgentController</text><rect fill="#E2E2F0" height="32.6211" rx="2.5" ry="2.5" style="stroke:#181818;stroke-width:0.5;" width="86.3789" x="527.1963" y="5"/><text fill="#000000" font-family="sans-serif" font-size="14" lengthAdjust="spacing" textLength="72.3789" x="534.1963" y="27.1074">:Application</text><rect fill="#E2E2F0" height="32.6211" rx="2.5" ry="2.5" style="stroke:#181818;stroke-width:0.5;" width="86.3789" x="527.1963" y="752.4316"/><text fill="#000000" font-family="sans-serif" font-size="14" lengthAdjust="spacing" textLength="72.3789" x="534.1963" y="774.5391">:Application</text><rect fill="#E2E2F0" height="32.6211" rx="2.5" ry="2.5" style="stroke:#181818;stroke-width:0.5;" width="145.5029" x="681.4238" y="752.4316"/><text fill="#000000" font-family="sans-serif" font-size="14" lengthAdjust="spacing" textLength="131.5029" x="688.4238" y="774.5391">service:AgentService</text><rect fill="#E2E2F0" height="32.6211" rx="2.5" ry="2.5" style="stroke:#181818;stroke-width:0.5;" width="173.4961" x="836.9268" y="5"/><text fill="#000000" font-family="sans-serif" font-size="14" lengthAdjust="spacing" textLength="159.4961" x="843.9268" y="27.1074">factory:RepositoryFactory</text><rect fill="#E2E2F0" height="32.6211" rx="2.5" ry="2.5" style="stroke:#181818;stroke-width:0.5;" width="173.4961" x="836.9268" y="752.4316"/><text fill="#000000" font-family="sans-serif" font-size="14" lengthAdjust="spacing" textLength="159.4961" x="843.9268" y="774.5391">factory:RepositoryFactory</text><rect fill="#E2E2F0" height="32.6211" rx="2.5" ry="2.5" style="stroke:#181818;stroke-width:0.5;" width="149.4131" x="1020.4229" y="5"/><text fill="#000000" font-family="sans-serif" font-size="14" lengthAdjust="spacing" textLength="135.4131" x="1027.4229" y="27.1074">repo:AgentRepository</text><rect fill="#E2E2F0" height="32.6211" rx="2.5" ry="2.5" style="stroke:#181818;stroke-width:0.5;" width="149.4131" x="1020.4229" y="752.4316"/><text fill="#000000" font-family="sans-serif" font-size="14" lengthAdjust="spacing" textLength="135.4131" x="1027.4229" y="774.5391">repo:AgentRepository</text><rect fill="#E2E2F0" height="32.6211" rx="2.5" ry="2.5" style="stroke:#181818;stroke-width:0.5;" width="157.9922" x="1179.8359" y="752.4316"/><text fill="#000000" font-family="sans-serif" font-size="14" lengthAdjust="spacing" textLength="143.9922" x="1186.8359" y="774.5391">agent:RealEstateAgent</text><rect fill="#E2E2F0" height="32.6211" rx="2.5" ry="2.5" style="stroke:#181818;stroke-width:0.5;" width="117.4824" x="1347.8281" y="752.4316"/><text fill="#000000" font-family="sans-serif" font-size="14" lengthAdjust="spacing" textLength="103.4824" x="1354.8281" y="774.5391">result:HttpResult</text><rect fill="#FFFFFF" height="695.8105" style="stroke:#181818;stroke-width:1.0;" width="10" x="45.1172" y="48.6211"/><rect fill="#FFFFFF" height="663.5195" style="stroke:#181818;stroke-width:1.0;" width="10" x="197.3452" y="71.9121"/><rect fill="#FFFFFF" height="42.291" style="stroke:#181818;stroke-width:1.0;" width="10" x="202.3452" y="654.8496"/><rect fill="#FFFFFF" height="475.0645" style="stroke:#181818;stroke-width:1.0;" width="10" x="421.105" y="140.4941"/><rect fill="#FFFFFF" height="137.4941" style="stroke:#181818;stroke-width:1.0;" width="10" x="565.3857" y="171.7852"/><rect fill="#FFFFFF" height="74.9121" style="stroke:#181818;stroke-width:1.0;" width="10" x="749.1753" y="340.5703"/><rect fill="#FFFFFF" height="93.873" style="stroke:#181818;stroke-width:1.0;" width="10" x="749.1753" y="446.7734"/><rect fill="#FFFFFF" height="31.291" style="stroke:#181818;stroke-width:1.0;" width="10" x="918.6748" y="203.0762"/><rect fill="#FFFFFF" height="31.291" style="stroke:#181818;stroke-width:1.0;" width="10" x="1090.1294" y="478.0645"/><polygon fill="#181818" points="185.3452,67.9121,195.3452,71.9121,185.3452,75.9121,189.3452,71.9121" style="stroke:#181818;stroke-width:1.0;"/><line style="stroke:#181818;stroke-width:1.0;" x1="55.1172" x2="191.3452" y1="71.9121" y2="71.9121"/><text fill="#000000" font-family="sans-serif" font-size="13" font-weight="bold" lengthAdjust="spacing" textLength="7.23" x="62.1172" y="66.6494">1</text><text fill="#000000" font-family="sans-serif" font-size="13" lengthAdjust="spacing" textLength="111.998" x="73.3472" y="66.6494">POST/agents(data)</text><path d="M110,84.9121 L110,111.9121 L294,111.9121 L294,94.9121 L284,84.9121 L110,84.9121 " fill="#FEFFDD" style="stroke:#181818;stroke-width:0.5;"/><path d="M284,84.9121 L284,94.9121 L294,94.9121 L284,84.9121 " fill="#FEFFDD" style="stroke:#181818;stroke-width:0.5;"/><text fill="#000000" font-family="sans-serif" font-size="13" lengthAdjust="spacing" textLength="163.3125" x="116" y="103.9404">after doing some processing</text><polygon fill="#181818" points="409.105,136.4941,419.105,140.4941,409.105,144.4941,413.105,140.4941" style="stroke:#181818;stroke-width:1.0;"/><line style="stroke:#181818;stroke-width:1.0;" x1="207.3452" x2="415.105" y1="140.4941" y2="140.4941"/><text fill="#000000" font-family="sans-serif" font-size="13" font-weight="bold" lengthAdjust="spacing" textLength="7.23" x="214.3452" y="135.2314">2</text><text fill="#000000" font-family="sans-serif" font-size="13" lengthAdjust="spacing" textLength="183.5298" x="225.5752" y="135.2314">createAgent(name, citizenCard)</text><polygon fill="#181818" points="553.3857,167.7852,563.3857,171.7852,553.3857,175.7852,557.3857,171.7852" style="stroke:#181818;stroke-width:1.0;"/><line style="stroke:#181818;stroke-width:1.0;" x1="431.105" x2="559.3857" y1="171.7852" y2="171.7852"/><text fill="#000000" font-family="sans-serif" font-size="13" font-weight="bold" lengthAdjust="spacing" textLength="7.23" x="438.105" y="166.5225">3</text><text fill="#000000" font-family="sans-serif" font-size="13" lengthAdjust="spacing" textLength="104.0508" x="449.335" y="166.5225">getAgentService()</text><polygon fill="#181818" points="906.6748,199.0762,916.6748,203.0762,906.6748,207.0762,910.6748,203.0762" style="stroke:#181818;stroke-width:1.0;"/><line style="stroke:#181818;stroke-width:1.0;" x1="575.3857" x2="912.6748" y1="203.0762" y2="203.0762"/><text fill="#000000" font-family="sans-serif" font-size="13" font-weight="bold" lengthAdjust="spacing" textLength="7.23" x="582.3857" y="197.8135">4</text><text fill="#000000" font-family="sans-serif" font-size="13" lengthAdjust="spacing" textLength="122.8398" x="593.6157" y="197.8135">getAgentRepository()</text><polygon fill="#181818" points="586.3857,230.3672,576.3857,234.3672,586.3857,238.3672,582.3857,234.3672" style="stroke:#181818;stroke-width:1.0;"/><line style="stroke:#181818;stroke-width:1.0;stroke-dasharray:2.0,2.0;" x1="580.3857" x2="922.6748" y1="234.3672" y2="234.3672"/><text fill="#000000" font-family="sans-serif" font-size="13" font-weight="bold" lengthAdjust="spacing" textLength="7.23" x="592.3857" y="229.1045">5</text><text fill="#000000" font-family="sans-serif" font-size="13" lengthAdjust="spacing" textLength="26.019" x="603.6157" y="229.1045">repo</text><polygon fill="#181818" points="669.4238,261.6582,679.4238,265.6582,669.4238,269.6582,673.4238,265.6582" style="stroke:#181818;stroke-width:1.0;"/><line style="stroke:#181818;stroke-width:1.0;stroke-dasharray:2.0,2.0;" x1="575.3857" x2="675.4238" y1="265.6582" y2="265.6582"/><text fill="#000000" font-family="sans-serif" font-size="13" font-weight="bold" lengthAdjust="spacing" textLength="7.23" x="582.3857" y="260.3955">6</text><text fill="#000000" font-family="sans-serif" font-size="13" lengthAdjust="spacing" textLength="70.8081" x="593.6157" y="260.3955">create(repo)</text><rect fill="#E2E2F0" height="32.6211" rx="2.5" ry="2.5" style="stroke:#181818;stroke-width:0.5;" width="145.5029" x="681.4238" y="242.3672"/><text fill="#000000" font-family="sans-serif" font-size="14" lengthAdjust="spacing" textLength="131.5029" x="688.4238" y="264.4746">service:AgentService</text><polygon fill="#181818" points="442.105,305.2793,432.105,309.2793,442.105,313.2793,438.105,309.2793" style="stroke:#181818;stroke-width:1.0;"/><line style="stroke:#181818;stroke-width:1.0;stroke-dasharray:2.0,2.0;" x1="436.105" x2="569.3857" y1="309.2793" y2="309.2793"/><text fill="#000000" font-family="sans-serif" font-size="13" font-weight="bold" lengthAdjust="spacing" textLength="7.23" x="448.105" y="304.0166">7</text><text fill="#000000" font-family="sans-serif" font-size="13" lengthAdjust="spacing" textLength="41.1772" x="459.335" y="304.0166">service</text><polygon fill="#181818" points="737.1753,336.5703,747.1753,340.5703,737.1753,344.5703,741.1753,340.5703" style="stroke:#181818;stroke-width:1.0;"/><line style="stroke:#181818;stroke-width:1.0;" x1="431.105" x2="743.1753" y1="340.5703" y2="340.5703"/><text fill="#000000" font-family="sans-serif" font-size="13" font-weight="bold" lengthAdjust="spacing" textLength="7.23" x="438.105" y="335.3076">8</text><text fill="#000000" font-family="sans-serif" font-size="13" lengthAdjust="spacing" textLength="149.5571" x="449.335" y="335.3076">create(name, citizenCard)</text><polygon fill="#181818" points="1167.8359,367.8613,1177.8359,371.8613,1167.8359,375.8613,1171.8359,371.8613" style="stroke:#181818;stroke-width:1.0;"/><line style="stroke:#181818;stroke-width:1.0;stroke-dasharray:2.0,2.0;" x1="759.1753" x2="1173.8359" y1="371.8613" y2="371.8613"/><text fill="#000000" font-family="sans-serif" font-size="13" font-weight="bold" lengthAdjust="spacing" textLength="7.23" x="766.1753" y="366.5986">9</text><text fill="#000000" font-family="sans-serif" font-size="13" lengthAdjust="spacing" textLength="149.5571" x="777.4053" y="366.5986">create(name, citizenCard)</text><rect fill="#E2E2F0" height="32.6211" rx="2.5" ry="2.5" style="stroke:#181818;stroke-width:0.5;" width="157.9922" x="1179.8359" y="348.5703"/><text fill="#000000" font-family="sans-serif" font-size="14" lengthAdjust="spacing" textLength="143.9922" x="1186.8359" y="370.6777">agent:RealEstateAgent</text><polygon fill="#181818" points="442.105,411.4824,432.105,415.4824,442.105,419.4824,438.105,415.4824" style="stroke:#181818;stroke-width:1.0;"/><line style="stroke:#181818;stroke-width:1.0;stroke-dasharray:2.0,2.0;" x1="436.105" x2="753.1753" y1="415.4824" y2="415.4824"/><text fill="#000000" font-family="sans-serif" font-size="13" font-weight="bold" lengthAdjust="spacing" textLength="14.46" x="448.105" y="410.2197">10</text><text fill="#000000" font-family="sans-serif" font-size="13" lengthAdjust="spacing" textLength="32.5317" x="466.5649" y="410.2197">agent</text><polygon fill="#181818" points="737.1753,442.7734,747.1753,446.7734,737.1753,450.7734,741.1753,446.7734" style="stroke:#181818;stroke-width:1.0;"/><line style="stroke:#181818;stroke-width:1.0;" x1="431.105" x2="743.1753" y1="446.7734" y2="446.7734"/><text fill="#000000" font-family="sans-serif" font-size="13" font-weight="bold" lengthAdjust="spacing" textLength="14.46" x="438.105" y="441.5107">11</text><text fill="#000000" font-family="sans-serif" font-size="13" lengthAdjust="spacing" textLength="68.6499" x="456.5649" y="441.5107">save(agent)</text><polygon fill="#181818" points="1078.1294,474.0645,1088.1294,478.0645,1078.1294,482.0645,1082.1294,478.0645" style="stroke:#181818;stroke-width:1.0;"/><line style="stroke:#181818;stroke-width:1.0;" x1="759.1753" x2="1084.1294" y1="478.0645" y2="478.0645"/><text fill="#000000" font-family="sans-serif" font-size="13" font-weight="bold" lengthAdjust="spacing" textLength="14.46" x="766.1753" y="472.8018">12</text><text fill="#000000" font-family="sans-serif" font-size="13" lengthAdjust="spacing" textLength="68.6499" x="784.6353" y="472.8018">save(agent)</text><polygon fill="#181818" points="770.1753,505.3555,760.1753,509.3555,770.1753,513.3555,766.1753,509.3555" style="stroke:#181818;stroke-width:1.0;"/><line style="stroke:#181818;stroke-width:1.0;stroke-dasharray:2.0,2.0;" x1="764.1753" x2="1094.1294" y1="509.3555" y2="509.3555"/><text fill="#000000" font-family="sans-serif" font-size="13" font-weight="bold" lengthAdjust="spacing" textLength="14.46" x="776.1753" y="504.0928">13</text><text fill="#000000" font-family="sans-serif" font-size="13" lengthAdjust="spacing" textLength="13.73" x="794.6353" y="504.0928">ok</text><polygon fill="#181818" points="442.105,536.6465,432.105,540.6465,442.105,544.6465,438.105,540.6465" style="stroke:#181818;stroke-width:1.0;"/><line style="stroke:#181818;stroke-width:1.0;stroke-dasharray:2.0,2.0;" x1="436.105" x2="753.1753" y1="540.6465" y2="540.6465"/><text fill="#000000" font-family="sans-serif" font-size="13" font-weight="bold" lengthAdjust="spacing" textLength="14.46" x="448.105" y="535.3838">14</text><text fill="#000000" font-family="sans-serif" font-size="13" lengthAdjust="spacing" textLength="13.73" x="466.5649" y="535.3838">ok</text><polygon fill="#181818" points="1335.8281,567.9375,1345.8281,571.9375,1335.8281,575.9375,1339.8281,571.9375" style="stroke:#181818;stroke-width:1.0;"/><line style="stroke:#181818;stroke-width:1.0;stroke-dasharray:2.0,2.0;" x1="431.105" x2="1341.8281" y1="571.9375" y2="571.9375"/><text fill="#000000" font-family="sans-serif" font-size="13" font-weight="bold" lengthAdjust="spacing" textLength="14.46" x="438.105" y="566.6748">15</text><text fill="#000000" font-family="sans-serif" font-size="13" lengthAdjust="spacing" textLength="66.479" x="456.5649" y="566.6748">create(201)</text><rect fill="#E2E2F0" height="32.6211" rx="2.5" ry="2.5" style="stroke:#181818;stroke-width:0.5;" width="117.4824" x="1347.8281" y="548.6465"/><text fill="#000000" font-family="sans-serif" font-size="14" lengthAdjust="spacing" textLength="103.4824" x="1354.8281" y="570.7539">result:HttpResult</text><polygon fill="#181818" points="218.3452,611.5586,208.3452,615.5586,218.3452,619.5586,214.3452,615.5586" style="stroke:#181818;stroke-width:1.0;"/><line style="stroke:#181818;stroke-width:1.0;stroke-dasharray:2.0,2.0;" x1="212.3452" x2="425.105" y1="615.5586" y2="615.5586"/><text fill="#000000" font-family="sans-serif" font-size="13" font-weight="bold" lengthAdjust="spacing" textLength="14.46" x="224.3452" y="610.2959">16</text><text fill="#000000" font-family="sans-serif" font-size="13" lengthAdjust="spacing" textLength="31.7891" x="242.8052" y="610.2959">result</text><line style="stroke:#181818;stroke-width:1.0;" x1="207.3452" x2="254.3452" y1="641.8496" y2="641.8496"/><line style="stroke:#181818;stroke-width:1.0;" x1="254.3452" x2="254.3452" y1="641.8496" y2="654.8496"/><line style="stroke:#181818;stroke-width:1.0;" x1="213.3452" x2="254.3452" y1="654.8496" y2="654.8496"/><polygon fill="#181818" points="223.3452,650.8496,213.3452,654.8496,223.3452,658.8496,219.3452,654.8496" style="stroke:#181818;stroke-width:1.0;"/><text fill="#000000" font-family="sans-serif" font-size="13" font-weight="bold" lengthAdjust="spacing" textLength="14.46" x="219.3452" y="636.5869">17</text><text fill="#000000" font-family="sans-serif" font-size="13" lengthAdjust="spacing" textLength="150.9917" x="237.8052" y="636.5869">setHttpResult(resp, result)</text><line style="stroke:#181818;stroke-width:1.0;stroke-dasharray:2.0,2.0;" x1="212.3452" x2="254.3452" y1="696.1406" y2="696.1406"/><line style="stroke:#181818;stroke-width:1.0;stroke-dasharray:2.0,2.0;" x1="254.3452" x2="254.3452" y1="696.1406" y2="709.1406"/><line style="stroke:#181818;stroke-width:1.0;stroke-dasharray:2.0,2.0;" x1="207.3452" x2="254.3452" y1="709.1406" y2="709.1406"/><polygon fill="#181818" points="217.3452,705.1406,207.3452,709.1406,217.3452,713.1406,213.3452,709.1406" style="stroke:#181818;stroke-width:1.0;"/><text fill="#000000" font-family="sans-serif" font-size="13" font-weight="bold" lengthAdjust="spacing" textLength="14.46" x="219.3452" y="690.8779">18</text><text fill="#000000" font-family="sans-serif" font-size="13" lengthAdjust="spacing" textLength="3.6118" x="237.8052" y="690.8779">&#160;</text><polygon fill="#181818" points="66.1172,731.4316,56.1172,735.4316,66.1172,739.4316,62.1172,735.4316" style="stroke:#181818;stroke-width:1.0;"/><line style="stroke:#181818;stroke-width:1.0;stroke-dasharray:2.0,2.0;" x1="60.1172" x2="201.3452" y1="735.4316" y2="735.4316"/><text fill="#000000" font-family="sans-serif" font-size="13" font-weight="bold" lengthAdjust="spacing" textLength="14.46" x="72.1172" y="730.1689">19</text><text fill="#000000" font-family="sans-serif" font-size="13" lengthAdjust="spacing" textLength="25.2891" x="90.5771" y="730.1689">resp</text><!--SRC=[XPBDRjim3CVlUWgXbzf5ismxwb1W23hajYB92t0owmgJ9KsY0tHFFttObjqMw8qKV_oJ8ddxGkI2sE-T1aFZeBz8E-m3_XtHIDnr2deF0uEHB4XILo3arcJVZCDlz8mvyAIaSZ6VtuZZvV9qq0eDtN08lBfRxWLCfz6Banq9ZyN92UVNG3Yy4VtHHu63DUIjdi43UVqMSquh2QIioKZqjqH0VrKIYzwvEALgiRVqS_onzQ_YXCu6bSoVvIMdJFOsnKUqgDUaJ2TtYqAYeZRenq1nh3chjDs_6vV7C6eInxYiKpOdqMGojcncDMrMRRvxcCOg-DElysMVIuUc0uAMCMFJJg_e5mYUANgTLQRdmGx8dRSIGuW-OmLAcca3WakFS_UDWG7lkLIa_g4vWEzQbg04nrq8tYEjHz-qB3wdw3HCNf4wlqZDuTqibEPSSjFVYjhTtTnCayBj4YzzJhjV6fgobfmFUf-GKZOrjIhn2Lvgva6_hnZWYasEhP8UyeriW-bb_KN1xPyFoiJ7KYEBf9jODVhzwxUsXkSLbuDQBNCE1AHwPN6GmTrFSBlG5Ly_rOFByexz1m00]--></g></svg>