<svg xmlns="http://www.w3.org/2000/svg" xmlns:xlink="http://www.w3.org/1999/xlink" contentStyleType="text/css" height="968.4px" preserveAspectRatio="none" style="width:1373px;height:968px;background:#FFFFFF;" version="1.1" viewBox="0 0 1373 968" width="1373.4px" zoomAndPan="magnify"><defs/><g><rect fill="#FFFFFF" height="911.5219" style="stroke:#181818;stroke-width:0.6;" width="6" x="27.0703" y="29.1727"/><rect fill="#FFFFFF" height="892.1473" style="stroke:#181818;stroke-width:0.6;" width="6" x="100.1868" y="43.1473"/><rect fill="#FFFFFF" height="25.3746" style="stroke:#181818;stroke-width:0.6;" width="6" x="103.1868" y="119.0672"/><rect fill="#FFFFFF" height="773.2781" style="stroke:#181818;stroke-width:0.6;" width="6" x="393.9609" y="167.4164"/><rect fill="#FFFFFF" height="21.7746" style="stroke:#181818;stroke-width:0.6;" width="6" x="396.9609" y="894.7453"/><rect fill="#FFFFFF" height="636.4324" style="stroke:#181818;stroke-width:0.6;" width="6" x="516.0319" y="234.7383"/><rect fill="#FFFFFF" height="82.4965" style="stroke:#181818;stroke-width:0.6;" width="6" x="602.6004" y="253.5129"/><rect fill="#FFFFFF" height="563.5359" style="stroke:#181818;stroke-width:0.6;" width="6" x="717.2121" y="377.1586"/><rect fill="#FFFFFF" height="93.2965" style="stroke:#181818;stroke-width:0.6;" width="6" x="720.2121" y="582.3047"/><rect fill="#FFFFFF" height="109.473" style="stroke:#181818;stroke-width:0.6;" width="6" x="720.2121" y="694.3758"/><rect fill="#FFFFFF" height="25.3746" style="stroke:#181818;stroke-width:0.6;" width="6" x="723.2121" y="717.9504"/><rect fill="#FFFFFF" height="18.7746" style="stroke:#181818;stroke-width:0.6;" width="6" x="954.177" y="272.2875"/><rect fill="#FFFFFF" height="18.7746" style="stroke:#181818;stroke-width:0.6;" width="6" x="1057.0497" y="455.857"/><rect fill="#FFFFFF" height="18.7746" style="stroke:#181818;stroke-width:0.6;" width="6" x="1057.0497" y="766.2996"/><rect fill="#FFFFFF" height="18.7746" style="stroke:#181818;stroke-width:0.6;" width="6" x="1169.5058" y="395.9332"/><rect fill="none" height="61.7238" style="stroke:#000000;stroke-width:0.8999999999999999;" width="306.177" x="654" y="528.3809"/><line style="stroke:#181818;stroke-width:0.3;stroke-dasharray:5.0,5.0;" x1="30" x2="30" y1="23.1727" y2="946.0945"/><line style="stroke:#181818;stroke-width:0.3;stroke-dasharray:5.0,5.0;" x1="102.6841" x2="102.6841" y1="23.1727" y2="946.0945"/><line style="stroke:#181818;stroke-width:0.3;stroke-dasharray:5.0,5.0;" x1="214.5451" x2="214.5451" y1="67.0336" y2="946.0945"/><line style="stroke:#181818;stroke-width:0.3;stroke-dasharray:5.0,5.0;" x1="302.0373" x2="302.0373" y1="93.2063" y2="946.0945"/><line style="stroke:#181818;stroke-width:0.3;stroke-dasharray:5.0,5.0;" x1="396.6674" x2="396.6674" y1="23.1727" y2="946.0945"/><line style="stroke:#181818;stroke-width:0.3;stroke-dasharray:5.0,5.0;" x1="518.6824" x2="518.6824" y1="213.6773" y2="946.0945"/><line style="stroke:#181818;stroke-width:0.3;stroke-dasharray:5.0,5.0;" x1="605.4867" x2="605.4867" y1="23.1727" y2="946.0945"/><line style="stroke:#181818;stroke-width:0.3;stroke-dasharray:5.0,5.0;" x1="719.7612" x2="719.7612" y1="314.9484" y2="946.0945"/><line style="stroke:#181818;stroke-width:0.3;stroke-dasharray:5.0,5.0;" x1="956.7281" x2="956.7281" y1="23.1727" y2="946.0945"/><line style="stroke:#181818;stroke-width:0.3;stroke-dasharray:5.0,5.0;" x1="1059.6258" x2="1059.6258" y1="23.1727" y2="946.0945"/><line style="stroke:#181818;stroke-width:0.3;stroke-dasharray:5.0,5.0;" x1="1172.0736" x2="1172.0736" y1="23.1727" y2="946.0945"/><line style="stroke:#181818;stroke-width:0.3;stroke-dasharray:5.0,5.0;" x1="1266.5379" x2="1266.5379" y1="613.391" y2="946.0945"/><line style="stroke:#181818;stroke-width:0.3;stroke-dasharray:5.0,5.0;" x1="1334.6438" x2="1334.6438" y1="850.1098" y2="946.0945"/><rect fill="#E2E2F0" height="19.5727" rx="1.5" ry="1.5" style="stroke:#181818;stroke-width:0.3;" width="54.1406" x="3" y="3"/><text fill="#000000" font-family="sans-serif" font-size="8.4" lengthAdjust="spacing" textLength="45.7406" x="7.2" y="16.2645">:HTTPClient</text><rect fill="#E2E2F0" height="19.5727" rx="1.5" ry="1.5" style="stroke:#181818;stroke-width:0.3;" width="54.1406" x="3" y="945.4945"/><text fill="#000000" font-family="sans-serif" font-size="8.4" lengthAdjust="spacing" textLength="45.7406" x="7.2" y="958.759">:HTTPClient</text><rect fill="#E2E2F0" height="19.5727" rx="1.5" ry="1.5" style="stroke:#181818;stroke-width:0.3;" width="57.4055" x="74.4841" y="3"/><text fill="#000000" font-family="sans-serif" font-size="8.4" lengthAdjust="spacing" textLength="49.0055" x="78.6841" y="16.2645">:HTTPServer</text><rect fill="#E2E2F0" height="19.5727" rx="1.5" ry="1.5" style="stroke:#181818;stroke-width:0.3;" width="57.4055" x="74.4841" y="945.4945"/><text fill="#000000" font-family="sans-serif" font-size="8.4" lengthAdjust="spacing" textLength="49.0055" x="78.6841" y="958.759">:HTTPServer</text><rect fill="#E2E2F0" height="19.5727" rx="1.5" ry="1.5" style="stroke:#181818;stroke-width:0.3;" width="76.0922" x="176.7451" y="945.4945"/><text fill="#000000" font-family="sans-serif" font-size="8.4" lengthAdjust="spacing" textLength="67.6922" x="180.9451" y="958.759">req:HTTPRequest</text><rect fill="#E2E2F0" height="19.5727" rx="1.5" ry="1.5" style="stroke:#181818;stroke-width:0.3;" width="86.8301" x="258.8373" y="945.4945"/><text fill="#000000" font-family="sans-serif" font-size="8.4" lengthAdjust="spacing" textLength="78.4301" x="263.0373" y="958.759">resp:HTTPResponse</text><rect fill="#E2E2F0" height="19.5727" rx="1.5" ry="1.5" style="stroke:#181818;stroke-width:0.3;" width="90.5871" x="351.6674" y="3"/><text fill="#000000" font-family="sans-serif" font-size="8.4" lengthAdjust="spacing" textLength="82.1871" x="355.8674" y="16.2645">handler:RouteHandler</text><rect fill="#E2E2F0" height="19.5727" rx="1.5" ry="1.5" style="stroke:#181818;stroke-width:0.3;" width="90.5871" x="351.6674" y="945.4945"/><text fill="#000000" font-family="sans-serif" font-size="8.4" lengthAdjust="spacing" textLength="82.1871" x="355.8674" y="958.759">handler:RouteHandler</text><rect fill="#E2E2F0" height="19.5727" rx="1.5" ry="1.5" style="stroke:#181818;stroke-width:0.3;" width="69.099" x="484.4824" y="945.4945"/><text fill="#000000" font-family="sans-serif" font-size="8.4" lengthAdjust="spacing" textLength="60.699" x="488.6824" y="958.759">:AgentController</text><rect fill="#E2E2F0" height="19.5727" rx="1.5" ry="1.5" style="stroke:#181818;stroke-width:0.3;" width="51.8273" x="579.6867" y="3"/><text fill="#000000" font-family="sans-serif" font-size="8.4" lengthAdjust="spacing" textLength="43.4273" x="583.8867" y="16.2645">:Application</text><rect fill="#E2E2F0" height="19.5727" rx="1.5" ry="1.5" style="stroke:#181818;stroke-width:0.3;" width="51.8273" x="579.6867" y="945.4945"/><text fill="#000000" font-family="sans-serif" font-size="8.4" lengthAdjust="spacing" textLength="43.4273" x="583.8867" y="958.759">:Application</text><rect fill="#E2E2F0" height="19.5727" rx="1.5" ry="1.5" style="stroke:#181818;stroke-width:0.3;" width="87.3018" x="676.5612" y="945.4945"/><text fill="#000000" font-family="sans-serif" font-size="8.4" lengthAdjust="spacing" textLength="78.9018" x="680.7612" y="958.759">service:AgentService</text><rect fill="#E2E2F0" height="19.5727" rx="1.5" ry="1.5" style="stroke:#181818;stroke-width:0.3;" width="104.0977" x="905.1281" y="3"/><text fill="#000000" font-family="sans-serif" font-size="8.4" lengthAdjust="spacing" textLength="95.6977" x="909.3281" y="16.2645">factory:RepositoryFactory</text><rect fill="#E2E2F0" height="19.5727" rx="1.5" ry="1.5" style="stroke:#181818;stroke-width:0.3;" width="104.0977" x="905.1281" y="945.4945"/><text fill="#000000" font-family="sans-serif" font-size="8.4" lengthAdjust="spacing" textLength="95.6977" x="909.3281" y="958.759">factory:RepositoryFactory</text><rect fill="#E2E2F0" height="19.5727" rx="1.5" ry="1.5" style="stroke:#181818;stroke-width:0.3;" width="89.6479" x="1015.2258" y="3"/><text fill="#000000" font-family="sans-serif" font-size="8.4" lengthAdjust="spacing" textLength="81.2479" x="1019.4258" y="16.2645">repo:AgentRepository</text><rect fill="#E2E2F0" height="19.5727" rx="1.5" ry="1.5" style="stroke:#181818;stroke-width:0.3;" width="89.6479" x="1015.2258" y="945.4945"/><text fill="#000000" font-family="sans-serif" font-size="8.4" lengthAdjust="spacing" textLength="81.2479" x="1019.4258" y="958.759">repo:AgentRepository</text><rect fill="#E2E2F0" height="19.5727" rx="1.5" ry="1.5" style="stroke:#181818;stroke-width:0.3;" width="123.2643" x="1110.8736" y="3"/><text fill="#000000" font-family="sans-serif" font-size="8.4" lengthAdjust="spacing" textLength="114.8643" x="1115.0736" y="16.2645">branchRepo:BranchRepository</text><rect fill="#E2E2F0" height="19.5727" rx="1.5" ry="1.5" style="stroke:#181818;stroke-width:0.3;" width="123.2643" x="1110.8736" y="945.4945"/><text fill="#000000" font-family="sans-serif" font-size="8.4" lengthAdjust="spacing" textLength="114.8643" x="1115.0736" y="958.759">branchRepo:BranchRepository</text><rect fill="#E2E2F0" height="19.5727" rx="1.5" ry="1.5" style="stroke:#181818;stroke-width:0.3;" width="53.7059" x="1240.1379" y="945.4945"/><text fill="#000000" font-family="sans-serif" font-size="8.4" lengthAdjust="spacing" textLength="45.3059" x="1244.3379" y="958.759">agent:Agent</text><rect fill="#E2E2F0" height="19.5727" rx="1.5" ry="1.5" style="stroke:#181818;stroke-width:0.3;" width="70.4895" x="1299.8438" y="945.4945"/><text fill="#000000" font-family="sans-serif" font-size="8.4" lengthAdjust="spacing" textLength="62.0895" x="1304.0438" y="958.759">result:HttpResult</text><rect fill="#FFFFFF" height="911.5219" style="stroke:#181818;stroke-width:0.6;" width="6" x="27.0703" y="29.1727"/><rect fill="#FFFFFF" height="892.1473" style="stroke:#181818;stroke-width:0.6;" width="6" x="100.1868" y="43.1473"/><rect fill="#FFFFFF" height="25.3746" style="stroke:#181818;stroke-width:0.6;" width="6" x="103.1868" y="119.0672"/><rect fill="#FFFFFF" height="773.2781" style="stroke:#181818;stroke-width:0.6;" width="6" x="393.9609" y="167.4164"/><rect fill="#FFFFFF" height="21.7746" style="stroke:#181818;stroke-width:0.6;" width="6" x="396.9609" y="894.7453"/><rect fill="#FFFFFF" height="636.4324" style="stroke:#181818;stroke-width:0.6;" width="6" x="516.0319" y="234.7383"/><rect fill="#FFFFFF" height="82.4965" style="stroke:#181818;stroke-width:0.6;" width="6" x="602.6004" y="253.5129"/><rect fill="#FFFFFF" height="563.5359" style="stroke:#181818;stroke-width:0.6;" width="6" x="717.2121" y="377.1586"/><rect fill="#FFFFFF" height="93.2965" style="stroke:#181818;stroke-width:0.6;" width="6" x="720.2121" y="582.3047"/><rect fill="#FFFFFF" height="109.473" style="stroke:#181818;stroke-width:0.6;" width="6" x="720.2121" y="694.3758"/><rect fill="#FFFFFF" height="25.3746" style="stroke:#181818;stroke-width:0.6;" width="6" x="723.2121" y="717.9504"/><rect fill="#FFFFFF" height="18.7746" style="stroke:#181818;stroke-width:0.6;" width="6" x="954.177" y="272.2875"/><rect fill="#FFFFFF" height="18.7746" style="stroke:#181818;stroke-width:0.6;" width="6" x="1057.0497" y="455.857"/><rect fill="#FFFFFF" height="18.7746" style="stroke:#181818;stroke-width:0.6;" width="6" x="1057.0497" y="766.2996"/><rect fill="#FFFFFF" height="18.7746" style="stroke:#181818;stroke-width:0.6;" width="6" x="1169.5058" y="395.9332"/><polygon fill="#181818" points="92.9868,40.7473,98.9868,43.1473,92.9868,45.5473,95.3868,43.1473" style="stroke:#181818;stroke-width:0.6;"/><line style="stroke:#181818;stroke-width:0.6;" x1="33.0703" x2="96.5868" y1="43.1473" y2="43.1473"/><text fill="#000000" font-family="sans-serif" font-size="7.8" font-weight="bold" lengthAdjust="spacing" textLength="4.338" x="37.2703" y="39.9896">1</text><text fill="#000000" font-family="sans-serif" font-size="7.8" lengthAdjust="spacing" textLength="48.9785" x="44.0083" y="39.9896">POST(..., {...})</text><polygon fill="#181818" points="169.5451,59.5219,175.5451,61.9219,169.5451,64.3219,171.9451,61.9219" style="stroke:#181818;stroke-width:0.6;"/><line style="stroke:#181818;stroke-width:0.6;" x1="106.1868" x2="173.1451" y1="61.9219" y2="61.9219"/><text fill="#000000" font-family="sans-serif" font-size="7.8" font-weight="bold" lengthAdjust="spacing" textLength="4.338" x="110.3868" y="58.7643">2</text><text fill="#000000" font-family="sans-serif" font-size="7.8" lengthAdjust="spacing" textLength="49.4203" x="117.1248" y="58.7643">create(..., {...})</text><rect fill="#E2E2F0" height="19.5727" rx="1.5" ry="1.5" style="stroke:#181818;stroke-width:0.3;" width="76.0922" x="176.7451" y="47.9473"/><text fill="#000000" font-family="sans-serif" font-size="8.4" lengthAdjust="spacing" textLength="67.6922" x="180.9451" y="61.2117">req:HTTPRequest</text><polygon fill="#181818" points="251.6373,85.6945,257.6373,88.0945,251.6373,90.4945,254.0373,88.0945" style="stroke:#181818;stroke-width:0.6;"/><line style="stroke:#181818;stroke-width:0.6;" x1="106.1868" x2="255.2373" y1="88.0945" y2="88.0945"/><text fill="#000000" font-family="sans-serif" font-size="7.8" font-weight="bold" lengthAdjust="spacing" textLength="4.338" x="110.3868" y="84.9369">3</text><text fill="#000000" font-family="sans-serif" font-size="7.8" lengthAdjust="spacing" textLength="39.8874" x="117.1248" y="84.9369">create(404)</text><rect fill="#E2E2F0" height="19.5727" rx="1.5" ry="1.5" style="stroke:#181818;stroke-width:0.3;" width="86.8301" x="258.8373" y="74.1199"/><text fill="#000000" font-family="sans-serif" font-size="8.4" lengthAdjust="spacing" textLength="78.4301" x="263.0373" y="87.3844">resp:HTTPResponse</text><line style="stroke:#181818;stroke-width:0.6;" x1="106.1868" x2="134.3868" y1="111.2672" y2="111.2672"/><line style="stroke:#181818;stroke-width:0.6;" x1="134.3868" x2="134.3868" y1="111.2672" y2="119.0672"/><line style="stroke:#181818;stroke-width:0.6;" x1="109.7868" x2="134.3868" y1="119.0672" y2="119.0672"/><polygon fill="#181818" points="115.7868,116.6672,109.7868,119.0672,115.7868,121.4672,113.3868,119.0672" style="stroke:#181818;stroke-width:0.6;"/><text fill="#000000" font-family="sans-serif" font-size="7.8" font-weight="bold" lengthAdjust="spacing" textLength="4.338" x="113.3868" y="108.1096">4</text><text fill="#000000" font-family="sans-serif" font-size="7.8" lengthAdjust="spacing" textLength="56.3596" x="120.1248" y="108.1096">findHandler(req)</text><line style="stroke:#181818;stroke-width:0.6;stroke-dasharray:2.0,2.0;" x1="109.1868" x2="134.3868" y1="143.8418" y2="143.8418"/><line style="stroke:#181818;stroke-width:0.6;stroke-dasharray:2.0,2.0;" x1="134.3868" x2="134.3868" y1="143.8418" y2="151.6418"/><line style="stroke:#181818;stroke-width:0.6;stroke-dasharray:2.0,2.0;" x1="106.1868" x2="134.3868" y1="151.6418" y2="151.6418"/><polygon fill="#181818" points="112.1868,149.2418,106.1868,151.6418,112.1868,154.0418,109.7868,151.6418" style="stroke:#181818;stroke-width:0.6;"/><text fill="#000000" font-family="sans-serif" font-size="7.8" font-weight="bold" lengthAdjust="spacing" textLength="4.338" x="113.3868" y="140.6842">5</text><text fill="#000000" font-family="sans-serif" font-size="7.8" lengthAdjust="spacing" textLength="26.0203" x="120.1248" y="140.6842">handler</text><polygon fill="#181818" points="386.7609,165.0164,392.7609,167.4164,386.7609,169.8164,389.1609,167.4164" style="stroke:#181818;stroke-width:0.6;"/><line style="stroke:#181818;stroke-width:0.6;" x1="106.1868" x2="390.3609" y1="167.4164" y2="167.4164"/><text fill="#000000" font-family="sans-serif" font-size="7.8" font-weight="bold" lengthAdjust="spacing" textLength="4.338" x="110.3868" y="164.2588">6</text><text fill="#000000" font-family="sans-serif" font-size="7.8" lengthAdjust="spacing" textLength="45.0823" x="117.1248" y="164.2588">run(req,resp)</text><path d="M337.8,175.2164 L337.8,191.4164 L455.4,191.4164 L455.4,181.2164 L449.4,175.2164 L337.8,175.2164 " fill="#FEFFDD" style="stroke:#181818;stroke-width:0.3;"/><path d="M449.4,175.2164 L449.4,181.2164 L455.4,181.2164 L449.4,175.2164 " fill="#FEFFDD" style="stroke:#181818;stroke-width:0.3;"/><text fill="#000000" font-family="sans-serif" font-size="7.8" lengthAdjust="spacing" textLength="105.3495" x="341.4" y="186.6334">Handles HTTP request routing</text><polygon fill="#181818" points="477.2824,206.1656,483.2824,208.5656,477.2824,210.9656,479.6824,208.5656" style="stroke:#181818;stroke-width:0.6;"/><line style="stroke:#181818;stroke-width:0.6;" x1="399.9609" x2="480.8824" y1="208.5656" y2="208.5656"/><text fill="#000000" font-family="sans-serif" font-size="7.8" font-weight="bold" lengthAdjust="spacing" textLength="4.338" x="404.1609" y="205.408">7</text><text fill="#000000" font-family="sans-serif" font-size="7.8" lengthAdjust="spacing" textLength="33.3747" x="410.8989" y="205.408">create(..,)</text><rect fill="#E2E2F0" height="19.5727" rx="1.5" ry="1.5" style="stroke:#181818;stroke-width:0.3;" width="69.099" x="484.4824" y="194.591"/><text fill="#000000" font-family="sans-serif" font-size="8.4" lengthAdjust="spacing" textLength="60.699" x="488.6824" y="207.8555">:AgentController</text><polygon fill="#181818" points="508.8319,232.3383,514.8319,234.7383,508.8319,237.1383,511.2319,234.7383" style="stroke:#181818;stroke-width:0.6;"/><line style="stroke:#181818;stroke-width:0.6;" x1="399.9609" x2="512.4319" y1="234.7383" y2="234.7383"/><text fill="#000000" font-family="sans-serif" font-size="7.8" font-weight="bold" lengthAdjust="spacing" textLength="4.338" x="404.1609" y="231.5807">8</text><text fill="#000000" font-family="sans-serif" font-size="7.8" lengthAdjust="spacing" textLength="92.7926" x="410.8989" y="231.5807">postAgent(json agentData)</text><polygon fill="#181818" points="595.4004,251.1129,601.4004,253.5129,595.4004,255.9129,597.8004,253.5129" style="stroke:#181818;stroke-width:0.6;"/><line style="stroke:#181818;stroke-width:0.6;" x1="522.0319" x2="599.0004" y1="253.5129" y2="253.5129"/><text fill="#000000" font-family="sans-serif" font-size="7.8" font-weight="bold" lengthAdjust="spacing" textLength="4.338" x="526.2319" y="250.3553">9</text><text fill="#000000" font-family="sans-serif" font-size="7.8" lengthAdjust="spacing" textLength="62.4305" x="532.9699" y="250.3553">getAgentService()</text><polygon fill="#181818" points="946.977,269.8875,952.977,272.2875,946.977,274.6875,949.377,272.2875" style="stroke:#181818;stroke-width:0.6;"/><line style="stroke:#181818;stroke-width:0.6;" x1="608.6004" x2="950.577" y1="272.2875" y2="272.2875"/><text fill="#000000" font-family="sans-serif" font-size="7.8" font-weight="bold" lengthAdjust="spacing" textLength="8.676" x="612.8004" y="269.1299">10</text><text fill="#000000" font-family="sans-serif" font-size="7.8" lengthAdjust="spacing" textLength="77.6039" x="623.8764" y="269.1299">getAgentsRepository()</text><polygon fill="#181818" points="615.2004,288.6621,609.2004,291.0621,615.2004,293.4621,612.8004,291.0621" style="stroke:#181818;stroke-width:0.6;"/><line style="stroke:#181818;stroke-width:0.6;stroke-dasharray:2.0,2.0;" x1="611.6004" x2="956.577" y1="291.0621" y2="291.0621"/><text fill="#000000" font-family="sans-serif" font-size="7.8" font-weight="bold" lengthAdjust="spacing" textLength="8.676" x="618.8004" y="287.9045">11</text><text fill="#000000" font-family="sans-serif" font-size="7.8" lengthAdjust="spacing" textLength="15.6114" x="629.8764" y="287.9045">repo</text><polygon fill="#181818" points="669.3612,307.4367,675.3612,309.8367,669.3612,312.2367,671.7612,309.8367" style="stroke:#181818;stroke-width:0.6;"/><line style="stroke:#181818;stroke-width:0.6;stroke-dasharray:2.0,2.0;" x1="608.6004" x2="672.9612" y1="309.8367" y2="309.8367"/><text fill="#000000" font-family="sans-serif" font-size="7.8" font-weight="bold" lengthAdjust="spacing" textLength="8.676" x="612.8004" y="306.6791">12</text><text fill="#000000" font-family="sans-serif" font-size="7.8" lengthAdjust="spacing" textLength="42.4849" x="623.8764" y="306.6791">create(repo)</text><rect fill="#E2E2F0" height="19.5727" rx="1.5" ry="1.5" style="stroke:#181818;stroke-width:0.3;" width="87.3018" x="676.5612" y="295.8621"/><text fill="#000000" font-family="sans-serif" font-size="8.4" lengthAdjust="spacing" textLength="78.9018" x="680.7612" y="309.1266">service:AgentService</text><polygon fill="#181818" points="528.6319,333.6094,522.6319,336.0094,528.6319,338.4094,526.2319,336.0094" style="stroke:#181818;stroke-width:0.6;"/><line style="stroke:#181818;stroke-width:0.6;stroke-dasharray:2.0,2.0;" x1="525.0319" x2="605.0004" y1="336.0094" y2="336.0094"/><text fill="#000000" font-family="sans-serif" font-size="7.8" font-weight="bold" lengthAdjust="spacing" textLength="8.676" x="532.2319" y="332.8518">13</text><text fill="#000000" font-family="sans-serif" font-size="7.8" lengthAdjust="spacing" textLength="24.7063" x="543.3079" y="332.8518">service</text><path d="M458.4,343.8094 L458.4,360.0094 L578.4,360.0094 L578.4,349.8094 L572.4,343.8094 L458.4,343.8094 " fill="#FEFFDD" style="stroke:#181818;stroke-width:0.3;"/><path d="M572.4,343.8094 L572.4,349.8094 L578.4,349.8094 L572.4,343.8094 " fill="#FEFFDD" style="stroke:#181818;stroke-width:0.3;"/><text fill="#000000" font-family="sans-serif" font-size="7.8" lengthAdjust="spacing" textLength="107.9622" x="462" y="355.2264">Start processing agent creation</text><polygon fill="#181818" points="710.0121,374.7586,716.0121,377.1586,710.0121,379.5586,712.4121,377.1586" style="stroke:#181818;stroke-width:0.6;"/><line style="stroke:#181818;stroke-width:0.6;" x1="522.0319" x2="713.6121" y1="377.1586" y2="377.1586"/><text fill="#000000" font-family="sans-serif" font-size="7.8" font-weight="bold" lengthAdjust="spacing" textLength="8.676" x="526.2319" y="374.001">14</text><text fill="#000000" font-family="sans-serif" font-size="7.8" lengthAdjust="spacing" textLength="83.2521" x="537.3079" y="374.001">createAgent(agentData)</text><polygon fill="#181818" points="1162.3058,393.5332,1168.3058,395.9332,1162.3058,398.3332,1164.7058,395.9332" style="stroke:#181818;stroke-width:0.6;"/><line style="stroke:#181818;stroke-width:0.6;" x1="723.2121" x2="1165.9058" y1="395.9332" y2="395.9332"/><text fill="#000000" font-family="sans-serif" font-size="7.8" font-weight="bold" lengthAdjust="spacing" textLength="8.676" x="727.4121" y="392.7756">15</text><text fill="#000000" font-family="sans-serif" font-size="7.8" lengthAdjust="spacing" textLength="85.4153" x="738.4881" y="392.7756">findBranch(branch.code)</text><polygon fill="#181818" points="729.8121,412.3078,723.8121,414.7078,729.8121,417.1078,727.4121,414.7078" style="stroke:#181818;stroke-width:0.6;"/><line style="stroke:#181818;stroke-width:0.6;stroke-dasharray:2.0,2.0;" x1="726.2121" x2="1171.9058" y1="414.7078" y2="414.7078"/><text fill="#000000" font-family="sans-serif" font-size="7.8" font-weight="bold" lengthAdjust="spacing" textLength="8.676" x="733.4121" y="411.5502">16</text><text fill="#000000" font-family="sans-serif" font-size="7.8" lengthAdjust="spacing" textLength="23.8494" x="744.4881" y="411.5502">branch</text><path d="M667.2,422.5078 L667.2,438.7078 L772.8,438.7078 L772.8,428.5078 L766.8,422.5078 L667.2,422.5078 " fill="#FEFFDD" style="stroke:#181818;stroke-width:0.3;"/><path d="M766.8,422.5078 L766.8,428.5078 L772.8,428.5078 L766.8,422.5078 " fill="#FEFFDD" style="stroke:#181818;stroke-width:0.3;"/><text fill="#000000" font-family="sans-serif" font-size="7.8" lengthAdjust="spacing" textLength="93.2229" x="670.8" y="433.9248">Validates branch existence</text><polygon fill="#181818" points="1049.8497,453.457,1055.8497,455.857,1049.8497,458.257,1052.2497,455.857" style="stroke:#181818;stroke-width:0.6;"/><line style="stroke:#181818;stroke-width:0.6;" x1="723.2121" x2="1053.4497" y1="455.857" y2="455.857"/><text fill="#000000" font-family="sans-serif" font-size="7.8" font-weight="bold" lengthAdjust="spacing" textLength="8.676" x="727.4121" y="452.6994">17</text><text fill="#000000" font-family="sans-serif" font-size="7.8" lengthAdjust="spacing" textLength="112.7306" x="738.4881" y="452.6994">isUniqueAgent(agentData.email)</text><polygon fill="#181818" points="729.8121,472.2316,723.8121,474.6316,729.8121,477.0316,727.4121,474.6316" style="stroke:#181818;stroke-width:0.6;"/><line style="stroke:#181818;stroke-width:0.6;stroke-dasharray:2.0,2.0;" x1="726.2121" x2="1059.4497" y1="474.6316" y2="474.6316"/><text fill="#000000" font-family="sans-serif" font-size="7.8" font-weight="bold" lengthAdjust="spacing" textLength="8.676" x="733.4121" y="471.474">18</text><text fill="#000000" font-family="sans-serif" font-size="7.8" lengthAdjust="spacing" textLength="30.3507" x="744.4881" y="471.474">isUnique</text><path d="M655.2,482.4316 L655.2,498.6316 L784.2,498.6316 L784.2,488.4316 L778.2,482.4316 L655.2,482.4316 " fill="#FEFFDD" style="stroke:#181818;stroke-width:0.3;"/><path d="M778.2,482.4316 L778.2,488.4316 L784.2,488.4316 L778.2,482.4316 " fill="#FEFFDD" style="stroke:#181818;stroke-width:0.3;"/><text fill="#000000" font-family="sans-serif" font-size="7.8" lengthAdjust="spacing" textLength="116.6382" x="658.8" y="493.8486">Ensures no duplicate agent exists</text><path d="M661.8,504.8063 L661.8,521.0063 L777,521.0063 L777,510.8063 L771,504.8063 L661.8,504.8063 " fill="#FEFFDD" style="stroke:#181818;stroke-width:0.3;"/><path d="M771,504.8063 L771,510.8063 L777,510.8063 L771,504.8063 " fill="#FEFFDD" style="stroke:#181818;stroke-width:0.3;"/><text fill="#000000" font-family="sans-serif" font-size="7.8" lengthAdjust="spacing" textLength="103.1938" x="665.4" y="516.2232">Validates optional citizen card</text><path d="M654,528.3809 L690.1025,528.3809 L690.1025,533.9555 L684.1025,539.9555 L654,539.9555 L654,528.3809 " fill="#EEEEEE" style="stroke:#000000;stroke-width:0.8999999999999999;"/><rect fill="none" height="61.7238" style="stroke:#000000;stroke-width:0.8999999999999999;" width="306.177" x="654" y="528.3809"/><text fill="#000000" font-family="sans-serif" font-size="7.8" font-weight="bold" lengthAdjust="spacing" textLength="9.1025" x="663" y="537.3979">alt</text><text fill="#000000" font-family="sans-serif" font-size="6.6" font-weight="bold" lengthAdjust="spacing" textLength="121.7552" x="699.1025" y="536.7029">[agentData.citizenCardNumber == null]</text><path d="M660,542.9555 L660,559.1555 L779.4,559.1555 L779.4,548.9555 L773.4,542.9555 L660,542.9555 " fill="#FEFFDD" style="stroke:#181818;stroke-width:0.3;"/><path d="M773.4,542.9555 L773.4,548.9555 L779.4,548.9555 L773.4,542.9555 " fill="#FEFFDD" style="stroke:#181818;stroke-width:0.3;"/><text fill="#000000" font-family="sans-serif" font-size="7.8" lengthAdjust="spacing" textLength="107.0862" x="663.6" y="554.3725">Citizen card number is optional</text><line style="stroke:#000000;stroke-width:0.6;stroke-dasharray:2.0,2.0;" x1="654" x2="960.177" y1="562.9301" y2="562.9301"/><line style="stroke:#181818;stroke-width:0.6;" x1="723.2121" x2="751.4121" y1="574.5047" y2="574.5047"/><line style="stroke:#181818;stroke-width:0.6;" x1="751.4121" x2="751.4121" y1="574.5047" y2="582.3047"/><line style="stroke:#181818;stroke-width:0.6;" x1="726.8121" x2="751.4121" y1="582.3047" y2="582.3047"/><polygon fill="#181818" points="732.8121,579.9047,726.8121,582.3047,732.8121,584.7047,730.4121,582.3047" style="stroke:#181818;stroke-width:0.6;"/><text fill="#000000" font-family="sans-serif" font-size="7.8" font-weight="bold" lengthAdjust="spacing" textLength="8.676" x="730.4121" y="571.3471">19</text><text fill="#000000" font-family="sans-serif" font-size="7.8" lengthAdjust="spacing" textLength="205.4889" x="741.4881" y="571.3471">validateCitizenCardNumber(agentData.citizenCardNumber)</text><polygon fill="#181818" points="1232.9379,605.8793,1238.9379,608.2793,1232.9379,610.6793,1235.3379,608.2793" style="stroke:#181818;stroke-width:0.6;"/><line style="stroke:#181818;stroke-width:0.6;" x1="726.2121" x2="1236.5379" y1="608.2793" y2="608.2793"/><text fill="#000000" font-family="sans-serif" font-size="7.8" font-weight="bold" lengthAdjust="spacing" textLength="8.676" x="730.4121" y="605.1217">20</text><text fill="#000000" font-family="sans-serif" font-size="7.8" lengthAdjust="spacing" textLength="62.8685" x="741.4881" y="605.1217">create(agentData)</text><rect fill="#E2E2F0" height="19.5727" rx="1.5" ry="1.5" style="stroke:#181818;stroke-width:0.3;" width="53.7059" x="1240.1379" y="594.3047"/><text fill="#000000" font-family="sans-serif" font-size="8.4" lengthAdjust="spacing" textLength="45.3059" x="1244.3379" y="607.5691">agent:Agent</text><path d="M1218,623.4773 L1218,639.6773 L1315.2,639.6773 L1315.2,629.4773 L1309.2,623.4773 L1218,623.4773 " fill="#FEFFDD" style="stroke:#181818;stroke-width:0.3;"/><path d="M1309.2,623.4773 L1309.2,629.4773 L1315.2,629.4773 L1309.2,623.4773 " fill="#FEFFDD" style="stroke:#181818;stroke-width:0.3;"/><text fill="#000000" font-family="sans-serif" font-size="7.8" lengthAdjust="spacing" textLength="84.985" x="1221.6" y="634.8943">Initializes agent instance</text><polygon fill="#181818" points="732.8121,654.4266,726.8121,656.8266,732.8121,659.2266,730.4121,656.8266" style="stroke:#181818;stroke-width:0.6;"/><line style="stroke:#181818;stroke-width:0.6;stroke-dasharray:2.0,2.0;" x1="729.2121" x2="1266.3908" y1="656.8266" y2="656.8266"/><text fill="#000000" font-family="sans-serif" font-size="7.8" font-weight="bold" lengthAdjust="spacing" textLength="8.676" x="736.4121" y="653.6689">21</text><text fill="#000000" font-family="sans-serif" font-size="7.8" lengthAdjust="spacing" textLength="19.519" x="747.4881" y="653.6689">agent</text><polygon fill="#181818" points="528.6319,673.2012,522.6319,675.6012,528.6319,678.0012,526.2319,675.6012" style="stroke:#181818;stroke-width:0.6;"/><line style="stroke:#181818;stroke-width:0.6;stroke-dasharray:2.0,2.0;" x1="525.0319" x2="716.6121" y1="675.6012" y2="675.6012"/><text fill="#000000" font-family="sans-serif" font-size="7.8" font-weight="bold" lengthAdjust="spacing" textLength="8.676" x="532.2319" y="672.4436">22</text><text fill="#000000" font-family="sans-serif" font-size="7.8" lengthAdjust="spacing" textLength="19.519" x="543.3079" y="672.4436">agent</text><polygon fill="#181818" points="713.0121,691.9758,719.0121,694.3758,713.0121,696.7758,715.4121,694.3758" style="stroke:#181818;stroke-width:0.6;"/><line style="stroke:#181818;stroke-width:0.6;" x1="522.0319" x2="716.6121" y1="694.3758" y2="694.3758"/><text fill="#000000" font-family="sans-serif" font-size="7.8" font-weight="bold" lengthAdjust="spacing" textLength="8.676" x="526.2319" y="691.2182">23</text><text fill="#000000" font-family="sans-serif" font-size="7.8" lengthAdjust="spacing" textLength="49.8659" x="537.3079" y="691.2182">Update(agent)</text><line style="stroke:#181818;stroke-width:0.6;" x1="726.2121" x2="754.4121" y1="710.1504" y2="710.1504"/><line style="stroke:#181818;stroke-width:0.6;" x1="754.4121" x2="754.4121" y1="710.1504" y2="717.9504"/><line style="stroke:#181818;stroke-width:0.6;" x1="729.8121" x2="754.4121" y1="717.9504" y2="717.9504"/><polygon fill="#181818" points="735.8121,715.5504,729.8121,717.9504,735.8121,720.3504,733.4121,717.9504" style="stroke:#181818;stroke-width:0.6;"/><text fill="#000000" font-family="sans-serif" font-size="7.8" font-weight="bold" lengthAdjust="spacing" textLength="8.676" x="733.4121" y="706.9928">24</text><text fill="#000000" font-family="sans-serif" font-size="7.8" lengthAdjust="spacing" textLength="51.5988" x="744.4881" y="706.9928">validate(agent)</text><line style="stroke:#181818;stroke-width:0.6;stroke-dasharray:2.0,2.0;" x1="729.2121" x2="754.4121" y1="742.725" y2="742.725"/><line style="stroke:#181818;stroke-width:0.6;stroke-dasharray:2.0,2.0;" x1="754.4121" x2="754.4121" y1="742.725" y2="750.525"/><line style="stroke:#181818;stroke-width:0.6;stroke-dasharray:2.0,2.0;" x1="726.2121" x2="754.4121" y1="750.525" y2="750.525"/><polygon fill="#181818" points="732.2121,748.125,726.2121,750.525,732.2121,752.925,729.8121,750.525" style="stroke:#181818;stroke-width:0.6;"/><text fill="#000000" font-family="sans-serif" font-size="7.8" font-weight="bold" lengthAdjust="spacing" textLength="8.676" x="733.4121" y="739.5674">25</text><text fill="#000000" font-family="sans-serif" font-size="7.8" lengthAdjust="spacing" textLength="8.238" x="744.4881" y="739.5674">ok</text><polygon fill="#181818" points="1049.8497,763.8996,1055.8497,766.2996,1049.8497,768.6996,1052.2497,766.2996" style="stroke:#181818;stroke-width:0.6;"/><line style="stroke:#181818;stroke-width:0.6;" x1="726.2121" x2="1053.4497" y1="766.2996" y2="766.2996"/><text fill="#000000" font-family="sans-serif" font-size="7.8" font-weight="bold" lengthAdjust="spacing" textLength="8.676" x="730.4121" y="763.142">26</text><text fill="#000000" font-family="sans-serif" font-size="7.8" lengthAdjust="spacing" textLength="41.1899" x="741.4881" y="763.142">save(agent)</text><polygon fill="#181818" points="732.8121,782.6742,726.8121,785.0742,732.8121,787.4742,730.4121,785.0742" style="stroke:#181818;stroke-width:0.6;"/><line style="stroke:#181818;stroke-width:0.6;stroke-dasharray:2.0,2.0;" x1="729.2121" x2="1059.4497" y1="785.0742" y2="785.0742"/><text fill="#000000" font-family="sans-serif" font-size="7.8" font-weight="bold" lengthAdjust="spacing" textLength="8.676" x="736.4121" y="781.9166">27</text><text fill="#000000" font-family="sans-serif" font-size="7.8" lengthAdjust="spacing" textLength="8.238" x="747.4881" y="781.9166">ok</text><polygon fill="#181818" points="528.6319,801.4488,522.6319,803.8488,528.6319,806.2488,526.2319,803.8488" style="stroke:#181818;stroke-width:0.6;"/><line style="stroke:#181818;stroke-width:0.6;stroke-dasharray:2.0,2.0;" x1="525.0319" x2="716.6121" y1="803.8488" y2="803.8488"/><text fill="#000000" font-family="sans-serif" font-size="7.8" font-weight="bold" lengthAdjust="spacing" textLength="8.676" x="532.2319" y="800.6912">28</text><text fill="#000000" font-family="sans-serif" font-size="7.8" lengthAdjust="spacing" textLength="8.238" x="543.3079" y="800.6912">ok</text><path d="M468,811.6488 L468,827.8488 L568.8,827.8488 L568.8,817.6488 L562.8,811.6488 L468,811.6488 " fill="#FEFFDD" style="stroke:#181818;stroke-width:0.3;"/><path d="M562.8,811.6488 L562.8,817.6488 L568.8,817.6488 L562.8,811.6488 " fill="#FEFFDD" style="stroke:#181818;stroke-width:0.3;"/><text fill="#000000" font-family="sans-serif" font-size="7.8" lengthAdjust="spacing" textLength="88.4432" x="471.6" y="823.0658">Completes business logic</text><polygon fill="#181818" points="1292.6438,842.598,1298.6438,844.998,1292.6438,847.398,1295.0438,844.998" style="stroke:#181818;stroke-width:0.6;"/><line style="stroke:#181818;stroke-width:0.6;stroke-dasharray:2.0,2.0;" x1="522.0319" x2="1296.2437" y1="844.998" y2="844.998"/><text fill="#000000" font-family="sans-serif" font-size="7.8" font-weight="bold" lengthAdjust="spacing" textLength="8.676" x="526.2319" y="841.8404">29</text><text fill="#000000" font-family="sans-serif" font-size="7.8" lengthAdjust="spacing" textLength="39.8874" x="537.3079" y="841.8404">create(201)</text><rect fill="#E2E2F0" height="19.5727" rx="1.5" ry="1.5" style="stroke:#181818;stroke-width:0.3;" width="70.4895" x="1299.8438" y="831.0234"/><text fill="#000000" font-family="sans-serif" font-size="8.4" lengthAdjust="spacing" textLength="62.0895" x="1304.0438" y="844.2879">result:HttpResult</text><polygon fill="#181818" points="406.5609,868.7707,400.5609,871.1707,406.5609,873.5707,404.1609,871.1707" style="stroke:#181818;stroke-width:0.6;"/><line style="stroke:#181818;stroke-width:0.6;stroke-dasharray:2.0,2.0;" x1="402.9609" x2="518.4319" y1="871.1707" y2="871.1707"/><text fill="#000000" font-family="sans-serif" font-size="7.8" font-weight="bold" lengthAdjust="spacing" textLength="8.676" x="410.1609" y="868.0131">30</text><text fill="#000000" font-family="sans-serif" font-size="7.8" lengthAdjust="spacing" textLength="19.0734" x="421.2369" y="868.0131">result</text><line style="stroke:#181818;stroke-width:0.6;" x1="399.9609" x2="428.1609" y1="886.9453" y2="886.9453"/><line style="stroke:#181818;stroke-width:0.6;" x1="428.1609" x2="428.1609" y1="886.9453" y2="894.7453"/><line style="stroke:#181818;stroke-width:0.6;" x1="403.5609" x2="428.1609" y1="894.7453" y2="894.7453"/><polygon fill="#181818" points="409.5609,892.3453,403.5609,894.7453,409.5609,897.1453,407.1609,894.7453" style="stroke:#181818;stroke-width:0.6;"/><text fill="#000000" font-family="sans-serif" font-size="7.8" font-weight="bold" lengthAdjust="spacing" textLength="8.676" x="407.1609" y="883.7877">31</text><text fill="#000000" font-family="sans-serif" font-size="7.8" lengthAdjust="spacing" textLength="90.595" x="418.2369" y="883.7877">setHttpResult(resp, result)</text><polygon fill="#181818" points="112.7868,914.1199,106.7868,916.5199,112.7868,918.9199,110.3868,916.5199" style="stroke:#181818;stroke-width:0.6;"/><line style="stroke:#181818;stroke-width:0.6;stroke-dasharray:2.0,2.0;" x1="109.1868" x2="393.3609" y1="916.5199" y2="916.5199"/><text fill="#000000" font-family="sans-serif" font-size="7.8" font-weight="bold" lengthAdjust="spacing" textLength="8.676" x="116.3868" y="913.3623">32</text><text fill="#000000" font-family="sans-serif" font-size="7.8" lengthAdjust="spacing" textLength="15.1734" x="127.4628" y="913.3623">resp</text><polygon fill="#181818" points="39.6703,932.8945,33.6703,935.2945,39.6703,937.6945,37.2703,935.2945" style="stroke:#181818;stroke-width:0.6;"/><line style="stroke:#181818;stroke-width:0.6;stroke-dasharray:2.0,2.0;" x1="36.0703" x2="102.5868" y1="935.2945" y2="935.2945"/><text fill="#000000" font-family="sans-serif" font-size="7.8" font-weight="bold" lengthAdjust="spacing" textLength="8.676" x="43.2703" y="932.1369">33</text><text fill="#000000" font-family="sans-serif" font-size="7.8" lengthAdjust="spacing" textLength="15.1734" x="54.3463" y="932.1369">resp</text><!--SRC=[XLNFJzim5Bxxhx2uB45jOHEdI21jsIPssL0Bt4rYYZVN3hPJ3QRzxtlsSs8dhLWFrRFVztv_Vddtv5ndgxEpJZBb-frSDNftPlbpprN3bwrWMyDsXB3UQTOuiMUEKwt2MVMx1su8wPXneX4TEA0drVNjxKqj1LVkX39Bq_48RiFDdfiHXySfpl3d05txb6po6SzpiEqYsdPQMPx1yMAAVsAgbTnKQzqxVes7OB9viOxlPXb_t48LjLREQ3a0QsVa7DPrKZJC2Qq2v8OR2nsRW2nKAXgEBZTumC0eJz6Fq7bjNgerxxGLNloADy4aolDET1gz9wE0ziSfzC4mrJpv- -hJA6OMwN9gnxntZ15mGJgOHozTTGqSMmSnfk15uDJ0fumZ9CbqUPMneg8tFpQtnMgrMj0_yF-t94avG2CfJayhsXWEhl-BHrPa1XVd5yUGGnAFGhMHA0LGSmgTOIExPjwGMXKrlV8U5fwp9L7QloiF6VGO1TbB3HP63H1Lg2r1a7Vd2GZfZ-KkofcoeZ1D5uPJ_0GYqZ2tpyonadYzno55AxhbBcTaKHBKU4oa6KqecuW2o46_pFnv5eukbbVHRTPj3oWpHCmuFe-iAtY_SS0ksXdTS6kX3rWBEeFdDjOJ0mrXiFYixgZtqCHk72wU2tmKi0nRNfA42JcEtX6KpsxGt3CfMeXi8uRotmA60YirZurHXRrJ0iOxotB5Tqp8aXo67GoE1VwYR0-CeahJjiSzn6ENGWhsxMnrv_l896s44wzSqOQPbZ3f4cjMKLM3vdlu0j3BIwfwAGc5tn7tTUQBuaS3QXXZ4IvXBtlRh3MZyJxcLi-Z5czaL1AkshpJeRSPxp8kf8G3gABV5BY3gA_G3-oSKDOnFxk0c0uZ85AeaS9uVq38kwuTuqzuE8YfuWFG1AL_7JB9ilreDQVDp6JC4oxdhwpMkqxoGDuUNXayDIhrLZIncX3ER_2idn_EtvT9FQuuNFHf7mqAortw9XH-0ouYE6slsJBre6FB5hyLgFy7]--></g></svg>