<svg xmlns="http://www.w3.org/2000/svg" xmlns:xlink="http://www.w3.org/1999/xlink" contentStyleType="text/css" height="795px" preserveAspectRatio="none" style="width:1427px;height:795px;background:#FFFFFF;" version="1.1" viewBox="0 0 1427 795" width="1427px" zoomAndPan="magnify"><defs/><g><rect fill="#FFFFFF" height="700.4805" style="stroke:#181818;stroke-width:1.0;" width="10" x="45.1172" y="48.6211"/><rect fill="#FFFFFF" height="677.1895" style="stroke:#181818;stroke-width:1.0;" width="10" x="175.7236" y="71.9121"/><rect fill="#FFFFFF" height="36.291" style="stroke:#181818;stroke-width:1.0;" width="10" x="180.7236" y="703.8105"/><rect fill="#FFFFFF" height="524.0254" style="stroke:#181818;stroke-width:1.0;" width="10" x="379.1753" y="140.4941"/><rect fill="#FFFFFF" height="343.2402" style="stroke:#181818;stroke-width:1.0;" width="10" x="558.1587" y="209.0762"/><rect fill="#FFFFFF" height="31.291" style="stroke:#181818;stroke-width:1.0;" width="10" x="899.1128" y="340.2402"/><rect fill="#FFFFFF" height="31.291" style="stroke:#181818;stroke-width:1.0;" width="10" x="1086.5396" y="240.3672"/><line style="stroke:#181818;stroke-width:0.5;stroke-dasharray:5.0,5.0;" x1="50" x2="50" y1="38.6211" y2="758.1016"/><line style="stroke:#181818;stroke-width:0.5;stroke-dasharray:5.0,5.0;" x1="180.2344" x2="180.2344" y1="38.6211" y2="758.1016"/><line style="stroke:#181818;stroke-width:0.5;stroke-dasharray:5.0,5.0;" x1="383.5928" x2="383.5928" y1="38.6211" y2="758.1016"/><line style="stroke:#181818;stroke-width:0.5;stroke-dasharray:5.0,5.0;" x1="562.4072" x2="562.4072" y1="38.6211" y2="758.1016"/><line style="stroke:#181818;stroke-width:0.5;stroke-dasharray:5.0,5.0;" x1="731.9102" x2="731.9102" y1="38.6211" y2="758.1016"/><line style="stroke:#181818;stroke-width:0.5;stroke-dasharray:5.0,5.0;" x1="903.4063" x2="903.4063" y1="38.6211" y2="758.1016"/><line style="stroke:#181818;stroke-width:0.5;stroke-dasharray:5.0,5.0;" x1="1090.8193" x2="1090.8193" y1="38.6211" y2="758.1016"/><line style="stroke:#181818;stroke-width:0.5;stroke-dasharray:5.0,5.0;" x1="1248.2598" x2="1248.2598" y1="448.6328" y2="758.1016"/><line style="stroke:#181818;stroke-width:0.5;stroke-dasharray:5.0,5.0;" x1="1361.7695" x2="1361.7695" y1="629.418" y2="758.1016"/><rect fill="#E2E2F0" height="32.6211" rx="2.5" ry="2.5" style="stroke:#181818;stroke-width:0.5;" width="90.2344" x="5" y="5"/><text fill="#000000" font-family="sans-serif" font-size="14" lengthAdjust="spacing" textLength="76.2344" x="12" y="27.1074">:HTTPClient</text><rect fill="#E2E2F0" height="32.6211" rx="2.5" ry="2.5" style="stroke:#181818;stroke-width:0.5;" width="90.2344" x="5" y="757.1016"/><text fill="#000000" font-family="sans-serif" font-size="14" lengthAdjust="spacing" textLength="76.2344" x="12" y="779.209">:HTTPClient</text><rect fill="#E2E2F0" height="32.6211" rx="2.5" ry="2.5" style="stroke:#181818;stroke-width:0.5;" width="150.9785" x="105.2344" y="5"/><text fill="#000000" font-family="sans-serif" font-size="14" lengthAdjust="spacing" textLength="136.9785" x="112.2344" y="27.1074">handler:RouteHandler</text><rect fill="#E2E2F0" height="32.6211" rx="2.5" ry="2.5" style="stroke:#181818;stroke-width:0.5;" width="150.9785" x="105.2344" y="757.1016"/><text fill="#000000" font-family="sans-serif" font-size="14" lengthAdjust="spacing" textLength="136.9785" x="112.2344" y="779.209">handler:RouteHandler</text><rect fill="#E2E2F0" height="32.6211" rx="2.5" ry="2.5" style="stroke:#181818;stroke-width:0.5;" width="115.165" x="326.5928" y="5"/><text fill="#000000" font-family="sans-serif" font-size="14" lengthAdjust="spacing" textLength="101.165" x="333.5928" y="27.1074">:AgentController</text><rect fill="#E2E2F0" height="32.6211" rx="2.5" ry="2.5" style="stroke:#181818;stroke-width:0.5;" width="115.165" x="326.5928" y="757.1016"/><text fill="#000000" font-family="sans-serif" font-size="14" lengthAdjust="spacing" textLength="101.165" x="333.5928" y="779.209">:AgentController</text><rect fill="#E2E2F0" height="32.6211" rx="2.5" ry="2.5" style="stroke:#181818;stroke-width:0.5;" width="145.5029" x="490.4072" y="5"/><text fill="#000000" font-family="sans-serif" font-size="14" lengthAdjust="spacing" textLength="131.5029" x="497.4072" y="27.1074">service:AgentService</text><rect fill="#E2E2F0" height="32.6211" rx="2.5" ry="2.5" style="stroke:#181818;stroke-width:0.5;" width="145.5029" x="490.4072" y="757.1016"/><text fill="#000000" font-family="sans-serif" font-size="14" lengthAdjust="spacing" textLength="131.5029" x="497.4072" y="779.209">service:AgentService</text><rect fill="#E2E2F0" height="32.6211" rx="2.5" ry="2.5" style="stroke:#181818;stroke-width:0.5;" width="173.4961" x="645.9102" y="5"/><text fill="#000000" font-family="sans-serif" font-size="14" lengthAdjust="spacing" textLength="159.4961" x="652.9102" y="27.1074">factory:RepositoryFactory</text><rect fill="#E2E2F0" height="32.6211" rx="2.5" ry="2.5" style="stroke:#181818;stroke-width:0.5;" width="173.4961" x="645.9102" y="757.1016"/><text fill="#000000" font-family="sans-serif" font-size="14" lengthAdjust="spacing" textLength="159.4961" x="652.9102" y="779.209">factory:RepositoryFactory</text><rect fill="#E2E2F0" height="32.6211" rx="2.5" ry="2.5" style="stroke:#181818;stroke-width:0.5;" width="149.4131" x="829.4063" y="5"/><text fill="#000000" font-family="sans-serif" font-size="14" lengthAdjust="spacing" textLength="135.4131" x="836.4063" y="27.1074">repo:AgentRepository</text><rect fill="#E2E2F0" height="32.6211" rx="2.5" ry="2.5" style="stroke:#181818;stroke-width:0.5;" width="149.4131" x="829.4063" y="757.1016"/><text fill="#000000" font-family="sans-serif" font-size="14" lengthAdjust="spacing" textLength="135.4131" x="836.4063" y="779.209">repo:AgentRepository</text><rect fill="#E2E2F0" height="32.6211" rx="2.5" ry="2.5" style="stroke:#181818;stroke-width:0.5;" width="205.4404" x="988.8193" y="5"/><text fill="#000000" font-family="sans-serif" font-size="14" lengthAdjust="spacing" textLength="191.4404" x="995.8193" y="27.1074">branchRepo:BranchRepository</text><rect fill="#E2E2F0" height="32.6211" rx="2.5" ry="2.5" style="stroke:#181818;stroke-width:0.5;" width="205.4404" x="988.8193" y="757.1016"/><text fill="#000000" font-family="sans-serif" font-size="14" lengthAdjust="spacing" textLength="191.4404" x="995.8193" y="779.209">branchRepo:BranchRepository</text><rect fill="#E2E2F0" height="32.6211" rx="2.5" ry="2.5" style="stroke:#181818;stroke-width:0.5;" width="89.5098" x="1204.2598" y="757.1016"/><text fill="#000000" font-family="sans-serif" font-size="14" lengthAdjust="spacing" textLength="75.5098" x="1211.2598" y="779.209">agent:Agent</text><rect fill="#E2E2F0" height="32.6211" rx="2.5" ry="2.5" style="stroke:#181818;stroke-width:0.5;" width="117.4824" x="1303.7695" y="757.1016"/><text fill="#000000" font-family="sans-serif" font-size="14" lengthAdjust="spacing" textLength="103.4824" x="1310.7695" y="779.209">result:HttpResult</text><rect fill="#FFFFFF" height="700.4805" style="stroke:#181818;stroke-width:1.0;" width="10" x="45.1172" y="48.6211"/><rect fill="#FFFFFF" height="677.1895" style="stroke:#181818;stroke-width:1.0;" width="10" x="175.7236" y="71.9121"/><rect fill="#FFFFFF" height="36.291" style="stroke:#181818;stroke-width:1.0;" width="10" x="180.7236" y="703.8105"/><rect fill="#FFFFFF" height="524.0254" style="stroke:#181818;stroke-width:1.0;" width="10" x="379.1753" y="140.4941"/><rect fill="#FFFFFF" height="343.2402" style="stroke:#181818;stroke-width:1.0;" width="10" x="558.1587" y="209.0762"/><rect fill="#FFFFFF" height="31.291" style="stroke:#181818;stroke-width:1.0;" width="10" x="899.1128" y="340.2402"/><rect fill="#FFFFFF" height="31.291" style="stroke:#181818;stroke-width:1.0;" width="10" x="1086.5396" y="240.3672"/><polygon fill="#181818" points="163.7236,67.9121,173.7236,71.9121,163.7236,75.9121,167.7236,71.9121" style="stroke:#181818;stroke-width:1.0;"/><line style="stroke:#181818;stroke-width:1.0;" x1="55.1172" x2="169.7236" y1="71.9121" y2="71.9121"/><text fill="#000000" font-family="sans-serif" font-size="13" font-weight="bold" lengthAdjust="spacing" textLength="7.23" x="62.1172" y="66.6494">1</text><text fill="#000000" font-family="sans-serif" font-size="13" lengthAdjust="spacing" textLength="78.0381" x="73.3472" y="66.6494">POST/agents</text><path d="M82,84.9121 L82,111.9121 L278,111.9121 L278,94.9121 L268,84.9121 L82,84.9121 " fill="#FEFFDD" style="stroke:#181818;stroke-width:0.5;"/><path d="M268,84.9121 L268,94.9121 L278,94.9121 L268,84.9121 " fill="#FEFFDD" style="stroke:#181818;stroke-width:0.5;"/><text fill="#000000" font-family="sans-serif" font-size="13" lengthAdjust="spacing" textLength="175.5825" x="88" y="103.9404">Handles HTTP request routing</text><polygon fill="#181818" points="367.1753,136.4941,377.1753,140.4941,367.1753,144.4941,371.1753,140.4941" style="stroke:#181818;stroke-width:1.0;"/><line style="stroke:#181818;stroke-width:1.0;" x1="185.7236" x2="373.1753" y1="140.4941" y2="140.4941"/><text fill="#000000" font-family="sans-serif" font-size="13" font-weight="bold" lengthAdjust="spacing" textLength="7.23" x="192.7236" y="135.2314">2</text><text fill="#000000" font-family="sans-serif" font-size="13" lengthAdjust="spacing" textLength="154.6543" x="203.9536" y="135.2314">postAgent(json agentData)</text><path d="M283,153.4941 L283,180.4941 L483,180.4941 L483,163.4941 L473,153.4941 L283,153.4941 " fill="#FEFFDD" style="stroke:#181818;stroke-width:0.5;"/><path d="M473,153.4941 L473,163.4941 L483,163.4941 L473,153.4941 " fill="#FEFFDD" style="stroke:#181818;stroke-width:0.5;"/><text fill="#000000" font-family="sans-serif" font-size="13" lengthAdjust="spacing" textLength="179.937" x="289" y="172.5225">Start processing agent creation</text><polygon fill="#181818" points="546.1587,205.0762,556.1587,209.0762,546.1587,213.0762,550.1587,209.0762" style="stroke:#181818;stroke-width:1.0;"/><line style="stroke:#181818;stroke-width:1.0;" x1="389.1753" x2="552.1587" y1="209.0762" y2="209.0762"/><text fill="#000000" font-family="sans-serif" font-size="13" font-weight="bold" lengthAdjust="spacing" textLength="7.23" x="396.1753" y="203.8135">3</text><text fill="#000000" font-family="sans-serif" font-size="13" lengthAdjust="spacing" textLength="138.7534" x="407.4053" y="203.8135">createAgent(agentData)</text><polygon fill="#181818" points="1074.5396,236.3672,1084.5396,240.3672,1074.5396,244.3672,1078.5396,240.3672" style="stroke:#181818;stroke-width:1.0;"/><line style="stroke:#181818;stroke-width:1.0;" x1="568.1587" x2="1080.5396" y1="240.3672" y2="240.3672"/><text fill="#000000" font-family="sans-serif" font-size="13" font-weight="bold" lengthAdjust="spacing" textLength="7.23" x="575.1587" y="235.1045">4</text><text fill="#000000" font-family="sans-serif" font-size="13" lengthAdjust="spacing" textLength="185.0024" x="586.3887" y="235.1045">findBranch(agentData.branchId)</text><polygon fill="#181818" points="579.1587,267.6582,569.1587,271.6582,579.1587,275.6582,575.1587,271.6582" style="stroke:#181818;stroke-width:1.0;"/><line style="stroke:#181818;stroke-width:1.0;stroke-dasharray:2.0,2.0;" x1="573.1587" x2="1090.5396" y1="271.6582" y2="271.6582"/><text fill="#000000" font-family="sans-serif" font-size="13" font-weight="bold" lengthAdjust="spacing" textLength="7.23" x="585.1587" y="266.3955">5</text><text fill="#000000" font-family="sans-serif" font-size="13" lengthAdjust="spacing" textLength="39.749" x="596.3887" y="266.3955">branch</text><path d="M474,284.6582 L474,311.6582 L650,311.6582 L650,294.6582 L640,284.6582 L474,284.6582 " fill="#FEFFDD" style="stroke:#181818;stroke-width:0.5;"/><path d="M640,284.6582 L640,294.6582 L650,294.6582 L640,284.6582 " fill="#FEFFDD" style="stroke:#181818;stroke-width:0.5;"/><text fill="#000000" font-family="sans-serif" font-size="13" lengthAdjust="spacing" textLength="155.3716" x="480" y="303.6865">Validates branch existence</text><polygon fill="#181818" points="887.1128,336.2402,897.1128,340.2402,887.1128,344.2402,891.1128,340.2402" style="stroke:#181818;stroke-width:1.0;"/><line style="stroke:#181818;stroke-width:1.0;" x1="568.1587" x2="893.1128" y1="340.2402" y2="340.2402"/><text fill="#000000" font-family="sans-serif" font-size="13" font-weight="bold" lengthAdjust="spacing" textLength="7.23" x="575.1587" y="334.9775">6</text><text fill="#000000" font-family="sans-serif" font-size="13" lengthAdjust="spacing" textLength="187.8843" x="586.3887" y="334.9775">isUniqueAgent(agentData.email)</text><polygon fill="#181818" points="579.1587,367.5313,569.1587,371.5313,579.1587,375.5313,575.1587,371.5313" style="stroke:#181818;stroke-width:1.0;"/><line style="stroke:#181818;stroke-width:1.0;stroke-dasharray:2.0,2.0;" x1="573.1587" x2="903.1128" y1="371.5313" y2="371.5313"/><text fill="#000000" font-family="sans-serif" font-size="13" font-weight="bold" lengthAdjust="spacing" textLength="7.23" x="585.1587" y="366.2686">7</text><text fill="#000000" font-family="sans-serif" font-size="13" lengthAdjust="spacing" textLength="50.5845" x="596.3887" y="366.2686">isUnique</text><path d="M455,384.5313 L455,411.5313 L670,411.5313 L670,394.5313 L660,384.5313 L455,384.5313 " fill="#FEFFDD" style="stroke:#181818;stroke-width:0.5;"/><path d="M660,384.5313 L660,394.5313 L670,394.5313 L660,384.5313 " fill="#FEFFDD" style="stroke:#181818;stroke-width:0.5;"/><text fill="#000000" font-family="sans-serif" font-size="13" lengthAdjust="spacing" textLength="194.397" x="461" y="403.5596">Ensures no duplicate agent exists</text><polygon fill="#181818" points="1192.2598,436.1133,1202.2598,440.1133,1192.2598,444.1133,1196.2598,440.1133" style="stroke:#181818;stroke-width:1.0;"/><line style="stroke:#181818;stroke-width:1.0;" x1="568.1587" x2="1198.2598" y1="440.1133" y2="440.1133"/><text fill="#000000" font-family="sans-serif" font-size="13" font-weight="bold" lengthAdjust="spacing" textLength="7.23" x="575.1587" y="434.8506">8</text><text fill="#000000" font-family="sans-serif" font-size="13" lengthAdjust="spacing" textLength="104.7808" x="586.3887" y="434.8506">create(agentData)</text><rect fill="#E2E2F0" height="32.6211" rx="2.5" ry="2.5" style="stroke:#181818;stroke-width:0.5;" width="89.5098" x="1204.2598" y="416.8223"/><text fill="#000000" font-family="sans-serif" font-size="14" lengthAdjust="spacing" textLength="75.5098" x="1211.2598" y="438.9297">agent:Agent</text><path d="M1167,465.4434 L1167,492.4434 L1329,492.4434 L1329,475.4434 L1319,465.4434 L1167,465.4434 " fill="#FEFFDD" style="stroke:#181818;stroke-width:0.5;"/><path d="M1319,465.4434 L1319,475.4434 L1329,475.4434 L1319,465.4434 " fill="#FEFFDD" style="stroke:#181818;stroke-width:0.5;"/><text fill="#000000" font-family="sans-serif" font-size="13" lengthAdjust="spacing" textLength="141.6416" x="1173" y="484.4717">Initializes agent instance</text><polygon fill="#181818" points="579.1587,517.0254,569.1587,521.0254,579.1587,525.0254,575.1587,521.0254" style="stroke:#181818;stroke-width:1.0;"/><line style="stroke:#181818;stroke-width:1.0;stroke-dasharray:2.0,2.0;" x1="573.1587" x2="1248.0146" y1="521.0254" y2="521.0254"/><text fill="#000000" font-family="sans-serif" font-size="13" font-weight="bold" lengthAdjust="spacing" textLength="7.23" x="585.1587" y="515.7627">9</text><text fill="#000000" font-family="sans-serif" font-size="13" lengthAdjust="spacing" textLength="32.5317" x="596.3887" y="515.7627">agent</text><polygon fill="#181818" points="400.1753,548.3164,390.1753,552.3164,400.1753,556.3164,396.1753,552.3164" style="stroke:#181818;stroke-width:1.0;"/><line style="stroke:#181818;stroke-width:1.0;stroke-dasharray:2.0,2.0;" x1="394.1753" x2="562.1587" y1="552.3164" y2="552.3164"/><text fill="#000000" font-family="sans-serif" font-size="13" font-weight="bold" lengthAdjust="spacing" textLength="14.46" x="406.1753" y="547.0537">10</text><text fill="#000000" font-family="sans-serif" font-size="13" lengthAdjust="spacing" textLength="32.5317" x="424.6353" y="547.0537">agent</text><path d="M299,565.3164 L299,592.3164 L467,592.3164 L467,575.3164 L457,565.3164 L299,565.3164 " fill="#FEFFDD" style="stroke:#181818;stroke-width:0.5;"/><path d="M457,565.3164 L457,575.3164 L467,575.3164 L457,565.3164 " fill="#FEFFDD" style="stroke:#181818;stroke-width:0.5;"/><text fill="#000000" font-family="sans-serif" font-size="13" lengthAdjust="spacing" textLength="147.4053" x="305" y="584.3447">Completes business logic</text><polygon fill="#181818" points="1291.7695,616.8984,1301.7695,620.8984,1291.7695,624.8984,1295.7695,620.8984" style="stroke:#181818;stroke-width:1.0;"/><line style="stroke:#181818;stroke-width:1.0;stroke-dasharray:2.0,2.0;" x1="389.1753" x2="1297.7695" y1="620.8984" y2="620.8984"/><text fill="#000000" font-family="sans-serif" font-size="13" font-weight="bold" lengthAdjust="spacing" textLength="14.46" x="396.1753" y="615.6357">11</text><text fill="#000000" font-family="sans-serif" font-size="13" lengthAdjust="spacing" textLength="106.2344" x="414.6353" y="615.6357">create(201, agent)</text><rect fill="#E2E2F0" height="32.6211" rx="2.5" ry="2.5" style="stroke:#181818;stroke-width:0.5;" width="117.4824" x="1303.7695" y="597.6074"/><text fill="#000000" font-family="sans-serif" font-size="14" lengthAdjust="spacing" textLength="103.4824" x="1310.7695" y="619.7148">result:HttpResult</text><polygon fill="#181818" points="196.7236,660.5195,186.7236,664.5195,196.7236,668.5195,192.7236,664.5195" style="stroke:#181818;stroke-width:1.0;"/><line style="stroke:#181818;stroke-width:1.0;stroke-dasharray:2.0,2.0;" x1="190.7236" x2="383.1753" y1="664.5195" y2="664.5195"/><text fill="#000000" font-family="sans-serif" font-size="13" font-weight="bold" lengthAdjust="spacing" textLength="14.46" x="202.7236" y="659.2568">12</text><text fill="#000000" font-family="sans-serif" font-size="13" lengthAdjust="spacing" textLength="31.7891" x="221.1836" y="659.2568">result</text><line style="stroke:#181818;stroke-width:1.0;" x1="185.7236" x2="232.7236" y1="690.8105" y2="690.8105"/><line style="stroke:#181818;stroke-width:1.0;" x1="232.7236" x2="232.7236" y1="690.8105" y2="703.8105"/><line style="stroke:#181818;stroke-width:1.0;" x1="191.7236" x2="232.7236" y1="703.8105" y2="703.8105"/><polygon fill="#181818" points="201.7236,699.8105,191.7236,703.8105,201.7236,707.8105,197.7236,703.8105" style="stroke:#181818;stroke-width:1.0;"/><text fill="#000000" font-family="sans-serif" font-size="13" font-weight="bold" lengthAdjust="spacing" textLength="14.46" x="197.7236" y="685.5479">13</text><text fill="#000000" font-family="sans-serif" font-size="13" lengthAdjust="spacing" textLength="150.9917" x="216.1836" y="685.5479">setHttpResult(resp, result)</text><polygon fill="#181818" points="66.1172,736.1016,56.1172,740.1016,66.1172,744.1016,62.1172,740.1016" style="stroke:#181818;stroke-width:1.0;"/><line style="stroke:#181818;stroke-width:1.0;stroke-dasharray:2.0,2.0;" x1="60.1172" x2="174.7236" y1="740.1016" y2="740.1016"/><text fill="#000000" font-family="sans-serif" font-size="13" font-weight="bold" lengthAdjust="spacing" textLength="14.46" x="72.1172" y="734.8389">14</text><text fill="#000000" font-family="sans-serif" font-size="13" lengthAdjust="spacing" textLength="25.2891" x="90.5771" y="734.8389">resp</text><!--SRC=[RPF1SjiW48RlUWecbrgPs6vxv92Pr6t7EJLZkxqJH6mw22YiF4sVlWih6UJajeXl_rtsNtqu0VZ8rsjlX8MXDolf-dLKVmPbfLfsMXo3w9j63E2417qMe9Yp-Mo7_bc5fl4YW9RQem2xuTl3uMbZjB9mmqHavJZdJi9sHWM-SmEeBHromlurWkglH1-EAB1n5e8p4xY1OEPOLE6ifI9wJmVIf7XEl-1xN7ZbE-LTr2dyJbzooXZFKmAYf5wICfsES_Gv22jFwJl_SWchZF9ndYUIEjN8N8wkkuY30Rv5vtOv75j88JerkLHDlYanMzwF8-RiwSV-iCu5OsDTClQimkMMJ247MKWR4O45j4lROqDG4aisS8PlWzpgudTqbcNHhm94MmaJkGTy2_F1IHKZIX7BP502D6vMedAJevbqeqYyqXtl4rfcoTcBjXsT2xmYCnwxjYaeMzP5YAYdCDty4aPts40S6QR-Qdmx_Xrr2rHSnvzMuw2kcbsfNcZJDc_BJWdl5Vvcuu1MC-jODtYZPJALXfLRY7NzNF7sTfhMubq3CiJPezMWyLN_K9pqj8qWqeioCMyn4wNKnN7wVktknlNUg3oj0Tr5YvbnHor7M_EaqfvMhNx- -EcErDf2JKj8krwjstGH5PGVO86OlnlXza8ZNXO_Q_d_]--></g></svg>