<svg xmlns="http://www.w3.org/2000/svg" xmlns:xlink="http://www.w3.org/1999/xlink" contentStyleType="text/css" height="669px" preserveAspectRatio="none" style="width:1248px;height:669px;background:#FFFFFF;" version="1.1" viewBox="0 0 1248 669" width="1248px" zoomAndPan="magnify"><defs/><g><rect fill="#FFFFFF" height="612.2578" style="stroke:#181818;stroke-width:0.6;" width="6" x="27.0703" y="29.1727"/><rect fill="#FFFFFF" height="592.8832" style="stroke:#181818;stroke-width:0.6;" width="6" x="118.4071" y="43.1473"/><rect fill="#FFFFFF" height="25.3746" style="stroke:#181818;stroke-width:0.6;" width="6" x="121.4071" y="587.6813"/><rect fill="#FFFFFF" height="479.8102" style="stroke:#181818;stroke-width:0.6;" width="6" x="382.7265" y="84.2965"/><rect fill="#FFFFFF" height="82.4965" style="stroke:#181818;stroke-width:0.6;" width="6" x="469.2949" y="103.0711"/><rect fill="#FFFFFF" height="437.0883" style="stroke:#181818;stroke-width:0.6;" width="6" x="579.5687" y="204.3422"/><rect fill="#FFFFFF" height="70.9219" style="stroke:#181818;stroke-width:0.6;" width="6" x="582.5687" y="319.9898"/><rect fill="#FFFFFF" height="109.473" style="stroke:#181818;stroke-width:0.6;" width="6" x="582.5687" y="409.6863"/><rect fill="#FFFFFF" height="25.3746" style="stroke:#181818;stroke-width:0.6;" width="6" x="585.5687" y="433.2609"/><rect fill="#FFFFFF" height="18.7746" style="stroke:#181818;stroke-width:0.6;" width="6" x="816.5335" y="121.8457"/><rect fill="#FFFFFF" height="18.7746" style="stroke:#181818;stroke-width:0.6;" width="6" x="919.4063" y="260.666"/><rect fill="#FFFFFF" height="18.7746" style="stroke:#181818;stroke-width:0.6;" width="6" x="919.4063" y="481.6102"/><rect fill="#FFFFFF" height="18.7746" style="stroke:#181818;stroke-width:0.6;" width="6" x="1194.6706" y="223.1168"/><rect fill="none" height="39.3492" style="stroke:#000000;stroke-width:0.8999999999999999;" width="289.6157" x="532.9178" y="288.4406"/><line style="stroke:#181818;stroke-width:0.3;stroke-dasharray:5.0,5.0;" x1="30" x2="30" y1="23.1727" y2="646.8305"/><line style="stroke:#181818;stroke-width:0.3;stroke-dasharray:5.0,5.0;" x1="121.1136" x2="121.1136" y1="23.1727" y2="646.8305"/><line style="stroke:#181818;stroke-width:0.3;stroke-dasharray:5.0,5.0;" x1="385.377" x2="385.377" y1="23.1727" y2="646.8305"/><line style="stroke:#181818;stroke-width:0.3;stroke-dasharray:5.0,5.0;" x1="472.1813" x2="472.1813" y1="23.1727" y2="646.8305"/><line style="stroke:#181818;stroke-width:0.3;stroke-dasharray:5.0,5.0;" x1="582.1178" x2="582.1178" y1="164.5066" y2="646.8305"/><line style="stroke:#181818;stroke-width:0.3;stroke-dasharray:5.0,5.0;" x1="819.0847" x2="819.0847" y1="23.1727" y2="646.8305"/><line style="stroke:#181818;stroke-width:0.3;stroke-dasharray:5.0,5.0;" x1="921.9823" x2="921.9823" y1="23.1727" y2="646.8305"/><line style="stroke:#181818;stroke-width:0.3;stroke-dasharray:5.0,5.0;" x1="1020.0302" x2="1020.0302" y1="351.0762" y2="646.8305"/><line style="stroke:#181818;stroke-width:0.3;stroke-dasharray:5.0,5.0;" x1="1108.8255" x2="1108.8255" y1="543.0457" y2="646.8305"/><line style="stroke:#181818;stroke-width:0.3;stroke-dasharray:5.0,5.0;" x1="1197.3149" x2="1197.3149" y1="23.1727" y2="646.8305"/><rect fill="#E2E2F0" height="19.5727" rx="1.5" ry="1.5" style="stroke:#181818;stroke-width:0.3;" width="54.1406" x="3" y="3"/><text fill="#000000" font-family="sans-serif" font-size="8.4" lengthAdjust="spacing" textLength="45.7406" x="7.2" y="16.2645">:HTTPClient</text><rect fill="#E2E2F0" height="19.5727" rx="1.5" ry="1.5" style="stroke:#181818;stroke-width:0.3;" width="54.1406" x="3" y="646.2305"/><text fill="#000000" font-family="sans-serif" font-size="8.4" lengthAdjust="spacing" textLength="45.7406" x="7.2" y="659.4949">:HTTPClient</text><rect fill="#E2E2F0" height="19.5727" rx="1.5" ry="1.5" style="stroke:#181818;stroke-width:0.3;" width="90.5871" x="76.1136" y="3"/><text fill="#000000" font-family="sans-serif" font-size="8.4" lengthAdjust="spacing" textLength="82.1871" x="80.3136" y="16.2645">handler:RouteHandler</text><rect fill="#E2E2F0" height="19.5727" rx="1.5" ry="1.5" style="stroke:#181818;stroke-width:0.3;" width="90.5871" x="76.1136" y="646.2305"/><text fill="#000000" font-family="sans-serif" font-size="8.4" lengthAdjust="spacing" textLength="82.1871" x="80.3136" y="659.4949">handler:RouteHandler</text><rect fill="#E2E2F0" height="19.5727" rx="1.5" ry="1.5" style="stroke:#181818;stroke-width:0.3;" width="69.099" x="351.177" y="3"/><text fill="#000000" font-family="sans-serif" font-size="8.4" lengthAdjust="spacing" textLength="60.699" x="355.377" y="16.2645">:AgentController</text><rect fill="#E2E2F0" height="19.5727" rx="1.5" ry="1.5" style="stroke:#181818;stroke-width:0.3;" width="69.099" x="351.177" y="646.2305"/><text fill="#000000" font-family="sans-serif" font-size="8.4" lengthAdjust="spacing" textLength="60.699" x="355.377" y="659.4949">:AgentController</text><rect fill="#E2E2F0" height="19.5727" rx="1.5" ry="1.5" style="stroke:#181818;stroke-width:0.3;" width="51.8273" x="446.3812" y="3"/><text fill="#000000" font-family="sans-serif" font-size="8.4" lengthAdjust="spacing" textLength="43.4273" x="450.5813" y="16.2645">:Application</text><rect fill="#E2E2F0" height="19.5727" rx="1.5" ry="1.5" style="stroke:#181818;stroke-width:0.3;" width="51.8273" x="446.3812" y="646.2305"/><text fill="#000000" font-family="sans-serif" font-size="8.4" lengthAdjust="spacing" textLength="43.4273" x="450.5813" y="659.4949">:Application</text><rect fill="#E2E2F0" height="19.5727" rx="1.5" ry="1.5" style="stroke:#181818;stroke-width:0.3;" width="87.3018" x="538.9178" y="646.2305"/><text fill="#000000" font-family="sans-serif" font-size="8.4" lengthAdjust="spacing" textLength="78.9018" x="543.1178" y="659.4949">service:AgentService</text><rect fill="#E2E2F0" height="19.5727" rx="1.5" ry="1.5" style="stroke:#181818;stroke-width:0.3;" width="104.0977" x="767.4847" y="3"/><text fill="#000000" font-family="sans-serif" font-size="8.4" lengthAdjust="spacing" textLength="95.6977" x="771.6847" y="16.2645">factory:RepositoryFactory</text><rect fill="#E2E2F0" height="19.5727" rx="1.5" ry="1.5" style="stroke:#181818;stroke-width:0.3;" width="104.0977" x="767.4847" y="646.2305"/><text fill="#000000" font-family="sans-serif" font-size="8.4" lengthAdjust="spacing" textLength="95.6977" x="771.6847" y="659.4949">factory:RepositoryFactory</text><rect fill="#E2E2F0" height="19.5727" rx="1.5" ry="1.5" style="stroke:#181818;stroke-width:0.3;" width="89.6479" x="877.5823" y="3"/><text fill="#000000" font-family="sans-serif" font-size="8.4" lengthAdjust="spacing" textLength="81.2479" x="881.7823" y="16.2645">repo:AgentRepository</text><rect fill="#E2E2F0" height="19.5727" rx="1.5" ry="1.5" style="stroke:#181818;stroke-width:0.3;" width="89.6479" x="877.5823" y="646.2305"/><text fill="#000000" font-family="sans-serif" font-size="8.4" lengthAdjust="spacing" textLength="81.2479" x="881.7823" y="659.4949">repo:AgentRepository</text><rect fill="#E2E2F0" height="19.5727" rx="1.5" ry="1.5" style="stroke:#181818;stroke-width:0.3;" width="94.7953" x="973.2302" y="646.2305"/><text fill="#000000" font-family="sans-serif" font-size="8.4" lengthAdjust="spacing" textLength="86.3953" x="977.4302" y="659.4949">agent:RealEstateAgent</text><rect fill="#E2E2F0" height="19.5727" rx="1.5" ry="1.5" style="stroke:#181818;stroke-width:0.3;" width="70.4895" x="1074.0255" y="646.2305"/><text fill="#000000" font-family="sans-serif" font-size="8.4" lengthAdjust="spacing" textLength="62.0895" x="1078.2255" y="659.4949">result:HttpResult</text><rect fill="#E2E2F0" height="19.5727" rx="1.5" ry="1.5" style="stroke:#181818;stroke-width:0.3;" width="94.3113" x="1150.5149" y="3"/><text fill="#000000" font-family="sans-serif" font-size="8.4" lengthAdjust="spacing" textLength="85.9113" x="1154.7149" y="16.2645">repo:BranchRepository</text><rect fill="#E2E2F0" height="19.5727" rx="1.5" ry="1.5" style="stroke:#181818;stroke-width:0.3;" width="94.3113" x="1150.5149" y="646.2305"/><text fill="#000000" font-family="sans-serif" font-size="8.4" lengthAdjust="spacing" textLength="85.9113" x="1154.7149" y="659.4949">repo:BranchRepository</text><rect fill="#FFFFFF" height="612.2578" style="stroke:#181818;stroke-width:0.6;" width="6" x="27.0703" y="29.1727"/><rect fill="#FFFFFF" height="592.8832" style="stroke:#181818;stroke-width:0.6;" width="6" x="118.4071" y="43.1473"/><rect fill="#FFFFFF" height="25.3746" style="stroke:#181818;stroke-width:0.6;" width="6" x="121.4071" y="587.6813"/><rect fill="#FFFFFF" height="479.8102" style="stroke:#181818;stroke-width:0.6;" width="6" x="382.7265" y="84.2965"/><rect fill="#FFFFFF" height="82.4965" style="stroke:#181818;stroke-width:0.6;" width="6" x="469.2949" y="103.0711"/><rect fill="#FFFFFF" height="437.0883" style="stroke:#181818;stroke-width:0.6;" width="6" x="579.5687" y="204.3422"/><rect fill="#FFFFFF" height="70.9219" style="stroke:#181818;stroke-width:0.6;" width="6" x="582.5687" y="319.9898"/><rect fill="#FFFFFF" height="109.473" style="stroke:#181818;stroke-width:0.6;" width="6" x="582.5687" y="409.6863"/><rect fill="#FFFFFF" height="25.3746" style="stroke:#181818;stroke-width:0.6;" width="6" x="585.5687" y="433.2609"/><rect fill="#FFFFFF" height="18.7746" style="stroke:#181818;stroke-width:0.6;" width="6" x="816.5335" y="121.8457"/><rect fill="#FFFFFF" height="18.7746" style="stroke:#181818;stroke-width:0.6;" width="6" x="919.4063" y="260.666"/><rect fill="#FFFFFF" height="18.7746" style="stroke:#181818;stroke-width:0.6;" width="6" x="919.4063" y="481.6102"/><rect fill="#FFFFFF" height="18.7746" style="stroke:#181818;stroke-width:0.6;" width="6" x="1194.6706" y="223.1168"/><polygon fill="#181818" points="111.2071,40.7473,117.2071,43.1473,111.2071,45.5473,113.6071,43.1473" style="stroke:#181818;stroke-width:0.6;"/><line style="stroke:#181818;stroke-width:0.6;" x1="33.0703" x2="114.8071" y1="43.1473" y2="43.1473"/><text fill="#000000" font-family="sans-serif" font-size="7.8" font-weight="bold" lengthAdjust="spacing" textLength="4.338" x="37.2703" y="39.9896">1</text><text fill="#000000" font-family="sans-serif" font-size="7.8" lengthAdjust="spacing" textLength="67.1988" x="44.0083" y="39.9896">POST/agents(data)</text><path d="M66,50.9473 L66,67.1473 L176.4,67.1473 L176.4,56.9473 L170.4,50.9473 L66,50.9473 " fill="#FEFFDD" style="stroke:#181818;stroke-width:0.3;"/><path d="M170.4,50.9473 L170.4,56.9473 L176.4,56.9473 L170.4,50.9473 " fill="#FEFFDD" style="stroke:#181818;stroke-width:0.3;"/><text fill="#000000" font-family="sans-serif" font-size="7.8" lengthAdjust="spacing" textLength="97.9875" x="69.6" y="62.3643">after doing some processing</text><polygon fill="#181818" points="375.5265,81.8965,381.5265,84.2965,375.5265,86.6965,377.9265,84.2965" style="stroke:#181818;stroke-width:0.6;"/><line style="stroke:#181818;stroke-width:0.6;" x1="124.4071" x2="379.1265" y1="84.2965" y2="84.2965"/><text fill="#000000" font-family="sans-serif" font-size="7.8" font-weight="bold" lengthAdjust="spacing" textLength="4.338" x="128.6071" y="81.1389">2</text><text fill="#000000" font-family="sans-serif" font-size="7.8" lengthAdjust="spacing" textLength="240.1813" x="135.3451" y="81.1389">postAgent(name, email, phoneNumber, citizenCardNumber(optional))</text><polygon fill="#181818" points="462.0949,100.6711,468.0949,103.0711,462.0949,105.4711,464.4949,103.0711" style="stroke:#181818;stroke-width:0.6;"/><line style="stroke:#181818;stroke-width:0.6;" x1="388.7265" x2="465.6949" y1="103.0711" y2="103.0711"/><text fill="#000000" font-family="sans-serif" font-size="7.8" font-weight="bold" lengthAdjust="spacing" textLength="4.338" x="392.9265" y="99.9135">3</text><text fill="#000000" font-family="sans-serif" font-size="7.8" lengthAdjust="spacing" textLength="62.4305" x="399.6645" y="99.9135">getAgentService()</text><polygon fill="#181818" points="809.3335,119.4457,815.3335,121.8457,809.3335,124.2457,811.7335,121.8457" style="stroke:#181818;stroke-width:0.6;"/><line style="stroke:#181818;stroke-width:0.6;" x1="475.2949" x2="812.9335" y1="121.8457" y2="121.8457"/><text fill="#000000" font-family="sans-serif" font-size="7.8" font-weight="bold" lengthAdjust="spacing" textLength="4.338" x="479.4949" y="118.6881">4</text><text fill="#000000" font-family="sans-serif" font-size="7.8" lengthAdjust="spacing" textLength="73.7039" x="486.2329" y="118.6881">getAgentRepository()</text><polygon fill="#181818" points="481.8949,138.2203,475.8949,140.6203,481.8949,143.0203,479.4949,140.6203" style="stroke:#181818;stroke-width:0.6;"/><line style="stroke:#181818;stroke-width:0.6;stroke-dasharray:2.0,2.0;" x1="478.2949" x2="818.9335" y1="140.6203" y2="140.6203"/><text fill="#000000" font-family="sans-serif" font-size="7.8" font-weight="bold" lengthAdjust="spacing" textLength="4.338" x="485.4949" y="137.4627">5</text><text fill="#000000" font-family="sans-serif" font-size="7.8" lengthAdjust="spacing" textLength="15.6114" x="492.2329" y="137.4627">repo</text><polygon fill="#181818" points="531.7178,156.9949,537.7178,159.3949,531.7178,161.7949,534.1178,159.3949" style="stroke:#181818;stroke-width:0.6;"/><line style="stroke:#181818;stroke-width:0.6;stroke-dasharray:2.0,2.0;" x1="475.2949" x2="535.3178" y1="159.3949" y2="159.3949"/><text fill="#000000" font-family="sans-serif" font-size="7.8" font-weight="bold" lengthAdjust="spacing" textLength="4.338" x="479.4949" y="156.2373">6</text><text fill="#000000" font-family="sans-serif" font-size="7.8" lengthAdjust="spacing" textLength="42.4849" x="486.2329" y="156.2373">create(repo)</text><rect fill="#E2E2F0" height="19.5727" rx="1.5" ry="1.5" style="stroke:#181818;stroke-width:0.3;" width="87.3018" x="538.9178" y="145.4203"/><text fill="#000000" font-family="sans-serif" font-size="8.4" lengthAdjust="spacing" textLength="78.9018" x="543.1178" y="158.6848">service:AgentService</text><polygon fill="#181818" points="395.3265,183.1676,389.3265,185.5676,395.3265,187.9676,392.9265,185.5676" style="stroke:#181818;stroke-width:0.6;"/><line style="stroke:#181818;stroke-width:0.6;stroke-dasharray:2.0,2.0;" x1="391.7265" x2="471.6949" y1="185.5676" y2="185.5676"/><text fill="#000000" font-family="sans-serif" font-size="7.8" font-weight="bold" lengthAdjust="spacing" textLength="4.338" x="398.9265" y="182.41">7</text><text fill="#000000" font-family="sans-serif" font-size="7.8" lengthAdjust="spacing" textLength="24.7063" x="405.6645" y="182.41">service</text><polygon fill="#181818" points="572.3687,201.9422,578.3687,204.3422,572.3687,206.7422,574.7687,204.3422" style="stroke:#181818;stroke-width:0.6;"/><line style="stroke:#181818;stroke-width:0.6;" x1="388.7265" x2="575.9687" y1="204.3422" y2="204.3422"/><text fill="#000000" font-family="sans-serif" font-size="7.8" font-weight="bold" lengthAdjust="spacing" textLength="4.338" x="392.9265" y="201.1846">8</text><text fill="#000000" font-family="sans-serif" font-size="7.8" lengthAdjust="spacing" textLength="83.2521" x="399.6645" y="201.1846">createAgent(agentData)</text><polygon fill="#181818" points="1187.4706,220.7168,1193.4706,223.1168,1187.4706,225.5168,1189.8706,223.1168" style="stroke:#181818;stroke-width:0.6;"/><line style="stroke:#181818;stroke-width:0.6;" x1="585.5687" x2="1191.0706" y1="223.1168" y2="223.1168"/><text fill="#000000" font-family="sans-serif" font-size="7.8" font-weight="bold" lengthAdjust="spacing" textLength="4.338" x="589.7687" y="219.9592">9</text><text fill="#000000" font-family="sans-serif" font-size="7.8" lengthAdjust="spacing" textLength="121.4104" x="596.5066" y="219.9592">findBranch(agentData.branchcode)</text><polygon fill="#181818" points="592.1687,239.4914,586.1687,241.8914,592.1687,244.2914,589.7687,241.8914" style="stroke:#181818;stroke-width:0.6;"/><line style="stroke:#181818;stroke-width:0.6;stroke-dasharray:2.0,2.0;" x1="588.5687" x2="1197.0706" y1="241.8914" y2="241.8914"/><text fill="#000000" font-family="sans-serif" font-size="7.8" font-weight="bold" lengthAdjust="spacing" textLength="8.676" x="595.7687" y="238.7338">10</text><text fill="#000000" font-family="sans-serif" font-size="7.8" lengthAdjust="spacing" textLength="23.8494" x="606.8446" y="238.7338">branch</text><polygon fill="#181818" points="912.2063,258.266,918.2063,260.666,912.2063,263.066,914.6062,260.666" style="stroke:#181818;stroke-width:0.6;"/><line style="stroke:#181818;stroke-width:0.6;" x1="585.5687" x2="915.8063" y1="260.666" y2="260.666"/><text fill="#000000" font-family="sans-serif" font-size="7.8" font-weight="bold" lengthAdjust="spacing" textLength="8.676" x="589.7687" y="257.5084">11</text><text fill="#000000" font-family="sans-serif" font-size="7.8" lengthAdjust="spacing" textLength="112.7306" x="600.8446" y="257.5084">isUniqueAgent(agentData.email)</text><polygon fill="#181818" points="592.1687,277.0406,586.1687,279.4406,592.1687,281.8406,589.7687,279.4406" style="stroke:#181818;stroke-width:0.6;"/><line style="stroke:#181818;stroke-width:0.6;stroke-dasharray:2.0,2.0;" x1="588.5687" x2="921.8063" y1="279.4406" y2="279.4406"/><text fill="#000000" font-family="sans-serif" font-size="7.8" font-weight="bold" lengthAdjust="spacing" textLength="8.676" x="595.7687" y="276.283">12</text><text fill="#000000" font-family="sans-serif" font-size="7.8" lengthAdjust="spacing" textLength="30.3507" x="606.8446" y="276.283">isUnique</text><path d="M532.9178,288.4406 L569.0203,288.4406 L569.0203,294.0152 L563.0203,300.0152 L532.9178,300.0152 L532.9178,288.4406 " fill="#EEEEEE" style="stroke:#000000;stroke-width:0.8999999999999999;"/><rect fill="none" height="39.3492" style="stroke:#000000;stroke-width:0.8999999999999999;" width="289.6157" x="532.9178" y="288.4406"/><text fill="#000000" font-family="sans-serif" font-size="7.8" font-weight="bold" lengthAdjust="spacing" textLength="9.1025" x="541.9178" y="297.4576">alt</text><text fill="#000000" font-family="sans-serif" font-size="6.6" font-weight="bold" lengthAdjust="spacing" textLength="121.7552" x="578.0203" y="296.7627">[agentData.citizenCardNumber == null]</text><line style="stroke:#000000;stroke-width:0.6;stroke-dasharray:2.0,2.0;" x1="532.9178" x2="822.5335" y1="300.6152" y2="300.6152"/><line style="stroke:#181818;stroke-width:0.6;" x1="585.5687" x2="613.7687" y1="312.1898" y2="312.1898"/><line style="stroke:#181818;stroke-width:0.6;" x1="613.7687" x2="613.7687" y1="312.1898" y2="319.9898"/><line style="stroke:#181818;stroke-width:0.6;" x1="589.1687" x2="613.7687" y1="319.9898" y2="319.9898"/><polygon fill="#181818" points="595.1687,317.5898,589.1687,319.9898,595.1687,322.3898,592.7687,319.9898" style="stroke:#181818;stroke-width:0.6;"/><text fill="#000000" font-family="sans-serif" font-size="7.8" font-weight="bold" lengthAdjust="spacing" textLength="8.676" x="592.7687" y="309.0322">13</text><text fill="#000000" font-family="sans-serif" font-size="7.8" lengthAdjust="spacing" textLength="205.4889" x="603.8446" y="309.0322">validateCitizenCardNumber(agentData.citizenCardNumber)</text><polygon fill="#181818" points="966.0302,343.5645,972.0302,345.9645,966.0302,348.3645,968.4302,345.9645" style="stroke:#181818;stroke-width:0.6;"/><line style="stroke:#181818;stroke-width:0.6;" x1="588.5687" x2="969.6302" y1="345.9645" y2="345.9645"/><text fill="#000000" font-family="sans-serif" font-size="7.8" font-weight="bold" lengthAdjust="spacing" textLength="8.676" x="592.7687" y="342.8068">14</text><text fill="#000000" font-family="sans-serif" font-size="7.8" lengthAdjust="spacing" textLength="62.8685" x="603.8446" y="342.8068">create(agentData)</text><rect fill="#E2E2F0" height="19.5727" rx="1.5" ry="1.5" style="stroke:#181818;stroke-width:0.3;" width="94.7953" x="973.2302" y="331.9898"/><text fill="#000000" font-family="sans-serif" font-size="8.4" lengthAdjust="spacing" textLength="86.3953" x="977.4302" y="345.2543">agent:RealEstateAgent</text><polygon fill="#181818" points="595.1687,369.7371,589.1687,372.1371,595.1687,374.5371,592.7687,372.1371" style="stroke:#181818;stroke-width:0.6;"/><line style="stroke:#181818;stroke-width:0.6;stroke-dasharray:2.0,2.0;" x1="591.5687" x2="1020.0278" y1="372.1371" y2="372.1371"/><text fill="#000000" font-family="sans-serif" font-size="7.8" font-weight="bold" lengthAdjust="spacing" textLength="8.676" x="598.7687" y="368.9795">15</text><text fill="#000000" font-family="sans-serif" font-size="7.8" lengthAdjust="spacing" textLength="19.519" x="609.8446" y="368.9795">agent</text><polygon fill="#181818" points="395.3265,388.5117,389.3265,390.9117,395.3265,393.3117,392.9265,390.9117" style="stroke:#181818;stroke-width:0.6;"/><line style="stroke:#181818;stroke-width:0.6;stroke-dasharray:2.0,2.0;" x1="391.7265" x2="578.9687" y1="390.9117" y2="390.9117"/><text fill="#000000" font-family="sans-serif" font-size="7.8" font-weight="bold" lengthAdjust="spacing" textLength="8.676" x="398.9265" y="387.7541">16</text><text fill="#000000" font-family="sans-serif" font-size="7.8" lengthAdjust="spacing" textLength="19.519" x="410.0024" y="387.7541">agent</text><polygon fill="#181818" points="575.3687,407.2863,581.3687,409.6863,575.3687,412.0863,577.7687,409.6863" style="stroke:#181818;stroke-width:0.6;"/><line style="stroke:#181818;stroke-width:0.6;" x1="388.7265" x2="578.9687" y1="409.6863" y2="409.6863"/><text fill="#000000" font-family="sans-serif" font-size="7.8" font-weight="bold" lengthAdjust="spacing" textLength="8.676" x="392.9265" y="406.5287">17</text><text fill="#000000" font-family="sans-serif" font-size="7.8" lengthAdjust="spacing" textLength="49.8659" x="404.0024" y="406.5287">Update(agent)</text><line style="stroke:#181818;stroke-width:0.6;" x1="588.5687" x2="616.7687" y1="425.4609" y2="425.4609"/><line style="stroke:#181818;stroke-width:0.6;" x1="616.7687" x2="616.7687" y1="425.4609" y2="433.2609"/><line style="stroke:#181818;stroke-width:0.6;" x1="592.1687" x2="616.7687" y1="433.2609" y2="433.2609"/><polygon fill="#181818" points="598.1687,430.8609,592.1687,433.2609,598.1687,435.6609,595.7687,433.2609" style="stroke:#181818;stroke-width:0.6;"/><text fill="#000000" font-family="sans-serif" font-size="7.8" font-weight="bold" lengthAdjust="spacing" textLength="8.676" x="595.7687" y="422.3033">18</text><text fill="#000000" font-family="sans-serif" font-size="7.8" lengthAdjust="spacing" textLength="51.5988" x="606.8446" y="422.3033">validate(agent)</text><line style="stroke:#181818;stroke-width:0.6;stroke-dasharray:2.0,2.0;" x1="591.5687" x2="616.7687" y1="458.0355" y2="458.0355"/><line style="stroke:#181818;stroke-width:0.6;stroke-dasharray:2.0,2.0;" x1="616.7687" x2="616.7687" y1="458.0355" y2="465.8355"/><line style="stroke:#181818;stroke-width:0.6;stroke-dasharray:2.0,2.0;" x1="588.5687" x2="616.7687" y1="465.8355" y2="465.8355"/><polygon fill="#181818" points="594.5687,463.4355,588.5687,465.8355,594.5687,468.2355,592.1687,465.8355" style="stroke:#181818;stroke-width:0.6;"/><text fill="#000000" font-family="sans-serif" font-size="7.8" font-weight="bold" lengthAdjust="spacing" textLength="8.676" x="595.7687" y="454.8779">19</text><text fill="#000000" font-family="sans-serif" font-size="7.8" lengthAdjust="spacing" textLength="8.238" x="606.8446" y="454.8779">ok</text><polygon fill="#181818" points="912.2063,479.2102,918.2063,481.6102,912.2063,484.0102,914.6062,481.6102" style="stroke:#181818;stroke-width:0.6;"/><line style="stroke:#181818;stroke-width:0.6;" x1="588.5687" x2="915.8063" y1="481.6102" y2="481.6102"/><text fill="#000000" font-family="sans-serif" font-size="7.8" font-weight="bold" lengthAdjust="spacing" textLength="8.676" x="592.7687" y="478.4525">20</text><text fill="#000000" font-family="sans-serif" font-size="7.8" lengthAdjust="spacing" textLength="41.1899" x="603.8446" y="478.4525">save(agent)</text><polygon fill="#181818" points="595.1687,497.9848,589.1687,500.3848,595.1687,502.7848,592.7687,500.3848" style="stroke:#181818;stroke-width:0.6;"/><line style="stroke:#181818;stroke-width:0.6;stroke-dasharray:2.0,2.0;" x1="591.5687" x2="921.8063" y1="500.3848" y2="500.3848"/><text fill="#000000" font-family="sans-serif" font-size="7.8" font-weight="bold" lengthAdjust="spacing" textLength="8.676" x="598.7687" y="497.2271">21</text><text fill="#000000" font-family="sans-serif" font-size="7.8" lengthAdjust="spacing" textLength="8.238" x="609.8446" y="497.2271">ok</text><polygon fill="#181818" points="395.3265,516.7594,389.3265,519.1594,395.3265,521.5594,392.9265,519.1594" style="stroke:#181818;stroke-width:0.6;"/><line style="stroke:#181818;stroke-width:0.6;stroke-dasharray:2.0,2.0;" x1="391.7265" x2="578.9687" y1="519.1594" y2="519.1594"/><text fill="#000000" font-family="sans-serif" font-size="7.8" font-weight="bold" lengthAdjust="spacing" textLength="8.676" x="398.9265" y="516.0018">22</text><text fill="#000000" font-family="sans-serif" font-size="7.8" lengthAdjust="spacing" textLength="8.238" x="410.0024" y="516.0018">ok</text><polygon fill="#181818" points="1066.8255,535.534,1072.8255,537.934,1066.8255,540.334,1069.2255,537.934" style="stroke:#181818;stroke-width:0.6;"/><line style="stroke:#181818;stroke-width:0.6;stroke-dasharray:2.0,2.0;" x1="388.7265" x2="1070.4255" y1="537.934" y2="537.934"/><text fill="#000000" font-family="sans-serif" font-size="7.8" font-weight="bold" lengthAdjust="spacing" textLength="8.676" x="392.9265" y="534.7764">23</text><text fill="#000000" font-family="sans-serif" font-size="7.8" lengthAdjust="spacing" textLength="39.8874" x="404.0024" y="534.7764">create(201)</text><rect fill="#E2E2F0" height="19.5727" rx="1.5" ry="1.5" style="stroke:#181818;stroke-width:0.3;" width="70.4895" x="1074.0255" y="523.9594"/><text fill="#000000" font-family="sans-serif" font-size="8.4" lengthAdjust="spacing" textLength="62.0895" x="1078.2255" y="537.2238">result:HttpResult</text><polygon fill="#181818" points="131.0071,561.7066,125.0071,564.1066,131.0071,566.5066,128.6071,564.1066" style="stroke:#181818;stroke-width:0.6;"/><line style="stroke:#181818;stroke-width:0.6;stroke-dasharray:2.0,2.0;" x1="127.4071" x2="385.1265" y1="564.1066" y2="564.1066"/><text fill="#000000" font-family="sans-serif" font-size="7.8" font-weight="bold" lengthAdjust="spacing" textLength="8.676" x="134.6071" y="560.949">24</text><text fill="#000000" font-family="sans-serif" font-size="7.8" lengthAdjust="spacing" textLength="19.0734" x="145.6831" y="560.949">result</text><line style="stroke:#181818;stroke-width:0.6;" x1="124.4071" x2="152.6071" y1="579.8813" y2="579.8813"/><line style="stroke:#181818;stroke-width:0.6;" x1="152.6071" x2="152.6071" y1="579.8813" y2="587.6813"/><line style="stroke:#181818;stroke-width:0.6;" x1="128.0071" x2="152.6071" y1="587.6813" y2="587.6813"/><polygon fill="#181818" points="134.0071,585.2813,128.0071,587.6813,134.0071,590.0813,131.6071,587.6813" style="stroke:#181818;stroke-width:0.6;"/><text fill="#000000" font-family="sans-serif" font-size="7.8" font-weight="bold" lengthAdjust="spacing" textLength="8.676" x="131.6071" y="576.7236">25</text><text fill="#000000" font-family="sans-serif" font-size="7.8" lengthAdjust="spacing" textLength="90.595" x="142.6831" y="576.7236">setHttpResult(resp, result)</text><line style="stroke:#181818;stroke-width:0.6;stroke-dasharray:2.0,2.0;" x1="127.4071" x2="152.6071" y1="612.4559" y2="612.4559"/><line style="stroke:#181818;stroke-width:0.6;stroke-dasharray:2.0,2.0;" x1="152.6071" x2="152.6071" y1="612.4559" y2="620.2559"/><line style="stroke:#181818;stroke-width:0.6;stroke-dasharray:2.0,2.0;" x1="124.4071" x2="152.6071" y1="620.2559" y2="620.2559"/><polygon fill="#181818" points="130.4071,617.8559,124.4071,620.2559,130.4071,622.6559,128.0071,620.2559" style="stroke:#181818;stroke-width:0.6;"/><text fill="#000000" font-family="sans-serif" font-size="7.8" font-weight="bold" lengthAdjust="spacing" textLength="8.676" x="131.6071" y="609.2982">26</text><text fill="#000000" font-family="sans-serif" font-size="7.8" lengthAdjust="spacing" textLength="2.1671" x="142.6831" y="609.2982">&#160;</text><polygon fill="#181818" points="39.6703,633.6305,33.6703,636.0305,39.6703,638.4305,37.2703,636.0305" style="stroke:#181818;stroke-width:0.6;"/><line style="stroke:#181818;stroke-width:0.6;stroke-dasharray:2.0,2.0;" x1="36.0703" x2="120.8071" y1="636.0305" y2="636.0305"/><text fill="#000000" font-family="sans-serif" font-size="7.8" font-weight="bold" lengthAdjust="spacing" textLength="8.676" x="43.2703" y="632.8729">27</text><text fill="#000000" font-family="sans-serif" font-size="7.8" lengthAdjust="spacing" textLength="15.1734" x="54.3463" y="632.8729">resp</text><!--SRC=[VLJRZjCm47ttLrZxGhtg1NYCj4XGG7s2LTlzW5bdcbeujh6TIilNuqiI9msYJvwPSqvdvjXvT_NUk6gtCnAKxrgvvRhTEVpTeUAugGKq5be2dTV0lRY1HwfLYbNNlg8bn83rWWiJ-FIXEfpFptifKFa72ewMS8wxWgebskgeEu-772J2wSrvREz4FpT1OA-LjreEmBstyXvcZ1GSlD0gGK8yHpYqDy4nwvroaFyrd-VeIvXOsxVgY4Ox4O_VSoPH-lESOWCqgnTIGiTm3eM82jeWlpaVrffOkUrciIwBhfE-EWIpZkdOYyRZFphuOa7nwrqB9Kb6AoVsa7Accq-z3nLz_dawxrAlRbM31qQ8ql4ItD2E8BZu4DLQg8OwtI8rLdDqBiI4P53KZ9PLD3JbquWh1IskAROWv9gQgrRu8zsfDUN2Yp-ezc3hd5ff4sq5oHY9Cb4ks5lH1ltKpHKZ8HshlJ-qGCe-0ceeRmQXkBZCZTDdjSV7YdABOLEhM6PZFK_INwUnePurSFAGQNTVy-PwGCGMDofw4QhESK5lNrE2wnePAU1fTnNDc9bkLXJkHOdmXkzQsAPTCx9K6WW4fAS5l_21FZrHrKb9K3eaDFmc_psgtK2AS5bmlx3nFzACeAgdewJc9nPCDfbAymbIjT17at9-OT6BgKTDHfP3q3B50ZH3wL_BzJkuZQpbhgUCiSsGp3qcaVYk9vD_VF-1bVBmwl97OVA-Xe93NxuKuUOwi-x1R4GN-3HLlW59tf2_]--></g></svg>