<svg xmlns="http://www.w3.org/2000/svg" xmlns:xlink="http://www.w3.org/1999/xlink" contentStyleType="text/css" height="879px" preserveAspectRatio="none" style="width:1497px;height:879px;background:#FFFFFF;" version="1.1" viewBox="0 0 1497 879" width="1497px" zoomAndPan="magnify"><defs/><g><rect fill="#FFFFFF" height="784.3926" style="stroke:#181818;stroke-width:1.0;" width="10" x="45.1172" y="48.6211"/><rect fill="#FFFFFF" height="752.1016" style="stroke:#181818;stroke-width:1.0;" width="10" x="193.7144" y="71.9121"/><rect fill="#FFFFFF" height="42.291" style="stroke:#181818;stroke-width:1.0;" width="10" x="198.7144" y="743.4316"/><rect fill="#FFFFFF" height="563.6465" style="stroke:#181818;stroke-width:1.0;" width="10" x="525.1367" y="140.4941"/><rect fill="#FFFFFF" height="137.4941" style="stroke:#181818;stroke-width:1.0;" width="10" x="673.0166" y="171.7852"/><rect fill="#FFFFFF" height="74.9121" style="stroke:#181818;stroke-width:1.0;" width="10" x="855.2441" y="340.5703"/><rect fill="#FFFFFF" height="182.4551" style="stroke:#181818;stroke-width:1.0;" width="10" x="855.2441" y="446.7734"/><rect fill="#FFFFFF" height="42.291" style="stroke:#181818;stroke-width:1.0;" width="10" x="860.2441" y="486.0645"/><rect fill="#FFFFFF" height="31.291" style="stroke:#181818;stroke-width:1.0;" width="10" x="1023.1816" y="203.0762"/><rect fill="#FFFFFF" height="31.291" style="stroke:#181818;stroke-width:1.0;" width="10" x="1193.0742" y="566.6465"/><line style="stroke:#181818;stroke-width:0.5;stroke-dasharray:5.0,5.0;" x1="50" x2="50" y1="38.6211" y2="842.0137"/><line style="stroke:#181818;stroke-width:0.5;stroke-dasharray:5.0,5.0;" x1="198.2251" x2="198.2251" y1="38.6211" y2="842.0137"/><line style="stroke:#181818;stroke-width:0.5;stroke-dasharray:5.0,5.0;" x1="530.1162" x2="530.1162" y1="38.6211" y2="842.0137"/><line style="stroke:#181818;stroke-width:0.5;stroke-dasharray:5.0,5.0;" x1="677.4995" x2="677.4995" y1="38.6211" y2="842.0137"/><line style="stroke:#181818;stroke-width:0.5;stroke-dasharray:5.0,5.0;" x1="860.0547" x2="860.0547" y1="274.1777" y2="842.0137"/><line style="stroke:#181818;stroke-width:0.5;stroke-dasharray:5.0,5.0;" x1="1027.4336" x2="1027.4336" y1="38.6211" y2="842.0137"/><line style="stroke:#181818;stroke-width:0.5;stroke-dasharray:5.0,5.0;" x1="1197.9297" x2="1197.9297" y1="38.6211" y2="842.0137"/><line style="stroke:#181818;stroke-width:0.5;stroke-dasharray:5.0,5.0;" x1="1322.2188" x2="1322.2188" y1="380.3809" y2="842.0137"/><line style="stroke:#181818;stroke-width:0.5;stroke-dasharray:5.0,5.0;" x1="1431.6943" x2="1431.6943" y1="669.0391" y2="842.0137"/><rect fill="#E2E2F0" height="32.6211" rx="2.5" ry="2.5" style="stroke:#181818;stroke-width:0.5;" width="90.2344" x="5" y="5"/><text fill="#000000" font-family="sans-serif" font-size="14" lengthAdjust="spacing" textLength="76.2344" x="12" y="27.1074">:HTTPClient</text><rect fill="#E2E2F0" height="32.6211" rx="2.5" ry="2.5" style="stroke:#181818;stroke-width:0.5;" width="90.2344" x="5" y="841.0137"/><text fill="#000000" font-family="sans-serif" font-size="14" lengthAdjust="spacing" textLength="76.2344" x="12" y="863.1211">:HTTPClient</text><rect fill="#E2E2F0" height="32.6211" rx="2.5" ry="2.5" style="stroke:#181818;stroke-width:0.5;" width="150.9785" x="123.2251" y="5"/><text fill="#000000" font-family="sans-serif" font-size="14" lengthAdjust="spacing" textLength="136.9785" x="130.2251" y="27.1074">handler:RouteHandler</text><rect fill="#E2E2F0" height="32.6211" rx="2.5" ry="2.5" style="stroke:#181818;stroke-width:0.5;" width="150.9785" x="123.2251" y="841.0137"/><text fill="#000000" font-family="sans-serif" font-size="14" lengthAdjust="spacing" textLength="136.9785" x="130.2251" y="863.1211">handler:RouteHandler</text><rect fill="#E2E2F0" height="32.6211" rx="2.5" ry="2.5" style="stroke:#181818;stroke-width:0.5;" width="112.041" x="474.1162" y="5"/><text fill="#000000" font-family="sans-serif" font-size="14" lengthAdjust="spacing" textLength="98.041" x="481.1162" y="27.1074">:StoreController</text><rect fill="#E2E2F0" height="32.6211" rx="2.5" ry="2.5" style="stroke:#181818;stroke-width:0.5;" width="112.041" x="474.1162" y="841.0137"/><text fill="#000000" font-family="sans-serif" font-size="14" lengthAdjust="spacing" textLength="98.041" x="481.1162" y="863.1211">:StoreController</text><rect fill="#E2E2F0" height="32.6211" rx="2.5" ry="2.5" style="stroke:#181818;stroke-width:0.5;" width="147.0342" x="604.4995" y="5"/><text fill="#000000" font-family="sans-serif" font-size="14" lengthAdjust="spacing" textLength="133.0342" x="611.4995" y="27.1074">:SystemAdministrator</text><rect fill="#E2E2F0" height="32.6211" rx="2.5" ry="2.5" style="stroke:#181818;stroke-width:0.5;" width="147.0342" x="604.4995" y="841.0137"/><text fill="#000000" font-family="sans-serif" font-size="14" lengthAdjust="spacing" textLength="133.0342" x="611.4995" y="863.1211">:SystemAdministrator</text><rect fill="#E2E2F0" height="32.6211" rx="2.5" ry="2.5" style="stroke:#181818;stroke-width:0.5;" width="142.3789" x="789.0547" y="841.0137"/><text fill="#000000" font-family="sans-serif" font-size="14" lengthAdjust="spacing" textLength="128.3789" x="796.0547" y="863.1211">service:StoreService</text><rect fill="#E2E2F0" height="32.6211" rx="2.5" ry="2.5" style="stroke:#181818;stroke-width:0.5;" width="173.4961" x="941.4336" y="5"/><text fill="#000000" font-family="sans-serif" font-size="14" lengthAdjust="spacing" textLength="159.4961" x="948.4336" y="27.1074">factory:RepositoryFactory</text><rect fill="#E2E2F0" height="32.6211" rx="2.5" ry="2.5" style="stroke:#181818;stroke-width:0.5;" width="173.4961" x="941.4336" y="841.0137"/><text fill="#000000" font-family="sans-serif" font-size="14" lengthAdjust="spacing" textLength="159.4961" x="948.4336" y="863.1211">factory:RepositoryFactory</text><rect fill="#E2E2F0" height="32.6211" rx="2.5" ry="2.5" style="stroke:#181818;stroke-width:0.5;" width="146.2891" x="1124.9297" y="5"/><text fill="#000000" font-family="sans-serif" font-size="14" lengthAdjust="spacing" textLength="132.2891" x="1131.9297" y="27.1074">repo:StoreRepository</text><rect fill="#E2E2F0" height="32.6211" rx="2.5" ry="2.5" style="stroke:#181818;stroke-width:0.5;" width="146.2891" x="1124.9297" y="841.0137"/><text fill="#000000" font-family="sans-serif" font-size="14" lengthAdjust="spacing" textLength="132.2891" x="1131.9297" y="863.1211">repo:StoreRepository</text><rect fill="#E2E2F0" height="32.6211" rx="2.5" ry="2.5" style="stroke:#181818;stroke-width:0.5;" width="82.4756" x="1281.2188" y="841.0137"/><text fill="#000000" font-family="sans-serif" font-size="14" lengthAdjust="spacing" textLength="68.4756" x="1288.2188" y="863.1211">store:Store</text><rect fill="#E2E2F0" height="32.6211" rx="2.5" ry="2.5" style="stroke:#181818;stroke-width:0.5;" width="117.4824" x="1373.6943" y="841.0137"/><text fill="#000000" font-family="sans-serif" font-size="14" lengthAdjust="spacing" textLength="103.4824" x="1380.6943" y="863.1211">result:HttpResult</text><rect fill="#FFFFFF" height="784.3926" style="stroke:#181818;stroke-width:1.0;" width="10" x="45.1172" y="48.6211"/><rect fill="#FFFFFF" height="752.1016" style="stroke:#181818;stroke-width:1.0;" width="10" x="193.7144" y="71.9121"/><rect fill="#FFFFFF" height="42.291" style="stroke:#181818;stroke-width:1.0;" width="10" x="198.7144" y="743.4316"/><rect fill="#FFFFFF" height="563.6465" style="stroke:#181818;stroke-width:1.0;" width="10" x="525.1367" y="140.4941"/><rect fill="#FFFFFF" height="137.4941" style="stroke:#181818;stroke-width:1.0;" width="10" x="673.0166" y="171.7852"/><rect fill="#FFFFFF" height="74.9121" style="stroke:#181818;stroke-width:1.0;" width="10" x="855.2441" y="340.5703"/><rect fill="#FFFFFF" height="182.4551" style="stroke:#181818;stroke-width:1.0;" width="10" x="855.2441" y="446.7734"/><rect fill="#FFFFFF" height="42.291" style="stroke:#181818;stroke-width:1.0;" width="10" x="860.2441" y="486.0645"/><rect fill="#FFFFFF" height="31.291" style="stroke:#181818;stroke-width:1.0;" width="10" x="1023.1816" y="203.0762"/><rect fill="#FFFFFF" height="31.291" style="stroke:#181818;stroke-width:1.0;" width="10" x="1193.0742" y="566.6465"/><polygon fill="#181818" points="181.7144,67.9121,191.7144,71.9121,181.7144,75.9121,185.7144,71.9121" style="stroke:#181818;stroke-width:1.0;"/><line style="stroke:#181818;stroke-width:1.0;" x1="55.1172" x2="187.7144" y1="71.9121" y2="71.9121"/><text fill="#000000" font-family="sans-serif" font-size="13" font-weight="bold" lengthAdjust="spacing" textLength="7.23" x="62.1172" y="66.6494">1</text><text fill="#000000" font-family="sans-serif" font-size="13" lengthAdjust="spacing" textLength="108.3672" x="73.3472" y="66.6494">POST/stores(data)</text><path d="M125,84.9121 L125,111.9121 L271,111.9121 L271,94.9121 L261,84.9121 L125,84.9121 " fill="#FEFFDD" style="stroke:#181818;stroke-width:0.5;"/><path d="M261,84.9121 L261,94.9121 L271,94.9121 L261,84.9121 " fill="#FEFFDD" style="stroke:#181818;stroke-width:0.5;"/><text fill="#000000" font-family="sans-serif" font-size="13" lengthAdjust="spacing" textLength="125.0107" x="131" y="103.9404">after doing some stuff</text><polygon fill="#181818" points="513.1367,136.4941,523.1367,140.4941,513.1367,144.4941,517.1367,140.4941" style="stroke:#181818;stroke-width:1.0;"/><line style="stroke:#181818;stroke-width:1.0;" x1="203.7144" x2="519.1367" y1="140.4941" y2="140.4941"/><text fill="#000000" font-family="sans-serif" font-size="13" font-weight="bold" lengthAdjust="spacing" textLength="7.23" x="210.7144" y="135.2314">2</text><text fill="#000000" font-family="sans-serif" font-size="13" lengthAdjust="spacing" textLength="291.1924" x="221.9443" y="135.2314">postStore(code, name, openingTime, closingTime)</text><polygon fill="#181818" points="661.0166,167.7852,671.0166,171.7852,661.0166,175.7852,665.0166,171.7852" style="stroke:#181818;stroke-width:1.0;"/><line style="stroke:#181818;stroke-width:1.0;" x1="535.1367" x2="667.0166" y1="171.7852" y2="171.7852"/><text fill="#000000" font-family="sans-serif" font-size="13" font-weight="bold" lengthAdjust="spacing" textLength="7.23" x="542.1367" y="166.5225">3</text><text fill="#000000" font-family="sans-serif" font-size="13" lengthAdjust="spacing" textLength="107.6499" x="553.3667" y="166.5225">getStoresService()</text><polygon fill="#181818" points="1011.1816,199.0762,1021.1816,203.0762,1011.1816,207.0762,1015.1816,203.0762" style="stroke:#181818;stroke-width:1.0;"/><line style="stroke:#181818;stroke-width:1.0;" x1="683.0166" x2="1017.1816" y1="203.0762" y2="203.0762"/><text fill="#000000" font-family="sans-serif" font-size="13" font-weight="bold" lengthAdjust="spacing" textLength="7.23" x="690.0166" y="197.8135">4</text><text fill="#000000" font-family="sans-serif" font-size="13" lengthAdjust="spacing" textLength="126.439" x="701.2466" y="197.8135">getStoresRepository()</text><polygon fill="#181818" points="694.0166,230.3672,684.0166,234.3672,694.0166,238.3672,690.0166,234.3672" style="stroke:#181818;stroke-width:1.0;"/><line style="stroke:#181818;stroke-width:1.0;stroke-dasharray:2.0,2.0;" x1="688.0166" x2="1027.1816" y1="234.3672" y2="234.3672"/><text fill="#000000" font-family="sans-serif" font-size="13" font-weight="bold" lengthAdjust="spacing" textLength="7.23" x="700.0166" y="229.1045">5</text><text fill="#000000" font-family="sans-serif" font-size="13" lengthAdjust="spacing" textLength="26.019" x="711.2466" y="229.1045">repo</text><polygon fill="#181818" points="777.0547,261.6582,787.0547,265.6582,777.0547,269.6582,781.0547,265.6582" style="stroke:#181818;stroke-width:1.0;"/><line style="stroke:#181818;stroke-width:1.0;stroke-dasharray:2.0,2.0;" x1="683.0166" x2="783.0547" y1="265.6582" y2="265.6582"/><text fill="#000000" font-family="sans-serif" font-size="13" font-weight="bold" lengthAdjust="spacing" textLength="7.23" x="690.0166" y="260.3955">6</text><text fill="#000000" font-family="sans-serif" font-size="13" lengthAdjust="spacing" textLength="70.8081" x="701.2466" y="260.3955">create(repo)</text><rect fill="#E2E2F0" height="32.6211" rx="2.5" ry="2.5" style="stroke:#181818;stroke-width:0.5;" width="142.3789" x="789.0547" y="242.3672"/><text fill="#000000" font-family="sans-serif" font-size="14" lengthAdjust="spacing" textLength="128.3789" x="796.0547" y="264.4746">service:StoreService</text><polygon fill="#181818" points="546.1367,305.2793,536.1367,309.2793,546.1367,313.2793,542.1367,309.2793" style="stroke:#181818;stroke-width:1.0;"/><line style="stroke:#181818;stroke-width:1.0;stroke-dasharray:2.0,2.0;" x1="540.1367" x2="677.0166" y1="309.2793" y2="309.2793"/><text fill="#000000" font-family="sans-serif" font-size="13" font-weight="bold" lengthAdjust="spacing" textLength="7.23" x="552.1367" y="304.0166">7</text><text fill="#000000" font-family="sans-serif" font-size="13" lengthAdjust="spacing" textLength="41.1772" x="563.3667" y="304.0166">service</text><polygon fill="#181818" points="843.2441,336.5703,853.2441,340.5703,843.2441,344.5703,847.2441,340.5703" style="stroke:#181818;stroke-width:1.0;"/><line style="stroke:#181818;stroke-width:1.0;" x1="535.1367" x2="849.2441" y1="340.5703" y2="340.5703"/><text fill="#000000" font-family="sans-serif" font-size="13" font-weight="bold" lengthAdjust="spacing" textLength="7.23" x="542.1367" y="335.3076">8</text><text fill="#000000" font-family="sans-serif" font-size="13" lengthAdjust="spacing" textLength="271.6797" x="553.3667" y="335.3076">create(code, name, openingTime, closingTime)</text><polygon fill="#181818" points="1269.2188,367.8613,1279.2188,371.8613,1269.2188,375.8613,1273.2188,371.8613" style="stroke:#181818;stroke-width:1.0;"/><line style="stroke:#181818;stroke-width:1.0;stroke-dasharray:2.0,2.0;" x1="865.2441" x2="1275.2188" y1="371.8613" y2="371.8613"/><text fill="#000000" font-family="sans-serif" font-size="13" font-weight="bold" lengthAdjust="spacing" textLength="7.23" x="872.2441" y="366.5986">9</text><text fill="#000000" font-family="sans-serif" font-size="13" lengthAdjust="spacing" textLength="271.6797" x="883.4741" y="366.5986">create(code, name, openingTime, closingTime)</text><rect fill="#E2E2F0" height="32.6211" rx="2.5" ry="2.5" style="stroke:#181818;stroke-width:0.5;" width="82.4756" x="1281.2188" y="348.5703"/><text fill="#000000" font-family="sans-serif" font-size="14" lengthAdjust="spacing" textLength="68.4756" x="1288.2188" y="370.6777">store:Store</text><polygon fill="#181818" points="546.1367,411.4824,536.1367,415.4824,546.1367,419.4824,542.1367,415.4824" style="stroke:#181818;stroke-width:1.0;"/><line style="stroke:#181818;stroke-width:1.0;stroke-dasharray:2.0,2.0;" x1="540.1367" x2="859.2441" y1="415.4824" y2="415.4824"/><text fill="#000000" font-family="sans-serif" font-size="13" font-weight="bold" lengthAdjust="spacing" textLength="14.46" x="552.1367" y="410.2197">10</text><text fill="#000000" font-family="sans-serif" font-size="13" lengthAdjust="spacing" textLength="28.9009" x="570.5967" y="410.2197">store</text><polygon fill="#181818" points="843.2441,442.7734,853.2441,446.7734,843.2441,450.7734,847.2441,446.7734" style="stroke:#181818;stroke-width:1.0;"/><line style="stroke:#181818;stroke-width:1.0;" x1="535.1367" x2="849.2441" y1="446.7734" y2="446.7734"/><text fill="#000000" font-family="sans-serif" font-size="13" font-weight="bold" lengthAdjust="spacing" textLength="14.46" x="542.1367" y="441.5107">11</text><text fill="#000000" font-family="sans-serif" font-size="13" lengthAdjust="spacing" textLength="115.6099" x="560.5967" y="441.5107">addOrUpdate(store)</text><line style="stroke:#181818;stroke-width:1.0;" x1="865.2441" x2="912.2441" y1="473.0645" y2="473.0645"/><line style="stroke:#181818;stroke-width:1.0;" x1="912.2441" x2="912.2441" y1="473.0645" y2="486.0645"/><line style="stroke:#181818;stroke-width:1.0;" x1="871.2441" x2="912.2441" y1="486.0645" y2="486.0645"/><polygon fill="#181818" points="881.2441,482.0645,871.2441,486.0645,881.2441,490.0645,877.2441,486.0645" style="stroke:#181818;stroke-width:1.0;"/><text fill="#000000" font-family="sans-serif" font-size="13" font-weight="bold" lengthAdjust="spacing" textLength="14.46" x="877.2441" y="467.8018">12</text><text fill="#000000" font-family="sans-serif" font-size="13" lengthAdjust="spacing" textLength="82.3672" x="895.7041" y="467.8018">validate(store)</text><line style="stroke:#181818;stroke-width:1.0;stroke-dasharray:2.0,2.0;" x1="870.2441" x2="912.2441" y1="527.3555" y2="527.3555"/><line style="stroke:#181818;stroke-width:1.0;stroke-dasharray:2.0,2.0;" x1="912.2441" x2="912.2441" y1="527.3555" y2="540.3555"/><line style="stroke:#181818;stroke-width:1.0;stroke-dasharray:2.0,2.0;" x1="865.2441" x2="912.2441" y1="540.3555" y2="540.3555"/><polygon fill="#181818" points="875.2441,536.3555,865.2441,540.3555,875.2441,544.3555,871.2441,540.3555" style="stroke:#181818;stroke-width:1.0;"/><text fill="#000000" font-family="sans-serif" font-size="13" font-weight="bold" lengthAdjust="spacing" textLength="14.46" x="877.2441" y="522.0928">13</text><text fill="#000000" font-family="sans-serif" font-size="13" lengthAdjust="spacing" textLength="13.73" x="895.7041" y="522.0928">ok</text><polygon fill="#181818" points="1181.0742,562.6465,1191.0742,566.6465,1181.0742,570.6465,1185.0742,566.6465" style="stroke:#181818;stroke-width:1.0;"/><line style="stroke:#181818;stroke-width:1.0;" x1="865.2441" x2="1187.0742" y1="566.6465" y2="566.6465"/><text fill="#000000" font-family="sans-serif" font-size="13" font-weight="bold" lengthAdjust="spacing" textLength="14.46" x="872.2441" y="561.3838">14</text><text fill="#000000" font-family="sans-serif" font-size="13" lengthAdjust="spacing" textLength="65.019" x="890.7041" y="561.3838">save(store)</text><polygon fill="#181818" points="876.2441,593.9375,866.2441,597.9375,876.2441,601.9375,872.2441,597.9375" style="stroke:#181818;stroke-width:1.0;"/><line style="stroke:#181818;stroke-width:1.0;stroke-dasharray:2.0,2.0;" x1="870.2441" x2="1197.0742" y1="597.9375" y2="597.9375"/><text fill="#000000" font-family="sans-serif" font-size="13" font-weight="bold" lengthAdjust="spacing" textLength="14.46" x="882.2441" y="592.6748">15</text><text fill="#000000" font-family="sans-serif" font-size="13" lengthAdjust="spacing" textLength="13.73" x="900.7041" y="592.6748">ok</text><polygon fill="#181818" points="546.1367,625.2285,536.1367,629.2285,546.1367,633.2285,542.1367,629.2285" style="stroke:#181818;stroke-width:1.0;"/><line style="stroke:#181818;stroke-width:1.0;stroke-dasharray:2.0,2.0;" x1="540.1367" x2="859.2441" y1="629.2285" y2="629.2285"/><text fill="#000000" font-family="sans-serif" font-size="13" font-weight="bold" lengthAdjust="spacing" textLength="14.46" x="552.1367" y="623.9658">16</text><text fill="#000000" font-family="sans-serif" font-size="13" lengthAdjust="spacing" textLength="13.73" x="570.5967" y="623.9658">ok</text><polygon fill="#181818" points="1361.6943,656.5195,1371.6943,660.5195,1361.6943,664.5195,1365.6943,660.5195" style="stroke:#181818;stroke-width:1.0;"/><line style="stroke:#181818;stroke-width:1.0;stroke-dasharray:2.0,2.0;" x1="535.1367" x2="1367.6943" y1="660.5195" y2="660.5195"/><text fill="#000000" font-family="sans-serif" font-size="13" font-weight="bold" lengthAdjust="spacing" textLength="14.46" x="542.1367" y="655.2568">17</text><text fill="#000000" font-family="sans-serif" font-size="13" lengthAdjust="spacing" textLength="66.479" x="560.5967" y="655.2568">create(201)</text><rect fill="#E2E2F0" height="32.6211" rx="2.5" ry="2.5" style="stroke:#181818;stroke-width:0.5;" width="117.4824" x="1373.6943" y="637.2285"/><text fill="#000000" font-family="sans-serif" font-size="14" lengthAdjust="spacing" textLength="103.4824" x="1380.6943" y="659.3359">result:HttpResult</text><polygon fill="#181818" points="214.7144,700.1406,204.7144,704.1406,214.7144,708.1406,210.7144,704.1406" style="stroke:#181818;stroke-width:1.0;"/><line style="stroke:#181818;stroke-width:1.0;stroke-dasharray:2.0,2.0;" x1="208.7144" x2="529.1367" y1="704.1406" y2="704.1406"/><text fill="#000000" font-family="sans-serif" font-size="13" font-weight="bold" lengthAdjust="spacing" textLength="14.46" x="220.7144" y="698.8779">18</text><text fill="#000000" font-family="sans-serif" font-size="13" lengthAdjust="spacing" textLength="31.7891" x="239.1743" y="698.8779">result</text><line style="stroke:#181818;stroke-width:1.0;" x1="203.7144" x2="250.7144" y1="730.4316" y2="730.4316"/><line style="stroke:#181818;stroke-width:1.0;" x1="250.7144" x2="250.7144" y1="730.4316" y2="743.4316"/><line style="stroke:#181818;stroke-width:1.0;" x1="209.7144" x2="250.7144" y1="743.4316" y2="743.4316"/><polygon fill="#181818" points="219.7144,739.4316,209.7144,743.4316,219.7144,747.4316,215.7144,743.4316" style="stroke:#181818;stroke-width:1.0;"/><text fill="#000000" font-family="sans-serif" font-size="13" font-weight="bold" lengthAdjust="spacing" textLength="14.46" x="215.7144" y="725.1689">19</text><text fill="#000000" font-family="sans-serif" font-size="13" lengthAdjust="spacing" textLength="150.9917" x="234.1743" y="725.1689">setHttpResult(resp, result)</text><line style="stroke:#181818;stroke-width:1.0;stroke-dasharray:2.0,2.0;" x1="208.7144" x2="250.7144" y1="784.7227" y2="784.7227"/><line style="stroke:#181818;stroke-width:1.0;stroke-dasharray:2.0,2.0;" x1="250.7144" x2="250.7144" y1="784.7227" y2="797.7227"/><line style="stroke:#181818;stroke-width:1.0;stroke-dasharray:2.0,2.0;" x1="203.7144" x2="250.7144" y1="797.7227" y2="797.7227"/><polygon fill="#181818" points="213.7144,793.7227,203.7144,797.7227,213.7144,801.7227,209.7144,797.7227" style="stroke:#181818;stroke-width:1.0;"/><text fill="#000000" font-family="sans-serif" font-size="13" font-weight="bold" lengthAdjust="spacing" textLength="14.46" x="215.7144" y="779.46">20</text><text fill="#000000" font-family="sans-serif" font-size="13" lengthAdjust="spacing" textLength="3.6118" x="234.1743" y="779.46">&#160;</text><polygon fill="#181818" points="66.1172,820.0137,56.1172,824.0137,66.1172,828.0137,62.1172,824.0137" style="stroke:#181818;stroke-width:1.0;"/><line style="stroke:#181818;stroke-width:1.0;stroke-dasharray:2.0,2.0;" x1="60.1172" x2="197.7144" y1="824.0137" y2="824.0137"/><text fill="#000000" font-family="sans-serif" font-size="13" font-weight="bold" lengthAdjust="spacing" textLength="14.46" x="72.1172" y="818.751">21</text><text fill="#000000" font-family="sans-serif" font-size="13" lengthAdjust="spacing" textLength="25.2891" x="90.5771" y="818.751">resp</text><!--SRC=[bPB1Rjim38RlUWgXbyP5ismx-b1W233arYB97a2pc5IOBAaIRQ1lFr6IBJiRXkvYaEBt_wOethyYkj3kTauBWqElFtMstmLu6y1qi9LANBtecHZGYWxLA12uDIatG_yJF6DEU5ITSb7Fxzh3-VoormeCtd4HU4tNtAimKeDlZtP0EEGa2Kxl0Q6_CJsXzR2t1htL4xX7hs-nfFqcUsLKG2-YAg7fPCq6yAFg83kVSfB_d-CrVObtj_wzFOApGL7uFPyaIOdN4X_Hx5v5YQRqfXUYCfjReEZMBGmQsqDyh6CAYnM5ZCqlivWsgp7VFfMnjlpb-NJUfH-6ZHGe6iQCfJSTmS-Gk63Cf5NcoeFjWGSSBXV6SftiQFWjZ_V2rEocin8UkH5z_5e79YhFYf9Enxldf66a8dLwZvPV8Qj3cVccOQb2I9afNr1rZX6SwjjgHnEV3BPFnVFXeUMTXpYS3TMR2fGxb4MOUokwMVMncnLLyatTBlxx_mwbixG6V_Gbf7psFvmawuGij3CMvpOAhVuAhIZxQwcc4SSVYt5MqSa_97EpyJ1tcbneBHSJ-FhvIrFBqvRbdLuirLG8W7NHuxC5zrZWPgOhlZogEv_itMy0]--></g></svg>