<svg xmlns="http://www.w3.org/2000/svg" xmlns:xlink="http://www.w3.org/1999/xlink" contentStyleType="text/css" height="1124px" preserveAspectRatio="none" style="width:1967px;height:1124px;background:#FFFFFF;" version="1.1" viewBox="0 0 1967 1124" width="1967px" zoomAndPan="magnify"><defs/><g><rect fill="#FFFFFF" height="1029.1289" style="stroke:#181818;stroke-width:1.0;" width="10" x="45.1172" y="48.6211"/><rect fill="#FFFFFF" height="996.8379" style="stroke:#181818;stroke-width:1.0;" width="10" x="166.978" y="71.9121"/><rect fill="#FFFFFF" height="42.291" style="stroke:#181818;stroke-width:1.0;" width="10" x="171.978" y="198.4453"/><rect fill="#FFFFFF" height="758.4316" style="stroke:#181818;stroke-width:1.0;" width="10" x="656.6016" y="279.0273"/><rect fill="#FFFFFF" height="42.291" style="stroke:#181818;stroke-width:1.0;" width="10" x="661.6016" y="956.877"/><rect fill="#FFFFFF" height="563.6465" style="stroke:#181818;stroke-width:1.0;" width="10" x="988.0239" y="353.9395"/><rect fill="#FFFFFF" height="137.4941" style="stroke:#181818;stroke-width:1.0;" width="10" x="1135.9038" y="385.2305"/><rect fill="#FFFFFF" height="74.9121" style="stroke:#181818;stroke-width:1.0;" width="10" x="1325.3613" y="554.0156"/><rect fill="#FFFFFF" height="182.4551" style="stroke:#181818;stroke-width:1.0;" width="10" x="1325.3613" y="660.2188"/><rect fill="#FFFFFF" height="42.291" style="stroke:#181818;stroke-width:1.0;" width="10" x="1330.3613" y="699.5098"/><rect fill="#FFFFFF" height="31.291" style="stroke:#181818;stroke-width:1.0;" width="10" x="1493.2988" y="416.5215"/><rect fill="#FFFFFF" height="31.291" style="stroke:#181818;stroke-width:1.0;" width="10" x="1663.1914" y="780.0918"/><line style="stroke:#181818;stroke-width:0.5;stroke-dasharray:5.0,5.0;" x1="50" x2="50" y1="38.6211" y2="1086.75"/><line style="stroke:#181818;stroke-width:0.5;stroke-dasharray:5.0,5.0;" x1="171.1401" x2="171.1401" y1="38.6211" y2="1086.75"/><line style="stroke:#181818;stroke-width:0.5;stroke-dasharray:5.0,5.0;" x1="357.5752" x2="357.5752" y1="111.7227" y2="1086.75"/><line style="stroke:#181818;stroke-width:0.5;stroke-dasharray:5.0,5.0;" x1="503.3955" x2="503.3955" y1="155.3438" y2="1086.75"/><line style="stroke:#181818;stroke-width:0.5;stroke-dasharray:5.0,5.0;" x1="661.1123" x2="661.1123" y1="38.6211" y2="1086.75"/><line style="stroke:#181818;stroke-width:0.5;stroke-dasharray:5.0,5.0;" x1="993.0034" x2="993.0034" y1="318.8379" y2="1086.75"/><line style="stroke:#181818;stroke-width:0.5;stroke-dasharray:5.0,5.0;" x1="1140.3867" x2="1140.3867" y1="38.6211" y2="1086.75"/><line style="stroke:#181818;stroke-width:0.5;stroke-dasharray:5.0,5.0;" x1="1330.1719" x2="1330.1719" y1="487.623" y2="1086.75"/><line style="stroke:#181818;stroke-width:0.5;stroke-dasharray:5.0,5.0;" x1="1497.5508" x2="1497.5508" y1="38.6211" y2="1086.75"/><line style="stroke:#181818;stroke-width:0.5;stroke-dasharray:5.0,5.0;" x1="1668.0469" x2="1668.0469" y1="38.6211" y2="1086.75"/><line style="stroke:#181818;stroke-width:0.5;stroke-dasharray:5.0,5.0;" x1="1792.3359" x2="1792.3359" y1="593.8262" y2="1086.75"/><line style="stroke:#181818;stroke-width:0.5;stroke-dasharray:5.0,5.0;" x1="1901.8115" x2="1901.8115" y1="882.4844" y2="1086.75"/><rect fill="#E2E2F0" height="32.6211" rx="2.5" ry="2.5" style="stroke:#181818;stroke-width:0.5;" width="90.2344" x="5" y="5"/><text fill="#000000" font-family="sans-serif" font-size="14" lengthAdjust="spacing" textLength="76.2344" x="12" y="27.1074">:HTTPClient</text><rect fill="#E2E2F0" height="32.6211" rx="2.5" ry="2.5" style="stroke:#181818;stroke-width:0.5;" width="90.2344" x="5" y="1085.75"/><text fill="#000000" font-family="sans-serif" font-size="14" lengthAdjust="spacing" textLength="76.2344" x="12" y="1107.8574">:HTTPClient</text><rect fill="#E2E2F0" height="32.6211" rx="2.5" ry="2.5" style="stroke:#181818;stroke-width:0.5;" width="95.6758" x="124.1401" y="5"/><text fill="#000000" font-family="sans-serif" font-size="14" lengthAdjust="spacing" textLength="81.6758" x="131.1401" y="27.1074">:HTTPServer</text><rect fill="#E2E2F0" height="32.6211" rx="2.5" ry="2.5" style="stroke:#181818;stroke-width:0.5;" width="95.6758" x="124.1401" y="1085.75"/><text fill="#000000" font-family="sans-serif" font-size="14" lengthAdjust="spacing" textLength="81.6758" x="131.1401" y="1107.8574">:HTTPServer</text><rect fill="#E2E2F0" height="32.6211" rx="2.5" ry="2.5" style="stroke:#181818;stroke-width:0.5;" width="126.8203" x="294.5752" y="1085.75"/><text fill="#000000" font-family="sans-serif" font-size="14" lengthAdjust="spacing" textLength="112.8203" x="301.5752" y="1107.8574">req:HTTPRequest</text><rect fill="#E2E2F0" height="32.6211" rx="2.5" ry="2.5" style="stroke:#181818;stroke-width:0.5;" width="144.7168" x="431.3955" y="1085.75"/><text fill="#000000" font-family="sans-serif" font-size="14" lengthAdjust="spacing" textLength="130.7168" x="438.3955" y="1107.8574">resp:HTTPResponse</text><rect fill="#E2E2F0" height="32.6211" rx="2.5" ry="2.5" style="stroke:#181818;stroke-width:0.5;" width="150.9785" x="586.1123" y="5"/><text fill="#000000" font-family="sans-serif" font-size="14" lengthAdjust="spacing" textLength="136.9785" x="593.1123" y="27.1074">handler:RouteHandler</text><rect fill="#E2E2F0" height="32.6211" rx="2.5" ry="2.5" style="stroke:#181818;stroke-width:0.5;" width="150.9785" x="586.1123" y="1085.75"/><text fill="#000000" font-family="sans-serif" font-size="14" lengthAdjust="spacing" textLength="136.9785" x="593.1123" y="1107.8574">handler:RouteHandler</text><rect fill="#E2E2F0" height="32.6211" rx="2.5" ry="2.5" style="stroke:#181818;stroke-width:0.5;" width="112.041" x="937.0034" y="1085.75"/><text fill="#000000" font-family="sans-serif" font-size="14" lengthAdjust="spacing" textLength="98.041" x="944.0034" y="1107.8574">:StoreController</text><rect fill="#E2E2F0" height="32.6211" rx="2.5" ry="2.5" style="stroke:#181818;stroke-width:0.5;" width="147.0342" x="1067.3867" y="5"/><text fill="#000000" font-family="sans-serif" font-size="14" lengthAdjust="spacing" textLength="133.0342" x="1074.3867" y="27.1074">:SystemAdministrator</text><rect fill="#E2E2F0" height="32.6211" rx="2.5" ry="2.5" style="stroke:#181818;stroke-width:0.5;" width="147.0342" x="1067.3867" y="1085.75"/><text fill="#000000" font-family="sans-serif" font-size="14" lengthAdjust="spacing" textLength="133.0342" x="1074.3867" y="1107.8574">:SystemAdministrator</text><rect fill="#E2E2F0" height="32.6211" rx="2.5" ry="2.5" style="stroke:#181818;stroke-width:0.5;" width="142.3789" x="1259.1719" y="1085.75"/><text fill="#000000" font-family="sans-serif" font-size="14" lengthAdjust="spacing" textLength="128.3789" x="1266.1719" y="1107.8574">service:StoreService</text><rect fill="#E2E2F0" height="32.6211" rx="2.5" ry="2.5" style="stroke:#181818;stroke-width:0.5;" width="173.4961" x="1411.5508" y="5"/><text fill="#000000" font-family="sans-serif" font-size="14" lengthAdjust="spacing" textLength="159.4961" x="1418.5508" y="27.1074">factory:RepositoryFactory</text><rect fill="#E2E2F0" height="32.6211" rx="2.5" ry="2.5" style="stroke:#181818;stroke-width:0.5;" width="173.4961" x="1411.5508" y="1085.75"/><text fill="#000000" font-family="sans-serif" font-size="14" lengthAdjust="spacing" textLength="159.4961" x="1418.5508" y="1107.8574">factory:RepositoryFactory</text><rect fill="#E2E2F0" height="32.6211" rx="2.5" ry="2.5" style="stroke:#181818;stroke-width:0.5;" width="146.2891" x="1595.0469" y="5"/><text fill="#000000" font-family="sans-serif" font-size="14" lengthAdjust="spacing" textLength="132.2891" x="1602.0469" y="27.1074">repo:StoreRepository</text><rect fill="#E2E2F0" height="32.6211" rx="2.5" ry="2.5" style="stroke:#181818;stroke-width:0.5;" width="146.2891" x="1595.0469" y="1085.75"/><text fill="#000000" font-family="sans-serif" font-size="14" lengthAdjust="spacing" textLength="132.2891" x="1602.0469" y="1107.8574">repo:StoreRepository</text><rect fill="#E2E2F0" height="32.6211" rx="2.5" ry="2.5" style="stroke:#181818;stroke-width:0.5;" width="82.4756" x="1751.3359" y="1085.75"/><text fill="#000000" font-family="sans-serif" font-size="14" lengthAdjust="spacing" textLength="68.4756" x="1758.3359" y="1107.8574">store:Store</text><rect fill="#E2E2F0" height="32.6211" rx="2.5" ry="2.5" style="stroke:#181818;stroke-width:0.5;" width="117.4824" x="1843.8115" y="1085.75"/><text fill="#000000" font-family="sans-serif" font-size="14" lengthAdjust="spacing" textLength="103.4824" x="1850.8115" y="1107.8574">result:HttpResult</text><rect fill="#FFFFFF" height="1029.1289" style="stroke:#181818;stroke-width:1.0;" width="10" x="45.1172" y="48.6211"/><rect fill="#FFFFFF" height="996.8379" style="stroke:#181818;stroke-width:1.0;" width="10" x="166.978" y="71.9121"/><rect fill="#FFFFFF" height="42.291" style="stroke:#181818;stroke-width:1.0;" width="10" x="171.978" y="198.4453"/><rect fill="#FFFFFF" height="758.4316" style="stroke:#181818;stroke-width:1.0;" width="10" x="656.6016" y="279.0273"/><rect fill="#FFFFFF" height="42.291" style="stroke:#181818;stroke-width:1.0;" width="10" x="661.6016" y="956.877"/><rect fill="#FFFFFF" height="563.6465" style="stroke:#181818;stroke-width:1.0;" width="10" x="988.0239" y="353.9395"/><rect fill="#FFFFFF" height="137.4941" style="stroke:#181818;stroke-width:1.0;" width="10" x="1135.9038" y="385.2305"/><rect fill="#FFFFFF" height="74.9121" style="stroke:#181818;stroke-width:1.0;" width="10" x="1325.3613" y="554.0156"/><rect fill="#FFFFFF" height="182.4551" style="stroke:#181818;stroke-width:1.0;" width="10" x="1325.3613" y="660.2188"/><rect fill="#FFFFFF" height="42.291" style="stroke:#181818;stroke-width:1.0;" width="10" x="1330.3613" y="699.5098"/><rect fill="#FFFFFF" height="31.291" style="stroke:#181818;stroke-width:1.0;" width="10" x="1493.2988" y="416.5215"/><rect fill="#FFFFFF" height="31.291" style="stroke:#181818;stroke-width:1.0;" width="10" x="1663.1914" y="780.0918"/><polygon fill="#181818" points="154.978,67.9121,164.978,71.9121,154.978,75.9121,158.978,71.9121" style="stroke:#181818;stroke-width:1.0;"/><line style="stroke:#181818;stroke-width:1.0;" x1="55.1172" x2="160.978" y1="71.9121" y2="71.9121"/><text fill="#000000" font-family="sans-serif" font-size="13" font-weight="bold" lengthAdjust="spacing" textLength="7.23" x="62.1172" y="66.6494">1</text><text fill="#000000" font-family="sans-serif" font-size="13" lengthAdjust="spacing" textLength="81.6309" x="73.3472" y="66.6494">POST(..., {...})</text><polygon fill="#181818" points="282.5752,99.2031,292.5752,103.2031,282.5752,107.2031,286.5752,103.2031" style="stroke:#181818;stroke-width:1.0;"/><line style="stroke:#181818;stroke-width:1.0;" x1="176.978" x2="288.5752" y1="103.2031" y2="103.2031"/><text fill="#000000" font-family="sans-serif" font-size="13" font-weight="bold" lengthAdjust="spacing" textLength="7.23" x="183.978" y="97.9404">2</text><text fill="#000000" font-family="sans-serif" font-size="13" lengthAdjust="spacing" textLength="82.3672" x="195.208" y="97.9404">create(..., {...})</text><rect fill="#E2E2F0" height="32.6211" rx="2.5" ry="2.5" style="stroke:#181818;stroke-width:0.5;" width="126.8203" x="294.5752" y="79.9121"/><text fill="#000000" font-family="sans-serif" font-size="14" lengthAdjust="spacing" textLength="112.8203" x="301.5752" y="102.0195">req:HTTPRequest</text><polygon fill="#181818" points="419.3955,142.8242,429.3955,146.8242,419.3955,150.8242,423.3955,146.8242" style="stroke:#181818;stroke-width:1.0;"/><line style="stroke:#181818;stroke-width:1.0;" x1="176.978" x2="425.3955" y1="146.8242" y2="146.8242"/><text fill="#000000" font-family="sans-serif" font-size="13" font-weight="bold" lengthAdjust="spacing" textLength="7.23" x="183.978" y="141.5615">3</text><text fill="#000000" font-family="sans-serif" font-size="13" lengthAdjust="spacing" textLength="66.479" x="195.208" y="141.5615">create(404)</text><rect fill="#E2E2F0" height="32.6211" rx="2.5" ry="2.5" style="stroke:#181818;stroke-width:0.5;" width="144.7168" x="431.3955" y="123.5332"/><text fill="#000000" font-family="sans-serif" font-size="14" lengthAdjust="spacing" textLength="130.7168" x="438.3955" y="145.6406">resp:HTTPResponse</text><line style="stroke:#181818;stroke-width:1.0;" x1="176.978" x2="223.978" y1="185.4453" y2="185.4453"/><line style="stroke:#181818;stroke-width:1.0;" x1="223.978" x2="223.978" y1="185.4453" y2="198.4453"/><line style="stroke:#181818;stroke-width:1.0;" x1="182.978" x2="223.978" y1="198.4453" y2="198.4453"/><polygon fill="#181818" points="192.978,194.4453,182.978,198.4453,192.978,202.4453,188.978,198.4453" style="stroke:#181818;stroke-width:1.0;"/><text fill="#000000" font-family="sans-serif" font-size="13" font-weight="bold" lengthAdjust="spacing" textLength="7.23" x="188.978" y="180.1826">4</text><text fill="#000000" font-family="sans-serif" font-size="13" lengthAdjust="spacing" textLength="93.9326" x="200.208" y="180.1826">findHandler(req)</text><line style="stroke:#181818;stroke-width:1.0;stroke-dasharray:2.0,2.0;" x1="181.978" x2="223.978" y1="239.7363" y2="239.7363"/><line style="stroke:#181818;stroke-width:1.0;stroke-dasharray:2.0,2.0;" x1="223.978" x2="223.978" y1="239.7363" y2="252.7363"/><line style="stroke:#181818;stroke-width:1.0;stroke-dasharray:2.0,2.0;" x1="176.978" x2="223.978" y1="252.7363" y2="252.7363"/><polygon fill="#181818" points="186.978,248.7363,176.978,252.7363,186.978,256.7363,182.978,252.7363" style="stroke:#181818;stroke-width:1.0;"/><text fill="#000000" font-family="sans-serif" font-size="13" font-weight="bold" lengthAdjust="spacing" textLength="7.23" x="188.978" y="234.4736">5</text><text fill="#000000" font-family="sans-serif" font-size="13" lengthAdjust="spacing" textLength="43.3672" x="200.208" y="234.4736">handler</text><polygon fill="#181818" points="644.6016,275.0273,654.6016,279.0273,644.6016,283.0273,648.6016,279.0273" style="stroke:#181818;stroke-width:1.0;"/><line style="stroke:#181818;stroke-width:1.0;" x1="176.978" x2="650.6016" y1="279.0273" y2="279.0273"/><text fill="#000000" font-family="sans-serif" font-size="13" font-weight="bold" lengthAdjust="spacing" textLength="7.23" x="183.978" y="273.7646">6</text><text fill="#000000" font-family="sans-serif" font-size="13" lengthAdjust="spacing" textLength="75.1372" x="195.208" y="273.7646">run(req,resp)</text><polygon fill="#181818" points="925.0034,306.3184,935.0034,310.3184,925.0034,314.3184,929.0034,310.3184" style="stroke:#181818;stroke-width:1.0;"/><line style="stroke:#181818;stroke-width:1.0;" x1="666.6016" x2="931.0034" y1="310.3184" y2="310.3184"/><text fill="#000000" font-family="sans-serif" font-size="13" font-weight="bold" lengthAdjust="spacing" textLength="7.23" x="673.6016" y="305.0557">7</text><text fill="#000000" font-family="sans-serif" font-size="13" lengthAdjust="spacing" textLength="55.6245" x="684.8315" y="305.0557">create(...)</text><rect fill="#E2E2F0" height="32.6211" rx="2.5" ry="2.5" style="stroke:#181818;stroke-width:0.5;" width="112.041" x="937.0034" y="287.0273"/><text fill="#000000" font-family="sans-serif" font-size="14" lengthAdjust="spacing" textLength="98.041" x="944.0034" y="309.1348">:StoreController</text><polygon fill="#181818" points="976.0239,349.9395,986.0239,353.9395,976.0239,357.9395,980.0239,353.9395" style="stroke:#181818;stroke-width:1.0;"/><line style="stroke:#181818;stroke-width:1.0;" x1="666.6016" x2="982.0239" y1="353.9395" y2="353.9395"/><text fill="#000000" font-family="sans-serif" font-size="13" font-weight="bold" lengthAdjust="spacing" textLength="7.23" x="673.6016" y="348.6768">8</text><text fill="#000000" font-family="sans-serif" font-size="13" lengthAdjust="spacing" textLength="291.1924" x="684.8315" y="348.6768">postStore(code, name, openingTime, closingTime)</text><polygon fill="#181818" points="1123.9038,381.2305,1133.9038,385.2305,1123.9038,389.2305,1127.9038,385.2305" style="stroke:#181818;stroke-width:1.0;"/><line style="stroke:#181818;stroke-width:1.0;" x1="998.0239" x2="1129.9038" y1="385.2305" y2="385.2305"/><text fill="#000000" font-family="sans-serif" font-size="13" font-weight="bold" lengthAdjust="spacing" textLength="7.23" x="1005.0239" y="379.9678">9</text><text fill="#000000" font-family="sans-serif" font-size="13" lengthAdjust="spacing" textLength="107.6499" x="1016.2539" y="379.9678">getStoresService()</text><polygon fill="#181818" points="1481.2988,412.5215,1491.2988,416.5215,1481.2988,420.5215,1485.2988,416.5215" style="stroke:#181818;stroke-width:1.0;"/><line style="stroke:#181818;stroke-width:1.0;" x1="1145.9038" x2="1487.2988" y1="416.5215" y2="416.5215"/><text fill="#000000" font-family="sans-serif" font-size="13" font-weight="bold" lengthAdjust="spacing" textLength="14.46" x="1152.9038" y="411.2588">10</text><text fill="#000000" font-family="sans-serif" font-size="13" lengthAdjust="spacing" textLength="126.439" x="1171.3638" y="411.2588">getStoresRepository()</text><polygon fill="#181818" points="1156.9038,443.8125,1146.9038,447.8125,1156.9038,451.8125,1152.9038,447.8125" style="stroke:#181818;stroke-width:1.0;"/><line style="stroke:#181818;stroke-width:1.0;stroke-dasharray:2.0,2.0;" x1="1150.9038" x2="1497.2988" y1="447.8125" y2="447.8125"/><text fill="#000000" font-family="sans-serif" font-size="13" font-weight="bold" lengthAdjust="spacing" textLength="14.46" x="1162.9038" y="442.5498">11</text><text fill="#000000" font-family="sans-serif" font-size="13" lengthAdjust="spacing" textLength="26.019" x="1181.3638" y="442.5498">repo</text><polygon fill="#181818" points="1247.1719,475.1035,1257.1719,479.1035,1247.1719,483.1035,1251.1719,479.1035" style="stroke:#181818;stroke-width:1.0;"/><line style="stroke:#181818;stroke-width:1.0;stroke-dasharray:2.0,2.0;" x1="1145.9038" x2="1253.1719" y1="479.1035" y2="479.1035"/><text fill="#000000" font-family="sans-serif" font-size="13" font-weight="bold" lengthAdjust="spacing" textLength="14.46" x="1152.9038" y="473.8408">12</text><text fill="#000000" font-family="sans-serif" font-size="13" lengthAdjust="spacing" textLength="70.8081" x="1171.3638" y="473.8408">create(repo)</text><rect fill="#E2E2F0" height="32.6211" rx="2.5" ry="2.5" style="stroke:#181818;stroke-width:0.5;" width="142.3789" x="1259.1719" y="455.8125"/><text fill="#000000" font-family="sans-serif" font-size="14" lengthAdjust="spacing" textLength="128.3789" x="1266.1719" y="477.9199">service:StoreService</text><polygon fill="#181818" points="1009.0239,518.7246,999.0239,522.7246,1009.0239,526.7246,1005.0239,522.7246" style="stroke:#181818;stroke-width:1.0;"/><line style="stroke:#181818;stroke-width:1.0;stroke-dasharray:2.0,2.0;" x1="1003.0239" x2="1139.9038" y1="522.7246" y2="522.7246"/><text fill="#000000" font-family="sans-serif" font-size="13" font-weight="bold" lengthAdjust="spacing" textLength="14.46" x="1015.0239" y="517.4619">13</text><text fill="#000000" font-family="sans-serif" font-size="13" lengthAdjust="spacing" textLength="41.1772" x="1033.4839" y="517.4619">service</text><polygon fill="#181818" points="1313.3613,550.0156,1323.3613,554.0156,1313.3613,558.0156,1317.3613,554.0156" style="stroke:#181818;stroke-width:1.0;"/><line style="stroke:#181818;stroke-width:1.0;" x1="998.0239" x2="1319.3613" y1="554.0156" y2="554.0156"/><text fill="#000000" font-family="sans-serif" font-size="13" font-weight="bold" lengthAdjust="spacing" textLength="14.46" x="1005.0239" y="548.7529">14</text><text fill="#000000" font-family="sans-serif" font-size="13" lengthAdjust="spacing" textLength="271.6797" x="1023.4839" y="548.7529">create(code, name, openingTime, closingTime)</text><polygon fill="#181818" points="1739.3359,581.3066,1749.3359,585.3066,1739.3359,589.3066,1743.3359,585.3066" style="stroke:#181818;stroke-width:1.0;"/><line style="stroke:#181818;stroke-width:1.0;stroke-dasharray:2.0,2.0;" x1="1335.3613" x2="1745.3359" y1="585.3066" y2="585.3066"/><text fill="#000000" font-family="sans-serif" font-size="13" font-weight="bold" lengthAdjust="spacing" textLength="14.46" x="1342.3613" y="580.0439">15</text><text fill="#000000" font-family="sans-serif" font-size="13" lengthAdjust="spacing" textLength="271.6797" x="1360.8213" y="580.0439">create(code, name, openingTime, closingTime)</text><rect fill="#E2E2F0" height="32.6211" rx="2.5" ry="2.5" style="stroke:#181818;stroke-width:0.5;" width="82.4756" x="1751.3359" y="562.0156"/><text fill="#000000" font-family="sans-serif" font-size="14" lengthAdjust="spacing" textLength="68.4756" x="1758.3359" y="584.123">store:Store</text><polygon fill="#181818" points="1009.0239,624.9277,999.0239,628.9277,1009.0239,632.9277,1005.0239,628.9277" style="stroke:#181818;stroke-width:1.0;"/><line style="stroke:#181818;stroke-width:1.0;stroke-dasharray:2.0,2.0;" x1="1003.0239" x2="1329.3613" y1="628.9277" y2="628.9277"/><text fill="#000000" font-family="sans-serif" font-size="13" font-weight="bold" lengthAdjust="spacing" textLength="14.46" x="1015.0239" y="623.665">16</text><text fill="#000000" font-family="sans-serif" font-size="13" lengthAdjust="spacing" textLength="28.9009" x="1033.4839" y="623.665">store</text><polygon fill="#181818" points="1313.3613,656.2188,1323.3613,660.2188,1313.3613,664.2188,1317.3613,660.2188" style="stroke:#181818;stroke-width:1.0;"/><line style="stroke:#181818;stroke-width:1.0;" x1="998.0239" x2="1319.3613" y1="660.2188" y2="660.2188"/><text fill="#000000" font-family="sans-serif" font-size="13" font-weight="bold" lengthAdjust="spacing" textLength="14.46" x="1005.0239" y="654.9561">17</text><text fill="#000000" font-family="sans-serif" font-size="13" lengthAdjust="spacing" textLength="115.6099" x="1023.4839" y="654.9561">addOrUpdate(store)</text><line style="stroke:#181818;stroke-width:1.0;" x1="1335.3613" x2="1382.3613" y1="686.5098" y2="686.5098"/><line style="stroke:#181818;stroke-width:1.0;" x1="1382.3613" x2="1382.3613" y1="686.5098" y2="699.5098"/><line style="stroke:#181818;stroke-width:1.0;" x1="1341.3613" x2="1382.3613" y1="699.5098" y2="699.5098"/><polygon fill="#181818" points="1351.3613,695.5098,1341.3613,699.5098,1351.3613,703.5098,1347.3613,699.5098" style="stroke:#181818;stroke-width:1.0;"/><text fill="#000000" font-family="sans-serif" font-size="13" font-weight="bold" lengthAdjust="spacing" textLength="14.46" x="1347.3613" y="681.2471">18</text><text fill="#000000" font-family="sans-serif" font-size="13" lengthAdjust="spacing" textLength="82.3672" x="1365.8213" y="681.2471">validate(store)</text><line style="stroke:#181818;stroke-width:1.0;stroke-dasharray:2.0,2.0;" x1="1340.3613" x2="1382.3613" y1="740.8008" y2="740.8008"/><line style="stroke:#181818;stroke-width:1.0;stroke-dasharray:2.0,2.0;" x1="1382.3613" x2="1382.3613" y1="740.8008" y2="753.8008"/><line style="stroke:#181818;stroke-width:1.0;stroke-dasharray:2.0,2.0;" x1="1335.3613" x2="1382.3613" y1="753.8008" y2="753.8008"/><polygon fill="#181818" points="1345.3613,749.8008,1335.3613,753.8008,1345.3613,757.8008,1341.3613,753.8008" style="stroke:#181818;stroke-width:1.0;"/><text fill="#000000" font-family="sans-serif" font-size="13" font-weight="bold" lengthAdjust="spacing" textLength="14.46" x="1347.3613" y="735.5381">19</text><text fill="#000000" font-family="sans-serif" font-size="13" lengthAdjust="spacing" textLength="13.73" x="1365.8213" y="735.5381">ok</text><polygon fill="#181818" points="1651.1914,776.0918,1661.1914,780.0918,1651.1914,784.0918,1655.1914,780.0918" style="stroke:#181818;stroke-width:1.0;"/><line style="stroke:#181818;stroke-width:1.0;" x1="1335.3613" x2="1657.1914" y1="780.0918" y2="780.0918"/><text fill="#000000" font-family="sans-serif" font-size="13" font-weight="bold" lengthAdjust="spacing" textLength="14.46" x="1342.3613" y="774.8291">20</text><text fill="#000000" font-family="sans-serif" font-size="13" lengthAdjust="spacing" textLength="65.019" x="1360.8213" y="774.8291">save(store)</text><polygon fill="#181818" points="1346.3613,807.3828,1336.3613,811.3828,1346.3613,815.3828,1342.3613,811.3828" style="stroke:#181818;stroke-width:1.0;"/><line style="stroke:#181818;stroke-width:1.0;stroke-dasharray:2.0,2.0;" x1="1340.3613" x2="1667.1914" y1="811.3828" y2="811.3828"/><text fill="#000000" font-family="sans-serif" font-size="13" font-weight="bold" lengthAdjust="spacing" textLength="14.46" x="1352.3613" y="806.1201">21</text><text fill="#000000" font-family="sans-serif" font-size="13" lengthAdjust="spacing" textLength="13.73" x="1370.8213" y="806.1201">ok</text><polygon fill="#181818" points="1009.0239,838.6738,999.0239,842.6738,1009.0239,846.6738,1005.0239,842.6738" style="stroke:#181818;stroke-width:1.0;"/><line style="stroke:#181818;stroke-width:1.0;stroke-dasharray:2.0,2.0;" x1="1003.0239" x2="1329.3613" y1="842.6738" y2="842.6738"/><text fill="#000000" font-family="sans-serif" font-size="13" font-weight="bold" lengthAdjust="spacing" textLength="14.46" x="1015.0239" y="837.4111">22</text><text fill="#000000" font-family="sans-serif" font-size="13" lengthAdjust="spacing" textLength="13.73" x="1033.4839" y="837.4111">ok</text><polygon fill="#181818" points="1831.8115,869.9648,1841.8115,873.9648,1831.8115,877.9648,1835.8115,873.9648" style="stroke:#181818;stroke-width:1.0;"/><line style="stroke:#181818;stroke-width:1.0;stroke-dasharray:2.0,2.0;" x1="998.0239" x2="1837.8115" y1="873.9648" y2="873.9648"/><text fill="#000000" font-family="sans-serif" font-size="13" font-weight="bold" lengthAdjust="spacing" textLength="14.46" x="1005.0239" y="868.7021">23</text><text fill="#000000" font-family="sans-serif" font-size="13" lengthAdjust="spacing" textLength="66.479" x="1023.4839" y="868.7021">create(201)</text><rect fill="#E2E2F0" height="32.6211" rx="2.5" ry="2.5" style="stroke:#181818;stroke-width:0.5;" width="117.4824" x="1843.8115" y="850.6738"/><text fill="#000000" font-family="sans-serif" font-size="14" lengthAdjust="spacing" textLength="103.4824" x="1850.8115" y="872.7813">result:HttpResult</text><polygon fill="#181818" points="677.6016,913.5859,667.6016,917.5859,677.6016,921.5859,673.6016,917.5859" style="stroke:#181818;stroke-width:1.0;"/><line style="stroke:#181818;stroke-width:1.0;stroke-dasharray:2.0,2.0;" x1="671.6016" x2="992.0239" y1="917.5859" y2="917.5859"/><text fill="#000000" font-family="sans-serif" font-size="13" font-weight="bold" lengthAdjust="spacing" textLength="14.46" x="683.6016" y="912.3232">24</text><text fill="#000000" font-family="sans-serif" font-size="13" lengthAdjust="spacing" textLength="31.7891" x="702.0615" y="912.3232">result</text><line style="stroke:#181818;stroke-width:1.0;" x1="666.6016" x2="713.6016" y1="943.877" y2="943.877"/><line style="stroke:#181818;stroke-width:1.0;" x1="713.6016" x2="713.6016" y1="943.877" y2="956.877"/><line style="stroke:#181818;stroke-width:1.0;" x1="672.6016" x2="713.6016" y1="956.877" y2="956.877"/><polygon fill="#181818" points="682.6016,952.877,672.6016,956.877,682.6016,960.877,678.6016,956.877" style="stroke:#181818;stroke-width:1.0;"/><text fill="#000000" font-family="sans-serif" font-size="13" font-weight="bold" lengthAdjust="spacing" textLength="14.46" x="678.6016" y="938.6143">25</text><text fill="#000000" font-family="sans-serif" font-size="13" lengthAdjust="spacing" textLength="150.9917" x="697.0615" y="938.6143">setHttpResult(resp, result)</text><line style="stroke:#181818;stroke-width:1.0;stroke-dasharray:2.0,2.0;" x1="671.6016" x2="713.6016" y1="998.168" y2="998.168"/><line style="stroke:#181818;stroke-width:1.0;stroke-dasharray:2.0,2.0;" x1="713.6016" x2="713.6016" y1="998.168" y2="1011.168"/><line style="stroke:#181818;stroke-width:1.0;stroke-dasharray:2.0,2.0;" x1="666.6016" x2="713.6016" y1="1011.168" y2="1011.168"/><polygon fill="#181818" points="676.6016,1007.168,666.6016,1011.168,676.6016,1015.168,672.6016,1011.168" style="stroke:#181818;stroke-width:1.0;"/><text fill="#000000" font-family="sans-serif" font-size="13" font-weight="bold" lengthAdjust="spacing" textLength="14.46" x="678.6016" y="992.9053">26</text><text fill="#000000" font-family="sans-serif" font-size="13" lengthAdjust="spacing" textLength="3.6118" x="697.0615" y="992.9053">&#160;</text><polygon fill="#181818" points="187.978,1033.459,177.978,1037.459,187.978,1041.459,183.978,1037.459" style="stroke:#181818;stroke-width:1.0;"/><line style="stroke:#181818;stroke-width:1.0;stroke-dasharray:2.0,2.0;" x1="181.978" x2="660.6016" y1="1037.459" y2="1037.459"/><text fill="#000000" font-family="sans-serif" font-size="13" font-weight="bold" lengthAdjust="spacing" textLength="14.46" x="193.978" y="1032.1963">27</text><text fill="#000000" font-family="sans-serif" font-size="13" lengthAdjust="spacing" textLength="25.2891" x="212.438" y="1032.1963">resp</text><polygon fill="#181818" points="66.1172,1064.75,56.1172,1068.75,66.1172,1072.75,62.1172,1068.75" style="stroke:#181818;stroke-width:1.0;"/><line style="stroke:#181818;stroke-width:1.0;stroke-dasharray:2.0,2.0;" x1="60.1172" x2="170.978" y1="1068.75" y2="1068.75"/><text fill="#000000" font-family="sans-serif" font-size="13" font-weight="bold" lengthAdjust="spacing" textLength="14.46" x="72.1172" y="1063.4873">28</text><text fill="#000000" font-family="sans-serif" font-size="13" lengthAdjust="spacing" textLength="25.2891" x="90.5771" y="1063.4873">resp</text><!--SRC=[bPFFRjmW4CRlF0NAfNQqVz8g9mwHgfMglINQtJu0jISRL1i8u9MYgkzU1h31pYfjBnR3_Bxnm7nyUd5EMxRTwevBD_JTfb7zriBh0BA1TIlusV2UyC4ftZXnuGweaY6MG_y3326Q6oSQeRsUth3zwVIqwmH8TqEvfJcymXt1NC1CN0pdd87NW1wm8vjhfdW9MvregvMqKE1nOyw_SDbsODX13GxsCGYIuvjrq2ywFZfbOAUaCweRmPqptH8BsgzjBwImpd2l2cZOcRFM7rWq42iVOn3_7zTp-jaFG9atTW2jhC3bjxWJ96czl12jOlKi2ZI6YrwGYcni0LVlhdVe7Djxnnp2CfN29I6JFOgHaxocwuTYo8m-FHvFrMQpMT5V_lkx9Zavecd6jxUCDWPywR_oSSY5uFxk_XevDl4iP9lcNdcdpT45cyoog1QdpQWP95POeGLhGk8s0kYG-GdgHPPHFneNxhjgL0ihAddllqg35F9y4XWqdHzV36g2AbG7Ip5wXgYsoJPLJK86aMGBMb3P2XuSy-jS3aqp5bW_f9h54J1VPo2T8NbvwYtf9jM_dIofGjtGRV7V_w-GEWjEVjSNRzj7yrstM3eWXNR2_BrTU2UkGZDA_IpLUCN-n_mogN3d0ydKhD-CdOOg-BAA6_XozxdEwSbwyG5cKuq92ow_rGgTkKfmjc36owtIzwYxzYxYiuxvFm00]--></g></svg>