<svg xmlns="http://www.w3.org/2000/svg" xmlns:xlink="http://www.w3.org/1999/xlink" contentStyleType="text/css" height="633px" preserveAspectRatio="none" style="width:1034px;height:633px;background:#FFFFFF;" version="1.1" viewBox="0 0 1034 633" width="1034px" zoomAndPan="magnify"><title>Sequence Diagram for US30 - Request to List a Property</title><defs/><g><text fill="#000000" font-family="sans-serif" font-size="14" font-weight="bold" lengthAdjust="spacing" textLength="374.2061" x="331.3152" y="30.1074">Sequence Diagram for US30 - Request to List a Property</text><rect fill="#FFFFFF" height="408.123" style="stroke:#181818;stroke-width:1.0;" width="10" x="35.8965" y="133.2422"/><rect fill="#FFFFFF" height="289.6191" style="stroke:#181818;stroke-width:1.0;" width="10" x="303.0361" y="156.5332"/><rect fill="#FFFFFF" height="306.25" style="stroke:#181818;stroke-width:1.0;" width="10" x="560.0259" y="187.8242"/><rect fill="#FFFFFF" height="187.7461" style="stroke:#181818;stroke-width:1.0;" width="10" x="565.0259" y="227.1152"/><rect fill="#FFFFFF" height="93.873" style="stroke:#181818;stroke-width:1.0;" width="10" x="811.1865" y="289.6973"/><rect fill="#FFFFFF" height="31.291" style="stroke:#181818;stroke-width:1.0;" width="10" x="983.6572" y="320.9883"/><rect fill="none" height="286.25" style="stroke:#000000;stroke-width:1.5;" width="1017.8364" x="10" y="247.1152"/><line style="stroke:#181818;stroke-width:0.5;stroke-dasharray:5.0,5.0;" x1="40" x2="40" y1="123.2422" y2="550.3652"/><line style="stroke:#181818;stroke-width:0.5;stroke-dasharray:5.0,5.0;" x1="307.9019" x2="307.9019" y1="123.2422" y2="550.3652"/><line style="stroke:#181818;stroke-width:0.5;stroke-dasharray:5.0,5.0;" x1="564.2813" x2="564.2813" y1="123.2422" y2="550.3652"/><line style="stroke:#181818;stroke-width:0.5;stroke-dasharray:5.0,5.0;" x1="815.3799" x2="815.3799" y1="123.2422" y2="550.3652"/><line style="stroke:#181818;stroke-width:0.5;stroke-dasharray:5.0,5.0;" x1="988.478" x2="988.478" y1="123.2422" y2="550.3652"/><text fill="#000000" font-family="sans-serif" font-size="14" lengthAdjust="spacing" textLength="35.793" x="20" y="119.7285">Client</text><ellipse cx="40.8965" cy="53.1211" fill="#E2E2F0" rx="8" ry="8" style="stroke:#181818;stroke-width:0.5;"/><path d="M40.8965,61.1211 L40.8965,88.1211 M27.8965,69.1211 L53.8965,69.1211 M40.8965,88.1211 L27.8965,103.1211 M40.8965,88.1211 L53.8965,103.1211 " fill="none" style="stroke:#181818;stroke-width:0.5;"/><text fill="#000000" font-family="sans-serif" font-size="14" lengthAdjust="spacing" textLength="35.793" x="20" y="564.4727">Client</text><ellipse cx="40.8965" cy="576.4863" fill="#E2E2F0" rx="8" ry="8" style="stroke:#181818;stroke-width:0.5;"/><path d="M40.8965,584.4863 L40.8965,611.4863 M27.8965,592.4863 L53.8965,592.4863 M40.8965,611.4863 L27.8965,626.4863 M40.8965,611.4863 L53.8965,626.4863 " fill="none" style="stroke:#181818;stroke-width:0.5;"/><rect fill="#E2E2F0" height="32.6211" rx="2.5" ry="2.5" style="stroke:#181818;stroke-width:0.5;" width="132.2686" x="241.9019" y="89.6211"/><text fill="#000000" font-family="sans-serif" font-size="14" lengthAdjust="spacing" textLength="118.2686" x="248.9019" y="111.7285">:PropertyTypeView</text><rect fill="#E2E2F0" height="32.6211" rx="2.5" ry="2.5" style="stroke:#181818;stroke-width:0.5;" width="132.2686" x="241.9019" y="549.3652"/><text fill="#000000" font-family="sans-serif" font-size="14" lengthAdjust="spacing" textLength="118.2686" x="248.9019" y="571.4727">:PropertyTypeView</text><rect fill="#E2E2F0" height="32.6211" rx="2.5" ry="2.5" style="stroke:#181818;stroke-width:0.5;" width="131.4893" x="499.2813" y="89.6211"/><text fill="#000000" font-family="sans-serif" font-size="14" lengthAdjust="spacing" textLength="117.4893" x="506.2813" y="111.7285">:PropertyController</text><rect fill="#E2E2F0" height="32.6211" rx="2.5" ry="2.5" style="stroke:#181818;stroke-width:0.5;" width="131.4893" x="499.2813" y="549.3652"/><text fill="#000000" font-family="sans-serif" font-size="14" lengthAdjust="spacing" textLength="117.4893" x="506.2813" y="571.4727">:PropertyController</text><rect fill="#E2E2F0" height="32.6211" rx="2.5" ry="2.5" style="stroke:#181818;stroke-width:0.5;" width="113.6133" x="759.3799" y="89.6211"/><text fill="#000000" font-family="sans-serif" font-size="14" lengthAdjust="spacing" textLength="99.6133" x="766.3799" y="111.7285">:ListingManager</text><rect fill="#E2E2F0" height="32.6211" rx="2.5" ry="2.5" style="stroke:#181818;stroke-width:0.5;" width="113.6133" x="759.3799" y="549.3652"/><text fill="#000000" font-family="sans-serif" font-size="14" lengthAdjust="spacing" textLength="99.6133" x="766.3799" y="571.4727">:ListingManager</text><rect fill="#E2E2F0" height="32.6211" rx="2.5" ry="2.5" style="stroke:#181818;stroke-width:0.5;" width="58.3584" x="959.478" y="89.6211"/><text fill="#000000" font-family="sans-serif" font-size="14" lengthAdjust="spacing" textLength="44.3584" x="966.478" y="111.7285">:Listing</text><rect fill="#E2E2F0" height="32.6211" rx="2.5" ry="2.5" style="stroke:#181818;stroke-width:0.5;" width="58.3584" x="959.478" y="549.3652"/><text fill="#000000" font-family="sans-serif" font-size="14" lengthAdjust="spacing" textLength="44.3584" x="966.478" y="571.4727">:Listing</text><rect fill="#FFFFFF" height="408.123" style="stroke:#181818;stroke-width:1.0;" width="10" x="35.8965" y="133.2422"/><rect fill="#FFFFFF" height="289.6191" style="stroke:#181818;stroke-width:1.0;" width="10" x="303.0361" y="156.5332"/><rect fill="#FFFFFF" height="306.25" style="stroke:#181818;stroke-width:1.0;" width="10" x="560.0259" y="187.8242"/><rect fill="#FFFFFF" height="187.7461" style="stroke:#181818;stroke-width:1.0;" width="10" x="565.0259" y="227.1152"/><rect fill="#FFFFFF" height="93.873" style="stroke:#181818;stroke-width:1.0;" width="10" x="811.1865" y="289.6973"/><rect fill="#FFFFFF" height="31.291" style="stroke:#181818;stroke-width:1.0;" width="10" x="983.6572" y="320.9883"/><polygon fill="#181818" points="291.0361,152.5332,301.0361,156.5332,291.0361,160.5332,295.0361,156.5332" style="stroke:#181818;stroke-width:1.0;"/><line style="stroke:#181818;stroke-width:1.0;" x1="45.8965" x2="297.0361" y1="156.5332" y2="156.5332"/><text fill="#000000" font-family="sans-serif" font-size="13" font-weight="bold" lengthAdjust="spacing" textLength="7.23" x="52.8965" y="151.2705">1</text><text fill="#000000" font-family="sans-serif" font-size="13" lengthAdjust="spacing" textLength="226.9097" x="64.1265" y="151.2705">Selects property type and inputs details</text><polygon fill="#181818" points="548.0259,183.8242,558.0259,187.8242,548.0259,191.8242,552.0259,187.8242" style="stroke:#181818;stroke-width:1.0;"/><line style="stroke:#181818;stroke-width:1.0;" x1="313.0361" x2="554.0259" y1="187.8242" y2="187.8242"/><text fill="#000000" font-family="sans-serif" font-size="13" font-weight="bold" lengthAdjust="spacing" textLength="7.23" x="320.0361" y="182.5615">2</text><text fill="#000000" font-family="sans-serif" font-size="13" lengthAdjust="spacing" textLength="216.7598" x="331.2661" y="182.5615">submitListing(propertyType, distance)</text><line style="stroke:#181818;stroke-width:1.0;" x1="570.0259" x2="617.0259" y1="214.1152" y2="214.1152"/><line style="stroke:#181818;stroke-width:1.0;" x1="617.0259" x2="617.0259" y1="214.1152" y2="227.1152"/><line style="stroke:#181818;stroke-width:1.0;" x1="576.0259" x2="617.0259" y1="227.1152" y2="227.1152"/><polygon fill="#181818" points="586.0259,223.1152,576.0259,227.1152,586.0259,231.1152,582.0259,227.1152" style="stroke:#181818;stroke-width:1.0;"/><text fill="#000000" font-family="sans-serif" font-size="13" font-weight="bold" lengthAdjust="spacing" textLength="7.23" x="582.0259" y="208.8525">3</text><text fill="#000000" font-family="sans-serif" font-size="13" lengthAdjust="spacing" textLength="158.9707" x="593.2559" y="208.8525">validateInput(propertyType)</text><path d="M10,247.1152 L70.1709,247.1152 L70.1709,256.4063 L60.1709,266.4063 L10,266.4063 L10,247.1152 " fill="#EEEEEE" style="stroke:#000000;stroke-width:1.5;"/><rect fill="none" height="286.25" style="stroke:#000000;stroke-width:1.5;" width="1017.8364" x="10" y="247.1152"/><text fill="#000000" font-family="sans-serif" font-size="13" font-weight="bold" lengthAdjust="spacing" textLength="15.1709" x="25" y="262.1436">alt</text><text fill="#000000" font-family="sans-serif" font-size="11" font-weight="bold" lengthAdjust="spacing" textLength="63.5454" x="85.1709" y="260.9854">[Valid input]</text><polygon fill="#181818" points="799.1865,285.6973,809.1865,289.6973,799.1865,293.6973,803.1865,289.6973" style="stroke:#181818;stroke-width:1.0;"/><line style="stroke:#181818;stroke-width:1.0;" x1="575.0259" x2="805.1865" y1="289.6973" y2="289.6973"/><text fill="#000000" font-family="sans-serif" font-size="13" font-weight="bold" lengthAdjust="spacing" textLength="7.23" x="582.0259" y="284.4346">4</text><text fill="#000000" font-family="sans-serif" font-size="13" lengthAdjust="spacing" textLength="205.9307" x="593.2559" y="284.4346">saveListing(propertyType, distance)</text><polygon fill="#181818" points="971.6572,316.9883,981.6572,320.9883,971.6572,324.9883,975.6572,320.9883" style="stroke:#181818;stroke-width:1.0;"/><line style="stroke:#181818;stroke-width:1.0;" x1="821.1865" x2="977.6572" y1="320.9883" y2="320.9883"/><text fill="#000000" font-family="sans-serif" font-size="13" font-weight="bold" lengthAdjust="spacing" textLength="7.23" x="828.1865" y="315.7256">5</text><text fill="#000000" font-family="sans-serif" font-size="13" lengthAdjust="spacing" textLength="132.2407" x="839.4165" y="315.7256">Create Listing instance</text><polygon fill="#181818" points="832.1865,348.2793,822.1865,352.2793,832.1865,356.2793,828.1865,352.2793" style="stroke:#181818;stroke-width:1.0;"/><line style="stroke:#181818;stroke-width:1.0;stroke-dasharray:2.0,2.0;" x1="826.1865" x2="987.6572" y1="352.2793" y2="352.2793"/><text fill="#000000" font-family="sans-serif" font-size="13" font-weight="bold" lengthAdjust="spacing" textLength="7.23" x="838.1865" y="347.0166">6</text><text fill="#000000" font-family="sans-serif" font-size="13" lengthAdjust="spacing" textLength="84.5508" x="849.4165" y="347.0166">Listing created</text><polygon fill="#181818" points="586.0259,379.5703,576.0259,383.5703,586.0259,387.5703,582.0259,383.5703" style="stroke:#181818;stroke-width:1.0;"/><line style="stroke:#181818;stroke-width:1.0;stroke-dasharray:2.0,2.0;" x1="580.0259" x2="815.1865" y1="383.5703" y2="383.5703"/><text fill="#000000" font-family="sans-serif" font-size="13" font-weight="bold" lengthAdjust="spacing" textLength="7.23" x="592.0259" y="378.3076">7</text><text fill="#000000" font-family="sans-serif" font-size="13" lengthAdjust="spacing" textLength="93.9326" x="603.2559" y="378.3076">Save successful</text><polygon fill="#181818" points="324.0361,410.8613,314.0361,414.8613,324.0361,418.8613,320.0361,414.8613" style="stroke:#181818;stroke-width:1.0;"/><line style="stroke:#181818;stroke-width:1.0;stroke-dasharray:2.0,2.0;" x1="318.0361" x2="559.0259" y1="414.8613" y2="414.8613"/><text fill="#000000" font-family="sans-serif" font-size="13" font-weight="bold" lengthAdjust="spacing" textLength="7.23" x="330.0361" y="409.5986">8</text><text fill="#000000" font-family="sans-serif" font-size="13" lengthAdjust="spacing" textLength="130.7871" x="341.2661" y="409.5986">Confirmation response</text><polygon fill="#181818" points="56.8965,442.1523,46.8965,446.1523,56.8965,450.1523,52.8965,446.1523" style="stroke:#181818;stroke-width:1.0;"/><line style="stroke:#181818;stroke-width:1.0;stroke-dasharray:2.0,2.0;" x1="50.8965" x2="307.0361" y1="446.1523" y2="446.1523"/><text fill="#000000" font-family="sans-serif" font-size="13" font-weight="bold" lengthAdjust="spacing" textLength="7.23" x="62.8965" y="440.8896">9</text><text fill="#000000" font-family="sans-serif" font-size="13" lengthAdjust="spacing" textLength="158.2407" x="74.1265" y="440.8896">Listing successfully created</text><line style="stroke:#000000;stroke-width:1.0;stroke-dasharray:2.0,2.0;" x1="10" x2="1027.8364" y1="455.1523" y2="455.1523"/><text fill="#000000" font-family="sans-serif" font-size="11" font-weight="bold" lengthAdjust="spacing" textLength="72.1016" x="15" y="467.0225">[Invalid input]</text><polygon fill="#181818" points="319.0361,490.0742,309.0361,494.0742,319.0361,498.0742,315.0361,494.0742" style="stroke:#181818;stroke-width:1.0;"/><line style="stroke:#181818;stroke-width:1.0;stroke-dasharray:2.0,2.0;" x1="313.0361" x2="564.0259" y1="494.0742" y2="494.0742"/><text fill="#000000" font-family="sans-serif" font-size="13" font-weight="bold" lengthAdjust="spacing" textLength="14.46" x="325.0361" y="488.8115">10</text><text fill="#000000" font-family="sans-serif" font-size="13" lengthAdjust="spacing" textLength="85.979" x="343.4961" y="488.8115">Error response</text><polygon fill="#181818" points="56.8965,521.3652,46.8965,525.3652,56.8965,529.3652,52.8965,525.3652" style="stroke:#181818;stroke-width:1.0;"/><line style="stroke:#181818;stroke-width:1.0;stroke-dasharray:2.0,2.0;" x1="50.8965" x2="307.0361" y1="525.3652" y2="525.3652"/><text fill="#000000" font-family="sans-serif" font-size="13" font-weight="bold" lengthAdjust="spacing" textLength="14.46" x="62.8965" y="520.1025">11</text><text fill="#000000" font-family="sans-serif" font-size="13" lengthAdjust="spacing" textLength="130.0444" x="81.3564" y="520.1025">Display error message</text><!--SRC=[XL9DJyCm3BtdLrWxCOb9IDnwuB9nc0GIOcntB_McI6aI4hTe_nudpRxGW1vQntxFxzaf6xO4A_hioMc2XS5zn0vsFi9wzVW0CtZFjSJ07bwCV17UeWyK-Q0KzknHincG2RmhPzTtMufIqonD9dDhoF44CC4wIJvWPADDGCSmQOwjFWw1DeQ-2Yu7l-3ctd7qrb8io3b7-mEPFHgtVqM7-uggyMrWGTIuc1w7ALvLViFigJXgP4kMD2S8rGomk0PqBHWNUYcqn6XiKXcUQTbU0wdVTeQhn5sucFWUMicYB7wgClRC6T2QLdmiS-ChpbIXPTZa-YYhG9uZkuugeZZGVvAPM0cPM-4Dp2Fb5TIpg8o4WZycPvTYnwGknFQwyMccbLYIPMXDAUrwU-7xj66vtfs97RBn3YAbu5qQTSUL2Z1VoLdntCuUJl9a4y7I3JTtTD9wZb7-pxz45YO5YmUWWkn4HoPIv5hr3G00]--></g></svg>