<svg xmlns="http://www.w3.org/2000/svg" xmlns:xlink="http://www.w3.org/1999/xlink" contentStyleType="text/css" height="995px" preserveAspectRatio="none" style="width:1347px;height:995px;background:#FFFFFF;" version="1.1" viewBox="0 0 1347 995" width="1347px" zoomAndPan="magnify"><defs/><g><rect fill="#FFFFFF" height="809.2754" style="stroke:#181818;stroke-width:1.0;" width="10" x="21.293" y="93.6211"/><rect fill="#FFFFFF" height="31.291" style="stroke:#181818;stroke-width:1.0;" width="10" x="237.7827" y="116.9121"/><rect fill="#FFFFFF" height="375.4922" style="stroke:#181818;stroke-width:1.0;" width="10" x="237.7827" y="179.4941"/><rect fill="#FFFFFF" height="307.6191" style="stroke:#181818;stroke-width:1.0;" width="10" x="237.7827" y="586.2773"/><rect fill="#FFFFFF" height="312.9102" style="stroke:#181818;stroke-width:1.0;" width="10" x="528.0405" y="210.7852"/><rect fill="#FFFFFF" height="245.0371" style="stroke:#181818;stroke-width:1.0;" width="10" x="528.0405" y="617.5684"/><rect fill="#FFFFFF" height="93.873" style="stroke:#181818;stroke-width:1.0;" width="10" x="671.5786" y="242.0762"/><rect fill="#FFFFFF" height="93.873" style="stroke:#181818;stroke-width:1.0;" width="10" x="801.6802" y="398.5313"/><rect fill="#FFFFFF" height="182.4551" style="stroke:#181818;stroke-width:1.0;" width="10" x="801.6802" y="648.8594"/><rect fill="#FFFFFF" height="42.291" style="stroke:#181818;stroke-width:1.0;" width="10" x="806.6802" y="688.1504"/><rect fill="#FFFFFF" height="31.291" style="stroke:#181818;stroke-width:1.0;" width="10" x="994.3345" y="273.3672"/><rect fill="#FFFFFF" height="31.291" style="stroke:#181818;stroke-width:1.0;" width="10" x="1165.3892" y="429.8223"/><rect fill="#FFFFFF" height="31.291" style="stroke:#181818;stroke-width:1.0;" width="10" x="1165.3892" y="768.7324"/><line style="stroke:#181818;stroke-width:0.5;stroke-dasharray:5.0,5.0;" x1="26" x2="26" y1="83.6211" y2="911.8965"/><line style="stroke:#181818;stroke-width:0.5;stroke-dasharray:5.0,5.0;" x1="242.5313" x2="242.5313" y1="83.6211" y2="911.8965"/><line style="stroke:#181818;stroke-width:0.5;stroke-dasharray:5.0,5.0;" x1="532.6167" x2="532.6167" y1="83.6211" y2="911.8965"/><line style="stroke:#181818;stroke-width:0.5;stroke-dasharray:5.0,5.0;" x1="676.3408" x2="676.3408" y1="83.6211" y2="911.8965"/><line style="stroke:#181818;stroke-width:0.5;stroke-dasharray:5.0,5.0;" x1="806.3286" x2="806.3286" y1="83.6211" y2="911.8965"/><line style="stroke:#181818;stroke-width:0.5;stroke-dasharray:5.0,5.0;" x1="998.5864" x2="998.5864" y1="83.6211" y2="911.8965"/><line style="stroke:#181818;stroke-width:0.5;stroke-dasharray:5.0,5.0;" x1="1170.0825" x2="1170.0825" y1="83.6211" y2="911.8965"/><line style="stroke:#181818;stroke-width:0.5;stroke-dasharray:5.0,5.0;" x1="1297.6958" x2="1297.6958" y1="83.6211" y2="911.8965"/><text fill="#000000" font-family="sans-serif" font-size="14" lengthAdjust="spacing" textLength="36.5859" x="5" y="80.1074">Agent</text><ellipse cx="26.293" cy="13.5" fill="#E2E2F0" rx="8" ry="8" style="stroke:#181818;stroke-width:0.5;"/><path d="M26.293,21.5 L26.293,48.5 M13.293,29.5 L39.293,29.5 M26.293,48.5 L13.293,63.5 M26.293,48.5 L39.293,63.5 " fill="none" style="stroke:#181818;stroke-width:0.5;"/><text fill="#000000" font-family="sans-serif" font-size="14" lengthAdjust="spacing" textLength="36.5859" x="5" y="926.0039">Agent</text><ellipse cx="26.293" cy="938.0176" fill="#E2E2F0" rx="8" ry="8" style="stroke:#181818;stroke-width:0.5;"/><path d="M26.293,946.0176 L26.293,973.0176 M13.293,954.0176 L39.293,954.0176 M26.293,973.0176 L13.293,988.0176 M26.293,973.0176 L39.293,988.0176 " fill="none" style="stroke:#181818;stroke-width:0.5;"/><rect fill="#E2E2F0" height="32.6211" rx="2.5" ry="2.5" style="stroke:#181818;stroke-width:0.5;" width="138.5029" x="173.5313" y="50"/><text fill="#000000" font-family="sans-serif" font-size="14" lengthAdjust="spacing" textLength="124.5029" x="180.5313" y="72.1074">:EvaluateOrderView</text><rect fill="#E2E2F0" height="32.6211" rx="2.5" ry="2.5" style="stroke:#181818;stroke-width:0.5;" width="138.5029" x="173.5313" y="910.8965"/><text fill="#000000" font-family="sans-serif" font-size="14" lengthAdjust="spacing" textLength="124.5029" x="180.5313" y="933.0039">:EvaluateOrderView</text><rect fill="#E2E2F0" height="32.6211" rx="2.5" ry="2.5" style="stroke:#181818;stroke-width:0.5;" width="168.8477" x="448.6167" y="50"/><text fill="#000000" font-family="sans-serif" font-size="14" lengthAdjust="spacing" textLength="154.8477" x="455.6167" y="72.1074">:EvaluateOrderController</text><rect fill="#E2E2F0" height="32.6211" rx="2.5" ry="2.5" style="stroke:#181818;stroke-width:0.5;" width="168.8477" x="448.6167" y="910.8965"/><text fill="#000000" font-family="sans-serif" font-size="14" lengthAdjust="spacing" textLength="154.8477" x="455.6167" y="933.0039">:EvaluateOrderController</text><rect fill="#E2E2F0" height="32.6211" rx="2.5" ry="2.5" style="stroke:#181818;stroke-width:0.5;" width="54.4756" x="649.3408" y="50"/><text fill="#000000" font-family="sans-serif" font-size="14" lengthAdjust="spacing" textLength="40.4756" x="656.3408" y="72.1074">:Agent</text><rect fill="#E2E2F0" height="32.6211" rx="2.5" ry="2.5" style="stroke:#181818;stroke-width:0.5;" width="54.4756" x="649.3408" y="910.8965"/><text fill="#000000" font-family="sans-serif" font-size="14" lengthAdjust="spacing" textLength="40.4756" x="656.3408" y="933.0039">:Agent</text><rect fill="#E2E2F0" height="32.6211" rx="2.5" ry="2.5" style="stroke:#181818;stroke-width:0.5;" width="144.7031" x="734.3286" y="50"/><text fill="#000000" font-family="sans-serif" font-size="14" lengthAdjust="spacing" textLength="130.7031" x="741.3286" y="72.1074">service:OrderService</text><rect fill="#E2E2F0" height="32.6211" rx="2.5" ry="2.5" style="stroke:#181818;stroke-width:0.5;" width="144.7031" x="734.3286" y="910.8965"/><text fill="#000000" font-family="sans-serif" font-size="14" lengthAdjust="spacing" textLength="130.7031" x="741.3286" y="933.0039">service:OrderService</text><rect fill="#E2E2F0" height="32.6211" rx="2.5" ry="2.5" style="stroke:#181818;stroke-width:0.5;" width="173.4961" x="912.5864" y="50"/><text fill="#000000" font-family="sans-serif" font-size="14" lengthAdjust="spacing" textLength="159.4961" x="919.5864" y="72.1074">factory:RepositoryFactory</text><rect fill="#E2E2F0" height="32.6211" rx="2.5" ry="2.5" style="stroke:#181818;stroke-width:0.5;" width="173.4961" x="912.5864" y="910.8965"/><text fill="#000000" font-family="sans-serif" font-size="14" lengthAdjust="spacing" textLength="159.4961" x="919.5864" y="933.0039">factory:RepositoryFactory</text><rect fill="#E2E2F0" height="32.6211" rx="2.5" ry="2.5" style="stroke:#181818;stroke-width:0.5;" width="148.6133" x="1096.0825" y="50"/><text fill="#000000" font-family="sans-serif" font-size="14" lengthAdjust="spacing" textLength="134.6133" x="1103.0825" y="72.1074">repo:OrderRepository</text><rect fill="#E2E2F0" height="32.6211" rx="2.5" ry="2.5" style="stroke:#181818;stroke-width:0.5;" width="148.6133" x="1096.0825" y="910.8965"/><text fill="#000000" font-family="sans-serif" font-size="14" lengthAdjust="spacing" textLength="134.6133" x="1103.0825" y="933.0039">repo:OrderRepository</text><rect fill="#E2E2F0" height="32.6211" rx="2.5" ry="2.5" style="stroke:#181818;stroke-width:0.5;" width="86.3584" x="1254.6958" y="50"/><text fill="#000000" font-family="sans-serif" font-size="14" lengthAdjust="spacing" textLength="72.3584" x="1261.6958" y="72.1074">order:Order</text><rect fill="#E2E2F0" height="32.6211" rx="2.5" ry="2.5" style="stroke:#181818;stroke-width:0.5;" width="86.3584" x="1254.6958" y="910.8965"/><text fill="#000000" font-family="sans-serif" font-size="14" lengthAdjust="spacing" textLength="72.3584" x="1261.6958" y="933.0039">order:Order</text><rect fill="#FFFFFF" height="809.2754" style="stroke:#181818;stroke-width:1.0;" width="10" x="21.293" y="93.6211"/><rect fill="#FFFFFF" height="31.291" style="stroke:#181818;stroke-width:1.0;" width="10" x="237.7827" y="116.9121"/><rect fill="#FFFFFF" height="375.4922" style="stroke:#181818;stroke-width:1.0;" width="10" x="237.7827" y="179.4941"/><rect fill="#FFFFFF" height="307.6191" style="stroke:#181818;stroke-width:1.0;" width="10" x="237.7827" y="586.2773"/><rect fill="#FFFFFF" height="312.9102" style="stroke:#181818;stroke-width:1.0;" width="10" x="528.0405" y="210.7852"/><rect fill="#FFFFFF" height="245.0371" style="stroke:#181818;stroke-width:1.0;" width="10" x="528.0405" y="617.5684"/><rect fill="#FFFFFF" height="93.873" style="stroke:#181818;stroke-width:1.0;" width="10" x="671.5786" y="242.0762"/><rect fill="#FFFFFF" height="93.873" style="stroke:#181818;stroke-width:1.0;" width="10" x="801.6802" y="398.5313"/><rect fill="#FFFFFF" height="182.4551" style="stroke:#181818;stroke-width:1.0;" width="10" x="801.6802" y="648.8594"/><rect fill="#FFFFFF" height="42.291" style="stroke:#181818;stroke-width:1.0;" width="10" x="806.6802" y="688.1504"/><rect fill="#FFFFFF" height="31.291" style="stroke:#181818;stroke-width:1.0;" width="10" x="994.3345" y="273.3672"/><rect fill="#FFFFFF" height="31.291" style="stroke:#181818;stroke-width:1.0;" width="10" x="1165.3892" y="429.8223"/><rect fill="#FFFFFF" height="31.291" style="stroke:#181818;stroke-width:1.0;" width="10" x="1165.3892" y="768.7324"/><polygon fill="#181818" points="225.7827,112.9121,235.7827,116.9121,225.7827,120.9121,229.7827,116.9121" style="stroke:#181818;stroke-width:1.0;"/><line style="stroke:#181818;stroke-width:1.0;" x1="31.293" x2="231.7827" y1="116.9121" y2="116.9121"/><text fill="#000000" font-family="sans-serif" font-size="13" font-weight="bold" lengthAdjust="spacing" textLength="7.23" x="38.293" y="111.6494">1</text><text fill="#000000" font-family="sans-serif" font-size="13" lengthAdjust="spacing" textLength="169.1079" x="49.5229" y="111.6494">requests to evaluate an order</text><polygon fill="#181818" points="42.293,144.2031,32.293,148.2031,42.293,152.2031,38.293,148.2031" style="stroke:#181818;stroke-width:1.0;"/><line style="stroke:#181818;stroke-width:1.0;stroke-dasharray:2.0,2.0;" x1="36.293" x2="241.7827" y1="148.2031" y2="148.2031"/><text fill="#000000" font-family="sans-serif" font-size="13" font-weight="bold" lengthAdjust="spacing" textLength="7.23" x="48.293" y="142.9404">2</text><text fill="#000000" font-family="sans-serif" font-size="13" lengthAdjust="spacing" textLength="171.2598" x="59.5229" y="142.9404">displays list of pending orders</text><polygon fill="#181818" points="225.7827,175.4941,235.7827,179.4941,225.7827,183.4941,229.7827,179.4941" style="stroke:#181818;stroke-width:1.0;"/><line style="stroke:#181818;stroke-width:1.0;" x1="31.293" x2="231.7827" y1="179.4941" y2="179.4941"/><text fill="#000000" font-family="sans-serif" font-size="13" font-weight="bold" lengthAdjust="spacing" textLength="7.23" x="38.293" y="174.2314">3</text><text fill="#000000" font-family="sans-serif" font-size="13" lengthAdjust="spacing" textLength="92.4917" x="49.5229" y="174.2314">selects an order</text><polygon fill="#181818" points="516.0405,206.7852,526.0405,210.7852,516.0405,214.7852,520.0405,210.7852" style="stroke:#181818;stroke-width:1.0;"/><line style="stroke:#181818;stroke-width:1.0;" x1="247.7827" x2="522.0405" y1="210.7852" y2="210.7852"/><text fill="#000000" font-family="sans-serif" font-size="13" font-weight="bold" lengthAdjust="spacing" textLength="7.23" x="254.7827" y="205.5225">4</text><text fill="#000000" font-family="sans-serif" font-size="13" lengthAdjust="spacing" textLength="117.0381" x="266.0127" y="205.5225">selectOrder(orderId)</text><polygon fill="#181818" points="659.5786,238.0762,669.5786,242.0762,659.5786,246.0762,663.5786,242.0762" style="stroke:#181818;stroke-width:1.0;"/><line style="stroke:#181818;stroke-width:1.0;" x1="538.0405" x2="665.5786" y1="242.0762" y2="242.0762"/><text fill="#000000" font-family="sans-serif" font-size="13" font-weight="bold" lengthAdjust="spacing" textLength="7.23" x="545.0405" y="236.8135">5</text><text fill="#000000" font-family="sans-serif" font-size="13" lengthAdjust="spacing" textLength="103.3081" x="556.2705" y="236.8135">getOrderService()</text><polygon fill="#181818" points="982.3345,269.3672,992.3345,273.3672,982.3345,277.3672,986.3345,273.3672" style="stroke:#181818;stroke-width:1.0;"/><line style="stroke:#181818;stroke-width:1.0;" x1="681.5786" x2="988.3345" y1="273.3672" y2="273.3672"/><text fill="#000000" font-family="sans-serif" font-size="13" font-weight="bold" lengthAdjust="spacing" textLength="7.23" x="688.5786" y="268.1045">6</text><text fill="#000000" font-family="sans-serif" font-size="13" lengthAdjust="spacing" textLength="122.0972" x="699.8086" y="268.1045">getOrderRepository()</text><polygon fill="#181818" points="692.5786,300.6582,682.5786,304.6582,692.5786,308.6582,688.5786,304.6582" style="stroke:#181818;stroke-width:1.0;"/><line style="stroke:#181818;stroke-width:1.0;stroke-dasharray:2.0,2.0;" x1="686.5786" x2="998.3345" y1="304.6582" y2="304.6582"/><text fill="#000000" font-family="sans-serif" font-size="13" font-weight="bold" lengthAdjust="spacing" textLength="7.23" x="698.5786" y="299.3955">7</text><text fill="#000000" font-family="sans-serif" font-size="13" lengthAdjust="spacing" textLength="26.019" x="709.8086" y="299.3955">repo</text><polygon fill="#181818" points="794.6802,331.9492,804.6802,335.9492,794.6802,339.9492,798.6802,335.9492" style="stroke:#181818;stroke-width:1.0;"/><line style="stroke:#181818;stroke-width:1.0;stroke-dasharray:2.0,2.0;" x1="676.5786" x2="800.6802" y1="335.9492" y2="335.9492"/><text fill="#000000" font-family="sans-serif" font-size="13" font-weight="bold" lengthAdjust="spacing" textLength="7.23" x="683.5786" y="330.6865">8</text><text fill="#000000" font-family="sans-serif" font-size="13" lengthAdjust="spacing" textLength="70.8081" x="694.8086" y="330.6865">create(repo)</text><polygon fill="#181818" points="549.0405,363.2402,539.0405,367.2402,549.0405,371.2402,545.0405,367.2402" style="stroke:#181818;stroke-width:1.0;"/><line style="stroke:#181818;stroke-width:1.0;stroke-dasharray:2.0,2.0;" x1="543.0405" x2="675.5786" y1="367.2402" y2="367.2402"/><text fill="#000000" font-family="sans-serif" font-size="13" font-weight="bold" lengthAdjust="spacing" textLength="7.23" x="555.0405" y="361.9775">9</text><text fill="#000000" font-family="sans-serif" font-size="13" lengthAdjust="spacing" textLength="41.1772" x="566.2705" y="361.9775">service</text><polygon fill="#181818" points="789.6802,394.5313,799.6802,398.5313,789.6802,402.5313,793.6802,398.5313" style="stroke:#181818;stroke-width:1.0;"/><line style="stroke:#181818;stroke-width:1.0;" x1="538.0405" x2="795.6802" y1="398.5313" y2="398.5313"/><text fill="#000000" font-family="sans-serif" font-size="13" font-weight="bold" lengthAdjust="spacing" textLength="14.46" x="545.0405" y="393.2686">10</text><text fill="#000000" font-family="sans-serif" font-size="13" lengthAdjust="spacing" textLength="157.5425" x="563.5005" y="393.2686">getPendingOrders(agentId)</text><polygon fill="#181818" points="1153.3892,425.8223,1163.3892,429.8223,1153.3892,433.8223,1157.3892,429.8223" style="stroke:#181818;stroke-width:1.0;"/><line style="stroke:#181818;stroke-width:1.0;" x1="811.6802" x2="1159.3892" y1="429.8223" y2="429.8223"/><text fill="#000000" font-family="sans-serif" font-size="13" font-weight="bold" lengthAdjust="spacing" textLength="14.46" x="818.6802" y="424.5596">11</text><text fill="#000000" font-family="sans-serif" font-size="13" lengthAdjust="spacing" textLength="257.6323" x="837.1401" y="424.5596">getOrdersByAgent(agentId, evaluated=false)</text><polygon fill="#181818" points="822.6802,457.1133,812.6802,461.1133,822.6802,465.1133,818.6802,461.1133" style="stroke:#181818;stroke-width:1.0;"/><line style="stroke:#181818;stroke-width:1.0;stroke-dasharray:2.0,2.0;" x1="816.6802" x2="1169.3892" y1="461.1133" y2="461.1133"/><text fill="#000000" font-family="sans-serif" font-size="13" font-weight="bold" lengthAdjust="spacing" textLength="14.46" x="828.6802" y="455.8506">12</text><text fill="#000000" font-family="sans-serif" font-size="13" lengthAdjust="spacing" textLength="70.8018" x="847.1401" y="455.8506">list of orders</text><polygon fill="#181818" points="549.0405,488.4043,539.0405,492.4043,549.0405,496.4043,545.0405,492.4043" style="stroke:#181818;stroke-width:1.0;"/><line style="stroke:#181818;stroke-width:1.0;stroke-dasharray:2.0,2.0;" x1="543.0405" x2="805.6802" y1="492.4043" y2="492.4043"/><text fill="#000000" font-family="sans-serif" font-size="13" font-weight="bold" lengthAdjust="spacing" textLength="14.46" x="555.0405" y="487.1416">13</text><text fill="#000000" font-family="sans-serif" font-size="13" lengthAdjust="spacing" textLength="70.8018" x="573.5005" y="487.1416">list of orders</text><polygon fill="#181818" points="258.7827,519.6953,248.7827,523.6953,258.7827,527.6953,254.7827,523.6953" style="stroke:#181818;stroke-width:1.0;"/><line style="stroke:#181818;stroke-width:1.0;stroke-dasharray:2.0,2.0;" x1="252.7827" x2="532.0405" y1="523.6953" y2="523.6953"/><text fill="#000000" font-family="sans-serif" font-size="13" font-weight="bold" lengthAdjust="spacing" textLength="14.46" x="264.7827" y="518.4326">14</text><text fill="#000000" font-family="sans-serif" font-size="13" lengthAdjust="spacing" textLength="70.8018" x="283.2427" y="518.4326">list of orders</text><polygon fill="#181818" points="42.293,550.9863,32.293,554.9863,42.293,558.9863,38.293,554.9863" style="stroke:#181818;stroke-width:1.0;"/><line style="stroke:#181818;stroke-width:1.0;stroke-dasharray:2.0,2.0;" x1="36.293" x2="241.7827" y1="554.9863" y2="554.9863"/><text fill="#000000" font-family="sans-serif" font-size="13" font-weight="bold" lengthAdjust="spacing" textLength="14.46" x="48.293" y="549.7236">15</text><text fill="#000000" font-family="sans-serif" font-size="13" lengthAdjust="spacing" textLength="133.6816" x="66.7529" y="549.7236">shows the order details</text><polygon fill="#181818" points="225.7827,582.2773,235.7827,586.2773,225.7827,590.2773,229.7827,586.2773" style="stroke:#181818;stroke-width:1.0;"/><line style="stroke:#181818;stroke-width:1.0;" x1="31.293" x2="231.7827" y1="586.2773" y2="586.2773"/><text fill="#000000" font-family="sans-serif" font-size="13" font-weight="bold" lengthAdjust="spacing" textLength="14.46" x="38.293" y="581.0146">16</text><text fill="#000000" font-family="sans-serif" font-size="13" lengthAdjust="spacing" textLength="107.6689" x="56.7529" y="581.0146">submits evaluation</text><polygon fill="#181818" points="516.0405,613.5684,526.0405,617.5684,516.0405,621.5684,520.0405,617.5684" style="stroke:#181818;stroke-width:1.0;"/><line style="stroke:#181818;stroke-width:1.0;" x1="247.7827" x2="522.0405" y1="617.5684" y2="617.5684"/><text fill="#000000" font-family="sans-serif" font-size="13" font-weight="bold" lengthAdjust="spacing" textLength="14.46" x="254.7827" y="612.3057">17</text><text fill="#000000" font-family="sans-serif" font-size="13" lengthAdjust="spacing" textLength="242.7979" x="273.2427" y="612.3057">submitEvaluation(orderId, evaluationData)</text><polygon fill="#181818" points="789.6802,644.8594,799.6802,648.8594,789.6802,652.8594,793.6802,648.8594" style="stroke:#181818;stroke-width:1.0;"/><line style="stroke:#181818;stroke-width:1.0;" x1="538.0405" x2="795.6802" y1="648.8594" y2="648.8594"/><text fill="#000000" font-family="sans-serif" font-size="13" font-weight="bold" lengthAdjust="spacing" textLength="14.46" x="545.0405" y="643.5967">18</text><text fill="#000000" font-family="sans-serif" font-size="13" lengthAdjust="spacing" textLength="226.1797" x="563.5005" y="643.5967">evaluateOrder(orderId, evaluationData)</text><line style="stroke:#181818;stroke-width:1.0;" x1="811.6802" x2="858.6802" y1="675.1504" y2="675.1504"/><line style="stroke:#181818;stroke-width:1.0;" x1="858.6802" x2="858.6802" y1="675.1504" y2="688.1504"/><line style="stroke:#181818;stroke-width:1.0;" x1="817.6802" x2="858.6802" y1="688.1504" y2="688.1504"/><polygon fill="#181818" points="827.6802,684.1504,817.6802,688.1504,827.6802,692.1504,823.6802,688.1504" style="stroke:#181818;stroke-width:1.0;"/><text fill="#000000" font-family="sans-serif" font-size="13" font-weight="bold" lengthAdjust="spacing" textLength="14.46" x="823.6802" y="669.8877">19</text><text fill="#000000" font-family="sans-serif" font-size="13" lengthAdjust="spacing" textLength="140.1943" x="842.1401" y="669.8877">validate(evaluationData)</text><line style="stroke:#181818;stroke-width:1.0;stroke-dasharray:2.0,2.0;" x1="816.6802" x2="858.6802" y1="729.4414" y2="729.4414"/><line style="stroke:#181818;stroke-width:1.0;stroke-dasharray:2.0,2.0;" x1="858.6802" x2="858.6802" y1="729.4414" y2="742.4414"/><line style="stroke:#181818;stroke-width:1.0;stroke-dasharray:2.0,2.0;" x1="811.6802" x2="858.6802" y1="742.4414" y2="742.4414"/><polygon fill="#181818" points="821.6802,738.4414,811.6802,742.4414,821.6802,746.4414,817.6802,742.4414" style="stroke:#181818;stroke-width:1.0;"/><text fill="#000000" font-family="sans-serif" font-size="13" font-weight="bold" lengthAdjust="spacing" textLength="14.46" x="823.6802" y="724.1787">20</text><text fill="#000000" font-family="sans-serif" font-size="13" lengthAdjust="spacing" textLength="13.73" x="842.1401" y="724.1787">ok</text><polygon fill="#181818" points="1153.3892,764.7324,1163.3892,768.7324,1153.3892,772.7324,1157.3892,768.7324" style="stroke:#181818;stroke-width:1.0;"/><line style="stroke:#181818;stroke-width:1.0;" x1="811.6802" x2="1159.3892" y1="768.7324" y2="768.7324"/><text fill="#000000" font-family="sans-serif" font-size="13" font-weight="bold" lengthAdjust="spacing" textLength="14.46" x="818.6802" y="763.4697">21</text><text fill="#000000" font-family="sans-serif" font-size="13" lengthAdjust="spacing" textLength="183.5361" x="837.1401" y="763.4697">save(order with evaluationData)</text><polygon fill="#181818" points="822.6802,796.0234,812.6802,800.0234,822.6802,804.0234,818.6802,800.0234" style="stroke:#181818;stroke-width:1.0;"/><line style="stroke:#181818;stroke-width:1.0;stroke-dasharray:2.0,2.0;" x1="816.6802" x2="1169.3892" y1="800.0234" y2="800.0234"/><text fill="#000000" font-family="sans-serif" font-size="13" font-weight="bold" lengthAdjust="spacing" textLength="14.46" x="828.6802" y="794.7607">22</text><text fill="#000000" font-family="sans-serif" font-size="13" lengthAdjust="spacing" textLength="13.73" x="847.1401" y="794.7607">ok</text><polygon fill="#181818" points="549.0405,827.3145,539.0405,831.3145,549.0405,835.3145,545.0405,831.3145" style="stroke:#181818;stroke-width:1.0;"/><line style="stroke:#181818;stroke-width:1.0;stroke-dasharray:2.0,2.0;" x1="543.0405" x2="805.6802" y1="831.3145" y2="831.3145"/><text fill="#000000" font-family="sans-serif" font-size="13" font-weight="bold" lengthAdjust="spacing" textLength="14.46" x="555.0405" y="826.0518">23</text><text fill="#000000" font-family="sans-serif" font-size="13" lengthAdjust="spacing" textLength="13.73" x="573.5005" y="826.0518">ok</text><polygon fill="#181818" points="258.7827,858.6055,248.7827,862.6055,258.7827,866.6055,254.7827,862.6055" style="stroke:#181818;stroke-width:1.0;"/><line style="stroke:#181818;stroke-width:1.0;stroke-dasharray:2.0,2.0;" x1="252.7827" x2="532.0405" y1="862.6055" y2="862.6055"/><text fill="#000000" font-family="sans-serif" font-size="13" font-weight="bold" lengthAdjust="spacing" textLength="14.46" x="264.7827" y="857.3428">24</text><text fill="#000000" font-family="sans-serif" font-size="13" lengthAdjust="spacing" textLength="13.73" x="283.2427" y="857.3428">ok</text><polygon fill="#181818" points="42.293,889.8965,32.293,893.8965,42.293,897.8965,38.293,893.8965" style="stroke:#181818;stroke-width:1.0;"/><line style="stroke:#181818;stroke-width:1.0;stroke-dasharray:2.0,2.0;" x1="36.293" x2="241.7827" y1="893.8965" y2="893.8965"/><text fill="#000000" font-family="sans-serif" font-size="13" font-weight="bold" lengthAdjust="spacing" textLength="14.46" x="48.293" y="888.6338">25</text><text fill="#000000" font-family="sans-serif" font-size="13" lengthAdjust="spacing" textLength="151.0107" x="66.7529" y="888.6338">informs operation success</text><!--SRC=[VPFBRXin34Nt-Wh2Am-G_C003P1NWQvQD6ZsoWnj2vMbgQYnuR-lI6dUJJS69PvBKfSUtKUlcsWkEY9uftGwk_xyWK6fTEy3x1wFwE8EDC4lIjUT3j4qfjCkmgv-lMZR9-ttq69uDtWLyEr64S__Gv-zYy5RYq44pp7O5JwrbMYPJODSJ8Err7hBXzmvnqlw82-vrJ-nysGu_9flH5BYfIGaD5UVH4BpSObwfZ8hX4JYNdPLN5Fy2_SFnPeQ0lxfaI91z8356T0Ef9hA5Dmd0GjhQ0rrLjy8hA48_W0TkjQuO-PfMv_GOfFARqe-YDa38CFkXVZMLefJZ8ZbDHmnpXtULqeIJ1JN9cRoAM4bAmyejTZHGSvpbWr24p0zVS_fQfOVXiph7EOQLQdhZ-o0DAUzPYK_eI1CyqZJWFHqa_83UZVwtduvQ4jOAHOifnliBZQFnSS9Lq0UTBQ7TO7rOkdah-bFSC9CG8jH6_klXVOVPvCMMeOswMFTh5IGrn4Ozdet4xtegAkjdpZ_E3_NpSmTfGanBQ_mKtXE-z_R3P6-OEu9LnDFcwxRjSohZCzFbnlx6LnRRjp1XpE1xp18bsHSqo2H-Wi0]--></g></svg>