<svg xmlns="http://www.w3.org/2000/svg" xmlns:xlink="http://www.w3.org/1999/xlink" contentStyleType="text/css" height="778px" preserveAspectRatio="none" style="width:1157px;height:778px;background:#FFFFFF;" version="1.1" viewBox="0 0 1157 778" width="1157px" zoomAndPan="magnify"><defs/><g><!--class EvaluateOrderView--><g id="elem_EvaluateOrderView"><rect codeLine="6" fill="#F1F1F1" height="44.6211" id="EvaluateOrderView" rx="2.5" ry="2.5" style="stroke:#181818;stroke-width:0.5;" width="126.6133" x="531.5" y="7"/><text fill="#000000" font-family="sans-serif" font-size="14" lengthAdjust="spacing" textLength="120.6133" x="534.5" y="27.1074">EvaluateOrderView</text><line style="stroke:#181818;stroke-width:0.5;" x1="532.5" x2="657.1133" y1="35.6211" y2="35.6211"/><line style="stroke:#181818;stroke-width:0.5;" x1="532.5" x2="657.1133" y1="43.6211" y2="43.6211"/></g><!--class EvaluateOrderController--><g id="elem_EvaluateOrderController"><rect codeLine="9" fill="#F1F1F1" height="81.8633" id="EvaluateOrderController" rx="2.5" ry="2.5" style="stroke:#181818;stroke-width:0.5;" width="385.9121" x="402" y="113"/><text fill="#000000" font-family="sans-serif" font-size="14" lengthAdjust="spacing" textLength="150.958" x="519.4771" y="133.1074">EvaluateOrderController</text><line style="stroke:#181818;stroke-width:0.5;" x1="403" x2="786.9121" y1="141.6211" y2="141.6211"/><line style="stroke:#181818;stroke-width:0.5;" x1="403" x2="786.9121" y1="149.6211" y2="149.6211"/><text fill="#000000" font-family="sans-serif" font-size="14" lengthAdjust="spacing" textLength="186.3545" x="408" y="168.7285">+selectOrder(int orderId): void</text><text fill="#000000" font-family="sans-serif" font-size="14" lengthAdjust="spacing" textLength="373.9121" x="408" y="187.3496">+submitEvaluation(int orderId, string evaluationData): Result</text></g><!--class Agent--><g id="elem_Agent"><rect codeLine="14" fill="#F1F1F1" height="81.8633" id="Agent" rx="2.5" ry="2.5" style="stroke:#181818;stroke-width:0.5;" width="221.6787" x="113" y="265"/><text fill="#000000" font-family="sans-serif" font-size="14" lengthAdjust="spacing" textLength="36.5859" x="205.5464" y="285.1074">Agent</text><line style="stroke:#181818;stroke-width:0.5;" x1="114" x2="333.6787" y1="293.6211" y2="293.6211"/><text fill="#000000" font-family="sans-serif" font-size="14" lengthAdjust="spacing" textLength="39.6826" x="119" y="312.7285">-name</text><line style="stroke:#181818;stroke-width:0.5;" x1="114" x2="333.6787" y1="320.2422" y2="320.2422"/><text fill="#000000" font-family="sans-serif" font-size="14" lengthAdjust="spacing" textLength="209.6787" x="119" y="339.3496">+getOrderService(): OrderService</text></g><!--class OrderService--><g id="elem_OrderService"><rect codeLine="19" fill="#F1F1F1" height="100.4844" id="OrderService" rx="2.5" ry="2.5" style="stroke:#181818;stroke-width:0.5;" width="368.0156" x="411" y="256"/><text fill="#000000" font-family="sans-serif" font-size="14" lengthAdjust="spacing" textLength="82.4688" x="553.7734" y="276.1074">OrderService</text><line style="stroke:#181818;stroke-width:0.5;" x1="412" x2="778.0156" y1="284.6211" y2="284.6211"/><line style="stroke:#181818;stroke-width:0.5;" x1="412" x2="778.0156" y1="292.6211" y2="292.6211"/><text fill="#000000" font-family="sans-serif" font-size="14" lengthAdjust="spacing" textLength="279.7129" x="417" y="311.7285">+OrderService(OrderRepository ordersRepo)</text><text fill="#000000" font-family="sans-serif" font-size="14" lengthAdjust="spacing" textLength="278.2158" x="417" y="330.3496">+getPendingOrders(int agentId): List&lt;Order&gt;</text><text fill="#000000" font-family="sans-serif" font-size="14" lengthAdjust="spacing" textLength="356.0156" x="417" y="348.9707">+evaluateOrder(int orderId, string evaluationData): Result</text></g><!--class OrderRepository--><g id="elem_OrderRepository"><rect codeLine="25" fill="#F1F1F1" height="97.8242" id="OrderRepository" rx="2.5" ry="2.5" style="stroke:#181818;stroke-width:0.5;" width="413.9736" x="304" y="483"/><text fill="#000000" font-family="sans-serif" font-size="12" font-style="italic" lengthAdjust="spacing" textLength="59.373" x="481.3003" y="500.9492">&#171;interface&#187;</text><text fill="#000000" font-family="sans-serif" font-size="14" font-style="italic" lengthAdjust="spacing" textLength="102.7031" x="459.6353" y="519.0684">OrderRepository</text><line style="stroke:#181818;stroke-width:0.5;" x1="305" x2="716.9736" y1="527.582" y2="527.582"/><line style="stroke:#181818;stroke-width:0.5;" x1="305" x2="716.9736" y1="535.582" y2="535.582"/><text fill="#000000" font-family="sans-serif" font-size="14" lengthAdjust="spacing" textLength="152.8926" x="310" y="554.6895">+save(Order obj): Result</text><text fill="#000000" font-family="sans-serif" font-size="14" lengthAdjust="spacing" textLength="401.9736" x="310" y="573.3105">+getOrdersByAgent(int agentId, boolean evaluated): List&lt;Order&gt;</text></g><!--class RepositoryFactory--><g id="elem_RepositoryFactory"><rect codeLine="30" fill="#F1F1F1" height="79.2031" id="RepositoryFactory" rx="2.5" ry="2.5" style="stroke:#181818;stroke-width:0.5;" width="262.1475" x="7" y="492.5"/><text fill="#000000" font-family="sans-serif" font-size="12" font-style="italic" lengthAdjust="spacing" textLength="59.373" x="108.3872" y="510.4492">&#171;interface&#187;</text><text fill="#000000" font-family="sans-serif" font-size="14" font-style="italic" lengthAdjust="spacing" textLength="113.5928" x="81.2773" y="528.5684">RepositoryFactory</text><line style="stroke:#181818;stroke-width:0.5;" x1="8" x2="268.1475" y1="537.082" y2="537.082"/><line style="stroke:#181818;stroke-width:0.5;" x1="8" x2="268.1475" y1="545.082" y2="545.082"/><text fill="#000000" font-family="sans-serif" font-size="14" lengthAdjust="spacing" textLength="250.1475" x="13" y="564.1895">+getOrderRepository(): OrderRepository</text></g><!--class Order--><g id="elem_Order"><rect codeLine="34" fill="#F1F1F1" height="193.5898" id="Order" rx="2.5" ry="2.5" style="stroke:#181818;stroke-width:0.5;" width="352.0674" x="798" y="435"/><text fill="#000000" font-family="sans-serif" font-size="14" lengthAdjust="spacing" textLength="35.7861" x="956.1406" y="455.1074">Order</text><line style="stroke:#181818;stroke-width:0.5;" x1="799" x2="1149.0674" y1="463.6211" y2="463.6211"/><text fill="#000000" font-family="sans-serif" font-size="14" lengthAdjust="spacing" textLength="49.0205" x="804" y="482.7285">-orderId</text><text fill="#000000" font-family="sans-serif" font-size="14" lengthAdjust="spacing" textLength="66.917" x="804" y="501.3496">-orderDate</text><text fill="#000000" font-family="sans-serif" font-size="14" lengthAdjust="spacing" textLength="68.4688" x="804" y="519.9707">-orderType</text><text fill="#000000" font-family="sans-serif" font-size="14" lengthAdjust="spacing" textLength="77.0342" x="804" y="538.5918">-orderStatus</text><text fill="#000000" font-family="sans-serif" font-size="14" lengthAdjust="spacing" textLength="89.4893" x="804" y="557.2129">-cashProposal</text><text fill="#000000" font-family="sans-serif" font-size="14" lengthAdjust="spacing" textLength="108.1787" x="804" y="575.834">-evaluationStatus</text><text fill="#000000" font-family="sans-serif" font-size="14" lengthAdjust="spacing" textLength="105.0615" x="804" y="594.4551">-evaluationNotes</text><line style="stroke:#181818;stroke-width:0.5;" x1="799" x2="1149.0674" y1="601.9688" y2="601.9688"/><text fill="#000000" font-family="sans-serif" font-size="14" lengthAdjust="spacing" textLength="340.0674" x="804" y="621.0762">Order(int orderId, string orderType, boolean evaluated)</text></g><!--class OrderMemoryRepository--><g id="elem_OrderMemoryRepository"><rect codeLine="58" fill="#F1F1F1" height="81.8633" id="OrderMemoryRepository" rx="2.5" ry="2.5" style="stroke:#181818;stroke-width:0.5;" width="413.9736" x="304" y="690"/><text fill="#000000" font-family="sans-serif" font-size="14" lengthAdjust="spacing" textLength="153.2617" x="434.356" y="710.1074">OrderMemoryRepository</text><line style="stroke:#181818;stroke-width:0.5;" x1="305" x2="716.9736" y1="718.6211" y2="718.6211"/><line style="stroke:#181818;stroke-width:0.5;" x1="305" x2="716.9736" y1="726.6211" y2="726.6211"/><text fill="#000000" font-family="sans-serif" font-size="14" lengthAdjust="spacing" textLength="152.8926" x="310" y="745.7285">+save(Order obj): Result</text><text fill="#000000" font-family="sans-serif" font-size="14" lengthAdjust="spacing" textLength="401.9736" x="310" y="764.3496">+getOrdersByAgent(int agentId, boolean evaluated): List&lt;Order&gt;</text></g><!--class MemoryRepositoryFactory--><g id="elem_MemoryRepositoryFactory"><rect codeLine="63" fill="#F1F1F1" height="63.2422" id="MemoryRepositoryFactory" rx="2.5" ry="2.5" style="stroke:#181818;stroke-width:0.5;" width="262.1475" x="7" y="699.5"/><text fill="#000000" font-family="sans-serif" font-size="14" lengthAdjust="spacing" textLength="164.1514" x="55.998" y="719.6074">MemoryRepositoryFactory</text><line style="stroke:#181818;stroke-width:0.5;" x1="8" x2="268.1475" y1="728.1211" y2="728.1211"/><line style="stroke:#181818;stroke-width:0.5;" x1="8" x2="268.1475" y1="736.1211" y2="736.1211"/><text fill="#000000" font-family="sans-serif" font-size="14" lengthAdjust="spacing" textLength="250.1475" x="13" y="755.2285">+getOrderRepository(): OrderRepository</text></g><!--link Agent to RepositoryFactory--><g id="link_Agent_RepositoryFactory"><path codeLine="45" d="M208.62,347.05 C192.83,388.2 170.5508,446.2188 154.9608,486.8188 " fill="none" id="Agent-to-RepositoryFactory" style="stroke:#181818;stroke-width:1.0;"/><polygon fill="#181818" points="152.81,492.42,159.7704,485.452,154.6024,487.7523,152.3021,482.5842,152.81,492.42" style="stroke:#181818;stroke-width:1.0;"/><text fill="#000000" font-family="sans-serif" font-size="13" lengthAdjust="spacing" textLength="27.46" x="193" y="401.0283">uses</text><text fill="#000000" font-family="sans-serif" font-size="13" lengthAdjust="spacing" textLength="7.23" x="198.6549" y="369.0094">1</text><text fill="#000000" font-family="sans-serif" font-size="13" lengthAdjust="spacing" textLength="7.23" x="147.761" y="481.1921">1</text></g><!--link OrderRepository to Order--><g id="link_OrderRepository_Order"><path codeLine="46" d="M718.12,532 C744.73,532 765.77,532 791.82,532 " fill="none" id="OrderRepository-to-Order" style="stroke:#181818;stroke-width:1.0;"/><polygon fill="#181818" points="797.82,532,788.82,528,792.82,532,788.82,536,797.82,532" style="stroke:#181818;stroke-width:1.0;"/><text fill="#000000" font-family="sans-serif" font-size="13" lengthAdjust="spacing" textLength="43.3481" x="736.5" y="525.0283">records</text><text fill="#000000" font-family="sans-serif" font-size="13" lengthAdjust="spacing" textLength="7.23" x="725.6938" y="528.7312">1</text><text fill="#000000" font-family="sans-serif" font-size="13" lengthAdjust="spacing" textLength="19.5127" x="770.4165" y="546.4294">0..*</text></g><!--link EvaluateOrderView to EvaluateOrderController--><g id="link_EvaluateOrderView_EvaluateOrderController"><path codeLine="48" d="M595,52.12 C595,68.88 595,86.57 595,106.79 " fill="none" id="EvaluateOrderView-to-EvaluateOrderController" style="stroke:#181818;stroke-width:1.0;stroke-dasharray:7.0,7.0;"/><polygon fill="#181818" points="595,112.79,599,103.79,595,107.79,591,103.79,595,112.79" style="stroke:#181818;stroke-width:1.0;"/></g><!--link EvaluateOrderController to Agent--><g id="link_EvaluateOrderController_Agent"><path codeLine="49" d="M496.07,195 C442.51,216.65 382.1024,241.0705 328.5424,262.7305 " fill="none" id="EvaluateOrderController-to-Agent" style="stroke:#181818;stroke-width:1.0;stroke-dasharray:7.0,7.0;"/><polygon fill="#181818" points="322.98,264.98,332.8232,265.3141,327.6153,263.1055,329.8239,257.8976,322.98,264.98" style="stroke:#181818;stroke-width:1.0;"/></g><!--link EvaluateOrderController to OrderService--><g id="link_EvaluateOrderController_OrderService"><path codeLine="50" d="M595,195.2 C595,213.86 595,230.21 595,249.86 " fill="none" id="EvaluateOrderController-to-OrderService" style="stroke:#181818;stroke-width:1.0;stroke-dasharray:7.0,7.0;"/><polygon fill="#181818" points="595,255.86,599,246.86,595,250.86,591,246.86,595,255.86" style="stroke:#181818;stroke-width:1.0;"/></g><!--link OrderService to OrderRepository--><g id="link_OrderService_OrderRepository"><path codeLine="51" d="M576.57,356.16 C562.46,393.76 545.2266,439.722 531.2066,477.112 " fill="none" id="OrderService-to-OrderRepository" style="stroke:#181818;stroke-width:1.0;stroke-dasharray:7.0,7.0;"/><polygon fill="#181818" points="529.1,482.73,536.0052,475.7073,530.8555,478.0483,528.5145,472.8986,529.1,482.73" style="stroke:#181818;stroke-width:1.0;"/></g><!--link OrderService to Order--><g id="link_OrderService_Order"><path codeLine="52" d="M678.17,356.16 C717.29,379.27 760.1647,404.6172 806.0847,431.7572 " fill="none" id="OrderService-to-Order" style="stroke:#181818;stroke-width:1.0;stroke-dasharray:7.0,7.0;"/><polygon fill="#181818" points="811.25,434.81,805.5373,426.7872,806.9456,432.266,801.4668,433.6743,811.25,434.81" style="stroke:#181818;stroke-width:1.0;"/></g><!--link EvaluateOrderController to Order--><g id="link_EvaluateOrderController_Order"><path codeLine="53" d="M701.3,195.08 C734.31,210.8 769.28,231.12 797,256 C852.68,305.96 895.0966,372.0412 925.9066,429.5512 " fill="none" id="EvaluateOrderController-to-Order" style="stroke:#181818;stroke-width:1.0;stroke-dasharray:7.0,7.0;"/><polygon fill="#181818" points="928.74,434.84,928.0158,425.0178,926.3788,430.4326,920.964,428.7957,928.74,434.84" style="stroke:#181818;stroke-width:1.0;"/></g><!--link Agent to OrderService--><g id="link_Agent_OrderService"><path codeLine="55" d="M335.06,306 C358.97,306 378.86,306 404.71,306 " fill="none" id="Agent-to-OrderService" style="stroke:#181818;stroke-width:1.0;"/><polygon fill="#181818" points="410.71,306,401.71,302,405.71,306,401.71,310,410.71,306" style="stroke:#181818;stroke-width:1.0;"/><text fill="#000000" font-family="sans-serif" font-size="13" lengthAdjust="spacing" textLength="39.0317" x="353.5" y="299.0283">adopts</text></g><!--link RepositoryFactory to OrderRepository--><g id="link_RepositoryFactory_OrderRepository"><path codeLine="56" d="M269.13,532 C280.63,532 286.12,532 297.62,532 " fill="none" id="RepositoryFactory-to-OrderRepository" style="stroke:#181818;stroke-width:1.0;stroke-dasharray:7.0,7.0;"/><polygon fill="#181818" points="303.62,532,294.62,528,298.62,532,294.62,536,303.62,532" style="stroke:#181818;stroke-width:1.0;"/></g><!--reverse link OrderRepository to OrderMemoryRepository--><g id="link_OrderRepository_OrderMemoryRepository"><path codeLine="67" d="M511,599.19 C511,632.57 511,658.48 511,689.93 " fill="none" id="OrderRepository-backto-OrderMemoryRepository" style="stroke:#181818;stroke-width:1.0;stroke-dasharray:7.0,7.0;"/><polygon fill="none" points="511,581.19,505,599.19,517,599.19,511,581.19" style="stroke:#181818;stroke-width:1.0;"/></g><!--reverse link RepositoryFactory to MemoryRepositoryFactory--><g id="link_RepositoryFactory_MemoryRepositoryFactory"><path codeLine="68" d="M138,589.92 C138,627.26 138,664.9 138,699.24 " fill="none" id="RepositoryFactory-backto-MemoryRepositoryFactory" style="stroke:#181818;stroke-width:1.0;stroke-dasharray:7.0,7.0;"/><polygon fill="none" points="138,571.92,132,589.92,144,589.92,138,571.92" style="stroke:#181818;stroke-width:1.0;"/></g><!--link MemoryRepositoryFactory to OrderMemoryRepository--><g id="link_MemoryRepositoryFactory_OrderMemoryRepository"><path codeLine="70" d="M269.13,731 C280.63,731 286.12,731 297.62,731 " fill="none" id="MemoryRepositoryFactory-to-OrderMemoryRepository" style="stroke:#181818;stroke-width:1.0;stroke-dasharray:7.0,7.0;"/><polygon fill="#181818" points="303.62,731,294.62,727,298.62,731,294.62,735,303.62,731" style="stroke:#181818;stroke-width:1.0;"/></g><!--SRC=[jLF9Rjim4BtpAmXVwZInd5uDGq2w0G6w177GEorDPBOKAP0Z1-xoxnrHiaHjBNA8JkBC6xutRpYl3eY5swpNXH8Qorn5YSdNYHBEhL8fCYjonWuo1Pv8coXWxeVKXQ0mzw0RH2lt9S9jOlHE_WH-pPZFy0z7eKg1yDMcOBz9UEA_s9_9v3kZqHgbm1A4qtVfG462FhcK6hcf_cxJYmq_6fasc7AVIsmkaaQ7m2lkI9VEEBJfzm85rT-3AnLsGcuoeBAQTiMroA6-FOEQVWVsA1DOKcbuxYu8etJFPI-mz8TxA8oJQEofrkUgm0L1YUGET4f2FSxv5aIboFVwIJhS-anCO0WjUswp10VxA4ZYKD5ss-RYs3VWnB4Hpit-UtUDrriBVNloleLwh_ZU60L2jqA7BVHaT0e-YcH6o9ckmxPZw4A3IRIZRCm9J-GAXEU7Kz4xxr1WwPf88jpXpXgY4Qe9TVxsa5tuYq6ee_D3Qfcd3AkQgL_auis2hrBpf5Un_n_vjU6yTCGsdASlj38xO5Lv7KMl5xKQAh2G4BrZRBoRKHJFBIMRMzQgnglz9wAtDhrjQRF1DAS1_oSu-xRg4swuI4s1ZetVM-HDcf0GFgVFa5CeiFU55wIc7hAU9JzhAQRrHsKH_HxtFCVOm4S9Db_HitM8Ody1]--></g></svg>