<svg xmlns="http://www.w3.org/2000/svg" xmlns:xlink="http://www.w3.org/1999/xlink" contentStyleType="text/css"
     height="1017px" preserveAspectRatio="none" style="width:511px;height:1017px;background:#FFFFFF;" version="1.1"
     viewBox="0 0 511 1017" width="511px" zoomAndPan="magnify">
    <defs/>
    <g><!--class Client-->
        <g id="elem_Client">
            <rect codeLine="2" fill="#F1F1F1" height="141.1055" id="Client" rx="2.5" ry="2.5"
                  style="stroke:#181818;stroke-width:0.5;" width="145.8203" x="21" y="7"/>
            <ellipse cx="71.7637" cy="23" fill="#ADD1B2" rx="11" ry="11" style="stroke:#181818;stroke-width:1.0;"/>
            <path d="M74.5293,18.875 Q74.6855,18.6563 74.873,18.5469 Q75.0605,18.4375 75.2793,18.4375 Q75.6543,18.4375 75.8887,18.7031 Q76.123,18.9531 76.123,19.5625 L76.123,21.0156 Q76.123,21.625 75.8887,21.8906 Q75.6543,22.1563 75.2793,22.1563 Q74.9355,22.1563 74.7324,21.9531 Q74.5293,21.7656 74.4199,21.25 Q74.373,20.8906 74.1855,20.7031 Q73.8574,20.3281 73.248,20.1094 Q72.6387,19.8906 72.0137,19.8906 Q71.248,19.8906 70.6074,20.2188 Q69.9824,20.5469 69.4824,21.2969 Q68.998,22.0469 68.998,23.0781 L68.998,24.1719 Q68.998,25.4063 69.8887,26.2344 Q70.7793,27.0469 72.373,27.0469 Q73.3105,27.0469 73.9668,26.7969 Q74.3574,26.6406 74.7793,26.2031 Q75.0449,25.9375 75.1855,25.8594 Q75.3418,25.7813 75.5449,25.7813 Q75.873,25.7813 76.123,26.0469 Q76.3887,26.2969 76.3887,26.6406 Q76.3887,26.9844 76.0449,27.3906 Q75.5449,27.9688 74.748,28.2969 Q73.6699,28.75 72.373,28.75 Q70.8574,28.75 69.6543,28.125 Q68.6699,27.625 67.9824,26.5625 Q67.2949,25.4844 67.2949,24.2031 L67.2949,23.0469 Q67.2949,21.7188 67.9043,20.5781 Q68.5293,19.4219 69.623,18.8125 Q70.7168,18.1875 71.9512,18.1875 Q72.6855,18.1875 73.3262,18.3594 Q73.9824,18.5156 74.5293,18.875 Z "
                  fill="#000000"/>
            <text fill="#000000" font-family="sans-serif" font-size="14" lengthAdjust="spacing" textLength="35.793"
                  x="92.2637" y="28.7969">Client
            </text>
            <line style="stroke:#181818;stroke-width:0.5;" x1="22" x2="165.8203" y1="39" y2="39"/>
            <ellipse cx="32" cy="53.8105" fill="none" rx="3" ry="3" style="stroke:#038048;stroke-width:1.0;"/>
            <text fill="#000000" font-family="sans-serif" font-size="14" lengthAdjust="spacing" textLength="35.0205"
                  x="41" y="58.1074">name
            </text>
            <ellipse cx="32" cy="72.4316" fill="none" rx="3" ry="3" style="stroke:#038048;stroke-width:1.0;"/>
            <text fill="#000000" font-family="sans-serif" font-size="14" lengthAdjust="spacing" textLength="119.8203"
                  x="41" y="76.7285">citizenCardNumber
            </text>
            <ellipse cx="32" cy="91.0527" fill="none" rx="3" ry="3" style="stroke:#038048;stroke-width:1.0;"/>
            <text fill="#000000" font-family="sans-serif" font-size="14" lengthAdjust="spacing" textLength="80.1445"
                  x="41" y="95.3496">taxIdNumber
            </text>
            <ellipse cx="32" cy="109.6738" fill="none" rx="3" ry="3" style="stroke:#038048;stroke-width:1.0;"/>
            <text fill="#000000" font-family="sans-serif" font-size="14" lengthAdjust="spacing" textLength="33.4551"
                  x="41" y="113.9707">email
            </text>
            <ellipse cx="32" cy="128.2949" fill="none" rx="3" ry="3" style="stroke:#038048;stroke-width:1.0;"/>
            <text fill="#000000" font-family="sans-serif" font-size="14" lengthAdjust="spacing" textLength="88.7236"
                  x="41" y="132.5918">phoneNumber
            </text>
            <line style="stroke:#181818;stroke-width:0.5;" x1="22" x2="165.8203" y1="140.1055" y2="140.1055"/>
        </g><!--class Property-->
        <g id="elem_Property">
            <rect codeLine="10" fill="#F1F1F1" height="159.7266" id="Property" rx="2.5" ry="2.5"
                  style="stroke:#181818;stroke-width:0.5;" width="176.9375" x="239.5" y="611"/>
            <ellipse cx="297.2637" cy="627" fill="#ADD1B2" rx="11" ry="11" style="stroke:#181818;stroke-width:1.0;"/>
            <path d="M300.0293,622.875 Q300.1855,622.6563 300.373,622.5469 Q300.5605,622.4375 300.7793,622.4375 Q301.1543,622.4375 301.3887,622.7031 Q301.623,622.9531 301.623,623.5625 L301.623,625.0156 Q301.623,625.625 301.3887,625.8906 Q301.1543,626.1563 300.7793,626.1563 Q300.4355,626.1563 300.2324,625.9531 Q300.0293,625.7656 299.9199,625.25 Q299.873,624.8906 299.6855,624.7031 Q299.3574,624.3281 298.748,624.1094 Q298.1387,623.8906 297.5137,623.8906 Q296.748,623.8906 296.1074,624.2188 Q295.4824,624.5469 294.9824,625.2969 Q294.498,626.0469 294.498,627.0781 L294.498,628.1719 Q294.498,629.4063 295.3887,630.2344 Q296.2793,631.0469 297.873,631.0469 Q298.8105,631.0469 299.4668,630.7969 Q299.8574,630.6406 300.2793,630.2031 Q300.5449,629.9375 300.6855,629.8594 Q300.8418,629.7813 301.0449,629.7813 Q301.373,629.7813 301.623,630.0469 Q301.8887,630.2969 301.8887,630.6406 Q301.8887,630.9844 301.5449,631.3906 Q301.0449,631.9688 300.248,632.2969 Q299.1699,632.75 297.873,632.75 Q296.3574,632.75 295.1543,632.125 Q294.1699,631.625 293.4824,630.5625 Q292.7949,629.4844 292.7949,628.2031 L292.7949,627.0469 Q292.7949,625.7188 293.4043,624.5781 Q294.0293,623.4219 295.123,622.8125 Q296.2168,622.1875 297.4512,622.1875 Q298.1855,622.1875 298.8262,622.3594 Q299.4824,622.5156 300.0293,622.875 Z "
                  fill="#000000"/>
            <text fill="#000000" font-family="sans-serif" font-size="14" lengthAdjust="spacing" textLength="52.9102"
                  x="317.7637" y="632.7969">Property
            </text>
            <line style="stroke:#181818;stroke-width:0.5;" x1="240.5" x2="415.4375" y1="643" y2="643"/>
            <ellipse cx="250.5" cy="657.8105" fill="none" rx="3" ry="3" style="stroke:#038048;stroke-width:1.0;"/>
            <text fill="#000000" font-family="sans-serif" font-size="14" lengthAdjust="spacing" textLength="26.4619"
                  x="259.5" y="662.1074">type
            </text>
            <ellipse cx="250.5" cy="676.4316" fill="none" rx="3" ry="3" style="stroke:#038048;stroke-width:1.0;"/>
            <text fill="#000000" font-family="sans-serif" font-size="14" lengthAdjust="spacing" textLength="28.0205"
                  x="259.5" y="680.7285">area
            </text>
            <ellipse cx="250.5" cy="695.0527" fill="none" rx="3" ry="3" style="stroke:#038048;stroke-width:1.0;"/>
            <text fill="#000000" font-family="sans-serif" font-size="14" lengthAdjust="spacing" textLength="48.2549"
                  x="259.5" y="699.3496">location
            </text>
            <ellipse cx="250.5" cy="713.6738" fill="none" rx="3" ry="3" style="stroke:#038048;stroke-width:1.0;"/>
            <text fill="#000000" font-family="sans-serif" font-size="14" lengthAdjust="spacing" textLength="150.9375"
                  x="259.5" y="717.9707">distanceFromCityCenter
            </text>
            <ellipse cx="250.5" cy="732.2949" fill="none" rx="3" ry="3" style="stroke:#038048;stroke-width:1.0;"/>
            <text fill="#000000" font-family="sans-serif" font-size="14" lengthAdjust="spacing" textLength="30.3447"
                  x="259.5" y="736.5918">price
            </text>
            <ellipse cx="250.5" cy="750.916" fill="none" rx="3" ry="3" style="stroke:#038048;stroke-width:1.0;"/>
            <text fill="#000000" font-family="sans-serif" font-size="14" lengthAdjust="spacing" textLength="42.0342"
                  x="259.5" y="755.2129">photos
            </text>
            <line style="stroke:#181818;stroke-width:0.5;" x1="240.5" x2="415.4375" y1="762.7266" y2="762.7266"/>
        </g><!--class House-->
        <g id="elem_House">
            <rect codeLine="19" fill="#F1F1F1" height="178.3477" id="House" rx="2.5" ry="2.5"
                  style="stroke:#181818;stroke-width:0.5;" width="155.9443" x="59" y="832"/>
            <ellipse cx="112.4878" cy="848" fill="#ADD1B2" rx="11" ry="11" style="stroke:#181818;stroke-width:1.0;"/>
            <path d="M115.2534,843.875 Q115.4097,843.6563 115.5972,843.5469 Q115.7847,843.4375 116.0034,843.4375 Q116.3784,843.4375 116.6128,843.7031 Q116.8472,843.9531 116.8472,844.5625 L116.8472,846.0156 Q116.8472,846.625 116.6128,846.8906 Q116.3784,847.1563 116.0034,847.1563 Q115.6597,847.1563 115.4565,846.9531 Q115.2534,846.7656 115.144,846.25 Q115.0972,845.8906 114.9097,845.7031 Q114.5815,845.3281 113.9722,845.1094 Q113.3628,844.8906 112.7378,844.8906 Q111.9722,844.8906 111.3315,845.2188 Q110.7065,845.5469 110.2065,846.2969 Q109.7222,847.0469 109.7222,848.0781 L109.7222,849.1719 Q109.7222,850.4063 110.6128,851.2344 Q111.5034,852.0469 113.0972,852.0469 Q114.0347,852.0469 114.6909,851.7969 Q115.0815,851.6406 115.5034,851.2031 Q115.769,850.9375 115.9097,850.8594 Q116.0659,850.7813 116.269,850.7813 Q116.5972,850.7813 116.8472,851.0469 Q117.1128,851.2969 117.1128,851.6406 Q117.1128,851.9844 116.769,852.3906 Q116.269,852.9688 115.4722,853.2969 Q114.394,853.75 113.0972,853.75 Q111.5815,853.75 110.3784,853.125 Q109.394,852.625 108.7065,851.5625 Q108.019,850.4844 108.019,849.2031 L108.019,848.0469 Q108.019,846.7188 108.6284,845.5781 Q109.2534,844.4219 110.3472,843.8125 Q111.4409,843.1875 112.6753,843.1875 Q113.4097,843.1875 114.0503,843.3594 Q114.7065,843.5156 115.2534,843.875 Z "
                  fill="#000000"/>
            <text fill="#000000" font-family="sans-serif" font-size="14" lengthAdjust="spacing" textLength="40.4688"
                  x="132.9878" y="853.7969">House
            </text>
            <line style="stroke:#181818;stroke-width:0.5;" x1="60" x2="213.9443" y1="864" y2="864"/>
            <ellipse cx="70" cy="878.8105" fill="none" rx="3" ry="3" style="stroke:#038048;stroke-width:1.0;"/>
            <text fill="#000000" font-family="sans-serif" font-size="14" lengthAdjust="spacing" textLength="85.6064"
                  x="79" y="883.1074">hasBasement
            </text>
            <ellipse cx="70" cy="897.4316" fill="none" rx="3" ry="3" style="stroke:#038048;stroke-width:1.0;"/>
            <text fill="#000000" font-family="sans-serif" font-size="14" lengthAdjust="spacing" textLength="49.7998"
                  x="79" y="901.7285">hasAttic
            </text>
            <ellipse cx="70" cy="916.0527" fill="none" rx="3" ry="3" style="stroke:#038048;stroke-width:1.0;"/>
            <text fill="#000000" font-family="sans-serif" font-size="14" lengthAdjust="spacing" textLength="81.7168"
                  x="79" y="920.3496">sunExposure
            </text>
            <ellipse cx="70" cy="934.6738" fill="none" rx="3" ry="3" style="stroke:#038048;stroke-width:1.0;"/>
            <text fill="#000000" font-family="sans-serif" font-size="14" lengthAdjust="spacing" textLength="126.0547"
                  x="79" y="938.9707">numberOfBedrooms
            </text>
            <ellipse cx="70" cy="953.2949" fill="none" rx="3" ry="3" style="stroke:#038048;stroke-width:1.0;"/>
            <text fill="#000000" font-family="sans-serif" font-size="14" lengthAdjust="spacing" textLength="129.9443"
                  x="79" y="957.5918">numberOfBathrooms
            </text>
            <ellipse cx="70" cy="971.916" fill="none" rx="3" ry="3" style="stroke:#038048;stroke-width:1.0;"/>
            <text fill="#000000" font-family="sans-serif" font-size="14" lengthAdjust="spacing" textLength="92.6133"
                  x="79" y="976.2129">parkingSpaces
            </text>
            <ellipse cx="70" cy="990.5371" fill="none" rx="3" ry="3" style="stroke:#038048;stroke-width:1.0;"/>
            <text fill="#000000" font-family="sans-serif" font-size="14" lengthAdjust="spacing" textLength="65.3789"
                  x="79" y="994.834">equipment
            </text>
            <line style="stroke:#181818;stroke-width:0.5;" x1="60" x2="213.9443" y1="1002.3477" y2="1002.3477"/>
        </g><!--class Apartment-->
        <g id="elem_Apartment">
            <rect codeLine="29" fill="#F1F1F1" height="141.1055" id="Apartment" rx="2.5" ry="2.5"
                  style="stroke:#181818;stroke-width:0.5;" width="155.9443" x="250" y="850.5"/>
            <ellipse cx="291.7113" cy="866.5" fill="#ADD1B2" rx="11" ry="11" style="stroke:#181818;stroke-width:1.0;"/>
            <path d="M294.4769,862.375 Q294.6332,862.1563 294.8207,862.0469 Q295.0082,861.9375 295.2269,861.9375 Q295.6019,861.9375 295.8363,862.2031 Q296.0707,862.4531 296.0707,863.0625 L296.0707,864.5156 Q296.0707,865.125 295.8363,865.3906 Q295.6019,865.6563 295.2269,865.6563 Q294.8832,865.6563 294.68,865.4531 Q294.4769,865.2656 294.3675,864.75 Q294.3207,864.3906 294.1332,864.2031 Q293.805,863.8281 293.1957,863.6094 Q292.5863,863.3906 291.9613,863.3906 Q291.1957,863.3906 290.555,863.7188 Q289.93,864.0469 289.43,864.7969 Q288.9457,865.5469 288.9457,866.5781 L288.9457,867.6719 Q288.9457,868.9063 289.8363,869.7344 Q290.7269,870.5469 292.3207,870.5469 Q293.2582,870.5469 293.9144,870.2969 Q294.305,870.1406 294.7269,869.7031 Q294.9925,869.4375 295.1332,869.3594 Q295.2894,869.2813 295.4925,869.2813 Q295.8207,869.2813 296.0707,869.5469 Q296.3363,869.7969 296.3363,870.1406 Q296.3363,870.4844 295.9925,870.8906 Q295.4925,871.4688 294.6957,871.7969 Q293.6175,872.25 292.3207,872.25 Q290.805,872.25 289.6019,871.625 Q288.6175,871.125 287.93,870.0625 Q287.2425,868.9844 287.2425,867.7031 L287.2425,866.5469 Q287.2425,865.2188 287.8519,864.0781 Q288.4769,862.9219 289.5707,862.3125 Q290.6644,861.6875 291.8988,861.6875 Q292.6332,861.6875 293.2738,861.8594 Q293.93,862.0156 294.4769,862.375 Z "
                  fill="#000000"/>
            <text fill="#000000" font-family="sans-serif" font-size="14" lengthAdjust="spacing" textLength="64.5859"
                  x="311.6471" y="872.2969">Apartment
            </text>
            <line style="stroke:#181818;stroke-width:0.5;" x1="251" x2="404.9443" y1="882.5" y2="882.5"/>
            <ellipse cx="261" cy="897.3105" fill="none" rx="3" ry="3" style="stroke:#038048;stroke-width:1.0;"/>
            <text fill="#000000" font-family="sans-serif" font-size="14" lengthAdjust="spacing" textLength="77.0273"
                  x="270" y="901.6074">floorNumber
            </text>
            <ellipse cx="261" cy="915.9316" fill="none" rx="3" ry="3" style="stroke:#038048;stroke-width:1.0;"/>
            <text fill="#000000" font-family="sans-serif" font-size="14" lengthAdjust="spacing" textLength="126.0547"
                  x="270" y="920.2285">numberOfBedrooms
            </text>
            <ellipse cx="261" cy="934.5527" fill="none" rx="3" ry="3" style="stroke:#038048;stroke-width:1.0;"/>
            <text fill="#000000" font-family="sans-serif" font-size="14" lengthAdjust="spacing" textLength="129.9443"
                  x="270" y="938.8496">numberOfBathrooms
            </text>
            <ellipse cx="261" cy="953.1738" fill="none" rx="3" ry="3" style="stroke:#038048;stroke-width:1.0;"/>
            <text fill="#000000" font-family="sans-serif" font-size="14" lengthAdjust="spacing" textLength="92.6133"
                  x="270" y="957.4707">parkingSpaces
            </text>
            <ellipse cx="261" cy="971.7949" fill="none" rx="3" ry="3" style="stroke:#038048;stroke-width:1.0;"/>
            <text fill="#000000" font-family="sans-serif" font-size="14" lengthAdjust="spacing" textLength="65.3789"
                  x="270" y="976.0918">equipment
            </text>
            <line style="stroke:#181818;stroke-width:0.5;" x1="251" x2="404.9443" y1="983.6055" y2="983.6055"/>
        </g><!--class Land-->
        <g id="elem_Land">
            <rect codeLine="37" fill="#F1F1F1" height="48" id="Land" rx="2.5" ry="2.5"
                  style="stroke:#181818;stroke-width:0.5;" width="63.1445" x="441.5" y="897"/>
            <ellipse cx="456.5" cy="913" fill="#ADD1B2" rx="11" ry="11" style="stroke:#181818;stroke-width:1.0;"/>
            <path d="M459.2656,908.875 Q459.4219,908.6563 459.6094,908.5469 Q459.7969,908.4375 460.0156,908.4375 Q460.3906,908.4375 460.625,908.7031 Q460.8594,908.9531 460.8594,909.5625 L460.8594,911.0156 Q460.8594,911.625 460.625,911.8906 Q460.3906,912.1563 460.0156,912.1563 Q459.6719,912.1563 459.4688,911.9531 Q459.2656,911.7656 459.1563,911.25 Q459.1094,910.8906 458.9219,910.7031 Q458.5938,910.3281 457.9844,910.1094 Q457.375,909.8906 456.75,909.8906 Q455.9844,909.8906 455.3438,910.2188 Q454.7188,910.5469 454.2188,911.2969 Q453.7344,912.0469 453.7344,913.0781 L453.7344,914.1719 Q453.7344,915.4063 454.625,916.2344 Q455.5156,917.0469 457.1094,917.0469 Q458.0469,917.0469 458.7031,916.7969 Q459.0938,916.6406 459.5156,916.2031 Q459.7813,915.9375 459.9219,915.8594 Q460.0781,915.7813 460.2813,915.7813 Q460.6094,915.7813 460.8594,916.0469 Q461.125,916.2969 461.125,916.6406 Q461.125,916.9844 460.7813,917.3906 Q460.2813,917.9688 459.4844,918.2969 Q458.4063,918.75 457.1094,918.75 Q455.5938,918.75 454.3906,918.125 Q453.4063,917.625 452.7188,916.5625 Q452.0313,915.4844 452.0313,914.2031 L452.0313,913.0469 Q452.0313,911.7188 452.6406,910.5781 Q453.2656,909.4219 454.3594,908.8125 Q455.4531,908.1875 456.6875,908.1875 Q457.4219,908.1875 458.0625,908.3594 Q458.7188,908.5156 459.2656,908.875 Z "
                  fill="#000000"/>
            <text fill="#000000" font-family="sans-serif" font-size="14" lengthAdjust="spacing" textLength="31.1445"
                  x="470.5" y="918.7969">Land
            </text>
            <line style="stroke:#181818;stroke-width:0.5;" x1="442.5" x2="503.6445" y1="929" y2="929"/>
            <line style="stroke:#181818;stroke-width:0.5;" x1="442.5" x2="503.6445" y1="937" y2="937"/>
        </g><!--class Owner-->
        <g id="elem_Owner">
            <rect codeLine="40" fill="#F1F1F1" height="103.8633" id="Owner" rx="2.5" ry="2.5"
                  style="stroke:#181818;stroke-width:0.5;" width="114.7236" x="345.5" y="428"/>
            <ellipse cx="379.1702" cy="444" fill="#ADD1B2" rx="11" ry="11" style="stroke:#181818;stroke-width:1.0;"/>
            <path d="M381.9358,439.875 Q382.092,439.6563 382.2795,439.5469 Q382.467,439.4375 382.6858,439.4375 Q383.0608,439.4375 383.2952,439.7031 Q383.5295,439.9531 383.5295,440.5625 L383.5295,442.0156 Q383.5295,442.625 383.2952,442.8906 Q383.0608,443.1563 382.6858,443.1563 Q382.342,443.1563 382.1389,442.9531 Q381.9358,442.7656 381.8264,442.25 Q381.7795,441.8906 381.592,441.7031 Q381.2639,441.3281 380.6545,441.1094 Q380.0452,440.8906 379.4202,440.8906 Q378.6545,440.8906 378.0139,441.2188 Q377.3889,441.5469 376.8889,442.2969 Q376.4045,443.0469 376.4045,444.0781 L376.4045,445.1719 Q376.4045,446.4063 377.2952,447.2344 Q378.1858,448.0469 379.7795,448.0469 Q380.717,448.0469 381.3733,447.7969 Q381.7639,447.6406 382.1858,447.2031 Q382.4514,446.9375 382.592,446.8594 Q382.7483,446.7813 382.9514,446.7813 Q383.2795,446.7813 383.5295,447.0469 Q383.7952,447.2969 383.7952,447.6406 Q383.7952,447.9844 383.4514,448.3906 Q382.9514,448.9688 382.1545,449.2969 Q381.0764,449.75 379.7795,449.75 Q378.2639,449.75 377.0608,449.125 Q376.0764,448.625 375.3889,447.5625 Q374.7014,446.4844 374.7014,445.2031 L374.7014,444.0469 Q374.7014,442.7188 375.3108,441.5781 Q375.9358,440.4219 377.0295,439.8125 Q378.1233,439.1875 379.3577,439.1875 Q380.092,439.1875 380.7327,439.3594 Q381.3889,439.5156 381.9358,439.875 Z "
                  fill="#000000"/>
            <text fill="#000000" font-family="sans-serif" font-size="14" lengthAdjust="spacing" textLength="41.2344"
                  x="397.3191" y="449.7969">Owner
            </text>
            <line style="stroke:#181818;stroke-width:0.5;" x1="346.5" x2="459.2236" y1="460" y2="460"/>
            <ellipse cx="356.5" cy="474.8105" fill="none" rx="3" ry="3" style="stroke:#038048;stroke-width:1.0;"/>
            <text fill="#000000" font-family="sans-serif" font-size="14" lengthAdjust="spacing" textLength="35.0205"
                  x="365.5" y="479.1074">name
            </text>
            <ellipse cx="356.5" cy="493.4316" fill="none" rx="3" ry="3" style="stroke:#038048;stroke-width:1.0;"/>
            <text fill="#000000" font-family="sans-serif" font-size="14" lengthAdjust="spacing" textLength="80.1445"
                  x="365.5" y="497.7285">taxIdNumber
            </text>
            <ellipse cx="356.5" cy="512.0527" fill="none" rx="3" ry="3" style="stroke:#038048;stroke-width:1.0;"/>
            <text fill="#000000" font-family="sans-serif" font-size="14" lengthAdjust="spacing" textLength="88.7236"
                  x="365.5" y="516.3496">phoneNumber
            </text>
            <line style="stroke:#181818;stroke-width:0.5;" x1="346.5" x2="459.2236" y1="523.8633" y2="523.8633"/>
        </g><!--class RealEstateAgent-->
        <g id="elem_RealEstateAgent">
            <rect codeLine="46" fill="#F1F1F1" height="122.4844" id="RealEstateAgent" rx="2.5" ry="2.5"
                  style="stroke:#181818;stroke-width:0.5;" width="145.8203" x="269" y="227"/>
            <ellipse cx="287.9384" cy="243" fill="#ADD1B2" rx="11" ry="11" style="stroke:#181818;stroke-width:1.0;"/>
            <path d="M290.704,238.875 Q290.8603,238.6563 291.0478,238.5469 Q291.2353,238.4375 291.454,238.4375 Q291.829,238.4375 292.0634,238.7031 Q292.2978,238.9531 292.2978,239.5625 L292.2978,241.0156 Q292.2978,241.625 292.0634,241.8906 Q291.829,242.1563 291.454,242.1563 Q291.1103,242.1563 290.9071,241.9531 Q290.704,241.7656 290.5946,241.25 Q290.5478,240.8906 290.3603,240.7031 Q290.0321,240.3281 289.4228,240.1094 Q288.8134,239.8906 288.1884,239.8906 Q287.4228,239.8906 286.7821,240.2188 Q286.1571,240.5469 285.6571,241.2969 Q285.1728,242.0469 285.1728,243.0781 L285.1728,244.1719 Q285.1728,245.4063 286.0634,246.2344 Q286.954,247.0469 288.5478,247.0469 Q289.4853,247.0469 290.1415,246.7969 Q290.5321,246.6406 290.954,246.2031 Q291.2196,245.9375 291.3603,245.8594 Q291.5165,245.7813 291.7196,245.7813 Q292.0478,245.7813 292.2978,246.0469 Q292.5634,246.2969 292.5634,246.6406 Q292.5634,246.9844 292.2196,247.3906 Q291.7196,247.9688 290.9228,248.2969 Q289.8446,248.75 288.5478,248.75 Q287.0321,248.75 285.829,248.125 Q284.8446,247.625 284.1571,246.5625 Q283.4696,245.4844 283.4696,244.2031 L283.4696,243.0469 Q283.4696,241.7188 284.079,240.5781 Q284.704,239.4219 285.7978,238.8125 Q286.8915,238.1875 288.1259,238.1875 Q288.8603,238.1875 289.5009,238.3594 Q290.1571,238.5156 290.704,238.875 Z "
                  fill="#000000"/>
            <text fill="#000000" font-family="sans-serif" font-size="14" lengthAdjust="spacing" textLength="105.0684"
                  x="302.8136" y="248.7969">RealEstateAgent
            </text>
            <line style="stroke:#181818;stroke-width:0.5;" x1="270" x2="413.8203" y1="259" y2="259"/>
            <ellipse cx="280" cy="273.8105" fill="none" rx="3" ry="3" style="stroke:#038048;stroke-width:1.0;"/>
            <text fill="#000000" font-family="sans-serif" font-size="14" lengthAdjust="spacing" textLength="35.0205"
                  x="289" y="278.1074">name
            </text>
            <ellipse cx="280" cy="292.4316" fill="none" rx="3" ry="3" style="stroke:#038048;stroke-width:1.0;"/>
            <text fill="#000000" font-family="sans-serif" font-size="14" lengthAdjust="spacing" textLength="119.8203"
                  x="289" y="296.7285">citizenCardNumber
            </text>
            <ellipse cx="280" cy="311.0527" fill="none" rx="3" ry="3" style="stroke:#038048;stroke-width:1.0;"/>
            <text fill="#000000" font-family="sans-serif" font-size="14" lengthAdjust="spacing" textLength="33.4551"
                  x="289" y="315.3496">email
            </text>
            <ellipse cx="280" cy="329.6738" fill="none" rx="3" ry="3" style="stroke:#038048;stroke-width:1.0;"/>
            <text fill="#000000" font-family="sans-serif" font-size="14" lengthAdjust="spacing" textLength="88.7236"
                  x="289" y="333.9707">phoneNumber
            </text>
            <line style="stroke:#181818;stroke-width:0.5;" x1="270" x2="413.8203" y1="341.4844" y2="341.4844"/>
        </g><!--class Listing-->
        <g id="elem_Listing">
            <rect codeLine="53" fill="#F1F1F1" height="103.8633" id="Listing" rx="2.5" ry="2.5"
                  style="stroke:#181818;stroke-width:0.5;" width="112.3789" x="198" y="428"/>
            <ellipse cx="230.9596" cy="444" fill="#ADD1B2" rx="11" ry="11" style="stroke:#181818;stroke-width:1.0;"/>
            <path d="M233.7252,439.875 Q233.8814,439.6563 234.0689,439.5469 Q234.2564,439.4375 234.4752,439.4375 Q234.8502,439.4375 235.0846,439.7031 Q235.3189,439.9531 235.3189,440.5625 L235.3189,442.0156 Q235.3189,442.625 235.0846,442.8906 Q234.8502,443.1563 234.4752,443.1563 Q234.1314,443.1563 233.9283,442.9531 Q233.7252,442.7656 233.6158,442.25 Q233.5689,441.8906 233.3814,441.7031 Q233.0533,441.3281 232.4439,441.1094 Q231.8346,440.8906 231.2096,440.8906 Q230.4439,440.8906 229.8033,441.2188 Q229.1783,441.5469 228.6783,442.2969 Q228.1939,443.0469 228.1939,444.0781 L228.1939,445.1719 Q228.1939,446.4063 229.0846,447.2344 Q229.9752,448.0469 231.5689,448.0469 Q232.5064,448.0469 233.1627,447.7969 Q233.5533,447.6406 233.9752,447.2031 Q234.2408,446.9375 234.3814,446.8594 Q234.5377,446.7813 234.7408,446.7813 Q235.0689,446.7813 235.3189,447.0469 Q235.5846,447.2969 235.5846,447.6406 Q235.5846,447.9844 235.2408,448.3906 Q234.7408,448.9688 233.9439,449.2969 Q232.8658,449.75 231.5689,449.75 Q230.0533,449.75 228.8502,449.125 Q227.8658,448.625 227.1783,447.5625 Q226.4908,446.4844 226.4908,445.2031 L226.4908,444.0469 Q226.4908,442.7188 227.1002,441.5781 Q227.7252,440.4219 228.8189,439.8125 Q229.9127,439.1875 231.1471,439.1875 Q231.8814,439.1875 232.5221,439.3594 Q233.1783,439.5156 233.7252,439.875 Z "
                  fill="#000000"/>
            <text fill="#000000" font-family="sans-serif" font-size="14" lengthAdjust="spacing" textLength="40.4688"
                  x="248.9506" y="449.7969">Listing
            </text>
            <line style="stroke:#181818;stroke-width:0.5;" x1="199" x2="309.3789" y1="460" y2="460"/>
            <ellipse cx="209" cy="474.8105" fill="none" rx="3" ry="3" style="stroke:#038048;stroke-width:1.0;"/>
            <text fill="#000000" font-family="sans-serif" font-size="14" lengthAdjust="spacing" textLength="73.9375"
                  x="218" y="479.1074">publishDate
            </text>
            <ellipse cx="209" cy="493.4316" fill="none" rx="3" ry="3" style="stroke:#038048;stroke-width:1.0;"/>
            <text fill="#000000" font-family="sans-serif" font-size="14" lengthAdjust="spacing" textLength="86.3789"
                  x="218" y="497.7285">businessType
            </text>
            <ellipse cx="209" cy="512.0527" fill="none" rx="3" ry="3" style="stroke:#038048;stroke-width:1.0;"/>
            <text fill="#000000" font-family="sans-serif" font-size="14" lengthAdjust="spacing" textLength="73.9033"
                  x="218" y="516.3496">commission
            </text>
            <line style="stroke:#181818;stroke-width:0.5;" x1="199" x2="309.3789" y1="523.8633" y2="523.8633"/>
        </g><!--class Visit-->
        <g id="elem_Visit">
            <rect codeLine="59" fill="#F1F1F1" height="48" id="Visit" rx="2.5" ry="2.5"
                  style="stroke:#181818;stroke-width:0.5;" width="58.4482" x="7" y="264"/>
            <ellipse cx="22" cy="280" fill="#ADD1B2" rx="11" ry="11" style="stroke:#181818;stroke-width:1.0;"/>
            <path d="M24.7656,275.875 Q24.9219,275.6563 25.1094,275.5469 Q25.2969,275.4375 25.5156,275.4375 Q25.8906,275.4375 26.125,275.7031 Q26.3594,275.9531 26.3594,276.5625 L26.3594,278.0156 Q26.3594,278.625 26.125,278.8906 Q25.8906,279.1563 25.5156,279.1563 Q25.1719,279.1563 24.9688,278.9531 Q24.7656,278.7656 24.6563,278.25 Q24.6094,277.8906 24.4219,277.7031 Q24.0938,277.3281 23.4844,277.1094 Q22.875,276.8906 22.25,276.8906 Q21.4844,276.8906 20.8438,277.2188 Q20.2188,277.5469 19.7188,278.2969 Q19.2344,279.0469 19.2344,280.0781 L19.2344,281.1719 Q19.2344,282.4063 20.125,283.2344 Q21.0156,284.0469 22.6094,284.0469 Q23.5469,284.0469 24.2031,283.7969 Q24.5938,283.6406 25.0156,283.2031 Q25.2813,282.9375 25.4219,282.8594 Q25.5781,282.7813 25.7813,282.7813 Q26.1094,282.7813 26.3594,283.0469 Q26.625,283.2969 26.625,283.6406 Q26.625,283.9844 26.2813,284.3906 Q25.7813,284.9688 24.9844,285.2969 Q23.9063,285.75 22.6094,285.75 Q21.0938,285.75 19.8906,285.125 Q18.9063,284.625 18.2188,283.5625 Q17.5313,282.4844 17.5313,281.2031 L17.5313,280.0469 Q17.5313,278.7188 18.1406,277.5781 Q18.7656,276.4219 19.8594,275.8125 Q20.9531,275.1875 22.1875,275.1875 Q22.9219,275.1875 23.5625,275.3594 Q24.2188,275.5156 24.7656,275.875 Z "
                  fill="#000000"/>
            <text fill="#000000" font-family="sans-serif" font-size="14" lengthAdjust="spacing" textLength="26.4482"
                  x="36" y="285.7969">Visit
            </text>
            <line style="stroke:#181818;stroke-width:0.5;" x1="8" x2="64.4482" y1="296" y2="296"/>
            <line style="stroke:#181818;stroke-width:0.5;" x1="8" x2="64.4482" y1="304" y2="304"/>
        </g><!--class Branch-->
        <g id="elem_Branch">
            <rect codeLine="62" fill="#F1F1F1" height="122.4844" id="Branch" rx="2.5" ry="2.5"
                  style="stroke:#181818;stroke-width:0.5;" width="113.1719" x="285.5" y="16.5"/>
            <ellipse cx="317.0661" cy="32.5" fill="#ADD1B2" rx="11" ry="11" style="stroke:#181818;stroke-width:1.0;"/>
            <path d="M319.8317,28.375 Q319.9879,28.1563 320.1754,28.0469 Q320.3629,27.9375 320.5817,27.9375 Q320.9567,27.9375 321.1911,28.2031 Q321.4254,28.4531 321.4254,29.0625 L321.4254,30.5156 Q321.4254,31.125 321.1911,31.3906 Q320.9567,31.6563 320.5817,31.6563 Q320.2379,31.6563 320.0348,31.4531 Q319.8317,31.2656 319.7223,30.75 Q319.6754,30.3906 319.4879,30.2031 Q319.1598,29.8281 318.5504,29.6094 Q317.9411,29.3906 317.3161,29.3906 Q316.5504,29.3906 315.9098,29.7188 Q315.2848,30.0469 314.7848,30.7969 Q314.3004,31.5469 314.3004,32.5781 L314.3004,33.6719 Q314.3004,34.9063 315.1911,35.7344 Q316.0817,36.5469 317.6754,36.5469 Q318.6129,36.5469 319.2692,36.2969 Q319.6598,36.1406 320.0817,35.7031 Q320.3473,35.4375 320.4879,35.3594 Q320.6442,35.2813 320.8473,35.2813 Q321.1754,35.2813 321.4254,35.5469 Q321.6911,35.7969 321.6911,36.1406 Q321.6911,36.4844 321.3473,36.8906 Q320.8473,37.4688 320.0504,37.7969 Q318.9723,38.25 317.6754,38.25 Q316.1598,38.25 314.9567,37.625 Q313.9723,37.125 313.2848,36.0625 Q312.5973,34.9844 312.5973,33.7031 L312.5973,32.5469 Q312.5973,31.2188 313.2067,30.0781 Q313.8317,28.9219 314.9254,28.3125 Q316.0192,27.6875 317.2536,27.6875 Q317.9879,27.6875 318.6286,27.8594 Q319.2848,28.0156 319.8317,28.375 Z "
                  fill="#000000"/>
            <text fill="#000000" font-family="sans-serif" font-size="14" lengthAdjust="spacing" textLength="44.3584"
                  x="334.7474" y="38.2969">Branch
            </text>
            <line style="stroke:#181818;stroke-width:0.5;" x1="286.5" x2="397.6719" y1="48.5" y2="48.5"/>
            <ellipse cx="296.5" cy="63.3105" fill="none" rx="3" ry="3" style="stroke:#038048;stroke-width:1.0;"/>
            <text fill="#000000" font-family="sans-serif" font-size="14" lengthAdjust="spacing" textLength="30.3584"
                  x="305.5" y="67.6074">code
            </text>
            <ellipse cx="296.5" cy="81.9316" fill="none" rx="3" ry="3" style="stroke:#038048;stroke-width:1.0;"/>
            <text fill="#000000" font-family="sans-serif" font-size="14" lengthAdjust="spacing" textLength="35.0205"
                  x="305.5" y="86.2285">name
            </text>
            <ellipse cx="296.5" cy="100.5527" fill="none" rx="3" ry="3" style="stroke:#038048;stroke-width:1.0;"/>
            <text fill="#000000" font-family="sans-serif" font-size="14" lengthAdjust="spacing" textLength="49.8066"
                  x="305.5" y="104.8496">address
            </text>
            <ellipse cx="296.5" cy="119.1738" fill="none" rx="3" ry="3" style="stroke:#038048;stroke-width:1.0;"/>
            <text fill="#000000" font-family="sans-serif" font-size="14" lengthAdjust="spacing" textLength="87.1719"
                  x="305.5" y="123.4707">openingHours
            </text>
            <line style="stroke:#181818;stroke-width:0.5;" x1="286.5" x2="397.6719" y1="130.9844" y2="130.9844"/>
        </g><!--class Sale-->
        <g id="elem_Sale">
            <rect codeLine="69" fill="#F1F1F1" height="103.8633" id="Sale" rx="2.5" ry="2.5"
                  style="stroke:#181818;stroke-width:0.5;" width="134.1855" x="100" y="236"/>
            <ellipse cx="148.8325" cy="252" fill="#ADD1B2" rx="11" ry="11" style="stroke:#181818;stroke-width:1.0;"/>
            <path d="M151.5981,247.875 Q151.7544,247.6563 151.9419,247.5469 Q152.1294,247.4375 152.3481,247.4375 Q152.7231,247.4375 152.9575,247.7031 Q153.1919,247.9531 153.1919,248.5625 L153.1919,250.0156 Q153.1919,250.625 152.9575,250.8906 Q152.7231,251.1563 152.3481,251.1563 Q152.0044,251.1563 151.8013,250.9531 Q151.5981,250.7656 151.4888,250.25 Q151.4419,249.8906 151.2544,249.7031 Q150.9263,249.3281 150.3169,249.1094 Q149.7075,248.8906 149.0825,248.8906 Q148.3169,248.8906 147.6763,249.2188 Q147.0513,249.5469 146.5513,250.2969 Q146.0669,251.0469 146.0669,252.0781 L146.0669,253.1719 Q146.0669,254.4063 146.9575,255.2344 Q147.8481,256.0469 149.4419,256.0469 Q150.3794,256.0469 151.0356,255.7969 Q151.4263,255.6406 151.8481,255.2031 Q152.1138,254.9375 152.2544,254.8594 Q152.4106,254.7813 152.6138,254.7813 Q152.9419,254.7813 153.1919,255.0469 Q153.4575,255.2969 153.4575,255.6406 Q153.4575,255.9844 153.1138,256.3906 Q152.6138,256.9688 151.8169,257.2969 Q150.7388,257.75 149.4419,257.75 Q147.9263,257.75 146.7231,257.125 Q145.7388,256.625 145.0513,255.5625 Q144.3638,254.4844 144.3638,253.2031 L144.3638,252.0469 Q144.3638,250.7188 144.9731,249.5781 Q145.5981,248.4219 146.6919,247.8125 Q147.7856,247.1875 149.02,247.1875 Q149.7544,247.1875 150.395,247.3594 Q151.0513,247.5156 151.5981,247.875 Z "
                  fill="#000000"/>
            <text fill="#000000" font-family="sans-serif" font-size="14" lengthAdjust="spacing" textLength="28.0205"
                  x="169.3325" y="257.7969">Sale
            </text>
            <line style="stroke:#181818;stroke-width:0.5;" x1="101" x2="233.1855" y1="268" y2="268"/>
            <ellipse cx="111" cy="282.8105" fill="none" rx="3" ry="3" style="stroke:#038048;stroke-width:1.0;"/>
            <text fill="#000000" font-family="sans-serif" font-size="14" lengthAdjust="spacing" textLength="77.8271"
                  x="120" y="287.1074">% saleValue
            </text>
            <ellipse cx="111" cy="301.4316" fill="none" rx="3" ry="3" style="stroke:#038048;stroke-width:1.0;"/>
            <text fill="#000000" font-family="sans-serif" font-size="14" lengthAdjust="spacing" textLength="108.1855"
                  x="120" y="305.7285">responsibleAgent
            </text>
            <ellipse cx="111" cy="320.0527" fill="none" rx="3" ry="3" style="stroke:#038048;stroke-width:1.0;"/>
            <text fill="#000000" font-family="sans-serif" font-size="14" lengthAdjust="spacing" textLength="70.8135"
                  x="120" y="324.3496">buyerClient
            </text>
            <line style="stroke:#181818;stroke-width:0.5;" x1="101" x2="233.1855" y1="331.8633" y2="331.8633"/>
        </g><!--link Client to Visit-->
        <g id="link_Client_Visit">
            <path codeLine="75"
                  d="M59.29,148.16 C55.34,158.01 51.75,168.14 49,178 C40.97,206.82 37.9,241.29 36.73,263.64 "
                  fill="none" id="Client-Visit" style="stroke:#181818;stroke-width:1.0;"/>
            <text fill="#000000" font-family="sans-serif" font-size="13" lengthAdjust="spacing" textLength="58.5381"
                  x="50" y="193.0283">schedules
            </text>
            <text fill="#000000" font-family="sans-serif" font-size="13" lengthAdjust="spacing" textLength="7.23"
                  x="48.3707" y="170.3613">1
            </text>
            <text fill="#000000" font-family="sans-serif" font-size="13" lengthAdjust="spacing" textLength="19.5127"
                  x="15.6002" y="252.6942">0..*
            </text>
        </g><!--link Owner to Property-->
        <g id="link_Owner_Property">
            <path codeLine="76" d="M384.65,532.13 C376.15,555.81 365.86,584.5 356.39,610.89 " fill="none"
                  id="Owner-Property" style="stroke:#181818;stroke-width:1.0;"/>
            <text fill="#000000" font-family="sans-serif" font-size="13" lengthAdjust="spacing" textLength="30.3481"
                  x="373" y="577.0283">owns
            </text>
            <text fill="#000000" font-family="sans-serif" font-size="13" lengthAdjust="spacing" textLength="7.23"
                  x="374.8829" y="553.9539">1
            </text>
            <text fill="#000000" font-family="sans-serif" font-size="13" lengthAdjust="spacing" textLength="19.5127"
                  x="339.1579" y="599.7756">0..*
            </text>
        </g><!--link Property to House-->
        <g id="link_Property_House">
            <path codeLine="77" d="M261.73,771.1 C245.36,790.65 227.71,811.72 210.99,831.68 " fill="none"
                  id="Property-House" style="stroke:#181818;stroke-width:1.0;"/>
        </g><!--link Property to Apartment-->
        <g id="link_Property_Apartment">
            <path codeLine="78" d="M328,771.1 C328,796.83 328,825.17 328,850.17 " fill="none" id="Property-Apartment"
                  style="stroke:#181818;stroke-width:1.0;"/>
        </g><!--link Property to Land-->
        <g id="link_Property_Land">
            <path codeLine="79"
                  d="M384.13,771.11 C397.55,790.77 411.59,811.96 424,832 C437.35,853.56 451.3,878.92 460.88,896.87 "
                  fill="none" id="Property-Land" style="stroke:#181818;stroke-width:1.0;"/>
        </g><!--link RealEstateAgent to Listing-->
        <g id="link_RealEstateAgent_Listing">
            <path codeLine="80" d="M314.16,349.12 C302.42,374.45 288.91,403.62 277.67,427.9 " fill="none"
                  id="RealEstateAgent-Listing" style="stroke:#181818;stroke-width:1.0;"/>
            <text fill="#000000" font-family="sans-serif" font-size="13" lengthAdjust="spacing" textLength="53.479"
                  x="299" y="394.0283">manages
            </text>
            <text fill="#000000" font-family="sans-serif" font-size="13" lengthAdjust="spacing" textLength="7.23"
                  x="303.3654" y="371.6215">1
            </text>
            <text fill="#000000" font-family="sans-serif" font-size="13" lengthAdjust="spacing" textLength="19.5127"
                  x="260.5831" y="416.8139">0..*
            </text>
        </g><!--link Listing to Property-->
        <g id="link_Listing_Property">
            <path codeLine="81" d="M272.1,532.13 C280.49,555.81 290.65,584.5 299.99,610.89 " fill="none"
                  id="Listing-Property" style="stroke:#181818;stroke-width:1.0;"/>
            <text fill="#000000" font-family="sans-serif" font-size="13" lengthAdjust="spacing" textLength="59.249"
                  x="290" y="577.0283">advertises
            </text>
            <text fill="#000000" font-family="sans-serif" font-size="13" lengthAdjust="spacing" textLength="19.5127"
                  x="254.2104" y="553.9539">0..*
            </text>
            <text fill="#000000" font-family="sans-serif" font-size="13" lengthAdjust="spacing" textLength="7.23"
                  x="290.0987" y="599.7756">1
            </text>
        </g><!--link Branch to RealEstateAgent-->
        <g id="link_Branch_RealEstateAgent">
            <path codeLine="82" d="M342,138.53 C342,166.2 342,198.97 342,226.67 " fill="none"
                  id="Branch-RealEstateAgent" style="stroke:#181818;stroke-width:1.0;"/>
            <text fill="#000000" font-family="sans-serif" font-size="13" lengthAdjust="spacing" textLength="48.4072"
                  x="343" y="193.0283">employs
            </text>
            <text fill="#000000" font-family="sans-serif" font-size="13" lengthAdjust="spacing" textLength="7.23"
                  x="334.577" y="161.0205">1
            </text>
            <text fill="#000000" font-family="sans-serif" font-size="13" lengthAdjust="spacing" textLength="19.5127"
                  x="321.9416" y="215.613">0..*
            </text>
        </g><!--link Client to Sale-->
        <g id="link_Client_Sale">
            <path codeLine="83" d="M118.41,148.22 C128.44,176.87 139.84,209.44 149.08,235.82 " fill="none"
                  id="Client-Sale" style="stroke:#181818;stroke-width:1.0;"/>
            <text fill="#000000" font-family="sans-serif" font-size="13" lengthAdjust="spacing" textLength="27.46"
                  x="136" y="193.0283">buys
            </text>
            <text fill="#000000" font-family="sans-serif" font-size="13" lengthAdjust="spacing" textLength="7.23"
                  x="113.4885" y="170.0557">1
            </text>
            <text fill="#000000" font-family="sans-serif" font-size="13" lengthAdjust="spacing" textLength="19.5127"
                  x="126.4174" y="224.7232">0..*
            </text>
        </g><!--link Sale to Listing-->
        <g id="link_Sale_Listing">
            <path codeLine="84" d="M190.43,340.17 C202.86,367.31 218.09,400.58 230.53,427.74 " fill="none"
                  id="Sale-Listing" style="stroke:#181818;stroke-width:1.0;"/>
            <text fill="#000000" font-family="sans-serif" font-size="13" lengthAdjust="spacing" textLength="62.8672"
                  x="217" y="394.0283">isLinkedTo
            </text>
            <text fill="#000000" font-family="sans-serif" font-size="13" lengthAdjust="spacing" textLength="7.23"
                  x="185.9864" y="361.9991">1
            </text>
            <text fill="#000000" font-family="sans-serif" font-size="13" lengthAdjust="spacing" textLength="7.23"
                  x="219.8959" y="416.6324">1
            </text>
        </g><!--SRC=[hLDDRzim3BtxLmW1TjdGehdwbcGTLY1OXxNedP7OcAY-9ifhlM7_VPJjk7PG33li99Ac7f_UexK5PhMpX3whNvLI7pmuBAUcJ3_Hxo2PBwqxO2h532ytinGTa2r1R8B7iVwxgdIF-ZM5Y2bt0sxkOeyB2Q6SDcZ857o93N46h_5J2cv7kTi9cs52JAHnd903lu9_3YtZWDm0Ru7HoQKntUHCkiJS-kkN6BXDFOZl6Tu-Rj6a41mlQf2RgHWXFP4_taNGs1VmUqkndp0ns4XJTfDkZpQ4z2hDVnsr1szaofJVFdjCIxlEd7dJa6y8zbgKphWv_flVVpTuBxO9zG4djWTBt7mKz98UMYQFpFUZxJeuHyp5yEd-0p7b-RksIRQW6V1qC3Zd1yOamIkXh9MNkR82QROHTs37XNYdME87i6r_Kwx5u9aETdZtGA_3DAnzGHX_WDLwfIukrEhgylBzQgHNAzODcjQAEuFkowvfosiLdZrNKouj_P8kAjFIBAh5t-hSdUMOazQrSk3XA6HEbR6XjAuNTC3ya8XOUaTXbv3d0sk5BjhGyTjozFhMIfJZgezFdzTpTiHxyazexaFr1m00]-->
    </g>
</svg>