<?xml version="1.0" encoding="UTF-8" standalone="no"?><svg xmlns="http://www.w3.org/2000/svg" xmlns:xlink="http://www.w3.org/1999/xlink" contentScriptType="application/ecmascript" contentStyleType="text/css" height="1085px" preserveAspectRatio="none" style="width:1734px;height:1085px;background:#FFFFFF;" version="1.1" viewBox="0 0 1734 1085" width="1734px" zoomAndPan="magnify"><defs><filter height="300%" id="f1bbl1dcsyqu19" width="300%" x="-1" y="-1"><feGaussianBlur result="blurOut" stdDeviation="2.0"/><feColorMatrix in="blurOut" result="blurOut2" type="matrix" values="0 0 0 0 0 0 0 0 0 0 0 0 0 0 0 0 0 0 .4 0"/><feOffset dx="4.0" dy="4.0" in="blurOut2" result="blurOut3"/><feBlend in="SourceGraphic" in2="blurOut3" mode="normal"/></filter></defs><g><rect fill="#FFFFFF" filter="url(#f1bbl1dcsyqu19)" height="982.8945" style="stroke:#A80036;stroke-width:1.0;" width="10" x="49" y="50.4883"/><rect fill="#FFFFFF" filter="url(#f1bbl1dcsyqu19)" height="952.584" style="stroke:#A80036;stroke-width:1.0;" width="10" x="355" y="71.7988"/><rect fill="#FFFFFF" filter="url(#f1bbl1dcsyqu19)" height="40.3105" style="stroke:#A80036;stroke-width:1.0;" width="10" x="360" y="200.0859"/><rect fill="#FFFFFF" filter="url(#f1bbl1dcsyqu19)" height="29.3105" style="stroke:#A80036;stroke-width:1.0;" width="10" x="835" y="835.5195"/><rect fill="#FFFFFF" filter="url(#f1bbl1dcsyqu19)" height="29.3105" style="stroke:#A80036;stroke-width:1.0;" width="10" x="835" y="894.1406"/><rect fill="#FFFFFF" filter="url(#f1bbl1dcsyqu19)" height="718.3652" style="stroke:#A80036;stroke-width:1.0;" width="10" x="1051" y="276.707"/><rect fill="#FFFFFF" filter="url(#f1bbl1dcsyqu19)" height="157.5527" style="stroke:#A80036;stroke-width:1.0;" width="10" x="1056" y="801.209"/><rect fill="#FFFFFF" filter="url(#f1bbl1dcsyqu19)" height="412.3926" style="stroke:#A80036;stroke-width:1.0;" width="10" x="1262" y="351.5059"/><rect fill="#FFFFFF" filter="url(#f1bbl1dcsyqu19)" height="54.1211" style="stroke:#A80036;stroke-width:1.0;" width="10" x="1267" y="402.627"/><rect fill="#FFFFFF" filter="url(#f1bbl1dcsyqu19)" height="164.7305" style="stroke:#A80036;stroke-width:1.0;" width="10" x="1400" y="517.3691"/><rect fill="#FFFFFF" filter="url(#f1bbl1dcsyqu19)" height="29.3105" style="stroke:#A80036;stroke-width:1.0;" width="10" x="1537" y="616.4785"/><rect fill="#FFFFFF" filter="url(#f1bbl1dcsyqu19)" height="211.3516" style="stroke:#000000;stroke-width:2.0;" width="409.5" x="1192.5" y="478.748"/><rect fill="#FFFFFF" filter="url(#f1bbl1dcsyqu19)" height="75.9316" style="stroke:#000000;stroke-width:2.0;" width="250.5" x="1341.5" y="577.8574"/><line style="stroke:#A80036;stroke-width:1.0;stroke-dasharray:5.0,5.0;" x1="54" x2="54" y1="40.4883" y2="1042.3828"/><line style="stroke:#A80036;stroke-width:1.0;stroke-dasharray:5.0,5.0;" x1="359.5" x2="359.5" y1="40.4883" y2="1042.3828"/><line style="stroke:#A80036;stroke-width:1.0;stroke-dasharray:5.0,5.0;" x1="685" x2="685" y1="112.543" y2="1042.3828"/><line style="stroke:#A80036;stroke-width:1.0;stroke-dasharray:5.0,5.0;" x1="840" x2="840" y1="158.0313" y2="1042.3828"/><line style="stroke:#A80036;stroke-width:1.0;stroke-dasharray:5.0,5.0;" x1="1055.5" x2="1055.5" y1="40.4883" y2="1042.3828"/><line style="stroke:#A80036;stroke-width:1.0;stroke-dasharray:5.0,5.0;" x1="1266.5" x2="1266.5" y1="317.4512" y2="1042.3828"/><line style="stroke:#A80036;stroke-width:1.0;stroke-dasharray:5.0,5.0;" x1="1404.5" x2="1404.5" y1="40.4883" y2="1042.3828"/><line style="stroke:#A80036;stroke-width:1.0;stroke-dasharray:5.0,5.0;" x1="1542" x2="1542" y1="558.1133" y2="1042.3828"/><line style="stroke:#A80036;stroke-width:1.0;stroke-dasharray:5.0,5.0;" x1="1658" x2="1658" y1="729.8438" y2="1042.3828"/><rect fill="#FEFECE" filter="url(#f1bbl1dcsyqu19)" height="30.4883" style="stroke:#A80036;stroke-width:1.5;" width="94" x="5" y="5"/><text fill="#000000" font-family="sans-serif" font-size="14" lengthAdjust="spacing" textLength="80" x="12" y="25.5352">:HTTPClient</text><rect fill="#FEFECE" filter="url(#f1bbl1dcsyqu19)" height="30.4883" style="stroke:#A80036;stroke-width:1.5;" width="94" x="5" y="1041.3828"/><text fill="#000000" font-family="sans-serif" font-size="14" lengthAdjust="spacing" textLength="80" x="12" y="1061.918">:HTTPClient</text><rect fill="#FEFECE" filter="url(#f1bbl1dcsyqu19)" height="30.4883" style="stroke:#A80036;stroke-width:1.5;" width="97" x="309.5" y="5"/><text fill="#000000" font-family="sans-serif" font-size="14" lengthAdjust="spacing" textLength="83" x="316.5" y="25.5352">:HTTPServer</text><rect fill="#FEFECE" filter="url(#f1bbl1dcsyqu19)" height="30.4883" style="stroke:#A80036;stroke-width:1.5;" width="97" x="309.5" y="1041.3828"/><text fill="#000000" font-family="sans-serif" font-size="14" lengthAdjust="spacing" textLength="83" x="316.5" y="1061.918">:HTTPServer</text><rect fill="#FEFECE" filter="url(#f1bbl1dcsyqu19)" height="30.4883" style="stroke:#A80036;stroke-width:1.5;" width="132" x="617" y="1041.3828"/><text fill="#000000" font-family="sans-serif" font-size="14" lengthAdjust="spacing" textLength="118" x="624" y="1061.918">req:HTTPRequest</text><rect fill="#FEFECE" filter="url(#f1bbl1dcsyqu19)" height="30.4883" style="stroke:#A80036;stroke-width:1.5;" width="150" x="763" y="1041.3828"/><text fill="#000000" font-family="sans-serif" font-size="14" lengthAdjust="spacing" textLength="136" x="770" y="1061.918">resp:HTTPResponse</text><rect fill="#FEFECE" filter="url(#f1bbl1dcsyqu19)" height="30.4883" style="stroke:#A80036;stroke-width:1.5;" width="165" x="971.5" y="5"/><text fill="#000000" font-family="sans-serif" font-size="14" lengthAdjust="spacing" textLength="151" x="978.5" y="25.5352">handler:RouteHandler</text><rect fill="#FEFECE" filter="url(#f1bbl1dcsyqu19)" height="30.4883" style="stroke:#A80036;stroke-width:1.5;" width="165" x="971.5" y="1041.3828"/><text fill="#000000" font-family="sans-serif" font-size="14" lengthAdjust="spacing" textLength="151" x="978.5" y="1061.918">handler:RouteHandler</text><rect fill="#FEFECE" filter="url(#f1bbl1dcsyqu19)" height="30.4883" style="stroke:#A80036;stroke-width:1.5;" width="125" x="1202.5" y="1041.3828"/><text fill="#000000" font-family="sans-serif" font-size="14" lengthAdjust="spacing" textLength="111" x="1209.5" y="1061.918">:{XXX}Controller</text><rect fill="#FEFECE" filter="url(#f1bbl1dcsyqu19)" height="30.4883" style="stroke:#A80036;stroke-width:1.5;" width="103" x="1351.5" y="5"/><text fill="#000000" font-family="sans-serif" font-size="14" lengthAdjust="spacing" textLength="89" x="1358.5" y="25.5352">{XXX}Mapper</text><rect fill="#FEFECE" filter="url(#f1bbl1dcsyqu19)" height="30.4883" style="stroke:#A80036;stroke-width:1.5;" width="103" x="1351.5" y="1041.3828"/><text fill="#000000" font-family="sans-serif" font-size="14" lengthAdjust="spacing" textLength="89" x="1358.5" y="1061.918">{XXX}Mapper</text><rect fill="#FEFECE" filter="url(#f1bbl1dcsyqu19)" height="30.4883" style="stroke:#A80036;stroke-width:1.5;" width="76" x="1502" y="1041.3828"/><text fill="#000000" font-family="sans-serif" font-size="14" lengthAdjust="spacing" textLength="62" x="1509" y="1061.918">json:Json</text><rect fill="#FEFECE" filter="url(#f1bbl1dcsyqu19)" height="30.4883" style="stroke:#A80036;stroke-width:1.5;" width="128" x="1592" y="1041.3828"/><text fill="#000000" font-family="sans-serif" font-size="14" lengthAdjust="spacing" textLength="114" x="1599" y="1061.918">result:HttpResult</text><rect fill="#FFFFFF" filter="url(#f1bbl1dcsyqu19)" height="982.8945" style="stroke:#A80036;stroke-width:1.0;" width="10" x="49" y="50.4883"/><rect fill="#FFFFFF" filter="url(#f1bbl1dcsyqu19)" height="952.584" style="stroke:#A80036;stroke-width:1.0;" width="10" x="355" y="71.7988"/><rect fill="#FFFFFF" filter="url(#f1bbl1dcsyqu19)" height="40.3105" style="stroke:#A80036;stroke-width:1.0;" width="10" x="360" y="200.0859"/><rect fill="#FFFFFF" filter="url(#f1bbl1dcsyqu19)" height="29.3105" style="stroke:#A80036;stroke-width:1.0;" width="10" x="835" y="835.5195"/><rect fill="#FFFFFF" filter="url(#f1bbl1dcsyqu19)" height="29.3105" style="stroke:#A80036;stroke-width:1.0;" width="10" x="835" y="894.1406"/><rect fill="#FFFFFF" filter="url(#f1bbl1dcsyqu19)" height="718.3652" style="stroke:#A80036;stroke-width:1.0;" width="10" x="1051" y="276.707"/><rect fill="#FFFFFF" filter="url(#f1bbl1dcsyqu19)" height="157.5527" style="stroke:#A80036;stroke-width:1.0;" width="10" x="1056" y="801.209"/><rect fill="#FFFFFF" filter="url(#f1bbl1dcsyqu19)" height="412.3926" style="stroke:#A80036;stroke-width:1.0;" width="10" x="1262" y="351.5059"/><rect fill="#FFFFFF" filter="url(#f1bbl1dcsyqu19)" height="54.1211" style="stroke:#A80036;stroke-width:1.0;" width="10" x="1267" y="402.627"/><rect fill="#FFFFFF" filter="url(#f1bbl1dcsyqu19)" height="164.7305" style="stroke:#A80036;stroke-width:1.0;" width="10" x="1400" y="517.3691"/><rect fill="#FFFFFF" filter="url(#f1bbl1dcsyqu19)" height="29.3105" style="stroke:#A80036;stroke-width:1.0;" width="10" x="1537" y="616.4785"/><polygon fill="#A80036" points="343,67.7988,353,71.7988,343,75.7988,347,71.7988" style="stroke:#A80036;stroke-width:1.0;"/><line style="stroke:#A80036;stroke-width:1.0;" x1="59" x2="349" y1="71.7988" y2="71.7988"/><text fill="#000000" font-family="sans-serif" font-size="13" font-weight="bold" lengthAdjust="spacing" textLength="9" x="66" y="67.0566">1</text><text fill="#000000" font-family="sans-serif" font-size="13" lengthAdjust="spacing" textLength="264" x="79" y="67.0566">HTTP Request(method, uri, headers, body)</text><polygon fill="#A80036" points="605,97.1094,615,101.1094,605,105.1094,609,101.1094" style="stroke:#A80036;stroke-width:1.0;"/><line style="stroke:#A80036;stroke-width:1.0;" x1="365" x2="611" y1="101.1094" y2="101.1094"/><text fill="#000000" font-family="sans-serif" font-size="13" font-weight="bold" lengthAdjust="spacing" textLength="9" x="372" y="96.3672">2</text><text fill="#000000" font-family="sans-serif" font-size="13" lengthAdjust="spacing" textLength="215" x="385" y="96.3672">create(method, uri, headers, body)</text><rect fill="#FEFECE" filter="url(#f1bbl1dcsyqu19)" height="30.4883" style="stroke:#A80036;stroke-width:1.5;" width="132" x="617" y="79.7988"/><text fill="#000000" font-family="sans-serif" font-size="14" lengthAdjust="spacing" textLength="118" x="624" y="100.334">req:HTTPRequest</text><polygon fill="#A80036" points="751,142.5977,761,146.5977,751,150.5977,755,146.5977" style="stroke:#A80036;stroke-width:1.0;"/><line style="stroke:#A80036;stroke-width:1.0;" x1="365" x2="757" y1="146.5977" y2="146.5977"/><text fill="#000000" font-family="sans-serif" font-size="13" font-weight="bold" lengthAdjust="spacing" textLength="9" x="372" y="141.8555">3</text><text fill="#000000" font-family="sans-serif" font-size="13" lengthAdjust="spacing" textLength="70" x="385" y="141.8555">create(404)</text><rect fill="#FEFECE" filter="url(#f1bbl1dcsyqu19)" height="30.4883" style="stroke:#A80036;stroke-width:1.5;" width="150" x="763" y="125.2871"/><text fill="#000000" font-family="sans-serif" font-size="14" lengthAdjust="spacing" textLength="136" x="770" y="145.8223">resp:HTTPResponse</text><line style="stroke:#A80036;stroke-width:1.0;" x1="365" x2="412" y1="187.0859" y2="187.0859"/><line style="stroke:#A80036;stroke-width:1.0;" x1="412" x2="412" y1="187.0859" y2="200.0859"/><line style="stroke:#A80036;stroke-width:1.0;" x1="371" x2="412" y1="200.0859" y2="200.0859"/><polygon fill="#A80036" points="381,196.0859,371,200.0859,381,204.0859,377,200.0859" style="stroke:#A80036;stroke-width:1.0;"/><text fill="#000000" font-family="sans-serif" font-size="13" font-weight="bold" lengthAdjust="spacing" textLength="9" x="377" y="182.3438">4</text><text fill="#000000" font-family="sans-serif" font-size="13" lengthAdjust="spacing" textLength="102" x="390" y="182.3438">findHandler(req)</text><line style="stroke:#A80036;stroke-width:1.0;stroke-dasharray:2.0,2.0;" x1="370" x2="412" y1="239.3965" y2="239.3965"/><line style="stroke:#A80036;stroke-width:1.0;stroke-dasharray:2.0,2.0;" x1="412" x2="412" y1="239.3965" y2="252.3965"/><line style="stroke:#A80036;stroke-width:1.0;stroke-dasharray:2.0,2.0;" x1="365" x2="412" y1="252.3965" y2="252.3965"/><polygon fill="#A80036" points="375,248.3965,365,252.3965,375,256.3965,371,252.3965" style="stroke:#A80036;stroke-width:1.0;"/><text fill="#000000" font-family="sans-serif" font-size="13" font-weight="bold" lengthAdjust="spacing" textLength="9" x="377" y="234.6543">5</text><text fill="#000000" font-family="sans-serif" font-size="13" lengthAdjust="spacing" textLength="47" x="390" y="234.6543">handler</text><polygon fill="#A80036" points="1039,272.707,1049,276.707,1039,280.707,1043,276.707" style="stroke:#A80036;stroke-width:1.0;"/><line style="stroke:#A80036;stroke-width:1.0;" x1="365" x2="1045" y1="276.707" y2="276.707"/><text fill="#000000" font-family="sans-serif" font-size="13" font-weight="bold" lengthAdjust="spacing" textLength="9" x="372" y="271.9648">6</text><text fill="#000000" font-family="sans-serif" font-size="13" lengthAdjust="spacing" textLength="80" x="385" y="271.9648">run(req,resp)</text><polygon fill="#A80036" points="1190.5,302.0176,1200.5,306.0176,1190.5,310.0176,1194.5,306.0176" style="stroke:#A80036;stroke-width:1.0;"/><line style="stroke:#A80036;stroke-width:1.0;" x1="1061" x2="1196.5" y1="306.0176" y2="306.0176"/><text fill="#000000" font-family="sans-serif" font-size="13" font-weight="bold" lengthAdjust="spacing" textLength="9" x="1068" y="301.2754">7</text><text fill="#000000" font-family="sans-serif" font-size="13" lengthAdjust="spacing" textLength="58" x="1081" y="301.2754">create(...)</text><rect fill="#FEFECE" filter="url(#f1bbl1dcsyqu19)" height="30.4883" style="stroke:#A80036;stroke-width:1.5;" width="125" x="1202.5" y="284.707"/><text fill="#000000" font-family="sans-serif" font-size="14" lengthAdjust="spacing" textLength="111" x="1209.5" y="305.2422">:{XXX}Controller</text><polygon fill="#A80036" points="1250,347.5059,1260,351.5059,1250,355.5059,1254,351.5059" style="stroke:#A80036;stroke-width:1.0;"/><line style="stroke:#A80036;stroke-width:1.0;" x1="1061" x2="1256" y1="351.5059" y2="351.5059"/><text fill="#000000" font-family="sans-serif" font-size="13" font-weight="bold" lengthAdjust="spacing" textLength="9" x="1068" y="346.7637">8</text><text fill="#000000" font-family="sans-serif" font-size="13" lengthAdjust="spacing" textLength="89" x="1081" y="346.7637">callMethod(...)</text><line style="stroke:#A80036;stroke-width:1.0;" x1="1272" x2="1319" y1="389.627" y2="389.627"/><line style="stroke:#A80036;stroke-width:1.0;" x1="1319" x2="1319" y1="389.627" y2="402.627"/><line style="stroke:#A80036;stroke-width:1.0;" x1="1278" x2="1319" y1="402.627" y2="402.627"/><polygon fill="#A80036" points="1288,398.627,1278,402.627,1288,406.627,1284,402.627" style="stroke:#A80036;stroke-width:1.0;"/><text fill="#000000" font-family="sans-serif" font-size="13" font-weight="bold" lengthAdjust="spacing" textLength="9" x="1284" y="384.8848">9</text><text fill="#000000" font-family="sans-serif" font-size="13" lengthAdjust="spacing" textLength="88" x="1297" y="384.8848">doSomeStuff()</text><path d="M1397,364.5059 L1397,419.5059 L1621,419.5059 L1621,374.5059 L1611,364.5059 L1397,364.5059 " fill="#FBFB77" filter="url(#f1bbl1dcsyqu19)" style="stroke:#A80036;stroke-width:1.0;"/><path d="M1611,364.5059 L1611,374.5059 L1621,374.5059 L1611,364.5059 " fill="#FBFB77" style="stroke:#A80036;stroke-width:1.0;"/><text fill="#000000" font-family="sans-serif" font-size="13" lengthAdjust="spacing" textLength="194" x="1403" y="382.0742">some interactions with Person,</text><text fill="#000000" font-family="sans-serif" font-size="13" lengthAdjust="spacing" textLength="142" x="1403" y="397.3848">{XXX}Service and so on</text><text fill="#000000" font-family="sans-serif" font-size="13" lengthAdjust="spacing" textLength="203" x="1403" y="412.6953">Similar to any other Controller. "</text><line style="stroke:#A80036;stroke-width:1.0;stroke-dasharray:2.0,2.0;" x1="1277" x2="1319" y1="455.748" y2="455.748"/><line style="stroke:#A80036;stroke-width:1.0;stroke-dasharray:2.0,2.0;" x1="1319" x2="1319" y1="455.748" y2="468.748"/><line style="stroke:#A80036;stroke-width:1.0;stroke-dasharray:2.0,2.0;" x1="1272" x2="1319" y1="468.748" y2="468.748"/><polygon fill="#A80036" points="1282,464.748,1272,468.748,1282,472.748,1278,468.748" style="stroke:#A80036;stroke-width:1.0;"/><text fill="#000000" font-family="sans-serif" font-size="13" font-weight="bold" lengthAdjust="spacing" textLength="18" x="1284" y="451.0059">10</text><text fill="#000000" font-family="sans-serif" font-size="13" lengthAdjust="spacing" textLength="39" x="1306" y="451.0059">object</text><path d="M1357,435.9375 L1357,460.9375 L1618,460.9375 L1618,445.9375 L1608,435.9375 L1357,435.9375 " fill="#FBFB77" filter="url(#f1bbl1dcsyqu19)" style="stroke:#A80036;stroke-width:1.0;"/><path d="M1608,435.9375 L1608,445.9375 L1618,445.9375 L1608,435.9375 " fill="#FBFB77" style="stroke:#A80036;stroke-width:1.0;"/><text fill="#000000" font-family="sans-serif" font-size="13" lengthAdjust="spacing" textLength="240" x="1363" y="453.5059">'object' is some domain object or void</text><path d="M1192.5,478.748 L1259.5,478.748 L1259.5,485.748 L1249.5,495.748 L1192.5,495.748 L1192.5,478.748 " fill="#EEEEEE" style="stroke:#000000;stroke-width:1.0;"/><rect fill="none" height="211.3516" style="stroke:#000000;stroke-width:2.0;" width="409.5" x="1192.5" y="478.748"/><text fill="#000000" font-family="sans-serif" font-size="13" font-weight="bold" lengthAdjust="spacing" textLength="22" x="1207.5" y="492.3164">opt</text><polygon fill="#A80036" points="1388,513.3691,1398,517.3691,1388,521.3691,1392,517.3691" style="stroke:#A80036;stroke-width:1.0;"/><line style="stroke:#A80036;stroke-width:1.0;" x1="1272" x2="1394" y1="517.3691" y2="517.3691"/><text fill="#000000" font-family="sans-serif" font-size="13" font-weight="bold" lengthAdjust="spacing" textLength="18" x="1279" y="512.627">11</text><text fill="#000000" font-family="sans-serif" font-size="13" lengthAdjust="spacing" textLength="87" x="1301" y="512.627">toJson(object)</text><polygon fill="#A80036" points="1490,542.6797,1500,546.6797,1490,550.6797,1494,546.6797" style="stroke:#A80036;stroke-width:1.0;"/><line style="stroke:#A80036;stroke-width:1.0;" x1="1410" x2="1496" y1="546.6797" y2="546.6797"/><text fill="#000000" font-family="sans-serif" font-size="13" font-weight="bold" lengthAdjust="spacing" textLength="18" x="1417" y="541.9375">12</text><text fill="#000000" font-family="sans-serif" font-size="13" lengthAdjust="spacing" textLength="46" x="1439" y="541.9375">create()</text><rect fill="#FEFECE" filter="url(#f1bbl1dcsyqu19)" height="30.4883" style="stroke:#A80036;stroke-width:1.5;" width="76" x="1502" y="525.3691"/><text fill="#000000" font-family="sans-serif" font-size="14" lengthAdjust="spacing" textLength="62" x="1509" y="545.9043">json:Json</text><path d="M1341.5,577.8574 L1415.5,577.8574 L1415.5,584.8574 L1405.5,594.8574 L1341.5,594.8574 L1341.5,577.8574 " fill="#EEEEEE" style="stroke:#000000;stroke-width:1.0;"/><rect fill="none" height="75.9316" style="stroke:#000000;stroke-width:2.0;" width="250.5" x="1341.5" y="577.8574"/><text fill="#000000" font-family="sans-serif" font-size="13" font-weight="bold" lengthAdjust="spacing" textLength="29" x="1356.5" y="591.4258">loop</text><polygon fill="#A80036" points="1525,612.4785,1535,616.4785,1525,620.4785,1529,616.4785" style="stroke:#A80036;stroke-width:1.0;"/><line style="stroke:#A80036;stroke-width:1.0;" x1="1410" x2="1531" y1="616.4785" y2="616.4785"/><text fill="#000000" font-family="sans-serif" font-size="13" font-weight="bold" lengthAdjust="spacing" textLength="18" x="1417" y="611.7363">13</text><text fill="#000000" font-family="sans-serif" font-size="13" lengthAdjust="spacing" textLength="71" x="1439" y="611.7363">set{XXX}(...)</text><polygon fill="#A80036" points="1421,641.7891,1411,645.7891,1421,649.7891,1417,645.7891" style="stroke:#A80036;stroke-width:1.0;"/><line style="stroke:#A80036;stroke-width:1.0;stroke-dasharray:2.0,2.0;" x1="1415" x2="1541" y1="645.7891" y2="645.7891"/><text fill="#000000" font-family="sans-serif" font-size="13" font-weight="bold" lengthAdjust="spacing" textLength="18" x="1427" y="641.0469">14</text><text fill="#000000" font-family="sans-serif" font-size="13" lengthAdjust="spacing" textLength="0" x="1453" y="641.0469"/><polygon fill="#A80036" points="1283,678.0996,1273,682.0996,1283,686.0996,1279,682.0996" style="stroke:#A80036;stroke-width:1.0;"/><line style="stroke:#A80036;stroke-width:1.0;stroke-dasharray:2.0,2.0;" x1="1277" x2="1404" y1="682.0996" y2="682.0996"/><text fill="#000000" font-family="sans-serif" font-size="13" font-weight="bold" lengthAdjust="spacing" textLength="18" x="1289" y="677.3574">15</text><text fill="#000000" font-family="sans-serif" font-size="13" lengthAdjust="spacing" textLength="27" x="1311" y="677.3574">json</text><polygon fill="#A80036" points="1580,714.4102,1590,718.4102,1580,722.4102,1584,718.4102" style="stroke:#A80036;stroke-width:1.0;"/><line style="stroke:#A80036;stroke-width:1.0;stroke-dasharray:2.0,2.0;" x1="1272" x2="1586" y1="718.4102" y2="718.4102"/><text fill="#000000" font-family="sans-serif" font-size="13" font-weight="bold" lengthAdjust="spacing" textLength="18" x="1279" y="713.668">16</text><text fill="#000000" font-family="sans-serif" font-size="13" lengthAdjust="spacing" textLength="116" x="1301" y="713.668">create(status,json)</text><rect fill="#FEFECE" filter="url(#f1bbl1dcsyqu19)" height="30.4883" style="stroke:#A80036;stroke-width:1.5;" width="128" x="1592" y="697.0996"/><text fill="#000000" font-family="sans-serif" font-size="14" lengthAdjust="spacing" textLength="114" x="1599" y="717.6348">result:HttpResult</text><polygon fill="#A80036" points="1072,759.8984,1062,763.8984,1072,767.8984,1068,763.8984" style="stroke:#A80036;stroke-width:1.0;"/><line style="stroke:#A80036;stroke-width:1.0;stroke-dasharray:2.0,2.0;" x1="1066" x2="1266" y1="763.8984" y2="763.8984"/><text fill="#000000" font-family="sans-serif" font-size="13" font-weight="bold" lengthAdjust="spacing" textLength="18" x="1078" y="759.1563">17</text><text fill="#000000" font-family="sans-serif" font-size="13" lengthAdjust="spacing" textLength="36" x="1100" y="759.1563">result</text><line style="stroke:#A80036;stroke-width:1.0;" x1="1061" x2="1108" y1="788.209" y2="788.209"/><line style="stroke:#A80036;stroke-width:1.0;" x1="1108" x2="1108" y1="788.209" y2="801.209"/><line style="stroke:#A80036;stroke-width:1.0;" x1="1067" x2="1108" y1="801.209" y2="801.209"/><polygon fill="#A80036" points="1077,797.209,1067,801.209,1077,805.209,1073,801.209" style="stroke:#A80036;stroke-width:1.0;"/><text fill="#000000" font-family="sans-serif" font-size="13" font-weight="bold" lengthAdjust="spacing" textLength="18" x="1073" y="783.4668">18</text><text fill="#000000" font-family="sans-serif" font-size="13" lengthAdjust="spacing" textLength="165" x="1095" y="783.4668">setHttpResult(resp, result)</text><polygon fill="#A80036" points="856,831.5195,846,835.5195,856,839.5195,852,835.5195" style="stroke:#A80036;stroke-width:1.0;"/><line style="stroke:#A80036;stroke-width:1.0;" x1="850" x2="1055" y1="835.5195" y2="835.5195"/><text fill="#000000" font-family="sans-serif" font-size="13" font-weight="bold" lengthAdjust="spacing" textLength="18" x="862" y="830.7773">19</text><text fill="#000000" font-family="sans-serif" font-size="13" lengthAdjust="spacing" textLength="145" x="884" y="830.7773">setStatus(result.status)</text><polygon fill="#A80036" points="1044,860.8301,1054,864.8301,1044,868.8301,1048,864.8301" style="stroke:#A80036;stroke-width:1.0;"/><line style="stroke:#A80036;stroke-width:1.0;stroke-dasharray:2.0,2.0;" x1="840" x2="1050" y1="864.8301" y2="864.8301"/><text fill="#000000" font-family="sans-serif" font-size="13" font-weight="bold" lengthAdjust="spacing" textLength="18" x="847" y="860.0879">20</text><text fill="#000000" font-family="sans-serif" font-size="13" lengthAdjust="spacing" textLength="0" x="873" y="860.0879"/><polygon fill="#A80036" points="856,890.1406,846,894.1406,856,898.1406,852,894.1406" style="stroke:#A80036;stroke-width:1.0;"/><line style="stroke:#A80036;stroke-width:1.0;" x1="850" x2="1055" y1="894.1406" y2="894.1406"/><text fill="#000000" font-family="sans-serif" font-size="13" font-weight="bold" lengthAdjust="spacing" textLength="18" x="862" y="889.3984">21</text><text fill="#000000" font-family="sans-serif" font-size="13" lengthAdjust="spacing" textLength="165" x="884" y="889.3984">setBody(result.jsonObject)</text><polygon fill="#A80036" points="1044,919.4512,1054,923.4512,1044,927.4512,1048,923.4512" style="stroke:#A80036;stroke-width:1.0;"/><line style="stroke:#A80036;stroke-width:1.0;stroke-dasharray:2.0,2.0;" x1="840" x2="1050" y1="923.4512" y2="923.4512"/><text fill="#000000" font-family="sans-serif" font-size="13" font-weight="bold" lengthAdjust="spacing" textLength="18" x="847" y="918.709">22</text><text fill="#000000" font-family="sans-serif" font-size="13" lengthAdjust="spacing" textLength="0" x="873" y="918.709"/><line style="stroke:#A80036;stroke-width:1.0;stroke-dasharray:2.0,2.0;" x1="1066" x2="1108" y1="957.7617" y2="957.7617"/><line style="stroke:#A80036;stroke-width:1.0;stroke-dasharray:2.0,2.0;" x1="1108" x2="1108" y1="957.7617" y2="970.7617"/><line style="stroke:#A80036;stroke-width:1.0;stroke-dasharray:2.0,2.0;" x1="1061" x2="1108" y1="970.7617" y2="970.7617"/><polygon fill="#A80036" points="1071,966.7617,1061,970.7617,1071,974.7617,1067,970.7617" style="stroke:#A80036;stroke-width:1.0;"/><text fill="#000000" font-family="sans-serif" font-size="13" font-weight="bold" lengthAdjust="spacing" textLength="18" x="1073" y="953.0195">23</text><text fill="#000000" font-family="sans-serif" font-size="13" lengthAdjust="spacing" textLength="0" x="1099" y="953.0195"/><polygon fill="#A80036" points="376,991.0723,366,995.0723,376,999.0723,372,995.0723" style="stroke:#A80036;stroke-width:1.0;"/><line style="stroke:#A80036;stroke-width:1.0;stroke-dasharray:2.0,2.0;" x1="370" x2="1055" y1="995.0723" y2="995.0723"/><text fill="#000000" font-family="sans-serif" font-size="13" font-weight="bold" lengthAdjust="spacing" textLength="18" x="382" y="990.3301">24</text><text fill="#000000" font-family="sans-serif" font-size="13" lengthAdjust="spacing" textLength="27" x="404" y="990.3301">resp</text><polygon fill="#A80036" points="70,1020.3828,60,1024.3828,70,1028.3828,66,1024.3828" style="stroke:#A80036;stroke-width:1.0;"/><line style="stroke:#A80036;stroke-width:1.0;stroke-dasharray:2.0,2.0;" x1="64" x2="359" y1="1024.3828" y2="1024.3828"/><text fill="#000000" font-family="sans-serif" font-size="13" font-weight="bold" lengthAdjust="spacing" textLength="18" x="76" y="1019.6406">25</text><text fill="#000000" font-family="sans-serif" font-size="13" lengthAdjust="spacing" textLength="27" x="98" y="1019.6406">resp</text><!--MD5=[bff5b75132b548f87a14d8227766b317]
@startuml
'https://plantuml.com/sequence-diagram

autoactivate on
autonumber

participant ":HTTPClient" as HTTPClient
participant ":HTTPServer" as HTTPServer
participant "req:HTTPRequest" as HTTPRequest
participant "resp:HTTPResponse" as HTTPResponse
participant "handler:RouteHandler" as Handler
participant ":{XXX}Controller" as Ctrl
participant "{XXX}Mapper" as Mapper
participant "json:Json" as Json
participant "result:HttpResult" as Result

activate HTTPClient

HTTPClient -> HTTPServer: HTTP Request(method, uri, headers, body)
HTTPServer -> HTTPRequest**: create(method, uri, headers, body)
HTTPServer -> HTTPResponse**: create(404)
HTTPServer -> HTTPServer: findHandler(req)
HTTPServer - -> HTTPServer: handler
HTTPServer -> Handler: run(req,resp)

Handler -> Ctrl**: create(...)
Handler -> Ctrl: callMethod(...)

Ctrl -> Ctrl: doSomeStuff()
note right: some interactions with Person, \n{XXX}Service and so on \nSimilar to any other Controller. "
Ctrl - -> Ctrl: object
note right: 'object' is some domain object or void
opt
Ctrl -> Mapper: toJson(object)
Mapper -> Json**: create()
loop
Mapper -> Json: set{XXX}(...)
Json - -> Mapper:
end loop
Mapper - -> Ctrl: json
end opt
Ctrl - -> Result**: create(status,json)
Ctrl - -> Handler: result
Handler -> Handler: setHttpResult(resp, result)
Handler -> HTTPResponse: setStatus(result.status)
HTTPResponse - -> Handler:
Handler -> HTTPResponse: setBody(result.jsonObject)
HTTPResponse - -> Handler:
Handler - -> Handler:
Handler - -> HTTPServer: resp
HTTPServer - -> HTTPClient: resp
@enduml

@startuml

autoactivate on
autonumber

participant ":HTTPClient" as HTTPClient
participant ":HTTPServer" as HTTPServer
participant "req:HTTPRequest" as HTTPRequest
participant "resp:HTTPResponse" as HTTPResponse
participant "handler:RouteHandler" as Handler
participant ":{XXX}Controller" as Ctrl
participant "{XXX}Mapper" as Mapper
participant "json:Json" as Json
participant "result:HttpResult" as Result

activate HTTPClient

HTTPClient -> HTTPServer: HTTP Request(method, uri, headers, body)
HTTPServer -> HTTPRequest**: create(method, uri, headers, body)
HTTPServer -> HTTPResponse**: create(404)
HTTPServer -> HTTPServer: findHandler(req)
HTTPServer - -> HTTPServer: handler
HTTPServer -> Handler: run(req,resp)

Handler -> Ctrl**: create(...)
Handler -> Ctrl: callMethod(...)

Ctrl -> Ctrl: doSomeStuff()
note right: some interactions with Person, \n{XXX}Service and so on \nSimilar to any other Controller. "
Ctrl - -> Ctrl: object
note right: 'object' is some domain object or void
opt
Ctrl -> Mapper: toJson(object)
Mapper -> Json**: create()
loop
Mapper -> Json: set{XXX}(...)
Json - -> Mapper:
end loop
Mapper - -> Ctrl: json
end opt
Ctrl - -> Result**: create(status,json)
Ctrl - -> Handler: result
Handler -> Handler: setHttpResult(resp, result)
Handler -> HTTPResponse: setStatus(result.status)
HTTPResponse - -> Handler:
Handler -> HTTPResponse: setBody(result.jsonObject)
HTTPResponse - -> Handler:
Handler - -> Handler:
Handler - -> HTTPServer: resp
HTTPServer - -> HTTPClient: resp
@enduml

PlantUML version 1.2021.7(Sun May 23 13:40:07 WEST 2021)
(GPL source distribution)
Java Runtime: OpenJDK Runtime Environment
JVM: OpenJDK 64-Bit Server VM
Default Encoding: UTF-8
Language: en
Country: PT
--></g></svg>