<svg xmlns="http://www.w3.org/2000/svg" xmlns:xlink="http://www.w3.org/1999/xlink" contentStyleType="text/css" height="1930px" preserveAspectRatio="none" style="width:560px;height:1930px;background:#FFFFFF;" version="1.1" viewBox="0 0 560 1930" width="560px" zoomAndPan="magnify"><defs/><g><!--cluster System Dream House--><g id="cluster_System Dream House"><rect fill="none" height="1917" rx="2.5" ry="2.5" style="stroke:#181818;stroke-width:1.0;" width="371" x="183" y="7"/><text fill="#000000" font-family="sans-serif" font-size="14" font-weight="bold" lengthAdjust="spacing" textLength="143.9512" x="296.5244" y="24.1074">System Dream House</text></g><g id="elem_US01"><ellipse cx="368.5826" cy="151.1165" fill="#F1F1F1" rx="98.5826" ry="22.1165" style="stroke:#181818;stroke-width:0.5;"/><text fill="#000000" font-family="sans-serif" font-size="14" lengthAdjust="spacing" textLength="154.8408" x="289.6285" y="155.4631">US01 - Register property</text></g><g id="elem_US02"><ellipse cx="368.3955" cy="68.8791" fill="#F1F1F1" rx="112.3955" ry="24.8791" style="stroke:#181818;stroke-width:0.5;"/><text fill="#000000" font-family="sans-serif" font-size="14" lengthAdjust="spacing" textLength="185.9922" x="275.3994" y="72.676">US02 - Select or assign agent</text></g><g id="elem_US03"><ellipse cx="368.4452" cy="536.089" fill="#F1F1F1" rx="113.4452" ry="25.089" style="stroke:#181818;stroke-width:0.5;"/><text fill="#000000" font-family="sans-serif" font-size="14" lengthAdjust="spacing" textLength="188.3096" x="274.2904" y="539.8859">US03 - Publish property listing</text></g><g id="elem_US04"><ellipse cx="368.694" cy="1210.9388" fill="#F1F1F1" rx="120.194" ry="26.4388" style="stroke:#181818;stroke-width:0.5;"/><text fill="#000000" font-family="sans-serif" font-size="14" lengthAdjust="spacing" textLength="203.1025" x="267.1427" y="1214.7357">US04 - View available properties</text></g><g id="elem_US05"><ellipse cx="368.6363" cy="1300.2273" fill="#F1F1F1" rx="124.1363" ry="27.2273" style="stroke:#181818;stroke-width:0.5;"/><text fill="#000000" font-family="sans-serif" font-size="14" lengthAdjust="spacing" textLength="211.668" x="262.8023" y="1304.0241">US05 - Schedule property viewing</text></g><g id="elem_US06"><ellipse cx="368.626" cy="623.2252" fill="#F1F1F1" rx="121.626" ry="26.7252" style="stroke:#181818;stroke-width:0.5;"/><text fill="#000000" font-family="sans-serif" font-size="14" lengthAdjust="spacing" textLength="206.2197" x="265.5161" y="627.0221">US06 - Manage viewing requests</text></g><g id="elem_US07"><ellipse cx="368.6769" cy="906.0354" fill="#F1F1F1" rx="133.1769" ry="29.0354" style="stroke:#181818;stroke-width:0.5;"/><text fill="#000000" font-family="sans-serif" font-size="14" lengthAdjust="spacing" textLength="231.1367" x="253.1085" y="909.8323">US07 - Send purchase/rental request</text></g><g id="elem_US08"><ellipse cx="368.5007" cy="720.0001" fill="#F1F1F1" rx="163.0007" ry="35.0001" style="stroke:#181818;stroke-width:0.5;"/><text fill="#000000" font-family="sans-serif" font-size="14" lengthAdjust="spacing" textLength="294.1572" x="221.4221" y="723.797">US08 - Approve/Reject purchase/rental request</text></g><g id="elem_US09"><ellipse cx="368.4069" cy="1393.0814" fill="#F1F1F1" rx="143.4069" ry="31.0814" style="stroke:#181818;stroke-width:0.5;"/><text fill="#000000" font-family="sans-serif" font-size="14" lengthAdjust="spacing" textLength="252.9297" x="241.942" y="1396.8783">US09 - Manage properties and branches</text></g><g id="elem_US10"><ellipse cx="368.6995" cy="1479.9399" fill="#F1F1F1" rx="90.1995" ry="20.4399" style="stroke:#181818;stroke-width:0.5;"/><text fill="#000000" font-family="sans-serif" font-size="14" lengthAdjust="spacing" textLength="134.6064" x="298.3963" y="1484.7436">US10 - Register store</text></g><g id="elem_US11"><ellipse cx="368.2833" cy="1556.7567" fill="#F1F1F1" rx="91.7833" ry="20.7567" style="stroke:#181818;stroke-width:0.5;"/><text fill="#000000" font-family="sans-serif" font-size="14" lengthAdjust="spacing" textLength="138.5166" x="296.025" y="1561.5604">US11 - Register agent</text></g><g id="elem_US20"><ellipse cx="368.4811" cy="1715.7962" fill="#F1F1F1" rx="116.9811" ry="25.7962" style="stroke:#181818;stroke-width:0.5;"/><text fill="#000000" font-family="sans-serif" font-size="14" lengthAdjust="spacing" textLength="196.082" x="270.4401" y="1719.5931">US20 - Display listed properties</text></g><g id="elem_US21"><ellipse cx="368.329" cy="1634.0658" fill="#F1F1F1" rx="90.829" ry="20.5658" style="stroke:#181818;stroke-width:0.5;"/><text fill="#000000" font-family="sans-serif" font-size="14" lengthAdjust="spacing" textLength="136.165" x="297.2465" y="1638.8695">US21 - Register client</text></g><g id="elem_US30"><ellipse cx="368.4794" cy="1113.7959" fill="#F1F1F1" rx="164.4794" ry="35.2959" style="stroke:#181818;stroke-width:0.5;"/><text fill="#000000" font-family="sans-serif" font-size="14" lengthAdjust="spacing" textLength="297.2471" x="219.8559" y="1117.5928">US30 - Request to list a property for sale or rent</text></g><g id="elem_US31"><ellipse cx="368.718" cy="815.9436" fill="#F1F1F1" rx="115.218" ry="25.4436" style="stroke:#181818;stroke-width:0.5;"/><text fill="#000000" font-family="sans-serif" font-size="14" lengthAdjust="spacing" textLength="192.2129" x="272.6116" y="819.7405">US31 - Request a visit booking</text></g><g id="elem_US40"><ellipse cx="368.3655" cy="240.7731" fill="#F1F1F1" rx="151.8655" ry="32.7731" style="stroke:#181818;stroke-width:0.5;"/><text fill="#000000" font-family="sans-serif" font-size="14" lengthAdjust="spacing" textLength="270.7988" x="232.9661" y="244.57">US40 - Publish a sale or rent advertisement</text></g><g id="elem_US51"><ellipse cx="368.6326" cy="1802.0265" fill="#F1F1F1" rx="110.6326" ry="24.5265" style="stroke:#181818;stroke-width:0.5;"/><text fill="#000000" font-family="sans-serif" font-size="14" lengthAdjust="spacing" textLength="182.0889" x="277.5882" y="1805.8234">US51 - Get a list of all agents</text></g><g id="elem_US32"><ellipse cx="368.7169" cy="1006.8434" fill="#F1F1F1" rx="169.7169" ry="36.3434" style="stroke:#181818;stroke-width:0.5;"/><text fill="#000000" font-family="sans-serif" font-size="14" lengthAdjust="spacing" textLength="308.1709" x="214.6314" y="1010.6402">US32 - Place an order to property purchase/lease</text></g><g id="elem_US41"><ellipse cx="368.2692" cy="339.0538" fill="#F1F1F1" rx="138.2692" ry="30.0538" style="stroke:#181818;stroke-width:0.5;"/><text fill="#000000" font-family="sans-serif" font-size="14" lengthAdjust="spacing" textLength="242.0127" x="247.2629" y="342.8507">US41 - Reply to a visit booking request</text></g><g id="elem_US42"><ellipse cx="368.3503" cy="439.9701" fill="#F1F1F1" rx="167.8503" ry="35.9701" style="stroke:#181818;stroke-width:0.5;"/><text fill="#000000" font-family="sans-serif" font-size="14" lengthAdjust="spacing" textLength="304.2813" x="216.2097" y="443.7669">US42 - Evaluate a property purchase/lease order</text></g><g id="elem_US50"><ellipse cx="368.3001" cy="1884.86" fill="#F1F1F1" rx="102.3001" ry="22.86" style="stroke:#181818;stroke-width:0.5;"/><text fill="#000000" font-family="sans-serif" font-size="14" lengthAdjust="spacing" textLength="163.4131" x="286.1467" y="1888.8252">US50 - List all deals made</text></g><!--entity owner--><g id="elem_owner"><ellipse cx="72.6172" cy="79" fill="#F1F1F1" rx="8" ry="8" style="stroke:#181818;stroke-width:0.5;"/><path d="M72.6172,87 L72.6172,114 M59.6172,95 L85.6172,95 M72.6172,114 L59.6172,129 M72.6172,114 L85.6172,129 " fill="none" style="stroke:#181818;stroke-width:0.5;"/><text fill="#000000" font-family="sans-serif" font-size="14" lengthAdjust="spacing" textLength="41.2344" x="52" y="145.6074">Owner</text></g><!--entity agent--><g id="elem_agent"><ellipse cx="72.293" cy="457" fill="#F1F1F1" rx="8" ry="8" style="stroke:#181818;stroke-width:0.5;"/><path d="M72.293,465 L72.293,492 M59.293,473 L85.293,473 M72.293,492 L59.293,507 M72.293,492 L85.293,507 " fill="none" style="stroke:#181818;stroke-width:0.5;"/><text fill="#000000" font-family="sans-serif" font-size="14" lengthAdjust="spacing" textLength="36.5859" x="54" y="523.6074">Agent</text></g><!--entity client--><g id="elem_client"><ellipse cx="72.3965" cy="1030" fill="#F1F1F1" rx="8" ry="8" style="stroke:#181818;stroke-width:0.5;"/><path d="M72.3965,1038 L72.3965,1065 M59.3965,1046 L85.3965,1046 M72.3965,1065 L59.3965,1080 M72.3965,1065 L85.3965,1080 " fill="none" style="stroke:#181818;stroke-width:0.5;"/><text fill="#000000" font-family="sans-serif" font-size="14" lengthAdjust="spacing" textLength="35.793" x="54.5" y="1096.6074">Client</text></g><!--entity admin--><g id="elem_admin"><ellipse cx="72.5171" cy="1449" fill="#F1F1F1" rx="8" ry="8" style="stroke:#181818;stroke-width:0.5;"/><path d="M72.5171,1457 L72.5171,1484 M59.5171,1465 L85.5171,1465 M72.5171,1484 L59.5171,1499 M72.5171,1484 L85.5171,1499 " fill="none" style="stroke:#181818;stroke-width:0.5;"/><text fill="#000000" font-family="sans-serif" font-size="14" lengthAdjust="spacing" textLength="133.0342" x="6" y="1515.6074">System Administrator</text></g><!--entity unregisteredUser--><g id="elem_unregisteredUser"><ellipse cx="72.2998" cy="1658" fill="#F1F1F1" rx="8" ry="8" style="stroke:#181818;stroke-width:0.5;"/><path d="M72.2998,1666 L72.2998,1693 M59.2998,1674 L85.2998,1674 M72.2998,1693 L59.2998,1708 M72.2998,1693 L85.2998,1708 " fill="none" style="stroke:#181818;stroke-width:0.5;"/><text fill="#000000" font-family="sans-serif" font-size="14" lengthAdjust="spacing" textLength="113.5996" x="15.5" y="1724.6074">Unregistered User</text></g><!--entity networkManager--><g id="elem_networkManager"><ellipse cx="72.7446" cy="1799" fill="#F1F1F1" rx="8" ry="8" style="stroke:#181818;stroke-width:0.5;"/><path d="M72.7446,1807 L72.7446,1834 M59.7446,1815 L85.7446,1815 M72.7446,1834 L59.7446,1849 M72.7446,1834 L85.7446,1849 " fill="none" style="stroke:#181818;stroke-width:0.5;"/><text fill="#000000" font-family="sans-serif" font-size="14" lengthAdjust="spacing" textLength="110.4893" x="17.5" y="1865.6074">Network Manager</text></g><!--link owner to US01--><g id="link_owner_US01"><path d="M93.25,112.75 C131.74,118.12 218.81,130.26 284.58,139.44 " fill="none" id="owner-US01" style="stroke:#181818;stroke-width:1.0;"/></g><!--link owner to US02--><g id="link_owner_US02"><path d="M93.25,107.25 C129.49,102.19 208.78,91.13 272.83,82.2 " fill="none" id="owner-US02" style="stroke:#181818;stroke-width:1.0;"/></g><!--link agent to US03--><g id="link_agent_US03"><path d="M91.01,490.86 C126.86,496.71 210.8,510.42 276.85,521.2 " fill="none" id="agent-US03" style="stroke:#181818;stroke-width:1.0;"/></g><!--link client to US04--><g id="link_client_US04"><path d="M90.66,1086.05 C108.76,1110.51 139.54,1146.89 175,1167 C201.54,1182.05 232.89,1191.96 262.5,1198.47 " fill="none" id="client-US04" style="stroke:#181818;stroke-width:1.0;"/></g><!--link client to US05--><g id="link_client_US05"><path d="M83.46,1100.54 C96.75,1144.99 124.67,1216 175,1255 C197.45,1272.4 225.5,1283.25 253.18,1289.97 " fill="none" id="client-US05" style="stroke:#181818;stroke-width:1.0;"/></g><!--link client to US32--><g id="link_client_US32"><path d="M90.58,1057.86 C119.62,1052.53 181.11,1041.23 238.79,1030.64 " fill="none" id="client-US32" style="stroke:#181818;stroke-width:1.0;"/></g><!--link agent to US06--><g id="link_agent_US06"><path d="M91.15,508.78 C109.86,529.47 141.32,560.57 175,578 C202.74,592.35 235.08,602.19 265.25,608.9 " fill="none" id="agent-US06" style="stroke:#181818;stroke-width:1.0;"/></g><!--link client to US07--><g id="link_client_US07"><path d="M90.61,1035.58 C108.68,1010.74 139.44,973.74 175,953 C199.67,938.62 228.57,928.62 256.38,921.68 " fill="none" id="client-US07" style="stroke:#181818;stroke-width:1.0;"/></g><!--link agent to US08--><g id="link_agent_US08"><path d="M85.77,527.54 C100.47,568.43 129.06,631.21 175,667 C193.18,681.17 214.91,691.55 237.11,699.16 " fill="none" id="agent-US08" style="stroke:#181818;stroke-width:1.0;"/></g><!--link admin to US09--><g id="link_admin_US09"><path d="M139.2,1454.21 C151.04,1449.91 163.33,1445.66 175,1442 C205.6,1432.41 239.38,1423.32 269.98,1415.63 " fill="none" id="admin-US09" style="stroke:#181818;stroke-width:1.0;"/></g><!--link admin to US10--><g id="link_admin_US10"><path d="M139.11,1480 C180.15,1480 233.55,1480 278.39,1480 " fill="none" id="admin-US10" style="stroke:#181818;stroke-width:1.0;"/></g><!--link admin to US11--><g id="link_admin_US11"><path d="M139.06,1506.27 C150.91,1510.52 163.24,1514.63 175,1518 C213.52,1529.04 257.23,1538.16 293.25,1544.8 " fill="none" id="admin-US11" style="stroke:#181818;stroke-width:1.0;"/></g><!--link unregisteredUser to US21--><g id="link_unregisteredUser_US21"><path d="M129.84,1678.46 C177.69,1669.51 246.57,1656.62 297.87,1647.03 " fill="none" id="unregisteredUser-US21" style="stroke:#181818;stroke-width:1.0;"/></g><!--link unregisteredUser to US20--><g id="link_unregisteredUser_US20"><path d="M129.84,1694.17 C166.69,1697.56 216,1702.09 260.16,1706.14 " fill="none" id="unregisteredUser-US20" style="stroke:#181818;stroke-width:1.0;"/></g><!--link client to US30--><g id="link_client_US30"><path d="M90.58,1064.08 C120.11,1069.4 183.2,1080.78 241.71,1091.32 " fill="none" id="client-US30" style="stroke:#181818;stroke-width:1.0;"/></g><!--link client to US31--><g id="link_client_US31"><path d="M82.47,1021.41 C95.06,975.21 122.55,899.92 175,859 C198.76,840.47 228.93,829.59 258.3,823.3 " fill="none" id="client-US31" style="stroke:#181818;stroke-width:1.0;"/></g><!--link agent to US40--><g id="link_agent_US40"><path d="M83.34,448.48 C96.58,403.6 124.52,331.37 175,291 C193.54,276.17 216,265.7 238.95,258.32 " fill="none" id="agent-US40" style="stroke:#181818;stroke-width:1.0;"/></g><!--link agent to US41--><g id="link_agent_US41"><path d="M91.27,463.57 C109.63,440.14 140.4,405.52 175,386 C199.04,372.43 226.93,362.76 253.89,355.86 " fill="none" id="agent-US41" style="stroke:#181818;stroke-width:1.0;"/></g><!--link agent to US42--><g id="link_agent_US42"><path d="M91.01,485.14 C119.44,480.5 178.13,470.92 234.14,461.77 " fill="none" id="agent-US42" style="stroke:#181818;stroke-width:1.0;"/></g><!--link networkManager to US51--><g id="link_networkManager_US51"><path d="M127.77,1824.83 C166.59,1821.13 220,1816.05 266.56,1811.61 " fill="none" id="networkManager-US51" style="stroke:#181818;stroke-width:1.0;"/></g><!--link networkManager to US50--><g id="link_networkManager_US50"><path d="M127.77,1840.15 C173.06,1848.63 238.21,1860.81 289.17,1870.35 " fill="none" id="networkManager-US50" style="stroke:#181818;stroke-width:1.0;"/></g><!--SRC=[XLLBRzim3BxhLn2zx5JKpxOv5kkm7VOeMdHtncOJhOgLINAAODX_7sLPiHrjM86Y9iMFtyU7L4Kl3fm68pTR1wqqr3YfEo6mSTh0nRUtZim5e0NjlwBxRaET6zpelwBxlPBHtmoVyU3fQ1tjuAxToKvQPv2z0UuzCUgvCxJXOpBKmhCTYVkPrpjZz5ToRzgymXViM4I8xO9lT0dXoy5ke-WauTuGxk2JxYrTm2yXW7_ukq7BCSzFMGwNy3ZomTxeFHbt77BxmoIyuF0dKam3h0cjbPikz2HYYWHJCkQXNojfjoS6OCl9RXDHPOAg6FLTqXlW0QN2DTSqWYNP2AiIMEq5Dbjg-mbmX0Cdch7L2UoQOQ6BCHOC_Up9kXFNTGAw6PhHjR3lJRDbxvNXHg2Aq8YyIP2tZBpRixm3NJtI3z_E_-IuJNAi9ibJOm1PpjfWnoquAL-TO_DiFdNBwqLZR9ubiOiDcOywJzQZy7dlfTqh31FclKw6LYGKnOAYcIwLFpeFBeFseJd-9diQm6dKBxoN5ddu_DTCYSg4jSndYP37RgM3jTQlqwAK2NkLpPOP5qHyjm- -K4kxYRPAQ6jF-v4yvI1Tlm0g5HeRMrIdLVkBzw2m8PumCxRSA2x-LFLfUnIXZSCiaxjOXPhtwkZHPqMVhLoL5kz5V3YWwj7HlETBzY0lPaaqrBw5duUfSTqjeRAmmpQAhZCXVWlnZcLokVmses-djj3ohtz7USaRlGEsEAFt4sVNOdYluV8ol5jpgn13SqUh5671HhDQclN2B9VGwsNipUBmLWnl-sYjvXPVghcLY_CdFXmK_pp8bghEp7okWnTkRYtF2h7yXn7Sl6r_TMT_0000]--></g></svg>