<svg xmlns="http://www.w3.org/2000/svg" xmlns:xlink="http://www.w3.org/1999/xlink" contentStyleType="text/css" height="1195px" preserveAspectRatio="none" style="width:1111px;height:1195px;background:#FFFFFF;" version="1.1" viewBox="0 0 1111 1195" width="1111px" zoomAndPan="magnify"><defs/><g><line style="stroke:#181818;stroke-width:0.5;stroke-dasharray:5.0,5.0;" x1="49" x2="49" y1="83.6211" y2="1112.6426"/><line style="stroke:#181818;stroke-width:0.5;stroke-dasharray:5.0,5.0;" x1="269.2397" x2="269.2397" y1="83.6211" y2="1112.6426"/><line style="stroke:#181818;stroke-width:0.5;stroke-dasharray:5.0,5.0;" x1="452.019" x2="452.019" y1="83.6211" y2="1112.6426"/><line style="stroke:#181818;stroke-width:0.5;stroke-dasharray:5.0,5.0;" x1="603.4253" x2="603.4253" y1="83.6211" y2="1112.6426"/><line style="stroke:#181818;stroke-width:0.5;stroke-dasharray:5.0,5.0;" x1="728.4868" x2="728.4868" y1="83.6211" y2="1112.6426"/><line style="stroke:#181818;stroke-width:0.5;stroke-dasharray:5.0,5.0;" x1="878.4434" x2="878.4434" y1="83.6211" y2="1112.6426"/><line style="stroke:#181818;stroke-width:0.5;stroke-dasharray:5.0,5.0;" x1="1002.5117" x2="1002.5117" y1="83.6211" y2="1112.6426"/><line style="stroke:#181818;stroke-width:0.5;stroke-dasharray:5.0,5.0;" x1="1085.6768" x2="1085.6768" y1="83.6211" y2="1112.6426"/><text fill="#000000" font-family="sans-serif" font-size="14" lengthAdjust="spacing" textLength="82.4688" x="5" y="80.1074">Administrator</text><ellipse cx="49.2344" cy="13.5" fill="#E2E2F0" rx="8" ry="8" style="stroke:#181818;stroke-width:0.5;"/><path d="M49.2344,21.5 L49.2344,48.5 M36.2344,29.5 L62.2344,29.5 M49.2344,48.5 L36.2344,63.5 M49.2344,48.5 L62.2344,63.5 " fill="none" style="stroke:#181818;stroke-width:0.5;"/><text fill="#000000" font-family="sans-serif" font-size="14" lengthAdjust="spacing" textLength="82.4688" x="5" y="1126.75">Administrator</text><ellipse cx="49.2344" cy="1138.7637" fill="#E2E2F0" rx="8" ry="8" style="stroke:#181818;stroke-width:0.5;"/><path d="M49.2344,1146.7637 L49.2344,1173.7637 M36.2344,1154.7637 L62.2344,1154.7637 M49.2344,1173.7637 L36.2344,1188.7637 M49.2344,1173.7637 L62.2344,1188.7637 " fill="none" style="stroke:#181818;stroke-width:0.5;"/><rect fill="#E2E2F0" height="32.6211" rx="2.5" ry="2.5" style="stroke:#181818;stroke-width:0.5;" width="133.0615" x="203.2397" y="50"/><text fill="#000000" font-family="sans-serif" font-size="14" lengthAdjust="spacing" textLength="119.0615" x="210.2397" y="72.1074">RegisterAgentView</text><rect fill="#E2E2F0" height="32.6211" rx="2.5" ry="2.5" style="stroke:#181818;stroke-width:0.5;" width="133.0615" x="203.2397" y="1111.6426"/><text fill="#000000" font-family="sans-serif" font-size="14" lengthAdjust="spacing" textLength="119.0615" x="210.2397" y="1133.75">RegisterAgentView</text><rect fill="#E2E2F0" height="32.6211" rx="2.5" ry="2.5" style="stroke:#181818;stroke-width:0.5;" width="163.4063" x="371.019" y="50"/><text fill="#000000" font-family="sans-serif" font-size="14" lengthAdjust="spacing" textLength="149.4063" x="378.019" y="72.1074">RegisterAgentController</text><rect fill="#E2E2F0" height="32.6211" rx="2.5" ry="2.5" style="stroke:#181818;stroke-width:0.5;" width="163.4063" x="371.019" y="1111.6426"/><text fill="#000000" font-family="sans-serif" font-size="14" lengthAdjust="spacing" textLength="149.4063" x="378.019" y="1133.75">RegisterAgentController</text><rect fill="#E2E2F0" height="32.6211" rx="2.5" ry="2.5" style="stroke:#181818;stroke-width:0.5;" width="119.0615" x="544.4253" y="50"/><text fill="#000000" font-family="sans-serif" font-size="14" lengthAdjust="spacing" textLength="105.0615" x="551.4253" y="72.1074">BranchContainer</text><rect fill="#E2E2F0" height="32.6211" rx="2.5" ry="2.5" style="stroke:#181818;stroke-width:0.5;" width="119.0615" x="544.4253" y="1111.6426"/><text fill="#000000" font-family="sans-serif" font-size="14" lengthAdjust="spacing" textLength="105.0615" x="551.4253" y="1133.75">BranchContainer</text><rect fill="#E2E2F0" height="32.6211" rx="2.5" ry="2.5" style="stroke:#181818;stroke-width:0.5;" width="111.2891" x="673.4868" y="50"/><text fill="#000000" font-family="sans-serif" font-size="14" lengthAdjust="spacing" textLength="97.2891" x="680.4868" y="72.1074">AgentContainer</text><rect fill="#E2E2F0" height="32.6211" rx="2.5" ry="2.5" style="stroke:#181818;stroke-width:0.5;" width="111.2891" x="673.4868" y="1111.6426"/><text fill="#000000" font-family="sans-serif" font-size="14" lengthAdjust="spacing" textLength="97.2891" x="680.4868" y="1133.75">AgentContainer</text><rect fill="#E2E2F0" height="32.6211" rx="2.5" ry="2.5" style="stroke:#181818;stroke-width:0.5;" width="119.0684" x="819.4434" y="50"/><text fill="#000000" font-family="sans-serif" font-size="14" lengthAdjust="spacing" textLength="105.0684" x="826.4434" y="72.1074">RealEstateAgent</text><rect fill="#E2E2F0" height="32.6211" rx="2.5" ry="2.5" style="stroke:#181818;stroke-width:0.5;" width="119.0684" x="819.4434" y="1111.6426"/><text fill="#000000" font-family="sans-serif" font-size="14" lengthAdjust="spacing" textLength="105.0684" x="826.4434" y="1133.75">RealEstateAgent</text><rect fill="#E2E2F0" height="32.6211" rx="2.5" ry="2.5" style="stroke:#181818;stroke-width:0.5;" width="108.165" x="948.5117" y="50"/><text fill="#000000" font-family="sans-serif" font-size="14" lengthAdjust="spacing" textLength="94.165" x="955.5117" y="72.1074">StoreContainer</text><rect fill="#E2E2F0" height="32.6211" rx="2.5" ry="2.5" style="stroke:#181818;stroke-width:0.5;" width="108.165" x="948.5117" y="1111.6426"/><text fill="#000000" font-family="sans-serif" font-size="14" lengthAdjust="spacing" textLength="94.165" x="955.5117" y="1133.75">StoreContainer</text><rect fill="#E2E2F0" height="32.6211" rx="2.5" ry="2.5" style="stroke:#181818;stroke-width:0.5;" width="38.9102" x="1066.6768" y="50"/><text fill="#000000" font-family="sans-serif" font-size="14" lengthAdjust="spacing" textLength="24.9102" x="1073.6768" y="72.1074">App</text><rect fill="#E2E2F0" height="32.6211" rx="2.5" ry="2.5" style="stroke:#181818;stroke-width:0.5;" width="38.9102" x="1066.6768" y="1111.6426"/><text fill="#000000" font-family="sans-serif" font-size="14" lengthAdjust="spacing" textLength="24.9102" x="1073.6768" y="1133.75">App</text><polygon fill="#181818" points="257.7705,112.9121,267.7705,116.9121,257.7705,120.9121,261.7705,116.9121" style="stroke:#181818;stroke-width:1.0;"/><line style="stroke:#181818;stroke-width:1.0;" x1="49.2344" x2="263.7705" y1="116.9121" y2="116.9121"/><text fill="#000000" font-family="sans-serif" font-size="13" lengthAdjust="spacing" textLength="162.5889" x="56.2344" y="111.6494">asks to register a new agent</text><polygon fill="#181818" points="440.7222,144.2031,450.7222,148.2031,440.7222,152.2031,444.7222,148.2031" style="stroke:#181818;stroke-width:1.0;"/><line style="stroke:#181818;stroke-width:1.0;" x1="269.7705" x2="446.7222" y1="148.2031" y2="148.2031"/><text fill="#000000" font-family="sans-serif" font-size="13" lengthAdjust="spacing" textLength="78.7617" x="276.7705" y="142.9404">createAgent()</text><polygon fill="#181818" points="591.9561,175.4941,601.9561,179.4941,591.9561,183.4941,595.9561,179.4941" style="stroke:#181818;stroke-width:1.0;"/><line style="stroke:#181818;stroke-width:1.0;" x1="452.7222" x2="597.9561" y1="179.4941" y2="179.4941"/><text fill="#000000" font-family="sans-serif" font-size="13" lengthAdjust="spacing" textLength="117.0698" x="459.7222" y="174.2314">getAgentContainer()</text><polygon fill="#181818" points="463.7222,206.7852,453.7222,210.7852,463.7222,214.7852,459.7222,210.7852" style="stroke:#181818;stroke-width:1.0;"/><line style="stroke:#181818;stroke-width:1.0;stroke-dasharray:2.0,2.0;" x1="457.7222" x2="602.9561" y1="210.7852" y2="210.7852"/><text fill="#000000" font-family="sans-serif" font-size="13" lengthAdjust="spacing" textLength="88.8989" x="469.7222" y="205.5225">agentContainer</text><polygon fill="#181818" points="717.1313,238.0762,727.1313,242.0762,717.1313,246.0762,721.1313,242.0762" style="stroke:#181818;stroke-width:1.0;"/><line style="stroke:#181818;stroke-width:1.0;" x1="452.7222" x2="723.1313" y1="242.0762" y2="242.0762"/><text fill="#000000" font-family="sans-serif" font-size="13" lengthAdjust="spacing" textLength="44.7891" x="459.7222" y="236.8135">create()</text><polygon fill="#181818" points="463.7222,269.3672,453.7222,273.3672,463.7222,277.3672,459.7222,273.3672" style="stroke:#181818;stroke-width:1.0;"/><line style="stroke:#181818;stroke-width:1.0;stroke-dasharray:2.0,2.0;" x1="457.7222" x2="728.1313" y1="273.3672" y2="273.3672"/><text fill="#000000" font-family="sans-serif" font-size="13" lengthAdjust="spacing" textLength="140.9307" x="469.7222" y="268.1045">agent : RealEstateAgent</text><polygon fill="#181818" points="60.2344,300.6582,50.2344,304.6582,60.2344,308.6582,56.2344,304.6582" style="stroke:#181818;stroke-width:1.0;"/><line style="stroke:#181818;stroke-width:1.0;" x1="54.2344" x2="268.7705" y1="304.6582" y2="304.6582"/><text fill="#000000" font-family="sans-serif" font-size="13" lengthAdjust="spacing" textLength="196.5361" x="66.2344" y="299.3955">requests data (name, citizen card)</text><polygon fill="#181818" points="257.7705,331.9492,267.7705,335.9492,257.7705,339.9492,261.7705,335.9492" style="stroke:#181818;stroke-width:1.0;"/><line style="stroke:#181818;stroke-width:1.0;" x1="49.2344" x2="263.7705" y1="335.9492" y2="335.9492"/><text fill="#000000" font-family="sans-serif" font-size="13" lengthAdjust="spacing" textLength="65.0444" x="56.2344" y="330.6865">enters data</text><polygon fill="#181818" points="440.7222,363.2402,450.7222,367.2402,440.7222,371.2402,444.7222,367.2402" style="stroke:#181818;stroke-width:1.0;"/><line style="stroke:#181818;stroke-width:1.0;" x1="269.7705" x2="446.7222" y1="367.2402" y2="367.2402"/><text fill="#000000" font-family="sans-serif" font-size="13" lengthAdjust="spacing" textLength="158.9517" x="276.7705" y="361.9775">setData(name, citizen card)</text><polygon fill="#181818" points="866.9775,394.5313,876.9775,398.5313,866.9775,402.5313,870.9775,398.5313" style="stroke:#181818;stroke-width:1.0;"/><line style="stroke:#181818;stroke-width:1.0;" x1="452.7222" x2="872.9775" y1="398.5313" y2="398.5313"/><text fill="#000000" font-family="sans-serif" font-size="13" lengthAdjust="spacing" textLength="93.1963" x="459.7222" y="393.2686">setName(name)</text><polygon fill="#181818" points="463.7222,425.8223,453.7222,429.8223,463.7222,433.8223,459.7222,429.8223" style="stroke:#181818;stroke-width:1.0;"/><line style="stroke:#181818;stroke-width:1.0;stroke-dasharray:2.0,2.0;" x1="457.7222" x2="877.9775" y1="429.8223" y2="429.8223"/><text fill="#000000" font-family="sans-serif" font-size="13" lengthAdjust="spacing" textLength="13.73" x="469.7222" y="424.5596">ok</text><polygon fill="#181818" points="866.9775,457.1133,876.9775,461.1133,866.9775,465.1133,870.9775,461.1133" style="stroke:#181818;stroke-width:1.0;"/><line style="stroke:#181818;stroke-width:1.0;" x1="452.7222" x2="872.9775" y1="461.1133" y2="461.1133"/><text fill="#000000" font-family="sans-serif" font-size="13" lengthAdjust="spacing" textLength="159.6626" x="459.7222" y="455.8506">setCitizenCard(citizen card)</text><polygon fill="#181818" points="463.7222,488.4043,453.7222,492.4043,463.7222,496.4043,459.7222,492.4043" style="stroke:#181818;stroke-width:1.0;"/><line style="stroke:#181818;stroke-width:1.0;stroke-dasharray:2.0,2.0;" x1="457.7222" x2="877.9775" y1="492.4043" y2="492.4043"/><text fill="#000000" font-family="sans-serif" font-size="13" lengthAdjust="spacing" textLength="13.73" x="469.7222" y="487.1416">ok</text><polygon fill="#181818" points="440.7222,519.6953,450.7222,523.6953,440.7222,527.6953,444.7222,523.6953" style="stroke:#181818;stroke-width:1.0;"/><line style="stroke:#181818;stroke-width:1.0;" x1="269.7705" x2="446.7222" y1="523.6953" y2="523.6953"/><text fill="#000000" font-family="sans-serif" font-size="13" lengthAdjust="spacing" textLength="95.3735" x="276.7705" y="518.4326">request store list</text><polygon fill="#181818" points="990.5942,550.9863,1000.5942,554.9863,990.5942,558.9863,994.5942,554.9863" style="stroke:#181818;stroke-width:1.0;"/><line style="stroke:#181818;stroke-width:1.0;" x1="452.7222" x2="996.5942" y1="554.9863" y2="554.9863"/><text fill="#000000" font-family="sans-serif" font-size="13" lengthAdjust="spacing" textLength="64.3018" x="459.7222" y="549.7236">getStores()</text><polygon fill="#181818" points="463.7222,582.2773,453.7222,586.2773,463.7222,590.2773,459.7222,586.2773" style="stroke:#181818;stroke-width:1.0;"/><line style="stroke:#181818;stroke-width:1.0;stroke-dasharray:2.0,2.0;" x1="457.7222" x2="1001.5942" y1="586.2773" y2="586.2773"/><text fill="#000000" font-family="sans-serif" font-size="13" lengthAdjust="spacing" textLength="49.1309" x="469.7222" y="581.0146">storeList</text><polygon fill="#181818" points="280.7705,613.5684,270.7705,617.5684,280.7705,621.5684,276.7705,617.5684" style="stroke:#181818;stroke-width:1.0;"/><line style="stroke:#181818;stroke-width:1.0;" x1="274.7705" x2="451.7222" y1="617.5684" y2="617.5684"/><text fill="#000000" font-family="sans-serif" font-size="13" lengthAdjust="spacing" textLength="93.209" x="286.7705" y="612.3057">display storeList</text><polygon fill="#181818" points="257.7705,644.8594,267.7705,648.8594,257.7705,652.8594,261.7705,648.8594" style="stroke:#181818;stroke-width:1.0;"/><line style="stroke:#181818;stroke-width:1.0;" x1="49.2344" x2="263.7705" y1="648.8594" y2="648.8594"/><text fill="#000000" font-family="sans-serif" font-size="13" lengthAdjust="spacing" textLength="72.9727" x="56.2344" y="643.5967">selects store</text><polygon fill="#181818" points="440.7222,676.1504,450.7222,680.1504,440.7222,684.1504,444.7222,680.1504" style="stroke:#181818;stroke-width:1.0;"/><line style="stroke:#181818;stroke-width:1.0;" x1="269.7705" x2="446.7222" y1="680.1504" y2="680.1504"/><text fill="#000000" font-family="sans-serif" font-size="13" lengthAdjust="spacing" textLength="85.9727" x="276.7705" y="674.8877">setStore(store)</text><polygon fill="#181818" points="866.9775,707.4414,876.9775,711.4414,866.9775,715.4414,870.9775,711.4414" style="stroke:#181818;stroke-width:1.0;"/><line style="stroke:#181818;stroke-width:1.0;" x1="452.7222" x2="872.9775" y1="711.4414" y2="711.4414"/><text fill="#000000" font-family="sans-serif" font-size="13" lengthAdjust="spacing" textLength="53.4663" x="459.7222" y="706.1787">validate()</text><line style="stroke:#181818;stroke-width:1.0;" x1="878.9775" x2="920.9775" y1="742.7324" y2="742.7324"/><line style="stroke:#181818;stroke-width:1.0;" x1="920.9775" x2="920.9775" y1="742.7324" y2="755.7324"/><line style="stroke:#181818;stroke-width:1.0;" x1="879.9775" x2="920.9775" y1="755.7324" y2="755.7324"/><polygon fill="#181818" points="889.9775,751.7324,879.9775,755.7324,889.9775,759.7324,885.9775,755.7324" style="stroke:#181818;stroke-width:1.0;"/><text fill="#000000" font-family="sans-serif" font-size="13" lengthAdjust="spacing" textLength="46.9536" x="885.9775" y="737.4697">isValid()</text><polygon fill="#181818" points="463.7222,783.0234,453.7222,787.0234,463.7222,791.0234,459.7222,787.0234" style="stroke:#181818;stroke-width:1.0;"/><line style="stroke:#181818;stroke-width:1.0;stroke-dasharray:2.0,2.0;" x1="457.7222" x2="877.9775" y1="787.0234" y2="787.0234"/><text fill="#000000" font-family="sans-serif" font-size="13" lengthAdjust="spacing" textLength="13.73" x="469.7222" y="781.7607">ok</text><polygon fill="#181818" points="717.1313,814.3145,727.1313,818.3145,717.1313,822.3145,721.1313,818.3145" style="stroke:#181818;stroke-width:1.0;"/><line style="stroke:#181818;stroke-width:1.0;" x1="452.7222" x2="723.1313" y1="818.3145" y2="818.3145"/><text fill="#000000" font-family="sans-serif" font-size="13" lengthAdjust="spacing" textLength="85.998" x="459.7222" y="813.0518">validate(agent)</text><line style="stroke:#181818;stroke-width:1.0;" x1="729.1313" x2="771.1313" y1="849.6055" y2="849.6055"/><line style="stroke:#181818;stroke-width:1.0;" x1="771.1313" x2="771.1313" y1="849.6055" y2="862.6055"/><line style="stroke:#181818;stroke-width:1.0;" x1="730.1313" x2="771.1313" y1="862.6055" y2="862.6055"/><polygon fill="#181818" points="740.1313,858.6055,730.1313,862.6055,740.1313,866.6055,736.1313,862.6055" style="stroke:#181818;stroke-width:1.0;"/><text fill="#000000" font-family="sans-serif" font-size="13" lengthAdjust="spacing" textLength="135.8462" x="736.1313" y="844.3428">checkDuplicates(agent)</text><polygon fill="#181818" points="463.7222,889.8965,453.7222,893.8965,463.7222,897.8965,459.7222,893.8965" style="stroke:#181818;stroke-width:1.0;"/><line style="stroke:#181818;stroke-width:1.0;stroke-dasharray:2.0,2.0;" x1="457.7222" x2="728.1313" y1="893.8965" y2="893.8965"/><text fill="#000000" font-family="sans-serif" font-size="13" lengthAdjust="spacing" textLength="13.73" x="469.7222" y="888.6338">ok</text><polygon fill="#181818" points="1074.1318,921.1875,1084.1318,925.1875,1074.1318,929.1875,1078.1318,925.1875" style="stroke:#181818;stroke-width:1.0;"/><line style="stroke:#181818;stroke-width:1.0;" x1="269.7705" x2="1080.1318" y1="925.1875" y2="925.1875"/><text fill="#000000" font-family="sans-serif" font-size="13" lengthAdjust="spacing" textLength="218.9561" x="276.7705" y="919.9248">shows data and requests confirmation</text><polygon fill="#181818" points="257.7705,952.4785,267.7705,956.4785,257.7705,960.4785,261.7705,956.4785" style="stroke:#181818;stroke-width:1.0;"/><line style="stroke:#181818;stroke-width:1.0;" x1="49.2344" x2="263.7705" y1="956.4785" y2="956.4785"/><text fill="#000000" font-family="sans-serif" font-size="13" lengthAdjust="spacing" textLength="49.1182" x="56.2344" y="951.2158">confirms</text><polygon fill="#181818" points="717.1313,983.7695,727.1313,987.7695,717.1313,991.7695,721.1313,987.7695" style="stroke:#181818;stroke-width:1.0;"/><line style="stroke:#181818;stroke-width:1.0;" x1="452.7222" x2="723.1313" y1="987.7695" y2="987.7695"/><text fill="#000000" font-family="sans-serif" font-size="13" lengthAdjust="spacing" textLength="68.6499" x="459.7222" y="982.5068">save(agent)</text><line style="stroke:#181818;stroke-width:1.0;" x1="729.1313" x2="771.1313" y1="1019.0605" y2="1019.0605"/><line style="stroke:#181818;stroke-width:1.0;" x1="771.1313" x2="771.1313" y1="1019.0605" y2="1032.0605"/><line style="stroke:#181818;stroke-width:1.0;" x1="730.1313" x2="771.1313" y1="1032.0605" y2="1032.0605"/><polygon fill="#181818" points="740.1313,1028.0605,730.1313,1032.0605,740.1313,1036.0605,736.1313,1032.0605" style="stroke:#181818;stroke-width:1.0;"/><text fill="#000000" font-family="sans-serif" font-size="13" lengthAdjust="spacing" textLength="62.8799" x="736.1313" y="1013.7979">add(agent)</text><polygon fill="#181818" points="463.7222,1059.3516,453.7222,1063.3516,463.7222,1067.3516,459.7222,1063.3516" style="stroke:#181818;stroke-width:1.0;"/><line style="stroke:#181818;stroke-width:1.0;stroke-dasharray:2.0,2.0;" x1="457.7222" x2="728.1313" y1="1063.3516" y2="1063.3516"/><text fill="#000000" font-family="sans-serif" font-size="13" lengthAdjust="spacing" textLength="13.73" x="469.7222" y="1058.0889">ok</text><polygon fill="#181818" points="60.2344,1090.6426,50.2344,1094.6426,60.2344,1098.6426,56.2344,1094.6426" style="stroke:#181818;stroke-width:1.0;"/><line style="stroke:#181818;stroke-width:1.0;" x1="54.2344" x2="268.7705" y1="1094.6426" y2="1094.6426"/><text fill="#000000" font-family="sans-serif" font-size="13" lengthAdjust="spacing" textLength="151.0107" x="66.2344" y="1089.3799">informs operation success</text><!--SRC=[lLPDSzem4BtxL-pHp3GPODAcuqEd17986jeC9FIybHVG84kk99D9VttNnY6n-J9aMb_0rjFJlgVTbG00vZ8c4D8AHG6KZrj8dQB518H2vthUM_ahytGZZ1xBFmJj0hh6e_36GYzEf9REM-ItAe39l1GoHUrXH3C6aUtDIFk9fAV3gBxHtXgbo6x5NbdKOfw3KEeTc3NFRiY8K5qxZvuAy5RCcALHbMQDg-Y7io-RIY42T0i7te0jnm11ym1MLjoSM6TxTOGvXQMNeCDMDQPTavYlvXhppCXNRIhPygUEFjiR4MwwtIIawkfhPM_2g24QHC6_spPslzVLhOnujtvdvBo363r2g36X3rmqdcj1Wq0RjuxB0lv7TiNM89hT2Xtv0NFi3MYFtpLZLeJVcQiWV4jHnUsttInENhk_Kj1d0U4kDIU4SggzvRQ3owiU5AEQAAlsY5LT5T_ScqIkWVRBADQ_QxZyjdoBfKiLFjU8ZijPHue4bq31yOw4BPI71KlpPhMPBKjKCgusXutSs3PFkaa-C_mdANMWdQrZBZhJxgwshHFEIIm6MQgaO09tYE7zLT5Bqto_vkQfx7geuzS-o1U1gRG9UcdqSMbKpdIdk-XmUOg36CV_mRNQmI7rrB1OC2dPmYnmcH3aLlA_aewpH0N1lUBBnUFm3fPyBEIepdcttRqulmp7o9SEIg5z2PrkrFaSTIxXv_Nu0VBnLX0ERnx0cSmAoejyTKzZWbPmYqk4KQQzJ2Y27odfsy6tbmzmhPVI6ftan-7jPFWA-7HnTYNp9Is70fDXCA0fPihp365YgMSHzDDEzsCtk4CzozZG258Vz0qJs-S8xX_-0W00]--></g></svg>

