<svg xmlns="http://www.w3.org/2000/svg" xmlns:xlink="http://www.w3.org/1999/xlink" contentStyleType="text/css" height="400px" preserveAspectRatio="none" style="width:2573px;height:400px;background:#FFFFFF;" version="1.1" viewBox="0 0 2573 400" width="2573px" zoomAndPan="magnify"><defs/><g><!--class RegisterAgentView--><g id="elem_RegisterAgentView"><rect codeLine="4" fill="#F1F1F1" height="44.6211" id="RegisterAgentView" rx="2.5" ry="2.5" style="stroke:#181818;stroke-width:0.5;" width="125.0615" x="1314.5" y="7"/><text fill="#000000" font-family="sans-serif" font-size="14" lengthAdjust="spacing" textLength="119.0615" x="1317.5" y="27.1074">RegisterAgentView</text><line style="stroke:#181818;stroke-width:0.5;" x1="1315.5" x2="1438.5615" y1="35.6211" y2="35.6211"/><line style="stroke:#181818;stroke-width:0.5;" x1="1315.5" x2="1438.5615" y1="43.6211" y2="43.6211"/></g><!--class RegisterAgentController--><g id="elem_RegisterAgentController"><rect codeLine="7" fill="#F1F1F1" height="100.4844" id="RegisterAgentController" rx="2.5" ry="2.5" style="stroke:#181818;stroke-width:0.5;" width="465.3184" x="1144.5" y="113"/><text fill="#000000" font-family="sans-serif" font-size="14" lengthAdjust="spacing" textLength="149.4063" x="1302.4561" y="133.1074">RegisterAgentController</text><line style="stroke:#181818;stroke-width:0.5;" x1="1145.5" x2="1608.8184" y1="141.6211" y2="141.6211"/><line style="stroke:#181818;stroke-width:0.5;" x1="1145.5" x2="1608.8184" y1="149.6211" y2="149.6211"/><text fill="#000000" font-family="sans-serif" font-size="14" lengthAdjust="spacing" textLength="407.374" x="1150.5" y="168.7285">+createAgent(name: String, citizenCard: String): RealEstateAgent</text><text fill="#000000" font-family="sans-serif" font-size="14" lengthAdjust="spacing" textLength="453.3184" x="1150.5" y="187.3496">+assignAgentToBranch(agent: RealEstateAgent, branch: Branch): Result</text><text fill="#000000" font-family="sans-serif" font-size="14" lengthAdjust="spacing" textLength="419.8428" x="1150.5" y="205.9707">+assignAgentToStore(agent: RealEstateAgent, store: Store): Result</text></g><!--class RealEstateAgent--><g id="elem_RealEstateAgent"><rect codeLine="13" fill="#F1F1F1" height="119.1055" id="RealEstateAgent" rx="2.5" ry="2.5" style="stroke:#181818;stroke-width:0.5;" width="180.834" x="1286.5" y="274"/><text fill="#000000" font-family="sans-serif" font-size="14" lengthAdjust="spacing" textLength="105.0684" x="1324.3828" y="294.1074">RealEstateAgent</text><line style="stroke:#181818;stroke-width:0.5;" x1="1287.5" x2="1466.334" y1="302.6211" y2="302.6211"/><text fill="#000000" font-family="sans-serif" font-size="14" lengthAdjust="spacing" textLength="59.9102" x="1292.5" y="321.7285">-id: String</text><text fill="#000000" font-family="sans-serif" font-size="14" lengthAdjust="spacing" textLength="84.0342" x="1292.5" y="340.3496">-name: String</text><text fill="#000000" font-family="sans-serif" font-size="14" lengthAdjust="spacing" textLength="168.834" x="1292.5" y="358.9707">-citizenCardNumber: String</text><line style="stroke:#181818;stroke-width:0.5;" x1="1287.5" x2="1466.334" y1="366.4844" y2="366.4844"/><text fill="#000000" font-family="sans-serif" font-size="14" lengthAdjust="spacing" textLength="154.4854" x="1292.5" y="385.5918">+validateData(): Boolean</text></g><!--class Branch--><g id="elem_Branch"><rect codeLine="20" fill="#F1F1F1" height="119.1055" id="Branch" rx="2.5" ry="2.5" style="stroke:#181818;stroke-width:0.5;" width="284.7881" x="2281.5" y="274"/><text fill="#000000" font-family="sans-serif" font-size="14" lengthAdjust="spacing" textLength="44.3584" x="2401.7148" y="294.1074">Branch</text><line style="stroke:#181818;stroke-width:0.5;" x1="2282.5" x2="2565.2881" y1="302.6211" y2="302.6211"/><text fill="#000000" font-family="sans-serif" font-size="14" lengthAdjust="spacing" textLength="59.9102" x="2287.5" y="321.7285">-id: String</text><text fill="#000000" font-family="sans-serif" font-size="14" lengthAdjust="spacing" textLength="84.0342" x="2287.5" y="340.3496">-name: String</text><line style="stroke:#181818;stroke-width:0.5;" x1="2282.5" x2="2565.2881" y1="347.8633" y2="347.8633"/><text fill="#000000" font-family="sans-serif" font-size="14" lengthAdjust="spacing" textLength="272.7881" x="2287.5" y="366.9707">+addAgent(agent: RealEstateAgent): Result</text><text fill="#000000" font-family="sans-serif" font-size="14" lengthAdjust="spacing" textLength="167.6992" x="2287.5" y="385.5918">+checkCapacity(): Boolean</text></g><!--class AgentContainer--><g id="elem_AgentContainer"><rect codeLine="27" fill="#F1F1F1" height="100.4844" id="AgentContainer" rx="2.5" ry="2.5" style="stroke:#181818;stroke-width:0.5;" width="419.374" x="745.5" y="283.5"/><text fill="#000000" font-family="sans-serif" font-size="14" lengthAdjust="spacing" textLength="97.2891" x="906.5425" y="303.6074">AgentContainer</text><line style="stroke:#181818;stroke-width:0.5;" x1="746.5" x2="1163.874" y1="312.1211" y2="312.1211"/><line style="stroke:#181818;stroke-width:0.5;" x1="746.5" x2="1163.874" y1="320.1211" y2="320.1211"/><text fill="#000000" font-family="sans-serif" font-size="14" lengthAdjust="spacing" textLength="407.374" x="751.5" y="339.2285">+createAgent(name: String, citizenCard: String): RealEstateAgent</text><text fill="#000000" font-family="sans-serif" font-size="14" lengthAdjust="spacing" textLength="279.002" x="751.5" y="357.8496">+saveAgent(agent: RealEstateAgent): Result</text><text fill="#000000" font-family="sans-serif" font-size="14" lengthAdjust="spacing" textLength="315.6016" x="751.5" y="376.4707">+isAgentUnique(agent: RealEstateAgent): Boolean</text></g><!--class BranchContainer--><g id="elem_BranchContainer"><rect codeLine="33" fill="#F1F1F1" height="81.8633" id="BranchContainer" rx="2.5" ry="2.5" style="stroke:#181818;stroke-width:0.5;" width="468.4629" x="242" y="292.5"/><text fill="#000000" font-family="sans-serif" font-size="14" lengthAdjust="spacing" textLength="105.0615" x="423.7007" y="312.6074">BranchContainer</text><line style="stroke:#181818;stroke-width:0.5;" x1="243" x2="709.4629" y1="321.1211" y2="321.1211"/><line style="stroke:#181818;stroke-width:0.5;" x1="243" x2="709.4629" y1="329.1211" y2="329.1211"/><text fill="#000000" font-family="sans-serif" font-size="14" lengthAdjust="spacing" textLength="235.4023" x="248" y="348.2285">+findBranch(branchId: String): Branch</text><text fill="#000000" font-family="sans-serif" font-size="14" lengthAdjust="spacing" textLength="456.4629" x="248" y="366.8496">+validateBranchAgent(agent: RealEstateAgent, branch: Branch): Boolean</text></g><!--class Store--><g id="elem_Store"><rect codeLine="38" fill="#F1F1F1" height="100.4844" id="Store" rx="2.5" ry="2.5" style="stroke:#181818;stroke-width:0.5;" width="179.6992" x="2066" y="283.5"/><text fill="#000000" font-family="sans-serif" font-size="14" lengthAdjust="spacing" textLength="33.4619" x="2139.1187" y="303.6074">Store</text><line style="stroke:#181818;stroke-width:0.5;" x1="2067" x2="2244.6992" y1="312.1211" y2="312.1211"/><text fill="#000000" font-family="sans-serif" font-size="14" lengthAdjust="spacing" textLength="59.9102" x="2072" y="331.2285">-id: String</text><text fill="#000000" font-family="sans-serif" font-size="14" lengthAdjust="spacing" textLength="84.0342" x="2072" y="349.8496">-name: String</text><line style="stroke:#181818;stroke-width:0.5;" x1="2067" x2="2244.6992" y1="357.3633" y2="357.3633"/><text fill="#000000" font-family="sans-serif" font-size="14" lengthAdjust="spacing" textLength="167.6992" x="2072" y="376.4707">+checkCapacity(): Boolean</text></g><!--class StoreContainer--><g id="elem_StoreContainer"><rect codeLine="44" fill="#F1F1F1" height="81.8633" id="StoreContainer" rx="2.5" ry="2.5" style="stroke:#181818;stroke-width:0.5;" width="434.9873" x="1502.5" y="292.5"/><text fill="#000000" font-family="sans-serif" font-size="14" lengthAdjust="spacing" textLength="94.165" x="1672.9111" y="312.6074">StoreContainer</text><line style="stroke:#181818;stroke-width:0.5;" x1="1503.5" x2="1936.4873" y1="321.1211" y2="321.1211"/><line style="stroke:#181818;stroke-width:0.5;" x1="1503.5" x2="1936.4873" y1="329.1211" y2="329.1211"/><text fill="#000000" font-family="sans-serif" font-size="14" lengthAdjust="spacing" textLength="201.9268" x="1508.5" y="348.2285">+findStore(storeId: String): Store</text><text fill="#000000" font-family="sans-serif" font-size="14" lengthAdjust="spacing" textLength="422.9873" x="1508.5" y="366.8496">+validateStoreAgent(agent: RealEstateAgent, store: Store): Boolean</text></g><!--class Administrator--><g id="elem_Administrator"><rect fill="#F1F1F1" height="44.6211" id="Administrator" rx="2.5" ry="2.5" style="stroke:#181818;stroke-width:0.5;" width="88.4688" x="7" y="311"/><text fill="#000000" font-family="sans-serif" font-size="14" lengthAdjust="spacing" textLength="82.4688" x="10" y="331.1074">Administrator</text><line style="stroke:#181818;stroke-width:0.5;" x1="8" x2="94.4688" y1="339.6211" y2="339.6211"/><line style="stroke:#181818;stroke-width:0.5;" x1="8" x2="94.4688" y1="347.6211" y2="347.6211"/></g><!--link Administrator to BranchContainer--><g id="link_Administrator_BranchContainer"><path codeLine="49" d="M95.28,333.5 C131.42,333.5 179.54,333.5 235.7,333.5 " fill="none" id="Administrator-to-BranchContainer" style="stroke:#181818;stroke-width:1.0;"/><polygon fill="#181818" points="241.7,333.5,232.7,329.5,236.7,333.5,232.7,337.5,241.7,333.5" style="stroke:#181818;stroke-width:1.0;"/><text fill="#000000" font-family="sans-serif" font-size="13" lengthAdjust="spacing" textLength="110.5698" x="113.5" y="326.5283">manages branches</text><text fill="#000000" font-family="sans-serif" font-size="13" lengthAdjust="spacing" textLength="7.23" x="103.4717" y="329.125">1</text><text fill="#000000" font-family="sans-serif" font-size="13" lengthAdjust="spacing" textLength="7.23" x="226.8934" y="330.2564">1</text></g><!--link AgentContainer to RealEstateAgent--><g id="link_AgentContainer_RealEstateAgent"><path codeLine="50" d="M1164.76,333.5 C1207.58,333.5 1244.47,333.5 1280.37,333.5 " fill="none" id="AgentContainer-to-RealEstateAgent" style="stroke:#181818;stroke-width:1.0;"/><polygon fill="#181818" points="1286.37,333.5,1277.37,329.5,1281.37,333.5,1277.37,337.5,1286.37,333.5" style="stroke:#181818;stroke-width:1.0;"/><text fill="#000000" font-family="sans-serif" font-size="13" lengthAdjust="spacing" textLength="85.9917" x="1183" y="326.5283">records agents</text><text fill="#000000" font-family="sans-serif" font-size="13" lengthAdjust="spacing" textLength="7.23" x="1173.0877" y="330.1925">1</text><text fill="#000000" font-family="sans-serif" font-size="13" lengthAdjust="spacing" textLength="19.5127" x="1259.1061" y="348.2399">0..*</text></g><!--link StoreContainer to Store--><g id="link_StoreContainer_Store"><path codeLine="51" d="M1937.68,333.5 C1982.96,333.5 2022.27,333.5 2059.77,333.5 " fill="none" id="StoreContainer-to-Store" style="stroke:#181818;stroke-width:1.0;"/><polygon fill="#181818" points="2065.77,333.5,2056.77,329.5,2060.77,333.5,2056.77,337.5,2065.77,333.5" style="stroke:#181818;stroke-width:1.0;"/><text fill="#000000" font-family="sans-serif" font-size="13" lengthAdjust="spacing" textLength="92.4917" x="1955.75" y="326.5283">manages stores</text><text fill="#000000" font-family="sans-serif" font-size="13" lengthAdjust="spacing" textLength="7.23" x="1945.633" y="330.2305">1</text><text fill="#000000" font-family="sans-serif" font-size="13" lengthAdjust="spacing" textLength="19.5127" x="2038.5448" y="348.2242">0..*</text></g><!--link RegisterAgentView to RegisterAgentController--><g id="link_RegisterAgentView_RegisterAgentController"><path codeLine="53" d="M1377,52.21 C1377,68.7 1377,86.02 1377,106.93 " fill="none" id="RegisterAgentView-to-RegisterAgentController" style="stroke:#181818;stroke-width:1.0;stroke-dasharray:7.0,7.0;"/><polygon fill="#181818" points="1377,112.93,1381,103.93,1377,107.93,1373,103.93,1377,112.93" style="stroke:#181818;stroke-width:1.0;"/></g><!--link RegisterAgentController to RealEstateAgent--><g id="link_RegisterAgentController_RealEstateAgent"><path codeLine="54" d="M1377,213.19 C1377,232.13 1377,247.95 1377,267.71 " fill="none" id="RegisterAgentController-to-RealEstateAgent" style="stroke:#181818;stroke-width:1.0;stroke-dasharray:7.0,7.0;"/><polygon fill="#181818" points="1377,273.71,1381,264.71,1377,268.71,1373,264.71,1377,273.71" style="stroke:#181818;stroke-width:1.0;"/></g><!--link RegisterAgentController to BranchContainer--><g id="link_RegisterAgentController_BranchContainer"><path codeLine="55" d="M1144.34,199.95 C1020.39,219.98 865.54,246.41 728,274 C700.15,279.59 676.5225,284.6676 647.9325,291.1276 " fill="none" id="RegisterAgentController-to-BranchContainer" style="stroke:#181818;stroke-width:1.0;stroke-dasharray:7.0,7.0;"/><polygon fill="#181818" points="642.08,292.45,651.7403,294.3681,646.9571,291.348,649.9771,286.5648,642.08,292.45" style="stroke:#181818;stroke-width:1.0;"/></g><!--link RegisterAgentController to AgentContainer--><g id="link_RegisterAgentController_AgentContainer"><path codeLine="56" d="M1254.09,213.08 C1198.61,235.23 1138.812,259.1046 1083.352,281.2546 " fill="none" id="RegisterAgentController-to-AgentContainer" style="stroke:#181818;stroke-width:1.0;stroke-dasharray:7.0,7.0;"/><polygon fill="#181818" points="1077.78,283.48,1087.6217,283.8566,1082.4234,281.6255,1084.6545,276.4272,1077.78,283.48" style="stroke:#181818;stroke-width:1.0;"/></g><!--link RegisterAgentController to Branch--><g id="link_RegisterAgentController_Branch"><path codeLine="57" d="M1609.78,178.36 C1790.21,192.96 2045.48,221.23 2264,274 C2269.75,275.39 2269.802,275.303 2275.662,276.943 " fill="none" id="RegisterAgentController-to-Branch" style="stroke:#181818;stroke-width:1.0;stroke-dasharray:7.0,7.0;"/><polygon fill="#181818" points="2281.44,278.56,2273.851,272.2824,2276.625,277.2125,2271.695,279.9864,2281.44,278.56" style="stroke:#181818;stroke-width:1.0;"/></g><!--link RegisterAgentController to StoreContainer--><g id="link_RegisterAgentController_StoreContainer"><path codeLine="58" d="M1477.13,213.19 C1528.44,238.4 1584.7446,266.0546 1633.1146,289.8146 " fill="none" id="RegisterAgentController-to-StoreContainer" style="stroke:#181818;stroke-width:1.0;stroke-dasharray:7.0,7.0;"/><polygon fill="#181818" points="1638.5,292.46,1632.1855,284.9017,1634.0122,290.2555,1628.6584,292.0822,1638.5,292.46" style="stroke:#181818;stroke-width:1.0;"/></g><!--SRC=[hLHDKy8m4BtdLsGueK07hpqm0-Y1YmTHxqkwjXdI59CKHnt_ko41QVebpiY5oUxcxNjljybuWfHnnGGIlULo1mfooWHeFJT6yKrfSCKAkUOVIAU4k0nzm9HhWsgUeZJF7D_e9_bgJIuBQLGX12fRGkrln1I2GPSSIiWnfclRHwPZIyFOBd89AZa5hs8B1-9EczCT3sBxy5Iwm6EnK21PDeJ3gL4_fXkNZgalSuYw56r0QrCexCJHX-o1cFqxerHa1_L7kHF-eyMVgv9zf2Bxlimtg8BqQ0-29nRr5WmCRTz5KGW4UMxiTLtSRmH9ujrl5repY6N8jalOWQNvtjh_Pyx0vJ-FMSCU_y2LQnTzalornEuh7Gus9BnmcHnto-_GgahOPy8P-LWVuvPrRD1n6tRvF7-Va0DibUSttcrs8Cx5Gsqkr2-jzeLKUCoJd4lxAYYmEJgu6T29ucbc9ZDtg0yWfZb8sqKVtK9DQbiMGaoZw7hG-09Zgf0LAj7K4TQavaCRXlV-tDz9qeGqNxmecdKzTQJh2VHtmaNlgwtvqbiR6dG1R6z9QDKt]--></g></svg>