<svg xmlns="http://www.w3.org/2000/svg" xmlns:xlink="http://www.w3.org/1999/xlink" contentStyleType="text/css" height="631px" preserveAspectRatio="none" style="width:227px;height:631px;background:#FFFFFF;" version="1.1" viewBox="0 0 227 631" width="227px" zoomAndPan="magnify"><defs/><g><!--class RegisterAgentController--><g id="elem_RegisterAgentController"><rect codeLine="5" fill="#F1F1F1" height="42.2969" id="RegisterAgentController" rx="2.5" ry="2.5" style="stroke:#181818;stroke-width:0.5;" width="174.8818" x="7" y="261.89"/><text fill="#000000" font-family="sans-serif" font-size="14" lengthAdjust="spacing" textLength="168.8818" x="10" y="279.8851">RegisterAgentController</text><line style="stroke:#181818;stroke-width:0.5;" x1="8" x2="180.8818" y1="288.1869" y2="288.1869"/><line style="stroke:#181818;stroke-width:0.5;" x1="8" x2="180.8818" y1="296.1869" y2="296.1869"/></g><!--class RegisterAgentView--><g id="elem_RegisterAgentView"><rect codeLine="8" fill="#F1F1F1" height="58.5938" id="RegisterAgentView" rx="2.5" ry="2.5" style="stroke:#181818;stroke-width:0.5;" width="139.2393" x="24.82" y="126.3"/><text fill="#000000" font-family="sans-serif" font-size="14" lengthAdjust="spacing" textLength="133.2393" x="27.82" y="144.2951">RegisterAgentView</text><line style="stroke:#181818;stroke-width:0.5;" x1="25.82" x2="163.0593" y1="152.5969" y2="152.5969"/><text fill="#000000" font-family="sans-serif" font-size="14" lengthAdjust="spacing" textLength="78.9209" x="30.82" y="169.592">-agentData</text><line style="stroke:#181818;stroke-width:0.5;" x1="25.82" x2="163.0593" y1="176.8937" y2="176.8937"/></g><!--class Branch--><g id="elem_Branch"><rect codeLine="12" fill="#F1F1F1" height="58.5938" id="Branch" rx="2.5" ry="2.5" style="stroke:#181818;stroke-width:0.5;" width="64.7871" x="62.05" y="381.19"/><text fill="#000000" font-family="sans-serif" font-size="14" lengthAdjust="spacing" textLength="49.3828" x="69.7521" y="399.1851">Branch</text><line style="stroke:#181818;stroke-width:0.5;" x1="63.05" x2="125.8371" y1="407.4869" y2="407.4869"/><text fill="#000000" font-family="sans-serif" font-size="14" lengthAdjust="spacing" textLength="52.7871" x="68.05" y="424.482">-agents</text><line style="stroke:#181818;stroke-width:0.5;" x1="63.05" x2="125.8371" y1="431.7837" y2="431.7837"/></g><!--class RealEstateAgent--><g id="elem_RealEstateAgent"><rect codeLine="16" fill="#F1F1F1" height="107.4844" id="RealEstateAgent" rx="2.5" ry="2.5" style="stroke:#181818;stroke-width:0.5;" width="152.0889" x="18.4" y="516.79"/><text fill="#000000" font-family="sans-serif" font-size="14" lengthAdjust="spacing" textLength="116.5596" x="36.1646" y="534.7851">RealEstateAgent</text><line style="stroke:#181818;stroke-width:0.5;" x1="19.4" x2="169.4889" y1="543.0869" y2="543.0869"/><text fill="#000000" font-family="sans-serif" font-size="14" lengthAdjust="spacing" textLength="44.7549" x="24.4" y="560.082">-name</text><text fill="#000000" font-family="sans-serif" font-size="14" lengthAdjust="spacing" textLength="140.0889" x="24.4" y="576.3789">-citizenCardNumber</text><text fill="#000000" font-family="sans-serif" font-size="14" lengthAdjust="spacing" textLength="43.6611" x="24.4" y="592.6757">-email</text><text fill="#000000" font-family="sans-serif" font-size="14" lengthAdjust="spacing" textLength="105.1025" x="24.4" y="608.9726">-phoneNumber</text><line style="stroke:#181818;stroke-width:0.5;" x1="19.4" x2="169.4889" y1="616.2744" y2="616.2744"/></g><!--class Administrator--><g id="elem_Administrator"><rect fill="#F1F1F1" height="42.2969" id="Administrator" rx="2.5" ry="2.5" style="stroke:#181818;stroke-width:0.5;" width="101.6826" x="43.6" y="7"/><text fill="#000000" font-family="sans-serif" font-size="14" lengthAdjust="spacing" textLength="95.6826" x="46.6" y="24.9951">Administrator</text><line style="stroke:#181818;stroke-width:0.5;" x1="44.6" x2="144.2826" y1="33.2969" y2="33.2969"/><line style="stroke:#181818;stroke-width:0.5;" x1="44.6" x2="144.2826" y1="41.2969" y2="41.2969"/></g><!--link Administrator to RegisterAgentView--><g id="link_Administrator_RegisterAgentView"><path codeLine="24" d="M94.44,49.59 C94.44,70.41 94.44,96.89 94.44,120.21 " fill="none" id="Administrator-to-RegisterAgentView" style="stroke:#181818;stroke-width:1.0;"/><polygon fill="#181818" points="94.44,126.21,98.44,117.21,94.44,121.21,90.44,117.21,94.44,126.21" style="stroke:#181818;stroke-width:1.0;"/><text fill="#000000" font-family="sans-serif" font-size="13" lengthAdjust="spacing" textLength="98.4966" x="95.44" y="92.3669">Fill Agent Form</text></g><!--link RegisterAgentView to RegisterAgentController--><g id="link_RegisterAgentView_RegisterAgentController"><path codeLine="25" d="M94.44,185.38 C94.44,208.67 94.44,234.9 94.44,255.61 " fill="none" id="RegisterAgentView-to-RegisterAgentController" style="stroke:#181818;stroke-width:1.0;"/><polygon fill="#181818" points="94.44,261.61,98.44,252.61,94.44,256.61,90.44,252.61,94.44,261.61" style="stroke:#181818;stroke-width:1.0;"/><text fill="#000000" font-family="sans-serif" font-size="13" lengthAdjust="spacing" textLength="123.8999" x="95.44" y="227.9569">Submit Agent Data</text></g><!--link RegisterAgentController to Branch--><g id="link_RegisterAgentController_Branch"><path codeLine="26" d="M94.44,304.48 C94.44,325.31 94.44,351.78 94.44,375.1 " fill="none" id="RegisterAgentController-to-Branch" style="stroke:#181818;stroke-width:1.0;"/><polygon fill="#181818" points="94.44,381.1,98.44,372.1,94.44,376.1,90.44,372.1,94.44,381.1" style="stroke:#181818;stroke-width:1.0;"/><text fill="#000000" font-family="sans-serif" font-size="13" lengthAdjust="spacing" textLength="68.0088" x="95.44" y="347.2569">Add Agent</text></g><!--link Branch to RealEstateAgent--><g id="link_Branch_RealEstateAgent"><path codeLine="27" d="M94.44,440.11 C94.44,461.37 94.44,484.98 94.44,510.51 " fill="none" id="Branch-to-RealEstateAgent" style="stroke:#181818;stroke-width:1.0;"/><polygon fill="#181818" points="94.44,516.51,98.44,507.51,94.44,511.51,90.44,507.51,94.44,516.51" style="stroke:#181818;stroke-width:1.0;"/><text fill="#000000" font-family="sans-serif" font-size="13" lengthAdjust="spacing" textLength="59.8584" x="95.44" y="482.8569">manages</text><text fill="#000000" font-family="sans-serif" font-size="13" lengthAdjust="spacing" textLength="8.271" x="85.6422" y="459.8472">1</text><text fill="#000000" font-family="sans-serif" font-size="13" lengthAdjust="spacing" textLength="23.0356" x="69.9683" y="505.7029">0..*</text></g><!--SRC=[RP1DIyGm48Rl-HKXbmMXxNhjGQYh2ruykE1zcWpRmNoKP8gW-DzDkq6htPo6cMSU9kzkO1vJspIZ1S-JixKEhj4MKgeCmJc24mCPb9gYjYZI6_aHSbSkJCSSgPyOdtJm9_f0kHTYcSWNF5DYZDqPFH-2vnYinIW_nTTLv9NmFGzbVfM4kVC03B_mVGIlXxz4Mhl0FYO6niNsmtbmM4fDd2_q1uZcUN8znj971sHBFGx1OvbczovxBJ05dmOQa-YC8vzlZi0Xoggwk_A7LgeZMIilTnn3T4figStkAg9iE4sz8owEEOX_ZXKzcqeuUR4pvhAbH6cgMxKmQb_NDseJL2iT-9nc-WO0]--></g></svg>