<?xml version="1.0" encoding="UTF-8" standalone="no"?>
<svg xmlns="http://www.w3.org/2000/svg" xmlns:xlink="http://www.w3.org/1999/xlink" contentScriptType="application/ecmascript" contentStyleType="text/css" height="400px" preserveAspectRatio="none" style="width:400px;height:400px;background:#FFFFFF;" version="1.1" viewBox="0 0 400 400" width="400px" zoomAndPan="magnify">
    <defs>
        <filter height="300%" id="f1" width="300%" x="-1" y="-1">
            <feGaussianBlur result="blurOut" stdDeviation="2.0"/>
            <feColorMatrix in="blurOut" result="blurOut2" type="matrix" values="0 0 0 0 0 0 0 0 0 0 0 0 0 0 0 0 0 0 .4 0"/>
            <feOffset dx="4.0" dy="4.0" in="blurOut2" result="blurOut3"/>
            <feBlend in="SourceGraphic" in2="blurOut3" mode="normal"/>
        </filter>
    </defs>

    <!-- Title -->
    <text fill="#000000" font-family="sans-serif" font-size="18" lengthAdjust="spacing" textLength="380" x="10" y="25">Register New Agent System Sequence Diagram</text>

    <!-- Person Actor -->
    <text fill="#000000" font-family="sans-serif" font-size="14" lengthAdjust="spacing" textLength="50" x="20" y="70">Person</text>
    <ellipse cx="50" cy="100" fill="#FEFECE" filter="url(#f1)" rx="8" ry="8" style="stroke:#A80036;stroke-width:2.0;"/>
    <path d="M50,108 L50,135 M37,116 L63,116 M50,135 L37,150 M50,135 L63,150" fill="none" filter="url(#f1)" style="stroke:#A80036;stroke-width:2.0;"/>
    <text fill="#000000" font-family="sans-serif" font-size="14" lengthAdjust="spacing" textLength="50" x="20" y="330">Person</text>
    <ellipse cx="50" cy="340" fill="#FEFECE" filter="url(#f1)" rx="8" ry="8" style="stroke:#A80036;stroke-width:2.0;"/>
    <path d="M50,348 L50,375 M37,356 L63,356 M50,375 L37,390 M50,375 L63,390" fill="none" filter="url(#f1)" style="stroke:#A80036;stroke-width:2.0;"/>

    <!-- System -->
    <rect fill="#FEFECE" filter="url(#f1)" height="30" style="stroke:#A80036;stroke-width:1.5;" width="66" x="267" y="90"/>
    <text fill="#000000" font-family="sans-serif" font-size="14" lengthAdjust="spacing" textLength="52" x="274" y="110">:System</text>
    <rect fill="#FEFECE" filter="url(#f1)" height="30" style="stroke:#A80036;stroke-width:1.5;" width="66" x="267" y="310"/>
    <text fill="#000000" font-family="sans-serif" font-size="14" lengthAdjust="spacing" textLength="52" x="274" y="330">:System</text>

    <!-- Lifelines -->
    <line style="stroke:#A80036;stroke-width:1.0;stroke-dasharray:5.0,5.0;" x1="50" x2="50" y1="120" y2="310"/>
    <line style="stroke:#A80036;stroke-width:1.0;stroke-dasharray:5.0,5.0;" x1="300" x2="300" y1="120" y2="310"/>

    <!-- Messages -->
    <!-- Message 1 -->
    <polygon fill="#A80036" points="285,150 295,154 285,158 289,154" style="stroke:#A80036;stroke-width:1.0;"/>
    <line style="stroke:#A80036;stroke-width:1.0;" x1="53" x2="291" y1="154" y2="154"/>
    <text fill="#000000" font-family="sans-serif" font-size="13" font-weight="bold" lengthAdjust="spacing" textLength="9" x="60" y="150">1</text>
    <text fill="#000000" font-family="sans-serif" font-size="13" lengthAdjust="spacing" textLength="210" x="73" y="150">Request to register a new agent</text>

    <!-- Message 2 -->
    <polygon fill="#A80036" points="64,180 54,184 64,188 60,184" style="stroke:#A80036;stroke-width:1.0;"/>
    <line style="stroke:#A80036;stroke-width:1.0;stroke-dasharray:2.0,2.0;" x1="58" x2="301" y1="184" y2="184"/>
    <text fill="#000000" font-family="sans-serif" font-size="13" font-weight="bold" lengthAdjust="spacing" textLength="9" x="70" y="179">2</text>
    <text fill="#000000" font-family="sans-serif" font-size="13" lengthAdjust="spacing" textLength="190" x="83" y="179">Request for agent details</text>

    <!-- Message 3 -->
    <polygon fill="#A80036" points="285,210 295,214 285,218 289,214" style="stroke:#A80036;stroke-width:1.0;"/>
    <line style="stroke:#A80036;stroke-width:1.0;" x1="53" x2="291" y1="214" y2="214"/>
    <text fill="#000000" font-family="sans-serif" font-size="13" font-weight="bold" lengthAdjust="spacing" textLength="9" x="60" y="210">3</text>
    <text fill="#000000" font-family="sans-serif" font-size="13" lengthAdjust="spacing" textLength="180" x="73" y="210">Submit agent details</text>

    <!-- Message 4 -->
    <polygon fill="#A80036" points="64,240 54,244 64,248 60,244" style="stroke:#A80036;stroke-width:1.0;"/>
    <line style="stroke:#A80036;stroke-width:1.0;stroke-dasharray:2.0,2.0;" x1="58" x2="301" y1="244" y2="244"/>
    <text fill="#000000" font-family="sans-serif" font-size="13" font-weight="bold" lengthAdjust="spacing" textLength="9" x="70" y="238">4</text>
    <text fill="#000000" font-family="sans-serif" font-size="13" lengthAdjust="spacing" textLength="220" x="83" y="238">Confirmation of successful registration</text>
</svg>
