<svg xmlns="http://www.w3.org/2000/svg" xmlns:xlink="http://www.w3.org/1999/xlink" contentStyleType="text/css"
     height="1396px" preserveAspectRatio="none" style="width:1456px;height:1396px;background:#FFFFFF;" version="1.1"
     viewBox="0 0 1456 1396" width="1456px" zoomAndPan="magnify">
    <defs/>
    <g>
        <line style="stroke:#181818;stroke-width:0.5;stroke-dasharray:5.0,5.0;" x1="49" x2="49" y1="83.6211"
              y2="1313.3887"/>
        <line style="stroke:#181818;stroke-width:0.5;stroke-dasharray:5.0,5.0;" x1="269.2397" x2="269.2397" y1="83.6211"
              y2="1313.3887"/>
        <line style="stroke:#181818;stroke-width:0.5;stroke-dasharray:5.0,5.0;" x1="452.019" x2="452.019" y1="83.6211"
              y2="1313.3887"/>
        <line style="stroke:#181818;stroke-width:0.5;stroke-dasharray:5.0,5.0;" x1="603.4253" x2="603.4253" y1="83.6211"
              y2="1313.3887"/>
        <line style="stroke:#181818;stroke-width:0.5;stroke-dasharray:5.0,5.0;" x1="702.4868" x2="702.4868" y1="83.6211"
              y2="1313.3887"/>
        <line style="stroke:#181818;stroke-width:0.5;stroke-dasharray:5.0,5.0;" x1="796.8452" x2="796.8452" y1="83.6211"
              y2="1313.3887"/>
        <line style="stroke:#181818;stroke-width:0.5;stroke-dasharray:5.0,5.0;" x1="946.8018" x2="946.8018" y1="83.6211"
              y2="1313.3887"/>
        <line style="stroke:#181818;stroke-width:0.5;stroke-dasharray:5.0,5.0;" x1="1070.8701" x2="1070.8701"
              y1="83.6211" y2="1313.3887"/>
        <line style="stroke:#181818;stroke-width:0.5;stroke-dasharray:5.0,5.0;" x1="1202.0352" x2="1202.0352"
              y1="83.6211" y2="1313.3887"/>
        <line style="stroke:#181818;stroke-width:0.5;stroke-dasharray:5.0,5.0;" x1="1303.4346" x2="1303.4346"
              y1="83.6211" y2="1313.3887"/>
        <line style="stroke:#181818;stroke-width:0.5;stroke-dasharray:5.0,5.0;" x1="1430.4512" x2="1430.4512"
              y1="83.6211" y2="1313.3887"/>
        <text fill="#000000" font-family="sans-serif" font-size="14" lengthAdjust="spacing" textLength="82.4688" x="5"
              y="80.1074">Administrator
        </text>
        <ellipse cx="49.2344" cy="13.5" fill="#E2E2F0" rx="8" ry="8" style="stroke:#181818;stroke-width:0.5;"/>
        <path d="M49.2344,21.5 L49.2344,48.5 M36.2344,29.5 L62.2344,29.5 M49.2344,48.5 L36.2344,63.5 M49.2344,48.5 L62.2344,63.5 "
              fill="none" style="stroke:#181818;stroke-width:0.5;"/>
        <text fill="#000000" font-family="sans-serif" font-size="14" lengthAdjust="spacing" textLength="82.4688" x="5"
              y="1327.4961">Administrator
        </text>
        <ellipse cx="49.2344" cy="1339.5098" fill="#E2E2F0" rx="8" ry="8" style="stroke:#181818;stroke-width:0.5;"/>
        <path d="M49.2344,1347.5098 L49.2344,1374.5098 M36.2344,1355.5098 L62.2344,1355.5098 M49.2344,1374.5098 L36.2344,1389.5098 M49.2344,1374.5098 L62.2344,1389.5098 "
              fill="none" style="stroke:#181818;stroke-width:0.5;"/>
        <rect fill="#E2E2F0" height="32.6211" rx="2.5" ry="2.5" style="stroke:#181818;stroke-width:0.5;"
              width="133.0615" x="203.2397" y="50"/>
        <text fill="#000000" font-family="sans-serif" font-size="14" lengthAdjust="spacing" textLength="119.0615"
              x="210.2397" y="72.1074">RegisterAgentView
        </text>
        <rect fill="#E2E2F0" height="32.6211" rx="2.5" ry="2.5" style="stroke:#181818;stroke-width:0.5;"
              width="133.0615" x="203.2397" y="1312.3887"/>
        <text fill="#000000" font-family="sans-serif" font-size="14" lengthAdjust="spacing" textLength="119.0615"
              x="210.2397" y="1334.4961">RegisterAgentView
        </text>
        <rect fill="#E2E2F0" height="32.6211" rx="2.5" ry="2.5" style="stroke:#181818;stroke-width:0.5;"
              width="163.4063" x="371.019" y="50"/>
        <text fill="#000000" font-family="sans-serif" font-size="14" lengthAdjust="spacing" textLength="149.4063"
              x="378.019" y="72.1074">RegisterAgentController
        </text>
        <rect fill="#E2E2F0" height="32.6211" rx="2.5" ry="2.5" style="stroke:#181818;stroke-width:0.5;"
              width="163.4063" x="371.019" y="1312.3887"/>
        <text fill="#000000" font-family="sans-serif" font-size="14" lengthAdjust="spacing" textLength="149.4063"
              x="378.019" y="1334.4961">RegisterAgentController
        </text>
        <rect fill="#E2E2F0" height="32.6211" rx="2.5" ry="2.5" style="stroke:#181818;stroke-width:0.5;"
              width="119.0615" x="544.4253" y="50"/>
        <text fill="#000000" font-family="sans-serif" font-size="14" lengthAdjust="spacing" textLength="105.0615"
              x="551.4253" y="72.1074">BranchContainer
        </text>
        <rect fill="#E2E2F0" height="32.6211" rx="2.5" ry="2.5" style="stroke:#181818;stroke-width:0.5;"
              width="119.0615" x="544.4253" y="1312.3887"/>
        <text fill="#000000" font-family="sans-serif" font-size="14" lengthAdjust="spacing" textLength="105.0615"
              x="551.4253" y="1334.4961">BranchContainer
        </text>
        <rect fill="#E2E2F0" height="32.6211" rx="2.5" ry="2.5" style="stroke:#181818;stroke-width:0.5;" width="58.3584"
              x="673.4868" y="50"/>
        <text fill="#000000" font-family="sans-serif" font-size="14" lengthAdjust="spacing" textLength="44.3584"
              x="680.4868" y="72.1074">Branch
        </text>
        <rect fill="#E2E2F0" height="32.6211" rx="2.5" ry="2.5" style="stroke:#181818;stroke-width:0.5;" width="58.3584"
              x="673.4868" y="1312.3887"/>
        <text fill="#000000" font-family="sans-serif" font-size="14" lengthAdjust="spacing" textLength="44.3584"
              x="680.4868" y="1334.4961">Branch
        </text>
        <rect fill="#E2E2F0" height="32.6211" rx="2.5" ry="2.5" style="stroke:#181818;stroke-width:0.5;"
              width="111.2891" x="741.8452" y="50"/>
        <text fill="#000000" font-family="sans-serif" font-size="14" lengthAdjust="spacing" textLength="97.2891"
              x="748.8452" y="72.1074">AgentContainer
        </text>
        <rect fill="#E2E2F0" height="32.6211" rx="2.5" ry="2.5" style="stroke:#181818;stroke-width:0.5;"
              width="111.2891" x="741.8452" y="1312.3887"/>
        <text fill="#000000" font-family="sans-serif" font-size="14" lengthAdjust="spacing" textLength="97.2891"
              x="748.8452" y="1334.4961">AgentContainer
        </text>
        <rect fill="#E2E2F0" height="32.6211" rx="2.5" ry="2.5" style="stroke:#181818;stroke-width:0.5;"
              width="119.0684" x="887.8018" y="50"/>
        <text fill="#000000" font-family="sans-serif" font-size="14" lengthAdjust="spacing" textLength="105.0684"
              x="894.8018" y="72.1074">RealEstateAgent
        </text>
        <rect fill="#E2E2F0" height="32.6211" rx="2.5" ry="2.5" style="stroke:#181818;stroke-width:0.5;"
              width="119.0684" x="887.8018" y="1312.3887"/>
        <text fill="#000000" font-family="sans-serif" font-size="14" lengthAdjust="spacing" textLength="105.0684"
              x="894.8018" y="1334.4961">RealEstateAgent
        </text>
        <rect fill="#E2E2F0" height="32.6211" rx="2.5" ry="2.5" style="stroke:#181818;stroke-width:0.5;" width="108.165"
              x="1016.8701" y="50"/>
        <text fill="#000000" font-family="sans-serif" font-size="14" lengthAdjust="spacing" textLength="94.165"
              x="1023.8701" y="72.1074">StoreContainer
        </text>
        <rect fill="#E2E2F0" height="32.6211" rx="2.5" ry="2.5" style="stroke:#181818;stroke-width:0.5;" width="108.165"
              x="1016.8701" y="1312.3887"/>
        <text fill="#000000" font-family="sans-serif" font-size="14" lengthAdjust="spacing" textLength="94.165"
              x="1023.8701" y="1334.4961">StoreContainer
        </text>
        <rect fill="#E2E2F0" height="32.6211" rx="2.5" ry="2.5" style="stroke:#181818;stroke-width:0.5;"
              width="135.3994" x="1135.0352" y="50"/>
        <text fill="#000000" font-family="sans-serif" font-size="14" lengthAdjust="spacing" textLength="121.3994"
              x="1142.0352" y="72.1074">StoreSelectionView
        </text>
        <rect fill="#E2E2F0" height="32.6211" rx="2.5" ry="2.5" style="stroke:#181818;stroke-width:0.5;"
              width="135.3994" x="1135.0352" y="1312.3887"/>
        <text fill="#000000" font-family="sans-serif" font-size="14" lengthAdjust="spacing" textLength="121.3994"
              x="1142.0352" y="1334.4961">StoreSelectionView
        </text>
        <rect fill="#E2E2F0" height="32.6211" rx="2.5" ry="2.5" style="stroke:#181818;stroke-width:0.5;" width="47.4619"
              x="1280.4346" y="50"/>
        <text fill="#000000" font-family="sans-serif" font-size="14" lengthAdjust="spacing" textLength="33.4619"
              x="1287.4346" y="72.1074">Store
        </text>
        <rect fill="#E2E2F0" height="32.6211" rx="2.5" ry="2.5" style="stroke:#181818;stroke-width:0.5;" width="47.4619"
              x="1280.4346" y="1312.3887"/>
        <text fill="#000000" font-family="sans-serif" font-size="14" lengthAdjust="spacing" textLength="33.4619"
              x="1287.4346" y="1334.4961">Store
        </text>
        <rect fill="#E2E2F0" height="32.6211" rx="2.5" ry="2.5" style="stroke:#181818;stroke-width:0.5;" width="38.9102"
              x="1411.4512" y="50"/>
        <text fill="#000000" font-family="sans-serif" font-size="14" lengthAdjust="spacing" textLength="24.9102"
              x="1418.4512" y="72.1074">App
        </text>
        <rect fill="#E2E2F0" height="32.6211" rx="2.5" ry="2.5" style="stroke:#181818;stroke-width:0.5;" width="38.9102"
              x="1411.4512" y="1312.3887"/>
        <text fill="#000000" font-family="sans-serif" font-size="14" lengthAdjust="spacing" textLength="24.9102"
              x="1418.4512" y="1334.4961">App
        </text>
        <polygon fill="#181818" points="257.7705,112.9121,267.7705,116.9121,257.7705,120.9121,261.7705,116.9121"
                 style="stroke:#181818;stroke-width:1.0;"/>
        <line style="stroke:#181818;stroke-width:1.0;" x1="49.2344" x2="263.7705" y1="116.9121" y2="116.9121"/>
        <text fill="#000000" font-family="sans-serif" font-size="13" lengthAdjust="spacing" textLength="162.5889"
              x="56.2344" y="111.6494">asks to register a new agent
        </text>
        <polygon fill="#181818" points="440.7222,144.2031,450.7222,148.2031,440.7222,152.2031,444.7222,148.2031"
                 style="stroke:#181818;stroke-width:1.0;"/>
        <line style="stroke:#181818;stroke-width:1.0;" x1="269.7705" x2="446.7222" y1="148.2031" y2="148.2031"/>
        <text fill="#000000" font-family="sans-serif" font-size="13" lengthAdjust="spacing" textLength="78.7617"
              x="276.7705" y="142.9404">createAgent()
        </text>
        <polygon fill="#181818" points="591.9561,175.4941,601.9561,179.4941,591.9561,183.4941,595.9561,179.4941"
                 style="stroke:#181818;stroke-width:1.0;"/>
        <line style="stroke:#181818;stroke-width:1.0;" x1="452.7222" x2="597.9561" y1="179.4941" y2="179.4941"/>
        <text fill="#000000" font-family="sans-serif" font-size="13" lengthAdjust="spacing" textLength="117.0698"
              x="459.7222" y="174.2314">getAgentContainer()
        </text>
        <polygon fill="#181818" points="463.7222,206.7852,453.7222,210.7852,463.7222,214.7852,459.7222,210.7852"
                 style="stroke:#181818;stroke-width:1.0;"/>
        <line style="stroke:#181818;stroke-width:1.0;stroke-dasharray:2.0,2.0;" x1="457.7222" x2="602.9561"
              y1="210.7852" y2="210.7852"/>
        <text fill="#000000" font-family="sans-serif" font-size="13" lengthAdjust="spacing" textLength="88.8989"
              x="469.7222" y="205.5225">agentContainer
        </text>
        <polygon fill="#181818" points="785.4897,238.0762,795.4897,242.0762,785.4897,246.0762,789.4897,242.0762"
                 style="stroke:#181818;stroke-width:1.0;"/>
        <line style="stroke:#181818;stroke-width:1.0;" x1="452.7222" x2="791.4897" y1="242.0762" y2="242.0762"/>
        <text fill="#000000" font-family="sans-serif" font-size="13" lengthAdjust="spacing" textLength="44.7891"
              x="459.7222" y="236.8135">create()
        </text>
        <polygon fill="#181818" points="463.7222,269.3672,453.7222,273.3672,463.7222,277.3672,459.7222,273.3672"
                 style="stroke:#181818;stroke-width:1.0;"/>
        <line style="stroke:#181818;stroke-width:1.0;stroke-dasharray:2.0,2.0;" x1="457.7222" x2="796.4897"
              y1="273.3672" y2="273.3672"/>
        <text fill="#000000" font-family="sans-serif" font-size="13" lengthAdjust="spacing" textLength="140.9307"
              x="469.7222" y="268.1045">agent : RealEstateAgent
        </text>
        <polygon fill="#181818" points="60.2344,300.6582,50.2344,304.6582,60.2344,308.6582,56.2344,304.6582"
                 style="stroke:#181818;stroke-width:1.0;"/>
        <line style="stroke:#181818;stroke-width:1.0;" x1="54.2344" x2="268.7705" y1="304.6582" y2="304.6582"/>
        <text fill="#000000" font-family="sans-serif" font-size="13" lengthAdjust="spacing" textLength="196.5361"
              x="66.2344" y="299.3955">requests data (name, citizen card)
        </text>
        <polygon fill="#181818" points="257.7705,331.9492,267.7705,335.9492,257.7705,339.9492,261.7705,335.9492"
                 style="stroke:#181818;stroke-width:1.0;"/>
        <line style="stroke:#181818;stroke-width:1.0;" x1="49.2344" x2="263.7705" y1="335.9492" y2="335.9492"/>
        <text fill="#000000" font-family="sans-serif" font-size="13" lengthAdjust="spacing" textLength="65.0444"
              x="56.2344" y="330.6865">enters data
        </text>
        <polygon fill="#181818" points="440.7222,363.2402,450.7222,367.2402,440.7222,371.2402,444.7222,367.2402"
                 style="stroke:#181818;stroke-width:1.0;"/>
        <line style="stroke:#181818;stroke-width:1.0;" x1="269.7705" x2="446.7222" y1="367.2402" y2="367.2402"/>
        <text fill="#000000" font-family="sans-serif" font-size="13" lengthAdjust="spacing" textLength="158.9517"
              x="276.7705" y="361.9775">setData(name, citizen card)
        </text>
        <polygon fill="#181818" points="935.3359,394.5313,945.3359,398.5313,935.3359,402.5313,939.3359,398.5313"
                 style="stroke:#181818;stroke-width:1.0;"/>
        <line style="stroke:#181818;stroke-width:1.0;" x1="452.7222" x2="941.3359" y1="398.5313" y2="398.5313"/>
        <text fill="#000000" font-family="sans-serif" font-size="13" lengthAdjust="spacing" textLength="93.1963"
              x="459.7222" y="393.2686">setName(name)
        </text>
        <polygon fill="#181818" points="463.7222,425.8223,453.7222,429.8223,463.7222,433.8223,459.7222,429.8223"
                 style="stroke:#181818;stroke-width:1.0;"/>
        <line style="stroke:#181818;stroke-width:1.0;stroke-dasharray:2.0,2.0;" x1="457.7222" x2="946.3359"
              y1="429.8223" y2="429.8223"/>
        <text fill="#000000" font-family="sans-serif" font-size="13" lengthAdjust="spacing" textLength="13.73"
              x="469.7222" y="424.5596">ok
        </text>
        <polygon fill="#181818" points="935.3359,457.1133,945.3359,461.1133,935.3359,465.1133,939.3359,461.1133"
                 style="stroke:#181818;stroke-width:1.0;"/>
        <line style="stroke:#181818;stroke-width:1.0;" x1="452.7222" x2="941.3359" y1="461.1133" y2="461.1133"/>
        <text fill="#000000" font-family="sans-serif" font-size="13" lengthAdjust="spacing" textLength="159.6626"
              x="459.7222" y="455.8506">setCitizenCard(citizen card)
        </text>
        <polygon fill="#181818" points="463.7222,488.4043,453.7222,492.4043,463.7222,496.4043,459.7222,492.4043"
                 style="stroke:#181818;stroke-width:1.0;"/>
        <line style="stroke:#181818;stroke-width:1.0;stroke-dasharray:2.0,2.0;" x1="457.7222" x2="946.3359"
              y1="492.4043" y2="492.4043"/>
        <text fill="#000000" font-family="sans-serif" font-size="13" lengthAdjust="spacing" textLength="13.73"
              x="469.7222" y="487.1416">ok
        </text>
        <polygon fill="#181818" points="1190.7349,519.6953,1200.7349,523.6953,1190.7349,527.6953,1194.7349,523.6953"
                 style="stroke:#181818;stroke-width:1.0;"/>
        <line style="stroke:#181818;stroke-width:1.0;" x1="269.7705" x2="1196.7349" y1="523.6953" y2="523.6953"/>
        <text fill="#000000" font-family="sans-serif" font-size="13" lengthAdjust="spacing" textLength="95.3735"
              x="276.7705" y="518.4326">request store list
        </text>
        <polygon fill="#181818" points="463.7222,550.9863,453.7222,554.9863,463.7222,558.9863,459.7222,554.9863"
                 style="stroke:#181818;stroke-width:1.0;"/>
        <line style="stroke:#181818;stroke-width:1.0;" x1="457.7222" x2="1201.7349" y1="554.9863" y2="554.9863"/>
        <text fill="#000000" font-family="sans-serif" font-size="13" lengthAdjust="spacing" textLength="95.3735"
              x="469.7222" y="549.7236">request store list
        </text>
        <polygon fill="#181818" points="1058.9526,582.2773,1068.9526,586.2773,1058.9526,590.2773,1062.9526,586.2773"
                 style="stroke:#181818;stroke-width:1.0;"/>
        <line style="stroke:#181818;stroke-width:1.0;" x1="452.7222" x2="1064.9526" y1="586.2773" y2="586.2773"/>
        <text fill="#000000" font-family="sans-serif" font-size="13" lengthAdjust="spacing" textLength="64.3018"
              x="459.7222" y="581.0146">getStores()
        </text>
        <polygon fill="#181818" points="463.7222,613.5684,453.7222,617.5684,463.7222,621.5684,459.7222,617.5684"
                 style="stroke:#181818;stroke-width:1.0;"/>
        <line style="stroke:#181818;stroke-width:1.0;stroke-dasharray:2.0,2.0;" x1="457.7222" x2="1069.9526"
              y1="617.5684" y2="617.5684"/>
        <text fill="#000000" font-family="sans-serif" font-size="13" lengthAdjust="spacing" textLength="49.1309"
              x="469.7222" y="612.3057">storeList
        </text>
        <polygon fill="#181818" points="1190.7349,644.8594,1200.7349,648.8594,1190.7349,652.8594,1194.7349,648.8594"
                 style="stroke:#181818;stroke-width:1.0;"/>
        <line style="stroke:#181818;stroke-width:1.0;" x1="452.7222" x2="1196.7349" y1="648.8594" y2="648.8594"/>
        <text fill="#000000" font-family="sans-serif" font-size="13" lengthAdjust="spacing" textLength="80.2026"
              x="459.7222" y="643.5967">pass storeList
        </text>
        <polygon fill="#181818" points="280.7705,676.1504,270.7705,680.1504,280.7705,684.1504,276.7705,680.1504"
                 style="stroke:#181818;stroke-width:1.0;"/>
        <line style="stroke:#181818;stroke-width:1.0;" x1="274.7705" x2="1201.7349" y1="680.1504" y2="680.1504"/>
        <text fill="#000000" font-family="sans-serif" font-size="13" lengthAdjust="spacing" textLength="93.209"
              x="286.7705" y="674.8877">display storeList
        </text>
        <polygon fill="#181818" points="257.7705,707.4414,267.7705,711.4414,257.7705,715.4414,261.7705,711.4414"
                 style="stroke:#181818;stroke-width:1.0;"/>
        <line style="stroke:#181818;stroke-width:1.0;" x1="49.2344" x2="263.7705" y1="711.4414" y2="711.4414"/>
        <text fill="#000000" font-family="sans-serif" font-size="13" lengthAdjust="spacing" textLength="72.9727"
              x="56.2344" y="706.1787">selects store
        </text>
        <polygon fill="#181818" points="1190.7349,738.7324,1200.7349,742.7324,1190.7349,746.7324,1194.7349,742.7324"
                 style="stroke:#181818;stroke-width:1.0;"/>
        <line style="stroke:#181818;stroke-width:1.0;" x1="269.7705" x2="1196.7349" y1="742.7324" y2="742.7324"/>
        <text fill="#000000" font-family="sans-serif" font-size="13" lengthAdjust="spacing" textLength="66.4727"
              x="276.7705" y="737.4697">select store
        </text>
        <polygon fill="#181818" points="463.7222,770.0234,453.7222,774.0234,463.7222,778.0234,459.7222,774.0234"
                 style="stroke:#181818;stroke-width:1.0;"/>
        <line style="stroke:#181818;stroke-width:1.0;" x1="457.7222" x2="1201.7349" y1="774.0234" y2="774.0234"/>
        <text fill="#000000" font-family="sans-serif" font-size="13" lengthAdjust="spacing" textLength="85.9727"
              x="469.7222" y="768.7607">setStore(store)
        </text>
        <polygon fill="#181818" points="1292.1655,801.3145,1302.1655,805.3145,1292.1655,809.3145,1296.1655,805.3145"
                 style="stroke:#181818;stroke-width:1.0;"/>
        <line style="stroke:#181818;stroke-width:1.0;" x1="452.7222" x2="1298.1655" y1="805.3145" y2="805.3145"/>
        <text fill="#000000" font-family="sans-serif" font-size="13" lengthAdjust="spacing" textLength="112.7407"
              x="459.7222" y="800.0518">assignAgent(agent)
        </text>
        <line style="stroke:#181818;stroke-width:1.0;" x1="1304.1655" x2="1346.1655" y1="836.6055" y2="836.6055"/>
        <line style="stroke:#181818;stroke-width:1.0;" x1="1346.1655" x2="1346.1655" y1="836.6055" y2="849.6055"/>
        <line style="stroke:#181818;stroke-width:1.0;" x1="1305.1655" x2="1346.1655" y1="849.6055" y2="849.6055"/>
        <polygon fill="#181818" points="1315.1655,845.6055,1305.1655,849.6055,1315.1655,853.6055,1311.1655,849.6055"
                 style="stroke:#181818;stroke-width:1.0;"/>
        <text fill="#000000" font-family="sans-serif" font-size="13" lengthAdjust="spacing" textLength="112.7407"
              x="1311.1655" y="831.3428">assignAgent(agent)
        </text>
        <polygon fill="#181818" points="463.7222,876.8965,453.7222,880.8965,463.7222,884.8965,459.7222,880.8965"
                 style="stroke:#181818;stroke-width:1.0;"/>
        <line style="stroke:#181818;stroke-width:1.0;stroke-dasharray:2.0,2.0;" x1="457.7222" x2="1303.1655"
              y1="880.8965" y2="880.8965"/>
        <text fill="#000000" font-family="sans-serif" font-size="13" lengthAdjust="spacing" textLength="13.73"
              x="469.7222" y="875.6338">ok
        </text>
        <polygon fill="#181818" points="935.3359,908.1875,945.3359,912.1875,935.3359,916.1875,939.3359,912.1875"
                 style="stroke:#181818;stroke-width:1.0;"/>
        <line style="stroke:#181818;stroke-width:1.0;" x1="452.7222" x2="941.3359" y1="912.1875" y2="912.1875"/>
        <text fill="#000000" font-family="sans-serif" font-size="13" lengthAdjust="spacing" textLength="53.4663"
              x="459.7222" y="906.9248">validate()
        </text>
        <line style="stroke:#181818;stroke-width:1.0;" x1="947.3359" x2="989.3359" y1="943.4785" y2="943.4785"/>
        <line style="stroke:#181818;stroke-width:1.0;" x1="989.3359" x2="989.3359" y1="943.4785" y2="956.4785"/>
        <line style="stroke:#181818;stroke-width:1.0;" x1="948.3359" x2="989.3359" y1="956.4785" y2="956.4785"/>
        <polygon fill="#181818" points="958.3359,952.4785,948.3359,956.4785,958.3359,960.4785,954.3359,956.4785"
                 style="stroke:#181818;stroke-width:1.0;"/>
        <text fill="#000000" font-family="sans-serif" font-size="13" lengthAdjust="spacing" textLength="46.9536"
              x="954.3359" y="938.2158">isValid()
        </text>
        <polygon fill="#181818" points="463.7222,983.7695,453.7222,987.7695,463.7222,991.7695,459.7222,987.7695"
                 style="stroke:#181818;stroke-width:1.0;"/>
        <line style="stroke:#181818;stroke-width:1.0;stroke-dasharray:2.0,2.0;" x1="457.7222" x2="946.3359"
              y1="987.7695" y2="987.7695"/>
        <text fill="#000000" font-family="sans-serif" font-size="13" lengthAdjust="spacing" textLength="13.73"
              x="469.7222" y="982.5068">ok
        </text>
        <polygon fill="#181818" points="785.4897,1015.0605,795.4897,1019.0605,785.4897,1023.0605,789.4897,1019.0605"
                 style="stroke:#181818;stroke-width:1.0;"/>
        <line style="stroke:#181818;stroke-width:1.0;" x1="452.7222" x2="791.4897" y1="1019.0605" y2="1019.0605"/>
        <text fill="#000000" font-family="sans-serif" font-size="13" lengthAdjust="spacing" textLength="85.998"
              x="459.7222" y="1013.7979">validate(agent)
        </text>
        <line style="stroke:#181818;stroke-width:1.0;" x1="797.4897" x2="839.4897" y1="1050.3516" y2="1050.3516"/>
        <line style="stroke:#181818;stroke-width:1.0;" x1="839.4897" x2="839.4897" y1="1050.3516" y2="1063.3516"/>
        <line style="stroke:#181818;stroke-width:1.0;" x1="798.4897" x2="839.4897" y1="1063.3516" y2="1063.3516"/>
        <polygon fill="#181818" points="808.4897,1059.3516,798.4897,1063.3516,808.4897,1067.3516,804.4897,1063.3516"
                 style="stroke:#181818;stroke-width:1.0;"/>
        <text fill="#000000" font-family="sans-serif" font-size="13" lengthAdjust="spacing" textLength="135.8462"
              x="804.4897" y="1045.0889">checkDuplicates(agent)
        </text>
        <polygon fill="#181818" points="463.7222,1090.6426,453.7222,1094.6426,463.7222,1098.6426,459.7222,1094.6426"
                 style="stroke:#181818;stroke-width:1.0;"/>
        <line style="stroke:#181818;stroke-width:1.0;stroke-dasharray:2.0,2.0;" x1="457.7222" x2="796.4897"
              y1="1094.6426" y2="1094.6426"/>
        <text fill="#000000" font-family="sans-serif" font-size="13" lengthAdjust="spacing" textLength="13.73"
              x="469.7222" y="1089.3799">ok
        </text>
        <polygon fill="#181818" points="1418.9063,1121.9336,1428.9063,1125.9336,1418.9063,1129.9336,1422.9063,1125.9336"
                 style="stroke:#181818;stroke-width:1.0;"/>
        <line style="stroke:#181818;stroke-width:1.0;" x1="269.7705" x2="1424.9063" y1="1125.9336" y2="1125.9336"/>
        <text fill="#000000" font-family="sans-serif" font-size="13" lengthAdjust="spacing" textLength="218.9561"
              x="276.7705" y="1120.6709">shows data and requests confirmation
        </text>
        <polygon fill="#181818" points="257.7705,1153.2246,267.7705,1157.2246,257.7705,1161.2246,261.7705,1157.2246"
                 style="stroke:#181818;stroke-width:1.0;"/>
        <line style="stroke:#181818;stroke-width:1.0;" x1="49.2344" x2="263.7705" y1="1157.2246" y2="1157.2246"/>
        <text fill="#000000" font-family="sans-serif" font-size="13" lengthAdjust="spacing" textLength="49.1182"
              x="56.2344" y="1151.9619">confirms
        </text>
        <polygon fill="#181818" points="785.4897,1184.5156,795.4897,1188.5156,785.4897,1192.5156,789.4897,1188.5156"
                 style="stroke:#181818;stroke-width:1.0;"/>
        <line style="stroke:#181818;stroke-width:1.0;" x1="452.7222" x2="791.4897" y1="1188.5156" y2="1188.5156"/>
        <text fill="#000000" font-family="sans-serif" font-size="13" lengthAdjust="spacing" textLength="68.6499"
              x="459.7222" y="1183.2529">save(agent)
        </text>
        <line style="stroke:#181818;stroke-width:1.0;" x1="797.4897" x2="839.4897" y1="1219.8066" y2="1219.8066"/>
        <line style="stroke:#181818;stroke-width:1.0;" x1="839.4897" x2="839.4897" y1="1219.8066" y2="1232.8066"/>
        <line style="stroke:#181818;stroke-width:1.0;" x1="798.4897" x2="839.4897" y1="1232.8066" y2="1232.8066"/>
        <polygon fill="#181818" points="808.4897,1228.8066,798.4897,1232.8066,808.4897,1236.8066,804.4897,1232.8066"
                 style="stroke:#181818;stroke-width:1.0;"/>
        <text fill="#000000" font-family="sans-serif" font-size="13" lengthAdjust="spacing" textLength="62.8799"
              x="804.4897" y="1214.5439">add(agent)
        </text>
        <polygon fill="#181818" points="463.7222,1260.0977,453.7222,1264.0977,463.7222,1268.0977,459.7222,1264.0977"
                 style="stroke:#181818;stroke-width:1.0;"/>
        <line style="stroke:#181818;stroke-width:1.0;stroke-dasharray:2.0,2.0;" x1="457.7222" x2="796.4897"
              y1="1264.0977" y2="1264.0977"/>
        <text fill="#000000" font-family="sans-serif" font-size="13" lengthAdjust="spacing" textLength="13.73"
              x="469.7222" y="1258.835">ok
        </text>
        <polygon fill="#181818" points="60.2344,1291.3887,50.2344,1295.3887,60.2344,1299.3887,56.2344,1295.3887"
                 style="stroke:#181818;stroke-width:1.0;"/>
        <line style="stroke:#181818;stroke-width:1.0;" x1="54.2344" x2="268.7705" y1="1295.3887" y2="1295.3887"/>
        <text fill="#000000" font-family="sans-serif" font-size="13" lengthAdjust="spacing" textLength="151.0107"
              x="66.2344" y="1290.126">informs operation success
        </text><!--SRC=[hLOzRzim4DtvApZAG0Dqpb30TJeKA3h4GFOhTR4FfacLHoTeVtrFb6g7b2nBJIVRUlVkuzs7lASQjQ5WB2e-a6iWm54R2yph60FzE4NyQhpRqc_K7vK24ttGw_f8ZZW6a5zA2IcIeGPSr8-u4m33UeSkFX6-NaSttiNWhSMGsNmEuCo-1O7SA9OzEhiQMZyYs2yS8M8ooh2jP8xZj0HjqQA9vDsWXWGhbMcWxpuDAzVt6lZ0EdeTUao3TW90IcT8ABrS519V9k3VIggLKjSCnKUXe71t67ETn4DfTJSP7NAPfyBdaSwPIyW2cH5HFiikZkkMj-DU5FzvGewiQuYWAmT7_2237cMEdJOGwjMy3iet39qNjRHZZF51UAF19_Gh2kuSVHSVoL5BpV5f6VrXSQnDb-b64gtAh1U67fTik66NZcbkGMs5fKRi9WEEk9YeFJy1tPQaPooZMe3JXQPut-Q4AujkvD2-eSyek2VMn8s5Ns-uy-QPa_C-veBkTBoUjhGlt0jR9VhgfahfSZBjN7VjqYNeMpBFPjbOtbg95x1KTnTii01ZziHFBQDwzxxSkAldlFhYo_CwTehtQ0uFfyQI4I9VO_xRMg-Rfctsth_sPnTSVJd4yY_YcS8Hsf6PDwizWvUfml2oH16ew_-iGl4c8lVifGZj6mofUCqdOv3v3m00]-->
    </g>
</svg>