<svg xmlns="http://www.w3.org/2000/svg" xmlns:xlink="http://www.w3.org/1999/xlink" contentStyleType="text/css" height="915.3px" preserveAspectRatio="none" style="width:459px;height:915px;background:#FFFFFF;" version="1.1" viewBox="0 0 459 915" width="459.9px" zoomAndPan="magnify"><defs/><g><!--class Client--><g id="elem_Client"><rect codeLine="2" fill="#F1F1F1" height="126.9949" id="Client" rx="2.25" ry="2.25" style="stroke:#181818;stroke-width:0.45;" width="131.2383" x="18.9" y="6.3"/><ellipse cx="64.5873" cy="20.7" fill="#ADD1B2" rx="9.9" ry="9.9" style="stroke:#181818;stroke-width:0.9;"/><path d="M67.0764,16.9875 Q67.217,16.7906 67.3857,16.6922 Q67.5545,16.5938 67.7514,16.5938 Q68.0889,16.5938 68.2998,16.8328 Q68.5107,17.0578 68.5107,17.6063 L68.5107,18.9141 Q68.5107,19.4625 68.2998,19.7016 Q68.0889,19.9406 67.7514,19.9406 Q67.442,19.9406 67.2592,19.7578 Q67.0764,19.5891 66.9779,19.125 Q66.9357,18.8016 66.767,18.6328 Q66.4717,18.2953 65.9232,18.0984 Q65.3748,17.9016 64.8123,17.9016 Q64.1232,17.9016 63.5467,18.1969 Q62.9842,18.4922 62.5342,19.1672 Q62.0982,19.8422 62.0982,20.7703 L62.0982,21.7547 Q62.0982,22.8656 62.8998,23.6109 Q63.7014,24.3422 65.1357,24.3422 Q65.9795,24.3422 66.5701,24.1172 Q66.9217,23.9766 67.3014,23.5828 Q67.5404,23.3438 67.667,23.2734 Q67.8076,23.2031 67.9904,23.2031 Q68.2857,23.2031 68.5107,23.4422 Q68.7498,23.6672 68.7498,23.9766 Q68.7498,24.2859 68.4404,24.6516 Q67.9904,25.1719 67.2732,25.4672 Q66.3029,25.875 65.1357,25.875 Q63.7717,25.875 62.6889,25.3125 Q61.8029,24.8625 61.1842,23.9063 Q60.5654,22.9359 60.5654,21.7828 L60.5654,20.7422 Q60.5654,19.5469 61.1139,18.5203 Q61.6764,17.4797 62.6607,16.9313 Q63.6451,16.3688 64.7561,16.3688 Q65.417,16.3688 65.9936,16.5234 Q66.5842,16.6641 67.0764,16.9875 Z " fill="#000000"/><text fill="#000000" font-family="sans-serif" font-size="12.6" lengthAdjust="spacing" textLength="32.2137" x="83.0373" y="25.9172">Client</text><line style="stroke:#181818;stroke-width:0.45;" x1="19.8" x2="149.2383" y1="35.1" y2="35.1"/><ellipse cx="28.8" cy="48.4295" fill="none" rx="2.7" ry="2.7" style="stroke:#038048;stroke-width:0.9;"/><text fill="#000000" font-family="sans-serif" font-size="12.6" lengthAdjust="spacing" textLength="31.5185" x="36.9" y="52.2967">name</text><ellipse cx="28.8" cy="65.1885" fill="none" rx="2.7" ry="2.7" style="stroke:#038048;stroke-width:0.9;"/><text fill="#000000" font-family="sans-serif" font-size="12.6" lengthAdjust="spacing" textLength="107.8383" x="36.9" y="69.0557">citizenCardNumber</text><ellipse cx="28.8" cy="81.9475" fill="none" rx="2.7" ry="2.7" style="stroke:#038048;stroke-width:0.9;"/><text fill="#000000" font-family="sans-serif" font-size="12.6" lengthAdjust="spacing" textLength="72.1301" x="36.9" y="85.8146">taxIdNumber</text><ellipse cx="28.8" cy="98.7064" fill="none" rx="2.7" ry="2.7" style="stroke:#038048;stroke-width:0.9;"/><text fill="#000000" font-family="sans-serif" font-size="12.6" lengthAdjust="spacing" textLength="30.1096" x="36.9" y="102.5736">email</text><ellipse cx="28.8" cy="115.4654" fill="none" rx="2.7" ry="2.7" style="stroke:#038048;stroke-width:0.9;"/><text fill="#000000" font-family="sans-serif" font-size="12.6" lengthAdjust="spacing" textLength="79.8513" x="36.9" y="119.3326">phoneNumber</text><line style="stroke:#181818;stroke-width:0.45;" x1="19.8" x2="149.2383" y1="126.0949" y2="126.0949"/></g><!--class Property--><g id="elem_Property"><rect codeLine="10" fill="#F1F1F1" height="143.7539" id="Property" rx="2.25" ry="2.25" style="stroke:#181818;stroke-width:0.45;" width="159.2438" x="215.55" y="549.9"/><ellipse cx="267.5373" cy="564.3" fill="#ADD1B2" rx="9.9" ry="9.9" style="stroke:#181818;stroke-width:0.9;"/><path d="M270.0264,560.5875 Q270.167,560.3906 270.3357,560.2922 Q270.5045,560.1938 270.7014,560.1938 Q271.0389,560.1938 271.2498,560.4328 Q271.4607,560.6578 271.4607,561.2063 L271.4607,562.5141 Q271.4607,563.0625 271.2498,563.3016 Q271.0389,563.5406 270.7014,563.5406 Q270.392,563.5406 270.2092,563.3578 Q270.0264,563.1891 269.9279,562.725 Q269.8857,562.4016 269.717,562.2328 Q269.4217,561.8953 268.8732,561.6984 Q268.3248,561.5016 267.7623,561.5016 Q267.0732,561.5016 266.4967,561.7969 Q265.9342,562.0922 265.4842,562.7672 Q265.0482,563.4422 265.0482,564.3703 L265.0482,565.3547 Q265.0482,566.4656 265.8498,567.2109 Q266.6514,567.9422 268.0857,567.9422 Q268.9295,567.9422 269.5201,567.7172 Q269.8717,567.5766 270.2514,567.1828 Q270.4904,566.9438 270.617,566.8734 Q270.7576,566.8031 270.9404,566.8031 Q271.2357,566.8031 271.4607,567.0422 Q271.6998,567.2672 271.6998,567.5766 Q271.6998,567.8859 271.3904,568.2516 Q270.9404,568.7719 270.2232,569.0672 Q269.2529,569.475 268.0857,569.475 Q266.7217,569.475 265.6389,568.9125 Q264.7529,568.4625 264.1342,567.5063 Q263.5154,566.5359 263.5154,565.3828 L263.5154,564.3422 Q263.5154,563.1469 264.0639,562.1203 Q264.6264,561.0797 265.6107,560.5313 Q266.5951,559.9688 267.7061,559.9688 Q268.367,559.9688 268.9436,560.1234 Q269.5342,560.2641 270.0264,560.5875 Z " fill="#000000"/><text fill="#000000" font-family="sans-serif" font-size="12.6" lengthAdjust="spacing" textLength="47.6191" x="285.9873" y="569.5172">Property</text><line style="stroke:#181818;stroke-width:0.45;" x1="216.45" x2="373.8938" y1="578.7" y2="578.7"/><ellipse cx="225.45" cy="592.0295" fill="none" rx="2.7" ry="2.7" style="stroke:#038048;stroke-width:0.9;"/><text fill="#000000" font-family="sans-serif" font-size="12.6" lengthAdjust="spacing" textLength="23.8157" x="233.55" y="595.8967">type</text><ellipse cx="225.45" cy="608.7885" fill="none" rx="2.7" ry="2.7" style="stroke:#038048;stroke-width:0.9;"/><text fill="#000000" font-family="sans-serif" font-size="12.6" lengthAdjust="spacing" textLength="25.2185" x="233.55" y="612.6557">area</text><ellipse cx="225.45" cy="625.5475" fill="none" rx="2.7" ry="2.7" style="stroke:#038048;stroke-width:0.9;"/><text fill="#000000" font-family="sans-serif" font-size="12.6" lengthAdjust="spacing" textLength="43.4294" x="233.55" y="629.4146">location</text><ellipse cx="225.45" cy="642.3064" fill="none" rx="2.7" ry="2.7" style="stroke:#038048;stroke-width:0.9;"/><text fill="#000000" font-family="sans-serif" font-size="12.6" lengthAdjust="spacing" textLength="135.8438" x="233.55" y="646.1736">distanceFromCityCenter</text><ellipse cx="225.45" cy="659.0654" fill="none" rx="2.7" ry="2.7" style="stroke:#038048;stroke-width:0.9;"/><text fill="#000000" font-family="sans-serif" font-size="12.6" lengthAdjust="spacing" textLength="27.3103" x="233.55" y="662.9326">price</text><ellipse cx="225.45" cy="675.8244" fill="none" rx="2.7" ry="2.7" style="stroke:#038048;stroke-width:0.9;"/><text fill="#000000" font-family="sans-serif" font-size="12.6" lengthAdjust="spacing" textLength="37.8308" x="233.55" y="679.6916">photos</text><line style="stroke:#181818;stroke-width:0.45;" x1="216.45" x2="373.8938" y1="686.4539" y2="686.4539"/></g><!--class House--><g id="elem_House"><rect codeLine="19" fill="#F1F1F1" height="160.5129" id="House" rx="2.25" ry="2.25" style="stroke:#181818;stroke-width:0.45;" width="140.3499" x="53.1" y="748.8"/><ellipse cx="101.239" cy="763.2" fill="#ADD1B2" rx="9.9" ry="9.9" style="stroke:#181818;stroke-width:0.9;"/><path d="M103.7281,759.4875 Q103.8687,759.2906 104.0375,759.1922 Q104.2062,759.0938 104.4031,759.0938 Q104.7406,759.0938 104.9515,759.3328 Q105.1625,759.5578 105.1625,760.1063 L105.1625,761.4141 Q105.1625,761.9625 104.9515,762.2016 Q104.7406,762.4406 104.4031,762.4406 Q104.0937,762.4406 103.9109,762.2578 Q103.7281,762.0891 103.6296,761.625 Q103.5875,761.3016 103.4187,761.1328 Q103.1234,760.7953 102.575,760.5984 Q102.0265,760.4016 101.464,760.4016 Q100.775,760.4016 100.1984,760.6969 Q99.6359,760.9922 99.1859,761.6672 Q98.75,762.3422 98.75,763.2703 L98.75,764.2547 Q98.75,765.3656 99.5515,766.1109 Q100.3531,766.8422 101.7875,766.8422 Q102.6312,766.8422 103.2218,766.6172 Q103.5734,766.4766 103.9531,766.0828 Q104.1921,765.8438 104.3187,765.7734 Q104.4593,765.7031 104.6421,765.7031 Q104.9375,765.7031 105.1625,765.9422 Q105.4015,766.1672 105.4015,766.4766 Q105.4015,766.7859 105.0921,767.1516 Q104.6421,767.6719 103.925,767.9672 Q102.9546,768.375 101.7875,768.375 Q100.4234,768.375 99.3406,767.8125 Q98.4546,767.3625 97.8359,766.4063 Q97.2171,765.4359 97.2171,764.2828 L97.2171,763.2422 Q97.2171,762.0469 97.7656,761.0203 Q98.3281,759.9797 99.3125,759.4313 Q100.2968,758.8688 101.4078,758.8688 Q102.0687,758.8688 102.6453,759.0234 Q103.2359,759.1641 103.7281,759.4875 Z " fill="#000000"/><text fill="#000000" font-family="sans-serif" font-size="12.6" lengthAdjust="spacing" textLength="36.4219" x="119.689" y="768.4172">House</text><line style="stroke:#181818;stroke-width:0.45;" x1="54" x2="192.5499" y1="777.6" y2="777.6"/><ellipse cx="63" cy="790.9295" fill="none" rx="2.7" ry="2.7" style="stroke:#038048;stroke-width:0.9;"/><text fill="#000000" font-family="sans-serif" font-size="12.6" lengthAdjust="spacing" textLength="77.0458" x="71.1" y="794.7967">hasBasement</text><ellipse cx="63" cy="807.6885" fill="none" rx="2.7" ry="2.7" style="stroke:#038048;stroke-width:0.9;"/><text fill="#000000" font-family="sans-serif" font-size="12.6" lengthAdjust="spacing" textLength="44.8198" x="71.1" y="811.5557">hasAttic</text><ellipse cx="63" cy="824.4475" fill="none" rx="2.7" ry="2.7" style="stroke:#038048;stroke-width:0.9;"/><text fill="#000000" font-family="sans-serif" font-size="12.6" lengthAdjust="spacing" textLength="73.5451" x="71.1" y="828.3146">sunExposure</text><ellipse cx="63" cy="841.2064" fill="none" rx="2.7" ry="2.7" style="stroke:#038048;stroke-width:0.9;"/><text fill="#000000" font-family="sans-serif" font-size="12.6" lengthAdjust="spacing" textLength="113.4492" x="71.1" y="845.0736">numberOfBedrooms</text><ellipse cx="63" cy="857.9654" fill="none" rx="2.7" ry="2.7" style="stroke:#038048;stroke-width:0.9;"/><text fill="#000000" font-family="sans-serif" font-size="12.6" lengthAdjust="spacing" textLength="116.9499" x="71.1" y="861.8326">numberOfBathrooms</text><ellipse cx="63" cy="874.7244" fill="none" rx="2.7" ry="2.7" style="stroke:#038048;stroke-width:0.9;"/><text fill="#000000" font-family="sans-serif" font-size="12.6" lengthAdjust="spacing" textLength="83.352" x="71.1" y="878.5916">parkingSpaces</text><ellipse cx="63" cy="891.4834" fill="none" rx="2.7" ry="2.7" style="stroke:#038048;stroke-width:0.9;"/><text fill="#000000" font-family="sans-serif" font-size="12.6" lengthAdjust="spacing" textLength="58.841" x="71.1" y="895.3506">equipment</text><line style="stroke:#181818;stroke-width:0.45;" x1="54" x2="192.5499" y1="902.1129" y2="902.1129"/></g><!--class Apartment--><g id="elem_Apartment"><rect codeLine="29" fill="#F1F1F1" height="126.9949" id="Apartment" rx="2.25" ry="2.25" style="stroke:#181818;stroke-width:0.45;" width="140.3499" x="225" y="765.45"/><ellipse cx="262.5402" cy="779.85" fill="#ADD1B2" rx="9.9" ry="9.9" style="stroke:#181818;stroke-width:0.9;"/><path d="M265.0292,776.1375 Q265.1698,775.9406 265.3386,775.8422 Q265.5073,775.7438 265.7042,775.7438 Q266.0417,775.7438 266.2527,775.9828 Q266.4636,776.2078 266.4636,776.7563 L266.4636,778.0641 Q266.4636,778.6125 266.2527,778.8516 Q266.0417,779.0906 265.7042,779.0906 Q265.3948,779.0906 265.212,778.9078 Q265.0292,778.7391 264.9308,778.275 Q264.8886,777.9516 264.7198,777.7828 Q264.4245,777.4453 263.8761,777.2484 Q263.3277,777.0516 262.7652,777.0516 Q262.0761,777.0516 261.4995,777.3469 Q260.937,777.6422 260.487,778.3172 Q260.0511,778.9922 260.0511,779.9203 L260.0511,780.9047 Q260.0511,782.0156 260.8527,782.7609 Q261.6542,783.4922 263.0886,783.4922 Q263.9323,783.4922 264.523,783.2672 Q264.8745,783.1266 265.2542,782.7328 Q265.4933,782.4938 265.6198,782.4234 Q265.7605,782.3531 265.9433,782.3531 Q266.2386,782.3531 266.4636,782.5922 Q266.7027,782.8172 266.7027,783.1266 Q266.7027,783.4359 266.3933,783.8016 Q265.9433,784.3219 265.2261,784.6172 Q264.2558,785.025 263.0886,785.025 Q261.7245,785.025 260.6417,784.4625 Q259.7558,784.0125 259.137,783.0563 Q258.5183,782.0859 258.5183,780.9328 L258.5183,779.8922 Q258.5183,778.6969 259.0667,777.6703 Q259.6292,776.6297 260.6136,776.0813 Q261.598,775.5188 262.7089,775.5188 Q263.3698,775.5188 263.9464,775.6734 Q264.537,775.8141 265.0292,776.1375 Z " fill="#000000"/><text fill="#000000" font-family="sans-serif" font-size="12.6" lengthAdjust="spacing" textLength="58.1273" x="280.4824" y="785.0672">Apartment</text><line style="stroke:#181818;stroke-width:0.45;" x1="225.9" x2="364.4499" y1="794.25" y2="794.25"/><ellipse cx="234.9" cy="807.5795" fill="none" rx="2.7" ry="2.7" style="stroke:#038048;stroke-width:0.9;"/><text fill="#000000" font-family="sans-serif" font-size="12.6" lengthAdjust="spacing" textLength="69.3246" x="243" y="811.4467">floorNumber</text><ellipse cx="234.9" cy="824.3385" fill="none" rx="2.7" ry="2.7" style="stroke:#038048;stroke-width:0.9;"/><text fill="#000000" font-family="sans-serif" font-size="12.6" lengthAdjust="spacing" textLength="113.4492" x="243" y="828.2057">numberOfBedrooms</text><ellipse cx="234.9" cy="841.0975" fill="none" rx="2.7" ry="2.7" style="stroke:#038048;stroke-width:0.9;"/><text fill="#000000" font-family="sans-serif" font-size="12.6" lengthAdjust="spacing" textLength="116.9499" x="243" y="844.9646">numberOfBathrooms</text><ellipse cx="234.9" cy="857.8564" fill="none" rx="2.7" ry="2.7" style="stroke:#038048;stroke-width:0.9;"/><text fill="#000000" font-family="sans-serif" font-size="12.6" lengthAdjust="spacing" textLength="83.352" x="243" y="861.7236">parkingSpaces</text><ellipse cx="234.9" cy="874.6154" fill="none" rx="2.7" ry="2.7" style="stroke:#038048;stroke-width:0.9;"/><text fill="#000000" font-family="sans-serif" font-size="12.6" lengthAdjust="spacing" textLength="58.841" x="243" y="878.4826">equipment</text><line style="stroke:#181818;stroke-width:0.45;" x1="225.9" x2="364.4499" y1="885.2449" y2="885.2449"/></g><!--class Land--><g id="elem_Land"><rect codeLine="37" fill="#F1F1F1" height="43.2" id="Land" rx="2.25" ry="2.25" style="stroke:#181818;stroke-width:0.45;" width="56.8301" x="397.35" y="807.3"/><ellipse cx="410.85" cy="821.7" fill="#ADD1B2" rx="9.9" ry="9.9" style="stroke:#181818;stroke-width:0.9;"/><path d="M413.3391,817.9875 Q413.4797,817.7906 413.6484,817.6922 Q413.8172,817.5938 414.0141,817.5938 Q414.3516,817.5938 414.5625,817.8328 Q414.7734,818.0578 414.7734,818.6063 L414.7734,819.9141 Q414.7734,820.4625 414.5625,820.7016 Q414.3516,820.9406 414.0141,820.9406 Q413.7047,820.9406 413.5219,820.7578 Q413.3391,820.5891 413.2406,820.125 Q413.1984,819.8016 413.0297,819.6328 Q412.7344,819.2953 412.1859,819.0984 Q411.6375,818.9016 411.075,818.9016 Q410.3859,818.9016 409.8094,819.1969 Q409.2469,819.4922 408.7969,820.1672 Q408.3609,820.8422 408.3609,821.7703 L408.3609,822.7547 Q408.3609,823.8656 409.1625,824.6109 Q409.9641,825.3422 411.3984,825.3422 Q412.2422,825.3422 412.8328,825.1172 Q413.1844,824.9766 413.5641,824.5828 Q413.8031,824.3438 413.9297,824.2734 Q414.0703,824.2031 414.2531,824.2031 Q414.5484,824.2031 414.7734,824.4422 Q415.0125,824.6672 415.0125,824.9766 Q415.0125,825.2859 414.7031,825.6516 Q414.2531,826.1719 413.5359,826.4672 Q412.5656,826.875 411.3984,826.875 Q410.0344,826.875 408.9516,826.3125 Q408.0656,825.8625 407.4469,824.9063 Q406.8281,823.9359 406.8281,822.7828 L406.8281,821.7422 Q406.8281,820.5469 407.3766,819.5203 Q407.9391,818.4797 408.9234,817.9313 Q409.9078,817.3688 411.0188,817.3688 Q411.6797,817.3688 412.2563,817.5234 Q412.8469,817.6641 413.3391,817.9875 Z " fill="#000000"/><text fill="#000000" font-family="sans-serif" font-size="12.6" lengthAdjust="spacing" textLength="28.0301" x="423.45" y="826.9172">Land</text><line style="stroke:#181818;stroke-width:0.45;" x1="398.25" x2="453.2801" y1="836.1" y2="836.1"/><line style="stroke:#181818;stroke-width:0.45;" x1="398.25" x2="453.2801" y1="843.3" y2="843.3"/></g><!--class Owner--><g id="elem_Owner"><rect codeLine="40" fill="#F1F1F1" height="93.477" id="Owner" rx="2.25" ry="2.25" style="stroke:#181818;stroke-width:0.45;" width="103.2513" x="310.95" y="385.2"/><ellipse cx="341.2531" cy="399.6" fill="#ADD1B2" rx="9.9" ry="9.9" style="stroke:#181818;stroke-width:0.9;"/><path d="M343.7422,395.8875 Q343.8828,395.6906 344.0516,395.5922 Q344.2203,395.4938 344.4172,395.4938 Q344.7547,395.4938 344.9656,395.7328 Q345.1766,395.9578 345.1766,396.5063 L345.1766,397.8141 Q345.1766,398.3625 344.9656,398.6016 Q344.7547,398.8406 344.4172,398.8406 Q344.1078,398.8406 343.925,398.6578 Q343.7422,398.4891 343.6438,398.025 Q343.6016,397.7016 343.4328,397.5328 Q343.1375,397.1953 342.5891,396.9984 Q342.0406,396.8016 341.4781,396.8016 Q340.7891,396.8016 340.2125,397.0969 Q339.65,397.3922 339.2,398.0672 Q338.7641,398.7422 338.7641,399.6703 L338.7641,400.6547 Q338.7641,401.7656 339.5656,402.5109 Q340.3672,403.2422 341.8016,403.2422 Q342.6453,403.2422 343.236,403.0172 Q343.5875,402.8766 343.9672,402.4828 Q344.2063,402.2438 344.3328,402.1734 Q344.4735,402.1031 344.6563,402.1031 Q344.9516,402.1031 345.1766,402.3422 Q345.4156,402.5672 345.4156,402.8766 Q345.4156,403.1859 345.1063,403.5516 Q344.6563,404.0719 343.9391,404.3672 Q342.9688,404.775 341.8016,404.775 Q340.4375,404.775 339.3547,404.2125 Q338.4688,403.7625 337.85,402.8063 Q337.2313,401.8359 337.2313,400.6828 L337.2313,399.6422 Q337.2313,398.4469 337.7797,397.4203 Q338.3422,396.3797 339.3266,395.8313 Q340.311,395.2688 341.4219,395.2688 Q342.0828,395.2688 342.6594,395.4234 Q343.25,395.5641 343.7422,395.8875 Z " fill="#000000"/><text fill="#000000" font-family="sans-serif" font-size="12.6" lengthAdjust="spacing" textLength="37.1109" x="357.5872" y="404.8172">Owner</text><line style="stroke:#181818;stroke-width:0.45;" x1="311.85" x2="413.3013" y1="414" y2="414"/><ellipse cx="320.85" cy="427.3295" fill="none" rx="2.7" ry="2.7" style="stroke:#038048;stroke-width:0.9;"/><text fill="#000000" font-family="sans-serif" font-size="12.6" lengthAdjust="spacing" textLength="31.5185" x="328.95" y="431.1967">name</text><ellipse cx="320.85" cy="444.0885" fill="none" rx="2.7" ry="2.7" style="stroke:#038048;stroke-width:0.9;"/><text fill="#000000" font-family="sans-serif" font-size="12.6" lengthAdjust="spacing" textLength="72.1301" x="328.95" y="447.9557">taxIdNumber</text><ellipse cx="320.85" cy="460.8475" fill="none" rx="2.7" ry="2.7" style="stroke:#038048;stroke-width:0.9;"/><text fill="#000000" font-family="sans-serif" font-size="12.6" lengthAdjust="spacing" textLength="79.8513" x="328.95" y="464.7146">phoneNumber</text><line style="stroke:#181818;stroke-width:0.45;" x1="311.85" x2="413.3013" y1="471.477" y2="471.477"/></g><!--class RealEstateAgent--><g id="elem_RealEstateAgent"><rect codeLine="46" fill="#F1F1F1" height="110.2359" id="RealEstateAgent" rx="2.25" ry="2.25" style="stroke:#181818;stroke-width:0.45;" width="131.2383" x="242.1" y="204.3"/><ellipse cx="259.1445" cy="218.7" fill="#ADD1B2" rx="9.9" ry="9.9" style="stroke:#181818;stroke-width:0.9;"/><path d="M261.6336,214.9875 Q261.7742,214.7906 261.943,214.6922 Q262.1117,214.5938 262.3086,214.5938 Q262.6461,214.5938 262.857,214.8328 Q263.068,215.0578 263.068,215.6063 L263.068,216.9141 Q263.068,217.4625 262.857,217.7016 Q262.6461,217.9406 262.3086,217.9406 Q261.9992,217.9406 261.8164,217.7578 Q261.6336,217.5891 261.5352,217.125 Q261.493,216.8016 261.3242,216.6328 Q261.0289,216.2953 260.4805,216.0984 Q259.932,215.9016 259.3695,215.9016 Q258.6805,215.9016 258.1039,216.1969 Q257.5414,216.4922 257.0914,217.1672 Q256.6555,217.8422 256.6555,218.7703 L256.6555,219.7547 Q256.6555,220.8656 257.457,221.6109 Q258.2586,222.3422 259.693,222.3422 Q260.5367,222.3422 261.1274,222.1172 Q261.4789,221.9766 261.8586,221.5828 Q262.0977,221.3438 262.2242,221.2734 Q262.3649,221.2031 262.5477,221.2031 Q262.843,221.2031 263.068,221.4422 Q263.307,221.6672 263.307,221.9766 Q263.307,222.2859 262.9977,222.6516 Q262.5477,223.1719 261.8305,223.4672 Q260.8602,223.875 259.693,223.875 Q258.3289,223.875 257.2461,223.3125 Q256.3602,222.8625 255.7414,221.9063 Q255.1227,220.9359 255.1227,219.7828 L255.1227,218.7422 Q255.1227,217.5469 255.6711,216.5203 Q256.2336,215.4797 257.218,214.9313 Q258.2024,214.3688 259.3133,214.3688 Q259.9742,214.3688 260.5508,214.5234 Q261.1414,214.6641 261.6336,214.9875 Z " fill="#000000"/><text fill="#000000" font-family="sans-serif" font-size="12.6" lengthAdjust="spacing" textLength="94.5615" x="272.5322" y="223.9172">RealEstateAgent</text><line style="stroke:#181818;stroke-width:0.45;" x1="243" x2="372.4383" y1="233.1" y2="233.1"/><ellipse cx="252" cy="246.4295" fill="none" rx="2.7" ry="2.7" style="stroke:#038048;stroke-width:0.9;"/><text fill="#000000" font-family="sans-serif" font-size="12.6" lengthAdjust="spacing" textLength="31.5185" x="260.1" y="250.2967">name</text><ellipse cx="252" cy="263.1885" fill="none" rx="2.7" ry="2.7" style="stroke:#038048;stroke-width:0.9;"/><text fill="#000000" font-family="sans-serif" font-size="12.6" lengthAdjust="spacing" textLength="107.8383" x="260.1" y="267.0557">citizenCardNumber</text><ellipse cx="252" cy="279.9475" fill="none" rx="2.7" ry="2.7" style="stroke:#038048;stroke-width:0.9;"/><text fill="#000000" font-family="sans-serif" font-size="12.6" lengthAdjust="spacing" textLength="30.1096" x="260.1" y="283.8146">email</text><ellipse cx="252" cy="296.7064" fill="none" rx="2.7" ry="2.7" style="stroke:#038048;stroke-width:0.9;"/><text fill="#000000" font-family="sans-serif" font-size="12.6" lengthAdjust="spacing" textLength="79.8513" x="260.1" y="300.5736">phoneNumber</text><line style="stroke:#181818;stroke-width:0.45;" x1="243" x2="372.4383" y1="307.3359" y2="307.3359"/></g><!--class Listing--><g id="elem_Listing"><rect codeLine="53" fill="#F1F1F1" height="93.477" id="Listing" rx="2.25" ry="2.25" style="stroke:#181818;stroke-width:0.45;" width="101.141" x="178.2" y="385.2"/><ellipse cx="207.8636" cy="399.6" fill="#ADD1B2" rx="9.9" ry="9.9" style="stroke:#181818;stroke-width:0.9;"/><path d="M210.3527,395.8875 Q210.4933,395.6906 210.6621,395.5922 Q210.8308,395.4938 211.0277,395.4938 Q211.3652,395.4938 211.5761,395.7328 Q211.7871,395.9578 211.7871,396.5063 L211.7871,397.8141 Q211.7871,398.3625 211.5761,398.6016 Q211.3652,398.8406 211.0277,398.8406 Q210.7183,398.8406 210.5355,398.6578 Q210.3527,398.4891 210.2542,398.025 Q210.2121,397.7016 210.0433,397.5328 Q209.748,397.1953 209.1996,396.9984 Q208.6511,396.8016 208.0886,396.8016 Q207.3996,396.8016 206.823,397.0969 Q206.2605,397.3922 205.8105,398.0672 Q205.3746,398.7422 205.3746,399.6703 L205.3746,400.6547 Q205.3746,401.7656 206.1761,402.5109 Q206.9777,403.2422 208.4121,403.2422 Q209.2558,403.2422 209.8464,403.0172 Q210.198,402.8766 210.5777,402.4828 Q210.8167,402.2438 210.9433,402.1734 Q211.0839,402.1031 211.2667,402.1031 Q211.5621,402.1031 211.7871,402.3422 Q212.0261,402.5672 212.0261,402.8766 Q212.0261,403.1859 211.7167,403.5516 Q211.2667,404.0719 210.5496,404.3672 Q209.5792,404.775 208.4121,404.775 Q207.048,404.775 205.9652,404.2125 Q205.0792,403.7625 204.4605,402.8063 Q203.8417,401.8359 203.8417,400.6828 L203.8417,399.6422 Q203.8417,398.4469 204.3902,397.4203 Q204.9527,396.3797 205.9371,395.8313 Q206.9214,395.2688 208.0324,395.2688 Q208.6933,395.2688 209.2699,395.4234 Q209.8605,395.5641 210.3527,395.8875 Z " fill="#000000"/><text fill="#000000" font-family="sans-serif" font-size="12.6" lengthAdjust="spacing" textLength="36.4219" x="224.0555" y="404.8172">Listing</text><line style="stroke:#181818;stroke-width:0.45;" x1="179.1" x2="278.441" y1="414" y2="414"/><ellipse cx="188.1" cy="427.3295" fill="none" rx="2.7" ry="2.7" style="stroke:#038048;stroke-width:0.9;"/><text fill="#000000" font-family="sans-serif" font-size="12.6" lengthAdjust="spacing" textLength="66.5438" x="196.2" y="431.1967">publishDate</text><ellipse cx="188.1" cy="444.0885" fill="none" rx="2.7" ry="2.7" style="stroke:#038048;stroke-width:0.9;"/><text fill="#000000" font-family="sans-serif" font-size="12.6" lengthAdjust="spacing" textLength="77.741" x="196.2" y="447.9557">businessType</text><ellipse cx="188.1" cy="460.8475" fill="none" rx="2.7" ry="2.7" style="stroke:#038048;stroke-width:0.9;"/><text fill="#000000" font-family="sans-serif" font-size="12.6" lengthAdjust="spacing" textLength="66.513" x="196.2" y="464.7146">commission</text><line style="stroke:#181818;stroke-width:0.45;" x1="179.1" x2="278.441" y1="471.477" y2="471.477"/></g><!--class Visit--><g id="elem_Visit"><rect codeLine="59" fill="#F1F1F1" height="43.2" id="Visit" rx="2.25" ry="2.25" style="stroke:#181818;stroke-width:0.45;" width="52.6034" x="6.3" y="237.6"/><ellipse cx="19.8" cy="252" fill="#ADD1B2" rx="9.9" ry="9.9" style="stroke:#181818;stroke-width:0.9;"/><path d="M22.2891,248.2875 Q22.4297,248.0906 22.5984,247.9922 Q22.7672,247.8938 22.9641,247.8938 Q23.3016,247.8938 23.5125,248.1328 Q23.7234,248.3578 23.7234,248.9063 L23.7234,250.2141 Q23.7234,250.7625 23.5125,251.0016 Q23.3016,251.2406 22.9641,251.2406 Q22.6547,251.2406 22.4719,251.0578 Q22.2891,250.8891 22.1906,250.425 Q22.1484,250.1016 21.9797,249.9328 Q21.6844,249.5953 21.1359,249.3984 Q20.5875,249.2016 20.025,249.2016 Q19.3359,249.2016 18.7594,249.4969 Q18.1969,249.7922 17.7469,250.4672 Q17.3109,251.1422 17.3109,252.0703 L17.3109,253.0547 Q17.3109,254.1656 18.1125,254.9109 Q18.9141,255.6422 20.3484,255.6422 Q21.1922,255.6422 21.7828,255.4172 Q22.1344,255.2766 22.5141,254.8828 Q22.7531,254.6438 22.8797,254.5734 Q23.0203,254.5031 23.2031,254.5031 Q23.4984,254.5031 23.7234,254.7422 Q23.9625,254.9672 23.9625,255.2766 Q23.9625,255.5859 23.6531,255.9516 Q23.2031,256.4719 22.4859,256.7672 Q21.5156,257.175 20.3484,257.175 Q18.9844,257.175 17.9016,256.6125 Q17.0156,256.1625 16.3969,255.2063 Q15.7781,254.2359 15.7781,253.0828 L15.7781,252.0422 Q15.7781,250.8469 16.3266,249.8203 Q16.8891,248.7797 17.8734,248.2313 Q18.8578,247.6688 19.9688,247.6688 Q20.6297,247.6688 21.2063,247.8234 Q21.7969,247.9641 22.2891,248.2875 Z " fill="#000000"/><text fill="#000000" font-family="sans-serif" font-size="12.6" lengthAdjust="spacing" textLength="23.8034" x="32.4" y="257.2172">Visit</text><line style="stroke:#181818;stroke-width:0.45;" x1="7.2" x2="58.0034" y1="266.4" y2="266.4"/><line style="stroke:#181818;stroke-width:0.45;" x1="7.2" x2="58.0034" y1="273.6" y2="273.6"/></g><!--class Branch--><g id="elem_Branch"><rect codeLine="62" fill="#F1F1F1" height="110.2359" id="Branch" rx="2.25" ry="2.25" style="stroke:#181818;stroke-width:0.45;" width="101.8547" x="256.95" y="14.85"/><ellipse cx="285.3595" cy="29.25" fill="#ADD1B2" rx="9.9" ry="9.9" style="stroke:#181818;stroke-width:0.9;"/><path d="M287.8485,25.5375 Q287.9891,25.3406 288.1579,25.2422 Q288.3266,25.1438 288.5235,25.1438 Q288.861,25.1438 289.072,25.3828 Q289.2829,25.6078 289.2829,26.1563 L289.2829,27.4641 Q289.2829,28.0125 289.072,28.2516 Q288.861,28.4906 288.5235,28.4906 Q288.2141,28.4906 288.0313,28.3078 Q287.8485,28.1391 287.7501,27.675 Q287.7079,27.3516 287.5391,27.1828 Q287.2438,26.8453 286.6954,26.6484 Q286.147,26.4516 285.5845,26.4516 Q284.8954,26.4516 284.3188,26.7469 Q283.7563,27.0422 283.3063,27.7172 Q282.8704,28.3922 282.8704,29.3203 L282.8704,30.3047 Q282.8704,31.4156 283.672,32.1609 Q284.4735,32.8922 285.9079,32.8922 Q286.7516,32.8922 287.3423,32.6672 Q287.6938,32.5266 288.0735,32.1328 Q288.3126,31.8938 288.4391,31.8234 Q288.5798,31.7531 288.7626,31.7531 Q289.0579,31.7531 289.2829,31.9922 Q289.522,32.2172 289.522,32.5266 Q289.522,32.8359 289.2126,33.2016 Q288.7626,33.7219 288.0454,34.0172 Q287.0751,34.425 285.9079,34.425 Q284.5438,34.425 283.461,33.8625 Q282.5751,33.4125 281.9563,32.4563 Q281.3376,31.4859 281.3376,30.3328 L281.3376,29.2922 Q281.3376,28.0969 281.886,27.0703 Q282.4485,26.0297 283.4329,25.4813 Q284.4173,24.9188 285.5282,24.9188 Q286.1891,24.9188 286.7657,25.0734 Q287.3563,25.2141 287.8485,25.5375 Z " fill="#000000"/><text fill="#000000" font-family="sans-serif" font-size="12.6" lengthAdjust="spacing" textLength="39.9226" x="301.2727" y="34.4672">Branch</text><line style="stroke:#181818;stroke-width:0.45;" x1="257.85" x2="357.9047" y1="43.65" y2="43.65"/><ellipse cx="266.85" cy="56.9795" fill="none" rx="2.7" ry="2.7" style="stroke:#038048;stroke-width:0.9;"/><text fill="#000000" font-family="sans-serif" font-size="12.6" lengthAdjust="spacing" textLength="27.3226" x="274.95" y="60.8467">code</text><ellipse cx="266.85" cy="73.7385" fill="none" rx="2.7" ry="2.7" style="stroke:#038048;stroke-width:0.9;"/><text fill="#000000" font-family="sans-serif" font-size="12.6" lengthAdjust="spacing" textLength="31.5185" x="274.95" y="77.6057">name</text><ellipse cx="266.85" cy="90.4975" fill="none" rx="2.7" ry="2.7" style="stroke:#038048;stroke-width:0.9;"/><text fill="#000000" font-family="sans-serif" font-size="12.6" lengthAdjust="spacing" textLength="44.826" x="274.95" y="94.3646">address</text><ellipse cx="266.85" cy="107.2564" fill="none" rx="2.7" ry="2.7" style="stroke:#038048;stroke-width:0.9;"/><text fill="#000000" font-family="sans-serif" font-size="12.6" lengthAdjust="spacing" textLength="78.4547" x="274.95" y="111.1236">openingHours</text><line style="stroke:#181818;stroke-width:0.45;" x1="257.85" x2="357.9047" y1="117.8859" y2="117.8859"/></g><!--class Sale--><g id="elem_Sale"><rect codeLine="69" fill="#F1F1F1" height="93.477" id="Sale" rx="2.25" ry="2.25" style="stroke:#181818;stroke-width:0.45;" width="120.767" x="90" y="212.4"/><ellipse cx="133.9493" cy="226.8" fill="#ADD1B2" rx="9.9" ry="9.9" style="stroke:#181818;stroke-width:0.9;"/><path d="M136.4383,223.0875 Q136.579,222.8906 136.7477,222.7922 Q136.9165,222.6938 137.1133,222.6938 Q137.4508,222.6938 137.6618,222.9328 Q137.8727,223.1578 137.8727,223.7063 L137.8727,225.0141 Q137.8727,225.5625 137.6618,225.8016 Q137.4508,226.0406 137.1133,226.0406 Q136.804,226.0406 136.6211,225.8578 Q136.4383,225.6891 136.3399,225.225 Q136.2977,224.9016 136.129,224.7328 Q135.8336,224.3953 135.2852,224.1984 Q134.7368,224.0016 134.1743,224.0016 Q133.4852,224.0016 132.9086,224.2969 Q132.3461,224.5922 131.8961,225.2672 Q131.4602,225.9422 131.4602,226.8703 L131.4602,227.8547 Q131.4602,228.9656 132.2618,229.7109 Q133.0633,230.4422 134.4977,230.4422 Q135.3415,230.4422 135.9321,230.2172 Q136.2836,230.0766 136.6633,229.6828 Q136.9024,229.4438 137.029,229.3734 Q137.1696,229.3031 137.3524,229.3031 Q137.6477,229.3031 137.8727,229.5422 Q138.1118,229.7672 138.1118,230.0766 Q138.1118,230.3859 137.8024,230.7516 Q137.3524,231.2719 136.6352,231.5672 Q135.6649,231.975 134.4977,231.975 Q133.1336,231.975 132.0508,231.4125 Q131.1649,230.9625 130.5461,230.0063 Q129.9274,229.0359 129.9274,227.8828 L129.9274,226.8422 Q129.9274,225.6469 130.4758,224.6203 Q131.0383,223.5797 132.0227,223.0313 Q133.0071,222.4688 134.118,222.4688 Q134.779,222.4688 135.3555,222.6234 Q135.9461,222.7641 136.4383,223.0875 Z " fill="#000000"/><text fill="#000000" font-family="sans-serif" font-size="12.6" lengthAdjust="spacing" textLength="25.2185" x="152.3993" y="232.0172">Sale</text><line style="stroke:#181818;stroke-width:0.45;" x1="90.9" x2="209.867" y1="241.2" y2="241.2"/><ellipse cx="99.9" cy="254.5295" fill="none" rx="2.7" ry="2.7" style="stroke:#038048;stroke-width:0.9;"/><text fill="#000000" font-family="sans-serif" font-size="12.6" lengthAdjust="spacing" textLength="70.0444" x="108" y="258.3967">% saleValue</text><ellipse cx="99.9" cy="271.2885" fill="none" rx="2.7" ry="2.7" style="stroke:#038048;stroke-width:0.9;"/><text fill="#000000" font-family="sans-serif" font-size="12.6" lengthAdjust="spacing" textLength="97.367" x="108" y="275.1557">responsibleAgent</text><ellipse cx="99.9" cy="288.0475" fill="none" rx="2.7" ry="2.7" style="stroke:#038048;stroke-width:0.9;"/><text fill="#000000" font-family="sans-serif" font-size="12.6" lengthAdjust="spacing" textLength="63.7321" x="108" y="291.9146">buyerClient</text><line style="stroke:#181818;stroke-width:0.45;" x1="90.9" x2="209.867" y1="298.677" y2="298.677"/></g><!--link Client to Visit--><g id="link_Client_Visit"><path codeLine="75" d="M53.361,133.344 C49.806,142.209 46.575,151.326 44.1,160.2 C36.873,186.138 34.11,217.161 33.057,237.276 " fill="none" id="Client-Visit" style="stroke:#181818;stroke-width:0.9;"/><text fill="#000000" font-family="sans-serif" font-size="11.7" lengthAdjust="spacing" textLength="52.6843" x="45" y="173.7255">schedules</text><text fill="#000000" font-family="sans-serif" font-size="11.7" lengthAdjust="spacing" textLength="6.507" x="43.5336" y="153.3251">1</text><text fill="#000000" font-family="sans-serif" font-size="11.7" lengthAdjust="spacing" textLength="17.5614" x="14.0402" y="227.4247">0..*</text></g><!--link Owner to Property--><g id="link_Owner_Property"><path codeLine="76" d="M346.185,478.917 C338.535,500.229 329.274,526.05 320.751,549.801 " fill="none" id="Owner-Property" style="stroke:#181818;stroke-width:0.9;"/><text fill="#000000" font-family="sans-serif" font-size="11.7" lengthAdjust="spacing" textLength="27.3133" x="335.7" y="519.3255">owns</text><text fill="#000000" font-family="sans-serif" font-size="11.7" lengthAdjust="spacing" textLength="6.507" x="337.3946" y="498.5585">1</text><text fill="#000000" font-family="sans-serif" font-size="11.7" lengthAdjust="spacing" textLength="17.5614" x="305.2421" y="539.798">0..*</text></g><!--link Property to House--><g id="link_Property_House"><path codeLine="77" d="M235.557,693.99 C220.824,711.585 204.939,730.548 189.891,748.512 " fill="none" id="Property-House" style="stroke:#181818;stroke-width:0.9;"/></g><!--link Property to Apartment--><g id="link_Property_Apartment"><path codeLine="78" d="M295.2,693.99 C295.2,717.147 295.2,742.653 295.2,765.153 " fill="none" id="Property-Apartment" style="stroke:#181818;stroke-width:0.9;"/></g><!--link Property to Land--><g id="link_Property_Land"><path codeLine="79" d="M345.717,693.999 C357.795,711.693 370.431,730.764 381.6,748.8 C393.615,768.204 406.17,791.028 414.792,807.183 " fill="none" id="Property-Land" style="stroke:#181818;stroke-width:0.9;"/></g><!--link RealEstateAgent to Listing--><g id="link_RealEstateAgent_Listing"><path codeLine="80" d="M282.744,314.208 C272.178,337.005 260.019,363.258 249.903,385.11 " fill="none" id="RealEstateAgent-Listing" style="stroke:#181818;stroke-width:0.9;"/><text fill="#000000" font-family="sans-serif" font-size="11.7" lengthAdjust="spacing" textLength="48.1311" x="269.1" y="354.6255">manages</text><text fill="#000000" font-family="sans-serif" font-size="11.7" lengthAdjust="spacing" textLength="6.507" x="273.0289" y="334.4593">1</text><text fill="#000000" font-family="sans-serif" font-size="11.7" lengthAdjust="spacing" textLength="17.5614" x="234.5248" y="375.1325">0..*</text></g><!--link Listing to Property--><g id="link_Listing_Property"><path codeLine="81" d="M244.89,478.917 C252.441,500.229 261.585,526.05 269.991,549.801 " fill="none" id="Listing-Property" style="stroke:#181818;stroke-width:0.9;"/><text fill="#000000" font-family="sans-serif" font-size="11.7" lengthAdjust="spacing" textLength="53.3241" x="261" y="519.3255">advertises</text><text fill="#000000" font-family="sans-serif" font-size="11.7" lengthAdjust="spacing" textLength="17.5614" x="228.7894" y="498.5585">0..*</text><text fill="#000000" font-family="sans-serif" font-size="11.7" lengthAdjust="spacing" textLength="6.507" x="261.0888" y="539.798">1</text></g><!--link Branch to RealEstateAgent--><g id="link_Branch_RealEstateAgent"><path codeLine="82" d="M307.8,124.677 C307.8,149.58 307.8,179.073 307.8,204.003 " fill="none" id="Branch-RealEstateAgent" style="stroke:#181818;stroke-width:0.9;"/><text fill="#000000" font-family="sans-serif" font-size="11.7" lengthAdjust="spacing" textLength="43.5665" x="308.7" y="173.7255">employs</text><text fill="#000000" font-family="sans-serif" font-size="11.7" lengthAdjust="spacing" textLength="6.507" x="301.1193" y="144.9185">1</text><text fill="#000000" font-family="sans-serif" font-size="11.7" lengthAdjust="spacing" textLength="17.5614" x="289.7474" y="194.0517">0..*</text></g><!--link Client to Sale--><g id="link_Client_Sale"><path codeLine="83" d="M106.569,133.398 C115.596,159.183 125.856,188.496 134.172,212.238 " fill="none" id="Client-Sale" style="stroke:#181818;stroke-width:0.9;"/><text fill="#000000" font-family="sans-serif" font-size="11.7" lengthAdjust="spacing" textLength="24.714" x="122.4" y="173.7255">buys</text><text fill="#000000" font-family="sans-serif" font-size="11.7" lengthAdjust="spacing" textLength="6.507" x="102.1396" y="153.0501">1</text><text fill="#000000" font-family="sans-serif" font-size="11.7" lengthAdjust="spacing" textLength="17.5614" x="113.7757" y="202.2509">0..*</text></g><!--link Sale to Listing--><g id="link_Sale_Listing"><path codeLine="84" d="M171.387,306.153 C182.574,330.579 196.281,360.522 207.477,384.966 " fill="none" id="Sale-Listing" style="stroke:#181818;stroke-width:0.9;"/><text fill="#000000" font-family="sans-serif" font-size="11.7" lengthAdjust="spacing" textLength="56.5805" x="195.3" y="354.6255">isLinkedTo</text><text fill="#000000" font-family="sans-serif" font-size="11.7" lengthAdjust="spacing" textLength="6.507" x="167.3877" y="325.7992">1</text><text fill="#000000" font-family="sans-serif" font-size="11.7" lengthAdjust="spacing" textLength="6.507" x="197.9063" y="374.9692">1</text></g><!--SRC=[hLDDRzim3BtxLmW1TjdGehdwbcGTLY1OXxNedP7OcAY-9ifhlM7_VPJjk7PG33li99Ac7f_UexK5PhMpX3whNvLI7pmuBAUcJ3_Hxo2PBwqxO2h532ytinGTa2r1R8B7iVwxgdIF-ZM5Y2bt0sxkOeyB2Q6SDcZ857o93N46h_5J2cv7kTi9cs52JAHnd903lu9_3YtZWDm0Ru7HoQKntUHCkiJS-kkN6BXDFOZl6Tu-Rj6a41mlQf2RgHWXFP4_taNGs1VmUqkndp0ns4XJTfDkZpQ4z2hDVnsr1szaofJVFdjCIxlEd7dJa6y8zbgKphWv_flVVpTuBxO9zG4djWTBt7mKz98UMYQFpFUZxJeuHyp5yEd-0p7b-RksIRQW6V1qC3Zd1yOamIkXh9MNkR82QROHTs37XNYdME87i6r_Kwx5u9aETdZtGA_3DAnzGHX_WDLwfIukrEhgylBzQgHNAzODcjQAEuFkowvfosiLdZrNKouj_P8kAjFIBAh5t-hSdUMOazQrSk3XA6HEbR6XjAuNTC3ya8XOUaTXbv3d0sk5BjhGyTjozFhMIfJZgezFdzTpTiHxyazexaFr1m00]--></g></svg>
     height="1364px" preserveAspectRatio="none" style="width:808px;height:1364px;background:#FFFFFF;" version="1.1"
     viewBox="0 0 808 1364" width="808px" zoomAndPan="magnify">
    <defs/>
    <g><!--class Client-->
        <g id="elem_Client">
            <rect fill="#F1F1F1" height="141.1055" id="Client" rx="2.5" ry="2.5"
                  style="stroke:#181818;stroke-width:0.5;" width="194.0615" x="141.5" y="372"/>
            <ellipse cx="216.3843" cy="388" fill="#ADD1B2" rx="11" ry="11" style="stroke:#181818;stroke-width:1.0;"/>
            <path d="M219.1499,383.875 Q219.3062,383.6563 219.4937,383.5469 Q219.6812,383.4375 219.8999,383.4375 Q220.2749,383.4375 220.5093,383.7031 Q220.7437,383.9531 220.7437,384.5625 L220.7437,386.0156 Q220.7437,386.625 220.5093,386.8906 Q220.2749,387.1563 219.8999,387.1563 Q219.5562,387.1563 219.353,386.9531 Q219.1499,386.7656 219.0405,386.25 Q218.9937,385.8906 218.8062,385.7031 Q218.478,385.3281 217.8687,385.1094 Q217.2593,384.8906 216.6343,384.8906 Q215.8687,384.8906 215.228,385.2188 Q214.603,385.5469 214.103,386.2969 Q213.6187,387.0469 213.6187,388.0781 L213.6187,389.1719 Q213.6187,390.4063 214.5093,391.2344 Q215.3999,392.0469 216.9937,392.0469 Q217.9312,392.0469 218.5874,391.7969 Q218.978,391.6406 219.3999,391.2031 Q219.6655,390.9375 219.8062,390.8594 Q219.9624,390.7813 220.1655,390.7813 Q220.4937,390.7813 220.7437,391.0469 Q221.0093,391.2969 221.0093,391.6406 Q221.0093,391.9844 220.6655,392.3906 Q220.1655,392.9688 219.3687,393.2969 Q218.2905,393.75 216.9937,393.75 Q215.478,393.75 214.2749,393.125 Q213.2905,392.625 212.603,391.5625 Q211.9155,390.4844 211.9155,389.2031 L211.9155,388.0469 Q211.9155,386.7188 212.5249,385.5781 Q213.1499,384.4219 214.2437,383.8125 Q215.3374,383.1875 216.5718,383.1875 Q217.3062,383.1875 217.9468,383.3594 Q218.603,383.5156 219.1499,383.875 Z "
                  fill="#000000"/>
            <text fill="#000000" font-family="sans-serif" font-size="14" lengthAdjust="spacing" textLength="35.793"
                  x="236.8843" y="393.7969">Client
            </text>
            <line style="stroke:#181818;stroke-width:0.5;" x1="142.5" x2="334.5615" y1="404" y2="404"/>
            <ellipse cx="152.5" cy="418.8105" fill="none" rx="3" ry="3" style="stroke:#038048;stroke-width:1.0;"/>
            <text fill="#000000" font-family="sans-serif" font-size="14" lengthAdjust="spacing" textLength="83.2617"
                  x="161.5" y="423.1074">name : String
            </text>
            <ellipse cx="152.5" cy="437.4316" fill="none" rx="3" ry="3" style="stroke:#038048;stroke-width:1.0;"/>
            <text fill="#000000" font-family="sans-serif" font-size="14" lengthAdjust="spacing" textLength="168.0615"
                  x="161.5" y="441.7285">citizenCardNumber : String
            </text>
            <ellipse cx="152.5" cy="456.0527" fill="none" rx="3" ry="3" style="stroke:#038048;stroke-width:1.0;"/>
            <text fill="#000000" font-family="sans-serif" font-size="14" lengthAdjust="spacing" textLength="128.3857"
                  x="161.5" y="460.3496">taxIdNumber : String
            </text>
            <ellipse cx="152.5" cy="474.6738" fill="none" rx="3" ry="3" style="stroke:#038048;stroke-width:1.0;"/>
            <text fill="#000000" font-family="sans-serif" font-size="14" lengthAdjust="spacing" textLength="81.6963"
                  x="161.5" y="478.9707">email : String
            </text>
            <ellipse cx="152.5" cy="493.2949" fill="none" rx="3" ry="3" style="stroke:#038048;stroke-width:1.0;"/>
            <text fill="#000000" font-family="sans-serif" font-size="14" lengthAdjust="spacing" textLength="136.9648"
                  x="161.5" y="497.5918">phoneNumber : String
            </text>
            <line style="stroke:#181818;stroke-width:0.5;" x1="142.5" x2="334.5615" y1="505.1055" y2="505.1055"/>
        </g><!--class Property-->
        <g id="elem_Property">
            <rect fill="#F1F1F1" height="159.7266" id="Property" rx="2.5" ry="2.5"
                  style="stroke:#181818;stroke-width:0.5;" width="219.7305" x="424.5" y="958"/>
            <ellipse cx="503.6602" cy="974" fill="#ADD1B2" rx="11" ry="11" style="stroke:#181818;stroke-width:1.0;"/>
            <path d="M506.4258,969.875 Q506.582,969.6563 506.7695,969.5469 Q506.957,969.4375 507.1758,969.4375 Q507.5508,969.4375 507.7852,969.7031 Q508.0195,969.9531 508.0195,970.5625 L508.0195,972.0156 Q508.0195,972.625 507.7852,972.8906 Q507.5508,973.1563 507.1758,973.1563 Q506.832,973.1563 506.6289,972.9531 Q506.4258,972.7656 506.3164,972.25 Q506.2695,971.8906 506.082,971.7031 Q505.7539,971.3281 505.1445,971.1094 Q504.5352,970.8906 503.9102,970.8906 Q503.1445,970.8906 502.5039,971.2188 Q501.8789,971.5469 501.3789,972.2969 Q500.8945,973.0469 500.8945,974.0781 L500.8945,975.1719 Q500.8945,976.4063 501.7852,977.2344 Q502.6758,978.0469 504.2695,978.0469 Q505.207,978.0469 505.8633,977.7969 Q506.2539,977.6406 506.6758,977.2031 Q506.9414,976.9375 507.082,976.8594 Q507.2383,976.7813 507.4414,976.7813 Q507.7695,976.7813 508.0195,977.0469 Q508.2852,977.2969 508.2852,977.6406 Q508.2852,977.9844 507.9414,978.3906 Q507.4414,978.9688 506.6445,979.2969 Q505.5664,979.75 504.2695,979.75 Q502.7539,979.75 501.5508,979.125 Q500.5664,978.625 499.8789,977.5625 Q499.1914,976.4844 499.1914,975.2031 L499.1914,974.0469 Q499.1914,972.7188 499.8008,971.5781 Q500.4258,970.4219 501.5195,969.8125 Q502.6133,969.1875 503.8477,969.1875 Q504.582,969.1875 505.2227,969.3594 Q505.8789,969.5156 506.4258,969.875 Z "
                  fill="#000000"/>
            <text fill="#000000" font-family="sans-serif" font-size="14" lengthAdjust="spacing" textLength="52.9102"
                  x="524.1602" y="979.7969">Property
            </text>
            <line style="stroke:#181818;stroke-width:0.5;" x1="425.5" x2="643.2305" y1="990" y2="990"/>
            <ellipse cx="435.5" cy="1004.8105" fill="none" rx="3" ry="3" style="stroke:#038048;stroke-width:1.0;"/>
            <text fill="#000000" font-family="sans-serif" font-size="14" lengthAdjust="spacing" textLength="74.7031"
                  x="444.5" y="1009.1074">type : String
            </text>
            <ellipse cx="435.5" cy="1023.4316" fill="none" rx="3" ry="3" style="stroke:#038048;stroke-width:1.0;"/>
            <text fill="#000000" font-family="sans-serif" font-size="14" lengthAdjust="spacing" textLength="70.8135"
                  x="444.5" y="1027.7285">area : Float
            </text>
            <ellipse cx="435.5" cy="1042.0527" fill="none" rx="3" ry="3" style="stroke:#038048;stroke-width:1.0;"/>
            <text fill="#000000" font-family="sans-serif" font-size="14" lengthAdjust="spacing" textLength="96.4961"
                  x="444.5" y="1046.3496">location : String
            </text>
            <ellipse cx="435.5" cy="1060.6738" fill="none" rx="3" ry="3" style="stroke:#038048;stroke-width:1.0;"/>
            <text fill="#000000" font-family="sans-serif" font-size="14" lengthAdjust="spacing" textLength="193.7305"
                  x="444.5" y="1064.9707">distanceFromCityCenter : Float
            </text>
            <ellipse cx="435.5" cy="1079.2949" fill="none" rx="3" ry="3" style="stroke:#038048;stroke-width:1.0;"/>
            <text fill="#000000" font-family="sans-serif" font-size="14" lengthAdjust="spacing" textLength="73.1377"
                  x="444.5" y="1083.5918">price : Float
            </text>
            <ellipse cx="435.5" cy="1097.916" fill="none" rx="3" ry="3" style="stroke:#038048;stroke-width:1.0;"/>
            <text fill="#000000" font-family="sans-serif" font-size="14" lengthAdjust="spacing" textLength="98.0547"
                  x="444.5" y="1102.2129">photos : String[]
            </text>
            <line style="stroke:#181818;stroke-width:0.5;" x1="425.5" x2="643.2305" y1="1109.7266" y2="1109.7266"/>
        </g><!--class House-->
        <g id="elem_House">
            <rect fill="#F1F1F1" height="178.3477" id="House" rx="2.5" ry="2.5"
                  style="stroke:#181818;stroke-width:0.5;" width="182.3994" x="226.5" y="1179"/>
            <ellipse cx="293.2153" cy="1195" fill="#ADD1B2" rx="11" ry="11" style="stroke:#181818;stroke-width:1.0;"/>
            <path d="M295.981,1190.875 Q296.1372,1190.6563 296.3247,1190.5469 Q296.5122,1190.4375 296.731,1190.4375 Q297.106,1190.4375 297.3403,1190.7031 Q297.5747,1190.9531 297.5747,1191.5625 L297.5747,1193.0156 Q297.5747,1193.625 297.3403,1193.8906 Q297.106,1194.1563 296.731,1194.1563 Q296.3872,1194.1563 296.1841,1193.9531 Q295.981,1193.7656 295.8716,1193.25 Q295.8247,1192.8906 295.6372,1192.7031 Q295.3091,1192.3281 294.6997,1192.1094 Q294.0903,1191.8906 293.4653,1191.8906 Q292.6997,1191.8906 292.0591,1192.2188 Q291.4341,1192.5469 290.9341,1193.2969 Q290.4497,1194.0469 290.4497,1195.0781 L290.4497,1196.1719 Q290.4497,1197.4063 291.3403,1198.2344 Q292.231,1199.0469 293.8247,1199.0469 Q294.7622,1199.0469 295.4185,1198.7969 Q295.8091,1198.6406 296.231,1198.2031 Q296.4966,1197.9375 296.6372,1197.8594 Q296.7935,1197.7813 296.9966,1197.7813 Q297.3247,1197.7813 297.5747,1198.0469 Q297.8403,1198.2969 297.8403,1198.6406 Q297.8403,1198.9844 297.4966,1199.3906 Q296.9966,1199.9688 296.1997,1200.2969 Q295.1216,1200.75 293.8247,1200.75 Q292.3091,1200.75 291.106,1200.125 Q290.1216,1199.625 289.4341,1198.5625 Q288.7466,1197.4844 288.7466,1196.2031 L288.7466,1195.0469 Q288.7466,1193.7188 289.356,1192.5781 Q289.981,1191.4219 291.0747,1190.8125 Q292.1685,1190.1875 293.4028,1190.1875 Q294.1372,1190.1875 294.7778,1190.3594 Q295.4341,1190.5156 295.981,1190.875 Z "
                  fill="#000000"/>
            <text fill="#000000" font-family="sans-serif" font-size="14" lengthAdjust="spacing" textLength="40.4688"
                  x="313.7153" y="1200.7969">House
            </text>
            <line style="stroke:#181818;stroke-width:0.5;" x1="227.5" x2="407.8994" y1="1211" y2="1211"/>
            <ellipse cx="237.5" cy="1225.8105" fill="none" rx="3" ry="3" style="stroke:#038048;stroke-width:1.0;"/>
            <text fill="#000000" font-family="sans-serif" font-size="14" lengthAdjust="spacing" textLength="148.6543"
                  x="246.5" y="1230.1074">hasBasement : Boolean
            </text>
            <ellipse cx="237.5" cy="1244.4316" fill="none" rx="3" ry="3" style="stroke:#038048;stroke-width:1.0;"/>
            <text fill="#000000" font-family="sans-serif" font-size="14" lengthAdjust="spacing" textLength="112.8477"
                  x="246.5" y="1248.7285">hasAttic : Boolean
            </text>
            <ellipse cx="237.5" cy="1263.0527" fill="none" rx="3" ry="3" style="stroke:#038048;stroke-width:1.0;"/>
            <text fill="#000000" font-family="sans-serif" font-size="14" lengthAdjust="spacing" textLength="129.958"
                  x="246.5" y="1267.3496">sunExposure : String
            </text>
            <ellipse cx="237.5" cy="1281.6738" fill="none" rx="3" ry="3" style="stroke:#038048;stroke-width:1.0;"/>
            <text fill="#000000" font-family="sans-serif" font-size="14" lengthAdjust="spacing" textLength="152.5098"
                  x="246.5" y="1285.9707">numberOfBedrooms : int
            </text>
            <ellipse cx="237.5" cy="1300.2949" fill="none" rx="3" ry="3" style="stroke:#038048;stroke-width:1.0;"/>
            <text fill="#000000" font-family="sans-serif" font-size="14" lengthAdjust="spacing" textLength="156.3994"
                  x="246.5" y="1304.5918">numberOfBathrooms : int
            </text>
            <ellipse cx="237.5" cy="1318.916" fill="none" rx="3" ry="3" style="stroke:#038048;stroke-width:1.0;"/>
            <text fill="#000000" font-family="sans-serif" font-size="14" lengthAdjust="spacing" textLength="119.0684"
                  x="246.5" y="1323.2129">parkingSpaces : int
            </text>
            <ellipse cx="237.5" cy="1337.5371" fill="none" rx="3" ry="3" style="stroke:#038048;stroke-width:1.0;"/>
            <text fill="#000000" font-family="sans-serif" font-size="14" lengthAdjust="spacing" textLength="121.3994"
                  x="246.5" y="1341.834">equipment : String[]
            </text>
            <line style="stroke:#181818;stroke-width:0.5;" x1="227.5" x2="407.8994" y1="1349.3477" y2="1349.3477"/>
        </g><!--class Apartment-->
        <g id="elem_Apartment">
            <rect fill="#F1F1F1" height="141.1055" id="Apartment" rx="2.5" ry="2.5"
                  style="stroke:#181818;stroke-width:0.5;" width="182.3994" x="443.5" y="1197.5"/>
            <ellipse cx="498.1567" cy="1213.5" fill="#ADD1B2" rx="11" ry="11" style="stroke:#181818;stroke-width:1.0;"/>
            <path d="M500.9224,1209.375 Q501.0786,1209.1563 501.2661,1209.0469 Q501.4536,1208.9375 501.6724,1208.9375 Q502.0474,1208.9375 502.2817,1209.2031 Q502.5161,1209.4531 502.5161,1210.0625 L502.5161,1211.5156 Q502.5161,1212.125 502.2817,1212.3906 Q502.0474,1212.6563 501.6724,1212.6563 Q501.3286,1212.6563 501.1255,1212.4531 Q500.9224,1212.2656 500.813,1211.75 Q500.7661,1211.3906 500.5786,1211.2031 Q500.2505,1210.8281 499.6411,1210.6094 Q499.0317,1210.3906 498.4067,1210.3906 Q497.6411,1210.3906 497.0005,1210.7188 Q496.3755,1211.0469 495.8755,1211.7969 Q495.3911,1212.5469 495.3911,1213.5781 L495.3911,1214.6719 Q495.3911,1215.9063 496.2817,1216.7344 Q497.1724,1217.5469 498.7661,1217.5469 Q499.7036,1217.5469 500.3599,1217.2969 Q500.7505,1217.1406 501.1724,1216.7031 Q501.438,1216.4375 501.5786,1216.3594 Q501.7349,1216.2813 501.938,1216.2813 Q502.2661,1216.2813 502.5161,1216.5469 Q502.7817,1216.7969 502.7817,1217.1406 Q502.7817,1217.4844 502.438,1217.8906 Q501.938,1218.4688 501.1411,1218.7969 Q500.063,1219.25 498.7661,1219.25 Q497.2505,1219.25 496.0474,1218.625 Q495.063,1218.125 494.3755,1217.0625 Q493.688,1215.9844 493.688,1214.7031 L493.688,1213.5469 Q493.688,1212.2188 494.2974,1211.0781 Q494.9224,1209.9219 496.0161,1209.3125 Q497.1099,1208.6875 498.3442,1208.6875 Q499.0786,1208.6875 499.7192,1208.8594 Q500.3755,1209.0156 500.9224,1209.375 Z "
                  fill="#000000"/>
            <text fill="#000000" font-family="sans-serif" font-size="14" lengthAdjust="spacing" textLength="64.5859"
                  x="518.6567" y="1219.2969">Apartment
            </text>
            <line style="stroke:#181818;stroke-width:0.5;" x1="444.5" x2="624.8994" y1="1229.5" y2="1229.5"/>
            <ellipse cx="454.5" cy="1244.3105" fill="none" rx="3" ry="3" style="stroke:#038048;stroke-width:1.0;"/>
            <text fill="#000000" font-family="sans-serif" font-size="14" lengthAdjust="spacing" textLength="103.4824"
                  x="463.5" y="1248.6074">floorNumber : int
            </text>
            <ellipse cx="454.5" cy="1262.9316" fill="none" rx="3" ry="3" style="stroke:#038048;stroke-width:1.0;"/>
            <text fill="#000000" font-family="sans-serif" font-size="14" lengthAdjust="spacing" textLength="152.5098"
                  x="463.5" y="1267.2285">numberOfBedrooms : int
            </text>
            <ellipse cx="454.5" cy="1281.5527" fill="none" rx="3" ry="3" style="stroke:#038048;stroke-width:1.0;"/>
            <text fill="#000000" font-family="sans-serif" font-size="14" lengthAdjust="spacing" textLength="156.3994"
                  x="463.5" y="1285.8496">numberOfBathrooms : int
            </text>
            <ellipse cx="454.5" cy="1300.1738" fill="none" rx="3" ry="3" style="stroke:#038048;stroke-width:1.0;"/>
            <text fill="#000000" font-family="sans-serif" font-size="14" lengthAdjust="spacing" textLength="119.0684"
                  x="463.5" y="1304.4707">parkingSpaces : int
            </text>
            <ellipse cx="454.5" cy="1318.7949" fill="none" rx="3" ry="3" style="stroke:#038048;stroke-width:1.0;"/>
            <text fill="#000000" font-family="sans-serif" font-size="14" lengthAdjust="spacing" textLength="121.3994"
                  x="463.5" y="1323.0918">equipment : String[]
            </text>
            <line style="stroke:#181818;stroke-width:0.5;" x1="444.5" x2="624.8994" y1="1330.6055" y2="1330.6055"/>
        </g><!--class Land-->
        <g id="elem_Land">
            <rect fill="#F1F1F1" height="48" id="Land" rx="2.5" ry="2.5"
                  style="stroke:#181818;stroke-width:0.5;" width="63.1445" x="661" y="1244"/>
            <ellipse cx="676" cy="1260" fill="#ADD1B2" rx="11" ry="11" style="stroke:#181818;stroke-width:1.0;"/>
            <path d="M678.7656,1255.875 Q678.9219,1255.6563 679.1094,1255.5469 Q679.2969,1255.4375 679.5156,1255.4375 Q679.8906,1255.4375 680.125,1255.7031 Q680.3594,1255.9531 680.3594,1256.5625 L680.3594,1258.0156 Q680.3594,1258.625 680.125,1258.8906 Q679.8906,1259.1563 679.5156,1259.1563 Q679.1719,1259.1563 678.9688,1258.9531 Q678.7656,1258.7656 678.6563,1258.25 Q678.6094,1257.8906 678.4219,1257.7031 Q678.0938,1257.3281 677.4844,1257.1094 Q676.875,1256.8906 676.25,1256.8906 Q675.4844,1256.8906 674.8438,1257.2188 Q674.2188,1257.5469 673.7188,1258.2969 Q673.2344,1259.0469 673.2344,1260.0781 L673.2344,1261.1719 Q673.2344,1262.4063 674.125,1263.2344 Q675.0156,1264.0469 676.6094,1264.0469 Q677.5469,1264.0469 678.2031,1263.7969 Q678.5938,1263.6406 679.0156,1263.2031 Q679.2813,1262.9375 679.4219,1262.8594 Q679.5781,1262.7813 679.7813,1262.7813 Q680.1094,1262.7813 680.3594,1263.0469 Q680.625,1263.2969 680.625,1263.6406 Q680.625,1263.9844 680.2813,1264.3906 Q679.7813,1264.9688 678.9844,1265.2969 Q677.9063,1265.75 676.6094,1265.75 Q675.0938,1265.75 673.8906,1265.125 Q672.9063,1264.625 672.2188,1263.5625 Q671.5313,1262.4844 671.5313,1261.2031 L671.5313,1260.0469 Q671.5313,1258.7188 672.1406,1257.5781 Q672.7656,1256.4219 673.8594,1255.8125 Q674.9531,1255.1875 676.1875,1255.1875 Q676.9219,1255.1875 677.5625,1255.3594 Q678.2188,1255.5156 678.7656,1255.875 Z "
                  fill="#000000"/>
            <text fill="#000000" font-family="sans-serif" font-size="14" lengthAdjust="spacing" textLength="31.1445"
                  x="690" y="1265.7969">Land
            </text>
            <line style="stroke:#181818;stroke-width:0.5;" x1="662" x2="723.1445" y1="1276" y2="1276"/>
            <line style="stroke:#181818;stroke-width:0.5;" x1="662" x2="723.1445" y1="1284" y2="1284"/>
        </g><!--class Owner-->
        <g id="elem_Owner">
            <rect fill="#F1F1F1" height="103.8633" id="Owner" rx="2.5" ry="2.5"
                  style="stroke:#181818;stroke-width:0.5;" width="162.9648" x="552" y="775"/>
            <ellipse cx="608.6152" cy="791" fill="#ADD1B2" rx="11" ry="11" style="stroke:#181818;stroke-width:1.0;"/>
            <path d="M611.3809,786.875 Q611.5371,786.6563 611.7246,786.5469 Q611.9121,786.4375 612.1309,786.4375 Q612.5059,786.4375 612.7402,786.7031 Q612.9746,786.9531 612.9746,787.5625 L612.9746,789.0156 Q612.9746,789.625 612.7402,789.8906 Q612.5059,790.1563 612.1309,790.1563 Q611.7871,790.1563 611.584,789.9531 Q611.3809,789.7656 611.2715,789.25 Q611.2246,788.8906 611.0371,788.7031 Q610.709,788.3281 610.0996,788.1094 Q609.4902,787.8906 608.8652,787.8906 Q608.0996,787.8906 607.459,788.2188 Q606.834,788.5469 606.334,789.2969 Q605.8496,790.0469 605.8496,791.0781 L605.8496,792.1719 Q605.8496,793.4063 606.7402,794.2344 Q607.6309,795.0469 609.2246,795.0469 Q610.1621,795.0469 610.8184,794.7969 Q611.209,794.6406 611.6309,794.2031 Q611.8965,793.9375 612.0371,793.8594 Q612.1934,793.7813 612.3965,793.7813 Q612.7246,793.7813 612.9746,794.0469 Q613.2402,794.2969 613.2402,794.6406 Q613.2402,794.9844 612.8965,795.3906 Q612.3965,795.9688 611.5996,796.2969 Q610.5215,796.75 609.2246,796.75 Q607.709,796.75 606.5059,796.125 Q605.5215,795.625 604.834,794.5625 Q604.1465,793.4844 604.1465,792.2031 L604.1465,791.0469 Q604.1465,789.7188 604.7559,788.5781 Q605.3809,787.4219 606.4746,786.8125 Q607.5684,786.1875 608.8027,786.1875 Q609.5371,786.1875 610.1777,786.3594 Q610.834,786.5156 611.3809,786.875 Z "
                  fill="#000000"/>
            <text fill="#000000" font-family="sans-serif" font-size="14" lengthAdjust="spacing" textLength="41.2344"
                  x="629.1152" y="796.7969">Owner
            </text>
            <line style="stroke:#181818;stroke-width:0.5;" x1="553" x2="713.9648" y1="807" y2="807"/>
            <ellipse cx="563" cy="821.8105" fill="none" rx="3" ry="3" style="stroke:#038048;stroke-width:1.0;"/>
            <text fill="#000000" font-family="sans-serif" font-size="14" lengthAdjust="spacing" textLength="83.2617"
                  x="572" y="826.1074">name : String
            </text>
            <ellipse cx="563" cy="840.4316" fill="none" rx="3" ry="3" style="stroke:#038048;stroke-width:1.0;"/>
            <text fill="#000000" font-family="sans-serif" font-size="14" lengthAdjust="spacing" textLength="128.3857"
                  x="572" y="844.7285">taxIdNumber : String
            </text>
            <ellipse cx="563" cy="859.0527" fill="none" rx="3" ry="3" style="stroke:#038048;stroke-width:1.0;"/>
            <text fill="#000000" font-family="sans-serif" font-size="14" lengthAdjust="spacing" textLength="136.9648"
                  x="572" y="863.3496">phoneNumber : String
            </text>
            <line style="stroke:#181818;stroke-width:0.5;" x1="553" x2="713.9648" y1="870.8633" y2="870.8633"/>
        </g><!--class RealEstateAgent-->
        <g id="elem_RealEstateAgent">
            <rect fill="#F1F1F1" height="122.4844" id="RealEstateAgent" rx="2.5" ry="2.5"
                  style="stroke:#181818;stroke-width:0.5;" width="194.0615" x="378.5" y="381.5"/>
            <ellipse cx="419.1469" cy="397.5" fill="#ADD1B2" rx="11" ry="11" style="stroke:#181818;stroke-width:1.0;"/>
            <path d="M421.9125,393.375 Q422.0688,393.1563 422.2563,393.0469 Q422.4438,392.9375 422.6625,392.9375 Q423.0375,392.9375 423.2719,393.2031 Q423.5063,393.4531 423.5063,394.0625 L423.5063,395.5156 Q423.5063,396.125 423.2719,396.3906 Q423.0375,396.6563 422.6625,396.6563 Q422.3188,396.6563 422.1157,396.4531 Q421.9125,396.2656 421.8032,395.75 Q421.7563,395.3906 421.5688,395.2031 Q421.2407,394.8281 420.6313,394.6094 Q420.0219,394.3906 419.3969,394.3906 Q418.6313,394.3906 417.9907,394.7188 Q417.3657,395.0469 416.8657,395.7969 Q416.3813,396.5469 416.3813,397.5781 L416.3813,398.6719 Q416.3813,399.9063 417.2719,400.7344 Q418.1625,401.5469 419.7563,401.5469 Q420.6938,401.5469 421.35,401.2969 Q421.7407,401.1406 422.1625,400.7031 Q422.4282,400.4375 422.5688,400.3594 Q422.725,400.2813 422.9282,400.2813 Q423.2563,400.2813 423.5063,400.5469 Q423.7719,400.7969 423.7719,401.1406 Q423.7719,401.4844 423.4282,401.8906 Q422.9282,402.4688 422.1313,402.7969 Q421.0532,403.25 419.7563,403.25 Q418.2407,403.25 417.0375,402.625 Q416.0532,402.125 415.3657,401.0625 Q414.6782,399.9844 414.6782,398.7031 L414.6782,397.5469 Q414.6782,396.2188 415.2875,395.0781 Q415.9125,393.9219 417.0063,393.3125 Q418.1,392.6875 419.3344,392.6875 Q420.0688,392.6875 420.7094,392.8594 Q421.3657,393.0156 421.9125,393.375 Z "
                  fill="#000000"/>
            <text fill="#000000" font-family="sans-serif" font-size="14" lengthAdjust="spacing" textLength="105.0684"
                  x="438.8462" y="403.2969">RealEstateAgent
            </text>
            <line style="stroke:#181818;stroke-width:0.5;" x1="379.5" x2="571.5615" y1="413.5" y2="413.5"/>
            <ellipse cx="389.5" cy="428.3105" fill="none" rx="3" ry="3" style="stroke:#038048;stroke-width:1.0;"/>
            <text fill="#000000" font-family="sans-serif" font-size="14" lengthAdjust="spacing" textLength="83.2617"
                  x="398.5" y="432.6074">name : String
            </text>
            <ellipse cx="389.5" cy="446.9316" fill="none" rx="3" ry="3" style="stroke:#038048;stroke-width:1.0;"/>
            <text fill="#000000" font-family="sans-serif" font-size="14" lengthAdjust="spacing" textLength="168.0615"
                  x="398.5" y="451.2285">citizenCardNumber : String
            </text>
            <ellipse cx="389.5" cy="465.5527" fill="none" rx="3" ry="3" style="stroke:#038048;stroke-width:1.0;"/>
            <text fill="#000000" font-family="sans-serif" font-size="14" lengthAdjust="spacing" textLength="81.6963"
                  x="398.5" y="469.8496">email : String
            </text>
            <ellipse cx="389.5" cy="484.1738" fill="none" rx="3" ry="3" style="stroke:#038048;stroke-width:1.0;"/>
            <text fill="#000000" font-family="sans-serif" font-size="14" lengthAdjust="spacing" textLength="136.9648"
                  x="398.5" y="488.4707">phoneNumber : String
            </text>
            <line style="stroke:#181818;stroke-width:0.5;" x1="379.5" x2="571.5615" y1="495.9844" y2="495.9844"/>
        </g><!--class Listing-->
        <g id="elem_Listing">
            <rect fill="#F1F1F1" height="103.8633" id="Listing" rx="2.5" ry="2.5"
                  style="stroke:#181818;stroke-width:0.5;" width="160.6201" x="356" y="775"/>
            <ellipse cx="411.8257" cy="791" fill="#ADD1B2" rx="11" ry="11" style="stroke:#181818;stroke-width:1.0;"/>
            <path d="M414.5913,786.875 Q414.7476,786.6563 414.9351,786.5469 Q415.1226,786.4375 415.3413,786.4375 Q415.7163,786.4375 415.9507,786.7031 Q416.1851,786.9531 416.1851,787.5625 L416.1851,789.0156 Q416.1851,789.625 415.9507,789.8906 Q415.7163,790.1563 415.3413,790.1563 Q414.9976,790.1563 414.7944,789.9531 Q414.5913,789.7656 414.4819,789.25 Q414.4351,788.8906 414.2476,788.7031 Q413.9194,788.3281 413.3101,788.1094 Q412.7007,787.8906 412.0757,787.8906 Q411.3101,787.8906 410.6694,788.2188 Q410.0444,788.5469 409.5444,789.2969 Q409.0601,790.0469 409.0601,791.0781 L409.0601,792.1719 Q409.0601,793.4063 409.9507,794.2344 Q410.8413,795.0469 412.4351,795.0469 Q413.3726,795.0469 414.0288,794.7969 Q414.4194,794.6406 414.8413,794.2031 Q415.1069,793.9375 415.2476,793.8594 Q415.4038,793.7813 415.6069,793.7813 Q415.9351,793.7813 416.1851,794.0469 Q416.4507,794.2969 416.4507,794.6406 Q416.4507,794.9844 416.1069,795.3906 Q415.6069,795.9688 414.8101,796.2969 Q413.7319,796.75 412.4351,796.75 Q410.9194,796.75 409.7163,796.125 Q408.7319,795.625 408.0444,794.5625 Q407.3569,793.4844 407.3569,792.2031 L407.3569,791.0469 Q407.3569,789.7188 407.9663,788.5781 Q408.5913,787.4219 409.6851,786.8125 Q410.7788,786.1875 412.0132,786.1875 Q412.7476,786.1875 413.3882,786.3594 Q414.0444,786.5156 414.5913,786.875 Z "
                  fill="#000000"/>
            <text fill="#000000" font-family="sans-serif" font-size="14" lengthAdjust="spacing" textLength="40.4688"
                  x="432.3257" y="796.7969">Listing
            </text>
            <line style="stroke:#181818;stroke-width:0.5;" x1="357" x2="515.6201" y1="807" y2="807"/>
            <ellipse cx="367" cy="821.8105" fill="none" rx="3" ry="3" style="stroke:#038048;stroke-width:1.0;"/>
            <text fill="#000000" font-family="sans-serif" font-size="14" lengthAdjust="spacing" textLength="115.1787"
                  x="376" y="826.1074">publishDate : Date
            </text>
            <ellipse cx="367" cy="840.4316" fill="none" rx="3" ry="3" style="stroke:#038048;stroke-width:1.0;"/>
            <text fill="#000000" font-family="sans-serif" font-size="14" lengthAdjust="spacing" textLength="134.6201"
                  x="376" y="844.7285">businessType : String
            </text>
            <ellipse cx="367" cy="859.0527" fill="none" rx="3" ry="3" style="stroke:#038048;stroke-width:1.0;"/>
            <text fill="#000000" font-family="sans-serif" font-size="14" lengthAdjust="spacing" textLength="116.6963"
                  x="376" y="863.3496">commission : Float
            </text>
            <line style="stroke:#181818;stroke-width:0.5;" x1="357" x2="515.6201" y1="870.8633" y2="870.8633"/>
        </g><!--class Visit-->
        <g id="elem_Visit">
            <rect fill="#F1F1F1" height="85.2422" id="Visit" rx="2.5" ry="2.5"
                  style="stroke:#181818;stroke-width:0.5;" width="171.4756" x="7" y="601.5"/>
            <ellipse cx="75.2637" cy="617.5" fill="#ADD1B2" rx="11" ry="11" style="stroke:#181818;stroke-width:1.0;"/>
            <path d="M78.0293,613.375 Q78.1855,613.1563 78.373,613.0469 Q78.5605,612.9375 78.7793,612.9375 Q79.1543,612.9375 79.3887,613.2031 Q79.623,613.4531 79.623,614.0625 L79.623,615.5156 Q79.623,616.125 79.3887,616.3906 Q79.1543,616.6563 78.7793,616.6563 Q78.4355,616.6563 78.2324,616.4531 Q78.0293,616.2656 77.9199,615.75 Q77.873,615.3906 77.6855,615.2031 Q77.3574,614.8281 76.748,614.6094 Q76.1387,614.3906 75.5137,614.3906 Q74.748,614.3906 74.1074,614.7188 Q73.4824,615.0469 72.9824,615.7969 Q72.498,616.5469 72.498,617.5781 L72.498,618.6719 Q72.498,619.9063 73.3887,620.7344 Q74.2793,621.5469 75.873,621.5469 Q76.8105,621.5469 77.4668,621.2969 Q77.8574,621.1406 78.2793,620.7031 Q78.5449,620.4375 78.6855,620.3594 Q78.8418,620.2813 79.0449,620.2813 Q79.373,620.2813 79.623,620.5469 Q79.8887,620.7969 79.8887,621.1406 Q79.8887,621.4844 79.5449,621.8906 Q79.0449,622.4688 78.248,622.7969 Q77.1699,623.25 75.873,623.25 Q74.3574,623.25 73.1543,622.625 Q72.1699,622.125 71.4824,621.0625 Q70.7949,619.9844 70.7949,618.7031 L70.7949,617.5469 Q70.7949,616.2188 71.4043,615.0781 Q72.0293,613.9219 73.123,613.3125 Q74.2168,612.6875 75.4512,612.6875 Q76.1855,612.6875 76.8262,612.8594 Q77.4824,613.0156 78.0293,613.375 Z "
                  fill="#000000"/>
            <text fill="#000000" font-family="sans-serif" font-size="14" lengthAdjust="spacing" textLength="26.4482"
                  x="95.7637" y="623.2969">Visit
            </text>
            <line style="stroke:#181818;stroke-width:0.5;" x1="8" x2="177.4756" y1="633.5" y2="633.5"/>
            <ellipse cx="18" cy="648.3105" fill="none" rx="3" ry="3" style="stroke:#038048;stroke-width:1.0;"/>
            <text fill="#000000" font-family="sans-serif" font-size="14" lengthAdjust="spacing" textLength="142.3994"
                  x="27" y="652.6074">preferredDates : Date[]
            </text>
            <ellipse cx="18" cy="666.9316" fill="none" rx="3" ry="3" style="stroke:#038048;stroke-width:1.0;"/>
            <text fill="#000000" font-family="sans-serif" font-size="14" lengthAdjust="spacing" textLength="145.4756"
                  x="27" y="671.2285">preferredTimes : Time[]
            </text>
            <line style="stroke:#181818;stroke-width:0.5;" x1="8" x2="177.4756" y1="678.7422" y2="678.7422"/>
        </g><!--class Branch-->
        <g id="elem_Branch">
            <rect fill="#F1F1F1" height="122.4844" id="Branch" rx="2.5" ry="2.5"
                  style="stroke:#181818;stroke-width:0.5;" width="161.4131" x="510" y="171"/>
            <ellipse cx="564.2773" cy="187" fill="#ADD1B2" rx="11" ry="11" style="stroke:#181818;stroke-width:1.0;"/>
            <path d="M567.043,182.875 Q567.1992,182.6563 567.3867,182.5469 Q567.5742,182.4375 567.793,182.4375 Q568.168,182.4375 568.4023,182.7031 Q568.6367,182.9531 568.6367,183.5625 L568.6367,185.0156 Q568.6367,185.625 568.4023,185.8906 Q568.168,186.1563 567.793,186.1563 Q567.4492,186.1563 567.2461,185.9531 Q567.043,185.7656 566.9336,185.25 Q566.8867,184.8906 566.6992,184.7031 Q566.3711,184.3281 565.7617,184.1094 Q565.1523,183.8906 564.5273,183.8906 Q563.7617,183.8906 563.1211,184.2188 Q562.4961,184.5469 561.9961,185.2969 Q561.5117,186.0469 561.5117,187.0781 L561.5117,188.1719 Q561.5117,189.4063 562.4023,190.2344 Q563.293,191.0469 564.8867,191.0469 Q565.8242,191.0469 566.4805,190.7969 Q566.8711,190.6406 567.293,190.2031 Q567.5586,189.9375 567.6992,189.8594 Q567.8555,189.7813 568.0586,189.7813 Q568.3867,189.7813 568.6367,190.0469 Q568.9023,190.2969 568.9023,190.6406 Q568.9023,190.9844 568.5586,191.3906 Q568.0586,191.9688 567.2617,192.2969 Q566.1836,192.75 564.8867,192.75 Q563.3711,192.75 562.168,192.125 Q561.1836,191.625 560.4961,190.5625 Q559.8086,189.4844 559.8086,188.2031 L559.8086,187.0469 Q559.8086,185.7188 560.418,184.5781 Q561.043,183.4219 562.1367,182.8125 Q563.2305,182.1875 564.4648,182.1875 Q565.1992,182.1875 565.8398,182.3594 Q566.4961,182.5156 567.043,182.875 Z "
                  fill="#000000"/>
            <text fill="#000000" font-family="sans-serif" font-size="14" lengthAdjust="spacing" textLength="44.3584"
                  x="584.7773" y="192.7969">Branch
            </text>
            <line style="stroke:#181818;stroke-width:0.5;" x1="511" x2="670.4131" y1="203" y2="203"/>
            <ellipse cx="521" cy="217.8105" fill="none" rx="3" ry="3" style="stroke:#038048;stroke-width:1.0;"/>
            <text fill="#000000" font-family="sans-serif" font-size="14" lengthAdjust="spacing" textLength="78.5996"
                  x="530" y="222.1074">code : String
            </text>
            <ellipse cx="521" cy="236.4316" fill="none" rx="3" ry="3" style="stroke:#038048;stroke-width:1.0;"/>
            <text fill="#000000" font-family="sans-serif" font-size="14" lengthAdjust="spacing" textLength="83.2617"
                  x="530" y="240.7285">name : String
            </text>
            <ellipse cx="521" cy="255.0527" fill="none" rx="3" ry="3" style="stroke:#038048;stroke-width:1.0;"/>
            <text fill="#000000" font-family="sans-serif" font-size="14" lengthAdjust="spacing" textLength="98.0479"
                  x="530" y="259.3496">address : String
            </text>
            <ellipse cx="521" cy="273.6738" fill="none" rx="3" ry="3" style="stroke:#038048;stroke-width:1.0;"/>
            <text fill="#000000" font-family="sans-serif" font-size="14" lengthAdjust="spacing" textLength="135.4131"
                  x="530" y="277.9707">openingHours : String
            </text>
            <line style="stroke:#181818;stroke-width:0.5;" x1="511" x2="670.4131" y1="285.4844" y2="285.4844"/>
        </g><!--class Company-->
        <g id="elem_Company">
            <rect fill="#F1F1F1" height="85.2422" id="Company" rx="2.5" ry="2.5"
                  style="stroke:#181818;stroke-width:0.5;" width="193.2891" x="494" y="7"/>
            <ellipse cx="556.436" cy="23" fill="#ADD1B2" rx="11" ry="11" style="stroke:#181818;stroke-width:1.0;"/>
            <path d="M559.2017,18.875 Q559.3579,18.6563 559.5454,18.5469 Q559.7329,18.4375 559.9517,18.4375 Q560.3267,18.4375 560.561,18.7031 Q560.7954,18.9531 560.7954,19.5625 L560.7954,21.0156 Q560.7954,21.625 560.561,21.8906 Q560.3267,22.1563 559.9517,22.1563 Q559.6079,22.1563 559.4048,21.9531 Q559.2017,21.7656 559.0923,21.25 Q559.0454,20.8906 558.8579,20.7031 Q558.5298,20.3281 557.9204,20.1094 Q557.311,19.8906 556.686,19.8906 Q555.9204,19.8906 555.2798,20.2188 Q554.6548,20.5469 554.1548,21.2969 Q553.6704,22.0469 553.6704,23.0781 L553.6704,24.1719 Q553.6704,25.4063 554.561,26.2344 Q555.4517,27.0469 557.0454,27.0469 Q557.9829,27.0469 558.6392,26.7969 Q559.0298,26.6406 559.4517,26.2031 Q559.7173,25.9375 559.8579,25.8594 Q560.0142,25.7813 560.2173,25.7813 Q560.5454,25.7813 560.7954,26.0469 Q561.061,26.2969 561.061,26.6406 Q561.061,26.9844 560.7173,27.3906 Q560.2173,27.9688 559.4204,28.2969 Q558.3423,28.75 557.0454,28.75 Q555.5298,28.75 554.3267,28.125 Q553.3423,27.625 552.6548,26.5625 Q551.9673,25.4844 551.9673,24.2031 L551.9673,23.0469 Q551.9673,21.7188 552.5767,20.5781 Q553.2017,19.4219 554.2954,18.8125 Q555.3892,18.1875 556.6235,18.1875 Q557.3579,18.1875 557.9985,18.3594 Q558.6548,18.5156 559.2017,18.875 Z "
                  fill="#000000"/>
            <text fill="#000000" font-family="sans-serif" font-size="14" lengthAdjust="spacing" textLength="59.917"
                  x="576.936" y="28.7969">Company
            </text>
            <line style="stroke:#181818;stroke-width:0.5;" x1="495" x2="686.2891" y1="39" y2="39"/>
            <ellipse cx="505" cy="53.8105" fill="none" rx="3" ry="3" style="stroke:#038048;stroke-width:1.0;"/>
            <text fill="#000000" font-family="sans-serif" font-size="14" lengthAdjust="spacing" textLength="83.2617"
                  x="514" y="58.1074">name : String
            </text>
            <ellipse cx="505" cy="72.4316" fill="none" rx="3" ry="3" style="stroke:#038048;stroke-width:1.0;"/>
            <text fill="#000000" font-family="sans-serif" font-size="14" lengthAdjust="spacing" textLength="167.2891"
                  x="514" y="76.7285">registrationNumber : String
            </text>
            <line style="stroke:#181818;stroke-width:0.5;" x1="495" x2="686.2891" y1="84.2422" y2="84.2422"/>
        </g><!--class Employee-->
        <g id="elem_Employee">
            <rect fill="#F1F1F1" height="141.1055" id="Employee" rx="2.5" ry="2.5"
                  style="stroke:#181818;stroke-width:0.5;" width="194.0615" x="607.5" y="372"/>
            <ellipse cx="669.1533" cy="388" fill="#ADD1B2" rx="11" ry="11" style="stroke:#181818;stroke-width:1.0;"/>
            <path d="M671.9189,383.875 Q672.0752,383.6563 672.2627,383.5469 Q672.4502,383.4375 672.6689,383.4375 Q673.0439,383.4375 673.2783,383.7031 Q673.5127,383.9531 673.5127,384.5625 L673.5127,386.0156 Q673.5127,386.625 673.2783,386.8906 Q673.0439,387.1563 672.6689,387.1563 Q672.3252,387.1563 672.1221,386.9531 Q671.9189,386.7656 671.8096,386.25 Q671.7627,385.8906 671.5752,385.7031 Q671.2471,385.3281 670.6377,385.1094 Q670.0283,384.8906 669.4033,384.8906 Q668.6377,384.8906 667.9971,385.2188 Q667.3721,385.5469 666.8721,386.2969 Q666.3877,387.0469 666.3877,388.0781 L666.3877,389.1719 Q666.3877,390.4063 667.2783,391.2344 Q668.1689,392.0469 669.7627,392.0469 Q670.7002,392.0469 671.3564,391.7969 Q671.7471,391.6406 672.1689,391.2031 Q672.4346,390.9375 672.5752,390.8594 Q672.7314,390.7813 672.9346,390.7813 Q673.2627,390.7813 673.5127,391.0469 Q673.7783,391.2969 673.7783,391.6406 Q673.7783,391.9844 673.4346,392.3906 Q672.9346,392.9688 672.1377,393.2969 Q671.0596,393.75 669.7627,393.75 Q668.2471,393.75 667.0439,393.125 Q666.0596,392.625 665.3721,391.5625 Q664.6846,390.4844 664.6846,389.2031 L664.6846,388.0469 Q664.6846,386.7188 665.2939,385.5781 Q665.9189,384.4219 667.0127,383.8125 Q668.1064,383.1875 669.3408,383.1875 Q670.0752,383.1875 670.7158,383.3594 Q671.3721,383.5156 671.9189,383.875 Z "
                  fill="#000000"/>
            <text fill="#000000" font-family="sans-serif" font-size="14" lengthAdjust="spacing" textLength="62.2549"
                  x="689.6533" y="393.7969">Employee
            </text>
            <line style="stroke:#181818;stroke-width:0.5;" x1="608.5" x2="800.5615" y1="404" y2="404"/>
            <ellipse cx="618.5" cy="418.8105" fill="none" rx="3" ry="3" style="stroke:#038048;stroke-width:1.0;"/>
            <text fill="#000000" font-family="sans-serif" font-size="14" lengthAdjust="spacing" textLength="83.2617"
                  x="627.5" y="423.1074">name : String
            </text>
            <ellipse cx="618.5" cy="437.4316" fill="none" rx="3" ry="3" style="stroke:#038048;stroke-width:1.0;"/>
            <text fill="#000000" font-family="sans-serif" font-size="14" lengthAdjust="spacing" textLength="168.0615"
                  x="627.5" y="441.7285">citizenCardNumber : String
            </text>
            <ellipse cx="618.5" cy="456.0527" fill="none" rx="3" ry="3" style="stroke:#038048;stroke-width:1.0;"/>
            <text fill="#000000" font-family="sans-serif" font-size="14" lengthAdjust="spacing" textLength="81.6963"
                  x="627.5" y="460.3496">email : String
            </text>
            <ellipse cx="618.5" cy="474.6738" fill="none" rx="3" ry="3" style="stroke:#038048;stroke-width:1.0;"/>
            <text fill="#000000" font-family="sans-serif" font-size="14" lengthAdjust="spacing" textLength="136.9648"
                  x="627.5" y="478.9707">phoneNumber : String
            </text>
            <ellipse cx="618.5" cy="493.2949" fill="none" rx="3" ry="3" style="stroke:#038048;stroke-width:1.0;"/>
            <text fill="#000000" font-family="sans-serif" font-size="14" lengthAdjust="spacing" textLength="71.5859"
                  x="627.5" y="497.5918">role : String
            </text>
            <line style="stroke:#181818;stroke-width:0.5;" x1="608.5" x2="800.5615" y1="505.1055" y2="505.1055"/>
        </g><!--class Sale-->
        <g id="elem_Sale">
            <rect fill="#F1F1F1" height="103.8633" id="Sale" rx="2.5" ry="2.5"
                  style="stroke:#181818;stroke-width:0.5;" width="250.9229" x="213" y="592"/>
            <ellipse cx="320.2012" cy="608" fill="#ADD1B2" rx="11" ry="11" style="stroke:#181818;stroke-width:1.0;"/>
            <path d="M322.9668,603.875 Q323.123,603.6563 323.3105,603.5469 Q323.498,603.4375 323.7168,603.4375 Q324.0918,603.4375 324.3262,603.7031 Q324.5605,603.9531 324.5605,604.5625 L324.5605,606.0156 Q324.5605,606.625 324.3262,606.8906 Q324.0918,607.1563 323.7168,607.1563 Q323.373,607.1563 323.1699,606.9531 Q322.9668,606.7656 322.8574,606.25 Q322.8105,605.8906 322.623,605.7031 Q322.2949,605.3281 321.6855,605.1094 Q321.0762,604.8906 320.4512,604.8906 Q319.6855,604.8906 319.0449,605.2188 Q318.4199,605.5469 317.9199,606.2969 Q317.4355,607.0469 317.4355,608.0781 L317.4355,609.1719 Q317.4355,610.4063 318.3262,611.2344 Q319.2168,612.0469 320.8105,612.0469 Q321.748,612.0469 322.4043,611.7969 Q322.7949,611.6406 323.2168,611.2031 Q323.4824,610.9375 323.623,610.8594 Q323.7793,610.7813 323.9824,610.7813 Q324.3105,610.7813 324.5605,611.0469 Q324.8262,611.2969 324.8262,611.6406 Q324.8262,611.9844 324.4824,612.3906 Q323.9824,612.9688 323.1855,613.2969 Q322.1074,613.75 320.8105,613.75 Q319.2949,613.75 318.0918,613.125 Q317.1074,612.625 316.4199,611.5625 Q315.7324,610.4844 315.7324,609.2031 L315.7324,608.0469 Q315.7324,606.7188 316.3418,605.5781 Q316.9668,604.4219 318.0605,603.8125 Q319.1543,603.1875 320.3887,603.1875 Q321.123,603.1875 321.7637,603.3594 Q322.4199,603.5156 322.9668,603.875 Z "
                  fill="#000000"/>
            <text fill="#000000" font-family="sans-serif" font-size="14" lengthAdjust="spacing" textLength="28.0205"
                  x="340.7012" y="613.7969">Sale
            </text>
            <line style="stroke:#181818;stroke-width:0.5;" x1="214" x2="462.9229" y1="624" y2="624"/>
            <ellipse cx="224" cy="638.8105" fill="none" rx="3" ry="3" style="stroke:#038048;stroke-width:1.0;"/>
            <text fill="#000000" font-family="sans-serif" font-size="14" lengthAdjust="spacing" textLength="104.2822"
                  x="233" y="643.1074">saleValue : Float
            </text>
            <ellipse cx="224" cy="657.4316" fill="none" rx="3" ry="3" style="stroke:#038048;stroke-width:1.0;"/>
            <text fill="#000000" font-family="sans-serif" font-size="14" lengthAdjust="spacing" textLength="224.9229"
                  x="233" y="661.7285">responsibleAgent : RealEstateAgent
            </text>
            <ellipse cx="224" cy="676.0527" fill="none" rx="3" ry="3" style="stroke:#038048;stroke-width:1.0;"/>
            <text fill="#000000" font-family="sans-serif" font-size="14" lengthAdjust="spacing" textLength="118.2754"
                  x="233" y="680.3496">buyerClient : Client
            </text>
            <line style="stroke:#181818;stroke-width:0.5;" x1="214" x2="462.9229" y1="687.8633" y2="687.8633"/>
        </g><!--link Client to Visit-->
        <g id="link_Client_Visit">
            <path d="M187.44,513.28 C165.89,542.71 145.0838,571.1484 126.4338,596.6284 " fill="none"
                  id="Client-to-Visit" style="stroke:#181818;stroke-width:1.0;"/>
            <polygon fill="#181818"
                     points="122.89,601.47,131.4335,596.5701,125.8432,597.4353,124.978,591.845,122.89,601.47"
                     style="stroke:#181818;stroke-width:1.0;"/>
            <text fill="#000000" font-family="sans-serif" font-size="13" lengthAdjust="spacing" textLength="58.5381"
                  x="166.5" y="558.0283">schedules
            </text>
            <text fill="#000000" font-family="sans-serif" font-size="13" lengthAdjust="spacing" textLength="7.23"
                  x="175.0775" y="535.1216">1
            </text>
            <text fill="#000000" font-family="sans-serif" font-size="13" lengthAdjust="spacing" textLength="19.5127"
                  x="107.2223" y="590.3693">0..*
            </text>
        </g><!--link Owner to Property-->
        <g id="link_Owner_Property">
            <path d="M609.28,879.13 C598.06,902.81 587.0384,926.0775 574.5384,952.4675 " fill="none"
                  id="Owner-to-Property" style="stroke:#181818;stroke-width:1.0;"/>
            <polygon fill="#181818"
                     points="571.97,957.89,579.4376,951.4686,574.1104,953.3713,572.2077,948.044,571.97,957.89"
                     style="stroke:#181818;stroke-width:1.0;"/>
            <text fill="#000000" font-family="sans-serif" font-size="13" lengthAdjust="spacing" textLength="30.3481"
                  x="594.5" y="924.0283">owns
            </text>
            <text fill="#000000" font-family="sans-serif" font-size="13" lengthAdjust="spacing" textLength="7.23"
                  x="598.7454" y="900.9539">1
            </text>
            <text fill="#000000" font-family="sans-serif" font-size="13" lengthAdjust="spacing" textLength="19.5127"
                  x="555.5845" y="946.7756">0..*
            </text>
        </g><!--reverse link Property to House-->
        <g id="link_Property_House">
            <path d="M446.8029,1131.1408 C428.2029,1150.6908 420.56,1158.72 401.56,1178.68 " fill="none"
                  id="Property-backto-House" style="stroke:#181818;stroke-width:1.0;"/>
            <polygon fill="none" points="459.21,1118.1,442.4559,1127.0051,451.1498,1135.2765,459.21,1118.1"
                     style="stroke:#181818;stroke-width:1.0;"/>
        </g><!--reverse link Property to Apartment-->
        <g id="link_Property_Apartment">
            <path d="M534.5,1136.1 C534.5,1161.83 534.5,1172.17 534.5,1197.17 " fill="none"
                  id="Property-backto-Apartment" style="stroke:#181818;stroke-width:1.0;"/>
            <polygon fill="none" points="534.5,1118.1,528.5,1136.1,540.5,1136.1,534.5,1118.1"
                     style="stroke:#181818;stroke-width:1.0;"/>
        </g><!--reverse link Property to Land-->
        <g id="link_Property_Land">
            <path
                  d="M609.6739,1132.5609 C624.5839,1152.0309 629.07,1158.81 642.5,1179 C656.61,1200.22 670.78,1225.63 680.41,1243.68 "
                  fill="none" id="Property-backto-Land" style="stroke:#181818;stroke-width:1.0;"/>
            <polygon fill="none" points="598.73,1118.27,604.9103,1136.2089,614.4376,1128.913,598.73,1118.27"
                     style="stroke:#181818;stroke-width:1.0;"/>
        </g><!--link RealEstateAgent to Listing-->
        <g id="link_RealEstateAgent_Listing">
            <path
                  d="M483.29,503.65 C488.45,555.09 492.45,630.92 481.5,696 C477,722.73 469.7969,745.7072 460.7769,769.2472 "
                  fill="none" id="RealEstateAgent-to-Listing" style="stroke:#181818;stroke-width:1.0;"/>
            <polygon fill="#181818"
                     points="458.63,774.85,465.5855,767.8771,460.419,770.181,458.1151,765.0146,458.63,774.85"
                     style="stroke:#181818;stroke-width:1.0;"/>
            <text fill="#000000" font-family="sans-serif" font-size="13" lengthAdjust="spacing" textLength="53.479"
                  x="489.5" y="649.5283">manages
            </text>
            <text fill="#000000" font-family="sans-serif" font-size="13" lengthAdjust="spacing" textLength="7.23"
                  x="476.8231" y="526.1551">1
            </text>
            <text fill="#000000" font-family="sans-serif" font-size="13" lengthAdjust="spacing" textLength="19.5127"
                  x="441.3871" y="763.7572">0..*
            </text>
        </g><!--link Listing to Property-->
        <g id="link_Listing_Property">
            <path d="M460.47,879.13 C471.58,902.81 482.4834,926.0672 494.8534,952.4572 " fill="none"
                  id="Listing-to-Property" style="stroke:#181818;stroke-width:1.0;"/>
            <polygon fill="#181818"
                     points="497.4,957.89,497.202,948.0431,495.2779,953.3627,489.9583,951.4385,497.4,957.89"
                     style="stroke:#181818;stroke-width:1.0;"/>
            <text fill="#000000" font-family="sans-serif" font-size="13" lengthAdjust="spacing" textLength="59.249"
                  x="484.5" y="924.0283">advertises
            </text>
            <text fill="#000000" font-family="sans-serif" font-size="13" lengthAdjust="spacing" textLength="7.23"
                  x="456.1318" y="900.9539">1
            </text>
            <text fill="#000000" font-family="sans-serif" font-size="13" lengthAdjust="spacing" textLength="7.23"
                  x="486.6802" y="946.7756">1
            </text>
        </g><!--link Branch to RealEstateAgent-->
        <g id="link_Branch_RealEstateAgent">
            <path d="M557.39,293.03 C542.13,320.7 526.9481,348.2163 511.6681,375.9163 " fill="none"
                  id="Branch-to-RealEstateAgent" style="stroke:#181818;stroke-width:1.0;"/>
            <polygon fill="#181818"
                     points="508.77,381.17,516.6196,375.2215,511.1851,376.7919,509.6146,371.3574,508.77,381.17"
                     style="stroke:#181818;stroke-width:1.0;"/>
            <text fill="#000000" font-family="sans-serif" font-size="13" lengthAdjust="spacing" textLength="48.4072"
                  x="541.5" y="338.0283">employs
            </text>
            <text fill="#000000" font-family="sans-serif" font-size="13" lengthAdjust="spacing" textLength="7.23"
                  x="545.917" y="315.5205">1
            </text>
            <text fill="#000000" font-family="sans-serif" font-size="13" lengthAdjust="spacing" textLength="19.5127"
                  x="492.5445" y="370.113">0..*
            </text>
        </g><!--link Company to Branch-->
        <g id="link_Company_Branch">
            <path d="M590.5,92.36 C590.5,115.69 590.5,139.14 590.5,164.9 " fill="none"
                  id="Company-to-Branch" style="stroke:#181818;stroke-width:1.0;"/>
            <polygon fill="#181818" points="590.5,170.9,594.5,161.9,590.5,165.9,586.5,161.9,590.5,170.9"
                     style="stroke:#181818;stroke-width:1.0;"/>
            <text fill="#000000" font-family="sans-serif" font-size="13" lengthAdjust="spacing" textLength="30.3481"
                  x="591.5" y="137.0283">owns
            </text>
            <text fill="#000000" font-family="sans-serif" font-size="13" lengthAdjust="spacing" textLength="7.23"
                  x="582.9595" y="114.2566">1
            </text>
            <text fill="#000000" font-family="sans-serif" font-size="13" lengthAdjust="spacing" textLength="19.5127"
                  x="570.4073" y="159.8696">0..*
            </text>
        </g><!--link Branch to Employee-->
        <g id="link_Branch_Employee">
            <path d="M623.32,293.03 C636.8,317.69 649.6317,341.1355 663.6117,366.7055 " fill="none"
                  id="Branch-to-Employee" style="stroke:#181818;stroke-width:1.0;"/>
            <polygon fill="#181818"
                     points="666.49,371.97,665.6822,362.1543,664.0914,367.5829,658.6629,365.9921,666.49,371.97"
                     style="stroke:#181818;stroke-width:1.0;"/>
            <text fill="#000000" font-family="sans-serif" font-size="13" lengthAdjust="spacing" textLength="48.4072"
                  x="648.5" y="338.0283">employs
            </text>
            <text fill="#000000" font-family="sans-serif" font-size="13" lengthAdjust="spacing" textLength="7.23"
                  x="619.8822" y="315.5205">1
            </text>
            <text fill="#000000" font-family="sans-serif" font-size="13" lengthAdjust="spacing" textLength="19.5127"
                  x="642.6138" y="360.8579">0..*
            </text>
        </g><!--link Client to Sale-->
        <g id="link_Client_Sale">
            <path d="M273.48,513.28 C286.43,539.12 298.1822,562.5557 310.1522,586.4457 " fill="none"
                  id="Client-to-Sale" style="stroke:#181818;stroke-width:1.0;"/>
            <polygon fill="#181818"
                     points="312.84,591.81,312.3846,581.9717,310.6002,587.3397,305.2321,585.5554,312.84,591.81"
                     style="stroke:#181818;stroke-width:1.0;"/>
            <text fill="#000000" font-family="sans-serif" font-size="13" lengthAdjust="spacing" textLength="27.46"
                  x="298.5" y="558.0283">buys
            </text>
            <text fill="#000000" font-family="sans-serif" font-size="13" lengthAdjust="spacing" textLength="7.23"
                  x="269.5871" y="535.1216">1
            </text>
            <text fill="#000000" font-family="sans-serif" font-size="13" lengthAdjust="spacing" textLength="19.5127"
                  x="289.155" y="580.7118">0..*
            </text>
        </g><!--link Sale to Listing-->
        <g id="link_Sale_Listing">
            <path d="M366.32,696.38 C379.62,720.94 392.6327,744.984 405.9227,769.524 " fill="none"
                  id="Sale-to-Listing" style="stroke:#181818;stroke-width:1.0;"/>
            <polygon fill="#181818"
                     points="408.78,774.8,408.0114,764.9812,406.3989,770.4034,400.9768,768.7909,408.78,774.8"
                     style="stroke:#181818;stroke-width:1.0;"/>
            <text fill="#000000" font-family="sans-serif" font-size="13" lengthAdjust="spacing" textLength="62.8672"
                  x="391.5" y="741.0283">isLinkedTo
            </text>
            <text fill="#000000" font-family="sans-serif" font-size="13" lengthAdjust="spacing" textLength="7.23"
                  x="362.3027" y="717.8541">1
            </text>
            <text fill="#000000" font-family="sans-serif" font-size="13" lengthAdjust="spacing" textLength="7.23"
                  x="397.6258" y="763.7005">1
            </text>
        </g><!--link RealEstateAgent to Sale-->
        <g id="link_RealEstateAgent_Sale">
            <path d="M434.21,503.63 C414.91,531.74 395.5562,559.9137 377.0862,586.8137 " fill="none"
                  id="RealEstateAgent-to-Sale" style="stroke:#181818;stroke-width:1.0;"/>
            <polygon fill="#181818"
                     points="373.69,591.76,382.0818,586.6047,376.5202,587.6381,375.4868,582.0764,373.69,591.76"
                     style="stroke:#181818;stroke-width:1.0;"/>
            <text fill="#000000" font-family="sans-serif" font-size="13" lengthAdjust="spacing" textLength="45.5381"
                  x="408.5" y="558.0283">handles
            </text>
            <text fill="#000000" font-family="sans-serif" font-size="13" lengthAdjust="spacing" textLength="7.23"
                  x="421.7615" y="526.1327">1
            </text>
            <text fill="#000000" font-family="sans-serif" font-size="13" lengthAdjust="spacing" textLength="19.5127"
                  x="358.1817" y="580.6551">0..*
            </text>
        </g><!--SRC=[jLHDRzim3BtxLmWvRaYnNerXG9Acs81W7PQYbs47ncPYeVgQAA_rFlxxQ5jnOytPi04zMNwao4VoKOK28h5I4aqGtpCXNXhGA7An3LwQGmiKCiXlQ5RWo_Urtg4VMGCylfl2KODK8yHLrc3g-JFBYex21syT-j3q94BZnYJ08p1mhIo4zb_P0eAqPkHKIWfW2hpsLgzaQ5PSL9TikEQyB704L3PO6g9y-lp4wAsj2Niw5T0I27NRf5mihLK89XeM8SXYZ59jre_EKkt7HPYk-9lz4ajlhMxJIXD65WXLOdBWx_d-ra619p1-gQMBX7xdlk1RGGyptIjh_T3wDEUpizc0APd8y7_pO9Z8jDhEwUdFwlc8eDOy_82Bm_yg-LyLks6rCT3dSlLEIQgkc06xjfyMtTKa3HBTfd8khDQIg1TmByOXxfqa6Ijm7lVeFPPjG8g1kREdfbkfErFxFMtwqlCgL7sSmfQ94jFMG5bw9Zh2U24D7taFF4tKlxBQWMdEzDhZWVlZkoKzsyArTiesYCyvhvOBR-P4zYsec9duT0Ug7ZqDt0zd3ScTYgBAKvdr8sxGn_SpZmzfco92iykPcC_VYDchYuiNipZRN51HOLahfApVXSHjU0npOHyCPSF_wn_pUVym9TYmy0dUhbwMRaUIxIZaN6WmS61IHsHml1nnWl8hdoInPrHP4Z5Dc0li9atPKJJ9XHWcbZiTT13BIRJ99dTppGLFXhBkV5h6Kx6IDjBSymBPlpKe1goub-t8VW40]-->
    </g>
</svg>