<svg xmlns="http://www.w3.org/2000/svg" xmlns:xlink="http://www.w3.org/1999/xlink" contentStyleType="text/css"
     height="1364px" preserveAspectRatio="none" style="width:808px;height:1364px;background:#FFFFFF;" version="1.1"
     viewBox="0 0 808 1364" width="808px" zoomAndPan="magnify">
    <defs/>
    <g><!--class Client-->
        <g id="elem_Client">
            <rect fill="#F1F1F1" height="141.1055" id="Client" rx="2.5" ry="2.5"
                  style="stroke:#181818;stroke-width:0.5;" width="194.0615" x="141.5" y="372"/>
            <ellipse cx="216.3843" cy="388" fill="#ADD1B2" rx="11" ry="11" style="stroke:#181818;stroke-width:1.0;"/>
            <path d="M219.1499,383.875 Q219.3062,383.6563 219.4937,383.5469 Q219.6812,383.4375 219.8999,383.4375 Q220.2749,383.4375 220.5093,383.7031 Q220.7437,383.9531 220.7437,384.5625 L220.7437,386.0156 Q220.7437,386.625 220.5093,386.8906 Q220.2749,387.1563 219.8999,387.1563 Q219.5562,387.1563 219.353,386.9531 Q219.1499,386.7656 219.0405,386.25 Q218.9937,385.8906 218.8062,385.7031 Q218.478,385.3281 217.8687,385.1094 Q217.2593,384.8906 216.6343,384.8906 Q215.8687,384.8906 215.228,385.2188 Q214.603,385.5469 214.103,386.2969 Q213.6187,387.0469 213.6187,388.0781 L213.6187,389.1719 Q213.6187,390.4063 214.5093,391.2344 Q215.3999,392.0469 216.9937,392.0469 Q217.9312,392.0469 218.5874,391.7969 Q218.978,391.6406 219.3999,391.2031 Q219.6655,390.9375 219.8062,390.8594 Q219.9624,390.7813 220.1655,390.7813 Q220.4937,390.7813 220.7437,391.0469 Q221.0093,391.2969 221.0093,391.6406 Q221.0093,391.9844 220.6655,392.3906 Q220.1655,392.9688 219.3687,393.2969 Q218.2905,393.75 216.9937,393.75 Q215.478,393.75 214.2749,393.125 Q213.2905,392.625 212.603,391.5625 Q211.9155,390.4844 211.9155,389.2031 L211.9155,388.0469 Q211.9155,386.7188 212.5249,385.5781 Q213.1499,384.4219 214.2437,383.8125 Q215.3374,383.1875 216.5718,383.1875 Q217.3062,383.1875 217.9468,383.3594 Q218.603,383.5156 219.1499,383.875 Z "
                  fill="#000000"/>
            <text fill="#000000" font-family="sans-serif" font-size="14" lengthAdjust="spacing" textLength="35.793"
                  x="236.8843" y="393.7969">Client
            </text>
            <line style="stroke:#181818;stroke-width:0.5;" x1="142.5" x2="334.5615" y1="404" y2="404"/>
            <ellipse cx="152.5" cy="418.8105" fill="none" rx="3" ry="3" style="stroke:#038048;stroke-width:1.0;"/>
            <text fill="#000000" font-family="sans-serif" font-size="14" lengthAdjust="spacing" textLength="83.2617"
                  x="161.5" y="423.1074">name : String
            </text>
            <ellipse cx="152.5" cy="437.4316" fill="none" rx="3" ry="3" style="stroke:#038048;stroke-width:1.0;"/>
            <text fill="#000000" font-family="sans-serif" font-size="14" lengthAdjust="spacing" textLength="168.0615"
                  x="161.5" y="441.7285">citizenCardNumber : String
            </text>
            <ellipse cx="152.5" cy="456.0527" fill="none" rx="3" ry="3" style="stroke:#038048;stroke-width:1.0;"/>
            <text fill="#000000" font-family="sans-serif" font-size="14" lengthAdjust="spacing" textLength="128.3857"
                  x="161.5" y="460.3496">taxIdNumber : String
            </text>
            <ellipse cx="152.5" cy="474.6738" fill="none" rx="3" ry="3" style="stroke:#038048;stroke-width:1.0;"/>
            <text fill="#000000" font-family="sans-serif" font-size="14" lengthAdjust="spacing" textLength="81.6963"
                  x="161.5" y="478.9707">email : String
            </text>
            <ellipse cx="152.5" cy="493.2949" fill="none" rx="3" ry="3" style="stroke:#038048;stroke-width:1.0;"/>
            <text fill="#000000" font-family="sans-serif" font-size="14" lengthAdjust="spacing" textLength="136.9648"
                  x="161.5" y="497.5918">phoneNumber : String
            </text>
            <line style="stroke:#181818;stroke-width:0.5;" x1="142.5" x2="334.5615" y1="505.1055" y2="505.1055"/>
        </g><!--class Property-->
        <g id="elem_Property">
            <rect fill="#F1F1F1" height="159.7266" id="Property" rx="2.5" ry="2.5"
                  style="stroke:#181818;stroke-width:0.5;" width="219.7305" x="424.5" y="958"/>
            <ellipse cx="503.6602" cy="974" fill="#ADD1B2" rx="11" ry="11" style="stroke:#181818;stroke-width:1.0;"/>
            <path d="M506.4258,969.875 Q506.582,969.6563 506.7695,969.5469 Q506.957,969.4375 507.1758,969.4375 Q507.5508,969.4375 507.7852,969.7031 Q508.0195,969.9531 508.0195,970.5625 L508.0195,972.0156 Q508.0195,972.625 507.7852,972.8906 Q507.5508,973.1563 507.1758,973.1563 Q506.832,973.1563 506.6289,972.9531 Q506.4258,972.7656 506.3164,972.25 Q506.2695,971.8906 506.082,971.7031 Q505.7539,971.3281 505.1445,971.1094 Q504.5352,970.8906 503.9102,970.8906 Q503.1445,970.8906 502.5039,971.2188 Q501.8789,971.5469 501.3789,972.2969 Q500.8945,973.0469 500.8945,974.0781 L500.8945,975.1719 Q500.8945,976.4063 501.7852,977.2344 Q502.6758,978.0469 504.2695,978.0469 Q505.207,978.0469 505.8633,977.7969 Q506.2539,977.6406 506.6758,977.2031 Q506.9414,976.9375 507.082,976.8594 Q507.2383,976.7813 507.4414,976.7813 Q507.7695,976.7813 508.0195,977.0469 Q508.2852,977.2969 508.2852,977.6406 Q508.2852,977.9844 507.9414,978.3906 Q507.4414,978.9688 506.6445,979.2969 Q505.5664,979.75 504.2695,979.75 Q502.7539,979.75 501.5508,979.125 Q500.5664,978.625 499.8789,977.5625 Q499.1914,976.4844 499.1914,975.2031 L499.1914,974.0469 Q499.1914,972.7188 499.8008,971.5781 Q500.4258,970.4219 501.5195,969.8125 Q502.6133,969.1875 503.8477,969.1875 Q504.582,969.1875 505.2227,969.3594 Q505.8789,969.5156 506.4258,969.875 Z "
                  fill="#000000"/>
            <text fill="#000000" font-family="sans-serif" font-size="14" lengthAdjust="spacing" textLength="52.9102"
                  x="524.1602" y="979.7969">Property
            </text>
            <line style="stroke:#181818;stroke-width:0.5;" x1="425.5" x2="643.2305" y1="990" y2="990"/>
            <ellipse cx="435.5" cy="1004.8105" fill="none" rx="3" ry="3" style="stroke:#038048;stroke-width:1.0;"/>
            <text fill="#000000" font-family="sans-serif" font-size="14" lengthAdjust="spacing" textLength="74.7031"
                  x="444.5" y="1009.1074">type : String
            </text>
            <ellipse cx="435.5" cy="1023.4316" fill="none" rx="3" ry="3" style="stroke:#038048;stroke-width:1.0;"/>
            <text fill="#000000" font-family="sans-serif" font-size="14" lengthAdjust="spacing" textLength="70.8135"
                  x="444.5" y="1027.7285">area : Float
            </text>
            <ellipse cx="435.5" cy="1042.0527" fill="none" rx="3" ry="3" style="stroke:#038048;stroke-width:1.0;"/>
            <text fill="#000000" font-family="sans-serif" font-size="14" lengthAdjust="spacing" textLength="96.4961"
                  x="444.5" y="1046.3496">location : String
            </text>
            <ellipse cx="435.5" cy="1060.6738" fill="none" rx="3" ry="3" style="stroke:#038048;stroke-width:1.0;"/>
            <text fill="#000000" font-family="sans-serif" font-size="14" lengthAdjust="spacing" textLength="193.7305"
                  x="444.5" y="1064.9707">distanceFromCityCenter : Float
            </text>
            <ellipse cx="435.5" cy="1079.2949" fill="none" rx="3" ry="3" style="stroke:#038048;stroke-width:1.0;"/>
            <text fill="#000000" font-family="sans-serif" font-size="14" lengthAdjust="spacing" textLength="73.1377"
                  x="444.5" y="1083.5918">price : Float
            </text>
            <ellipse cx="435.5" cy="1097.916" fill="none" rx="3" ry="3" style="stroke:#038048;stroke-width:1.0;"/>
            <text fill="#000000" font-family="sans-serif" font-size="14" lengthAdjust="spacing" textLength="98.0547"
                  x="444.5" y="1102.2129">photos : String[]
            </text>
            <line style="stroke:#181818;stroke-width:0.5;" x1="425.5" x2="643.2305" y1="1109.7266" y2="1109.7266"/>
        </g><!--class House-->
        <g id="elem_House">
            <rect fill="#F1F1F1" height="178.3477" id="House" rx="2.5" ry="2.5"
                  style="stroke:#181818;stroke-width:0.5;" width="182.3994" x="226.5" y="1179"/>
            <ellipse cx="293.2153" cy="1195" fill="#ADD1B2" rx="11" ry="11" style="stroke:#181818;stroke-width:1.0;"/>
            <path d="M295.981,1190.875 Q296.1372,1190.6563 296.3247,1190.5469 Q296.5122,1190.4375 296.731,1190.4375 Q297.106,1190.4375 297.3403,1190.7031 Q297.5747,1190.9531 297.5747,1191.5625 L297.5747,1193.0156 Q297.5747,1193.625 297.3403,1193.8906 Q297.106,1194.1563 296.731,1194.1563 Q296.3872,1194.1563 296.1841,1193.9531 Q295.981,1193.7656 295.8716,1193.25 Q295.8247,1192.8906 295.6372,1192.7031 Q295.3091,1192.3281 294.6997,1192.1094 Q294.0903,1191.8906 293.4653,1191.8906 Q292.6997,1191.8906 292.0591,1192.2188 Q291.4341,1192.5469 290.9341,1193.2969 Q290.4497,1194.0469 290.4497,1195.0781 L290.4497,1196.1719 Q290.4497,1197.4063 291.3403,1198.2344 Q292.231,1199.0469 293.8247,1199.0469 Q294.7622,1199.0469 295.4185,1198.7969 Q295.8091,1198.6406 296.231,1198.2031 Q296.4966,1197.9375 296.6372,1197.8594 Q296.7935,1197.7813 296.9966,1197.7813 Q297.3247,1197.7813 297.5747,1198.0469 Q297.8403,1198.2969 297.8403,1198.6406 Q297.8403,1198.9844 297.4966,1199.3906 Q296.9966,1199.9688 296.1997,1200.2969 Q295.1216,1200.75 293.8247,1200.75 Q292.3091,1200.75 291.106,1200.125 Q290.1216,1199.625 289.4341,1198.5625 Q288.7466,1197.4844 288.7466,1196.2031 L288.7466,1195.0469 Q288.7466,1193.7188 289.356,1192.5781 Q289.981,1191.4219 291.0747,1190.8125 Q292.1685,1190.1875 293.4028,1190.1875 Q294.1372,1190.1875 294.7778,1190.3594 Q295.4341,1190.5156 295.981,1190.875 Z "
                  fill="#000000"/>
            <text fill="#000000" font-family="sans-serif" font-size="14" lengthAdjust="spacing" textLength="40.4688"
                  x="313.7153" y="1200.7969">House
            </text>
            <line style="stroke:#181818;stroke-width:0.5;" x1="227.5" x2="407.8994" y1="1211" y2="1211"/>
            <ellipse cx="237.5" cy="1225.8105" fill="none" rx="3" ry="3" style="stroke:#038048;stroke-width:1.0;"/>
            <text fill="#000000" font-family="sans-serif" font-size="14" lengthAdjust="spacing" textLength="148.6543"
                  x="246.5" y="1230.1074">hasBasement : Boolean
            </text>
            <ellipse cx="237.5" cy="1244.4316" fill="none" rx="3" ry="3" style="stroke:#038048;stroke-width:1.0;"/>
            <text fill="#000000" font-family="sans-serif" font-size="14" lengthAdjust="spacing" textLength="112.8477"
                  x="246.5" y="1248.7285">hasAttic : Boolean
            </text>
            <ellipse cx="237.5" cy="1263.0527" fill="none" rx="3" ry="3" style="stroke:#038048;stroke-width:1.0;"/>
            <text fill="#000000" font-family="sans-serif" font-size="14" lengthAdjust="spacing" textLength="129.958"
                  x="246.5" y="1267.3496">sunExposure : String
            </text>
            <ellipse cx="237.5" cy="1281.6738" fill="none" rx="3" ry="3" style="stroke:#038048;stroke-width:1.0;"/>
            <text fill="#000000" font-family="sans-serif" font-size="14" lengthAdjust="spacing" textLength="152.5098"
                  x="246.5" y="1285.9707">numberOfBedrooms : int
            </text>
            <ellipse cx="237.5" cy="1300.2949" fill="none" rx="3" ry="3" style="stroke:#038048;stroke-width:1.0;"/>
            <text fill="#000000" font-family="sans-serif" font-size="14" lengthAdjust="spacing" textLength="156.3994"
                  x="246.5" y="1304.5918">numberOfBathrooms : int
            </text>
            <ellipse cx="237.5" cy="1318.916" fill="none" rx="3" ry="3" style="stroke:#038048;stroke-width:1.0;"/>
            <text fill="#000000" font-family="sans-serif" font-size="14" lengthAdjust="spacing" textLength="119.0684"
                  x="246.5" y="1323.2129">parkingSpaces : int
            </text>
            <ellipse cx="237.5" cy="1337.5371" fill="none" rx="3" ry="3" style="stroke:#038048;stroke-width:1.0;"/>
            <text fill="#000000" font-family="sans-serif" font-size="14" lengthAdjust="spacing" textLength="121.3994"
                  x="246.5" y="1341.834">equipment : String[]
            </text>
            <line style="stroke:#181818;stroke-width:0.5;" x1="227.5" x2="407.8994" y1="1349.3477" y2="1349.3477"/>
        </g><!--class Apartment-->
        <g id="elem_Apartment">
            <rect fill="#F1F1F1" height="141.1055" id="Apartment" rx="2.5" ry="2.5"
                  style="stroke:#181818;stroke-width:0.5;" width="182.3994" x="443.5" y="1197.5"/>
            <ellipse cx="498.1567" cy="1213.5" fill="#ADD1B2" rx="11" ry="11" style="stroke:#181818;stroke-width:1.0;"/>
            <path d="M500.9224,1209.375 Q501.0786,1209.1563 501.2661,1209.0469 Q501.4536,1208.9375 501.6724,1208.9375 Q502.0474,1208.9375 502.2817,1209.2031 Q502.5161,1209.4531 502.5161,1210.0625 L502.5161,1211.5156 Q502.5161,1212.125 502.2817,1212.3906 Q502.0474,1212.6563 501.6724,1212.6563 Q501.3286,1212.6563 501.1255,1212.4531 Q500.9224,1212.2656 500.813,1211.75 Q500.7661,1211.3906 500.5786,1211.2031 Q500.2505,1210.8281 499.6411,1210.6094 Q499.0317,1210.3906 498.4067,1210.3906 Q497.6411,1210.3906 497.0005,1210.7188 Q496.3755,1211.0469 495.8755,1211.7969 Q495.3911,1212.5469 495.3911,1213.5781 L495.3911,1214.6719 Q495.3911,1215.9063 496.2817,1216.7344 Q497.1724,1217.5469 498.7661,1217.5469 Q499.7036,1217.5469 500.3599,1217.2969 Q500.7505,1217.1406 501.1724,1216.7031 Q501.438,1216.4375 501.5786,1216.3594 Q501.7349,1216.2813 501.938,1216.2813 Q502.2661,1216.2813 502.5161,1216.5469 Q502.7817,1216.7969 502.7817,1217.1406 Q502.7817,1217.4844 502.438,1217.8906 Q501.938,1218.4688 501.1411,1218.7969 Q500.063,1219.25 498.7661,1219.25 Q497.2505,1219.25 496.0474,1218.625 Q495.063,1218.125 494.3755,1217.0625 Q493.688,1215.9844 493.688,1214.7031 L493.688,1213.5469 Q493.688,1212.2188 494.2974,1211.0781 Q494.9224,1209.9219 496.0161,1209.3125 Q497.1099,1208.6875 498.3442,1208.6875 Q499.0786,1208.6875 499.7192,1208.8594 Q500.3755,1209.0156 500.9224,1209.375 Z "
                  fill="#000000"/>
            <text fill="#000000" font-family="sans-serif" font-size="14" lengthAdjust="spacing" textLength="64.5859"
                  x="518.6567" y="1219.2969">Apartment
            </text>
            <line style="stroke:#181818;stroke-width:0.5;" x1="444.5" x2="624.8994" y1="1229.5" y2="1229.5"/>
            <ellipse cx="454.5" cy="1244.3105" fill="none" rx="3" ry="3" style="stroke:#038048;stroke-width:1.0;"/>
            <text fill="#000000" font-family="sans-serif" font-size="14" lengthAdjust="spacing" textLength="103.4824"
                  x="463.5" y="1248.6074">floorNumber : int
            </text>
            <ellipse cx="454.5" cy="1262.9316" fill="none" rx="3" ry="3" style="stroke:#038048;stroke-width:1.0;"/>
            <text fill="#000000" font-family="sans-serif" font-size="14" lengthAdjust="spacing" textLength="152.5098"
                  x="463.5" y="1267.2285">numberOfBedrooms : int
            </text>
            <ellipse cx="454.5" cy="1281.5527" fill="none" rx="3" ry="3" style="stroke:#038048;stroke-width:1.0;"/>
            <text fill="#000000" font-family="sans-serif" font-size="14" lengthAdjust="spacing" textLength="156.3994"
                  x="463.5" y="1285.8496">numberOfBathrooms : int
            </text>
            <ellipse cx="454.5" cy="1300.1738" fill="none" rx="3" ry="3" style="stroke:#038048;stroke-width:1.0;"/>
            <text fill="#000000" font-family="sans-serif" font-size="14" lengthAdjust="spacing" textLength="119.0684"
                  x="463.5" y="1304.4707">parkingSpaces : int
            </text>
            <ellipse cx="454.5" cy="1318.7949" fill="none" rx="3" ry="3" style="stroke:#038048;stroke-width:1.0;"/>
            <text fill="#000000" font-family="sans-serif" font-size="14" lengthAdjust="spacing" textLength="121.3994"
                  x="463.5" y="1323.0918">equipment : String[]
            </text>
            <line style="stroke:#181818;stroke-width:0.5;" x1="444.5" x2="624.8994" y1="1330.6055" y2="1330.6055"/>
        </g><!--class Land-->
        <g id="elem_Land">
            <rect fill="#F1F1F1" height="48" id="Land" rx="2.5" ry="2.5"
                  style="stroke:#181818;stroke-width:0.5;" width="63.1445" x="661" y="1244"/>
            <ellipse cx="676" cy="1260" fill="#ADD1B2" rx="11" ry="11" style="stroke:#181818;stroke-width:1.0;"/>
            <path d="M678.7656,1255.875 Q678.9219,1255.6563 679.1094,1255.5469 Q679.2969,1255.4375 679.5156,1255.4375 Q679.8906,1255.4375 680.125,1255.7031 Q680.3594,1255.9531 680.3594,1256.5625 L680.3594,1258.0156 Q680.3594,1258.625 680.125,1258.8906 Q679.8906,1259.1563 679.5156,1259.1563 Q679.1719,1259.1563 678.9688,1258.9531 Q678.7656,1258.7656 678.6563,1258.25 Q678.6094,1257.8906 678.4219,1257.7031 Q678.0938,1257.3281 677.4844,1257.1094 Q676.875,1256.8906 676.25,1256.8906 Q675.4844,1256.8906 674.8438,1257.2188 Q674.2188,1257.5469 673.7188,1258.2969 Q673.2344,1259.0469 673.2344,1260.0781 L673.2344,1261.1719 Q673.2344,1262.4063 674.125,1263.2344 Q675.0156,1264.0469 676.6094,1264.0469 Q677.5469,1264.0469 678.2031,1263.7969 Q678.5938,1263.6406 679.0156,1263.2031 Q679.2813,1262.9375 679.4219,1262.8594 Q679.5781,1262.7813 679.7813,1262.7813 Q680.1094,1262.7813 680.3594,1263.0469 Q680.625,1263.2969 680.625,1263.6406 Q680.625,1263.9844 680.2813,1264.3906 Q679.7813,1264.9688 678.9844,1265.2969 Q677.9063,1265.75 676.6094,1265.75 Q675.0938,1265.75 673.8906,1265.125 Q672.9063,1264.625 672.2188,1263.5625 Q671.5313,1262.4844 671.5313,1261.2031 L671.5313,1260.0469 Q671.5313,1258.7188 672.1406,1257.5781 Q672.7656,1256.4219 673.8594,1255.8125 Q674.9531,1255.1875 676.1875,1255.1875 Q676.9219,1255.1875 677.5625,1255.3594 Q678.2188,1255.5156 678.7656,1255.875 Z "
                  fill="#000000"/>
            <text fill="#000000" font-family="sans-serif" font-size="14" lengthAdjust="spacing" textLength="31.1445"
                  x="690" y="1265.7969">Land
            </text>
            <line style="stroke:#181818;stroke-width:0.5;" x1="662" x2="723.1445" y1="1276" y2="1276"/>
            <line style="stroke:#181818;stroke-width:0.5;" x1="662" x2="723.1445" y1="1284" y2="1284"/>
        </g><!--class Owner-->
        <g id="elem_Owner">
            <rect fill="#F1F1F1" height="103.8633" id="Owner" rx="2.5" ry="2.5"
                  style="stroke:#181818;stroke-width:0.5;" width="162.9648" x="552" y="775"/>
            <ellipse cx="608.6152" cy="791" fill="#ADD1B2" rx="11" ry="11" style="stroke:#181818;stroke-width:1.0;"/>
            <path d="M611.3809,786.875 Q611.5371,786.6563 611.7246,786.5469 Q611.9121,786.4375 612.1309,786.4375 Q612.5059,786.4375 612.7402,786.7031 Q612.9746,786.9531 612.9746,787.5625 L612.9746,789.0156 Q612.9746,789.625 612.7402,789.8906 Q612.5059,790.1563 612.1309,790.1563 Q611.7871,790.1563 611.584,789.9531 Q611.3809,789.7656 611.2715,789.25 Q611.2246,788.8906 611.0371,788.7031 Q610.709,788.3281 610.0996,788.1094 Q609.4902,787.8906 608.8652,787.8906 Q608.0996,787.8906 607.459,788.2188 Q606.834,788.5469 606.334,789.2969 Q605.8496,790.0469 605.8496,791.0781 L605.8496,792.1719 Q605.8496,793.4063 606.7402,794.2344 Q607.6309,795.0469 609.2246,795.0469 Q610.1621,795.0469 610.8184,794.7969 Q611.209,794.6406 611.6309,794.2031 Q611.8965,793.9375 612.0371,793.8594 Q612.1934,793.7813 612.3965,793.7813 Q612.7246,793.7813 612.9746,794.0469 Q613.2402,794.2969 613.2402,794.6406 Q613.2402,794.9844 612.8965,795.3906 Q612.3965,795.9688 611.5996,796.2969 Q610.5215,796.75 609.2246,796.75 Q607.709,796.75 606.5059,796.125 Q605.5215,795.625 604.834,794.5625 Q604.1465,793.4844 604.1465,792.2031 L604.1465,791.0469 Q604.1465,789.7188 604.7559,788.5781 Q605.3809,787.4219 606.4746,786.8125 Q607.5684,786.1875 608.8027,786.1875 Q609.5371,786.1875 610.1777,786.3594 Q610.834,786.5156 611.3809,786.875 Z "
                  fill="#000000"/>
            <text fill="#000000" font-family="sans-serif" font-size="14" lengthAdjust="spacing" textLength="41.2344"
                  x="629.1152" y="796.7969">Owner
            </text>
            <line style="stroke:#181818;stroke-width:0.5;" x1="553" x2="713.9648" y1="807" y2="807"/>
            <ellipse cx="563" cy="821.8105" fill="none" rx="3" ry="3" style="stroke:#038048;stroke-width:1.0;"/>
            <text fill="#000000" font-family="sans-serif" font-size="14" lengthAdjust="spacing" textLength="83.2617"
                  x="572" y="826.1074">name : String
            </text>
            <ellipse cx="563" cy="840.4316" fill="none" rx="3" ry="3" style="stroke:#038048;stroke-width:1.0;"/>
            <text fill="#000000" font-family="sans-serif" font-size="14" lengthAdjust="spacing" textLength="128.3857"
                  x="572" y="844.7285">taxIdNumber : String
            </text>
            <ellipse cx="563" cy="859.0527" fill="none" rx="3" ry="3" style="stroke:#038048;stroke-width:1.0;"/>
            <text fill="#000000" font-family="sans-serif" font-size="14" lengthAdjust="spacing" textLength="136.9648"
                  x="572" y="863.3496">phoneNumber : String
            </text>
            <line style="stroke:#181818;stroke-width:0.5;" x1="553" x2="713.9648" y1="870.8633" y2="870.8633"/>
        </g><!--class RealEstateAgent-->
        <g id="elem_RealEstateAgent">
            <rect fill="#F1F1F1" height="122.4844" id="RealEstateAgent" rx="2.5" ry="2.5"
                  style="stroke:#181818;stroke-width:0.5;" width="194.0615" x="378.5" y="381.5"/>
            <ellipse cx="419.1469" cy="397.5" fill="#ADD1B2" rx="11" ry="11" style="stroke:#181818;stroke-width:1.0;"/>
            <path d="M421.9125,393.375 Q422.0688,393.1563 422.2563,393.0469 Q422.4438,392.9375 422.6625,392.9375 Q423.0375,392.9375 423.2719,393.2031 Q423.5063,393.4531 423.5063,394.0625 L423.5063,395.5156 Q423.5063,396.125 423.2719,396.3906 Q423.0375,396.6563 422.6625,396.6563 Q422.3188,396.6563 422.1157,396.4531 Q421.9125,396.2656 421.8032,395.75 Q421.7563,395.3906 421.5688,395.2031 Q421.2407,394.8281 420.6313,394.6094 Q420.0219,394.3906 419.3969,394.3906 Q418.6313,394.3906 417.9907,394.7188 Q417.3657,395.0469 416.8657,395.7969 Q416.3813,396.5469 416.3813,397.5781 L416.3813,398.6719 Q416.3813,399.9063 417.2719,400.7344 Q418.1625,401.5469 419.7563,401.5469 Q420.6938,401.5469 421.35,401.2969 Q421.7407,401.1406 422.1625,400.7031 Q422.4282,400.4375 422.5688,400.3594 Q422.725,400.2813 422.9282,400.2813 Q423.2563,400.2813 423.5063,400.5469 Q423.7719,400.7969 423.7719,401.1406 Q423.7719,401.4844 423.4282,401.8906 Q422.9282,402.4688 422.1313,402.7969 Q421.0532,403.25 419.7563,403.25 Q418.2407,403.25 417.0375,402.625 Q416.0532,402.125 415.3657,401.0625 Q414.6782,399.9844 414.6782,398.7031 L414.6782,397.5469 Q414.6782,396.2188 415.2875,395.0781 Q415.9125,393.9219 417.0063,393.3125 Q418.1,392.6875 419.3344,392.6875 Q420.0688,392.6875 420.7094,392.8594 Q421.3657,393.0156 421.9125,393.375 Z "
                  fill="#000000"/>
            <text fill="#000000" font-family="sans-serif" font-size="14" lengthAdjust="spacing" textLength="105.0684"
                  x="438.8462" y="403.2969">RealEstateAgent
            </text>
            <line style="stroke:#181818;stroke-width:0.5;" x1="379.5" x2="571.5615" y1="413.5" y2="413.5"/>
            <ellipse cx="389.5" cy="428.3105" fill="none" rx="3" ry="3" style="stroke:#038048;stroke-width:1.0;"/>
            <text fill="#000000" font-family="sans-serif" font-size="14" lengthAdjust="spacing" textLength="83.2617"
                  x="398.5" y="432.6074">name : String
            </text>
            <ellipse cx="389.5" cy="446.9316" fill="none" rx="3" ry="3" style="stroke:#038048;stroke-width:1.0;"/>
            <text fill="#000000" font-family="sans-serif" font-size="14" lengthAdjust="spacing" textLength="168.0615"
                  x="398.5" y="451.2285">citizenCardNumber : String
            </text>
            <ellipse cx="389.5" cy="465.5527" fill="none" rx="3" ry="3" style="stroke:#038048;stroke-width:1.0;"/>
            <text fill="#000000" font-family="sans-serif" font-size="14" lengthAdjust="spacing" textLength="81.6963"
                  x="398.5" y="469.8496">email : String
            </text>
            <ellipse cx="389.5" cy="484.1738" fill="none" rx="3" ry="3" style="stroke:#038048;stroke-width:1.0;"/>
            <text fill="#000000" font-family="sans-serif" font-size="14" lengthAdjust="spacing" textLength="136.9648"
                  x="398.5" y="488.4707">phoneNumber : String
            </text>
            <line style="stroke:#181818;stroke-width:0.5;" x1="379.5" x2="571.5615" y1="495.9844" y2="495.9844"/>
        </g><!--class Listing-->
        <g id="elem_Listing">
            <rect fill="#F1F1F1" height="103.8633" id="Listing" rx="2.5" ry="2.5"
                  style="stroke:#181818;stroke-width:0.5;" width="160.6201" x="356" y="775"/>
            <ellipse cx="411.8257" cy="791" fill="#ADD1B2" rx="11" ry="11" style="stroke:#181818;stroke-width:1.0;"/>
            <path d="M414.5913,786.875 Q414.7476,786.6563 414.9351,786.5469 Q415.1226,786.4375 415.3413,786.4375 Q415.7163,786.4375 415.9507,786.7031 Q416.1851,786.9531 416.1851,787.5625 L416.1851,789.0156 Q416.1851,789.625 415.9507,789.8906 Q415.7163,790.1563 415.3413,790.1563 Q414.9976,790.1563 414.7944,789.9531 Q414.5913,789.7656 414.4819,789.25 Q414.4351,788.8906 414.2476,788.7031 Q413.9194,788.3281 413.3101,788.1094 Q412.7007,787.8906 412.0757,787.8906 Q411.3101,787.8906 410.6694,788.2188 Q410.0444,788.5469 409.5444,789.2969 Q409.0601,790.0469 409.0601,791.0781 L409.0601,792.1719 Q409.0601,793.4063 409.9507,794.2344 Q410.8413,795.0469 412.4351,795.0469 Q413.3726,795.0469 414.0288,794.7969 Q414.4194,794.6406 414.8413,794.2031 Q415.1069,793.9375 415.2476,793.8594 Q415.4038,793.7813 415.6069,793.7813 Q415.9351,793.7813 416.1851,794.0469 Q416.4507,794.2969 416.4507,794.6406 Q416.4507,794.9844 416.1069,795.3906 Q415.6069,795.9688 414.8101,796.2969 Q413.7319,796.75 412.4351,796.75 Q410.9194,796.75 409.7163,796.125 Q408.7319,795.625 408.0444,794.5625 Q407.3569,793.4844 407.3569,792.2031 L407.3569,791.0469 Q407.3569,789.7188 407.9663,788.5781 Q408.5913,787.4219 409.6851,786.8125 Q410.7788,786.1875 412.0132,786.1875 Q412.7476,786.1875 413.3882,786.3594 Q414.0444,786.5156 414.5913,786.875 Z "
                  fill="#000000"/>
            <text fill="#000000" font-family="sans-serif" font-size="14" lengthAdjust="spacing" textLength="40.4688"
                  x="432.3257" y="796.7969">Listing
            </text>
            <line style="stroke:#181818;stroke-width:0.5;" x1="357" x2="515.6201" y1="807" y2="807"/>
            <ellipse cx="367" cy="821.8105" fill="none" rx="3" ry="3" style="stroke:#038048;stroke-width:1.0;"/>
            <text fill="#000000" font-family="sans-serif" font-size="14" lengthAdjust="spacing" textLength="115.1787"
                  x="376" y="826.1074">publishDate : Date
            </text>
            <ellipse cx="367" cy="840.4316" fill="none" rx="3" ry="3" style="stroke:#038048;stroke-width:1.0;"/>
            <text fill="#000000" font-family="sans-serif" font-size="14" lengthAdjust="spacing" textLength="134.6201"
                  x="376" y="844.7285">businessType : String
            </text>
            <ellipse cx="367" cy="859.0527" fill="none" rx="3" ry="3" style="stroke:#038048;stroke-width:1.0;"/>
            <text fill="#000000" font-family="sans-serif" font-size="14" lengthAdjust="spacing" textLength="116.6963"
                  x="376" y="863.3496">commission : Float
            </text>
            <line style="stroke:#181818;stroke-width:0.5;" x1="357" x2="515.6201" y1="870.8633" y2="870.8633"/>
        </g><!--class Visit-->
        <g id="elem_Visit">
            <rect fill="#F1F1F1" height="85.2422" id="Visit" rx="2.5" ry="2.5"
                  style="stroke:#181818;stroke-width:0.5;" width="171.4756" x="7" y="601.5"/>
            <ellipse cx="75.2637" cy="617.5" fill="#ADD1B2" rx="11" ry="11" style="stroke:#181818;stroke-width:1.0;"/>
            <path d="M78.0293,613.375 Q78.1855,613.1563 78.373,613.0469 Q78.5605,612.9375 78.7793,612.9375 Q79.1543,612.9375 79.3887,613.2031 Q79.623,613.4531 79.623,614.0625 L79.623,615.5156 Q79.623,616.125 79.3887,616.3906 Q79.1543,616.6563 78.7793,616.6563 Q78.4355,616.6563 78.2324,616.4531 Q78.0293,616.2656 77.9199,615.75 Q77.873,615.3906 77.6855,615.2031 Q77.3574,614.8281 76.748,614.6094 Q76.1387,614.3906 75.5137,614.3906 Q74.748,614.3906 74.1074,614.7188 Q73.4824,615.0469 72.9824,615.7969 Q72.498,616.5469 72.498,617.5781 L72.498,618.6719 Q72.498,619.9063 73.3887,620.7344 Q74.2793,621.5469 75.873,621.5469 Q76.8105,621.5469 77.4668,621.2969 Q77.8574,621.1406 78.2793,620.7031 Q78.5449,620.4375 78.6855,620.3594 Q78.8418,620.2813 79.0449,620.2813 Q79.373,620.2813 79.623,620.5469 Q79.8887,620.7969 79.8887,621.1406 Q79.8887,621.4844 79.5449,621.8906 Q79.0449,622.4688 78.248,622.7969 Q77.1699,623.25 75.873,623.25 Q74.3574,623.25 73.1543,622.625 Q72.1699,622.125 71.4824,621.0625 Q70.7949,619.9844 70.7949,618.7031 L70.7949,617.5469 Q70.7949,616.2188 71.4043,615.0781 Q72.0293,613.9219 73.123,613.3125 Q74.2168,612.6875 75.4512,612.6875 Q76.1855,612.6875 76.8262,612.8594 Q77.4824,613.0156 78.0293,613.375 Z "
                  fill="#000000"/>
            <text fill="#000000" font-family="sans-serif" font-size="14" lengthAdjust="spacing" textLength="26.4482"
                  x="95.7637" y="623.2969">Visit
            </text>
            <line style="stroke:#181818;stroke-width:0.5;" x1="8" x2="177.4756" y1="633.5" y2="633.5"/>
            <ellipse cx="18" cy="648.3105" fill="none" rx="3" ry="3" style="stroke:#038048;stroke-width:1.0;"/>
            <text fill="#000000" font-family="sans-serif" font-size="14" lengthAdjust="spacing" textLength="142.3994"
                  x="27" y="652.6074">preferredDates : Date[]
            </text>
            <ellipse cx="18" cy="666.9316" fill="none" rx="3" ry="3" style="stroke:#038048;stroke-width:1.0;"/>
            <text fill="#000000" font-family="sans-serif" font-size="14" lengthAdjust="spacing" textLength="145.4756"
                  x="27" y="671.2285">preferredTimes : Time[]
            </text>
            <line style="stroke:#181818;stroke-width:0.5;" x1="8" x2="177.4756" y1="678.7422" y2="678.7422"/>
        </g><!--class Branch-->
        <g id="elem_Branch">
            <rect fill="#F1F1F1" height="122.4844" id="Branch" rx="2.5" ry="2.5"
                  style="stroke:#181818;stroke-width:0.5;" width="161.4131" x="510" y="171"/>
            <ellipse cx="564.2773" cy="187" fill="#ADD1B2" rx="11" ry="11" style="stroke:#181818;stroke-width:1.0;"/>
            <path d="M567.043,182.875 Q567.1992,182.6563 567.3867,182.5469 Q567.5742,182.4375 567.793,182.4375 Q568.168,182.4375 568.4023,182.7031 Q568.6367,182.9531 568.6367,183.5625 L568.6367,185.0156 Q568.6367,185.625 568.4023,185.8906 Q568.168,186.1563 567.793,186.1563 Q567.4492,186.1563 567.2461,185.9531 Q567.043,185.7656 566.9336,185.25 Q566.8867,184.8906 566.6992,184.7031 Q566.3711,184.3281 565.7617,184.1094 Q565.1523,183.8906 564.5273,183.8906 Q563.7617,183.8906 563.1211,184.2188 Q562.4961,184.5469 561.9961,185.2969 Q561.5117,186.0469 561.5117,187.0781 L561.5117,188.1719 Q561.5117,189.4063 562.4023,190.2344 Q563.293,191.0469 564.8867,191.0469 Q565.8242,191.0469 566.4805,190.7969 Q566.8711,190.6406 567.293,190.2031 Q567.5586,189.9375 567.6992,189.8594 Q567.8555,189.7813 568.0586,189.7813 Q568.3867,189.7813 568.6367,190.0469 Q568.9023,190.2969 568.9023,190.6406 Q568.9023,190.9844 568.5586,191.3906 Q568.0586,191.9688 567.2617,192.2969 Q566.1836,192.75 564.8867,192.75 Q563.3711,192.75 562.168,192.125 Q561.1836,191.625 560.4961,190.5625 Q559.8086,189.4844 559.8086,188.2031 L559.8086,187.0469 Q559.8086,185.7188 560.418,184.5781 Q561.043,183.4219 562.1367,182.8125 Q563.2305,182.1875 564.4648,182.1875 Q565.1992,182.1875 565.8398,182.3594 Q566.4961,182.5156 567.043,182.875 Z "
                  fill="#000000"/>
            <text fill="#000000" font-family="sans-serif" font-size="14" lengthAdjust="spacing" textLength="44.3584"
                  x="584.7773" y="192.7969">Branch
            </text>
            <line style="stroke:#181818;stroke-width:0.5;" x1="511" x2="670.4131" y1="203" y2="203"/>
            <ellipse cx="521" cy="217.8105" fill="none" rx="3" ry="3" style="stroke:#038048;stroke-width:1.0;"/>
            <text fill="#000000" font-family="sans-serif" font-size="14" lengthAdjust="spacing" textLength="78.5996"
                  x="530" y="222.1074">code : String
            </text>
            <ellipse cx="521" cy="236.4316" fill="none" rx="3" ry="3" style="stroke:#038048;stroke-width:1.0;"/>
            <text fill="#000000" font-family="sans-serif" font-size="14" lengthAdjust="spacing" textLength="83.2617"
                  x="530" y="240.7285">name : String
            </text>
            <ellipse cx="521" cy="255.0527" fill="none" rx="3" ry="3" style="stroke:#038048;stroke-width:1.0;"/>
            <text fill="#000000" font-family="sans-serif" font-size="14" lengthAdjust="spacing" textLength="98.0479"
                  x="530" y="259.3496">address : String
            </text>
            <ellipse cx="521" cy="273.6738" fill="none" rx="3" ry="3" style="stroke:#038048;stroke-width:1.0;"/>
            <text fill="#000000" font-family="sans-serif" font-size="14" lengthAdjust="spacing" textLength="135.4131"
                  x="530" y="277.9707">openingHours : String
            </text>
            <line style="stroke:#181818;stroke-width:0.5;" x1="511" x2="670.4131" y1="285.4844" y2="285.4844"/>
        </g><!--class Company-->
        <g id="elem_Company">
            <rect fill="#F1F1F1" height="85.2422" id="Company" rx="2.5" ry="2.5"
                  style="stroke:#181818;stroke-width:0.5;" width="193.2891" x="494" y="7"/>
            <ellipse cx="556.436" cy="23" fill="#ADD1B2" rx="11" ry="11" style="stroke:#181818;stroke-width:1.0;"/>
            <path d="M559.2017,18.875 Q559.3579,18.6563 559.5454,18.5469 Q559.7329,18.4375 559.9517,18.4375 Q560.3267,18.4375 560.561,18.7031 Q560.7954,18.9531 560.7954,19.5625 L560.7954,21.0156 Q560.7954,21.625 560.561,21.8906 Q560.3267,22.1563 559.9517,22.1563 Q559.6079,22.1563 559.4048,21.9531 Q559.2017,21.7656 559.0923,21.25 Q559.0454,20.8906 558.8579,20.7031 Q558.5298,20.3281 557.9204,20.1094 Q557.311,19.8906 556.686,19.8906 Q555.9204,19.8906 555.2798,20.2188 Q554.6548,20.5469 554.1548,21.2969 Q553.6704,22.0469 553.6704,23.0781 L553.6704,24.1719 Q553.6704,25.4063 554.561,26.2344 Q555.4517,27.0469 557.0454,27.0469 Q557.9829,27.0469 558.6392,26.7969 Q559.0298,26.6406 559.4517,26.2031 Q559.7173,25.9375 559.8579,25.8594 Q560.0142,25.7813 560.2173,25.7813 Q560.5454,25.7813 560.7954,26.0469 Q561.061,26.2969 561.061,26.6406 Q561.061,26.9844 560.7173,27.3906 Q560.2173,27.9688 559.4204,28.2969 Q558.3423,28.75 557.0454,28.75 Q555.5298,28.75 554.3267,28.125 Q553.3423,27.625 552.6548,26.5625 Q551.9673,25.4844 551.9673,24.2031 L551.9673,23.0469 Q551.9673,21.7188 552.5767,20.5781 Q553.2017,19.4219 554.2954,18.8125 Q555.3892,18.1875 556.6235,18.1875 Q557.3579,18.1875 557.9985,18.3594 Q558.6548,18.5156 559.2017,18.875 Z "
                  fill="#000000"/>
            <text fill="#000000" font-family="sans-serif" font-size="14" lengthAdjust="spacing" textLength="59.917"
                  x="576.936" y="28.7969">Company
            </text>
            <line style="stroke:#181818;stroke-width:0.5;" x1="495" x2="686.2891" y1="39" y2="39"/>
            <ellipse cx="505" cy="53.8105" fill="none" rx="3" ry="3" style="stroke:#038048;stroke-width:1.0;"/>
            <text fill="#000000" font-family="sans-serif" font-size="14" lengthAdjust="spacing" textLength="83.2617"
                  x="514" y="58.1074">name : String
            </text>
            <ellipse cx="505" cy="72.4316" fill="none" rx="3" ry="3" style="stroke:#038048;stroke-width:1.0;"/>
            <text fill="#000000" font-family="sans-serif" font-size="14" lengthAdjust="spacing" textLength="167.2891"
                  x="514" y="76.7285">registrationNumber : String
            </text>
            <line style="stroke:#181818;stroke-width:0.5;" x1="495" x2="686.2891" y1="84.2422" y2="84.2422"/>
        </g><!--class Employee-->
        <g id="elem_Employee">
            <rect fill="#F1F1F1" height="141.1055" id="Employee" rx="2.5" ry="2.5"
                  style="stroke:#181818;stroke-width:0.5;" width="194.0615" x="607.5" y="372"/>
            <ellipse cx="669.1533" cy="388" fill="#ADD1B2" rx="11" ry="11" style="stroke:#181818;stroke-width:1.0;"/>
            <path d="M671.9189,383.875 Q672.0752,383.6563 672.2627,383.5469 Q672.4502,383.4375 672.6689,383.4375 Q673.0439,383.4375 673.2783,383.7031 Q673.5127,383.9531 673.5127,384.5625 L673.5127,386.0156 Q673.5127,386.625 673.2783,386.8906 Q673.0439,387.1563 672.6689,387.1563 Q672.3252,387.1563 672.1221,386.9531 Q671.9189,386.7656 671.8096,386.25 Q671.7627,385.8906 671.5752,385.7031 Q671.2471,385.3281 670.6377,385.1094 Q670.0283,384.8906 669.4033,384.8906 Q668.6377,384.8906 667.9971,385.2188 Q667.3721,385.5469 666.8721,386.2969 Q666.3877,387.0469 666.3877,388.0781 L666.3877,389.1719 Q666.3877,390.4063 667.2783,391.2344 Q668.1689,392.0469 669.7627,392.0469 Q670.7002,392.0469 671.3564,391.7969 Q671.7471,391.6406 672.1689,391.2031 Q672.4346,390.9375 672.5752,390.8594 Q672.7314,390.7813 672.9346,390.7813 Q673.2627,390.7813 673.5127,391.0469 Q673.7783,391.2969 673.7783,391.6406 Q673.7783,391.9844 673.4346,392.3906 Q672.9346,392.9688 672.1377,393.2969 Q671.0596,393.75 669.7627,393.75 Q668.2471,393.75 667.0439,393.125 Q666.0596,392.625 665.3721,391.5625 Q664.6846,390.4844 664.6846,389.2031 L664.6846,388.0469 Q664.6846,386.7188 665.2939,385.5781 Q665.9189,384.4219 667.0127,383.8125 Q668.1064,383.1875 669.3408,383.1875 Q670.0752,383.1875 670.7158,383.3594 Q671.3721,383.5156 671.9189,383.875 Z "
                  fill="#000000"/>
            <text fill="#000000" font-family="sans-serif" font-size="14" lengthAdjust="spacing" textLength="62.2549"
                  x="689.6533" y="393.7969">Employee
            </text>
            <line style="stroke:#181818;stroke-width:0.5;" x1="608.5" x2="800.5615" y1="404" y2="404"/>
            <ellipse cx="618.5" cy="418.8105" fill="none" rx="3" ry="3" style="stroke:#038048;stroke-width:1.0;"/>
            <text fill="#000000" font-family="sans-serif" font-size="14" lengthAdjust="spacing" textLength="83.2617"
                  x="627.5" y="423.1074">name : String
            </text>
            <ellipse cx="618.5" cy="437.4316" fill="none" rx="3" ry="3" style="stroke:#038048;stroke-width:1.0;"/>
            <text fill="#000000" font-family="sans-serif" font-size="14" lengthAdjust="spacing" textLength="168.0615"
                  x="627.5" y="441.7285">citizenCardNumber : String
            </text>
            <ellipse cx="618.5" cy="456.0527" fill="none" rx="3" ry="3" style="stroke:#038048;stroke-width:1.0;"/>
            <text fill="#000000" font-family="sans-serif" font-size="14" lengthAdjust="spacing" textLength="81.6963"
                  x="627.5" y="460.3496">email : String
            </text>
            <ellipse cx="618.5" cy="474.6738" fill="none" rx="3" ry="3" style="stroke:#038048;stroke-width:1.0;"/>
            <text fill="#000000" font-family="sans-serif" font-size="14" lengthAdjust="spacing" textLength="136.9648"
                  x="627.5" y="478.9707">phoneNumber : String
            </text>
            <ellipse cx="618.5" cy="493.2949" fill="none" rx="3" ry="3" style="stroke:#038048;stroke-width:1.0;"/>
            <text fill="#000000" font-family="sans-serif" font-size="14" lengthAdjust="spacing" textLength="71.5859"
                  x="627.5" y="497.5918">role : String
            </text>
            <line style="stroke:#181818;stroke-width:0.5;" x1="608.5" x2="800.5615" y1="505.1055" y2="505.1055"/>
        </g><!--class Sale-->
        <g id="elem_Sale">
            <rect fill="#F1F1F1" height="103.8633" id="Sale" rx="2.5" ry="2.5"
                  style="stroke:#181818;stroke-width:0.5;" width="250.9229" x="213" y="592"/>
            <ellipse cx="320.2012" cy="608" fill="#ADD1B2" rx="11" ry="11" style="stroke:#181818;stroke-width:1.0;"/>
            <path d="M322.9668,603.875 Q323.123,603.6563 323.3105,603.5469 Q323.498,603.4375 323.7168,603.4375 Q324.0918,603.4375 324.3262,603.7031 Q324.5605,603.9531 324.5605,604.5625 L324.5605,606.0156 Q324.5605,606.625 324.3262,606.8906 Q324.0918,607.1563 323.7168,607.1563 Q323.373,607.1563 323.1699,606.9531 Q322.9668,606.7656 322.8574,606.25 Q322.8105,605.8906 322.623,605.7031 Q322.2949,605.3281 321.6855,605.1094 Q321.0762,604.8906 320.4512,604.8906 Q319.6855,604.8906 319.0449,605.2188 Q318.4199,605.5469 317.9199,606.2969 Q317.4355,607.0469 317.4355,608.0781 L317.4355,609.1719 Q317.4355,610.4063 318.3262,611.2344 Q319.2168,612.0469 320.8105,612.0469 Q321.748,612.0469 322.4043,611.7969 Q322.7949,611.6406 323.2168,611.2031 Q323.4824,610.9375 323.623,610.8594 Q323.7793,610.7813 323.9824,610.7813 Q324.3105,610.7813 324.5605,611.0469 Q324.8262,611.2969 324.8262,611.6406 Q324.8262,611.9844 324.4824,612.3906 Q323.9824,612.9688 323.1855,613.2969 Q322.1074,613.75 320.8105,613.75 Q319.2949,613.75 318.0918,613.125 Q317.1074,612.625 316.4199,611.5625 Q315.7324,610.4844 315.7324,609.2031 L315.7324,608.0469 Q315.7324,606.7188 316.3418,605.5781 Q316.9668,604.4219 318.0605,603.8125 Q319.1543,603.1875 320.3887,603.1875 Q321.123,603.1875 321.7637,603.3594 Q322.4199,603.5156 322.9668,603.875 Z "
                  fill="#000000"/>
            <text fill="#000000" font-family="sans-serif" font-size="14" lengthAdjust="spacing" textLength="28.0205"
                  x="340.7012" y="613.7969">Sale
            </text>
            <line style="stroke:#181818;stroke-width:0.5;" x1="214" x2="462.9229" y1="624" y2="624"/>
            <ellipse cx="224" cy="638.8105" fill="none" rx="3" ry="3" style="stroke:#038048;stroke-width:1.0;"/>
            <text fill="#000000" font-family="sans-serif" font-size="14" lengthAdjust="spacing" textLength="104.2822"
                  x="233" y="643.1074">saleValue : Float
            </text>
            <ellipse cx="224" cy="657.4316" fill="none" rx="3" ry="3" style="stroke:#038048;stroke-width:1.0;"/>
            <text fill="#000000" font-family="sans-serif" font-size="14" lengthAdjust="spacing" textLength="224.9229"
                  x="233" y="661.7285">responsibleAgent : RealEstateAgent
            </text>
            <ellipse cx="224" cy="676.0527" fill="none" rx="3" ry="3" style="stroke:#038048;stroke-width:1.0;"/>
            <text fill="#000000" font-family="sans-serif" font-size="14" lengthAdjust="spacing" textLength="118.2754"
                  x="233" y="680.3496">buyerClient : Client
            </text>
            <line style="stroke:#181818;stroke-width:0.5;" x1="214" x2="462.9229" y1="687.8633" y2="687.8633"/>
        </g><!--link Client to Visit-->
        <g id="link_Client_Visit">
            <path d="M187.44,513.28 C165.89,542.71 145.0838,571.1484 126.4338,596.6284 " fill="none"
                  id="Client-to-Visit" style="stroke:#181818;stroke-width:1.0;"/>
            <polygon fill="#181818"
                     points="122.89,601.47,131.4335,596.5701,125.8432,597.4353,124.978,591.845,122.89,601.47"
                     style="stroke:#181818;stroke-width:1.0;"/>
            <text fill="#000000" font-family="sans-serif" font-size="13" lengthAdjust="spacing" textLength="58.5381"
                  x="166.5" y="558.0283">schedules
            </text>
            <text fill="#000000" font-family="sans-serif" font-size="13" lengthAdjust="spacing" textLength="7.23"
                  x="175.0775" y="535.1216">1
            </text>
            <text fill="#000000" font-family="sans-serif" font-size="13" lengthAdjust="spacing" textLength="19.5127"
                  x="107.2223" y="590.3693">0..*
            </text>
        </g><!--link Owner to Property-->
        <g id="link_Owner_Property">
            <path d="M609.28,879.13 C598.06,902.81 587.0384,926.0775 574.5384,952.4675 " fill="none"
                  id="Owner-to-Property" style="stroke:#181818;stroke-width:1.0;"/>
            <polygon fill="#181818"
                     points="571.97,957.89,579.4376,951.4686,574.1104,953.3713,572.2077,948.044,571.97,957.89"
                     style="stroke:#181818;stroke-width:1.0;"/>
            <text fill="#000000" font-family="sans-serif" font-size="13" lengthAdjust="spacing" textLength="30.3481"
                  x="594.5" y="924.0283">owns
            </text>
            <text fill="#000000" font-family="sans-serif" font-size="13" lengthAdjust="spacing" textLength="7.23"
                  x="598.7454" y="900.9539">1
            </text>
            <text fill="#000000" font-family="sans-serif" font-size="13" lengthAdjust="spacing" textLength="19.5127"
                  x="555.5845" y="946.7756">0..*
            </text>
        </g><!--reverse link Property to House-->
        <g id="link_Property_House">
            <path d="M446.8029,1131.1408 C428.2029,1150.6908 420.56,1158.72 401.56,1178.68 " fill="none"
                  id="Property-backto-House" style="stroke:#181818;stroke-width:1.0;"/>
            <polygon fill="none" points="459.21,1118.1,442.4559,1127.0051,451.1498,1135.2765,459.21,1118.1"
                     style="stroke:#181818;stroke-width:1.0;"/>
        </g><!--reverse link Property to Apartment-->
        <g id="link_Property_Apartment">
            <path d="M534.5,1136.1 C534.5,1161.83 534.5,1172.17 534.5,1197.17 " fill="none"
                  id="Property-backto-Apartment" style="stroke:#181818;stroke-width:1.0;"/>
            <polygon fill="none" points="534.5,1118.1,528.5,1136.1,540.5,1136.1,534.5,1118.1"
                     style="stroke:#181818;stroke-width:1.0;"/>
        </g><!--reverse link Property to Land-->
        <g id="link_Property_Land">
            <path
                  d="M609.6739,1132.5609 C624.5839,1152.0309 629.07,1158.81 642.5,1179 C656.61,1200.22 670.78,1225.63 680.41,1243.68 "
                  fill="none" id="Property-backto-Land" style="stroke:#181818;stroke-width:1.0;"/>
            <polygon fill="none" points="598.73,1118.27,604.9103,1136.2089,614.4376,1128.913,598.73,1118.27"
                     style="stroke:#181818;stroke-width:1.0;"/>
        </g><!--link RealEstateAgent to Listing-->
        <g id="link_RealEstateAgent_Listing">
            <path
                  d="M483.29,503.65 C488.45,555.09 492.45,630.92 481.5,696 C477,722.73 469.7969,745.7072 460.7769,769.2472 "
                  fill="none" id="RealEstateAgent-to-Listing" style="stroke:#181818;stroke-width:1.0;"/>
            <polygon fill="#181818"
                     points="458.63,774.85,465.5855,767.8771,460.419,770.181,458.1151,765.0146,458.63,774.85"
                     style="stroke:#181818;stroke-width:1.0;"/>
            <text fill="#000000" font-family="sans-serif" font-size="13" lengthAdjust="spacing" textLength="53.479"
                  x="489.5" y="649.5283">manages
            </text>
            <text fill="#000000" font-family="sans-serif" font-size="13" lengthAdjust="spacing" textLength="7.23"
                  x="476.8231" y="526.1551">1
            </text>
            <text fill="#000000" font-family="sans-serif" font-size="13" lengthAdjust="spacing" textLength="19.5127"
                  x="441.3871" y="763.7572">0..*
            </text>
        </g><!--link Listing to Property-->
        <g id="link_Listing_Property">
            <path d="M460.47,879.13 C471.58,902.81 482.4834,926.0672 494.8534,952.4572 " fill="none"
                  id="Listing-to-Property" style="stroke:#181818;stroke-width:1.0;"/>
            <polygon fill="#181818"
                     points="497.4,957.89,497.202,948.0431,495.2779,953.3627,489.9583,951.4385,497.4,957.89"
                     style="stroke:#181818;stroke-width:1.0;"/>
            <text fill="#000000" font-family="sans-serif" font-size="13" lengthAdjust="spacing" textLength="59.249"
                  x="484.5" y="924.0283">advertises
            </text>
            <text fill="#000000" font-family="sans-serif" font-size="13" lengthAdjust="spacing" textLength="7.23"
                  x="456.1318" y="900.9539">1
            </text>
            <text fill="#000000" font-family="sans-serif" font-size="13" lengthAdjust="spacing" textLength="7.23"
                  x="486.6802" y="946.7756">1
            </text>
        </g><!--link Branch to RealEstateAgent-->
        <g id="link_Branch_RealEstateAgent">
            <path d="M557.39,293.03 C542.13,320.7 526.9481,348.2163 511.6681,375.9163 " fill="none"
                  id="Branch-to-RealEstateAgent" style="stroke:#181818;stroke-width:1.0;"/>
            <polygon fill="#181818"
                     points="508.77,381.17,516.6196,375.2215,511.1851,376.7919,509.6146,371.3574,508.77,381.17"
                     style="stroke:#181818;stroke-width:1.0;"/>
            <text fill="#000000" font-family="sans-serif" font-size="13" lengthAdjust="spacing" textLength="48.4072"
                  x="541.5" y="338.0283">employs
            </text>
            <text fill="#000000" font-family="sans-serif" font-size="13" lengthAdjust="spacing" textLength="7.23"
                  x="545.917" y="315.5205">1
            </text>
            <text fill="#000000" font-family="sans-serif" font-size="13" lengthAdjust="spacing" textLength="19.5127"
                  x="492.5445" y="370.113">0..*
            </text>
        </g><!--link Company to Branch-->
        <g id="link_Company_Branch">
            <path d="M590.5,92.36 C590.5,115.69 590.5,139.14 590.5,164.9 " fill="none"
                  id="Company-to-Branch" style="stroke:#181818;stroke-width:1.0;"/>
            <polygon fill="#181818" points="590.5,170.9,594.5,161.9,590.5,165.9,586.5,161.9,590.5,170.9"
                     style="stroke:#181818;stroke-width:1.0;"/>
            <text fill="#000000" font-family="sans-serif" font-size="13" lengthAdjust="spacing" textLength="30.3481"
                  x="591.5" y="137.0283">owns
            </text>
            <text fill="#000000" font-family="sans-serif" font-size="13" lengthAdjust="spacing" textLength="7.23"
                  x="582.9595" y="114.2566">1
            </text>
            <text fill="#000000" font-family="sans-serif" font-size="13" lengthAdjust="spacing" textLength="19.5127"
                  x="570.4073" y="159.8696">0..*
            </text>
        </g><!--link Branch to Employee-->
        <g id="link_Branch_Employee">
            <path d="M623.32,293.03 C636.8,317.69 649.6317,341.1355 663.6117,366.7055 " fill="none"
                  id="Branch-to-Employee" style="stroke:#181818;stroke-width:1.0;"/>
            <polygon fill="#181818"
                     points="666.49,371.97,665.6822,362.1543,664.0914,367.5829,658.6629,365.9921,666.49,371.97"
                     style="stroke:#181818;stroke-width:1.0;"/>
            <text fill="#000000" font-family="sans-serif" font-size="13" lengthAdjust="spacing" textLength="48.4072"
                  x="648.5" y="338.0283">employs
            </text>
            <text fill="#000000" font-family="sans-serif" font-size="13" lengthAdjust="spacing" textLength="7.23"
                  x="619.8822" y="315.5205">1
            </text>
            <text fill="#000000" font-family="sans-serif" font-size="13" lengthAdjust="spacing" textLength="19.5127"
                  x="642.6138" y="360.8579">0..*
            </text>
        </g><!--link Client to Sale-->
        <g id="link_Client_Sale">
            <path d="M273.48,513.28 C286.43,539.12 298.1822,562.5557 310.1522,586.4457 " fill="none"
                  id="Client-to-Sale" style="stroke:#181818;stroke-width:1.0;"/>
            <polygon fill="#181818"
                     points="312.84,591.81,312.3846,581.9717,310.6002,587.3397,305.2321,585.5554,312.84,591.81"
                     style="stroke:#181818;stroke-width:1.0;"/>
            <text fill="#000000" font-family="sans-serif" font-size="13" lengthAdjust="spacing" textLength="27.46"
                  x="298.5" y="558.0283">buys
            </text>
            <text fill="#000000" font-family="sans-serif" font-size="13" lengthAdjust="spacing" textLength="7.23"
                  x="269.5871" y="535.1216">1
            </text>
            <text fill="#000000" font-family="sans-serif" font-size="13" lengthAdjust="spacing" textLength="19.5127"
                  x="289.155" y="580.7118">0..*
            </text>
        </g><!--link Sale to Listing-->
        <g id="link_Sale_Listing">
            <path d="M366.32,696.38 C379.62,720.94 392.6327,744.984 405.9227,769.524 " fill="none"
                  id="Sale-to-Listing" style="stroke:#181818;stroke-width:1.0;"/>
            <polygon fill="#181818"
                     points="408.78,774.8,408.0114,764.9812,406.3989,770.4034,400.9768,768.7909,408.78,774.8"
                     style="stroke:#181818;stroke-width:1.0;"/>
            <text fill="#000000" font-family="sans-serif" font-size="13" lengthAdjust="spacing" textLength="62.8672"
                  x="391.5" y="741.0283">isLinkedTo
            </text>
            <text fill="#000000" font-family="sans-serif" font-size="13" lengthAdjust="spacing" textLength="7.23"
                  x="362.3027" y="717.8541">1
            </text>
            <text fill="#000000" font-family="sans-serif" font-size="13" lengthAdjust="spacing" textLength="7.23"
                  x="397.6258" y="763.7005">1
            </text>
        </g><!--link RealEstateAgent to Sale-->
        <g id="link_RealEstateAgent_Sale">
            <path d="M434.21,503.63 C414.91,531.74 395.5562,559.9137 377.0862,586.8137 " fill="none"
                  id="RealEstateAgent-to-Sale" style="stroke:#181818;stroke-width:1.0;"/>
            <polygon fill="#181818"
                     points="373.69,591.76,382.0818,586.6047,376.5202,587.6381,375.4868,582.0764,373.69,591.76"
                     style="stroke:#181818;stroke-width:1.0;"/>
            <text fill="#000000" font-family="sans-serif" font-size="13" lengthAdjust="spacing" textLength="45.5381"
                  x="408.5" y="558.0283">handles
            </text>
            <text fill="#000000" font-family="sans-serif" font-size="13" lengthAdjust="spacing" textLength="7.23"
                  x="421.7615" y="526.1327">1
            </text>
            <text fill="#000000" font-family="sans-serif" font-size="13" lengthAdjust="spacing" textLength="19.5127"
                  x="358.1817" y="580.6551">0..*
            </text>
        </g><!--SRC=[jLHDRzim3BtxLmWvRaYnNerXG9Acs81W7PQYbs47ncPYeVgQAA_rFlxxQ5jnOytPi04zMNwao4VoKOK28h5I4aqGtpCXNXhGA7An3LwQGmiKCiXlQ5RWo_Urtg4VMGCylfl2KODK8yHLrc3g-JFBYex21syT-j3q94BZnYJ08p1mhIo4zb_P0eAqPkHKIWfW2hpsLgzaQ5PSL9TikEQyB704L3PO6g9y-lp4wAsj2Niw5T0I27NRf5mihLK89XeM8SXYZ59jre_EKkt7HPYk-9lz4ajlhMxJIXD65WXLOdBWx_d-ra619p1-gQMBX7xdlk1RGGyptIjh_T3wDEUpizc0APd8y7_pO9Z8jDhEwUdFwlc8eDOy_82Bm_yg-LyLks6rCT3dSlLEIQgkc06xjfyMtTKa3HBTfd8khDQIg1TmByOXxfqa6Ijm7lVeFPPjG8g1kREdfbkfErFxFMtwqlCgL7sSmfQ94jFMG5bw9Zh2U24D7taFF4tKlxBQWMdEzDhZWVlZkoKzsyArTiesYCyvhvOBR-P4zYsec9duT0Ug7ZqDt0zd3ScTYgBAKvdr8sxGn_SpZmzfco92iykPcC_VYDchYuiNipZRN51HOLahfApVXSHjU0npOHyCPSF_wn_pUVym9TYmy0dUhbwMRaUIxIZaN6WmS61IHsHml1nnWl8hdoInPrHP4Z5Dc0li9atPKJJ9XHWcbZiTT13BIRJ99dTppGLFXhBkV5h6Kx6IDjBSymBPlpKe1goub-t8VW40]-->
    </g>
</svg>