<svg xmlns="http://www.w3.org/2000/svg" xmlns:xlink="http://www.w3.org/1999/xlink" contentStyleType="text/css" height="915.3px" preserveAspectRatio="none" style="width:459px;height:915px;background:#FFFFFF;" version="1.1" viewBox="0 0 459 915" width="459.9px" zoomAndPan="magnify"><defs/><g><!--class Client--><g id="elem_Client"><rect codeLine="2" fill="#F1F1F1" height="126.9949" id="Client" rx="2.25" ry="2.25" style="stroke:#181818;stroke-width:0.45;" width="131.2383" x="18.9" y="6.3"/><ellipse cx="64.5873" cy="20.7" fill="#ADD1B2" rx="9.9" ry="9.9" style="stroke:#181818;stroke-width:0.9;"/><path d="M67.0764,16.9875 Q67.217,16.7906 67.3857,16.6922 Q67.5545,16.5938 67.7514,16.5938 Q68.0889,16.5938 68.2998,16.8328 Q68.5107,17.0578 68.5107,17.6063 L68.5107,18.9141 Q68.5107,19.4625 68.2998,19.7016 Q68.0889,19.9406 67.7514,19.9406 Q67.442,19.9406 67.2592,19.7578 Q67.0764,19.5891 66.9779,19.125 Q66.9357,18.8016 66.767,18.6328 Q66.4717,18.2953 65.9232,18.0984 Q65.3748,17.9016 64.8123,17.9016 Q64.1232,17.9016 63.5467,18.1969 Q62.9842,18.4922 62.5342,19.1672 Q62.0982,19.8422 62.0982,20.7703 L62.0982,21.7547 Q62.0982,22.8656 62.8998,23.6109 Q63.7014,24.3422 65.1357,24.3422 Q65.9795,24.3422 66.5701,24.1172 Q66.9217,23.9766 67.3014,23.5828 Q67.5404,23.3438 67.667,23.2734 Q67.8076,23.2031 67.9904,23.2031 Q68.2857,23.2031 68.5107,23.4422 Q68.7498,23.6672 68.7498,23.9766 Q68.7498,24.2859 68.4404,24.6516 Q67.9904,25.1719 67.2732,25.4672 Q66.3029,25.875 65.1357,25.875 Q63.7717,25.875 62.6889,25.3125 Q61.8029,24.8625 61.1842,23.9063 Q60.5654,22.9359 60.5654,21.7828 L60.5654,20.7422 Q60.5654,19.5469 61.1139,18.5203 Q61.6764,17.4797 62.6607,16.9313 Q63.6451,16.3688 64.7561,16.3688 Q65.417,16.3688 65.9936,16.5234 Q66.5842,16.6641 67.0764,16.9875 Z " fill="#000000"/><text fill="#000000" font-family="sans-serif" font-size="12.6" lengthAdjust="spacing" textLength="32.2137" x="83.0373" y="25.9172">Client</text><line style="stroke:#181818;stroke-width:0.45;" x1="19.8" x2="149.2383" y1="35.1" y2="35.1"/><ellipse cx="28.8" cy="48.4295" fill="none" rx="2.7" ry="2.7" style="stroke:#038048;stroke-width:0.9;"/><text fill="#000000" font-family="sans-serif" font-size="12.6" lengthAdjust="spacing" textLength="31.5185" x="36.9" y="52.2967">name</text><ellipse cx="28.8" cy="65.1885" fill="none" rx="2.7" ry="2.7" style="stroke:#038048;stroke-width:0.9;"/><text fill="#000000" font-family="sans-serif" font-size="12.6" lengthAdjust="spacing" textLength="107.8383" x="36.9" y="69.0557">citizenCardNumber</text><ellipse cx="28.8" cy="81.9475" fill="none" rx="2.7" ry="2.7" style="stroke:#038048;stroke-width:0.9;"/><text fill="#000000" font-family="sans-serif" font-size="12.6" lengthAdjust="spacing" textLength="72.1301" x="36.9" y="85.8146">taxIdNumber</text><ellipse cx="28.8" cy="98.7064" fill="none" rx="2.7" ry="2.7" style="stroke:#038048;stroke-width:0.9;"/><text fill="#000000" font-family="sans-serif" font-size="12.6" lengthAdjust="spacing" textLength="30.1096" x="36.9" y="102.5736">email</text><ellipse cx="28.8" cy="115.4654" fill="none" rx="2.7" ry="2.7" style="stroke:#038048;stroke-width:0.9;"/><text fill="#000000" font-family="sans-serif" font-size="12.6" lengthAdjust="spacing" textLength="79.8513" x="36.9" y="119.3326">phoneNumber</text><line style="stroke:#181818;stroke-width:0.45;" x1="19.8" x2="149.2383" y1="126.0949" y2="126.0949"/></g><!--class Property--><g id="elem_Property"><rect codeLine="10" fill="#F1F1F1" height="143.7539" id="Property" rx="2.25" ry="2.25" style="stroke:#181818;stroke-width:0.45;" width="159.2438" x="215.55" y="549.9"/><ellipse cx="267.5373" cy="564.3" fill="#ADD1B2" rx="9.9" ry="9.9" style="stroke:#181818;stroke-width:0.9;"/><path d="M270.0264,560.5875 Q270.167,560.3906 270.3357,560.2922 Q270.5045,560.1938 270.7014,560.1938 Q271.0389,560.1938 271.2498,560.4328 Q271.4607,560.6578 271.4607,561.2063 L271.4607,562.5141 Q271.4607,563.0625 271.2498,563.3016 Q271.0389,563.5406 270.7014,563.5406 Q270.392,563.5406 270.2092,563.3578 Q270.0264,563.1891 269.9279,562.725 Q269.8857,562.4016 269.717,562.2328 Q269.4217,561.8953 268.8732,561.6984 Q268.3248,561.5016 267.7623,561.5016 Q267.0732,561.5016 266.4967,561.7969 Q265.9342,562.0922 265.4842,562.7672 Q265.0482,563.4422 265.0482,564.3703 L265.0482,565.3547 Q265.0482,566.4656 265.8498,567.2109 Q266.6514,567.9422 268.0857,567.9422 Q268.9295,567.9422 269.5201,567.7172 Q269.8717,567.5766 270.2514,567.1828 Q270.4904,566.9438 270.617,566.8734 Q270.7576,566.8031 270.9404,566.8031 Q271.2357,566.8031 271.4607,567.0422 Q271.6998,567.2672 271.6998,567.5766 Q271.6998,567.8859 271.3904,568.2516 Q270.9404,568.7719 270.2232,569.0672 Q269.2529,569.475 268.0857,569.475 Q266.7217,569.475 265.6389,568.9125 Q264.7529,568.4625 264.1342,567.5063 Q263.5154,566.5359 263.5154,565.3828 L263.5154,564.3422 Q263.5154,563.1469 264.0639,562.1203 Q264.6264,561.0797 265.6107,560.5313 Q266.5951,559.9688 267.7061,559.9688 Q268.367,559.9688 268.9436,560.1234 Q269.5342,560.2641 270.0264,560.5875 Z " fill="#000000"/><text fill="#000000" font-family="sans-serif" font-size="12.6" lengthAdjust="spacing" textLength="47.6191" x="285.9873" y="569.5172">Property</text><line style="stroke:#181818;stroke-width:0.45;" x1="216.45" x2="373.8938" y1="578.7" y2="578.7"/><ellipse cx="225.45" cy="592.0295" fill="none" rx="2.7" ry="2.7" style="stroke:#038048;stroke-width:0.9;"/><text fill="#000000" font-family="sans-serif" font-size="12.6" lengthAdjust="spacing" textLength="23.8157" x="233.55" y="595.8967">type</text><ellipse cx="225.45" cy="608.7885" fill="none" rx="2.7" ry="2.7" style="stroke:#038048;stroke-width:0.9;"/><text fill="#000000" font-family="sans-serif" font-size="12.6" lengthAdjust="spacing" textLength="25.2185" x="233.55" y="612.6557">area</text><ellipse cx="225.45" cy="625.5475" fill="none" rx="2.7" ry="2.7" style="stroke:#038048;stroke-width:0.9;"/><text fill="#000000" font-family="sans-serif" font-size="12.6" lengthAdjust="spacing" textLength="43.4294" x="233.55" y="629.4146">location</text><ellipse cx="225.45" cy="642.3064" fill="none" rx="2.7" ry="2.7" style="stroke:#038048;stroke-width:0.9;"/><text fill="#000000" font-family="sans-serif" font-size="12.6" lengthAdjust="spacing" textLength="135.8438" x="233.55" y="646.1736">distanceFromCityCenter</text><ellipse cx="225.45" cy="659.0654" fill="none" rx="2.7" ry="2.7" style="stroke:#038048;stroke-width:0.9;"/><text fill="#000000" font-family="sans-serif" font-size="12.6" lengthAdjust="spacing" textLength="27.3103" x="233.55" y="662.9326">price</text><ellipse cx="225.45" cy="675.8244" fill="none" rx="2.7" ry="2.7" style="stroke:#038048;stroke-width:0.9;"/><text fill="#000000" font-family="sans-serif" font-size="12.6" lengthAdjust="spacing" textLength="37.8308" x="233.55" y="679.6916">photos</text><line style="stroke:#181818;stroke-width:0.45;" x1="216.45" x2="373.8938" y1="686.4539" y2="686.4539"/></g><!--class House--><g id="elem_House"><rect codeLine="19" fill="#F1F1F1" height="160.5129" id="House" rx="2.25" ry="2.25" style="stroke:#181818;stroke-width:0.45;" width="140.3499" x="53.1" y="748.8"/><ellipse cx="101.239" cy="763.2" fill="#ADD1B2" rx="9.9" ry="9.9" style="stroke:#181818;stroke-width:0.9;"/><path d="M103.7281,759.4875 Q103.8687,759.2906 104.0375,759.1922 Q104.2062,759.0938 104.4031,759.0938 Q104.7406,759.0938 104.9515,759.3328 Q105.1625,759.5578 105.1625,760.1063 L105.1625,761.4141 Q105.1625,761.9625 104.9515,762.2016 Q104.7406,762.4406 104.4031,762.4406 Q104.0937,762.4406 103.9109,762.2578 Q103.7281,762.0891 103.6296,761.625 Q103.5875,761.3016 103.4187,761.1328 Q103.1234,760.7953 102.575,760.5984 Q102.0265,760.4016 101.464,760.4016 Q100.775,760.4016 100.1984,760.6969 Q99.6359,760.9922 99.1859,761.6672 Q98.75,762.3422 98.75,763.2703 L98.75,764.2547 Q98.75,765.3656 99.5515,766.1109 Q100.3531,766.8422 101.7875,766.8422 Q102.6312,766.8422 103.2218,766.6172 Q103.5734,766.4766 103.9531,766.0828 Q104.1921,765.8438 104.3187,765.7734 Q104.4593,765.7031 104.6421,765.7031 Q104.9375,765.7031 105.1625,765.9422 Q105.4015,766.1672 105.4015,766.4766 Q105.4015,766.7859 105.0921,767.1516 Q104.6421,767.6719 103.925,767.9672 Q102.9546,768.375 101.7875,768.375 Q100.4234,768.375 99.3406,767.8125 Q98.4546,767.3625 97.8359,766.4063 Q97.2171,765.4359 97.2171,764.2828 L97.2171,763.2422 Q97.2171,762.0469 97.7656,761.0203 Q98.3281,759.9797 99.3125,759.4313 Q100.2968,758.8688 101.4078,758.8688 Q102.0687,758.8688 102.6453,759.0234 Q103.2359,759.1641 103.7281,759.4875 Z " fill="#000000"/><text fill="#000000" font-family="sans-serif" font-size="12.6" lengthAdjust="spacing" textLength="36.4219" x="119.689" y="768.4172">House</text><line style="stroke:#181818;stroke-width:0.45;" x1="54" x2="192.5499" y1="777.6" y2="777.6"/><ellipse cx="63" cy="790.9295" fill="none" rx="2.7" ry="2.7" style="stroke:#038048;stroke-width:0.9;"/><text fill="#000000" font-family="sans-serif" font-size="12.6" lengthAdjust="spacing" textLength="77.0458" x="71.1" y="794.7967">hasBasement</text><ellipse cx="63" cy="807.6885" fill="none" rx="2.7" ry="2.7" style="stroke:#038048;stroke-width:0.9;"/><text fill="#000000" font-family="sans-serif" font-size="12.6" lengthAdjust="spacing" textLength="44.8198" x="71.1" y="811.5557">hasAttic</text><ellipse cx="63" cy="824.4475" fill="none" rx="2.7" ry="2.7" style="stroke:#038048;stroke-width:0.9;"/><text fill="#000000" font-family="sans-serif" font-size="12.6" lengthAdjust="spacing" textLength="73.5451" x="71.1" y="828.3146">sunExposure</text><ellipse cx="63" cy="841.2064" fill="none" rx="2.7" ry="2.7" style="stroke:#038048;stroke-width:0.9;"/><text fill="#000000" font-family="sans-serif" font-size="12.6" lengthAdjust="spacing" textLength="113.4492" x="71.1" y="845.0736">numberOfBedrooms</text><ellipse cx="63" cy="857.9654" fill="none" rx="2.7" ry="2.7" style="stroke:#038048;stroke-width:0.9;"/><text fill="#000000" font-family="sans-serif" font-size="12.6" lengthAdjust="spacing" textLength="116.9499" x="71.1" y="861.8326">numberOfBathrooms</text><ellipse cx="63" cy="874.7244" fill="none" rx="2.7" ry="2.7" style="stroke:#038048;stroke-width:0.9;"/><text fill="#000000" font-family="sans-serif" font-size="12.6" lengthAdjust="spacing" textLength="83.352" x="71.1" y="878.5916">parkingSpaces</text><ellipse cx="63" cy="891.4834" fill="none" rx="2.7" ry="2.7" style="stroke:#038048;stroke-width:0.9;"/><text fill="#000000" font-family="sans-serif" font-size="12.6" lengthAdjust="spacing" textLength="58.841" x="71.1" y="895.3506">equipment</text><line style="stroke:#181818;stroke-width:0.45;" x1="54" x2="192.5499" y1="902.1129" y2="902.1129"/></g><!--class Apartment--><g id="elem_Apartment"><rect codeLine="29" fill="#F1F1F1" height="126.9949" id="Apartment" rx="2.25" ry="2.25" style="stroke:#181818;stroke-width:0.45;" width="140.3499" x="225" y="765.45"/><ellipse cx="262.5402" cy="779.85" fill="#ADD1B2" rx="9.9" ry="9.9" style="stroke:#181818;stroke-width:0.9;"/><path d="M265.0292,776.1375 Q265.1698,775.9406 265.3386,775.8422 Q265.5073,775.7438 265.7042,775.7438 Q266.0417,775.7438 266.2527,775.9828 Q266.4636,776.2078 266.4636,776.7563 L266.4636,778.0641 Q266.4636,778.6125 266.2527,778.8516 Q266.0417,779.0906 265.7042,779.0906 Q265.3948,779.0906 265.212,778.9078 Q265.0292,778.7391 264.9308,778.275 Q264.8886,777.9516 264.7198,777.7828 Q264.4245,777.4453 263.8761,777.2484 Q263.3277,777.0516 262.7652,777.0516 Q262.0761,777.0516 261.4995,777.3469 Q260.937,777.6422 260.487,778.3172 Q260.0511,778.9922 260.0511,779.9203 L260.0511,780.9047 Q260.0511,782.0156 260.8527,782.7609 Q261.6542,783.4922 263.0886,783.4922 Q263.9323,783.4922 264.523,783.2672 Q264.8745,783.1266 265.2542,782.7328 Q265.4933,782.4938 265.6198,782.4234 Q265.7605,782.3531 265.9433,782.3531 Q266.2386,782.3531 266.4636,782.5922 Q266.7027,782.8172 266.7027,783.1266 Q266.7027,783.4359 266.3933,783.8016 Q265.9433,784.3219 265.2261,784.6172 Q264.2558,785.025 263.0886,785.025 Q261.7245,785.025 260.6417,784.4625 Q259.7558,784.0125 259.137,783.0563 Q258.5183,782.0859 258.5183,780.9328 L258.5183,779.8922 Q258.5183,778.6969 259.0667,777.6703 Q259.6292,776.6297 260.6136,776.0813 Q261.598,775.5188 262.7089,775.5188 Q263.3698,775.5188 263.9464,775.6734 Q264.537,775.8141 265.0292,776.1375 Z " fill="#000000"/><text fill="#000000" font-family="sans-serif" font-size="12.6" lengthAdjust="spacing" textLength="58.1273" x="280.4824" y="785.0672">Apartment</text><line style="stroke:#181818;stroke-width:0.45;" x1="225.9" x2="364.4499" y1="794.25" y2="794.25"/><ellipse cx="234.9" cy="807.5795" fill="none" rx="2.7" ry="2.7" style="stroke:#038048;stroke-width:0.9;"/><text fill="#000000" font-family="sans-serif" font-size="12.6" lengthAdjust="spacing" textLength="69.3246" x="243" y="811.4467">floorNumber</text><ellipse cx="234.9" cy="824.3385" fill="none" rx="2.7" ry="2.7" style="stroke:#038048;stroke-width:0.9;"/><text fill="#000000" font-family="sans-serif" font-size="12.6" lengthAdjust="spacing" textLength="113.4492" x="243" y="828.2057">numberOfBedrooms</text><ellipse cx="234.9" cy="841.0975" fill="none" rx="2.7" ry="2.7" style="stroke:#038048;stroke-width:0.9;"/><text fill="#000000" font-family="sans-serif" font-size="12.6" lengthAdjust="spacing" textLength="116.9499" x="243" y="844.9646">numberOfBathrooms</text><ellipse cx="234.9" cy="857.8564" fill="none" rx="2.7" ry="2.7" style="stroke:#038048;stroke-width:0.9;"/><text fill="#000000" font-family="sans-serif" font-size="12.6" lengthAdjust="spacing" textLength="83.352" x="243" y="861.7236">parkingSpaces</text><ellipse cx="234.9" cy="874.6154" fill="none" rx="2.7" ry="2.7" style="stroke:#038048;stroke-width:0.9;"/><text fill="#000000" font-family="sans-serif" font-size="12.6" lengthAdjust="spacing" textLength="58.841" x="243" y="878.4826">equipment</text><line style="stroke:#181818;stroke-width:0.45;" x1="225.9" x2="364.4499" y1="885.2449" y2="885.2449"/></g><!--class Land--><g id="elem_Land"><rect codeLine="37" fill="#F1F1F1" height="43.2" id="Land" rx="2.25" ry="2.25" style="stroke:#181818;stroke-width:0.45;" width="56.8301" x="397.35" y="807.3"/><ellipse cx="410.85" cy="821.7" fill="#ADD1B2" rx="9.9" ry="9.9" style="stroke:#181818;stroke-width:0.9;"/><path d="M413.3391,817.9875 Q413.4797,817.7906 413.6484,817.6922 Q413.8172,817.5938 414.0141,817.5938 Q414.3516,817.5938 414.5625,817.8328 Q414.7734,818.0578 414.7734,818.6063 L414.7734,819.9141 Q414.7734,820.4625 414.5625,820.7016 Q414.3516,820.9406 414.0141,820.9406 Q413.7047,820.9406 413.5219,820.7578 Q413.3391,820.5891 413.2406,820.125 Q413.1984,819.8016 413.0297,819.6328 Q412.7344,819.2953 412.1859,819.0984 Q411.6375,818.9016 411.075,818.9016 Q410.3859,818.9016 409.8094,819.1969 Q409.2469,819.4922 408.7969,820.1672 Q408.3609,820.8422 408.3609,821.7703 L408.3609,822.7547 Q408.3609,823.8656 409.1625,824.6109 Q409.9641,825.3422 411.3984,825.3422 Q412.2422,825.3422 412.8328,825.1172 Q413.1844,824.9766 413.5641,824.5828 Q413.8031,824.3438 413.9297,824.2734 Q414.0703,824.2031 414.2531,824.2031 Q414.5484,824.2031 414.7734,824.4422 Q415.0125,824.6672 415.0125,824.9766 Q415.0125,825.2859 414.7031,825.6516 Q414.2531,826.1719 413.5359,826.4672 Q412.5656,826.875 411.3984,826.875 Q410.0344,826.875 408.9516,826.3125 Q408.0656,825.8625 407.4469,824.9063 Q406.8281,823.9359 406.8281,822.7828 L406.8281,821.7422 Q406.8281,820.5469 407.3766,819.5203 Q407.9391,818.4797 408.9234,817.9313 Q409.9078,817.3688 411.0188,817.3688 Q411.6797,817.3688 412.2563,817.5234 Q412.8469,817.6641 413.3391,817.9875 Z " fill="#000000"/><text fill="#000000" font-family="sans-serif" font-size="12.6" lengthAdjust="spacing" textLength="28.0301" x="423.45" y="826.9172">Land</text><line style="stroke:#181818;stroke-width:0.45;" x1="398.25" x2="453.2801" y1="836.1" y2="836.1"/><line style="stroke:#181818;stroke-width:0.45;" x1="398.25" x2="453.2801" y1="843.3" y2="843.3"/></g><!--class Owner--><g id="elem_Owner"><rect codeLine="40" fill="#F1F1F1" height="93.477" id="Owner" rx="2.25" ry="2.25" style="stroke:#181818;stroke-width:0.45;" width="103.2513" x="310.95" y="385.2"/><ellipse cx="341.2531" cy="399.6" fill="#ADD1B2" rx="9.9" ry="9.9" style="stroke:#181818;stroke-width:0.9;"/><path d="M343.7422,395.8875 Q343.8828,395.6906 344.0516,395.5922 Q344.2203,395.4938 344.4172,395.4938 Q344.7547,395.4938 344.9656,395.7328 Q345.1766,395.9578 345.1766,396.5063 L345.1766,397.8141 Q345.1766,398.3625 344.9656,398.6016 Q344.7547,398.8406 344.4172,398.8406 Q344.1078,398.8406 343.925,398.6578 Q343.7422,398.4891 343.6438,398.025 Q343.6016,397.7016 343.4328,397.5328 Q343.1375,397.1953 342.5891,396.9984 Q342.0406,396.8016 341.4781,396.8016 Q340.7891,396.8016 340.2125,397.0969 Q339.65,397.3922 339.2,398.0672 Q338.7641,398.7422 338.7641,399.6703 L338.7641,400.6547 Q338.7641,401.7656 339.5656,402.5109 Q340.3672,403.2422 341.8016,403.2422 Q342.6453,403.2422 343.236,403.0172 Q343.5875,402.8766 343.9672,402.4828 Q344.2063,402.2438 344.3328,402.1734 Q344.4735,402.1031 344.6563,402.1031 Q344.9516,402.1031 345.1766,402.3422 Q345.4156,402.5672 345.4156,402.8766 Q345.4156,403.1859 345.1063,403.5516 Q344.6563,404.0719 343.9391,404.3672 Q342.9688,404.775 341.8016,404.775 Q340.4375,404.775 339.3547,404.2125 Q338.4688,403.7625 337.85,402.8063 Q337.2313,401.8359 337.2313,400.6828 L337.2313,399.6422 Q337.2313,398.4469 337.7797,397.4203 Q338.3422,396.3797 339.3266,395.8313 Q340.311,395.2688 341.4219,395.2688 Q342.0828,395.2688 342.6594,395.4234 Q343.25,395.5641 343.7422,395.8875 Z " fill="#000000"/><text fill="#000000" font-family="sans-serif" font-size="12.6" lengthAdjust="spacing" textLength="37.1109" x="357.5872" y="404.8172">Owner</text><line style="stroke:#181818;stroke-width:0.45;" x1="311.85" x2="413.3013" y1="414" y2="414"/><ellipse cx="320.85" cy="427.3295" fill="none" rx="2.7" ry="2.7" style="stroke:#038048;stroke-width:0.9;"/><text fill="#000000" font-family="sans-serif" font-size="12.6" lengthAdjust="spacing" textLength="31.5185" x="328.95" y="431.1967">name</text><ellipse cx="320.85" cy="444.0885" fill="none" rx="2.7" ry="2.7" style="stroke:#038048;stroke-width:0.9;"/><text fill="#000000" font-family="sans-serif" font-size="12.6" lengthAdjust="spacing" textLength="72.1301" x="328.95" y="447.9557">taxIdNumber</text><ellipse cx="320.85" cy="460.8475" fill="none" rx="2.7" ry="2.7" style="stroke:#038048;stroke-width:0.9;"/><text fill="#000000" font-family="sans-serif" font-size="12.6" lengthAdjust="spacing" textLength="79.8513" x="328.95" y="464.7146">phoneNumber</text><line style="stroke:#181818;stroke-width:0.45;" x1="311.85" x2="413.3013" y1="471.477" y2="471.477"/></g><!--class RealEstateAgent--><g id="elem_RealEstateAgent"><rect codeLine="46" fill="#F1F1F1" height="110.2359" id="RealEstateAgent" rx="2.25" ry="2.25" style="stroke:#181818;stroke-width:0.45;" width="131.2383" x="242.1" y="204.3"/><ellipse cx="259.1445" cy="218.7" fill="#ADD1B2" rx="9.9" ry="9.9" style="stroke:#181818;stroke-width:0.9;"/><path d="M261.6336,214.9875 Q261.7742,214.7906 261.943,214.6922 Q262.1117,214.5938 262.3086,214.5938 Q262.6461,214.5938 262.857,214.8328 Q263.068,215.0578 263.068,215.6063 L263.068,216.9141 Q263.068,217.4625 262.857,217.7016 Q262.6461,217.9406 262.3086,217.9406 Q261.9992,217.9406 261.8164,217.7578 Q261.6336,217.5891 261.5352,217.125 Q261.493,216.8016 261.3242,216.6328 Q261.0289,216.2953 260.4805,216.0984 Q259.932,215.9016 259.3695,215.9016 Q258.6805,215.9016 258.1039,216.1969 Q257.5414,216.4922 257.0914,217.1672 Q256.6555,217.8422 256.6555,218.7703 L256.6555,219.7547 Q256.6555,220.8656 257.457,221.6109 Q258.2586,222.3422 259.693,222.3422 Q260.5367,222.3422 261.1274,222.1172 Q261.4789,221.9766 261.8586,221.5828 Q262.0977,221.3438 262.2242,221.2734 Q262.3649,221.2031 262.5477,221.2031 Q262.843,221.2031 263.068,221.4422 Q263.307,221.6672 263.307,221.9766 Q263.307,222.2859 262.9977,222.6516 Q262.5477,223.1719 261.8305,223.4672 Q260.8602,223.875 259.693,223.875 Q258.3289,223.875 257.2461,223.3125 Q256.3602,222.8625 255.7414,221.9063 Q255.1227,220.9359 255.1227,219.7828 L255.1227,218.7422 Q255.1227,217.5469 255.6711,216.5203 Q256.2336,215.4797 257.218,214.9313 Q258.2024,214.3688 259.3133,214.3688 Q259.9742,214.3688 260.5508,214.5234 Q261.1414,214.6641 261.6336,214.9875 Z " fill="#000000"/><text fill="#000000" font-family="sans-serif" font-size="12.6" lengthAdjust="spacing" textLength="94.5615" x="272.5322" y="223.9172">RealEstateAgent</text><line style="stroke:#181818;stroke-width:0.45;" x1="243" x2="372.4383" y1="233.1" y2="233.1"/><ellipse cx="252" cy="246.4295" fill="none" rx="2.7" ry="2.7" style="stroke:#038048;stroke-width:0.9;"/><text fill="#000000" font-family="sans-serif" font-size="12.6" lengthAdjust="spacing" textLength="31.5185" x="260.1" y="250.2967">name</text><ellipse cx="252" cy="263.1885" fill="none" rx="2.7" ry="2.7" style="stroke:#038048;stroke-width:0.9;"/><text fill="#000000" font-family="sans-serif" font-size="12.6" lengthAdjust="spacing" textLength="107.8383" x="260.1" y="267.0557">citizenCardNumber</text><ellipse cx="252" cy="279.9475" fill="none" rx="2.7" ry="2.7" style="stroke:#038048;stroke-width:0.9;"/><text fill="#000000" font-family="sans-serif" font-size="12.6" lengthAdjust="spacing" textLength="30.1096" x="260.1" y="283.8146">email</text><ellipse cx="252" cy="296.7064" fill="none" rx="2.7" ry="2.7" style="stroke:#038048;stroke-width:0.9;"/><text fill="#000000" font-family="sans-serif" font-size="12.6" lengthAdjust="spacing" textLength="79.8513" x="260.1" y="300.5736">phoneNumber</text><line style="stroke:#181818;stroke-width:0.45;" x1="243" x2="372.4383" y1="307.3359" y2="307.3359"/></g><!--class Listing--><g id="elem_Listing"><rect codeLine="53" fill="#F1F1F1" height="93.477" id="Listing" rx="2.25" ry="2.25" style="stroke:#181818;stroke-width:0.45;" width="101.141" x="178.2" y="385.2"/><ellipse cx="207.8636" cy="399.6" fill="#ADD1B2" rx="9.9" ry="9.9" style="stroke:#181818;stroke-width:0.9;"/><path d="M210.3527,395.8875 Q210.4933,395.6906 210.6621,395.5922 Q210.8308,395.4938 211.0277,395.4938 Q211.3652,395.4938 211.5761,395.7328 Q211.7871,395.9578 211.7871,396.5063 L211.7871,397.8141 Q211.7871,398.3625 211.5761,398.6016 Q211.3652,398.8406 211.0277,398.8406 Q210.7183,398.8406 210.5355,398.6578 Q210.3527,398.4891 210.2542,398.025 Q210.2121,397.7016 210.0433,397.5328 Q209.748,397.1953 209.1996,396.9984 Q208.6511,396.8016 208.0886,396.8016 Q207.3996,396.8016 206.823,397.0969 Q206.2605,397.3922 205.8105,398.0672 Q205.3746,398.7422 205.3746,399.6703 L205.3746,400.6547 Q205.3746,401.7656 206.1761,402.5109 Q206.9777,403.2422 208.4121,403.2422 Q209.2558,403.2422 209.8464,403.0172 Q210.198,402.8766 210.5777,402.4828 Q210.8167,402.2438 210.9433,402.1734 Q211.0839,402.1031 211.2667,402.1031 Q211.5621,402.1031 211.7871,402.3422 Q212.0261,402.5672 212.0261,402.8766 Q212.0261,403.1859 211.7167,403.5516 Q211.2667,404.0719 210.5496,404.3672 Q209.5792,404.775 208.4121,404.775 Q207.048,404.775 205.9652,404.2125 Q205.0792,403.7625 204.4605,402.8063 Q203.8417,401.8359 203.8417,400.6828 L203.8417,399.6422 Q203.8417,398.4469 204.3902,397.4203 Q204.9527,396.3797 205.9371,395.8313 Q206.9214,395.2688 208.0324,395.2688 Q208.6933,395.2688 209.2699,395.4234 Q209.8605,395.5641 210.3527,395.8875 Z " fill="#000000"/><text fill="#000000" font-family="sans-serif" font-size="12.6" lengthAdjust="spacing" textLength="36.4219" x="224.0555" y="404.8172">Listing</text><line style="stroke:#181818;stroke-width:0.45;" x1="179.1" x2="278.441" y1="414" y2="414"/><ellipse cx="188.1" cy="427.3295" fill="none" rx="2.7" ry="2.7" style="stroke:#038048;stroke-width:0.9;"/><text fill="#000000" font-family="sans-serif" font-size="12.6" lengthAdjust="spacing" textLength="66.5438" x="196.2" y="431.1967">publishDate</text><ellipse cx="188.1" cy="444.0885" fill="none" rx="2.7" ry="2.7" style="stroke:#038048;stroke-width:0.9;"/><text fill="#000000" font-family="sans-serif" font-size="12.6" lengthAdjust="spacing" textLength="77.741" x="196.2" y="447.9557">businessType</text><ellipse cx="188.1" cy="460.8475" fill="none" rx="2.7" ry="2.7" style="stroke:#038048;stroke-width:0.9;"/><text fill="#000000" font-family="sans-serif" font-size="12.6" lengthAdjust="spacing" textLength="66.513" x="196.2" y="464.7146">commission</text><line style="stroke:#181818;stroke-width:0.45;" x1="179.1" x2="278.441" y1="471.477" y2="471.477"/></g><!--class Visit--><g id="elem_Visit"><rect codeLine="59" fill="#F1F1F1" height="43.2" id="Visit" rx="2.25" ry="2.25" style="stroke:#181818;stroke-width:0.45;" width="52.6034" x="6.3" y="237.6"/><ellipse cx="19.8" cy="252" fill="#ADD1B2" rx="9.9" ry="9.9" style="stroke:#181818;stroke-width:0.9;"/><path d="M22.2891,248.2875 Q22.4297,248.0906 22.5984,247.9922 Q22.7672,247.8938 22.9641,247.8938 Q23.3016,247.8938 23.5125,248.1328 Q23.7234,248.3578 23.7234,248.9063 L23.7234,250.2141 Q23.7234,250.7625 23.5125,251.0016 Q23.3016,251.2406 22.9641,251.2406 Q22.6547,251.2406 22.4719,251.0578 Q22.2891,250.8891 22.1906,250.425 Q22.1484,250.1016 21.9797,249.9328 Q21.6844,249.5953 21.1359,249.3984 Q20.5875,249.2016 20.025,249.2016 Q19.3359,249.2016 18.7594,249.4969 Q18.1969,249.7922 17.7469,250.4672 Q17.3109,251.1422 17.3109,252.0703 L17.3109,253.0547 Q17.3109,254.1656 18.1125,254.9109 Q18.9141,255.6422 20.3484,255.6422 Q21.1922,255.6422 21.7828,255.4172 Q22.1344,255.2766 22.5141,254.8828 Q22.7531,254.6438 22.8797,254.5734 Q23.0203,254.5031 23.2031,254.5031 Q23.4984,254.5031 23.7234,254.7422 Q23.9625,254.9672 23.9625,255.2766 Q23.9625,255.5859 23.6531,255.9516 Q23.2031,256.4719 22.4859,256.7672 Q21.5156,257.175 20.3484,257.175 Q18.9844,257.175 17.9016,256.6125 Q17.0156,256.1625 16.3969,255.2063 Q15.7781,254.2359 15.7781,253.0828 L15.7781,252.0422 Q15.7781,250.8469 16.3266,249.8203 Q16.8891,248.7797 17.8734,248.2313 Q18.8578,247.6688 19.9688,247.6688 Q20.6297,247.6688 21.2063,247.8234 Q21.7969,247.9641 22.2891,248.2875 Z " fill="#000000"/><text fill="#000000" font-family="sans-serif" font-size="12.6" lengthAdjust="spacing" textLength="23.8034" x="32.4" y="257.2172">Visit</text><line style="stroke:#181818;stroke-width:0.45;" x1="7.2" x2="58.0034" y1="266.4" y2="266.4"/><line style="stroke:#181818;stroke-width:0.45;" x1="7.2" x2="58.0034" y1="273.6" y2="273.6"/></g><!--class Branch--><g id="elem_Branch"><rect codeLine="62" fill="#F1F1F1" height="110.2359" id="Branch" rx="2.25" ry="2.25" style="stroke:#181818;stroke-width:0.45;" width="101.8547" x="256.95" y="14.85"/><ellipse cx="285.3595" cy="29.25" fill="#ADD1B2" rx="9.9" ry="9.9" style="stroke:#181818;stroke-width:0.9;"/><path d="M287.8485,25.5375 Q287.9891,25.3406 288.1579,25.2422 Q288.3266,25.1438 288.5235,25.1438 Q288.861,25.1438 289.072,25.3828 Q289.2829,25.6078 289.2829,26.1563 L289.2829,27.4641 Q289.2829,28.0125 289.072,28.2516 Q288.861,28.4906 288.5235,28.4906 Q288.2141,28.4906 288.0313,28.3078 Q287.8485,28.1391 287.7501,27.675 Q287.7079,27.3516 287.5391,27.1828 Q287.2438,26.8453 286.6954,26.6484 Q286.147,26.4516 285.5845,26.4516 Q284.8954,26.4516 284.3188,26.7469 Q283.7563,27.0422 283.3063,27.7172 Q282.8704,28.3922 282.8704,29.3203 L282.8704,30.3047 Q282.8704,31.4156 283.672,32.1609 Q284.4735,32.8922 285.9079,32.8922 Q286.7516,32.8922 287.3423,32.6672 Q287.6938,32.5266 288.0735,32.1328 Q288.3126,31.8938 288.4391,31.8234 Q288.5798,31.7531 288.7626,31.7531 Q289.0579,31.7531 289.2829,31.9922 Q289.522,32.2172 289.522,32.5266 Q289.522,32.8359 289.2126,33.2016 Q288.7626,33.7219 288.0454,34.0172 Q287.0751,34.425 285.9079,34.425 Q284.5438,34.425 283.461,33.8625 Q282.5751,33.4125 281.9563,32.4563 Q281.3376,31.4859 281.3376,30.3328 L281.3376,29.2922 Q281.3376,28.0969 281.886,27.0703 Q282.4485,26.0297 283.4329,25.4813 Q284.4173,24.9188 285.5282,24.9188 Q286.1891,24.9188 286.7657,25.0734 Q287.3563,25.2141 287.8485,25.5375 Z " fill="#000000"/><text fill="#000000" font-family="sans-serif" font-size="12.6" lengthAdjust="spacing" textLength="39.9226" x="301.2727" y="34.4672">Branch</text><line style="stroke:#181818;stroke-width:0.45;" x1="257.85" x2="357.9047" y1="43.65" y2="43.65"/><ellipse cx="266.85" cy="56.9795" fill="none" rx="2.7" ry="2.7" style="stroke:#038048;stroke-width:0.9;"/><text fill="#000000" font-family="sans-serif" font-size="12.6" lengthAdjust="spacing" textLength="27.3226" x="274.95" y="60.8467">code</text><ellipse cx="266.85" cy="73.7385" fill="none" rx="2.7" ry="2.7" style="stroke:#038048;stroke-width:0.9;"/><text fill="#000000" font-family="sans-serif" font-size="12.6" lengthAdjust="spacing" textLength="31.5185" x="274.95" y="77.6057">name</text><ellipse cx="266.85" cy="90.4975" fill="none" rx="2.7" ry="2.7" style="stroke:#038048;stroke-width:0.9;"/><text fill="#000000" font-family="sans-serif" font-size="12.6" lengthAdjust="spacing" textLength="44.826" x="274.95" y="94.3646">address</text><ellipse cx="266.85" cy="107.2564" fill="none" rx="2.7" ry="2.7" style="stroke:#038048;stroke-width:0.9;"/><text fill="#000000" font-family="sans-serif" font-size="12.6" lengthAdjust="spacing" textLength="78.4547" x="274.95" y="111.1236">openingHours</text><line style="stroke:#181818;stroke-width:0.45;" x1="257.85" x2="357.9047" y1="117.8859" y2="117.8859"/></g><!--class Sale--><g id="elem_Sale"><rect codeLine="69" fill="#F1F1F1" height="93.477" id="Sale" rx="2.25" ry="2.25" style="stroke:#181818;stroke-width:0.45;" width="120.767" x="90" y="212.4"/><ellipse cx="133.9493" cy="226.8" fill="#ADD1B2" rx="9.9" ry="9.9" style="stroke:#181818;stroke-width:0.9;"/><path d="M136.4383,223.0875 Q136.579,222.8906 136.7477,222.7922 Q136.9165,222.6938 137.1133,222.6938 Q137.4508,222.6938 137.6618,222.9328 Q137.8727,223.1578 137.8727,223.7063 L137.8727,225.0141 Q137.8727,225.5625 137.6618,225.8016 Q137.4508,226.0406 137.1133,226.0406 Q136.804,226.0406 136.6211,225.8578 Q136.4383,225.6891 136.3399,225.225 Q136.2977,224.9016 136.129,224.7328 Q135.8336,224.3953 135.2852,224.1984 Q134.7368,224.0016 134.1743,224.0016 Q133.4852,224.0016 132.9086,224.2969 Q132.3461,224.5922 131.8961,225.2672 Q131.4602,225.9422 131.4602,226.8703 L131.4602,227.8547 Q131.4602,228.9656 132.2618,229.7109 Q133.0633,230.4422 134.4977,230.4422 Q135.3415,230.4422 135.9321,230.2172 Q136.2836,230.0766 136.6633,229.6828 Q136.9024,229.4438 137.029,229.3734 Q137.1696,229.3031 137.3524,229.3031 Q137.6477,229.3031 137.8727,229.5422 Q138.1118,229.7672 138.1118,230.0766 Q138.1118,230.3859 137.8024,230.7516 Q137.3524,231.2719 136.6352,231.5672 Q135.6649,231.975 134.4977,231.975 Q133.1336,231.975 132.0508,231.4125 Q131.1649,230.9625 130.5461,230.0063 Q129.9274,229.0359 129.9274,227.8828 L129.9274,226.8422 Q129.9274,225.6469 130.4758,224.6203 Q131.0383,223.5797 132.0227,223.0313 Q133.0071,222.4688 134.118,222.4688 Q134.779,222.4688 135.3555,222.6234 Q135.9461,222.7641 136.4383,223.0875 Z " fill="#000000"/><text fill="#000000" font-family="sans-serif" font-size="12.6" lengthAdjust="spacing" textLength="25.2185" x="152.3993" y="232.0172">Sale</text><line style="stroke:#181818;stroke-width:0.45;" x1="90.9" x2="209.867" y1="241.2" y2="241.2"/><ellipse cx="99.9" cy="254.5295" fill="none" rx="2.7" ry="2.7" style="stroke:#038048;stroke-width:0.9;"/><text fill="#000000" font-family="sans-serif" font-size="12.6" lengthAdjust="spacing" textLength="70.0444" x="108" y="258.3967">% saleValue</text><ellipse cx="99.9" cy="271.2885" fill="none" rx="2.7" ry="2.7" style="stroke:#038048;stroke-width:0.9;"/><text fill="#000000" font-family="sans-serif" font-size="12.6" lengthAdjust="spacing" textLength="97.367" x="108" y="275.1557">responsibleAgent</text><ellipse cx="99.9" cy="288.0475" fill="none" rx="2.7" ry="2.7" style="stroke:#038048;stroke-width:0.9;"/><text fill="#000000" font-family="sans-serif" font-size="12.6" lengthAdjust="spacing" textLength="63.7321" x="108" y="291.9146">buyerClient</text><line style="stroke:#181818;stroke-width:0.45;" x1="90.9" x2="209.867" y1="298.677" y2="298.677"/></g><!--link Client to Visit--><g id="link_Client_Visit"><path codeLine="75" d="M53.361,133.344 C49.806,142.209 46.575,151.326 44.1,160.2 C36.873,186.138 34.11,217.161 33.057,237.276 " fill="none" id="Client-Visit" style="stroke:#181818;stroke-width:0.9;"/><text fill="#000000" font-family="sans-serif" font-size="11.7" lengthAdjust="spacing" textLength="52.6843" x="45" y="173.7255">schedules</text><text fill="#000000" font-family="sans-serif" font-size="11.7" lengthAdjust="spacing" textLength="6.507" x="43.5336" y="153.3251">1</text><text fill="#000000" font-family="sans-serif" font-size="11.7" lengthAdjust="spacing" textLength="17.5614" x="14.0402" y="227.4247">0..*</text></g><!--link Owner to Property--><g id="link_Owner_Property"><path codeLine="76" d="M346.185,478.917 C338.535,500.229 329.274,526.05 320.751,549.801 " fill="none" id="Owner-Property" style="stroke:#181818;stroke-width:0.9;"/><text fill="#000000" font-family="sans-serif" font-size="11.7" lengthAdjust="spacing" textLength="27.3133" x="335.7" y="519.3255">owns</text><text fill="#000000" font-family="sans-serif" font-size="11.7" lengthAdjust="spacing" textLength="6.507" x="337.3946" y="498.5585">1</text><text fill="#000000" font-family="sans-serif" font-size="11.7" lengthAdjust="spacing" textLength="17.5614" x="305.2421" y="539.798">0..*</text></g><!--link Property to House--><g id="link_Property_House"><path codeLine="77" d="M235.557,693.99 C220.824,711.585 204.939,730.548 189.891,748.512 " fill="none" id="Property-House" style="stroke:#181818;stroke-width:0.9;"/></g><!--link Property to Apartment--><g id="link_Property_Apartment"><path codeLine="78" d="M295.2,693.99 C295.2,717.147 295.2,742.653 295.2,765.153 " fill="none" id="Property-Apartment" style="stroke:#181818;stroke-width:0.9;"/></g><!--link Property to Land--><g id="link_Property_Land"><path codeLine="79" d="M345.717,693.999 C357.795,711.693 370.431,730.764 381.6,748.8 C393.615,768.204 406.17,791.028 414.792,807.183 " fill="none" id="Property-Land" style="stroke:#181818;stroke-width:0.9;"/></g><!--link RealEstateAgent to Listing--><g id="link_RealEstateAgent_Listing"><path codeLine="80" d="M282.744,314.208 C272.178,337.005 260.019,363.258 249.903,385.11 " fill="none" id="RealEstateAgent-Listing" style="stroke:#181818;stroke-width:0.9;"/><text fill="#000000" font-family="sans-serif" font-size="11.7" lengthAdjust="spacing" textLength="48.1311" x="269.1" y="354.6255">manages</text><text fill="#000000" font-family="sans-serif" font-size="11.7" lengthAdjust="spacing" textLength="6.507" x="273.0289" y="334.4593">1</text><text fill="#000000" font-family="sans-serif" font-size="11.7" lengthAdjust="spacing" textLength="17.5614" x="234.5248" y="375.1325">0..*</text></g><!--link Listing to Property--><g id="link_Listing_Property"><path codeLine="81" d="M244.89,478.917 C252.441,500.229 261.585,526.05 269.991,549.801 " fill="none" id="Listing-Property" style="stroke:#181818;stroke-width:0.9;"/><text fill="#000000" font-family="sans-serif" font-size="11.7" lengthAdjust="spacing" textLength="53.3241" x="261" y="519.3255">advertises</text><text fill="#000000" font-family="sans-serif" font-size="11.7" lengthAdjust="spacing" textLength="17.5614" x="228.7894" y="498.5585">0..*</text><text fill="#000000" font-family="sans-serif" font-size="11.7" lengthAdjust="spacing" textLength="6.507" x="261.0888" y="539.798">1</text></g><!--link Branch to RealEstateAgent--><g id="link_Branch_RealEstateAgent"><path codeLine="82" d="M307.8,124.677 C307.8,149.58 307.8,179.073 307.8,204.003 " fill="none" id="Branch-RealEstateAgent" style="stroke:#181818;stroke-width:0.9;"/><text fill="#000000" font-family="sans-serif" font-size="11.7" lengthAdjust="spacing" textLength="43.5665" x="308.7" y="173.7255">employs</text><text fill="#000000" font-family="sans-serif" font-size="11.7" lengthAdjust="spacing" textLength="6.507" x="301.1193" y="144.9185">1</text><text fill="#000000" font-family="sans-serif" font-size="11.7" lengthAdjust="spacing" textLength="17.5614" x="289.7474" y="194.0517">0..*</text></g><!--link Client to Sale--><g id="link_Client_Sale"><path codeLine="83" d="M106.569,133.398 C115.596,159.183 125.856,188.496 134.172,212.238 " fill="none" id="Client-Sale" style="stroke:#181818;stroke-width:0.9;"/><text fill="#000000" font-family="sans-serif" font-size="11.7" lengthAdjust="spacing" textLength="24.714" x="122.4" y="173.7255">buys</text><text fill="#000000" font-family="sans-serif" font-size="11.7" lengthAdjust="spacing" textLength="6.507" x="102.1396" y="153.0501">1</text><text fill="#000000" font-family="sans-serif" font-size="11.7" lengthAdjust="spacing" textLength="17.5614" x="113.7757" y="202.2509">0..*</text></g><!--link Sale to Listing--><g id="link_Sale_Listing"><path codeLine="84" d="M171.387,306.153 C182.574,330.579 196.281,360.522 207.477,384.966 " fill="none" id="Sale-Listing" style="stroke:#181818;stroke-width:0.9;"/><text fill="#000000" font-family="sans-serif" font-size="11.7" lengthAdjust="spacing" textLength="56.5805" x="195.3" y="354.6255">isLinkedTo</text><text fill="#000000" font-family="sans-serif" font-size="11.7" lengthAdjust="spacing" textLength="6.507" x="167.3877" y="325.7992">1</text><text fill="#000000" font-family="sans-serif" font-size="11.7" lengthAdjust="spacing" textLength="6.507" x="197.9063" y="374.9692">1</text></g><!--SRC=[hLDDRzim3BtxLmW1TjdGehdwbcGTLY1OXxNedP7OcAY-9ifhlM7_VPJjk7PG33li99Ac7f_UexK5PhMpX3whNvLI7pmuBAUcJ3_Hxo2PBwqxO2h532ytinGTa2r1R8B7iVwxgdIF-ZM5Y2bt0sxkOeyB2Q6SDcZ857o93N46h_5J2cv7kTi9cs52JAHnd903lu9_3YtZWDm0Ru7HoQKntUHCkiJS-kkN6BXDFOZl6Tu-Rj6a41mlQf2RgHWXFP4_taNGs1VmUqkndp0ns4XJTfDkZpQ4z2hDVnsr1szaofJVFdjCIxlEd7dJa6y8zbgKphWv_flVVpTuBxO9zG4djWTBt7mKz98UMYQFpFUZxJeuHyp5yEd-0p7b-RksIRQW6V1qC3Zd1yOamIkXh9MNkR82QROHTs37XNYdME87i6r_Kwx5u9aETdZtGA_3DAnzGHX_WDLwfIukrEhgylBzQgHNAzODcjQAEuFkowvfosiLdZrNKouj_P8kAjFIBAh5t-hSdUMOazQrSk3XA6HEbR6XjAuNTC3ya8XOUaTXbv3d0sk5BjhGyTjozFhMIfJZgezFdzTpTiHxyazexaFr1m00]--></g></svg>